G04 #@! TF.GenerationSoftware,KiCad,Pcbnew,(5.1.6)-1*
G04 #@! TF.CreationDate,2021-11-02T04:41:39+01:00*
G04 #@! TF.ProjectId,SLAVE,534c4156-452e-46b6-9963-61645f706362,V1*
G04 #@! TF.SameCoordinates,Original*
G04 #@! TF.FileFunction,Legend,Top*
G04 #@! TF.FilePolarity,Positive*
%FSLAX46Y46*%
G04 Gerber Fmt 4.6, Leading zero omitted, Abs format (unit mm)*
G04 Created by KiCad (PCBNEW (5.1.6)-1) date 2021-11-02 04:41:39*
%MOMM*%
%LPD*%
G01*
G04 APERTURE LIST*
%ADD10C,0.300000*%
%ADD11C,0.150000*%
%ADD12C,0.120000*%
%ADD13C,4.600000*%
%ADD14C,2.600000*%
%ADD15C,3.300000*%
%ADD16C,1.700000*%
%ADD17R,1.700000X1.700000*%
%ADD18C,1.900000*%
%ADD19R,1.900000X1.900000*%
%ADD20C,2.650000*%
%ADD21R,1.800000X1.800000*%
%ADD22O,1.800000X1.800000*%
%ADD23C,3.100000*%
%ADD24R,3.100000X3.100000*%
%ADD25C,1.600000*%
%ADD26C,2.400000*%
%ADD27R,1.600000X1.600000*%
%ADD28R,2.100000X2.400000*%
%ADD29O,1.700000X1.700000*%
%ADD30R,0.650000X1.700000*%
%ADD31R,1.700000X0.650000*%
%ADD32R,2.100000X4.600000*%
G04 APERTURE END LIST*
D10*
X156108571Y-145477142D02*
X156322857Y-145548571D01*
X156680000Y-145548571D01*
X156822857Y-145477142D01*
X156894285Y-145405714D01*
X156965714Y-145262857D01*
X156965714Y-145120000D01*
X156894285Y-144977142D01*
X156822857Y-144905714D01*
X156680000Y-144834285D01*
X156394285Y-144762857D01*
X156251428Y-144691428D01*
X156180000Y-144620000D01*
X156108571Y-144477142D01*
X156108571Y-144334285D01*
X156180000Y-144191428D01*
X156251428Y-144120000D01*
X156394285Y-144048571D01*
X156751428Y-144048571D01*
X156965714Y-144120000D01*
X158180000Y-145477142D02*
X158037142Y-145548571D01*
X157751428Y-145548571D01*
X157608571Y-145477142D01*
X157537142Y-145334285D01*
X157537142Y-144762857D01*
X157608571Y-144620000D01*
X157751428Y-144548571D01*
X158037142Y-144548571D01*
X158180000Y-144620000D01*
X158251428Y-144762857D01*
X158251428Y-144905714D01*
X157537142Y-145048571D01*
X158894285Y-144548571D02*
X158894285Y-145548571D01*
X158894285Y-144691428D02*
X158965714Y-144620000D01*
X159108571Y-144548571D01*
X159322857Y-144548571D01*
X159465714Y-144620000D01*
X159537142Y-144762857D01*
X159537142Y-145548571D01*
X160180000Y-145477142D02*
X160322857Y-145548571D01*
X160608571Y-145548571D01*
X160751428Y-145477142D01*
X160822857Y-145334285D01*
X160822857Y-145262857D01*
X160751428Y-145120000D01*
X160608571Y-145048571D01*
X160394285Y-145048571D01*
X160251428Y-144977142D01*
X160180000Y-144834285D01*
X160180000Y-144762857D01*
X160251428Y-144620000D01*
X160394285Y-144548571D01*
X160608571Y-144548571D01*
X160751428Y-144620000D01*
X161680000Y-145548571D02*
X161537142Y-145477142D01*
X161465714Y-145405714D01*
X161394285Y-145262857D01*
X161394285Y-144834285D01*
X161465714Y-144691428D01*
X161537142Y-144620000D01*
X161680000Y-144548571D01*
X161894285Y-144548571D01*
X162037142Y-144620000D01*
X162108571Y-144691428D01*
X162180000Y-144834285D01*
X162180000Y-145262857D01*
X162108571Y-145405714D01*
X162037142Y-145477142D01*
X161894285Y-145548571D01*
X161680000Y-145548571D01*
X162822857Y-145548571D02*
X162822857Y-144548571D01*
X162822857Y-144834285D02*
X162894285Y-144691428D01*
X162965714Y-144620000D01*
X163108571Y-144548571D01*
X163251428Y-144548571D01*
X165537142Y-145548571D02*
X165537142Y-144048571D01*
X165537142Y-145477142D02*
X165394285Y-145548571D01*
X165108571Y-145548571D01*
X164965714Y-145477142D01*
X164894285Y-145405714D01*
X164822857Y-145262857D01*
X164822857Y-144834285D01*
X164894285Y-144691428D01*
X164965714Y-144620000D01*
X165108571Y-144548571D01*
X165394285Y-144548571D01*
X165537142Y-144620000D01*
X166822857Y-145477142D02*
X166680000Y-145548571D01*
X166394285Y-145548571D01*
X166251428Y-145477142D01*
X166180000Y-145334285D01*
X166180000Y-144762857D01*
X166251428Y-144620000D01*
X166394285Y-144548571D01*
X166680000Y-144548571D01*
X166822857Y-144620000D01*
X166894285Y-144762857D01*
X166894285Y-144905714D01*
X166180000Y-145048571D01*
X169537142Y-145405714D02*
X169465714Y-145477142D01*
X169251428Y-145548571D01*
X169108571Y-145548571D01*
X168894285Y-145477142D01*
X168751428Y-145334285D01*
X168680000Y-145191428D01*
X168608571Y-144905714D01*
X168608571Y-144691428D01*
X168680000Y-144405714D01*
X168751428Y-144262857D01*
X168894285Y-144120000D01*
X169108571Y-144048571D01*
X169251428Y-144048571D01*
X169465714Y-144120000D01*
X169537142Y-144191428D01*
X170394285Y-145548571D02*
X170251428Y-145477142D01*
X170180000Y-145405714D01*
X170108571Y-145262857D01*
X170108571Y-144834285D01*
X170180000Y-144691428D01*
X170251428Y-144620000D01*
X170394285Y-144548571D01*
X170608571Y-144548571D01*
X170751428Y-144620000D01*
X170822857Y-144691428D01*
X170894285Y-144834285D01*
X170894285Y-145262857D01*
X170822857Y-145405714D01*
X170751428Y-145477142D01*
X170608571Y-145548571D01*
X170394285Y-145548571D01*
X171537142Y-145548571D02*
X171537142Y-144548571D01*
X171537142Y-144834285D02*
X171608571Y-144691428D01*
X171680000Y-144620000D01*
X171822857Y-144548571D01*
X171965714Y-144548571D01*
X172465714Y-145548571D02*
X172465714Y-144548571D01*
X172465714Y-144834285D02*
X172537142Y-144691428D01*
X172608571Y-144620000D01*
X172751428Y-144548571D01*
X172894285Y-144548571D01*
X173394285Y-145548571D02*
X173394285Y-144548571D01*
X173394285Y-144048571D02*
X173322857Y-144120000D01*
X173394285Y-144191428D01*
X173465714Y-144120000D01*
X173394285Y-144048571D01*
X173394285Y-144191428D01*
X174680000Y-145477142D02*
X174537142Y-145548571D01*
X174251428Y-145548571D01*
X174108571Y-145477142D01*
X174037142Y-145334285D01*
X174037142Y-144762857D01*
X174108571Y-144620000D01*
X174251428Y-144548571D01*
X174537142Y-144548571D01*
X174680000Y-144620000D01*
X174751428Y-144762857D01*
X174751428Y-144905714D01*
X174037142Y-145048571D01*
X175394285Y-144548571D02*
X175394285Y-145548571D01*
X175394285Y-144691428D02*
X175465714Y-144620000D01*
X175608571Y-144548571D01*
X175822857Y-144548571D01*
X175965714Y-144620000D01*
X176037142Y-144762857D01*
X176037142Y-145548571D01*
X176537142Y-144548571D02*
X177108571Y-144548571D01*
X176751428Y-144048571D02*
X176751428Y-145334285D01*
X176822857Y-145477142D01*
X176965714Y-145548571D01*
X177108571Y-145548571D01*
X178180000Y-145477142D02*
X178037142Y-145548571D01*
X177751428Y-145548571D01*
X177608571Y-145477142D01*
X177537142Y-145334285D01*
X177537142Y-144762857D01*
X177608571Y-144620000D01*
X177751428Y-144548571D01*
X178037142Y-144548571D01*
X178180000Y-144620000D01*
X178251428Y-144762857D01*
X178251428Y-144905714D01*
X177537142Y-145048571D01*
X158872857Y-120778571D02*
X158872857Y-119278571D01*
X159372857Y-120350000D01*
X159872857Y-119278571D01*
X159872857Y-120778571D01*
X160801428Y-120778571D02*
X160658571Y-120707142D01*
X160587142Y-120635714D01*
X160515714Y-120492857D01*
X160515714Y-120064285D01*
X160587142Y-119921428D01*
X160658571Y-119850000D01*
X160801428Y-119778571D01*
X161015714Y-119778571D01*
X161158571Y-119850000D01*
X161230000Y-119921428D01*
X161301428Y-120064285D01*
X161301428Y-120492857D01*
X161230000Y-120635714D01*
X161158571Y-120707142D01*
X161015714Y-120778571D01*
X160801428Y-120778571D01*
X161087142Y-119207142D02*
X160872857Y-119421428D01*
X162587142Y-120778571D02*
X162587142Y-119278571D01*
X162587142Y-120707142D02*
X162444285Y-120778571D01*
X162158571Y-120778571D01*
X162015714Y-120707142D01*
X161944285Y-120635714D01*
X161872857Y-120492857D01*
X161872857Y-120064285D01*
X161944285Y-119921428D01*
X162015714Y-119850000D01*
X162158571Y-119778571D01*
X162444285Y-119778571D01*
X162587142Y-119850000D01*
X163944285Y-119778571D02*
X163944285Y-120778571D01*
X163301428Y-119778571D02*
X163301428Y-120564285D01*
X163372857Y-120707142D01*
X163515714Y-120778571D01*
X163730000Y-120778571D01*
X163872857Y-120707142D01*
X163944285Y-120635714D01*
X164872857Y-120778571D02*
X164730000Y-120707142D01*
X164658571Y-120564285D01*
X164658571Y-119278571D01*
X165658571Y-120778571D02*
X165515714Y-120707142D01*
X165444285Y-120635714D01*
X165372857Y-120492857D01*
X165372857Y-120064285D01*
X165444285Y-119921428D01*
X165515714Y-119850000D01*
X165658571Y-119778571D01*
X165872857Y-119778571D01*
X166015714Y-119850000D01*
X166087142Y-119921428D01*
X166158571Y-120064285D01*
X166158571Y-120492857D01*
X166087142Y-120635714D01*
X166015714Y-120707142D01*
X165872857Y-120778571D01*
X165658571Y-120778571D01*
X168801428Y-120778571D02*
X168301428Y-120064285D01*
X167944285Y-120778571D02*
X167944285Y-119278571D01*
X168515714Y-119278571D01*
X168658571Y-119350000D01*
X168730000Y-119421428D01*
X168801428Y-119564285D01*
X168801428Y-119778571D01*
X168730000Y-119921428D01*
X168658571Y-119992857D01*
X168515714Y-120064285D01*
X167944285Y-120064285D01*
X170015714Y-120707142D02*
X169872857Y-120778571D01*
X169587142Y-120778571D01*
X169444285Y-120707142D01*
X169372857Y-120564285D01*
X169372857Y-119992857D01*
X169444285Y-119850000D01*
X169587142Y-119778571D01*
X169872857Y-119778571D01*
X170015714Y-119850000D01*
X170087142Y-119992857D01*
X170087142Y-120135714D01*
X169372857Y-120278571D01*
X170944285Y-120778571D02*
X170801428Y-120707142D01*
X170730000Y-120564285D01*
X170730000Y-119278571D01*
X172087142Y-120707142D02*
X171944285Y-120778571D01*
X171658571Y-120778571D01*
X171515714Y-120707142D01*
X171444285Y-120564285D01*
X171444285Y-119992857D01*
X171515714Y-119850000D01*
X171658571Y-119778571D01*
X171944285Y-119778571D01*
X172087142Y-119850000D01*
X172158571Y-119992857D01*
X172158571Y-120135714D01*
X171444285Y-120278571D01*
X171944285Y-119207142D02*
X171730000Y-119421428D01*
X141368571Y-86978571D02*
X141368571Y-85478571D01*
X141868571Y-86550000D01*
X142368571Y-85478571D01*
X142368571Y-86978571D01*
X143297142Y-86978571D02*
X143154285Y-86907142D01*
X143082857Y-86835714D01*
X143011428Y-86692857D01*
X143011428Y-86264285D01*
X143082857Y-86121428D01*
X143154285Y-86050000D01*
X143297142Y-85978571D01*
X143511428Y-85978571D01*
X143654285Y-86050000D01*
X143725714Y-86121428D01*
X143797142Y-86264285D01*
X143797142Y-86692857D01*
X143725714Y-86835714D01*
X143654285Y-86907142D01*
X143511428Y-86978571D01*
X143297142Y-86978571D01*
X143582857Y-85407142D02*
X143368571Y-85621428D01*
X145082857Y-86978571D02*
X145082857Y-85478571D01*
X145082857Y-86907142D02*
X144940000Y-86978571D01*
X144654285Y-86978571D01*
X144511428Y-86907142D01*
X144440000Y-86835714D01*
X144368571Y-86692857D01*
X144368571Y-86264285D01*
X144440000Y-86121428D01*
X144511428Y-86050000D01*
X144654285Y-85978571D01*
X144940000Y-85978571D01*
X145082857Y-86050000D01*
X146440000Y-85978571D02*
X146440000Y-86978571D01*
X145797142Y-85978571D02*
X145797142Y-86764285D01*
X145868571Y-86907142D01*
X146011428Y-86978571D01*
X146225714Y-86978571D01*
X146368571Y-86907142D01*
X146440000Y-86835714D01*
X147368571Y-86978571D02*
X147225714Y-86907142D01*
X147154285Y-86764285D01*
X147154285Y-85478571D01*
X148154285Y-86978571D02*
X148011428Y-86907142D01*
X147940000Y-86835714D01*
X147868571Y-86692857D01*
X147868571Y-86264285D01*
X147940000Y-86121428D01*
X148011428Y-86050000D01*
X148154285Y-85978571D01*
X148368571Y-85978571D01*
X148511428Y-86050000D01*
X148582857Y-86121428D01*
X148654285Y-86264285D01*
X148654285Y-86692857D01*
X148582857Y-86835714D01*
X148511428Y-86907142D01*
X148368571Y-86978571D01*
X148154285Y-86978571D01*
X151297142Y-86835714D02*
X151225714Y-86907142D01*
X151011428Y-86978571D01*
X150868571Y-86978571D01*
X150654285Y-86907142D01*
X150511428Y-86764285D01*
X150440000Y-86621428D01*
X150368571Y-86335714D01*
X150368571Y-86121428D01*
X150440000Y-85835714D01*
X150511428Y-85692857D01*
X150654285Y-85550000D01*
X150868571Y-85478571D01*
X151011428Y-85478571D01*
X151225714Y-85550000D01*
X151297142Y-85621428D01*
X152582857Y-86978571D02*
X152582857Y-86192857D01*
X152511428Y-86050000D01*
X152368571Y-85978571D01*
X152082857Y-85978571D01*
X151940000Y-86050000D01*
X152582857Y-86907142D02*
X152440000Y-86978571D01*
X152082857Y-86978571D01*
X151940000Y-86907142D01*
X151868571Y-86764285D01*
X151868571Y-86621428D01*
X151940000Y-86478571D01*
X152082857Y-86407142D01*
X152440000Y-86407142D01*
X152582857Y-86335714D01*
X153297142Y-85978571D02*
X153297142Y-86978571D01*
X153297142Y-86121428D02*
X153368571Y-86050000D01*
X153511428Y-85978571D01*
X153725714Y-85978571D01*
X153868571Y-86050000D01*
X153940000Y-86192857D01*
X153940000Y-86978571D01*
X155154285Y-86192857D02*
X155368571Y-86264285D01*
X155440000Y-86335714D01*
X155511428Y-86478571D01*
X155511428Y-86692857D01*
X155440000Y-86835714D01*
X155368571Y-86907142D01*
X155225714Y-86978571D01*
X154654285Y-86978571D01*
X154654285Y-85478571D01*
X155154285Y-85478571D01*
X155297142Y-85550000D01*
X155368571Y-85621428D01*
X155440000Y-85764285D01*
X155440000Y-85907142D01*
X155368571Y-86050000D01*
X155297142Y-86121428D01*
X155154285Y-86192857D01*
X154654285Y-86192857D01*
X156797142Y-85978571D02*
X156797142Y-86978571D01*
X156154285Y-85978571D02*
X156154285Y-86764285D01*
X156225714Y-86907142D01*
X156368571Y-86978571D01*
X156582857Y-86978571D01*
X156725714Y-86907142D01*
X156797142Y-86835714D01*
X157440000Y-86907142D02*
X157582857Y-86978571D01*
X157868571Y-86978571D01*
X158011428Y-86907142D01*
X158082857Y-86764285D01*
X158082857Y-86692857D01*
X158011428Y-86550000D01*
X157868571Y-86478571D01*
X157654285Y-86478571D01*
X157511428Y-86407142D01*
X157440000Y-86264285D01*
X157440000Y-86192857D01*
X157511428Y-86050000D01*
X157654285Y-85978571D01*
X157868571Y-85978571D01*
X158011428Y-86050000D01*
X146314285Y-62707142D02*
X146528571Y-62778571D01*
X146885714Y-62778571D01*
X147028571Y-62707142D01*
X147100000Y-62635714D01*
X147171428Y-62492857D01*
X147171428Y-62350000D01*
X147100000Y-62207142D01*
X147028571Y-62135714D01*
X146885714Y-62064285D01*
X146600000Y-61992857D01*
X146457142Y-61921428D01*
X146385714Y-61850000D01*
X146314285Y-61707142D01*
X146314285Y-61564285D01*
X146385714Y-61421428D01*
X146457142Y-61350000D01*
X146600000Y-61278571D01*
X146957142Y-61278571D01*
X147171428Y-61350000D01*
X148385714Y-62707142D02*
X148242857Y-62778571D01*
X147957142Y-62778571D01*
X147814285Y-62707142D01*
X147742857Y-62564285D01*
X147742857Y-61992857D01*
X147814285Y-61850000D01*
X147957142Y-61778571D01*
X148242857Y-61778571D01*
X148385714Y-61850000D01*
X148457142Y-61992857D01*
X148457142Y-62135714D01*
X147742857Y-62278571D01*
X149100000Y-61778571D02*
X149100000Y-62778571D01*
X149100000Y-61921428D02*
X149171428Y-61850000D01*
X149314285Y-61778571D01*
X149528571Y-61778571D01*
X149671428Y-61850000D01*
X149742857Y-61992857D01*
X149742857Y-62778571D01*
X150385714Y-62707142D02*
X150528571Y-62778571D01*
X150814285Y-62778571D01*
X150957142Y-62707142D01*
X151028571Y-62564285D01*
X151028571Y-62492857D01*
X150957142Y-62350000D01*
X150814285Y-62278571D01*
X150600000Y-62278571D01*
X150457142Y-62207142D01*
X150385714Y-62064285D01*
X150385714Y-61992857D01*
X150457142Y-61850000D01*
X150600000Y-61778571D01*
X150814285Y-61778571D01*
X150957142Y-61850000D01*
X151885714Y-62778571D02*
X151742857Y-62707142D01*
X151671428Y-62635714D01*
X151600000Y-62492857D01*
X151600000Y-62064285D01*
X151671428Y-61921428D01*
X151742857Y-61850000D01*
X151885714Y-61778571D01*
X152100000Y-61778571D01*
X152242857Y-61850000D01*
X152314285Y-61921428D01*
X152385714Y-62064285D01*
X152385714Y-62492857D01*
X152314285Y-62635714D01*
X152242857Y-62707142D01*
X152100000Y-62778571D01*
X151885714Y-62778571D01*
X153028571Y-62778571D02*
X153028571Y-61778571D01*
X153028571Y-62064285D02*
X153100000Y-61921428D01*
X153171428Y-61850000D01*
X153314285Y-61778571D01*
X153457142Y-61778571D01*
X155742857Y-62778571D02*
X155742857Y-61278571D01*
X155742857Y-62707142D02*
X155600000Y-62778571D01*
X155314285Y-62778571D01*
X155171428Y-62707142D01*
X155100000Y-62635714D01*
X155028571Y-62492857D01*
X155028571Y-62064285D01*
X155100000Y-61921428D01*
X155171428Y-61850000D01*
X155314285Y-61778571D01*
X155600000Y-61778571D01*
X155742857Y-61850000D01*
X157028571Y-62707142D02*
X156885714Y-62778571D01*
X156600000Y-62778571D01*
X156457142Y-62707142D01*
X156385714Y-62564285D01*
X156385714Y-61992857D01*
X156457142Y-61850000D01*
X156600000Y-61778571D01*
X156885714Y-61778571D01*
X157028571Y-61850000D01*
X157100000Y-61992857D01*
X157100000Y-62135714D01*
X156385714Y-62278571D01*
X158671428Y-61278571D02*
X159171428Y-62778571D01*
X159671428Y-61278571D01*
X160385714Y-62778571D02*
X160242857Y-62707142D01*
X160171428Y-62635714D01*
X160100000Y-62492857D01*
X160100000Y-62064285D01*
X160171428Y-61921428D01*
X160242857Y-61850000D01*
X160385714Y-61778571D01*
X160600000Y-61778571D01*
X160742857Y-61850000D01*
X160814285Y-61921428D01*
X160885714Y-62064285D01*
X160885714Y-62492857D01*
X160814285Y-62635714D01*
X160742857Y-62707142D01*
X160600000Y-62778571D01*
X160385714Y-62778571D01*
X161742857Y-62778571D02*
X161600000Y-62707142D01*
X161528571Y-62564285D01*
X161528571Y-61278571D01*
X162100000Y-61778571D02*
X162671428Y-61778571D01*
X162314285Y-61278571D02*
X162314285Y-62564285D01*
X162385714Y-62707142D01*
X162528571Y-62778571D01*
X162671428Y-62778571D01*
X163814285Y-62778571D02*
X163814285Y-61992857D01*
X163742857Y-61850000D01*
X163600000Y-61778571D01*
X163314285Y-61778571D01*
X163171428Y-61850000D01*
X163814285Y-62707142D02*
X163671428Y-62778571D01*
X163314285Y-62778571D01*
X163171428Y-62707142D01*
X163100000Y-62564285D01*
X163100000Y-62421428D01*
X163171428Y-62278571D01*
X163314285Y-62207142D01*
X163671428Y-62207142D01*
X163814285Y-62135714D01*
X164528571Y-61778571D02*
X164528571Y-63064285D01*
X164457142Y-63207142D01*
X164314285Y-63278571D01*
X164242857Y-63278571D01*
X164528571Y-61278571D02*
X164457142Y-61350000D01*
X164528571Y-61421428D01*
X164600000Y-61350000D01*
X164528571Y-61278571D01*
X164528571Y-61421428D01*
X165814285Y-62707142D02*
X165671428Y-62778571D01*
X165385714Y-62778571D01*
X165242857Y-62707142D01*
X165171428Y-62564285D01*
X165171428Y-61992857D01*
X165242857Y-61850000D01*
X165385714Y-61778571D01*
X165671428Y-61778571D01*
X165814285Y-61850000D01*
X165885714Y-61992857D01*
X165885714Y-62135714D01*
X165171428Y-62278571D01*
D11*
X150320000Y-151980000D02*
X150320000Y-138800000D01*
X181320000Y-151980000D02*
X150320000Y-151980000D01*
X181320000Y-138800000D02*
X181320000Y-151980000D01*
X150320000Y-138800000D02*
X181320000Y-138800000D01*
X132010000Y-52790000D02*
X182010000Y-52790000D01*
X182010000Y-72790000D02*
X182010000Y-52790000D01*
X182010000Y-72790000D02*
X132010000Y-72790000D01*
X132010000Y-52790000D02*
X132010000Y-72790000D01*
X138990000Y-103530000D02*
X138990000Y-137530000D01*
X138990000Y-103530000D02*
X188990000Y-103530000D01*
X188990000Y-137530000D02*
X188990000Y-103530000D01*
X188990000Y-137530000D02*
X138990000Y-137530000D01*
X169945000Y-74070000D02*
X169945000Y-101570000D01*
X129945000Y-74070000D02*
X169945000Y-74070000D01*
X129945000Y-101570000D02*
X129945000Y-74070000D01*
X129945000Y-101570000D02*
X169945000Y-101570000D01*
D12*
X108875225Y-105735000D02*
X108875225Y-106235000D01*
X108625225Y-105985000D02*
X109125225Y-105985000D01*
X114031000Y-107176000D02*
X114031000Y-107744000D01*
X113991000Y-106942000D02*
X113991000Y-107978000D01*
X113951000Y-106783000D02*
X113951000Y-108137000D01*
X113911000Y-106655000D02*
X113911000Y-108265000D01*
X113871000Y-106545000D02*
X113871000Y-108375000D01*
X113831000Y-106449000D02*
X113831000Y-108471000D01*
X113791000Y-106362000D02*
X113791000Y-108558000D01*
X113751000Y-106282000D02*
X113751000Y-108638000D01*
X113711000Y-108500000D02*
X113711000Y-108711000D01*
X113711000Y-106209000D02*
X113711000Y-106420000D01*
X113671000Y-108500000D02*
X113671000Y-108779000D01*
X113671000Y-106141000D02*
X113671000Y-106420000D01*
X113631000Y-108500000D02*
X113631000Y-108843000D01*
X113631000Y-106077000D02*
X113631000Y-106420000D01*
X113591000Y-108500000D02*
X113591000Y-108903000D01*
X113591000Y-106017000D02*
X113591000Y-106420000D01*
X113551000Y-108500000D02*
X113551000Y-108960000D01*
X113551000Y-105960000D02*
X113551000Y-106420000D01*
X113511000Y-108500000D02*
X113511000Y-109014000D01*
X113511000Y-105906000D02*
X113511000Y-106420000D01*
X113471000Y-108500000D02*
X113471000Y-109065000D01*
X113471000Y-105855000D02*
X113471000Y-106420000D01*
X113431000Y-108500000D02*
X113431000Y-109113000D01*
X113431000Y-105807000D02*
X113431000Y-106420000D01*
X113391000Y-108500000D02*
X113391000Y-109159000D01*
X113391000Y-105761000D02*
X113391000Y-106420000D01*
X113351000Y-108500000D02*
X113351000Y-109203000D01*
X113351000Y-105717000D02*
X113351000Y-106420000D01*
X113311000Y-108500000D02*
X113311000Y-109245000D01*
X113311000Y-105675000D02*
X113311000Y-106420000D01*
X113271000Y-108500000D02*
X113271000Y-109286000D01*
X113271000Y-105634000D02*
X113271000Y-106420000D01*
X113231000Y-108500000D02*
X113231000Y-109324000D01*
X113231000Y-105596000D02*
X113231000Y-106420000D01*
X113191000Y-108500000D02*
X113191000Y-109361000D01*
X113191000Y-105559000D02*
X113191000Y-106420000D01*
X113151000Y-108500000D02*
X113151000Y-109397000D01*
X113151000Y-105523000D02*
X113151000Y-106420000D01*
X113111000Y-108500000D02*
X113111000Y-109431000D01*
X113111000Y-105489000D02*
X113111000Y-106420000D01*
X113071000Y-108500000D02*
X113071000Y-109464000D01*
X113071000Y-105456000D02*
X113071000Y-106420000D01*
X113031000Y-108500000D02*
X113031000Y-109495000D01*
X113031000Y-105425000D02*
X113031000Y-106420000D01*
X112991000Y-108500000D02*
X112991000Y-109525000D01*
X112991000Y-105395000D02*
X112991000Y-106420000D01*
X112951000Y-108500000D02*
X112951000Y-109555000D01*
X112951000Y-105365000D02*
X112951000Y-106420000D01*
X112911000Y-108500000D02*
X112911000Y-109582000D01*
X112911000Y-105338000D02*
X112911000Y-106420000D01*
X112871000Y-108500000D02*
X112871000Y-109609000D01*
X112871000Y-105311000D02*
X112871000Y-106420000D01*
X112831000Y-108500000D02*
X112831000Y-109635000D01*
X112831000Y-105285000D02*
X112831000Y-106420000D01*
X112791000Y-108500000D02*
X112791000Y-109660000D01*
X112791000Y-105260000D02*
X112791000Y-106420000D01*
X112751000Y-108500000D02*
X112751000Y-109684000D01*
X112751000Y-105236000D02*
X112751000Y-106420000D01*
X112711000Y-108500000D02*
X112711000Y-109707000D01*
X112711000Y-105213000D02*
X112711000Y-106420000D01*
X112671000Y-108500000D02*
X112671000Y-109728000D01*
X112671000Y-105192000D02*
X112671000Y-106420000D01*
X112631000Y-108500000D02*
X112631000Y-109750000D01*
X112631000Y-105170000D02*
X112631000Y-106420000D01*
X112591000Y-108500000D02*
X112591000Y-109770000D01*
X112591000Y-105150000D02*
X112591000Y-106420000D01*
X112551000Y-108500000D02*
X112551000Y-109789000D01*
X112551000Y-105131000D02*
X112551000Y-106420000D01*
X112511000Y-108500000D02*
X112511000Y-109808000D01*
X112511000Y-105112000D02*
X112511000Y-106420000D01*
X112471000Y-108500000D02*
X112471000Y-109825000D01*
X112471000Y-105095000D02*
X112471000Y-106420000D01*
X112431000Y-108500000D02*
X112431000Y-109842000D01*
X112431000Y-105078000D02*
X112431000Y-106420000D01*
X112391000Y-108500000D02*
X112391000Y-109858000D01*
X112391000Y-105062000D02*
X112391000Y-106420000D01*
X112351000Y-108500000D02*
X112351000Y-109874000D01*
X112351000Y-105046000D02*
X112351000Y-106420000D01*
X112311000Y-108500000D02*
X112311000Y-109888000D01*
X112311000Y-105032000D02*
X112311000Y-106420000D01*
X112271000Y-108500000D02*
X112271000Y-109902000D01*
X112271000Y-105018000D02*
X112271000Y-106420000D01*
X112231000Y-108500000D02*
X112231000Y-109915000D01*
X112231000Y-105005000D02*
X112231000Y-106420000D01*
X112191000Y-108500000D02*
X112191000Y-109928000D01*
X112191000Y-104992000D02*
X112191000Y-106420000D01*
X112151000Y-108500000D02*
X112151000Y-109940000D01*
X112151000Y-104980000D02*
X112151000Y-106420000D01*
X112110000Y-108500000D02*
X112110000Y-109951000D01*
X112110000Y-104969000D02*
X112110000Y-106420000D01*
X112070000Y-108500000D02*
X112070000Y-109961000D01*
X112070000Y-104959000D02*
X112070000Y-106420000D01*
X112030000Y-108500000D02*
X112030000Y-109971000D01*
X112030000Y-104949000D02*
X112030000Y-106420000D01*
X111990000Y-108500000D02*
X111990000Y-109980000D01*
X111990000Y-104940000D02*
X111990000Y-106420000D01*
X111950000Y-108500000D02*
X111950000Y-109988000D01*
X111950000Y-104932000D02*
X111950000Y-106420000D01*
X111910000Y-108500000D02*
X111910000Y-109996000D01*
X111910000Y-104924000D02*
X111910000Y-106420000D01*
X111870000Y-108500000D02*
X111870000Y-110003000D01*
X111870000Y-104917000D02*
X111870000Y-106420000D01*
X111830000Y-108500000D02*
X111830000Y-110010000D01*
X111830000Y-104910000D02*
X111830000Y-106420000D01*
X111790000Y-108500000D02*
X111790000Y-110016000D01*
X111790000Y-104904000D02*
X111790000Y-106420000D01*
X111750000Y-108500000D02*
X111750000Y-110021000D01*
X111750000Y-104899000D02*
X111750000Y-106420000D01*
X111710000Y-108500000D02*
X111710000Y-110025000D01*
X111710000Y-104895000D02*
X111710000Y-106420000D01*
X111670000Y-108500000D02*
X111670000Y-110029000D01*
X111670000Y-104891000D02*
X111670000Y-106420000D01*
X111630000Y-104887000D02*
X111630000Y-110033000D01*
X111590000Y-104884000D02*
X111590000Y-110036000D01*
X111550000Y-104882000D02*
X111550000Y-110038000D01*
X111510000Y-104881000D02*
X111510000Y-110039000D01*
X111470000Y-104880000D02*
X111470000Y-110040000D01*
X111430000Y-104880000D02*
X111430000Y-110040000D01*
X114050000Y-107460000D02*
G75*
G03*
X114050000Y-107460000I-2620000J0D01*
G01*
X105741267Y-126960000D02*
X105398733Y-126960000D01*
X105741267Y-125940000D02*
X105398733Y-125940000D01*
X105831267Y-117440000D02*
X105488733Y-117440000D01*
X105831267Y-118460000D02*
X105488733Y-118460000D01*
X186870000Y-60130000D02*
X186714000Y-60130000D01*
X189186000Y-60130000D02*
X189030000Y-60130000D01*
X186870163Y-62731130D02*
G75*
G02*
X186870000Y-60649039I1079837J1041130D01*
G01*
X189029837Y-62731130D02*
G75*
G03*
X189030000Y-60649039I-1079837J1041130D01*
G01*
X186871392Y-63362335D02*
G75*
G02*
X186714484Y-60130000I1078608J1672335D01*
G01*
X189028608Y-63362335D02*
G75*
G03*
X189185516Y-60130000I-1078608J1672335D01*
G01*
X121340000Y-113520000D02*
X121340000Y-110860000D01*
X118740000Y-113520000D02*
X121340000Y-113520000D01*
X118740000Y-110860000D02*
X121340000Y-110860000D01*
X118740000Y-113520000D02*
X118740000Y-110860000D01*
X117470000Y-113520000D02*
X116140000Y-113520000D01*
X116140000Y-113520000D02*
X116140000Y-112190000D01*
X109140000Y-60420000D02*
X119300000Y-60420000D01*
X109140000Y-52800000D02*
X109140000Y-60420000D01*
X119300000Y-52800000D02*
X109140000Y-52800000D01*
X119300000Y-60420000D02*
X119300000Y-52800000D01*
X119300000Y-59150000D02*
X109140000Y-59150000D01*
X139560000Y-143410000D02*
X139560000Y-144740000D01*
X138230000Y-143410000D02*
X139560000Y-143410000D01*
X139560000Y-146010000D02*
X139560000Y-148610000D01*
X136960000Y-146010000D02*
X139560000Y-146010000D01*
X136960000Y-143410000D02*
X136960000Y-146010000D01*
X139560000Y-148610000D02*
X131820000Y-148610000D01*
X136960000Y-143410000D02*
X131820000Y-143410000D01*
X131820000Y-143410000D02*
X131820000Y-148610000D01*
X154450000Y-149390000D02*
X153120000Y-149390000D01*
X154450000Y-148060000D02*
X154450000Y-149390000D01*
X154450000Y-146790000D02*
X151790000Y-146790000D01*
X151790000Y-146790000D02*
X151790000Y-141650000D01*
X154450000Y-146790000D02*
X154450000Y-141650000D01*
X154450000Y-141650000D02*
X151790000Y-141650000D01*
X181410000Y-67530000D02*
X180080000Y-67530000D01*
X181410000Y-66200000D02*
X181410000Y-67530000D01*
X181410000Y-64930000D02*
X178750000Y-64930000D01*
X178750000Y-64930000D02*
X178750000Y-57250000D01*
X181410000Y-64930000D02*
X181410000Y-57250000D01*
X181410000Y-57250000D02*
X178750000Y-57250000D01*
X134380000Y-117380000D02*
X137040000Y-117380000D01*
X134380000Y-112240000D02*
X134380000Y-117380000D01*
X137040000Y-112240000D02*
X137040000Y-117380000D01*
X134380000Y-112240000D02*
X137040000Y-112240000D01*
X134380000Y-110970000D02*
X134380000Y-109640000D01*
X134380000Y-109640000D02*
X135710000Y-109640000D01*
X130550000Y-97140000D02*
X133210000Y-97140000D01*
X130550000Y-81840000D02*
X130550000Y-97140000D01*
X133210000Y-81840000D02*
X133210000Y-97140000D01*
X130550000Y-81840000D02*
X133210000Y-81840000D01*
X130550000Y-80570000D02*
X130550000Y-79240000D01*
X130550000Y-79240000D02*
X131880000Y-79240000D01*
X175200000Y-90610000D02*
X173870000Y-90610000D01*
X175200000Y-89280000D02*
X175200000Y-90610000D01*
X175200000Y-88010000D02*
X172540000Y-88010000D01*
X172540000Y-88010000D02*
X172540000Y-85410000D01*
X175200000Y-88010000D02*
X175200000Y-85410000D01*
X175200000Y-85410000D02*
X172540000Y-85410000D01*
X178550000Y-94460000D02*
X178550000Y-82060000D01*
X178550000Y-82060000D02*
X184020000Y-82060000D01*
X191950000Y-82060000D02*
X187480000Y-82060000D01*
X191950000Y-82060000D02*
X191950000Y-94460000D01*
X191950000Y-94460000D02*
X187480000Y-94460000D01*
X184020000Y-94460000D02*
X178550000Y-94460000D01*
X183950000Y-81450000D02*
X183450000Y-81950000D01*
X183450000Y-81950000D02*
X182950000Y-81450000D01*
X182950000Y-81450000D02*
X183950000Y-81450000D01*
X117540000Y-66270000D02*
X115530000Y-66270000D01*
X124140000Y-100860000D02*
X124140000Y-66660000D01*
X103940000Y-100860000D02*
X124140000Y-100860000D01*
X103940000Y-66660000D02*
X103940000Y-100860000D01*
X124140000Y-66660000D02*
X103940000Y-66660000D01*
X125160000Y-110038733D02*
X125160000Y-110381267D01*
X126180000Y-110038733D02*
X126180000Y-110381267D01*
X187450000Y-67811267D02*
X187450000Y-67468733D01*
X188470000Y-67811267D02*
X188470000Y-67468733D01*
X122460000Y-146770000D02*
X124080000Y-146770000D01*
X122460000Y-148630000D02*
X124080000Y-148630000D01*
X124080000Y-148630000D02*
X124080000Y-146770000D01*
X122460000Y-148630000D02*
X122460000Y-146770000D01*
X119920000Y-146770000D02*
X121540000Y-146770000D01*
X119920000Y-148630000D02*
X121540000Y-148630000D01*
X121540000Y-148630000D02*
X121540000Y-146770000D01*
X119920000Y-148630000D02*
X119920000Y-146770000D01*
X117380000Y-146770000D02*
X119000000Y-146770000D01*
X117380000Y-148630000D02*
X119000000Y-148630000D01*
X119000000Y-148630000D02*
X119000000Y-146770000D01*
X117380000Y-148630000D02*
X117380000Y-146770000D01*
X114840000Y-146770000D02*
X116460000Y-146770000D01*
X114840000Y-148630000D02*
X116460000Y-148630000D01*
X116460000Y-148630000D02*
X116460000Y-146770000D01*
X114840000Y-148630000D02*
X114840000Y-146770000D01*
X112300000Y-146770000D02*
X113920000Y-146770000D01*
X112300000Y-148630000D02*
X113920000Y-148630000D01*
X113920000Y-148630000D02*
X113920000Y-146770000D01*
X112300000Y-148630000D02*
X112300000Y-146770000D01*
X109760000Y-146770000D02*
X111380000Y-146770000D01*
X109760000Y-148630000D02*
X111380000Y-148630000D01*
X111380000Y-148630000D02*
X111380000Y-146770000D01*
X109760000Y-148630000D02*
X109760000Y-146770000D01*
X108220000Y-147010000D02*
X109603000Y-147010000D01*
X108220000Y-147010000D02*
X108220000Y-145627000D01*
X108460000Y-135850000D02*
X125381000Y-135850000D01*
X108460000Y-146770000D02*
X125381000Y-146770000D01*
X125381000Y-146770000D02*
X125381000Y-135850000D01*
X108460000Y-146770000D02*
X108460000Y-135850000D01*
D11*
X118755000Y-118420000D02*
X117330000Y-118420000D01*
X126005000Y-118195000D02*
X125680000Y-118195000D01*
X126005000Y-125445000D02*
X125680000Y-125445000D01*
X118755000Y-125445000D02*
X119080000Y-125445000D01*
X118755000Y-118195000D02*
X119080000Y-118195000D01*
X118755000Y-125445000D02*
X118755000Y-125120000D01*
X126005000Y-125445000D02*
X126005000Y-125120000D01*
X126005000Y-118195000D02*
X126005000Y-118520000D01*
X118755000Y-118195000D02*
X118755000Y-118420000D01*
D12*
X113730000Y-128900000D02*
X113730000Y-116300000D01*
X108630000Y-128900000D02*
X113730000Y-128900000D01*
X108630000Y-116300000D02*
X108630000Y-128900000D01*
D11*
X111263333Y-104067142D02*
X111215714Y-104114761D01*
X111072857Y-104162380D01*
X110977619Y-104162380D01*
X110834761Y-104114761D01*
X110739523Y-104019523D01*
X110691904Y-103924285D01*
X110644285Y-103733809D01*
X110644285Y-103590952D01*
X110691904Y-103400476D01*
X110739523Y-103305238D01*
X110834761Y-103210000D01*
X110977619Y-103162380D01*
X111072857Y-103162380D01*
X111215714Y-103210000D01*
X111263333Y-103257619D01*
X112215714Y-104162380D02*
X111644285Y-104162380D01*
X111930000Y-104162380D02*
X111930000Y-103162380D01*
X111834761Y-103305238D01*
X111739523Y-103400476D01*
X111644285Y-103448095D01*
X105523333Y-124867142D02*
X105475714Y-124914761D01*
X105332857Y-124962380D01*
X105237619Y-124962380D01*
X105094761Y-124914761D01*
X104999523Y-124819523D01*
X104951904Y-124724285D01*
X104904285Y-124533809D01*
X104904285Y-124390952D01*
X104951904Y-124200476D01*
X104999523Y-124105238D01*
X105094761Y-124010000D01*
X105237619Y-123962380D01*
X105332857Y-123962380D01*
X105475714Y-124010000D01*
X105523333Y-124057619D01*
X105904285Y-124057619D02*
X105951904Y-124010000D01*
X106047142Y-123962380D01*
X106285238Y-123962380D01*
X106380476Y-124010000D01*
X106428095Y-124057619D01*
X106475714Y-124152857D01*
X106475714Y-124248095D01*
X106428095Y-124390952D01*
X105856666Y-124962380D01*
X106475714Y-124962380D01*
X105483333Y-116327142D02*
X105435714Y-116374761D01*
X105292857Y-116422380D01*
X105197619Y-116422380D01*
X105054761Y-116374761D01*
X104959523Y-116279523D01*
X104911904Y-116184285D01*
X104864285Y-115993809D01*
X104864285Y-115850952D01*
X104911904Y-115660476D01*
X104959523Y-115565238D01*
X105054761Y-115470000D01*
X105197619Y-115422380D01*
X105292857Y-115422380D01*
X105435714Y-115470000D01*
X105483333Y-115517619D01*
X105816666Y-115422380D02*
X106435714Y-115422380D01*
X106102380Y-115803333D01*
X106245238Y-115803333D01*
X106340476Y-115850952D01*
X106388095Y-115898571D01*
X106435714Y-115993809D01*
X106435714Y-116231904D01*
X106388095Y-116327142D01*
X106340476Y-116374761D01*
X106245238Y-116422380D01*
X105959523Y-116422380D01*
X105864285Y-116374761D01*
X105816666Y-116327142D01*
X184941904Y-59192380D02*
X184941904Y-58192380D01*
X185180000Y-58192380D01*
X185322857Y-58240000D01*
X185418095Y-58335238D01*
X185465714Y-58430476D01*
X185513333Y-58620952D01*
X185513333Y-58763809D01*
X185465714Y-58954285D01*
X185418095Y-59049523D01*
X185322857Y-59144761D01*
X185180000Y-59192380D01*
X184941904Y-59192380D01*
X186465714Y-59192380D02*
X185894285Y-59192380D01*
X186180000Y-59192380D02*
X186180000Y-58192380D01*
X186084761Y-58335238D01*
X185989523Y-58430476D01*
X185894285Y-58478095D01*
X127916666Y-53262380D02*
X127916666Y-53976666D01*
X127869047Y-54119523D01*
X127773809Y-54214761D01*
X127630952Y-54262380D01*
X127535714Y-54262380D01*
X128916666Y-54262380D02*
X128345238Y-54262380D01*
X128630952Y-54262380D02*
X128630952Y-53262380D01*
X128535714Y-53405238D01*
X128440476Y-53500476D01*
X128345238Y-53548095D01*
X118496666Y-109162380D02*
X118496666Y-109876666D01*
X118449047Y-110019523D01*
X118353809Y-110114761D01*
X118210952Y-110162380D01*
X118115714Y-110162380D01*
X118925238Y-109257619D02*
X118972857Y-109210000D01*
X119068095Y-109162380D01*
X119306190Y-109162380D01*
X119401428Y-109210000D01*
X119449047Y-109257619D01*
X119496666Y-109352857D01*
X119496666Y-109448095D01*
X119449047Y-109590952D01*
X118877619Y-110162380D01*
X119496666Y-110162380D01*
X120166666Y-55582380D02*
X120166666Y-56296666D01*
X120119047Y-56439523D01*
X120023809Y-56534761D01*
X119880952Y-56582380D01*
X119785714Y-56582380D01*
X120547619Y-55582380D02*
X121166666Y-55582380D01*
X120833333Y-55963333D01*
X120976190Y-55963333D01*
X121071428Y-56010952D01*
X121119047Y-56058571D01*
X121166666Y-56153809D01*
X121166666Y-56391904D01*
X121119047Y-56487142D01*
X121071428Y-56534761D01*
X120976190Y-56582380D01*
X120690476Y-56582380D01*
X120595238Y-56534761D01*
X120547619Y-56487142D01*
X134986666Y-141522380D02*
X134986666Y-142236666D01*
X134939047Y-142379523D01*
X134843809Y-142474761D01*
X134700952Y-142522380D01*
X134605714Y-142522380D01*
X135891428Y-141855714D02*
X135891428Y-142522380D01*
X135653333Y-141474761D02*
X135415238Y-142189047D01*
X136034285Y-142189047D01*
X152946666Y-140102380D02*
X152946666Y-140816666D01*
X152899047Y-140959523D01*
X152803809Y-141054761D01*
X152660952Y-141102380D01*
X152565714Y-141102380D01*
X153899047Y-140102380D02*
X153422857Y-140102380D01*
X153375238Y-140578571D01*
X153422857Y-140530952D01*
X153518095Y-140483333D01*
X153756190Y-140483333D01*
X153851428Y-140530952D01*
X153899047Y-140578571D01*
X153946666Y-140673809D01*
X153946666Y-140911904D01*
X153899047Y-141007142D01*
X153851428Y-141054761D01*
X153756190Y-141102380D01*
X153518095Y-141102380D01*
X153422857Y-141054761D01*
X153375238Y-141007142D01*
X114076666Y-59032380D02*
X114076666Y-59746666D01*
X114029047Y-59889523D01*
X113933809Y-59984761D01*
X113790952Y-60032380D01*
X113695714Y-60032380D01*
X114981428Y-59032380D02*
X114790952Y-59032380D01*
X114695714Y-59080000D01*
X114648095Y-59127619D01*
X114552857Y-59270476D01*
X114505238Y-59460952D01*
X114505238Y-59841904D01*
X114552857Y-59937142D01*
X114600476Y-59984761D01*
X114695714Y-60032380D01*
X114886190Y-60032380D01*
X114981428Y-59984761D01*
X115029047Y-59937142D01*
X115076666Y-59841904D01*
X115076666Y-59603809D01*
X115029047Y-59508571D01*
X114981428Y-59460952D01*
X114886190Y-59413333D01*
X114695714Y-59413333D01*
X114600476Y-59460952D01*
X114552857Y-59508571D01*
X114505238Y-59603809D01*
X177086666Y-61002380D02*
X177086666Y-61716666D01*
X177039047Y-61859523D01*
X176943809Y-61954761D01*
X176800952Y-62002380D01*
X176705714Y-62002380D01*
X177467619Y-61002380D02*
X178134285Y-61002380D01*
X177705714Y-62002380D01*
X135376666Y-108092380D02*
X135376666Y-108806666D01*
X135329047Y-108949523D01*
X135233809Y-109044761D01*
X135090952Y-109092380D01*
X134995714Y-109092380D01*
X135995714Y-108520952D02*
X135900476Y-108473333D01*
X135852857Y-108425714D01*
X135805238Y-108330476D01*
X135805238Y-108282857D01*
X135852857Y-108187619D01*
X135900476Y-108140000D01*
X135995714Y-108092380D01*
X136186190Y-108092380D01*
X136281428Y-108140000D01*
X136329047Y-108187619D01*
X136376666Y-108282857D01*
X136376666Y-108330476D01*
X136329047Y-108425714D01*
X136281428Y-108473333D01*
X136186190Y-108520952D01*
X135995714Y-108520952D01*
X135900476Y-108568571D01*
X135852857Y-108616190D01*
X135805238Y-108711428D01*
X135805238Y-108901904D01*
X135852857Y-108997142D01*
X135900476Y-109044761D01*
X135995714Y-109092380D01*
X136186190Y-109092380D01*
X136281428Y-109044761D01*
X136329047Y-108997142D01*
X136376666Y-108901904D01*
X136376666Y-108711428D01*
X136329047Y-108616190D01*
X136281428Y-108568571D01*
X136186190Y-108520952D01*
X133986666Y-88112380D02*
X133986666Y-88826666D01*
X133939047Y-88969523D01*
X133843809Y-89064761D01*
X133700952Y-89112380D01*
X133605714Y-89112380D01*
X134510476Y-89112380D02*
X134700952Y-89112380D01*
X134796190Y-89064761D01*
X134843809Y-89017142D01*
X134939047Y-88874285D01*
X134986666Y-88683809D01*
X134986666Y-88302857D01*
X134939047Y-88207619D01*
X134891428Y-88160000D01*
X134796190Y-88112380D01*
X134605714Y-88112380D01*
X134510476Y-88160000D01*
X134462857Y-88207619D01*
X134415238Y-88302857D01*
X134415238Y-88540952D01*
X134462857Y-88636190D01*
X134510476Y-88683809D01*
X134605714Y-88731428D01*
X134796190Y-88731428D01*
X134891428Y-88683809D01*
X134939047Y-88636190D01*
X134986666Y-88540952D01*
X173070476Y-83542380D02*
X173070476Y-84256666D01*
X173022857Y-84399523D01*
X172927619Y-84494761D01*
X172784761Y-84542380D01*
X172689523Y-84542380D01*
X174070476Y-84542380D02*
X173499047Y-84542380D01*
X173784761Y-84542380D02*
X173784761Y-83542380D01*
X173689523Y-83685238D01*
X173594285Y-83780476D01*
X173499047Y-83828095D01*
X174689523Y-83542380D02*
X174784761Y-83542380D01*
X174880000Y-83590000D01*
X174927619Y-83637619D01*
X174975238Y-83732857D01*
X175022857Y-83923333D01*
X175022857Y-84161428D01*
X174975238Y-84351904D01*
X174927619Y-84447142D01*
X174880000Y-84494761D01*
X174784761Y-84542380D01*
X174689523Y-84542380D01*
X174594285Y-84494761D01*
X174546666Y-84447142D01*
X174499047Y-84351904D01*
X174451428Y-84161428D01*
X174451428Y-83923333D01*
X174499047Y-83732857D01*
X174546666Y-83637619D01*
X174594285Y-83590000D01*
X174689523Y-83542380D01*
X184990476Y-79002380D02*
X184990476Y-79716666D01*
X184942857Y-79859523D01*
X184847619Y-79954761D01*
X184704761Y-80002380D01*
X184609523Y-80002380D01*
X185990476Y-80002380D02*
X185419047Y-80002380D01*
X185704761Y-80002380D02*
X185704761Y-79002380D01*
X185609523Y-79145238D01*
X185514285Y-79240476D01*
X185419047Y-79288095D01*
X186942857Y-80002380D02*
X186371428Y-80002380D01*
X186657142Y-80002380D02*
X186657142Y-79002380D01*
X186561904Y-79145238D01*
X186466666Y-79240476D01*
X186371428Y-79288095D01*
X115455714Y-66092380D02*
X115455714Y-65092380D01*
X115836666Y-65092380D01*
X115931904Y-65140000D01*
X115979523Y-65187619D01*
X116027142Y-65282857D01*
X116027142Y-65425714D01*
X115979523Y-65520952D01*
X115931904Y-65568571D01*
X115836666Y-65616190D01*
X115455714Y-65616190D01*
X116408095Y-66044761D02*
X116550952Y-66092380D01*
X116789047Y-66092380D01*
X116884285Y-66044761D01*
X116931904Y-65997142D01*
X116979523Y-65901904D01*
X116979523Y-65806666D01*
X116931904Y-65711428D01*
X116884285Y-65663809D01*
X116789047Y-65616190D01*
X116598571Y-65568571D01*
X116503333Y-65520952D01*
X116455714Y-65473333D01*
X116408095Y-65378095D01*
X116408095Y-65282857D01*
X116455714Y-65187619D01*
X116503333Y-65140000D01*
X116598571Y-65092380D01*
X116836666Y-65092380D01*
X116979523Y-65140000D01*
X117931904Y-66092380D02*
X117360476Y-66092380D01*
X117646190Y-66092380D02*
X117646190Y-65092380D01*
X117550952Y-65235238D01*
X117455714Y-65330476D01*
X117360476Y-65378095D01*
X125683333Y-107772380D02*
X125350000Y-107296190D01*
X125111904Y-107772380D02*
X125111904Y-106772380D01*
X125492857Y-106772380D01*
X125588095Y-106820000D01*
X125635714Y-106867619D01*
X125683333Y-106962857D01*
X125683333Y-107105714D01*
X125635714Y-107200952D01*
X125588095Y-107248571D01*
X125492857Y-107296190D01*
X125111904Y-107296190D01*
X126635714Y-107772380D02*
X126064285Y-107772380D01*
X126350000Y-107772380D02*
X126350000Y-106772380D01*
X126254761Y-106915238D01*
X126159523Y-107010476D01*
X126064285Y-107058095D01*
X189593333Y-68022380D02*
X189260000Y-67546190D01*
X189021904Y-68022380D02*
X189021904Y-67022380D01*
X189402857Y-67022380D01*
X189498095Y-67070000D01*
X189545714Y-67117619D01*
X189593333Y-67212857D01*
X189593333Y-67355714D01*
X189545714Y-67450952D01*
X189498095Y-67498571D01*
X189402857Y-67546190D01*
X189021904Y-67546190D01*
X189974285Y-67117619D02*
X190021904Y-67070000D01*
X190117142Y-67022380D01*
X190355238Y-67022380D01*
X190450476Y-67070000D01*
X190498095Y-67117619D01*
X190545714Y-67212857D01*
X190545714Y-67308095D01*
X190498095Y-67450952D01*
X189926666Y-68022380D01*
X190545714Y-68022380D01*
X115236666Y-135074761D02*
X115379523Y-135122380D01*
X115617619Y-135122380D01*
X115712857Y-135074761D01*
X115760476Y-135027142D01*
X115808095Y-134931904D01*
X115808095Y-134836666D01*
X115760476Y-134741428D01*
X115712857Y-134693809D01*
X115617619Y-134646190D01*
X115427142Y-134598571D01*
X115331904Y-134550952D01*
X115284285Y-134503333D01*
X115236666Y-134408095D01*
X115236666Y-134312857D01*
X115284285Y-134217619D01*
X115331904Y-134170000D01*
X115427142Y-134122380D01*
X115665238Y-134122380D01*
X115808095Y-134170000D01*
X116141428Y-134122380D02*
X116379523Y-135122380D01*
X116570000Y-134408095D01*
X116760476Y-135122380D01*
X116998571Y-134122380D01*
X117903333Y-135122380D02*
X117331904Y-135122380D01*
X117617619Y-135122380D02*
X117617619Y-134122380D01*
X117522380Y-134265238D01*
X117427142Y-134360476D01*
X117331904Y-134408095D01*
X121618095Y-115222380D02*
X121618095Y-116031904D01*
X121665714Y-116127142D01*
X121713333Y-116174761D01*
X121808571Y-116222380D01*
X121999047Y-116222380D01*
X122094285Y-116174761D01*
X122141904Y-116127142D01*
X122189523Y-116031904D01*
X122189523Y-115222380D01*
X123189523Y-116222380D02*
X122618095Y-116222380D01*
X122903809Y-116222380D02*
X122903809Y-115222380D01*
X122808571Y-115365238D01*
X122713333Y-115460476D01*
X122618095Y-115508095D01*
X114423809Y-121796190D02*
X114423809Y-122272380D01*
X114090476Y-121272380D02*
X114423809Y-121796190D01*
X114757142Y-121272380D01*
X115614285Y-122272380D02*
X115042857Y-122272380D01*
X115328571Y-122272380D02*
X115328571Y-121272380D01*
X115233333Y-121415238D01*
X115138095Y-121510476D01*
X115042857Y-121558095D01*
%LPC*%
D13*
X189500000Y-55570000D03*
X189510000Y-149390000D03*
X105640000Y-55580000D03*
X105660000Y-149390000D03*
D14*
X180310000Y-71070000D03*
X180310000Y-54490000D03*
X133710000Y-71070000D03*
X133710000Y-54490000D03*
D15*
X186350000Y-106160000D03*
X186350000Y-134900000D03*
X167950000Y-99570000D03*
X167950000Y-76070000D03*
X167320000Y-150230000D03*
X167320000Y-140560000D03*
X141630000Y-134900000D03*
X141630000Y-106160000D03*
X131940000Y-99570000D03*
X131940000Y-76070000D03*
D16*
X112680000Y-107460000D03*
D17*
X110180000Y-107460000D03*
G36*
G01*
X107020000Y-126187500D02*
X107020000Y-126712500D01*
G75*
G02*
X106757500Y-126975000I-262500J0D01*
G01*
X106132500Y-126975000D01*
G75*
G02*
X105870000Y-126712500I0J262500D01*
G01*
X105870000Y-126187500D01*
G75*
G02*
X106132500Y-125925000I262500J0D01*
G01*
X106757500Y-125925000D01*
G75*
G02*
X107020000Y-126187500I0J-262500D01*
G01*
G37*
G36*
G01*
X105270000Y-126187500D02*
X105270000Y-126712500D01*
G75*
G02*
X105007500Y-126975000I-262500J0D01*
G01*
X104382500Y-126975000D01*
G75*
G02*
X104120000Y-126712500I0J262500D01*
G01*
X104120000Y-126187500D01*
G75*
G02*
X104382500Y-125925000I262500J0D01*
G01*
X105007500Y-125925000D01*
G75*
G02*
X105270000Y-126187500I0J-262500D01*
G01*
G37*
G36*
G01*
X105360000Y-117687500D02*
X105360000Y-118212500D01*
G75*
G02*
X105097500Y-118475000I-262500J0D01*
G01*
X104472500Y-118475000D01*
G75*
G02*
X104210000Y-118212500I0J262500D01*
G01*
X104210000Y-117687500D01*
G75*
G02*
X104472500Y-117425000I262500J0D01*
G01*
X105097500Y-117425000D01*
G75*
G02*
X105360000Y-117687500I0J-262500D01*
G01*
G37*
G36*
G01*
X107110000Y-117687500D02*
X107110000Y-118212500D01*
G75*
G02*
X106847500Y-118475000I-262500J0D01*
G01*
X106222500Y-118475000D01*
G75*
G02*
X105960000Y-118212500I0J262500D01*
G01*
X105960000Y-117687500D01*
G75*
G02*
X106222500Y-117425000I262500J0D01*
G01*
X106847500Y-117425000D01*
G75*
G02*
X107110000Y-117687500I0J-262500D01*
G01*
G37*
D18*
X187950000Y-62960000D03*
D19*
X187950000Y-60420000D03*
G36*
G01*
X126485197Y-62395000D02*
X124354803Y-62395000D01*
G75*
G02*
X124095000Y-62135197I0J259803D01*
G01*
X124095000Y-60004803D01*
G75*
G02*
X124354803Y-59745000I259803J0D01*
G01*
X126485197Y-59745000D01*
G75*
G02*
X126745000Y-60004803I0J-259803D01*
G01*
X126745000Y-62135197D01*
G75*
G02*
X126485197Y-62395000I-259803J0D01*
G01*
G37*
D20*
X125420000Y-56270000D03*
D21*
X117470000Y-112190000D03*
D22*
X120010000Y-112190000D03*
D23*
X116760000Y-56610000D03*
D24*
X111680000Y-56610000D03*
D22*
X133150000Y-147280000D03*
X133150000Y-144740000D03*
X135690000Y-147280000D03*
X135690000Y-144740000D03*
X138230000Y-147280000D03*
D21*
X138230000Y-144740000D03*
D22*
X153120000Y-142980000D03*
X153120000Y-145520000D03*
D21*
X153120000Y-148060000D03*
D20*
X111710000Y-62870000D03*
G36*
G01*
X117835000Y-61804803D02*
X117835000Y-63935197D01*
G75*
G02*
X117575197Y-64195000I-259803J0D01*
G01*
X115444803Y-64195000D01*
G75*
G02*
X115185000Y-63935197I0J259803D01*
G01*
X115185000Y-61804803D01*
G75*
G02*
X115444803Y-61545000I259803J0D01*
G01*
X117575197Y-61545000D01*
G75*
G02*
X117835000Y-61804803I0J-259803D01*
G01*
G37*
D22*
X180080000Y-58580000D03*
X180080000Y-61120000D03*
X180080000Y-63660000D03*
D21*
X180080000Y-66200000D03*
X135710000Y-110970000D03*
D22*
X135710000Y-113510000D03*
X135710000Y-116050000D03*
D21*
X131880000Y-80570000D03*
D22*
X131880000Y-83110000D03*
X131880000Y-85650000D03*
X131880000Y-88190000D03*
X131880000Y-90730000D03*
X131880000Y-93270000D03*
X131880000Y-95810000D03*
X173870000Y-86740000D03*
D21*
X173870000Y-89280000D03*
D25*
X180910000Y-89790000D03*
D26*
X185750000Y-94260000D03*
D25*
X183450000Y-88770000D03*
X180910000Y-87750000D03*
D27*
X183450000Y-86730000D03*
D26*
X185750000Y-82260000D03*
X106340000Y-98460000D03*
X111540000Y-69060000D03*
D28*
X116540000Y-69060000D03*
D26*
X121740000Y-98460000D03*
G36*
G01*
X125407500Y-110510000D02*
X125932500Y-110510000D01*
G75*
G02*
X126195000Y-110772500I0J-262500D01*
G01*
X126195000Y-111397500D01*
G75*
G02*
X125932500Y-111660000I-262500J0D01*
G01*
X125407500Y-111660000D01*
G75*
G02*
X125145000Y-111397500I0J262500D01*
G01*
X125145000Y-110772500D01*
G75*
G02*
X125407500Y-110510000I262500J0D01*
G01*
G37*
G36*
G01*
X125407500Y-108760000D02*
X125932500Y-108760000D01*
G75*
G02*
X126195000Y-109022500I0J-262500D01*
G01*
X126195000Y-109647500D01*
G75*
G02*
X125932500Y-109910000I-262500J0D01*
G01*
X125407500Y-109910000D01*
G75*
G02*
X125145000Y-109647500I0J262500D01*
G01*
X125145000Y-109022500D01*
G75*
G02*
X125407500Y-108760000I262500J0D01*
G01*
G37*
G36*
G01*
X188222500Y-69090000D02*
X187697500Y-69090000D01*
G75*
G02*
X187435000Y-68827500I0J262500D01*
G01*
X187435000Y-68202500D01*
G75*
G02*
X187697500Y-67940000I262500J0D01*
G01*
X188222500Y-67940000D01*
G75*
G02*
X188485000Y-68202500I0J-262500D01*
G01*
X188485000Y-68827500D01*
G75*
G02*
X188222500Y-69090000I-262500J0D01*
G01*
G37*
G36*
G01*
X188222500Y-67340000D02*
X187697500Y-67340000D01*
G75*
G02*
X187435000Y-67077500I0J262500D01*
G01*
X187435000Y-66452500D01*
G75*
G02*
X187697500Y-66190000I262500J0D01*
G01*
X188222500Y-66190000D01*
G75*
G02*
X188485000Y-66452500I0J-262500D01*
G01*
X188485000Y-67077500D01*
G75*
G02*
X188222500Y-67340000I-262500J0D01*
G01*
G37*
D29*
X110570000Y-137500000D03*
X123270000Y-145120000D03*
X113110000Y-137500000D03*
X120730000Y-145120000D03*
X115650000Y-137500000D03*
X118190000Y-145120000D03*
X118190000Y-137500000D03*
X115650000Y-145120000D03*
X120730000Y-137500000D03*
X113110000Y-145120000D03*
X123270000Y-137500000D03*
D17*
X110570000Y-145120000D03*
D30*
X119580000Y-117570000D03*
X120380000Y-117570000D03*
X121180000Y-117570000D03*
X121980000Y-117570000D03*
X122780000Y-117570000D03*
X123580000Y-117570000D03*
X124380000Y-117570000D03*
X125180000Y-117570000D03*
D31*
X126630000Y-119020000D03*
X126630000Y-119820000D03*
X126630000Y-120620000D03*
X126630000Y-121420000D03*
X126630000Y-122220000D03*
X126630000Y-123020000D03*
X126630000Y-123820000D03*
X126630000Y-124620000D03*
D30*
X125180000Y-126070000D03*
X124380000Y-126070000D03*
X123580000Y-126070000D03*
X122780000Y-126070000D03*
X121980000Y-126070000D03*
X121180000Y-126070000D03*
X120380000Y-126070000D03*
X119580000Y-126070000D03*
D31*
X118130000Y-124620000D03*
X118130000Y-123820000D03*
X118130000Y-123020000D03*
X118130000Y-122220000D03*
X118130000Y-121420000D03*
X118130000Y-120620000D03*
X118130000Y-119820000D03*
X118130000Y-119020000D03*
D32*
X111180000Y-117950000D03*
X111180000Y-126450000D03*
M02*
