G04 #@! TF.GenerationSoftware,KiCad,Pcbnew,(5.1.6)-1*
G04 #@! TF.CreationDate,2021-11-02T04:41:39+01:00*
G04 #@! TF.ProjectId,SLAVE,534c4156-452e-46b6-9963-61645f706362,V1*
G04 #@! TF.SameCoordinates,Original*
G04 #@! TF.FileFunction,Soldermask,Top*
G04 #@! TF.FilePolarity,Negative*
%FSLAX46Y46*%
G04 Gerber Fmt 4.6, Leading zero omitted, Abs format (unit mm)*
G04 Created by KiCad (PCBNEW (5.1.6)-1) date 2021-11-02 04:41:39*
%MOMM*%
%LPD*%
G01*
G04 APERTURE LIST*
%ADD10C,4.600000*%
%ADD11C,2.600000*%
%ADD12C,3.300000*%
%ADD13C,1.700000*%
%ADD14R,1.700000X1.700000*%
%ADD15C,1.900000*%
%ADD16R,1.900000X1.900000*%
%ADD17C,2.650000*%
%ADD18R,1.800000X1.800000*%
%ADD19O,1.800000X1.800000*%
%ADD20C,3.100000*%
%ADD21R,3.100000X3.100000*%
%ADD22C,1.600000*%
%ADD23C,2.400000*%
%ADD24R,1.600000X1.600000*%
%ADD25R,2.100000X2.400000*%
%ADD26O,1.700000X1.700000*%
%ADD27R,0.650000X1.700000*%
%ADD28R,1.700000X0.650000*%
%ADD29R,2.100000X4.600000*%
G04 APERTURE END LIST*
D10*
X189500000Y-55570000D03*
X189510000Y-149390000D03*
X105640000Y-55580000D03*
X105660000Y-149390000D03*
D11*
X180310000Y-71070000D03*
X180310000Y-54490000D03*
X133710000Y-71070000D03*
X133710000Y-54490000D03*
D12*
X186350000Y-106160000D03*
X186350000Y-134900000D03*
X167950000Y-99570000D03*
X167950000Y-76070000D03*
X167320000Y-150230000D03*
X167320000Y-140560000D03*
X141630000Y-134900000D03*
X141630000Y-106160000D03*
X131940000Y-99570000D03*
X131940000Y-76070000D03*
D13*
X112680000Y-107460000D03*
D14*
X110180000Y-107460000D03*
G36*
G01*
X107020000Y-126187500D02*
X107020000Y-126712500D01*
G75*
G02*
X106757500Y-126975000I-262500J0D01*
G01*
X106132500Y-126975000D01*
G75*
G02*
X105870000Y-126712500I0J262500D01*
G01*
X105870000Y-126187500D01*
G75*
G02*
X106132500Y-125925000I262500J0D01*
G01*
X106757500Y-125925000D01*
G75*
G02*
X107020000Y-126187500I0J-262500D01*
G01*
G37*
G36*
G01*
X105270000Y-126187500D02*
X105270000Y-126712500D01*
G75*
G02*
X105007500Y-126975000I-262500J0D01*
G01*
X104382500Y-126975000D01*
G75*
G02*
X104120000Y-126712500I0J262500D01*
G01*
X104120000Y-126187500D01*
G75*
G02*
X104382500Y-125925000I262500J0D01*
G01*
X105007500Y-125925000D01*
G75*
G02*
X105270000Y-126187500I0J-262500D01*
G01*
G37*
G36*
G01*
X105360000Y-117687500D02*
X105360000Y-118212500D01*
G75*
G02*
X105097500Y-118475000I-262500J0D01*
G01*
X104472500Y-118475000D01*
G75*
G02*
X104210000Y-118212500I0J262500D01*
G01*
X104210000Y-117687500D01*
G75*
G02*
X104472500Y-117425000I262500J0D01*
G01*
X105097500Y-117425000D01*
G75*
G02*
X105360000Y-117687500I0J-262500D01*
G01*
G37*
G36*
G01*
X107110000Y-117687500D02*
X107110000Y-118212500D01*
G75*
G02*
X106847500Y-118475000I-262500J0D01*
G01*
X106222500Y-118475000D01*
G75*
G02*
X105960000Y-118212500I0J262500D01*
G01*
X105960000Y-117687500D01*
G75*
G02*
X106222500Y-117425000I262500J0D01*
G01*
X106847500Y-117425000D01*
G75*
G02*
X107110000Y-117687500I0J-262500D01*
G01*
G37*
D15*
X187950000Y-62960000D03*
D16*
X187950000Y-60420000D03*
G36*
G01*
X126485197Y-62395000D02*
X124354803Y-62395000D01*
G75*
G02*
X124095000Y-62135197I0J259803D01*
G01*
X124095000Y-60004803D01*
G75*
G02*
X124354803Y-59745000I259803J0D01*
G01*
X126485197Y-59745000D01*
G75*
G02*
X126745000Y-60004803I0J-259803D01*
G01*
X126745000Y-62135197D01*
G75*
G02*
X126485197Y-62395000I-259803J0D01*
G01*
G37*
D17*
X125420000Y-56270000D03*
D18*
X117470000Y-112190000D03*
D19*
X120010000Y-112190000D03*
D20*
X116760000Y-56610000D03*
D21*
X111680000Y-56610000D03*
D19*
X133150000Y-147280000D03*
X133150000Y-144740000D03*
X135690000Y-147280000D03*
X135690000Y-144740000D03*
X138230000Y-147280000D03*
D18*
X138230000Y-144740000D03*
D19*
X153120000Y-142980000D03*
X153120000Y-145520000D03*
D18*
X153120000Y-148060000D03*
D17*
X111710000Y-62870000D03*
G36*
G01*
X117835000Y-61804803D02*
X117835000Y-63935197D01*
G75*
G02*
X117575197Y-64195000I-259803J0D01*
G01*
X115444803Y-64195000D01*
G75*
G02*
X115185000Y-63935197I0J259803D01*
G01*
X115185000Y-61804803D01*
G75*
G02*
X115444803Y-61545000I259803J0D01*
G01*
X117575197Y-61545000D01*
G75*
G02*
X117835000Y-61804803I0J-259803D01*
G01*
G37*
D19*
X180080000Y-58580000D03*
X180080000Y-61120000D03*
X180080000Y-63660000D03*
D18*
X180080000Y-66200000D03*
X135710000Y-110970000D03*
D19*
X135710000Y-113510000D03*
X135710000Y-116050000D03*
D18*
X131880000Y-80570000D03*
D19*
X131880000Y-83110000D03*
X131880000Y-85650000D03*
X131880000Y-88190000D03*
X131880000Y-90730000D03*
X131880000Y-93270000D03*
X131880000Y-95810000D03*
X173870000Y-86740000D03*
D18*
X173870000Y-89280000D03*
D22*
X180910000Y-89790000D03*
D23*
X185750000Y-94260000D03*
D22*
X183450000Y-88770000D03*
X180910000Y-87750000D03*
D24*
X183450000Y-86730000D03*
D23*
X185750000Y-82260000D03*
X106340000Y-98460000D03*
X111540000Y-69060000D03*
D25*
X116540000Y-69060000D03*
D23*
X121740000Y-98460000D03*
G36*
G01*
X125407500Y-110510000D02*
X125932500Y-110510000D01*
G75*
G02*
X126195000Y-110772500I0J-262500D01*
G01*
X126195000Y-111397500D01*
G75*
G02*
X125932500Y-111660000I-262500J0D01*
G01*
X125407500Y-111660000D01*
G75*
G02*
X125145000Y-111397500I0J262500D01*
G01*
X125145000Y-110772500D01*
G75*
G02*
X125407500Y-110510000I262500J0D01*
G01*
G37*
G36*
G01*
X125407500Y-108760000D02*
X125932500Y-108760000D01*
G75*
G02*
X126195000Y-109022500I0J-262500D01*
G01*
X126195000Y-109647500D01*
G75*
G02*
X125932500Y-109910000I-262500J0D01*
G01*
X125407500Y-109910000D01*
G75*
G02*
X125145000Y-109647500I0J262500D01*
G01*
X125145000Y-109022500D01*
G75*
G02*
X125407500Y-108760000I262500J0D01*
G01*
G37*
G36*
G01*
X188222500Y-69090000D02*
X187697500Y-69090000D01*
G75*
G02*
X187435000Y-68827500I0J262500D01*
G01*
X187435000Y-68202500D01*
G75*
G02*
X187697500Y-67940000I262500J0D01*
G01*
X188222500Y-67940000D01*
G75*
G02*
X188485000Y-68202500I0J-262500D01*
G01*
X188485000Y-68827500D01*
G75*
G02*
X188222500Y-69090000I-262500J0D01*
G01*
G37*
G36*
G01*
X188222500Y-67340000D02*
X187697500Y-67340000D01*
G75*
G02*
X187435000Y-67077500I0J262500D01*
G01*
X187435000Y-66452500D01*
G75*
G02*
X187697500Y-66190000I262500J0D01*
G01*
X188222500Y-66190000D01*
G75*
G02*
X188485000Y-66452500I0J-262500D01*
G01*
X188485000Y-67077500D01*
G75*
G02*
X188222500Y-67340000I-262500J0D01*
G01*
G37*
D26*
X110570000Y-137500000D03*
X123270000Y-145120000D03*
X113110000Y-137500000D03*
X120730000Y-145120000D03*
X115650000Y-137500000D03*
X118190000Y-145120000D03*
X118190000Y-137500000D03*
X115650000Y-145120000D03*
X120730000Y-137500000D03*
X113110000Y-145120000D03*
X123270000Y-137500000D03*
D14*
X110570000Y-145120000D03*
D27*
X119580000Y-117570000D03*
X120380000Y-117570000D03*
X121180000Y-117570000D03*
X121980000Y-117570000D03*
X122780000Y-117570000D03*
X123580000Y-117570000D03*
X124380000Y-117570000D03*
X125180000Y-117570000D03*
D28*
X126630000Y-119020000D03*
X126630000Y-119820000D03*
X126630000Y-120620000D03*
X126630000Y-121420000D03*
X126630000Y-122220000D03*
X126630000Y-123020000D03*
X126630000Y-123820000D03*
X126630000Y-124620000D03*
D27*
X125180000Y-126070000D03*
X124380000Y-126070000D03*
X123580000Y-126070000D03*
X122780000Y-126070000D03*
X121980000Y-126070000D03*
X121180000Y-126070000D03*
X120380000Y-126070000D03*
X119580000Y-126070000D03*
D28*
X118130000Y-124620000D03*
X118130000Y-123820000D03*
X118130000Y-123020000D03*
X118130000Y-122220000D03*
X118130000Y-121420000D03*
X118130000Y-120620000D03*
X118130000Y-119820000D03*
X118130000Y-119020000D03*
D29*
X111180000Y-117950000D03*
X111180000Y-126450000D03*
M02*
