M48
; DRILL file {KiCad (5.1.6)-1} date 11/02/21 04:41:40
; FORMAT={-:-/ absolute / metric / decimal}
; #@! TF.CreationDate,2021-11-02T04:41:40+01:00
; #@! TF.GenerationSoftware,Kicad,Pcbnew,(5.1.6)-1
; #@! TF.FileFunction,NonPlated,1,2,NPTH
FMAT,2
METRIC
T1C2.300
T2C2.500
T3C3.200
T4C4.500
%
G90
G05
T1
X185.75Y-82.26
X185.75Y-94.26
T2
X180.31Y-54.49
X133.71Y-71.07
X180.31Y-71.07
X133.71Y-54.49
T3
X167.32Y-140.56
X167.95Y-76.07
X167.32Y-150.23
X131.94Y-76.07
X186.35Y-106.16
X141.63Y-134.9
X167.95Y-99.57
X141.63Y-106.16
X186.35Y-134.9
X131.94Y-99.57
T4
X189.5Y-55.57
X105.66Y-149.39
X105.64Y-55.58
X189.51Y-149.39
T0
M30
