G04 #@! TF.GenerationSoftware,KiCad,Pcbnew,(5.1.6)-1*
G04 #@! TF.CreationDate,2021-11-02T04:41:39+01:00*
G04 #@! TF.ProjectId,SLAVE,534c4156-452e-46b6-9963-61645f706362,V1*
G04 #@! TF.SameCoordinates,Original*
G04 #@! TF.FileFunction,Paste,Bot*
G04 #@! TF.FilePolarity,Positive*
%FSLAX46Y46*%
G04 Gerber Fmt 4.6, Leading zero omitted, Abs format (unit mm)*
G04 Created by KiCad (PCBNEW (5.1.6)-1) date 2021-11-02 04:41:39*
%MOMM*%
%LPD*%
G01*
G04 APERTURE LIST*
G04 APERTURE END LIST*
G36*
G01*
X123487500Y-140370000D02*
X123012500Y-140370000D01*
G75*
G02*
X122775000Y-140132500I0J237500D01*
G01*
X122775000Y-139557500D01*
G75*
G02*
X123012500Y-139320000I237500J0D01*
G01*
X123487500Y-139320000D01*
G75*
G02*
X123725000Y-139557500I0J-237500D01*
G01*
X123725000Y-140132500D01*
G75*
G02*
X123487500Y-140370000I-237500J0D01*
G01*
G37*
G36*
G01*
X123487500Y-142120000D02*
X123012500Y-142120000D01*
G75*
G02*
X122775000Y-141882500I0J237500D01*
G01*
X122775000Y-141307500D01*
G75*
G02*
X123012500Y-141070000I237500J0D01*
G01*
X123487500Y-141070000D01*
G75*
G02*
X123725000Y-141307500I0J-237500D01*
G01*
X123725000Y-141882500D01*
G75*
G02*
X123487500Y-142120000I-237500J0D01*
G01*
G37*
G36*
G01*
X120917500Y-142100000D02*
X120442500Y-142100000D01*
G75*
G02*
X120205000Y-141862500I0J237500D01*
G01*
X120205000Y-141287500D01*
G75*
G02*
X120442500Y-141050000I237500J0D01*
G01*
X120917500Y-141050000D01*
G75*
G02*
X121155000Y-141287500I0J-237500D01*
G01*
X121155000Y-141862500D01*
G75*
G02*
X120917500Y-142100000I-237500J0D01*
G01*
G37*
G36*
G01*
X120917500Y-140350000D02*
X120442500Y-140350000D01*
G75*
G02*
X120205000Y-140112500I0J237500D01*
G01*
X120205000Y-139537500D01*
G75*
G02*
X120442500Y-139300000I237500J0D01*
G01*
X120917500Y-139300000D01*
G75*
G02*
X121155000Y-139537500I0J-237500D01*
G01*
X121155000Y-140112500D01*
G75*
G02*
X120917500Y-140350000I-237500J0D01*
G01*
G37*
G36*
G01*
X118397500Y-140365000D02*
X117922500Y-140365000D01*
G75*
G02*
X117685000Y-140127500I0J237500D01*
G01*
X117685000Y-139552500D01*
G75*
G02*
X117922500Y-139315000I237500J0D01*
G01*
X118397500Y-139315000D01*
G75*
G02*
X118635000Y-139552500I0J-237500D01*
G01*
X118635000Y-140127500D01*
G75*
G02*
X118397500Y-140365000I-237500J0D01*
G01*
G37*
G36*
G01*
X118397500Y-142115000D02*
X117922500Y-142115000D01*
G75*
G02*
X117685000Y-141877500I0J237500D01*
G01*
X117685000Y-141302500D01*
G75*
G02*
X117922500Y-141065000I237500J0D01*
G01*
X118397500Y-141065000D01*
G75*
G02*
X118635000Y-141302500I0J-237500D01*
G01*
X118635000Y-141877500D01*
G75*
G02*
X118397500Y-142115000I-237500J0D01*
G01*
G37*
G36*
G01*
X115857500Y-142100000D02*
X115382500Y-142100000D01*
G75*
G02*
X115145000Y-141862500I0J237500D01*
G01*
X115145000Y-141287500D01*
G75*
G02*
X115382500Y-141050000I237500J0D01*
G01*
X115857500Y-141050000D01*
G75*
G02*
X116095000Y-141287500I0J-237500D01*
G01*
X116095000Y-141862500D01*
G75*
G02*
X115857500Y-142100000I-237500J0D01*
G01*
G37*
G36*
G01*
X115857500Y-140350000D02*
X115382500Y-140350000D01*
G75*
G02*
X115145000Y-140112500I0J237500D01*
G01*
X115145000Y-139537500D01*
G75*
G02*
X115382500Y-139300000I237500J0D01*
G01*
X115857500Y-139300000D01*
G75*
G02*
X116095000Y-139537500I0J-237500D01*
G01*
X116095000Y-140112500D01*
G75*
G02*
X115857500Y-140350000I-237500J0D01*
G01*
G37*
G36*
G01*
X113327500Y-140350000D02*
X112852500Y-140350000D01*
G75*
G02*
X112615000Y-140112500I0J237500D01*
G01*
X112615000Y-139537500D01*
G75*
G02*
X112852500Y-139300000I237500J0D01*
G01*
X113327500Y-139300000D01*
G75*
G02*
X113565000Y-139537500I0J-237500D01*
G01*
X113565000Y-140112500D01*
G75*
G02*
X113327500Y-140350000I-237500J0D01*
G01*
G37*
G36*
G01*
X113327500Y-142100000D02*
X112852500Y-142100000D01*
G75*
G02*
X112615000Y-141862500I0J237500D01*
G01*
X112615000Y-141287500D01*
G75*
G02*
X112852500Y-141050000I237500J0D01*
G01*
X113327500Y-141050000D01*
G75*
G02*
X113565000Y-141287500I0J-237500D01*
G01*
X113565000Y-141862500D01*
G75*
G02*
X113327500Y-142100000I-237500J0D01*
G01*
G37*
G36*
G01*
X110757500Y-142100000D02*
X110282500Y-142100000D01*
G75*
G02*
X110045000Y-141862500I0J237500D01*
G01*
X110045000Y-141287500D01*
G75*
G02*
X110282500Y-141050000I237500J0D01*
G01*
X110757500Y-141050000D01*
G75*
G02*
X110995000Y-141287500I0J-237500D01*
G01*
X110995000Y-141862500D01*
G75*
G02*
X110757500Y-142100000I-237500J0D01*
G01*
G37*
G36*
G01*
X110757500Y-140350000D02*
X110282500Y-140350000D01*
G75*
G02*
X110045000Y-140112500I0J237500D01*
G01*
X110045000Y-139537500D01*
G75*
G02*
X110282500Y-139300000I237500J0D01*
G01*
X110757500Y-139300000D01*
G75*
G02*
X110995000Y-139537500I0J-237500D01*
G01*
X110995000Y-140112500D01*
G75*
G02*
X110757500Y-140350000I-237500J0D01*
G01*
G37*
M02*
