M48
; DRILL file {KiCad (5.1.6)-1} date 11/02/21 04:41:40
; FORMAT={-:-/ absolute / metric / decimal}
; #@! TF.CreationDate,2021-11-02T04:41:40+01:00
; #@! TF.GenerationSoftware,Kicad,Pcbnew,(5.1.6)-1
; #@! TF.FileFunction,Plated,1,2,PTH
FMAT,2
METRIC
T1C0.600
T2C0.800
T3C0.900
T4C1.000
T5C1.520
T6C1.550
%
G90
G05
T1
X115.69Y-117.1
X115.88Y-119.84
X117.35Y-115.66
X120.9Y-120.63
X123.48Y-119.98
X125.12Y-131.81
X125.51Y-134.57
X125.76Y-137.08
X125.96Y-128.02
X130.32Y-121.24
X132.0Y-117.6
X133.43Y-133.2
X137.72Y-137.49
X137.8Y-123.98
X141.19Y-116.35
X142.31Y-140.13
X145.51Y-101.49
X146.24Y-132.48
X147.85Y-124.61
X155.6Y-132.49
X160.22Y-97.68
T2
X110.18Y-107.46
X112.68Y-107.46
X110.57Y-137.5
X110.57Y-145.12
X113.11Y-137.5
X113.11Y-145.12
X115.65Y-137.5
X115.65Y-145.12
X118.19Y-137.5
X118.19Y-145.12
X120.73Y-137.5
X120.73Y-145.12
X123.27Y-137.5
X123.27Y-145.12
T3
X187.95Y-60.42
X187.95Y-62.96
X180.91Y-87.75
X180.91Y-89.79
X183.45Y-86.73
X183.45Y-88.77
T4
X106.34Y-98.46
X111.54Y-69.06
X116.54Y-69.06
X121.74Y-98.46
X133.15Y-144.74
X133.15Y-147.28
X135.69Y-144.74
X135.69Y-147.28
X138.23Y-144.74
X138.23Y-147.28
X135.71Y-110.97
X135.71Y-113.51
X135.71Y-116.05
X131.88Y-80.57
X131.88Y-83.11
X131.88Y-85.65
X131.88Y-88.19
X131.88Y-90.73
X131.88Y-93.27
X131.88Y-95.81
X173.87Y-86.74
X173.87Y-89.28
X153.12Y-142.98
X153.12Y-145.52
X153.12Y-148.06
X180.08Y-58.58
X180.08Y-61.12
X180.08Y-63.66
X180.08Y-66.2
X117.47Y-112.19
X120.01Y-112.19
T5
X111.68Y-56.61
X116.76Y-56.61
T6
X125.42Y-56.27
X125.42Y-61.07
X111.71Y-62.87
X116.51Y-62.87
T0
M30
