G04 #@! TF.GenerationSoftware,KiCad,Pcbnew,(5.1.6)-1*
G04 #@! TF.CreationDate,2021-11-02T04:41:39+01:00*
G04 #@! TF.ProjectId,SLAVE,534c4156-452e-46b6-9963-61645f706362,V1*
G04 #@! TF.SameCoordinates,Original*
G04 #@! TF.FileFunction,Copper,L1,Top*
G04 #@! TF.FilePolarity,Positive*
%FSLAX46Y46*%
G04 Gerber Fmt 4.6, Leading zero omitted, Abs format (unit mm)*
G04 Created by KiCad (PCBNEW (5.1.6)-1) date 2021-11-02 04:41:39*
%MOMM*%
%LPD*%
G01*
G04 APERTURE LIST*
G04 #@! TA.AperFunction,EtchedComponent*
%ADD10C,0.150000*%
G04 #@! TD*
G04 #@! TA.AperFunction,ComponentPad*
%ADD11C,1.600000*%
G04 #@! TD*
G04 #@! TA.AperFunction,ComponentPad*
%ADD12R,1.600000X1.600000*%
G04 #@! TD*
G04 #@! TA.AperFunction,ComponentPad*
%ADD13C,1.800000*%
G04 #@! TD*
G04 #@! TA.AperFunction,ComponentPad*
%ADD14R,1.800000X1.800000*%
G04 #@! TD*
G04 #@! TA.AperFunction,ComponentPad*
%ADD15C,2.550000*%
G04 #@! TD*
G04 #@! TA.AperFunction,ComponentPad*
%ADD16R,1.700000X1.700000*%
G04 #@! TD*
G04 #@! TA.AperFunction,ComponentPad*
%ADD17O,1.700000X1.700000*%
G04 #@! TD*
G04 #@! TA.AperFunction,ComponentPad*
%ADD18C,3.000000*%
G04 #@! TD*
G04 #@! TA.AperFunction,ComponentPad*
%ADD19R,3.000000X3.000000*%
G04 #@! TD*
G04 #@! TA.AperFunction,ComponentPad*
%ADD20C,1.500000*%
G04 #@! TD*
G04 #@! TA.AperFunction,ComponentPad*
%ADD21R,1.500000X1.500000*%
G04 #@! TD*
G04 #@! TA.AperFunction,ComponentPad*
%ADD22C,2.300000*%
G04 #@! TD*
G04 #@! TA.AperFunction,ComponentPad*
%ADD23R,2.000000X2.300000*%
G04 #@! TD*
G04 #@! TA.AperFunction,ComponentPad*
%ADD24O,1.600000X1.600000*%
G04 #@! TD*
G04 #@! TA.AperFunction,SMDPad,CuDef*
%ADD25R,0.550000X1.600000*%
G04 #@! TD*
G04 #@! TA.AperFunction,SMDPad,CuDef*
%ADD26R,1.600000X0.550000*%
G04 #@! TD*
G04 #@! TA.AperFunction,SMDPad,CuDef*
%ADD27R,2.000000X4.500000*%
G04 #@! TD*
G04 #@! TA.AperFunction,ViaPad*
%ADD28C,1.200000*%
G04 #@! TD*
G04 #@! TA.AperFunction,Conductor*
%ADD29C,0.300000*%
G04 #@! TD*
G04 #@! TA.AperFunction,Conductor*
%ADD30C,2.000000*%
G04 #@! TD*
G04 #@! TA.AperFunction,Conductor*
%ADD31C,0.254000*%
G04 #@! TD*
G04 APERTURE END LIST*
D10*
X192000000Y-55570000D02*
G75*
G03*
X192000000Y-55570000I-2500000J0D01*
G01*
X192010000Y-149390000D02*
G75*
G03*
X192010000Y-149390000I-2500000J0D01*
G01*
X108140000Y-55580000D02*
G75*
G03*
X108140000Y-55580000I-2500000J0D01*
G01*
X108160000Y-149390000D02*
G75*
G03*
X108160000Y-149390000I-2500000J0D01*
G01*
X181810000Y-71070000D02*
G75*
G03*
X181810000Y-71070000I-1500000J0D01*
G01*
X181810000Y-54490000D02*
G75*
G03*
X181810000Y-54490000I-1500000J0D01*
G01*
X135210000Y-71070000D02*
G75*
G03*
X135210000Y-71070000I-1500000J0D01*
G01*
X135210000Y-54490000D02*
G75*
G03*
X135210000Y-54490000I-1500000J0D01*
G01*
X188350000Y-106160000D02*
G75*
G03*
X188350000Y-106160000I-2000000J0D01*
G01*
X188350000Y-134900000D02*
G75*
G03*
X188350000Y-134900000I-2000000J0D01*
G01*
X169950000Y-99570000D02*
G75*
G03*
X169950000Y-99570000I-2000000J0D01*
G01*
X169950000Y-76070000D02*
G75*
G03*
X169950000Y-76070000I-2000000J0D01*
G01*
X169320000Y-150230000D02*
G75*
G03*
X169320000Y-150230000I-2000000J0D01*
G01*
X169320000Y-140560000D02*
G75*
G03*
X169320000Y-140560000I-2000000J0D01*
G01*
X143630000Y-134900000D02*
G75*
G03*
X143630000Y-134900000I-2000000J0D01*
G01*
X143630000Y-106160000D02*
G75*
G03*
X143630000Y-106160000I-2000000J0D01*
G01*
X133940000Y-99570000D02*
G75*
G03*
X133940000Y-99570000I-2000000J0D01*
G01*
X133940000Y-76070000D02*
G75*
G03*
X133940000Y-76070000I-2000000J0D01*
G01*
D11*
X112680000Y-107460000D03*
D12*
X110180000Y-107460000D03*
G04 #@! TA.AperFunction,SMDPad,CuDef*
G36*
G01*
X106970000Y-126212500D02*
X106970000Y-126687500D01*
G75*
G02*
X106732500Y-126925000I-237500J0D01*
G01*
X106157500Y-126925000D01*
G75*
G02*
X105920000Y-126687500I0J237500D01*
G01*
X105920000Y-126212500D01*
G75*
G02*
X106157500Y-125975000I237500J0D01*
G01*
X106732500Y-125975000D01*
G75*
G02*
X106970000Y-126212500I0J-237500D01*
G01*
G37*
G04 #@! TD.AperFunction*
G04 #@! TA.AperFunction,SMDPad,CuDef*
G36*
G01*
X105220000Y-126212500D02*
X105220000Y-126687500D01*
G75*
G02*
X104982500Y-126925000I-237500J0D01*
G01*
X104407500Y-126925000D01*
G75*
G02*
X104170000Y-126687500I0J237500D01*
G01*
X104170000Y-126212500D01*
G75*
G02*
X104407500Y-125975000I237500J0D01*
G01*
X104982500Y-125975000D01*
G75*
G02*
X105220000Y-126212500I0J-237500D01*
G01*
G37*
G04 #@! TD.AperFunction*
G04 #@! TA.AperFunction,SMDPad,CuDef*
G36*
G01*
X105310000Y-117712500D02*
X105310000Y-118187500D01*
G75*
G02*
X105072500Y-118425000I-237500J0D01*
G01*
X104497500Y-118425000D01*
G75*
G02*
X104260000Y-118187500I0J237500D01*
G01*
X104260000Y-117712500D01*
G75*
G02*
X104497500Y-117475000I237500J0D01*
G01*
X105072500Y-117475000D01*
G75*
G02*
X105310000Y-117712500I0J-237500D01*
G01*
G37*
G04 #@! TD.AperFunction*
G04 #@! TA.AperFunction,SMDPad,CuDef*
G36*
G01*
X107060000Y-117712500D02*
X107060000Y-118187500D01*
G75*
G02*
X106822500Y-118425000I-237500J0D01*
G01*
X106247500Y-118425000D01*
G75*
G02*
X106010000Y-118187500I0J237500D01*
G01*
X106010000Y-117712500D01*
G75*
G02*
X106247500Y-117475000I237500J0D01*
G01*
X106822500Y-117475000D01*
G75*
G02*
X107060000Y-117712500I0J-237500D01*
G01*
G37*
G04 #@! TD.AperFunction*
D13*
X187950000Y-62960000D03*
D14*
X187950000Y-60420000D03*
G04 #@! TA.AperFunction,ComponentPad*
G36*
G01*
X126445001Y-62345000D02*
X124394999Y-62345000D01*
G75*
G02*
X124145000Y-62095001I0J249999D01*
G01*
X124145000Y-60044999D01*
G75*
G02*
X124394999Y-59795000I249999J0D01*
G01*
X126445001Y-59795000D01*
G75*
G02*
X126695000Y-60044999I0J-249999D01*
G01*
X126695000Y-62095001D01*
G75*
G02*
X126445001Y-62345000I-249999J0D01*
G01*
G37*
G04 #@! TD.AperFunction*
D15*
X125420000Y-56270000D03*
D16*
X117470000Y-112190000D03*
D17*
X120010000Y-112190000D03*
D18*
X116760000Y-56610000D03*
D19*
X111680000Y-56610000D03*
D17*
X133150000Y-147280000D03*
X133150000Y-144740000D03*
X135690000Y-147280000D03*
X135690000Y-144740000D03*
X138230000Y-147280000D03*
D16*
X138230000Y-144740000D03*
D17*
X153120000Y-142980000D03*
X153120000Y-145520000D03*
D16*
X153120000Y-148060000D03*
D15*
X111710000Y-62870000D03*
G04 #@! TA.AperFunction,ComponentPad*
G36*
G01*
X117785000Y-61844999D02*
X117785000Y-63895001D01*
G75*
G02*
X117535001Y-64145000I-249999J0D01*
G01*
X115484999Y-64145000D01*
G75*
G02*
X115235000Y-63895001I0J249999D01*
G01*
X115235000Y-61844999D01*
G75*
G02*
X115484999Y-61595000I249999J0D01*
G01*
X117535001Y-61595000D01*
G75*
G02*
X117785000Y-61844999I0J-249999D01*
G01*
G37*
G04 #@! TD.AperFunction*
D17*
X180080000Y-58580000D03*
X180080000Y-61120000D03*
X180080000Y-63660000D03*
D16*
X180080000Y-66200000D03*
X135710000Y-110970000D03*
D17*
X135710000Y-113510000D03*
X135710000Y-116050000D03*
D16*
X131880000Y-80570000D03*
D17*
X131880000Y-83110000D03*
X131880000Y-85650000D03*
X131880000Y-88190000D03*
X131880000Y-90730000D03*
X131880000Y-93270000D03*
X131880000Y-95810000D03*
X173870000Y-86740000D03*
D16*
X173870000Y-89280000D03*
D20*
X180910000Y-89790000D03*
X183450000Y-88770000D03*
X180910000Y-87750000D03*
D21*
X183450000Y-86730000D03*
D22*
X106340000Y-98460000D03*
X111540000Y-69060000D03*
D23*
X116540000Y-69060000D03*
D22*
X121740000Y-98460000D03*
G04 #@! TA.AperFunction,SMDPad,CuDef*
G36*
G01*
X125432500Y-110560000D02*
X125907500Y-110560000D01*
G75*
G02*
X126145000Y-110797500I0J-237500D01*
G01*
X126145000Y-111372500D01*
G75*
G02*
X125907500Y-111610000I-237500J0D01*
G01*
X125432500Y-111610000D01*
G75*
G02*
X125195000Y-111372500I0J237500D01*
G01*
X125195000Y-110797500D01*
G75*
G02*
X125432500Y-110560000I237500J0D01*
G01*
G37*
G04 #@! TD.AperFunction*
G04 #@! TA.AperFunction,SMDPad,CuDef*
G36*
G01*
X125432500Y-108810000D02*
X125907500Y-108810000D01*
G75*
G02*
X126145000Y-109047500I0J-237500D01*
G01*
X126145000Y-109622500D01*
G75*
G02*
X125907500Y-109860000I-237500J0D01*
G01*
X125432500Y-109860000D01*
G75*
G02*
X125195000Y-109622500I0J237500D01*
G01*
X125195000Y-109047500D01*
G75*
G02*
X125432500Y-108810000I237500J0D01*
G01*
G37*
G04 #@! TD.AperFunction*
G04 #@! TA.AperFunction,SMDPad,CuDef*
G36*
G01*
X188197500Y-69040000D02*
X187722500Y-69040000D01*
G75*
G02*
X187485000Y-68802500I0J237500D01*
G01*
X187485000Y-68227500D01*
G75*
G02*
X187722500Y-67990000I237500J0D01*
G01*
X188197500Y-67990000D01*
G75*
G02*
X188435000Y-68227500I0J-237500D01*
G01*
X188435000Y-68802500D01*
G75*
G02*
X188197500Y-69040000I-237500J0D01*
G01*
G37*
G04 #@! TD.AperFunction*
G04 #@! TA.AperFunction,SMDPad,CuDef*
G36*
G01*
X188197500Y-67290000D02*
X187722500Y-67290000D01*
G75*
G02*
X187485000Y-67052500I0J237500D01*
G01*
X187485000Y-66477500D01*
G75*
G02*
X187722500Y-66240000I237500J0D01*
G01*
X188197500Y-66240000D01*
G75*
G02*
X188435000Y-66477500I0J-237500D01*
G01*
X188435000Y-67052500D01*
G75*
G02*
X188197500Y-67290000I-237500J0D01*
G01*
G37*
G04 #@! TD.AperFunction*
D24*
X110570000Y-137500000D03*
X123270000Y-145120000D03*
X113110000Y-137500000D03*
X120730000Y-145120000D03*
X115650000Y-137500000D03*
X118190000Y-145120000D03*
X118190000Y-137500000D03*
X115650000Y-145120000D03*
X120730000Y-137500000D03*
X113110000Y-145120000D03*
X123270000Y-137500000D03*
D12*
X110570000Y-145120000D03*
D25*
X119580000Y-117570000D03*
X120380000Y-117570000D03*
X121180000Y-117570000D03*
X121980000Y-117570000D03*
X122780000Y-117570000D03*
X123580000Y-117570000D03*
X124380000Y-117570000D03*
X125180000Y-117570000D03*
D26*
X126630000Y-119020000D03*
X126630000Y-119820000D03*
X126630000Y-120620000D03*
X126630000Y-121420000D03*
X126630000Y-122220000D03*
X126630000Y-123020000D03*
X126630000Y-123820000D03*
X126630000Y-124620000D03*
D25*
X125180000Y-126070000D03*
X124380000Y-126070000D03*
X123580000Y-126070000D03*
X122780000Y-126070000D03*
X121980000Y-126070000D03*
X121180000Y-126070000D03*
X120380000Y-126070000D03*
X119580000Y-126070000D03*
D26*
X118130000Y-124620000D03*
X118130000Y-123820000D03*
X118130000Y-123020000D03*
X118130000Y-122220000D03*
X118130000Y-121420000D03*
X118130000Y-120620000D03*
X118130000Y-119820000D03*
X118130000Y-119020000D03*
D27*
X111180000Y-117950000D03*
X111180000Y-126450000D03*
D28*
X120900000Y-120630000D03*
X146240000Y-132480000D03*
X123480000Y-119980000D03*
X125960000Y-128020000D03*
X155600000Y-132490000D03*
X142310000Y-140130000D03*
X137720000Y-137490000D03*
X133430000Y-133200000D03*
X130320000Y-121240000D03*
X145510000Y-101490000D03*
X125510000Y-134570000D03*
X137800000Y-123980000D03*
X125120000Y-131810000D03*
X125760000Y-137080000D03*
X147850000Y-124610000D03*
X160220000Y-97680000D03*
X141190000Y-116350000D03*
X132000000Y-117600000D03*
X117350000Y-115660000D03*
X115880000Y-119840000D03*
X115690000Y-117100000D03*
D29*
X118140000Y-120630000D02*
X118130000Y-120620000D01*
X120900000Y-120630000D02*
X118140000Y-120630000D01*
X121690000Y-121420000D02*
X120900000Y-120630000D01*
X126630000Y-121420000D02*
X121690000Y-121420000D01*
X126630000Y-121420000D02*
X128160000Y-121420000D01*
X119310000Y-122220000D02*
X120900000Y-120630000D01*
X118130000Y-122220000D02*
X119310000Y-122220000D01*
X106340000Y-98460000D02*
X106340000Y-106490000D01*
X107310000Y-107460000D02*
X110180000Y-107460000D01*
X106340000Y-106490000D02*
X107310000Y-107460000D01*
X135710000Y-110970000D02*
X131440000Y-110970000D01*
X129805000Y-109335000D02*
X125670000Y-109335000D01*
X131440000Y-110970000D02*
X129805000Y-109335000D01*
X125670000Y-109335000D02*
X123555000Y-109335000D01*
X112680000Y-98460000D02*
X106340000Y-98460000D01*
X123555000Y-109335000D02*
X112680000Y-98460000D01*
X110570000Y-145120000D02*
X113110000Y-145120000D01*
X115650000Y-145120000D02*
X113110000Y-145120000D01*
X115650000Y-145120000D02*
X118190000Y-145120000D01*
X118190000Y-145120000D02*
X120730000Y-145120000D01*
X120730000Y-145120000D02*
X123270000Y-145120000D01*
X126630000Y-123820000D02*
X122660000Y-123820000D01*
X153120000Y-142980000D02*
X149470000Y-142980000D01*
X123270000Y-147460000D02*
X123270000Y-145120000D01*
X131880000Y-95810000D02*
X107310000Y-95810000D01*
X106340000Y-96780000D02*
X106340000Y-98460000D01*
X107310000Y-95810000D02*
X106340000Y-96780000D01*
X180080000Y-58580000D02*
X173520000Y-58580000D01*
X136290000Y-95810000D02*
X131880000Y-95810000D01*
X173520000Y-58580000D02*
X136290000Y-95810000D01*
X122060000Y-123820000D02*
X122660000Y-123820000D01*
X121260000Y-123020000D02*
X122060000Y-123820000D01*
X118130000Y-123020000D02*
X121260000Y-123020000D01*
X118130000Y-123020000D02*
X115900000Y-123020000D01*
X115900000Y-123020000D02*
X115740000Y-122860000D01*
X118130000Y-121420000D02*
X115740000Y-121420000D01*
X115740000Y-122860000D02*
X115740000Y-121420000D01*
X114880000Y-121420000D02*
X115740000Y-121420000D01*
X113410000Y-113850000D02*
X113410000Y-119950000D01*
X110180000Y-107460000D02*
X110180000Y-110620000D01*
X113410000Y-119950000D02*
X114880000Y-121420000D01*
X110180000Y-110620000D02*
X113410000Y-113850000D01*
X123270000Y-147460000D02*
X126750000Y-150940000D01*
X141510000Y-150940000D02*
X149470000Y-142980000D01*
X126750000Y-150940000D02*
X141510000Y-150940000D01*
X106445000Y-126450000D02*
X111180000Y-126450000D01*
X118130000Y-124620000D02*
X115860000Y-124620000D01*
X114030000Y-126450000D02*
X111180000Y-126450000D01*
X115860000Y-124620000D02*
X114030000Y-126450000D01*
X118130000Y-123820000D02*
X117030000Y-123820000D01*
X106535000Y-117950000D02*
X111180000Y-117950000D01*
X117030000Y-123820000D02*
X114540000Y-123820000D01*
X111180000Y-120460000D02*
X114540000Y-123820000D01*
X111180000Y-117950000D02*
X111180000Y-120460000D01*
X187950000Y-66755000D02*
X187960000Y-66765000D01*
X187950000Y-62960000D02*
X187950000Y-66755000D01*
D30*
X116490000Y-69010000D02*
X116540000Y-69060000D01*
X116540000Y-62900000D02*
X116510000Y-62870000D01*
X116540000Y-69060000D02*
X116540000Y-62900000D01*
X116510000Y-62870000D02*
X119910000Y-62870000D01*
X121710000Y-61070000D02*
X125420000Y-61070000D01*
X119910000Y-62870000D02*
X121710000Y-61070000D01*
X125080000Y-56610000D02*
X125420000Y-56270000D01*
X116760000Y-56610000D02*
X125080000Y-56610000D01*
D29*
X117470000Y-112190000D02*
X117470000Y-113180000D01*
X120380000Y-116090000D02*
X120380000Y-117570000D01*
X117470000Y-113180000D02*
X120380000Y-116090000D01*
X120010000Y-112190000D02*
X120010000Y-113860000D01*
X121180000Y-115030000D02*
X121180000Y-117570000D01*
X120010000Y-113860000D02*
X121180000Y-115030000D01*
X111690000Y-62320000D02*
X111760000Y-62390000D01*
D30*
X111690000Y-68910000D02*
X111540000Y-69060000D01*
X111680000Y-62840000D02*
X111710000Y-62870000D01*
X111680000Y-56610000D02*
X111680000Y-62840000D01*
X111710000Y-68890000D02*
X111540000Y-69060000D01*
X111710000Y-62870000D02*
X111710000Y-68890000D01*
D29*
X125670000Y-111085000D02*
X125670000Y-112220000D01*
X121980000Y-115910000D02*
X121980000Y-117570000D01*
X125670000Y-112220000D02*
X121980000Y-115910000D01*
X133150000Y-135210000D02*
X125960000Y-128020000D01*
X133150000Y-144740000D02*
X133150000Y-135210000D01*
X123290000Y-119980000D02*
X123480000Y-119980000D01*
X121980000Y-118670000D02*
X123290000Y-119980000D01*
X121980000Y-117570000D02*
X121980000Y-118670000D01*
X129220000Y-150050000D02*
X127970000Y-148800000D01*
X124380000Y-128600000D02*
X124380000Y-126070000D01*
X127970000Y-148800000D02*
X127970000Y-132190000D01*
X127970000Y-132190000D02*
X124380000Y-128600000D01*
X135690000Y-147280000D02*
X135690000Y-148850000D01*
X134490000Y-150050000D02*
X129220000Y-150050000D01*
X135690000Y-148850000D02*
X134490000Y-150050000D01*
X135690000Y-144740000D02*
X135690000Y-131520000D01*
X128790000Y-124620000D02*
X126630000Y-124620000D01*
X135690000Y-131520000D02*
X128790000Y-124620000D01*
X155600000Y-132490000D02*
X155600000Y-134030000D01*
X155600000Y-134030000D02*
X149500000Y-140130000D01*
X149500000Y-140130000D02*
X142310000Y-140130000D01*
X138230000Y-144740000D02*
X138230000Y-138000000D01*
X138230000Y-138000000D02*
X137720000Y-137490000D01*
X133430000Y-133200000D02*
X128690000Y-128460000D01*
X126300000Y-126070000D02*
X128690000Y-128460000D01*
X125180000Y-126070000D02*
X126300000Y-126070000D01*
X153120000Y-145520000D02*
X156510000Y-145520000D01*
X156510000Y-145520000D02*
X158130000Y-143900000D01*
X126630000Y-119020000D02*
X130470000Y-119020000D01*
X130470000Y-119020000D02*
X140590000Y-129140000D01*
X140590000Y-129140000D02*
X156660000Y-129140000D01*
X158130000Y-130610000D02*
X156660000Y-129140000D01*
X158130000Y-143900000D02*
X158130000Y-130610000D01*
X126630000Y-119820000D02*
X128580000Y-119820000D01*
X128580000Y-119820000D02*
X128900000Y-119820000D01*
X128900000Y-119820000D02*
X130320000Y-121240000D01*
X145510000Y-101490000D02*
X145510000Y-90980000D01*
X175370000Y-61120000D02*
X180080000Y-61120000D01*
X145510000Y-90980000D02*
X175370000Y-61120000D01*
X122780000Y-131840000D02*
X125510000Y-134570000D01*
X122780000Y-126070000D02*
X122780000Y-131840000D01*
X137800000Y-123980000D02*
X138400000Y-123380000D01*
X138400000Y-123380000D02*
X138400000Y-117150000D01*
X137300000Y-116050000D02*
X135710000Y-116050000D01*
X138400000Y-117150000D02*
X137300000Y-116050000D01*
X123580000Y-126070000D02*
X123580000Y-130270000D01*
X123580000Y-130270000D02*
X125120000Y-131810000D01*
X121980000Y-126070000D02*
X121980000Y-133300000D01*
X121980000Y-133300000D02*
X125760000Y-137080000D01*
X147850000Y-124610000D02*
X149150000Y-124610000D01*
X149150000Y-124610000D02*
X150510000Y-124610000D01*
X150510000Y-124610000D02*
X160220000Y-114900000D01*
X160220000Y-114900000D02*
X160220000Y-97680000D01*
X173870000Y-86740000D02*
X176200000Y-86740000D01*
X176200000Y-86740000D02*
X178700000Y-84240000D01*
X178700000Y-84240000D02*
X183160000Y-84240000D01*
X183450000Y-84530000D02*
X183450000Y-86730000D01*
X183160000Y-84240000D02*
X183450000Y-84530000D01*
X180910000Y-87750000D02*
X178790000Y-87750000D01*
X177260000Y-89280000D02*
X173870000Y-89280000D01*
X178790000Y-87750000D02*
X177260000Y-89280000D01*
X187960000Y-68515000D02*
X187960000Y-72280000D01*
X187960000Y-72280000D02*
X182560000Y-77680000D01*
X182560000Y-77680000D02*
X178070000Y-77680000D01*
X178070000Y-77680000D02*
X141190000Y-114560000D01*
X141190000Y-114560000D02*
X141190000Y-116350000D01*
X125180000Y-117570000D02*
X131970000Y-117570000D01*
X131970000Y-117570000D02*
X132000000Y-117600000D01*
X123280000Y-137490000D02*
X123270000Y-137500000D01*
X117350000Y-115660000D02*
X118890000Y-115660000D01*
X119580000Y-116350000D02*
X119580000Y-117570000D01*
X118890000Y-115660000D02*
X119580000Y-116350000D01*
X120710000Y-137480000D02*
X120730000Y-137500000D01*
X121180000Y-126070000D02*
X121180000Y-131860000D01*
X120730000Y-132310000D02*
X120730000Y-137500000D01*
X121180000Y-131860000D02*
X120730000Y-132310000D01*
X118190000Y-137500000D02*
X118190000Y-133360000D01*
X120380000Y-131170000D02*
X120380000Y-126070000D01*
X118190000Y-133360000D02*
X120380000Y-131170000D01*
X119580000Y-126070000D02*
X119530000Y-126070000D01*
X119580000Y-126070000D02*
X119580000Y-129690000D01*
X115650000Y-133620000D02*
X115650000Y-137500000D01*
X119580000Y-129690000D02*
X115650000Y-133620000D01*
X113120000Y-137490000D02*
X113110000Y-137500000D01*
X118110000Y-119840000D02*
X118130000Y-119820000D01*
X115880000Y-119840000D02*
X118110000Y-119840000D01*
X115690000Y-117100000D02*
X117190000Y-117100000D01*
X118130000Y-118040000D02*
X118130000Y-119020000D01*
X117190000Y-117100000D02*
X118130000Y-118040000D01*
D31*
G36*
X178343316Y-53438785D02*
G01*
X178176023Y-53842665D01*
X178090738Y-54271422D01*
X178090738Y-54708578D01*
X178176023Y-55137335D01*
X178343316Y-55541215D01*
X178586187Y-55904697D01*
X178895303Y-56213813D01*
X179258785Y-56456684D01*
X179662665Y-56623977D01*
X180091422Y-56709262D01*
X180528578Y-56709262D01*
X180957335Y-56623977D01*
X181361215Y-56456684D01*
X181724697Y-56213813D01*
X182033813Y-55904697D01*
X182276684Y-55541215D01*
X182443977Y-55137335D01*
X182529262Y-54708578D01*
X182529262Y-54271422D01*
X182443977Y-53842665D01*
X182276684Y-53438785D01*
X182197314Y-53320000D01*
X187204086Y-53320000D01*
X187003176Y-53520910D01*
X186651394Y-54047389D01*
X186409083Y-54632380D01*
X186285553Y-55253405D01*
X186285553Y-55886595D01*
X186409083Y-56507620D01*
X186651394Y-57092611D01*
X187003176Y-57619090D01*
X187450910Y-58066824D01*
X187977389Y-58418606D01*
X188562380Y-58660917D01*
X189183405Y-58784447D01*
X189816595Y-58784447D01*
X190437620Y-58660917D01*
X191022611Y-58418606D01*
X191549090Y-58066824D01*
X191890000Y-57725914D01*
X191890001Y-147224087D01*
X191559090Y-146893176D01*
X191032611Y-146541394D01*
X190447620Y-146299083D01*
X189826595Y-146175553D01*
X189193405Y-146175553D01*
X188572380Y-146299083D01*
X187987389Y-146541394D01*
X187460910Y-146893176D01*
X187013176Y-147340910D01*
X186661394Y-147867389D01*
X186419083Y-148452380D01*
X186295553Y-149073405D01*
X186295553Y-149706595D01*
X186419083Y-150327620D01*
X186661394Y-150912611D01*
X187013176Y-151439090D01*
X187204086Y-151630000D01*
X169652083Y-151630000D01*
X169727645Y-151516913D01*
X169932447Y-151022477D01*
X170036854Y-150497587D01*
X170036854Y-149962413D01*
X169932447Y-149437523D01*
X169727645Y-148943087D01*
X169430319Y-148498106D01*
X169051894Y-148119681D01*
X168606913Y-147822355D01*
X168112477Y-147617553D01*
X167587587Y-147513146D01*
X167052413Y-147513146D01*
X166527523Y-147617553D01*
X166033087Y-147822355D01*
X165588106Y-148119681D01*
X165209681Y-148498106D01*
X164912355Y-148943087D01*
X164707553Y-149437523D01*
X164603146Y-149962413D01*
X164603146Y-150497587D01*
X164707553Y-151022477D01*
X164912355Y-151516913D01*
X164987917Y-151630000D01*
X141884365Y-151630000D01*
X141948233Y-151595862D01*
X142067764Y-151497764D01*
X142092347Y-151467810D01*
X144650157Y-148910000D01*
X151631928Y-148910000D01*
X151644188Y-149034482D01*
X151680498Y-149154180D01*
X151739463Y-149264494D01*
X151818815Y-149361185D01*
X151915506Y-149440537D01*
X152025820Y-149499502D01*
X152145518Y-149535812D01*
X152270000Y-149548072D01*
X152834250Y-149545000D01*
X152993000Y-149386250D01*
X152993000Y-148187000D01*
X153247000Y-148187000D01*
X153247000Y-149386250D01*
X153405750Y-149545000D01*
X153970000Y-149548072D01*
X154094482Y-149535812D01*
X154214180Y-149499502D01*
X154324494Y-149440537D01*
X154421185Y-149361185D01*
X154500537Y-149264494D01*
X154559502Y-149154180D01*
X154595812Y-149034482D01*
X154608072Y-148910000D01*
X154605000Y-148345750D01*
X154446250Y-148187000D01*
X153247000Y-148187000D01*
X152993000Y-148187000D01*
X151793750Y-148187000D01*
X151635000Y-148345750D01*
X151631928Y-148910000D01*
X144650157Y-148910000D01*
X149795158Y-143765000D01*
X151858526Y-143765000D01*
X151966525Y-143926632D01*
X152173368Y-144133475D01*
X152347760Y-144250000D01*
X152173368Y-144366525D01*
X151966525Y-144573368D01*
X151804010Y-144816589D01*
X151692068Y-145086842D01*
X151635000Y-145373740D01*
X151635000Y-145666260D01*
X151692068Y-145953158D01*
X151804010Y-146223411D01*
X151966525Y-146466632D01*
X152098380Y-146598487D01*
X152025820Y-146620498D01*
X151915506Y-146679463D01*
X151818815Y-146758815D01*
X151739463Y-146855506D01*
X151680498Y-146965820D01*
X151644188Y-147085518D01*
X151631928Y-147210000D01*
X151635000Y-147774250D01*
X151793750Y-147933000D01*
X152993000Y-147933000D01*
X152993000Y-147913000D01*
X153247000Y-147913000D01*
X153247000Y-147933000D01*
X154446250Y-147933000D01*
X154605000Y-147774250D01*
X154608072Y-147210000D01*
X154595812Y-147085518D01*
X154559502Y-146965820D01*
X154500537Y-146855506D01*
X154421185Y-146758815D01*
X154324494Y-146679463D01*
X154214180Y-146620498D01*
X154141620Y-146598487D01*
X154273475Y-146466632D01*
X154381474Y-146305000D01*
X156471447Y-146305000D01*
X156510000Y-146308797D01*
X156548553Y-146305000D01*
X156548561Y-146305000D01*
X156663887Y-146293641D01*
X156811860Y-146248754D01*
X156948233Y-146175862D01*
X157067764Y-146077764D01*
X157092347Y-146047810D01*
X158657817Y-144482341D01*
X158687764Y-144457764D01*
X158785862Y-144338233D01*
X158858754Y-144201860D01*
X158860678Y-144195518D01*
X158903642Y-144053887D01*
X158912346Y-143965506D01*
X158915000Y-143938561D01*
X158915000Y-143938556D01*
X158918797Y-143900000D01*
X158915000Y-143861445D01*
X158915000Y-140292413D01*
X164603146Y-140292413D01*
X164603146Y-140827587D01*
X164707553Y-141352477D01*
X164912355Y-141846913D01*
X165209681Y-142291894D01*
X165588106Y-142670319D01*
X166033087Y-142967645D01*
X166527523Y-143172447D01*
X167052413Y-143276854D01*
X167587587Y-143276854D01*
X168112477Y-143172447D01*
X168606913Y-142967645D01*
X169051894Y-142670319D01*
X169430319Y-142291894D01*
X169727645Y-141846913D01*
X169932447Y-141352477D01*
X170036854Y-140827587D01*
X170036854Y-140292413D01*
X169932447Y-139767523D01*
X169727645Y-139273087D01*
X169430319Y-138828106D01*
X169051894Y-138449681D01*
X168606913Y-138152355D01*
X168112477Y-137947553D01*
X167587587Y-137843146D01*
X167052413Y-137843146D01*
X166527523Y-137947553D01*
X166033087Y-138152355D01*
X165588106Y-138449681D01*
X165209681Y-138828106D01*
X164912355Y-139273087D01*
X164707553Y-139767523D01*
X164603146Y-140292413D01*
X158915000Y-140292413D01*
X158915000Y-134632413D01*
X183633146Y-134632413D01*
X183633146Y-135167587D01*
X183737553Y-135692477D01*
X183942355Y-136186913D01*
X184239681Y-136631894D01*
X184618106Y-137010319D01*
X185063087Y-137307645D01*
X185557523Y-137512447D01*
X186082413Y-137616854D01*
X186617587Y-137616854D01*
X187142477Y-137512447D01*
X187636913Y-137307645D01*
X188081894Y-137010319D01*
X188460319Y-136631894D01*
X188757645Y-136186913D01*
X188962447Y-135692477D01*
X189066854Y-135167587D01*
X189066854Y-134632413D01*
X188962447Y-134107523D01*
X188757645Y-133613087D01*
X188460319Y-133168106D01*
X188081894Y-132789681D01*
X187636913Y-132492355D01*
X187142477Y-132287553D01*
X186617587Y-132183146D01*
X186082413Y-132183146D01*
X185557523Y-132287553D01*
X185063087Y-132492355D01*
X184618106Y-132789681D01*
X184239681Y-133168106D01*
X183942355Y-133613087D01*
X183737553Y-134107523D01*
X183633146Y-134632413D01*
X158915000Y-134632413D01*
X158915000Y-130648555D01*
X158918797Y-130610000D01*
X158915000Y-130571444D01*
X158915000Y-130571439D01*
X158909356Y-130514139D01*
X158903642Y-130456113D01*
X158858754Y-130308140D01*
X158838368Y-130270000D01*
X158785862Y-130171767D01*
X158687764Y-130052236D01*
X158657816Y-130027658D01*
X157242347Y-128612190D01*
X157217764Y-128582236D01*
X157098233Y-128484138D01*
X156961860Y-128411246D01*
X156813887Y-128366359D01*
X156698561Y-128355000D01*
X156698553Y-128355000D01*
X156660000Y-128351203D01*
X156621447Y-128355000D01*
X140915158Y-128355000D01*
X137775158Y-125215000D01*
X137921637Y-125215000D01*
X138160236Y-125167540D01*
X138384992Y-125074443D01*
X138587267Y-124939287D01*
X138759287Y-124767267D01*
X138894443Y-124564992D01*
X138987540Y-124340236D01*
X139035000Y-124101637D01*
X139035000Y-123858363D01*
X139032645Y-123846523D01*
X139055862Y-123818233D01*
X139128754Y-123681860D01*
X139147591Y-123619764D01*
X139173641Y-123533888D01*
X139175446Y-123515557D01*
X139185000Y-123418561D01*
X139185000Y-123418554D01*
X139188797Y-123380001D01*
X139185000Y-123341448D01*
X139185000Y-117188555D01*
X139188797Y-117150000D01*
X139185000Y-117111444D01*
X139185000Y-117111439D01*
X139176370Y-117023815D01*
X139173642Y-116996113D01*
X139128754Y-116848140D01*
X139115659Y-116823641D01*
X139055862Y-116711767D01*
X138957764Y-116592236D01*
X138927815Y-116567658D01*
X138588520Y-116228363D01*
X139955000Y-116228363D01*
X139955000Y-116471637D01*
X140002460Y-116710236D01*
X140095557Y-116934992D01*
X140230713Y-117137267D01*
X140402733Y-117309287D01*
X140605008Y-117444443D01*
X140829764Y-117537540D01*
X141068363Y-117585000D01*
X141311637Y-117585000D01*
X141550236Y-117537540D01*
X141774992Y-117444443D01*
X141977267Y-117309287D01*
X142149287Y-117137267D01*
X142284443Y-116934992D01*
X142377540Y-116710236D01*
X142425000Y-116471637D01*
X142425000Y-116228363D01*
X142377540Y-115989764D01*
X142284443Y-115765008D01*
X142149287Y-115562733D01*
X141977267Y-115390713D01*
X141975000Y-115389198D01*
X141975000Y-114885157D01*
X158997198Y-97862960D01*
X159032460Y-98040236D01*
X159125557Y-98264992D01*
X159260713Y-98467267D01*
X159432733Y-98639287D01*
X159435001Y-98640802D01*
X159435000Y-114574843D01*
X150184843Y-123825000D01*
X148810802Y-123825000D01*
X148809287Y-123822733D01*
X148637267Y-123650713D01*
X148434992Y-123515557D01*
X148210236Y-123422460D01*
X147971637Y-123375000D01*
X147728363Y-123375000D01*
X147489764Y-123422460D01*
X147265008Y-123515557D01*
X147062733Y-123650713D01*
X146890713Y-123822733D01*
X146755557Y-124025008D01*
X146662460Y-124249764D01*
X146615000Y-124488363D01*
X146615000Y-124731637D01*
X146662460Y-124970236D01*
X146755557Y-125194992D01*
X146890713Y-125397267D01*
X147062733Y-125569287D01*
X147265008Y-125704443D01*
X147489764Y-125797540D01*
X147728363Y-125845000D01*
X147971637Y-125845000D01*
X148210236Y-125797540D01*
X148434992Y-125704443D01*
X148637267Y-125569287D01*
X148809287Y-125397267D01*
X148810802Y-125395000D01*
X150471447Y-125395000D01*
X150510000Y-125398797D01*
X150548553Y-125395000D01*
X150548561Y-125395000D01*
X150663887Y-125383641D01*
X150811860Y-125338754D01*
X150948233Y-125265862D01*
X151067764Y-125167764D01*
X151092347Y-125137810D01*
X160747811Y-115482346D01*
X160777764Y-115457764D01*
X160875862Y-115338233D01*
X160948754Y-115201860D01*
X160955007Y-115181246D01*
X160993642Y-115053887D01*
X161003727Y-114951481D01*
X161005000Y-114938561D01*
X161005000Y-114938556D01*
X161008797Y-114900000D01*
X161005000Y-114861444D01*
X161005000Y-105892413D01*
X183633146Y-105892413D01*
X183633146Y-106427587D01*
X183737553Y-106952477D01*
X183942355Y-107446913D01*
X184239681Y-107891894D01*
X184618106Y-108270319D01*
X185063087Y-108567645D01*
X185557523Y-108772447D01*
X186082413Y-108876854D01*
X186617587Y-108876854D01*
X187142477Y-108772447D01*
X187636913Y-108567645D01*
X188081894Y-108270319D01*
X188460319Y-107891894D01*
X188757645Y-107446913D01*
X188962447Y-106952477D01*
X189066854Y-106427587D01*
X189066854Y-105892413D01*
X188962447Y-105367523D01*
X188757645Y-104873087D01*
X188460319Y-104428106D01*
X188081894Y-104049681D01*
X187636913Y-103752355D01*
X187142477Y-103547553D01*
X186617587Y-103443146D01*
X186082413Y-103443146D01*
X185557523Y-103547553D01*
X185063087Y-103752355D01*
X184618106Y-104049681D01*
X184239681Y-104428106D01*
X183942355Y-104873087D01*
X183737553Y-105367523D01*
X183633146Y-105892413D01*
X161005000Y-105892413D01*
X161005000Y-99302413D01*
X165233146Y-99302413D01*
X165233146Y-99837587D01*
X165337553Y-100362477D01*
X165542355Y-100856913D01*
X165839681Y-101301894D01*
X166218106Y-101680319D01*
X166663087Y-101977645D01*
X167157523Y-102182447D01*
X167682413Y-102286854D01*
X168217587Y-102286854D01*
X168742477Y-102182447D01*
X169236913Y-101977645D01*
X169681894Y-101680319D01*
X170060319Y-101301894D01*
X170357645Y-100856913D01*
X170562447Y-100362477D01*
X170666854Y-99837587D01*
X170666854Y-99302413D01*
X170562447Y-98777523D01*
X170357645Y-98283087D01*
X170060319Y-97838106D01*
X169681894Y-97459681D01*
X169236913Y-97162355D01*
X168742477Y-96957553D01*
X168217587Y-96853146D01*
X167682413Y-96853146D01*
X167157523Y-96957553D01*
X166663087Y-97162355D01*
X166218106Y-97459681D01*
X165839681Y-97838106D01*
X165542355Y-98283087D01*
X165337553Y-98777523D01*
X165233146Y-99302413D01*
X161005000Y-99302413D01*
X161005000Y-98640802D01*
X161007267Y-98639287D01*
X161179287Y-98467267D01*
X161314443Y-98264992D01*
X161407540Y-98040236D01*
X161455000Y-97801637D01*
X161455000Y-97558363D01*
X161407540Y-97319764D01*
X161314443Y-97095008D01*
X161179287Y-96892733D01*
X161007267Y-96720713D01*
X160804992Y-96585557D01*
X160580236Y-96492460D01*
X160402960Y-96457198D01*
X162775965Y-94084193D01*
X183965000Y-94084193D01*
X183965000Y-94435807D01*
X184033596Y-94780665D01*
X184168153Y-95105515D01*
X184363500Y-95397871D01*
X184612129Y-95646500D01*
X184904485Y-95841847D01*
X185229335Y-95976404D01*
X185574193Y-96045000D01*
X185925807Y-96045000D01*
X186270665Y-95976404D01*
X186595515Y-95841847D01*
X186887871Y-95646500D01*
X187136500Y-95397871D01*
X187331847Y-95105515D01*
X187466404Y-94780665D01*
X187535000Y-94435807D01*
X187535000Y-94084193D01*
X187466404Y-93739335D01*
X187331847Y-93414485D01*
X187136500Y-93122129D01*
X186887871Y-92873500D01*
X186595515Y-92678153D01*
X186270665Y-92543596D01*
X185925807Y-92475000D01*
X185574193Y-92475000D01*
X185229335Y-92543596D01*
X184904485Y-92678153D01*
X184612129Y-92873500D01*
X184363500Y-93122129D01*
X184168153Y-93414485D01*
X184033596Y-93739335D01*
X183965000Y-94084193D01*
X162775965Y-94084193D01*
X168430158Y-88430000D01*
X172381928Y-88430000D01*
X172381928Y-90130000D01*
X172394188Y-90254482D01*
X172430498Y-90374180D01*
X172489463Y-90484494D01*
X172568815Y-90581185D01*
X172665506Y-90660537D01*
X172775820Y-90719502D01*
X172895518Y-90755812D01*
X173020000Y-90768072D01*
X174720000Y-90768072D01*
X174844482Y-90755812D01*
X174964180Y-90719502D01*
X175074494Y-90660537D01*
X175171185Y-90581185D01*
X175250537Y-90484494D01*
X175309502Y-90374180D01*
X175345812Y-90254482D01*
X175358072Y-90130000D01*
X175358072Y-90065000D01*
X177221447Y-90065000D01*
X177260000Y-90068797D01*
X177298553Y-90065000D01*
X177298561Y-90065000D01*
X177413887Y-90053641D01*
X177561860Y-90008754D01*
X177698233Y-89935862D01*
X177817764Y-89837764D01*
X177842347Y-89807810D01*
X179115157Y-88535000D01*
X179768796Y-88535000D01*
X179834201Y-88632886D01*
X179971315Y-88770000D01*
X179834201Y-88907114D01*
X179682629Y-89133957D01*
X179578225Y-89386011D01*
X179525000Y-89653589D01*
X179525000Y-89926411D01*
X179578225Y-90193989D01*
X179682629Y-90446043D01*
X179834201Y-90672886D01*
X180027114Y-90865799D01*
X180253957Y-91017371D01*
X180506011Y-91121775D01*
X180773589Y-91175000D01*
X181046411Y-91175000D01*
X181313989Y-91121775D01*
X181566043Y-91017371D01*
X181792886Y-90865799D01*
X181985799Y-90672886D01*
X182137371Y-90446043D01*
X182241775Y-90193989D01*
X182295000Y-89926411D01*
X182295000Y-89726993D01*
X182672612Y-89726993D01*
X182738137Y-89965860D01*
X182985116Y-90081760D01*
X183249960Y-90147250D01*
X183522492Y-90159812D01*
X183792238Y-90118965D01*
X184048832Y-90026277D01*
X184161863Y-89965860D01*
X184227388Y-89726993D01*
X183450000Y-88949605D01*
X182672612Y-89726993D01*
X182295000Y-89726993D01*
X182295000Y-89653589D01*
X182261228Y-89483807D01*
X182493007Y-89547388D01*
X183270395Y-88770000D01*
X183256253Y-88755858D01*
X183435858Y-88576253D01*
X183450000Y-88590395D01*
X183464143Y-88576253D01*
X183643748Y-88755858D01*
X183629605Y-88770000D01*
X184406993Y-89547388D01*
X184645860Y-89481863D01*
X184761760Y-89234884D01*
X184827250Y-88970040D01*
X184839812Y-88697508D01*
X184798965Y-88427762D01*
X184706277Y-88171168D01*
X184645860Y-88058137D01*
X184526631Y-88025431D01*
X184554494Y-88010537D01*
X184651185Y-87931185D01*
X184730537Y-87834494D01*
X184789502Y-87724180D01*
X184825812Y-87604482D01*
X184838072Y-87480000D01*
X184838072Y-85980000D01*
X184825812Y-85855518D01*
X184789502Y-85735820D01*
X184730537Y-85625506D01*
X184651185Y-85528815D01*
X184554494Y-85449463D01*
X184444180Y-85390498D01*
X184324482Y-85354188D01*
X184235000Y-85345375D01*
X184235000Y-84568555D01*
X184238797Y-84530000D01*
X184235000Y-84491440D01*
X184235000Y-84491439D01*
X184225392Y-84393886D01*
X184223642Y-84376113D01*
X184189201Y-84262581D01*
X184178754Y-84228140D01*
X184105862Y-84091767D01*
X184007764Y-83972236D01*
X183977811Y-83947654D01*
X183742347Y-83712190D01*
X183717764Y-83682236D01*
X183598233Y-83584138D01*
X183461860Y-83511246D01*
X183313887Y-83466359D01*
X183198561Y-83455000D01*
X183198553Y-83455000D01*
X183160000Y-83451203D01*
X183121447Y-83455000D01*
X178738556Y-83455000D01*
X178700000Y-83451203D01*
X178661444Y-83455000D01*
X178661439Y-83455000D01*
X178621026Y-83458980D01*
X178546113Y-83466358D01*
X178398140Y-83511246D01*
X178261767Y-83584138D01*
X178201559Y-83633550D01*
X178172187Y-83657655D01*
X178172184Y-83657658D01*
X178142236Y-83682236D01*
X178117658Y-83712184D01*
X175874843Y-85955000D01*
X175131474Y-85955000D01*
X175023475Y-85793368D01*
X174816632Y-85586525D01*
X174573411Y-85424010D01*
X174303158Y-85312068D01*
X174016260Y-85255000D01*
X173723740Y-85255000D01*
X173436842Y-85312068D01*
X173166589Y-85424010D01*
X172923368Y-85586525D01*
X172716525Y-85793368D01*
X172554010Y-86036589D01*
X172442068Y-86306842D01*
X172385000Y-86593740D01*
X172385000Y-86886260D01*
X172442068Y-87173158D01*
X172554010Y-87443411D01*
X172716525Y-87686632D01*
X172848380Y-87818487D01*
X172775820Y-87840498D01*
X172665506Y-87899463D01*
X172568815Y-87978815D01*
X172489463Y-88075506D01*
X172430498Y-88185820D01*
X172394188Y-88305518D01*
X172381928Y-88430000D01*
X168430158Y-88430000D01*
X174775965Y-82084193D01*
X183965000Y-82084193D01*
X183965000Y-82435807D01*
X184033596Y-82780665D01*
X184168153Y-83105515D01*
X184363500Y-83397871D01*
X184612129Y-83646500D01*
X184904485Y-83841847D01*
X185229335Y-83976404D01*
X185574193Y-84045000D01*
X185925807Y-84045000D01*
X186270665Y-83976404D01*
X186595515Y-83841847D01*
X186887871Y-83646500D01*
X187136500Y-83397871D01*
X187331847Y-83105515D01*
X187466404Y-82780665D01*
X187535000Y-82435807D01*
X187535000Y-82084193D01*
X187466404Y-81739335D01*
X187331847Y-81414485D01*
X187136500Y-81122129D01*
X186887871Y-80873500D01*
X186595515Y-80678153D01*
X186270665Y-80543596D01*
X185925807Y-80475000D01*
X185574193Y-80475000D01*
X185229335Y-80543596D01*
X184904485Y-80678153D01*
X184612129Y-80873500D01*
X184363500Y-81122129D01*
X184168153Y-81414485D01*
X184033596Y-81739335D01*
X183965000Y-82084193D01*
X174775965Y-82084193D01*
X178395158Y-78465000D01*
X182521447Y-78465000D01*
X182560000Y-78468797D01*
X182598553Y-78465000D01*
X182598561Y-78465000D01*
X182713887Y-78453641D01*
X182861860Y-78408754D01*
X182998233Y-78335862D01*
X183117764Y-78237764D01*
X183142347Y-78207810D01*
X188487816Y-72862342D01*
X188517764Y-72837764D01*
X188615862Y-72718233D01*
X188688754Y-72581860D01*
X188733641Y-72433887D01*
X188745000Y-72318561D01*
X188745000Y-72318554D01*
X188748797Y-72280001D01*
X188745000Y-72241448D01*
X188745000Y-69480403D01*
X188816623Y-69421623D01*
X188925512Y-69288942D01*
X189006423Y-69137567D01*
X189056248Y-68973316D01*
X189073072Y-68802500D01*
X189073072Y-68227500D01*
X189056248Y-68056684D01*
X189006423Y-67892433D01*
X188925512Y-67741058D01*
X188842575Y-67640000D01*
X188925512Y-67538942D01*
X189006423Y-67387567D01*
X189056248Y-67223316D01*
X189073072Y-67052500D01*
X189073072Y-66477500D01*
X189056248Y-66306684D01*
X189006423Y-66142433D01*
X188925512Y-65991058D01*
X188816623Y-65858377D01*
X188735000Y-65791390D01*
X188735000Y-64281608D01*
X188928505Y-64152312D01*
X189142312Y-63938505D01*
X189310299Y-63687095D01*
X189426011Y-63407743D01*
X189485000Y-63111184D01*
X189485000Y-62808816D01*
X189426011Y-62512257D01*
X189310299Y-62232905D01*
X189142312Y-61981495D01*
X189075873Y-61915056D01*
X189094180Y-61909502D01*
X189204494Y-61850537D01*
X189301185Y-61771185D01*
X189380537Y-61674494D01*
X189439502Y-61564180D01*
X189475812Y-61444482D01*
X189488072Y-61320000D01*
X189485000Y-60705750D01*
X189326250Y-60547000D01*
X188077000Y-60547000D01*
X188077000Y-60567000D01*
X187823000Y-60567000D01*
X187823000Y-60547000D01*
X186573750Y-60547000D01*
X186415000Y-60705750D01*
X186411928Y-61320000D01*
X186424188Y-61444482D01*
X186460498Y-61564180D01*
X186519463Y-61674494D01*
X186598815Y-61771185D01*
X186695506Y-61850537D01*
X186805820Y-61909502D01*
X186824127Y-61915056D01*
X186757688Y-61981495D01*
X186589701Y-62232905D01*
X186473989Y-62512257D01*
X186415000Y-62808816D01*
X186415000Y-63111184D01*
X186473989Y-63407743D01*
X186589701Y-63687095D01*
X186757688Y-63938505D01*
X186971495Y-64152312D01*
X187165000Y-64281608D01*
X187165001Y-65807803D01*
X187103377Y-65858377D01*
X186994488Y-65991058D01*
X186913577Y-66142433D01*
X186863752Y-66306684D01*
X186846928Y-66477500D01*
X186846928Y-67052500D01*
X186863752Y-67223316D01*
X186913577Y-67387567D01*
X186994488Y-67538942D01*
X187077425Y-67640000D01*
X186994488Y-67741058D01*
X186913577Y-67892433D01*
X186863752Y-68056684D01*
X186846928Y-68227500D01*
X186846928Y-68802500D01*
X186863752Y-68973316D01*
X186913577Y-69137567D01*
X186994488Y-69288942D01*
X187103377Y-69421623D01*
X187175000Y-69480403D01*
X187175001Y-71954841D01*
X182234843Y-76895000D01*
X178108552Y-76895000D01*
X178069999Y-76891203D01*
X178031446Y-76895000D01*
X178031439Y-76895000D01*
X177930490Y-76904943D01*
X177916112Y-76906359D01*
X177768140Y-76951246D01*
X177631767Y-77024138D01*
X177579317Y-77067183D01*
X177542187Y-77097655D01*
X177542184Y-77097658D01*
X177512236Y-77122236D01*
X177487658Y-77152184D01*
X140662190Y-113977653D01*
X140632236Y-114002236D01*
X140534138Y-114121768D01*
X140461246Y-114258141D01*
X140416359Y-114406114D01*
X140405000Y-114521440D01*
X140405000Y-114521447D01*
X140401203Y-114560000D01*
X140405000Y-114598553D01*
X140405000Y-115389198D01*
X140402733Y-115390713D01*
X140230713Y-115562733D01*
X140095557Y-115765008D01*
X140002460Y-115989764D01*
X139955000Y-116228363D01*
X138588520Y-116228363D01*
X137882347Y-115522190D01*
X137857764Y-115492236D01*
X137738233Y-115394138D01*
X137601860Y-115321246D01*
X137453887Y-115276359D01*
X137338561Y-115265000D01*
X137338553Y-115265000D01*
X137300000Y-115261203D01*
X137261447Y-115265000D01*
X136971474Y-115265000D01*
X136863475Y-115103368D01*
X136656632Y-114896525D01*
X136474466Y-114774805D01*
X136591355Y-114705178D01*
X136807588Y-114510269D01*
X136981641Y-114276920D01*
X137106825Y-114014099D01*
X137151476Y-113866890D01*
X137030155Y-113637000D01*
X135837000Y-113637000D01*
X135837000Y-113657000D01*
X135583000Y-113657000D01*
X135583000Y-113637000D01*
X134389845Y-113637000D01*
X134268524Y-113866890D01*
X134313175Y-114014099D01*
X134438359Y-114276920D01*
X134612412Y-114510269D01*
X134828645Y-114705178D01*
X134945534Y-114774805D01*
X134763368Y-114896525D01*
X134556525Y-115103368D01*
X134394010Y-115346589D01*
X134282068Y-115616842D01*
X134225000Y-115903740D01*
X134225000Y-116196260D01*
X134282068Y-116483158D01*
X134394010Y-116753411D01*
X134556525Y-116996632D01*
X134763368Y-117203475D01*
X135006589Y-117365990D01*
X135276842Y-117477932D01*
X135563740Y-117535000D01*
X135856260Y-117535000D01*
X136143158Y-117477932D01*
X136413411Y-117365990D01*
X136656632Y-117203475D01*
X136863475Y-116996632D01*
X136971474Y-116835000D01*
X136974843Y-116835000D01*
X137615001Y-117475159D01*
X137615000Y-122757604D01*
X137439764Y-122792460D01*
X137215008Y-122885557D01*
X137012733Y-123020713D01*
X136840713Y-123192733D01*
X136705557Y-123395008D01*
X136612460Y-123619764D01*
X136565000Y-123858363D01*
X136565000Y-124004842D01*
X131052347Y-118492190D01*
X131027764Y-118462236D01*
X130908233Y-118364138D01*
X130891137Y-118355000D01*
X131019153Y-118355000D01*
X131040713Y-118387267D01*
X131212733Y-118559287D01*
X131415008Y-118694443D01*
X131639764Y-118787540D01*
X131878363Y-118835000D01*
X132121637Y-118835000D01*
X132360236Y-118787540D01*
X132584992Y-118694443D01*
X132787267Y-118559287D01*
X132959287Y-118387267D01*
X133094443Y-118184992D01*
X133187540Y-117960236D01*
X133235000Y-117721637D01*
X133235000Y-117478363D01*
X133187540Y-117239764D01*
X133094443Y-117015008D01*
X132959287Y-116812733D01*
X132787267Y-116640713D01*
X132584992Y-116505557D01*
X132360236Y-116412460D01*
X132121637Y-116365000D01*
X131878363Y-116365000D01*
X131639764Y-116412460D01*
X131415008Y-116505557D01*
X131212733Y-116640713D01*
X131068446Y-116785000D01*
X126093072Y-116785000D01*
X126093072Y-116770000D01*
X126080812Y-116645518D01*
X126044502Y-116525820D01*
X125985537Y-116415506D01*
X125906185Y-116318815D01*
X125809494Y-116239463D01*
X125699180Y-116180498D01*
X125579482Y-116144188D01*
X125455000Y-116131928D01*
X124905000Y-116131928D01*
X124780518Y-116144188D01*
X124780000Y-116144345D01*
X124779482Y-116144188D01*
X124655000Y-116131928D01*
X124105000Y-116131928D01*
X123980518Y-116144188D01*
X123980000Y-116144345D01*
X123979482Y-116144188D01*
X123855000Y-116131928D01*
X123305000Y-116131928D01*
X123180518Y-116144188D01*
X123180000Y-116144345D01*
X123179482Y-116144188D01*
X123055000Y-116131928D01*
X122868229Y-116131928D01*
X126197816Y-112802342D01*
X126227764Y-112777764D01*
X126325862Y-112658233D01*
X126398754Y-112521860D01*
X126443641Y-112373887D01*
X126455000Y-112258561D01*
X126455000Y-112258554D01*
X126458797Y-112220001D01*
X126455000Y-112181448D01*
X126455000Y-112050403D01*
X126526623Y-111991623D01*
X126635512Y-111858942D01*
X126716423Y-111707567D01*
X126766248Y-111543316D01*
X126783072Y-111372500D01*
X126783072Y-110797500D01*
X126766248Y-110626684D01*
X126716423Y-110462433D01*
X126635512Y-110311058D01*
X126552575Y-110210000D01*
X126626437Y-110120000D01*
X129479843Y-110120000D01*
X130857658Y-111497816D01*
X130882236Y-111527764D01*
X130912184Y-111552342D01*
X130912187Y-111552345D01*
X130926558Y-111564139D01*
X131001767Y-111625862D01*
X131138140Y-111698754D01*
X131286112Y-111743641D01*
X131300490Y-111745057D01*
X131401439Y-111755000D01*
X131401446Y-111755000D01*
X131439999Y-111758797D01*
X131478552Y-111755000D01*
X134221928Y-111755000D01*
X134221928Y-111820000D01*
X134234188Y-111944482D01*
X134270498Y-112064180D01*
X134329463Y-112174494D01*
X134408815Y-112271185D01*
X134505506Y-112350537D01*
X134615820Y-112409502D01*
X134696466Y-112433966D01*
X134612412Y-112509731D01*
X134438359Y-112743080D01*
X134313175Y-113005901D01*
X134268524Y-113153110D01*
X134389845Y-113383000D01*
X135583000Y-113383000D01*
X135583000Y-113363000D01*
X135837000Y-113363000D01*
X135837000Y-113383000D01*
X137030155Y-113383000D01*
X137151476Y-113153110D01*
X137106825Y-113005901D01*
X136981641Y-112743080D01*
X136807588Y-112509731D01*
X136723534Y-112433966D01*
X136804180Y-112409502D01*
X136914494Y-112350537D01*
X137011185Y-112271185D01*
X137090537Y-112174494D01*
X137149502Y-112064180D01*
X137185812Y-111944482D01*
X137198072Y-111820000D01*
X137198072Y-110120000D01*
X137185812Y-109995518D01*
X137149502Y-109875820D01*
X137090537Y-109765506D01*
X137011185Y-109668815D01*
X136914494Y-109589463D01*
X136804180Y-109530498D01*
X136684482Y-109494188D01*
X136560000Y-109481928D01*
X134860000Y-109481928D01*
X134735518Y-109494188D01*
X134615820Y-109530498D01*
X134505506Y-109589463D01*
X134408815Y-109668815D01*
X134329463Y-109765506D01*
X134270498Y-109875820D01*
X134234188Y-109995518D01*
X134221928Y-110120000D01*
X134221928Y-110185000D01*
X131765158Y-110185000D01*
X130387347Y-108807190D01*
X130362764Y-108777236D01*
X130243233Y-108679138D01*
X130106860Y-108606246D01*
X129958887Y-108561359D01*
X129843561Y-108550000D01*
X129843553Y-108550000D01*
X129805000Y-108546203D01*
X129766447Y-108550000D01*
X126626437Y-108550000D01*
X126526623Y-108428377D01*
X126393942Y-108319488D01*
X126242567Y-108238577D01*
X126078316Y-108188752D01*
X125907500Y-108171928D01*
X125432500Y-108171928D01*
X125261684Y-108188752D01*
X125097433Y-108238577D01*
X124946058Y-108319488D01*
X124813377Y-108428377D01*
X124713563Y-108550000D01*
X123880158Y-108550000D01*
X121222571Y-105892413D01*
X138913146Y-105892413D01*
X138913146Y-106427587D01*
X139017553Y-106952477D01*
X139222355Y-107446913D01*
X139519681Y-107891894D01*
X139898106Y-108270319D01*
X140343087Y-108567645D01*
X140837523Y-108772447D01*
X141362413Y-108876854D01*
X141897587Y-108876854D01*
X142422477Y-108772447D01*
X142916913Y-108567645D01*
X143361894Y-108270319D01*
X143740319Y-107891894D01*
X144037645Y-107446913D01*
X144242447Y-106952477D01*
X144346854Y-106427587D01*
X144346854Y-105892413D01*
X144242447Y-105367523D01*
X144037645Y-104873087D01*
X143740319Y-104428106D01*
X143361894Y-104049681D01*
X142916913Y-103752355D01*
X142422477Y-103547553D01*
X141897587Y-103443146D01*
X141362413Y-103443146D01*
X140837523Y-103547553D01*
X140343087Y-103752355D01*
X139898106Y-104049681D01*
X139519681Y-104428106D01*
X139222355Y-104873087D01*
X139017553Y-105367523D01*
X138913146Y-105892413D01*
X121222571Y-105892413D01*
X115032507Y-99702349D01*
X120677256Y-99702349D01*
X120791118Y-99982090D01*
X121106296Y-100137961D01*
X121445826Y-100229349D01*
X121796661Y-100252741D01*
X122145319Y-100207240D01*
X122478400Y-100094594D01*
X122688882Y-99982090D01*
X122802744Y-99702349D01*
X121740000Y-98639605D01*
X120677256Y-99702349D01*
X115032507Y-99702349D01*
X113846819Y-98516661D01*
X119947259Y-98516661D01*
X119992760Y-98865319D01*
X120105406Y-99198400D01*
X120217910Y-99408882D01*
X120497651Y-99522744D01*
X121560395Y-98460000D01*
X121919605Y-98460000D01*
X122982349Y-99522744D01*
X123262090Y-99408882D01*
X123417961Y-99093704D01*
X123509349Y-98754174D01*
X123532741Y-98403339D01*
X123487240Y-98054681D01*
X123374594Y-97721600D01*
X123262090Y-97511118D01*
X122982349Y-97397256D01*
X121919605Y-98460000D01*
X121560395Y-98460000D01*
X120497651Y-97397256D01*
X120217910Y-97511118D01*
X120062039Y-97826296D01*
X119970651Y-98165826D01*
X119947259Y-98516661D01*
X113846819Y-98516661D01*
X113262347Y-97932190D01*
X113237764Y-97902236D01*
X113118233Y-97804138D01*
X112981860Y-97731246D01*
X112833887Y-97686359D01*
X112718561Y-97675000D01*
X112718553Y-97675000D01*
X112680000Y-97671203D01*
X112641447Y-97675000D01*
X107946913Y-97675000D01*
X107921847Y-97614485D01*
X107726500Y-97322129D01*
X107622022Y-97217651D01*
X120677256Y-97217651D01*
X121740000Y-98280395D01*
X122802744Y-97217651D01*
X122688882Y-96937910D01*
X122373704Y-96782039D01*
X122034174Y-96690651D01*
X121683339Y-96667259D01*
X121334681Y-96712760D01*
X121001600Y-96825406D01*
X120791118Y-96937910D01*
X120677256Y-97217651D01*
X107622022Y-97217651D01*
X107477871Y-97073500D01*
X107285318Y-96944840D01*
X107635158Y-96595000D01*
X130618526Y-96595000D01*
X130726525Y-96756632D01*
X130933368Y-96963475D01*
X131009850Y-97014579D01*
X130653087Y-97162355D01*
X130208106Y-97459681D01*
X129829681Y-97838106D01*
X129532355Y-98283087D01*
X129327553Y-98777523D01*
X129223146Y-99302413D01*
X129223146Y-99837587D01*
X129327553Y-100362477D01*
X129532355Y-100856913D01*
X129829681Y-101301894D01*
X130208106Y-101680319D01*
X130653087Y-101977645D01*
X131147523Y-102182447D01*
X131672413Y-102286854D01*
X132207587Y-102286854D01*
X132732477Y-102182447D01*
X133226913Y-101977645D01*
X133671894Y-101680319D01*
X134050319Y-101301894D01*
X134347645Y-100856913D01*
X134552447Y-100362477D01*
X134656854Y-99837587D01*
X134656854Y-99302413D01*
X134552447Y-98777523D01*
X134347645Y-98283087D01*
X134050319Y-97838106D01*
X133671894Y-97459681D01*
X133226913Y-97162355D01*
X132796072Y-96983895D01*
X132826632Y-96963475D01*
X133033475Y-96756632D01*
X133141474Y-96595000D01*
X136251447Y-96595000D01*
X136290000Y-96598797D01*
X136328553Y-96595000D01*
X136328561Y-96595000D01*
X136443887Y-96583641D01*
X136591860Y-96538754D01*
X136728233Y-96465862D01*
X136847764Y-96367764D01*
X136872347Y-96337810D01*
X173845158Y-59365000D01*
X178818526Y-59365000D01*
X178926525Y-59526632D01*
X179133368Y-59733475D01*
X179307760Y-59850000D01*
X179133368Y-59966525D01*
X178926525Y-60173368D01*
X178818526Y-60335000D01*
X175408555Y-60335000D01*
X175370000Y-60331203D01*
X175331444Y-60335000D01*
X175331439Y-60335000D01*
X175291026Y-60338980D01*
X175216113Y-60346358D01*
X175068140Y-60391246D01*
X174931767Y-60464138D01*
X174871559Y-60513550D01*
X174842187Y-60537655D01*
X174842184Y-60537658D01*
X174812236Y-60562236D01*
X174787658Y-60592184D01*
X144982185Y-90397658D01*
X144952237Y-90422236D01*
X144927659Y-90452184D01*
X144927655Y-90452188D01*
X144901142Y-90484494D01*
X144854139Y-90541767D01*
X144833070Y-90581185D01*
X144781246Y-90678141D01*
X144736359Y-90826114D01*
X144721203Y-90980000D01*
X144725001Y-91018563D01*
X144725000Y-100529198D01*
X144722733Y-100530713D01*
X144550713Y-100702733D01*
X144415557Y-100905008D01*
X144322460Y-101129764D01*
X144275000Y-101368363D01*
X144275000Y-101611637D01*
X144322460Y-101850236D01*
X144415557Y-102074992D01*
X144550713Y-102277267D01*
X144722733Y-102449287D01*
X144925008Y-102584443D01*
X145149764Y-102677540D01*
X145388363Y-102725000D01*
X145631637Y-102725000D01*
X145870236Y-102677540D01*
X146094992Y-102584443D01*
X146297267Y-102449287D01*
X146469287Y-102277267D01*
X146604443Y-102074992D01*
X146697540Y-101850236D01*
X146745000Y-101611637D01*
X146745000Y-101368363D01*
X146697540Y-101129764D01*
X146604443Y-100905008D01*
X146469287Y-100702733D01*
X146297267Y-100530713D01*
X146295000Y-100529198D01*
X146295000Y-91305157D01*
X161797744Y-75802413D01*
X165233146Y-75802413D01*
X165233146Y-76337587D01*
X165337553Y-76862477D01*
X165542355Y-77356913D01*
X165839681Y-77801894D01*
X166218106Y-78180319D01*
X166663087Y-78477645D01*
X167157523Y-78682447D01*
X167682413Y-78786854D01*
X168217587Y-78786854D01*
X168742477Y-78682447D01*
X169236913Y-78477645D01*
X169681894Y-78180319D01*
X170060319Y-77801894D01*
X170357645Y-77356913D01*
X170562447Y-76862477D01*
X170666854Y-76337587D01*
X170666854Y-75802413D01*
X170562447Y-75277523D01*
X170357645Y-74783087D01*
X170060319Y-74338106D01*
X169681894Y-73959681D01*
X169236913Y-73662355D01*
X168742477Y-73457553D01*
X168217587Y-73353146D01*
X167682413Y-73353146D01*
X167157523Y-73457553D01*
X166663087Y-73662355D01*
X166218106Y-73959681D01*
X165839681Y-74338106D01*
X165542355Y-74783087D01*
X165337553Y-75277523D01*
X165233146Y-75802413D01*
X161797744Y-75802413D01*
X166748735Y-70851422D01*
X178090738Y-70851422D01*
X178090738Y-71288578D01*
X178176023Y-71717335D01*
X178343316Y-72121215D01*
X178586187Y-72484697D01*
X178895303Y-72793813D01*
X179258785Y-73036684D01*
X179662665Y-73203977D01*
X180091422Y-73289262D01*
X180528578Y-73289262D01*
X180957335Y-73203977D01*
X181361215Y-73036684D01*
X181724697Y-72793813D01*
X182033813Y-72484697D01*
X182276684Y-72121215D01*
X182443977Y-71717335D01*
X182529262Y-71288578D01*
X182529262Y-70851422D01*
X182443977Y-70422665D01*
X182276684Y-70018785D01*
X182033813Y-69655303D01*
X181724697Y-69346187D01*
X181361215Y-69103316D01*
X180957335Y-68936023D01*
X180528578Y-68850738D01*
X180091422Y-68850738D01*
X179662665Y-68936023D01*
X179258785Y-69103316D01*
X178895303Y-69346187D01*
X178586187Y-69655303D01*
X178343316Y-70018785D01*
X178176023Y-70422665D01*
X178090738Y-70851422D01*
X166748735Y-70851422D01*
X170550157Y-67050000D01*
X178591928Y-67050000D01*
X178604188Y-67174482D01*
X178640498Y-67294180D01*
X178699463Y-67404494D01*
X178778815Y-67501185D01*
X178875506Y-67580537D01*
X178985820Y-67639502D01*
X179105518Y-67675812D01*
X179230000Y-67688072D01*
X179794250Y-67685000D01*
X179953000Y-67526250D01*
X179953000Y-66327000D01*
X180207000Y-66327000D01*
X180207000Y-67526250D01*
X180365750Y-67685000D01*
X180930000Y-67688072D01*
X181054482Y-67675812D01*
X181174180Y-67639502D01*
X181284494Y-67580537D01*
X181381185Y-67501185D01*
X181460537Y-67404494D01*
X181519502Y-67294180D01*
X181555812Y-67174482D01*
X181568072Y-67050000D01*
X181565000Y-66485750D01*
X181406250Y-66327000D01*
X180207000Y-66327000D01*
X179953000Y-66327000D01*
X178753750Y-66327000D01*
X178595000Y-66485750D01*
X178591928Y-67050000D01*
X170550157Y-67050000D01*
X172250157Y-65350000D01*
X178591928Y-65350000D01*
X178595000Y-65914250D01*
X178753750Y-66073000D01*
X179953000Y-66073000D01*
X179953000Y-63787000D01*
X180207000Y-63787000D01*
X180207000Y-66073000D01*
X181406250Y-66073000D01*
X181565000Y-65914250D01*
X181568072Y-65350000D01*
X181555812Y-65225518D01*
X181519502Y-65105820D01*
X181460537Y-64995506D01*
X181381185Y-64898815D01*
X181284494Y-64819463D01*
X181174180Y-64760498D01*
X181093534Y-64736034D01*
X181177588Y-64660269D01*
X181351641Y-64426920D01*
X181476825Y-64164099D01*
X181521476Y-64016890D01*
X181400155Y-63787000D01*
X180207000Y-63787000D01*
X179953000Y-63787000D01*
X178759845Y-63787000D01*
X178638524Y-64016890D01*
X178683175Y-64164099D01*
X178808359Y-64426920D01*
X178982412Y-64660269D01*
X179066466Y-64736034D01*
X178985820Y-64760498D01*
X178875506Y-64819463D01*
X178778815Y-64898815D01*
X178699463Y-64995506D01*
X178640498Y-65105820D01*
X178604188Y-65225518D01*
X178591928Y-65350000D01*
X172250157Y-65350000D01*
X175695158Y-61905000D01*
X178818526Y-61905000D01*
X178926525Y-62066632D01*
X179133368Y-62273475D01*
X179315534Y-62395195D01*
X179198645Y-62464822D01*
X178982412Y-62659731D01*
X178808359Y-62893080D01*
X178683175Y-63155901D01*
X178638524Y-63303110D01*
X178759845Y-63533000D01*
X179953000Y-63533000D01*
X179953000Y-63513000D01*
X180207000Y-63513000D01*
X180207000Y-63533000D01*
X181400155Y-63533000D01*
X181521476Y-63303110D01*
X181476825Y-63155901D01*
X181351641Y-62893080D01*
X181177588Y-62659731D01*
X180961355Y-62464822D01*
X180844466Y-62395195D01*
X181026632Y-62273475D01*
X181233475Y-62066632D01*
X181395990Y-61823411D01*
X181507932Y-61553158D01*
X181565000Y-61266260D01*
X181565000Y-60973740D01*
X181507932Y-60686842D01*
X181395990Y-60416589D01*
X181233475Y-60173368D01*
X181026632Y-59966525D01*
X180852240Y-59850000D01*
X181026632Y-59733475D01*
X181233475Y-59526632D01*
X181237906Y-59520000D01*
X186411928Y-59520000D01*
X186415000Y-60134250D01*
X186573750Y-60293000D01*
X187823000Y-60293000D01*
X187823000Y-59043750D01*
X188077000Y-59043750D01*
X188077000Y-60293000D01*
X189326250Y-60293000D01*
X189485000Y-60134250D01*
X189488072Y-59520000D01*
X189475812Y-59395518D01*
X189439502Y-59275820D01*
X189380537Y-59165506D01*
X189301185Y-59068815D01*
X189204494Y-58989463D01*
X189094180Y-58930498D01*
X188974482Y-58894188D01*
X188850000Y-58881928D01*
X188235750Y-58885000D01*
X188077000Y-59043750D01*
X187823000Y-59043750D01*
X187664250Y-58885000D01*
X187050000Y-58881928D01*
X186925518Y-58894188D01*
X186805820Y-58930498D01*
X186695506Y-58989463D01*
X186598815Y-59068815D01*
X186519463Y-59165506D01*
X186460498Y-59275820D01*
X186424188Y-59395518D01*
X186411928Y-59520000D01*
X181237906Y-59520000D01*
X181395990Y-59283411D01*
X181507932Y-59013158D01*
X181565000Y-58726260D01*
X181565000Y-58433740D01*
X181507932Y-58146842D01*
X181395990Y-57876589D01*
X181233475Y-57633368D01*
X181026632Y-57426525D01*
X180783411Y-57264010D01*
X180513158Y-57152068D01*
X180226260Y-57095000D01*
X179933740Y-57095000D01*
X179646842Y-57152068D01*
X179376589Y-57264010D01*
X179133368Y-57426525D01*
X178926525Y-57633368D01*
X178818526Y-57795000D01*
X173558555Y-57795000D01*
X173520000Y-57791203D01*
X173481444Y-57795000D01*
X173481439Y-57795000D01*
X173441026Y-57798980D01*
X173366113Y-57806358D01*
X173218140Y-57851246D01*
X173081767Y-57924138D01*
X173021559Y-57973550D01*
X172992187Y-57997655D01*
X172992184Y-57997658D01*
X172962236Y-58022236D01*
X172937658Y-58052184D01*
X135964843Y-95025000D01*
X133141474Y-95025000D01*
X133033475Y-94863368D01*
X132826632Y-94656525D01*
X132644466Y-94534805D01*
X132761355Y-94465178D01*
X132977588Y-94270269D01*
X133151641Y-94036920D01*
X133276825Y-93774099D01*
X133321476Y-93626890D01*
X133200155Y-93397000D01*
X132007000Y-93397000D01*
X132007000Y-93417000D01*
X131753000Y-93417000D01*
X131753000Y-93397000D01*
X130559845Y-93397000D01*
X130438524Y-93626890D01*
X130483175Y-93774099D01*
X130608359Y-94036920D01*
X130782412Y-94270269D01*
X130998645Y-94465178D01*
X131115534Y-94534805D01*
X130933368Y-94656525D01*
X130726525Y-94863368D01*
X130618526Y-95025000D01*
X107348552Y-95025000D01*
X107309999Y-95021203D01*
X107271446Y-95025000D01*
X107271439Y-95025000D01*
X107170490Y-95034943D01*
X107156112Y-95036359D01*
X107008140Y-95081246D01*
X106871767Y-95154138D01*
X106811559Y-95203550D01*
X106782187Y-95227655D01*
X106782184Y-95227658D01*
X106752236Y-95252236D01*
X106727657Y-95282185D01*
X105812190Y-96197653D01*
X105782236Y-96222236D01*
X105684138Y-96341768D01*
X105611246Y-96478141D01*
X105566359Y-96626114D01*
X105555000Y-96741440D01*
X105555000Y-96741447D01*
X105551203Y-96780000D01*
X105555000Y-96818553D01*
X105555000Y-96853087D01*
X105494485Y-96878153D01*
X105202129Y-97073500D01*
X104953500Y-97322129D01*
X104758153Y-97614485D01*
X104623596Y-97939335D01*
X104555000Y-98284193D01*
X104555000Y-98635807D01*
X104623596Y-98980665D01*
X104758153Y-99305515D01*
X104953500Y-99597871D01*
X105202129Y-99846500D01*
X105494485Y-100041847D01*
X105555000Y-100066913D01*
X105555001Y-106451437D01*
X105551203Y-106490000D01*
X105566359Y-106643886D01*
X105611246Y-106791859D01*
X105621972Y-106811925D01*
X105684139Y-106928233D01*
X105704036Y-106952477D01*
X105757655Y-107017812D01*
X105757659Y-107017816D01*
X105782237Y-107047764D01*
X105812185Y-107072342D01*
X106727657Y-107987815D01*
X106752236Y-108017764D01*
X106782184Y-108042342D01*
X106782187Y-108042345D01*
X106811559Y-108066450D01*
X106871767Y-108115862D01*
X107008136Y-108188752D01*
X107008140Y-108188754D01*
X107156112Y-108233641D01*
X107170490Y-108235057D01*
X107271439Y-108245000D01*
X107271446Y-108245000D01*
X107309999Y-108248797D01*
X107348552Y-108245000D01*
X108741928Y-108245000D01*
X108741928Y-108260000D01*
X108754188Y-108384482D01*
X108790498Y-108504180D01*
X108849463Y-108614494D01*
X108928815Y-108711185D01*
X109025506Y-108790537D01*
X109135820Y-108849502D01*
X109255518Y-108885812D01*
X109380000Y-108898072D01*
X109395000Y-108898072D01*
X109395001Y-110581437D01*
X109391203Y-110620000D01*
X109406359Y-110773886D01*
X109451246Y-110921859D01*
X109476978Y-110970000D01*
X109524139Y-111058233D01*
X109564690Y-111107644D01*
X109597655Y-111147812D01*
X109597659Y-111147816D01*
X109622237Y-111177764D01*
X109652185Y-111202342D01*
X112625000Y-114175157D01*
X112625000Y-115243739D01*
X112534494Y-115169463D01*
X112424180Y-115110498D01*
X112304482Y-115074188D01*
X112180000Y-115061928D01*
X110180000Y-115061928D01*
X110055518Y-115074188D01*
X109935820Y-115110498D01*
X109825506Y-115169463D01*
X109728815Y-115248815D01*
X109649463Y-115345506D01*
X109590498Y-115455820D01*
X109554188Y-115575518D01*
X109541928Y-115700000D01*
X109541928Y-117165000D01*
X107500403Y-117165000D01*
X107441623Y-117093377D01*
X107308942Y-116984488D01*
X107157567Y-116903577D01*
X106993316Y-116853752D01*
X106822500Y-116836928D01*
X106247500Y-116836928D01*
X106076684Y-116853752D01*
X105912433Y-116903577D01*
X105761058Y-116984488D01*
X105737161Y-117004099D01*
X105664494Y-116944463D01*
X105554180Y-116885498D01*
X105434482Y-116849188D01*
X105310000Y-116836928D01*
X105070750Y-116840000D01*
X104912000Y-116998750D01*
X104912000Y-117823000D01*
X104932000Y-117823000D01*
X104932000Y-118077000D01*
X104912000Y-118077000D01*
X104912000Y-118901250D01*
X105070750Y-119060000D01*
X105310000Y-119063072D01*
X105434482Y-119050812D01*
X105554180Y-119014502D01*
X105664494Y-118955537D01*
X105737161Y-118895901D01*
X105761058Y-118915512D01*
X105912433Y-118996423D01*
X106076684Y-119046248D01*
X106247500Y-119063072D01*
X106822500Y-119063072D01*
X106993316Y-119046248D01*
X107157567Y-118996423D01*
X107308942Y-118915512D01*
X107441623Y-118806623D01*
X107500403Y-118735000D01*
X109541928Y-118735000D01*
X109541928Y-120200000D01*
X109554188Y-120324482D01*
X109590498Y-120444180D01*
X109649463Y-120554494D01*
X109728815Y-120651185D01*
X109825506Y-120730537D01*
X109935820Y-120789502D01*
X110055518Y-120825812D01*
X110180000Y-120838072D01*
X110491983Y-120838072D01*
X110524139Y-120898233D01*
X110553856Y-120934443D01*
X110597655Y-120987812D01*
X110597659Y-120987816D01*
X110622237Y-121017764D01*
X110652185Y-121042342D01*
X113957653Y-124347810D01*
X113982236Y-124377764D01*
X114101767Y-124475862D01*
X114217579Y-124537764D01*
X114238140Y-124548754D01*
X114386113Y-124593642D01*
X114461026Y-124601020D01*
X114501439Y-124605000D01*
X114501444Y-124605000D01*
X114540000Y-124608797D01*
X114578556Y-124605000D01*
X114764843Y-124605000D01*
X113704843Y-125665000D01*
X112818072Y-125665000D01*
X112818072Y-124200000D01*
X112805812Y-124075518D01*
X112769502Y-123955820D01*
X112710537Y-123845506D01*
X112631185Y-123748815D01*
X112534494Y-123669463D01*
X112424180Y-123610498D01*
X112304482Y-123574188D01*
X112180000Y-123561928D01*
X110180000Y-123561928D01*
X110055518Y-123574188D01*
X109935820Y-123610498D01*
X109825506Y-123669463D01*
X109728815Y-123748815D01*
X109649463Y-123845506D01*
X109590498Y-123955820D01*
X109554188Y-124075518D01*
X109541928Y-124200000D01*
X109541928Y-125665000D01*
X107410403Y-125665000D01*
X107351623Y-125593377D01*
X107218942Y-125484488D01*
X107067567Y-125403577D01*
X106903316Y-125353752D01*
X106732500Y-125336928D01*
X106157500Y-125336928D01*
X105986684Y-125353752D01*
X105822433Y-125403577D01*
X105671058Y-125484488D01*
X105647161Y-125504099D01*
X105574494Y-125444463D01*
X105464180Y-125385498D01*
X105344482Y-125349188D01*
X105220000Y-125336928D01*
X104980750Y-125340000D01*
X104822000Y-125498750D01*
X104822000Y-126323000D01*
X104842000Y-126323000D01*
X104842000Y-126577000D01*
X104822000Y-126577000D01*
X104822000Y-127401250D01*
X104980750Y-127560000D01*
X105220000Y-127563072D01*
X105344482Y-127550812D01*
X105464180Y-127514502D01*
X105574494Y-127455537D01*
X105647161Y-127395901D01*
X105671058Y-127415512D01*
X105822433Y-127496423D01*
X105986684Y-127546248D01*
X106157500Y-127563072D01*
X106732500Y-127563072D01*
X106903316Y-127546248D01*
X107067567Y-127496423D01*
X107218942Y-127415512D01*
X107351623Y-127306623D01*
X107410403Y-127235000D01*
X109541928Y-127235000D01*
X109541928Y-128700000D01*
X109554188Y-128824482D01*
X109590498Y-128944180D01*
X109649463Y-129054494D01*
X109728815Y-129151185D01*
X109825506Y-129230537D01*
X109935820Y-129289502D01*
X110055518Y-129325812D01*
X110180000Y-129338072D01*
X112180000Y-129338072D01*
X112304482Y-129325812D01*
X112424180Y-129289502D01*
X112534494Y-129230537D01*
X112631185Y-129151185D01*
X112710537Y-129054494D01*
X112769502Y-128944180D01*
X112805812Y-128824482D01*
X112818072Y-128700000D01*
X112818072Y-127235000D01*
X113991447Y-127235000D01*
X114030000Y-127238797D01*
X114068553Y-127235000D01*
X114068561Y-127235000D01*
X114183887Y-127223641D01*
X114331860Y-127178754D01*
X114468233Y-127105862D01*
X114587764Y-127007764D01*
X114612347Y-126977810D01*
X116185157Y-125405000D01*
X116950482Y-125405000D01*
X116975506Y-125425537D01*
X117085820Y-125484502D01*
X117205518Y-125520812D01*
X117330000Y-125533072D01*
X118666928Y-125533072D01*
X118666928Y-126870000D01*
X118679188Y-126994482D01*
X118715498Y-127114180D01*
X118774463Y-127224494D01*
X118795000Y-127249519D01*
X118795001Y-129364841D01*
X115122190Y-133037653D01*
X115092236Y-133062236D01*
X114994138Y-133181768D01*
X114921246Y-133318141D01*
X114876359Y-133466114D01*
X114865000Y-133581440D01*
X114865000Y-133581447D01*
X114861203Y-133620000D01*
X114865000Y-133658553D01*
X114865001Y-136298661D01*
X114735241Y-136385363D01*
X114535363Y-136585241D01*
X114380000Y-136817759D01*
X114224637Y-136585241D01*
X114024759Y-136385363D01*
X113789727Y-136228320D01*
X113528574Y-136120147D01*
X113251335Y-136065000D01*
X112968665Y-136065000D01*
X112691426Y-136120147D01*
X112430273Y-136228320D01*
X112195241Y-136385363D01*
X111995363Y-136585241D01*
X111840000Y-136817759D01*
X111684637Y-136585241D01*
X111484759Y-136385363D01*
X111249727Y-136228320D01*
X110988574Y-136120147D01*
X110711335Y-136065000D01*
X110428665Y-136065000D01*
X110151426Y-136120147D01*
X109890273Y-136228320D01*
X109655241Y-136385363D01*
X109455363Y-136585241D01*
X109298320Y-136820273D01*
X109190147Y-137081426D01*
X109135000Y-137358665D01*
X109135000Y-137641335D01*
X109190147Y-137918574D01*
X109298320Y-138179727D01*
X109455363Y-138414759D01*
X109655241Y-138614637D01*
X109890273Y-138771680D01*
X110151426Y-138879853D01*
X110428665Y-138935000D01*
X110711335Y-138935000D01*
X110988574Y-138879853D01*
X111249727Y-138771680D01*
X111484759Y-138614637D01*
X111684637Y-138414759D01*
X111840000Y-138182241D01*
X111995363Y-138414759D01*
X112195241Y-138614637D01*
X112430273Y-138771680D01*
X112691426Y-138879853D01*
X112968665Y-138935000D01*
X113251335Y-138935000D01*
X113528574Y-138879853D01*
X113789727Y-138771680D01*
X114024759Y-138614637D01*
X114224637Y-138414759D01*
X114380000Y-138182241D01*
X114535363Y-138414759D01*
X114735241Y-138614637D01*
X114970273Y-138771680D01*
X115231426Y-138879853D01*
X115508665Y-138935000D01*
X115791335Y-138935000D01*
X116068574Y-138879853D01*
X116329727Y-138771680D01*
X116564759Y-138614637D01*
X116764637Y-138414759D01*
X116920000Y-138182241D01*
X117075363Y-138414759D01*
X117275241Y-138614637D01*
X117510273Y-138771680D01*
X117771426Y-138879853D01*
X118048665Y-138935000D01*
X118331335Y-138935000D01*
X118608574Y-138879853D01*
X118869727Y-138771680D01*
X119104759Y-138614637D01*
X119304637Y-138414759D01*
X119460000Y-138182241D01*
X119615363Y-138414759D01*
X119815241Y-138614637D01*
X120050273Y-138771680D01*
X120311426Y-138879853D01*
X120588665Y-138935000D01*
X120871335Y-138935000D01*
X121148574Y-138879853D01*
X121409727Y-138771680D01*
X121644759Y-138614637D01*
X121844637Y-138414759D01*
X122000000Y-138182241D01*
X122155363Y-138414759D01*
X122355241Y-138614637D01*
X122590273Y-138771680D01*
X122851426Y-138879853D01*
X123128665Y-138935000D01*
X123411335Y-138935000D01*
X123688574Y-138879853D01*
X123949727Y-138771680D01*
X124184759Y-138614637D01*
X124384637Y-138414759D01*
X124541680Y-138179727D01*
X124649853Y-137918574D01*
X124692325Y-137705054D01*
X124800713Y-137867267D01*
X124972733Y-138039287D01*
X125175008Y-138174443D01*
X125399764Y-138267540D01*
X125638363Y-138315000D01*
X125881637Y-138315000D01*
X126120236Y-138267540D01*
X126344992Y-138174443D01*
X126547267Y-138039287D01*
X126719287Y-137867267D01*
X126854443Y-137664992D01*
X126947540Y-137440236D01*
X126995000Y-137201637D01*
X126995000Y-136958363D01*
X126947540Y-136719764D01*
X126854443Y-136495008D01*
X126719287Y-136292733D01*
X126547267Y-136120713D01*
X126344992Y-135985557D01*
X126120236Y-135892460D01*
X125881637Y-135845000D01*
X125638363Y-135845000D01*
X125635690Y-135845532D01*
X125595158Y-135805000D01*
X125631637Y-135805000D01*
X125870236Y-135757540D01*
X126094992Y-135664443D01*
X126297267Y-135529287D01*
X126469287Y-135357267D01*
X126604443Y-135154992D01*
X126697540Y-134930236D01*
X126745000Y-134691637D01*
X126745000Y-134448363D01*
X126697540Y-134209764D01*
X126604443Y-133985008D01*
X126469287Y-133782733D01*
X126297267Y-133610713D01*
X126094992Y-133475557D01*
X125870236Y-133382460D01*
X125631637Y-133335000D01*
X125388363Y-133335000D01*
X125385690Y-133335532D01*
X125095158Y-133045000D01*
X125241637Y-133045000D01*
X125480236Y-132997540D01*
X125704992Y-132904443D01*
X125907267Y-132769287D01*
X126079287Y-132597267D01*
X126214443Y-132394992D01*
X126307540Y-132170236D01*
X126355000Y-131931637D01*
X126355000Y-131688363D01*
X126354204Y-131684361D01*
X127185001Y-132515158D01*
X127185000Y-148761447D01*
X127181203Y-148800000D01*
X127185000Y-148838553D01*
X127185000Y-148838560D01*
X127196359Y-148953886D01*
X127241246Y-149101859D01*
X127314138Y-149238232D01*
X127412236Y-149357764D01*
X127442190Y-149382347D01*
X128214842Y-150155000D01*
X127075158Y-150155000D01*
X124055000Y-147134843D01*
X124055000Y-146321339D01*
X124184759Y-146234637D01*
X124384637Y-146034759D01*
X124541680Y-145799727D01*
X124649853Y-145538574D01*
X124705000Y-145261335D01*
X124705000Y-144978665D01*
X124649853Y-144701426D01*
X124541680Y-144440273D01*
X124384637Y-144205241D01*
X124184759Y-144005363D01*
X123949727Y-143848320D01*
X123688574Y-143740147D01*
X123411335Y-143685000D01*
X123128665Y-143685000D01*
X122851426Y-143740147D01*
X122590273Y-143848320D01*
X122355241Y-144005363D01*
X122155363Y-144205241D01*
X122068661Y-144335000D01*
X121931339Y-144335000D01*
X121844637Y-144205241D01*
X121644759Y-144005363D01*
X121409727Y-143848320D01*
X121148574Y-143740147D01*
X120871335Y-143685000D01*
X120588665Y-143685000D01*
X120311426Y-143740147D01*
X120050273Y-143848320D01*
X119815241Y-144005363D01*
X119615363Y-144205241D01*
X119528661Y-144335000D01*
X119391339Y-144335000D01*
X119304637Y-144205241D01*
X119104759Y-144005363D01*
X118869727Y-143848320D01*
X118608574Y-143740147D01*
X118331335Y-143685000D01*
X118048665Y-143685000D01*
X117771426Y-143740147D01*
X117510273Y-143848320D01*
X117275241Y-144005363D01*
X117075363Y-144205241D01*
X116988661Y-144335000D01*
X116851339Y-144335000D01*
X116764637Y-144205241D01*
X116564759Y-144005363D01*
X116329727Y-143848320D01*
X116068574Y-143740147D01*
X115791335Y-143685000D01*
X115508665Y-143685000D01*
X115231426Y-143740147D01*
X114970273Y-143848320D01*
X114735241Y-144005363D01*
X114535363Y-144205241D01*
X114448661Y-144335000D01*
X114311339Y-144335000D01*
X114224637Y-144205241D01*
X114024759Y-144005363D01*
X113789727Y-143848320D01*
X113528574Y-143740147D01*
X113251335Y-143685000D01*
X112968665Y-143685000D01*
X112691426Y-143740147D01*
X112430273Y-143848320D01*
X112195241Y-144005363D01*
X111996643Y-144203961D01*
X111995812Y-144195518D01*
X111959502Y-144075820D01*
X111900537Y-143965506D01*
X111821185Y-143868815D01*
X111724494Y-143789463D01*
X111614180Y-143730498D01*
X111494482Y-143694188D01*
X111370000Y-143681928D01*
X109770000Y-143681928D01*
X109645518Y-143694188D01*
X109525820Y-143730498D01*
X109415506Y-143789463D01*
X109318815Y-143868815D01*
X109239463Y-143965506D01*
X109180498Y-144075820D01*
X109144188Y-144195518D01*
X109131928Y-144320000D01*
X109131928Y-145920000D01*
X109144188Y-146044482D01*
X109180498Y-146164180D01*
X109239463Y-146274494D01*
X109318815Y-146371185D01*
X109415506Y-146450537D01*
X109525820Y-146509502D01*
X109645518Y-146545812D01*
X109770000Y-146558072D01*
X111370000Y-146558072D01*
X111494482Y-146545812D01*
X111614180Y-146509502D01*
X111724494Y-146450537D01*
X111821185Y-146371185D01*
X111900537Y-146274494D01*
X111959502Y-146164180D01*
X111995812Y-146044482D01*
X111996643Y-146036039D01*
X112195241Y-146234637D01*
X112430273Y-146391680D01*
X112691426Y-146499853D01*
X112968665Y-146555000D01*
X113251335Y-146555000D01*
X113528574Y-146499853D01*
X113789727Y-146391680D01*
X114024759Y-146234637D01*
X114224637Y-146034759D01*
X114311339Y-145905000D01*
X114448661Y-145905000D01*
X114535363Y-146034759D01*
X114735241Y-146234637D01*
X114970273Y-146391680D01*
X115231426Y-146499853D01*
X115508665Y-146555000D01*
X115791335Y-146555000D01*
X116068574Y-146499853D01*
X116329727Y-146391680D01*
X116564759Y-146234637D01*
X116764637Y-146034759D01*
X116851339Y-145905000D01*
X116988661Y-145905000D01*
X117075363Y-146034759D01*
X117275241Y-146234637D01*
X117510273Y-146391680D01*
X117771426Y-146499853D01*
X118048665Y-146555000D01*
X118331335Y-146555000D01*
X118608574Y-146499853D01*
X118869727Y-146391680D01*
X119104759Y-146234637D01*
X119304637Y-146034759D01*
X119391339Y-145905000D01*
X119528661Y-145905000D01*
X119615363Y-146034759D01*
X119815241Y-146234637D01*
X120050273Y-146391680D01*
X120311426Y-146499853D01*
X120588665Y-146555000D01*
X120871335Y-146555000D01*
X121148574Y-146499853D01*
X121409727Y-146391680D01*
X121644759Y-146234637D01*
X121844637Y-146034759D01*
X121931339Y-145905000D01*
X122068661Y-145905000D01*
X122155363Y-146034759D01*
X122355241Y-146234637D01*
X122485000Y-146321339D01*
X122485000Y-147421447D01*
X122481203Y-147460000D01*
X122485000Y-147498553D01*
X122485000Y-147498560D01*
X122496359Y-147613886D01*
X122541246Y-147761859D01*
X122614138Y-147898232D01*
X122712236Y-148017764D01*
X122742190Y-148042347D01*
X126167658Y-151467816D01*
X126192236Y-151497764D01*
X126222184Y-151522342D01*
X126222187Y-151522345D01*
X126251559Y-151546450D01*
X126311767Y-151595862D01*
X126375635Y-151630000D01*
X107965914Y-151630000D01*
X108156824Y-151439090D01*
X108508606Y-150912611D01*
X108750917Y-150327620D01*
X108874447Y-149706595D01*
X108874447Y-149073405D01*
X108750917Y-148452380D01*
X108508606Y-147867389D01*
X108156824Y-147340910D01*
X107709090Y-146893176D01*
X107182611Y-146541394D01*
X106597620Y-146299083D01*
X105976595Y-146175553D01*
X105343405Y-146175553D01*
X104722380Y-146299083D01*
X104137389Y-146541394D01*
X103610910Y-146893176D01*
X103240000Y-147264086D01*
X103240000Y-126925000D01*
X103531928Y-126925000D01*
X103544188Y-127049482D01*
X103580498Y-127169180D01*
X103639463Y-127279494D01*
X103718815Y-127376185D01*
X103815506Y-127455537D01*
X103925820Y-127514502D01*
X104045518Y-127550812D01*
X104170000Y-127563072D01*
X104409250Y-127560000D01*
X104568000Y-127401250D01*
X104568000Y-126577000D01*
X103693750Y-126577000D01*
X103535000Y-126735750D01*
X103531928Y-126925000D01*
X103240000Y-126925000D01*
X103240000Y-125975000D01*
X103531928Y-125975000D01*
X103535000Y-126164250D01*
X103693750Y-126323000D01*
X104568000Y-126323000D01*
X104568000Y-125498750D01*
X104409250Y-125340000D01*
X104170000Y-125336928D01*
X104045518Y-125349188D01*
X103925820Y-125385498D01*
X103815506Y-125444463D01*
X103718815Y-125523815D01*
X103639463Y-125620506D01*
X103580498Y-125730820D01*
X103544188Y-125850518D01*
X103531928Y-125975000D01*
X103240000Y-125975000D01*
X103240000Y-118425000D01*
X103621928Y-118425000D01*
X103634188Y-118549482D01*
X103670498Y-118669180D01*
X103729463Y-118779494D01*
X103808815Y-118876185D01*
X103905506Y-118955537D01*
X104015820Y-119014502D01*
X104135518Y-119050812D01*
X104260000Y-119063072D01*
X104499250Y-119060000D01*
X104658000Y-118901250D01*
X104658000Y-118077000D01*
X103783750Y-118077000D01*
X103625000Y-118235750D01*
X103621928Y-118425000D01*
X103240000Y-118425000D01*
X103240000Y-117475000D01*
X103621928Y-117475000D01*
X103625000Y-117664250D01*
X103783750Y-117823000D01*
X104658000Y-117823000D01*
X104658000Y-116998750D01*
X104499250Y-116840000D01*
X104260000Y-116836928D01*
X104135518Y-116849188D01*
X104015820Y-116885498D01*
X103905506Y-116944463D01*
X103808815Y-117023815D01*
X103729463Y-117120506D01*
X103670498Y-117230820D01*
X103634188Y-117350518D01*
X103621928Y-117475000D01*
X103240000Y-117475000D01*
X103240000Y-79720000D01*
X130391928Y-79720000D01*
X130391928Y-81420000D01*
X130404188Y-81544482D01*
X130440498Y-81664180D01*
X130499463Y-81774494D01*
X130578815Y-81871185D01*
X130675506Y-81950537D01*
X130785820Y-82009502D01*
X130858380Y-82031513D01*
X130726525Y-82163368D01*
X130564010Y-82406589D01*
X130452068Y-82676842D01*
X130395000Y-82963740D01*
X130395000Y-83256260D01*
X130452068Y-83543158D01*
X130564010Y-83813411D01*
X130726525Y-84056632D01*
X130933368Y-84263475D01*
X131107760Y-84380000D01*
X130933368Y-84496525D01*
X130726525Y-84703368D01*
X130564010Y-84946589D01*
X130452068Y-85216842D01*
X130395000Y-85503740D01*
X130395000Y-85796260D01*
X130452068Y-86083158D01*
X130564010Y-86353411D01*
X130726525Y-86596632D01*
X130933368Y-86803475D01*
X131107760Y-86920000D01*
X130933368Y-87036525D01*
X130726525Y-87243368D01*
X130564010Y-87486589D01*
X130452068Y-87756842D01*
X130395000Y-88043740D01*
X130395000Y-88336260D01*
X130452068Y-88623158D01*
X130564010Y-88893411D01*
X130726525Y-89136632D01*
X130933368Y-89343475D01*
X131107760Y-89460000D01*
X130933368Y-89576525D01*
X130726525Y-89783368D01*
X130564010Y-90026589D01*
X130452068Y-90296842D01*
X130395000Y-90583740D01*
X130395000Y-90876260D01*
X130452068Y-91163158D01*
X130564010Y-91433411D01*
X130726525Y-91676632D01*
X130933368Y-91883475D01*
X131115534Y-92005195D01*
X130998645Y-92074822D01*
X130782412Y-92269731D01*
X130608359Y-92503080D01*
X130483175Y-92765901D01*
X130438524Y-92913110D01*
X130559845Y-93143000D01*
X131753000Y-93143000D01*
X131753000Y-93123000D01*
X132007000Y-93123000D01*
X132007000Y-93143000D01*
X133200155Y-93143000D01*
X133321476Y-92913110D01*
X133276825Y-92765901D01*
X133151641Y-92503080D01*
X132977588Y-92269731D01*
X132761355Y-92074822D01*
X132644466Y-92005195D01*
X132826632Y-91883475D01*
X133033475Y-91676632D01*
X133195990Y-91433411D01*
X133307932Y-91163158D01*
X133365000Y-90876260D01*
X133365000Y-90583740D01*
X133307932Y-90296842D01*
X133195990Y-90026589D01*
X133033475Y-89783368D01*
X132826632Y-89576525D01*
X132652240Y-89460000D01*
X132826632Y-89343475D01*
X133033475Y-89136632D01*
X133195990Y-88893411D01*
X133307932Y-88623158D01*
X133365000Y-88336260D01*
X133365000Y-88043740D01*
X133307932Y-87756842D01*
X133195990Y-87486589D01*
X133033475Y-87243368D01*
X132826632Y-87036525D01*
X132652240Y-86920000D01*
X132826632Y-86803475D01*
X133033475Y-86596632D01*
X133195990Y-86353411D01*
X133307932Y-86083158D01*
X133365000Y-85796260D01*
X133365000Y-85503740D01*
X133307932Y-85216842D01*
X133195990Y-84946589D01*
X133033475Y-84703368D01*
X132826632Y-84496525D01*
X132652240Y-84380000D01*
X132826632Y-84263475D01*
X133033475Y-84056632D01*
X133195990Y-83813411D01*
X133307932Y-83543158D01*
X133365000Y-83256260D01*
X133365000Y-82963740D01*
X133307932Y-82676842D01*
X133195990Y-82406589D01*
X133033475Y-82163368D01*
X132901620Y-82031513D01*
X132974180Y-82009502D01*
X133084494Y-81950537D01*
X133181185Y-81871185D01*
X133260537Y-81774494D01*
X133319502Y-81664180D01*
X133355812Y-81544482D01*
X133368072Y-81420000D01*
X133368072Y-79720000D01*
X133355812Y-79595518D01*
X133319502Y-79475820D01*
X133260537Y-79365506D01*
X133181185Y-79268815D01*
X133084494Y-79189463D01*
X132974180Y-79130498D01*
X132854482Y-79094188D01*
X132730000Y-79081928D01*
X131030000Y-79081928D01*
X130905518Y-79094188D01*
X130785820Y-79130498D01*
X130675506Y-79189463D01*
X130578815Y-79268815D01*
X130499463Y-79365506D01*
X130440498Y-79475820D01*
X130404188Y-79595518D01*
X130391928Y-79720000D01*
X103240000Y-79720000D01*
X103240000Y-78337000D01*
X130442596Y-78337000D01*
X130653087Y-78477645D01*
X131147523Y-78682447D01*
X131672413Y-78786854D01*
X132207587Y-78786854D01*
X132732477Y-78682447D01*
X133226913Y-78477645D01*
X133437404Y-78337000D01*
X138630000Y-78337000D01*
X138654776Y-78334560D01*
X138678601Y-78327333D01*
X138700557Y-78315597D01*
X138719803Y-78299803D01*
X138735597Y-78280557D01*
X138747333Y-78258601D01*
X138754560Y-78234776D01*
X138757000Y-78210000D01*
X138757000Y-53320000D01*
X178422686Y-53320000D01*
X178343316Y-53438785D01*
G37*
X178343316Y-53438785D02*
X178176023Y-53842665D01*
X178090738Y-54271422D01*
X178090738Y-54708578D01*
X178176023Y-55137335D01*
X178343316Y-55541215D01*
X178586187Y-55904697D01*
X178895303Y-56213813D01*
X179258785Y-56456684D01*
X179662665Y-56623977D01*
X180091422Y-56709262D01*
X180528578Y-56709262D01*
X180957335Y-56623977D01*
X181361215Y-56456684D01*
X181724697Y-56213813D01*
X182033813Y-55904697D01*
X182276684Y-55541215D01*
X182443977Y-55137335D01*
X182529262Y-54708578D01*
X182529262Y-54271422D01*
X182443977Y-53842665D01*
X182276684Y-53438785D01*
X182197314Y-53320000D01*
X187204086Y-53320000D01*
X187003176Y-53520910D01*
X186651394Y-54047389D01*
X186409083Y-54632380D01*
X186285553Y-55253405D01*
X186285553Y-55886595D01*
X186409083Y-56507620D01*
X186651394Y-57092611D01*
X187003176Y-57619090D01*
X187450910Y-58066824D01*
X187977389Y-58418606D01*
X188562380Y-58660917D01*
X189183405Y-58784447D01*
X189816595Y-58784447D01*
X190437620Y-58660917D01*
X191022611Y-58418606D01*
X191549090Y-58066824D01*
X191890000Y-57725914D01*
X191890001Y-147224087D01*
X191559090Y-146893176D01*
X191032611Y-146541394D01*
X190447620Y-146299083D01*
X189826595Y-146175553D01*
X189193405Y-146175553D01*
X188572380Y-146299083D01*
X187987389Y-146541394D01*
X187460910Y-146893176D01*
X187013176Y-147340910D01*
X186661394Y-147867389D01*
X186419083Y-148452380D01*
X186295553Y-149073405D01*
X186295553Y-149706595D01*
X186419083Y-150327620D01*
X186661394Y-150912611D01*
X187013176Y-151439090D01*
X187204086Y-151630000D01*
X169652083Y-151630000D01*
X169727645Y-151516913D01*
X169932447Y-151022477D01*
X170036854Y-150497587D01*
X170036854Y-149962413D01*
X169932447Y-149437523D01*
X169727645Y-148943087D01*
X169430319Y-148498106D01*
X169051894Y-148119681D01*
X168606913Y-147822355D01*
X168112477Y-147617553D01*
X167587587Y-147513146D01*
X167052413Y-147513146D01*
X166527523Y-147617553D01*
X166033087Y-147822355D01*
X165588106Y-148119681D01*
X165209681Y-148498106D01*
X164912355Y-148943087D01*
X164707553Y-149437523D01*
X164603146Y-149962413D01*
X164603146Y-150497587D01*
X164707553Y-151022477D01*
X164912355Y-151516913D01*
X164987917Y-151630000D01*
X141884365Y-151630000D01*
X141948233Y-151595862D01*
X142067764Y-151497764D01*
X142092347Y-151467810D01*
X144650157Y-148910000D01*
X151631928Y-148910000D01*
X151644188Y-149034482D01*
X151680498Y-149154180D01*
X151739463Y-149264494D01*
X151818815Y-149361185D01*
X151915506Y-149440537D01*
X152025820Y-149499502D01*
X152145518Y-149535812D01*
X152270000Y-149548072D01*
X152834250Y-149545000D01*
X152993000Y-149386250D01*
X152993000Y-148187000D01*
X153247000Y-148187000D01*
X153247000Y-149386250D01*
X153405750Y-149545000D01*
X153970000Y-149548072D01*
X154094482Y-149535812D01*
X154214180Y-149499502D01*
X154324494Y-149440537D01*
X154421185Y-149361185D01*
X154500537Y-149264494D01*
X154559502Y-149154180D01*
X154595812Y-149034482D01*
X154608072Y-148910000D01*
X154605000Y-148345750D01*
X154446250Y-148187000D01*
X153247000Y-148187000D01*
X152993000Y-148187000D01*
X151793750Y-148187000D01*
X151635000Y-148345750D01*
X151631928Y-148910000D01*
X144650157Y-148910000D01*
X149795158Y-143765000D01*
X151858526Y-143765000D01*
X151966525Y-143926632D01*
X152173368Y-144133475D01*
X152347760Y-144250000D01*
X152173368Y-144366525D01*
X151966525Y-144573368D01*
X151804010Y-144816589D01*
X151692068Y-145086842D01*
X151635000Y-145373740D01*
X151635000Y-145666260D01*
X151692068Y-145953158D01*
X151804010Y-146223411D01*
X151966525Y-146466632D01*
X152098380Y-146598487D01*
X152025820Y-146620498D01*
X151915506Y-146679463D01*
X151818815Y-146758815D01*
X151739463Y-146855506D01*
X151680498Y-146965820D01*
X151644188Y-147085518D01*
X151631928Y-147210000D01*
X151635000Y-147774250D01*
X151793750Y-147933000D01*
X152993000Y-147933000D01*
X152993000Y-147913000D01*
X153247000Y-147913000D01*
X153247000Y-147933000D01*
X154446250Y-147933000D01*
X154605000Y-147774250D01*
X154608072Y-147210000D01*
X154595812Y-147085518D01*
X154559502Y-146965820D01*
X154500537Y-146855506D01*
X154421185Y-146758815D01*
X154324494Y-146679463D01*
X154214180Y-146620498D01*
X154141620Y-146598487D01*
X154273475Y-146466632D01*
X154381474Y-146305000D01*
X156471447Y-146305000D01*
X156510000Y-146308797D01*
X156548553Y-146305000D01*
X156548561Y-146305000D01*
X156663887Y-146293641D01*
X156811860Y-146248754D01*
X156948233Y-146175862D01*
X157067764Y-146077764D01*
X157092347Y-146047810D01*
X158657817Y-144482341D01*
X158687764Y-144457764D01*
X158785862Y-144338233D01*
X158858754Y-144201860D01*
X158860678Y-144195518D01*
X158903642Y-144053887D01*
X158912346Y-143965506D01*
X158915000Y-143938561D01*
X158915000Y-143938556D01*
X158918797Y-143900000D01*
X158915000Y-143861445D01*
X158915000Y-140292413D01*
X164603146Y-140292413D01*
X164603146Y-140827587D01*
X164707553Y-141352477D01*
X164912355Y-141846913D01*
X165209681Y-142291894D01*
X165588106Y-142670319D01*
X166033087Y-142967645D01*
X166527523Y-143172447D01*
X167052413Y-143276854D01*
X167587587Y-143276854D01*
X168112477Y-143172447D01*
X168606913Y-142967645D01*
X169051894Y-142670319D01*
X169430319Y-142291894D01*
X169727645Y-141846913D01*
X169932447Y-141352477D01*
X170036854Y-140827587D01*
X170036854Y-140292413D01*
X169932447Y-139767523D01*
X169727645Y-139273087D01*
X169430319Y-138828106D01*
X169051894Y-138449681D01*
X168606913Y-138152355D01*
X168112477Y-137947553D01*
X167587587Y-137843146D01*
X167052413Y-137843146D01*
X166527523Y-137947553D01*
X166033087Y-138152355D01*
X165588106Y-138449681D01*
X165209681Y-138828106D01*
X164912355Y-139273087D01*
X164707553Y-139767523D01*
X164603146Y-140292413D01*
X158915000Y-140292413D01*
X158915000Y-134632413D01*
X183633146Y-134632413D01*
X183633146Y-135167587D01*
X183737553Y-135692477D01*
X183942355Y-136186913D01*
X184239681Y-136631894D01*
X184618106Y-137010319D01*
X185063087Y-137307645D01*
X185557523Y-137512447D01*
X186082413Y-137616854D01*
X186617587Y-137616854D01*
X187142477Y-137512447D01*
X187636913Y-137307645D01*
X188081894Y-137010319D01*
X188460319Y-136631894D01*
X188757645Y-136186913D01*
X188962447Y-135692477D01*
X189066854Y-135167587D01*
X189066854Y-134632413D01*
X188962447Y-134107523D01*
X188757645Y-133613087D01*
X188460319Y-133168106D01*
X188081894Y-132789681D01*
X187636913Y-132492355D01*
X187142477Y-132287553D01*
X186617587Y-132183146D01*
X186082413Y-132183146D01*
X185557523Y-132287553D01*
X185063087Y-132492355D01*
X184618106Y-132789681D01*
X184239681Y-133168106D01*
X183942355Y-133613087D01*
X183737553Y-134107523D01*
X183633146Y-134632413D01*
X158915000Y-134632413D01*
X158915000Y-130648555D01*
X158918797Y-130610000D01*
X158915000Y-130571444D01*
X158915000Y-130571439D01*
X158909356Y-130514139D01*
X158903642Y-130456113D01*
X158858754Y-130308140D01*
X158838368Y-130270000D01*
X158785862Y-130171767D01*
X158687764Y-130052236D01*
X158657816Y-130027658D01*
X157242347Y-128612190D01*
X157217764Y-128582236D01*
X157098233Y-128484138D01*
X156961860Y-128411246D01*
X156813887Y-128366359D01*
X156698561Y-128355000D01*
X156698553Y-128355000D01*
X156660000Y-128351203D01*
X156621447Y-128355000D01*
X140915158Y-128355000D01*
X137775158Y-125215000D01*
X137921637Y-125215000D01*
X138160236Y-125167540D01*
X138384992Y-125074443D01*
X138587267Y-124939287D01*
X138759287Y-124767267D01*
X138894443Y-124564992D01*
X138987540Y-124340236D01*
X139035000Y-124101637D01*
X139035000Y-123858363D01*
X139032645Y-123846523D01*
X139055862Y-123818233D01*
X139128754Y-123681860D01*
X139147591Y-123619764D01*
X139173641Y-123533888D01*
X139175446Y-123515557D01*
X139185000Y-123418561D01*
X139185000Y-123418554D01*
X139188797Y-123380001D01*
X139185000Y-123341448D01*
X139185000Y-117188555D01*
X139188797Y-117150000D01*
X139185000Y-117111444D01*
X139185000Y-117111439D01*
X139176370Y-117023815D01*
X139173642Y-116996113D01*
X139128754Y-116848140D01*
X139115659Y-116823641D01*
X139055862Y-116711767D01*
X138957764Y-116592236D01*
X138927815Y-116567658D01*
X138588520Y-116228363D01*
X139955000Y-116228363D01*
X139955000Y-116471637D01*
X140002460Y-116710236D01*
X140095557Y-116934992D01*
X140230713Y-117137267D01*
X140402733Y-117309287D01*
X140605008Y-117444443D01*
X140829764Y-117537540D01*
X141068363Y-117585000D01*
X141311637Y-117585000D01*
X141550236Y-117537540D01*
X141774992Y-117444443D01*
X141977267Y-117309287D01*
X142149287Y-117137267D01*
X142284443Y-116934992D01*
X142377540Y-116710236D01*
X142425000Y-116471637D01*
X142425000Y-116228363D01*
X142377540Y-115989764D01*
X142284443Y-115765008D01*
X142149287Y-115562733D01*
X141977267Y-115390713D01*
X141975000Y-115389198D01*
X141975000Y-114885157D01*
X158997198Y-97862960D01*
X159032460Y-98040236D01*
X159125557Y-98264992D01*
X159260713Y-98467267D01*
X159432733Y-98639287D01*
X159435001Y-98640802D01*
X159435000Y-114574843D01*
X150184843Y-123825000D01*
X148810802Y-123825000D01*
X148809287Y-123822733D01*
X148637267Y-123650713D01*
X148434992Y-123515557D01*
X148210236Y-123422460D01*
X147971637Y-123375000D01*
X147728363Y-123375000D01*
X147489764Y-123422460D01*
X147265008Y-123515557D01*
X147062733Y-123650713D01*
X146890713Y-123822733D01*
X146755557Y-124025008D01*
X146662460Y-124249764D01*
X146615000Y-124488363D01*
X146615000Y-124731637D01*
X146662460Y-124970236D01*
X146755557Y-125194992D01*
X146890713Y-125397267D01*
X147062733Y-125569287D01*
X147265008Y-125704443D01*
X147489764Y-125797540D01*
X147728363Y-125845000D01*
X147971637Y-125845000D01*
X148210236Y-125797540D01*
X148434992Y-125704443D01*
X148637267Y-125569287D01*
X148809287Y-125397267D01*
X148810802Y-125395000D01*
X150471447Y-125395000D01*
X150510000Y-125398797D01*
X150548553Y-125395000D01*
X150548561Y-125395000D01*
X150663887Y-125383641D01*
X150811860Y-125338754D01*
X150948233Y-125265862D01*
X151067764Y-125167764D01*
X151092347Y-125137810D01*
X160747811Y-115482346D01*
X160777764Y-115457764D01*
X160875862Y-115338233D01*
X160948754Y-115201860D01*
X160955007Y-115181246D01*
X160993642Y-115053887D01*
X161003727Y-114951481D01*
X161005000Y-114938561D01*
X161005000Y-114938556D01*
X161008797Y-114900000D01*
X161005000Y-114861444D01*
X161005000Y-105892413D01*
X183633146Y-105892413D01*
X183633146Y-106427587D01*
X183737553Y-106952477D01*
X183942355Y-107446913D01*
X184239681Y-107891894D01*
X184618106Y-108270319D01*
X185063087Y-108567645D01*
X185557523Y-108772447D01*
X186082413Y-108876854D01*
X186617587Y-108876854D01*
X187142477Y-108772447D01*
X187636913Y-108567645D01*
X188081894Y-108270319D01*
X188460319Y-107891894D01*
X188757645Y-107446913D01*
X188962447Y-106952477D01*
X189066854Y-106427587D01*
X189066854Y-105892413D01*
X188962447Y-105367523D01*
X188757645Y-104873087D01*
X188460319Y-104428106D01*
X188081894Y-104049681D01*
X187636913Y-103752355D01*
X187142477Y-103547553D01*
X186617587Y-103443146D01*
X186082413Y-103443146D01*
X185557523Y-103547553D01*
X185063087Y-103752355D01*
X184618106Y-104049681D01*
X184239681Y-104428106D01*
X183942355Y-104873087D01*
X183737553Y-105367523D01*
X183633146Y-105892413D01*
X161005000Y-105892413D01*
X161005000Y-99302413D01*
X165233146Y-99302413D01*
X165233146Y-99837587D01*
X165337553Y-100362477D01*
X165542355Y-100856913D01*
X165839681Y-101301894D01*
X166218106Y-101680319D01*
X166663087Y-101977645D01*
X167157523Y-102182447D01*
X167682413Y-102286854D01*
X168217587Y-102286854D01*
X168742477Y-102182447D01*
X169236913Y-101977645D01*
X169681894Y-101680319D01*
X170060319Y-101301894D01*
X170357645Y-100856913D01*
X170562447Y-100362477D01*
X170666854Y-99837587D01*
X170666854Y-99302413D01*
X170562447Y-98777523D01*
X170357645Y-98283087D01*
X170060319Y-97838106D01*
X169681894Y-97459681D01*
X169236913Y-97162355D01*
X168742477Y-96957553D01*
X168217587Y-96853146D01*
X167682413Y-96853146D01*
X167157523Y-96957553D01*
X166663087Y-97162355D01*
X166218106Y-97459681D01*
X165839681Y-97838106D01*
X165542355Y-98283087D01*
X165337553Y-98777523D01*
X165233146Y-99302413D01*
X161005000Y-99302413D01*
X161005000Y-98640802D01*
X161007267Y-98639287D01*
X161179287Y-98467267D01*
X161314443Y-98264992D01*
X161407540Y-98040236D01*
X161455000Y-97801637D01*
X161455000Y-97558363D01*
X161407540Y-97319764D01*
X161314443Y-97095008D01*
X161179287Y-96892733D01*
X161007267Y-96720713D01*
X160804992Y-96585557D01*
X160580236Y-96492460D01*
X160402960Y-96457198D01*
X162775965Y-94084193D01*
X183965000Y-94084193D01*
X183965000Y-94435807D01*
X184033596Y-94780665D01*
X184168153Y-95105515D01*
X184363500Y-95397871D01*
X184612129Y-95646500D01*
X184904485Y-95841847D01*
X185229335Y-95976404D01*
X185574193Y-96045000D01*
X185925807Y-96045000D01*
X186270665Y-95976404D01*
X186595515Y-95841847D01*
X186887871Y-95646500D01*
X187136500Y-95397871D01*
X187331847Y-95105515D01*
X187466404Y-94780665D01*
X187535000Y-94435807D01*
X187535000Y-94084193D01*
X187466404Y-93739335D01*
X187331847Y-93414485D01*
X187136500Y-93122129D01*
X186887871Y-92873500D01*
X186595515Y-92678153D01*
X186270665Y-92543596D01*
X185925807Y-92475000D01*
X185574193Y-92475000D01*
X185229335Y-92543596D01*
X184904485Y-92678153D01*
X184612129Y-92873500D01*
X184363500Y-93122129D01*
X184168153Y-93414485D01*
X184033596Y-93739335D01*
X183965000Y-94084193D01*
X162775965Y-94084193D01*
X168430158Y-88430000D01*
X172381928Y-88430000D01*
X172381928Y-90130000D01*
X172394188Y-90254482D01*
X172430498Y-90374180D01*
X172489463Y-90484494D01*
X172568815Y-90581185D01*
X172665506Y-90660537D01*
X172775820Y-90719502D01*
X172895518Y-90755812D01*
X173020000Y-90768072D01*
X174720000Y-90768072D01*
X174844482Y-90755812D01*
X174964180Y-90719502D01*
X175074494Y-90660537D01*
X175171185Y-90581185D01*
X175250537Y-90484494D01*
X175309502Y-90374180D01*
X175345812Y-90254482D01*
X175358072Y-90130000D01*
X175358072Y-90065000D01*
X177221447Y-90065000D01*
X177260000Y-90068797D01*
X177298553Y-90065000D01*
X177298561Y-90065000D01*
X177413887Y-90053641D01*
X177561860Y-90008754D01*
X177698233Y-89935862D01*
X177817764Y-89837764D01*
X177842347Y-89807810D01*
X179115157Y-88535000D01*
X179768796Y-88535000D01*
X179834201Y-88632886D01*
X179971315Y-88770000D01*
X179834201Y-88907114D01*
X179682629Y-89133957D01*
X179578225Y-89386011D01*
X179525000Y-89653589D01*
X179525000Y-89926411D01*
X179578225Y-90193989D01*
X179682629Y-90446043D01*
X179834201Y-90672886D01*
X180027114Y-90865799D01*
X180253957Y-91017371D01*
X180506011Y-91121775D01*
X180773589Y-91175000D01*
X181046411Y-91175000D01*
X181313989Y-91121775D01*
X181566043Y-91017371D01*
X181792886Y-90865799D01*
X181985799Y-90672886D01*
X182137371Y-90446043D01*
X182241775Y-90193989D01*
X182295000Y-89926411D01*
X182295000Y-89726993D01*
X182672612Y-89726993D01*
X182738137Y-89965860D01*
X182985116Y-90081760D01*
X183249960Y-90147250D01*
X183522492Y-90159812D01*
X183792238Y-90118965D01*
X184048832Y-90026277D01*
X184161863Y-89965860D01*
X184227388Y-89726993D01*
X183450000Y-88949605D01*
X182672612Y-89726993D01*
X182295000Y-89726993D01*
X182295000Y-89653589D01*
X182261228Y-89483807D01*
X182493007Y-89547388D01*
X183270395Y-88770000D01*
X183256253Y-88755858D01*
X183435858Y-88576253D01*
X183450000Y-88590395D01*
X183464143Y-88576253D01*
X183643748Y-88755858D01*
X183629605Y-88770000D01*
X184406993Y-89547388D01*
X184645860Y-89481863D01*
X184761760Y-89234884D01*
X184827250Y-88970040D01*
X184839812Y-88697508D01*
X184798965Y-88427762D01*
X184706277Y-88171168D01*
X184645860Y-88058137D01*
X184526631Y-88025431D01*
X184554494Y-88010537D01*
X184651185Y-87931185D01*
X184730537Y-87834494D01*
X184789502Y-87724180D01*
X184825812Y-87604482D01*
X184838072Y-87480000D01*
X184838072Y-85980000D01*
X184825812Y-85855518D01*
X184789502Y-85735820D01*
X184730537Y-85625506D01*
X184651185Y-85528815D01*
X184554494Y-85449463D01*
X184444180Y-85390498D01*
X184324482Y-85354188D01*
X184235000Y-85345375D01*
X184235000Y-84568555D01*
X184238797Y-84530000D01*
X184235000Y-84491440D01*
X184235000Y-84491439D01*
X184225392Y-84393886D01*
X184223642Y-84376113D01*
X184189201Y-84262581D01*
X184178754Y-84228140D01*
X184105862Y-84091767D01*
X184007764Y-83972236D01*
X183977811Y-83947654D01*
X183742347Y-83712190D01*
X183717764Y-83682236D01*
X183598233Y-83584138D01*
X183461860Y-83511246D01*
X183313887Y-83466359D01*
X183198561Y-83455000D01*
X183198553Y-83455000D01*
X183160000Y-83451203D01*
X183121447Y-83455000D01*
X178738556Y-83455000D01*
X178700000Y-83451203D01*
X178661444Y-83455000D01*
X178661439Y-83455000D01*
X178621026Y-83458980D01*
X178546113Y-83466358D01*
X178398140Y-83511246D01*
X178261767Y-83584138D01*
X178201559Y-83633550D01*
X178172187Y-83657655D01*
X178172184Y-83657658D01*
X178142236Y-83682236D01*
X178117658Y-83712184D01*
X175874843Y-85955000D01*
X175131474Y-85955000D01*
X175023475Y-85793368D01*
X174816632Y-85586525D01*
X174573411Y-85424010D01*
X174303158Y-85312068D01*
X174016260Y-85255000D01*
X173723740Y-85255000D01*
X173436842Y-85312068D01*
X173166589Y-85424010D01*
X172923368Y-85586525D01*
X172716525Y-85793368D01*
X172554010Y-86036589D01*
X172442068Y-86306842D01*
X172385000Y-86593740D01*
X172385000Y-86886260D01*
X172442068Y-87173158D01*
X172554010Y-87443411D01*
X172716525Y-87686632D01*
X172848380Y-87818487D01*
X172775820Y-87840498D01*
X172665506Y-87899463D01*
X172568815Y-87978815D01*
X172489463Y-88075506D01*
X172430498Y-88185820D01*
X172394188Y-88305518D01*
X172381928Y-88430000D01*
X168430158Y-88430000D01*
X174775965Y-82084193D01*
X183965000Y-82084193D01*
X183965000Y-82435807D01*
X184033596Y-82780665D01*
X184168153Y-83105515D01*
X184363500Y-83397871D01*
X184612129Y-83646500D01*
X184904485Y-83841847D01*
X185229335Y-83976404D01*
X185574193Y-84045000D01*
X185925807Y-84045000D01*
X186270665Y-83976404D01*
X186595515Y-83841847D01*
X186887871Y-83646500D01*
X187136500Y-83397871D01*
X187331847Y-83105515D01*
X187466404Y-82780665D01*
X187535000Y-82435807D01*
X187535000Y-82084193D01*
X187466404Y-81739335D01*
X187331847Y-81414485D01*
X187136500Y-81122129D01*
X186887871Y-80873500D01*
X186595515Y-80678153D01*
X186270665Y-80543596D01*
X185925807Y-80475000D01*
X185574193Y-80475000D01*
X185229335Y-80543596D01*
X184904485Y-80678153D01*
X184612129Y-80873500D01*
X184363500Y-81122129D01*
X184168153Y-81414485D01*
X184033596Y-81739335D01*
X183965000Y-82084193D01*
X174775965Y-82084193D01*
X178395158Y-78465000D01*
X182521447Y-78465000D01*
X182560000Y-78468797D01*
X182598553Y-78465000D01*
X182598561Y-78465000D01*
X182713887Y-78453641D01*
X182861860Y-78408754D01*
X182998233Y-78335862D01*
X183117764Y-78237764D01*
X183142347Y-78207810D01*
X188487816Y-72862342D01*
X188517764Y-72837764D01*
X188615862Y-72718233D01*
X188688754Y-72581860D01*
X188733641Y-72433887D01*
X188745000Y-72318561D01*
X188745000Y-72318554D01*
X188748797Y-72280001D01*
X188745000Y-72241448D01*
X188745000Y-69480403D01*
X188816623Y-69421623D01*
X188925512Y-69288942D01*
X189006423Y-69137567D01*
X189056248Y-68973316D01*
X189073072Y-68802500D01*
X189073072Y-68227500D01*
X189056248Y-68056684D01*
X189006423Y-67892433D01*
X188925512Y-67741058D01*
X188842575Y-67640000D01*
X188925512Y-67538942D01*
X189006423Y-67387567D01*
X189056248Y-67223316D01*
X189073072Y-67052500D01*
X189073072Y-66477500D01*
X189056248Y-66306684D01*
X189006423Y-66142433D01*
X188925512Y-65991058D01*
X188816623Y-65858377D01*
X188735000Y-65791390D01*
X188735000Y-64281608D01*
X188928505Y-64152312D01*
X189142312Y-63938505D01*
X189310299Y-63687095D01*
X189426011Y-63407743D01*
X189485000Y-63111184D01*
X189485000Y-62808816D01*
X189426011Y-62512257D01*
X189310299Y-62232905D01*
X189142312Y-61981495D01*
X189075873Y-61915056D01*
X189094180Y-61909502D01*
X189204494Y-61850537D01*
X189301185Y-61771185D01*
X189380537Y-61674494D01*
X189439502Y-61564180D01*
X189475812Y-61444482D01*
X189488072Y-61320000D01*
X189485000Y-60705750D01*
X189326250Y-60547000D01*
X188077000Y-60547000D01*
X188077000Y-60567000D01*
X187823000Y-60567000D01*
X187823000Y-60547000D01*
X186573750Y-60547000D01*
X186415000Y-60705750D01*
X186411928Y-61320000D01*
X186424188Y-61444482D01*
X186460498Y-61564180D01*
X186519463Y-61674494D01*
X186598815Y-61771185D01*
X186695506Y-61850537D01*
X186805820Y-61909502D01*
X186824127Y-61915056D01*
X186757688Y-61981495D01*
X186589701Y-62232905D01*
X186473989Y-62512257D01*
X186415000Y-62808816D01*
X186415000Y-63111184D01*
X186473989Y-63407743D01*
X186589701Y-63687095D01*
X186757688Y-63938505D01*
X186971495Y-64152312D01*
X187165000Y-64281608D01*
X187165001Y-65807803D01*
X187103377Y-65858377D01*
X186994488Y-65991058D01*
X186913577Y-66142433D01*
X186863752Y-66306684D01*
X186846928Y-66477500D01*
X186846928Y-67052500D01*
X186863752Y-67223316D01*
X186913577Y-67387567D01*
X186994488Y-67538942D01*
X187077425Y-67640000D01*
X186994488Y-67741058D01*
X186913577Y-67892433D01*
X186863752Y-68056684D01*
X186846928Y-68227500D01*
X186846928Y-68802500D01*
X186863752Y-68973316D01*
X186913577Y-69137567D01*
X186994488Y-69288942D01*
X187103377Y-69421623D01*
X187175000Y-69480403D01*
X187175001Y-71954841D01*
X182234843Y-76895000D01*
X178108552Y-76895000D01*
X178069999Y-76891203D01*
X178031446Y-76895000D01*
X178031439Y-76895000D01*
X177930490Y-76904943D01*
X177916112Y-76906359D01*
X177768140Y-76951246D01*
X177631767Y-77024138D01*
X177579317Y-77067183D01*
X177542187Y-77097655D01*
X177542184Y-77097658D01*
X177512236Y-77122236D01*
X177487658Y-77152184D01*
X140662190Y-113977653D01*
X140632236Y-114002236D01*
X140534138Y-114121768D01*
X140461246Y-114258141D01*
X140416359Y-114406114D01*
X140405000Y-114521440D01*
X140405000Y-114521447D01*
X140401203Y-114560000D01*
X140405000Y-114598553D01*
X140405000Y-115389198D01*
X140402733Y-115390713D01*
X140230713Y-115562733D01*
X140095557Y-115765008D01*
X140002460Y-115989764D01*
X139955000Y-116228363D01*
X138588520Y-116228363D01*
X137882347Y-115522190D01*
X137857764Y-115492236D01*
X137738233Y-115394138D01*
X137601860Y-115321246D01*
X137453887Y-115276359D01*
X137338561Y-115265000D01*
X137338553Y-115265000D01*
X137300000Y-115261203D01*
X137261447Y-115265000D01*
X136971474Y-115265000D01*
X136863475Y-115103368D01*
X136656632Y-114896525D01*
X136474466Y-114774805D01*
X136591355Y-114705178D01*
X136807588Y-114510269D01*
X136981641Y-114276920D01*
X137106825Y-114014099D01*
X137151476Y-113866890D01*
X137030155Y-113637000D01*
X135837000Y-113637000D01*
X135837000Y-113657000D01*
X135583000Y-113657000D01*
X135583000Y-113637000D01*
X134389845Y-113637000D01*
X134268524Y-113866890D01*
X134313175Y-114014099D01*
X134438359Y-114276920D01*
X134612412Y-114510269D01*
X134828645Y-114705178D01*
X134945534Y-114774805D01*
X134763368Y-114896525D01*
X134556525Y-115103368D01*
X134394010Y-115346589D01*
X134282068Y-115616842D01*
X134225000Y-115903740D01*
X134225000Y-116196260D01*
X134282068Y-116483158D01*
X134394010Y-116753411D01*
X134556525Y-116996632D01*
X134763368Y-117203475D01*
X135006589Y-117365990D01*
X135276842Y-117477932D01*
X135563740Y-117535000D01*
X135856260Y-117535000D01*
X136143158Y-117477932D01*
X136413411Y-117365990D01*
X136656632Y-117203475D01*
X136863475Y-116996632D01*
X136971474Y-116835000D01*
X136974843Y-116835000D01*
X137615001Y-117475159D01*
X137615000Y-122757604D01*
X137439764Y-122792460D01*
X137215008Y-122885557D01*
X137012733Y-123020713D01*
X136840713Y-123192733D01*
X136705557Y-123395008D01*
X136612460Y-123619764D01*
X136565000Y-123858363D01*
X136565000Y-124004842D01*
X131052347Y-118492190D01*
X131027764Y-118462236D01*
X130908233Y-118364138D01*
X130891137Y-118355000D01*
X131019153Y-118355000D01*
X131040713Y-118387267D01*
X131212733Y-118559287D01*
X131415008Y-118694443D01*
X131639764Y-118787540D01*
X131878363Y-118835000D01*
X132121637Y-118835000D01*
X132360236Y-118787540D01*
X132584992Y-118694443D01*
X132787267Y-118559287D01*
X132959287Y-118387267D01*
X133094443Y-118184992D01*
X133187540Y-117960236D01*
X133235000Y-117721637D01*
X133235000Y-117478363D01*
X133187540Y-117239764D01*
X133094443Y-117015008D01*
X132959287Y-116812733D01*
X132787267Y-116640713D01*
X132584992Y-116505557D01*
X132360236Y-116412460D01*
X132121637Y-116365000D01*
X131878363Y-116365000D01*
X131639764Y-116412460D01*
X131415008Y-116505557D01*
X131212733Y-116640713D01*
X131068446Y-116785000D01*
X126093072Y-116785000D01*
X126093072Y-116770000D01*
X126080812Y-116645518D01*
X126044502Y-116525820D01*
X125985537Y-116415506D01*
X125906185Y-116318815D01*
X125809494Y-116239463D01*
X125699180Y-116180498D01*
X125579482Y-116144188D01*
X125455000Y-116131928D01*
X124905000Y-116131928D01*
X124780518Y-116144188D01*
X124780000Y-116144345D01*
X124779482Y-116144188D01*
X124655000Y-116131928D01*
X124105000Y-116131928D01*
X123980518Y-116144188D01*
X123980000Y-116144345D01*
X123979482Y-116144188D01*
X123855000Y-116131928D01*
X123305000Y-116131928D01*
X123180518Y-116144188D01*
X123180000Y-116144345D01*
X123179482Y-116144188D01*
X123055000Y-116131928D01*
X122868229Y-116131928D01*
X126197816Y-112802342D01*
X126227764Y-112777764D01*
X126325862Y-112658233D01*
X126398754Y-112521860D01*
X126443641Y-112373887D01*
X126455000Y-112258561D01*
X126455000Y-112258554D01*
X126458797Y-112220001D01*
X126455000Y-112181448D01*
X126455000Y-112050403D01*
X126526623Y-111991623D01*
X126635512Y-111858942D01*
X126716423Y-111707567D01*
X126766248Y-111543316D01*
X126783072Y-111372500D01*
X126783072Y-110797500D01*
X126766248Y-110626684D01*
X126716423Y-110462433D01*
X126635512Y-110311058D01*
X126552575Y-110210000D01*
X126626437Y-110120000D01*
X129479843Y-110120000D01*
X130857658Y-111497816D01*
X130882236Y-111527764D01*
X130912184Y-111552342D01*
X130912187Y-111552345D01*
X130926558Y-111564139D01*
X131001767Y-111625862D01*
X131138140Y-111698754D01*
X131286112Y-111743641D01*
X131300490Y-111745057D01*
X131401439Y-111755000D01*
X131401446Y-111755000D01*
X131439999Y-111758797D01*
X131478552Y-111755000D01*
X134221928Y-111755000D01*
X134221928Y-111820000D01*
X134234188Y-111944482D01*
X134270498Y-112064180D01*
X134329463Y-112174494D01*
X134408815Y-112271185D01*
X134505506Y-112350537D01*
X134615820Y-112409502D01*
X134696466Y-112433966D01*
X134612412Y-112509731D01*
X134438359Y-112743080D01*
X134313175Y-113005901D01*
X134268524Y-113153110D01*
X134389845Y-113383000D01*
X135583000Y-113383000D01*
X135583000Y-113363000D01*
X135837000Y-113363000D01*
X135837000Y-113383000D01*
X137030155Y-113383000D01*
X137151476Y-113153110D01*
X137106825Y-113005901D01*
X136981641Y-112743080D01*
X136807588Y-112509731D01*
X136723534Y-112433966D01*
X136804180Y-112409502D01*
X136914494Y-112350537D01*
X137011185Y-112271185D01*
X137090537Y-112174494D01*
X137149502Y-112064180D01*
X137185812Y-111944482D01*
X137198072Y-111820000D01*
X137198072Y-110120000D01*
X137185812Y-109995518D01*
X137149502Y-109875820D01*
X137090537Y-109765506D01*
X137011185Y-109668815D01*
X136914494Y-109589463D01*
X136804180Y-109530498D01*
X136684482Y-109494188D01*
X136560000Y-109481928D01*
X134860000Y-109481928D01*
X134735518Y-109494188D01*
X134615820Y-109530498D01*
X134505506Y-109589463D01*
X134408815Y-109668815D01*
X134329463Y-109765506D01*
X134270498Y-109875820D01*
X134234188Y-109995518D01*
X134221928Y-110120000D01*
X134221928Y-110185000D01*
X131765158Y-110185000D01*
X130387347Y-108807190D01*
X130362764Y-108777236D01*
X130243233Y-108679138D01*
X130106860Y-108606246D01*
X129958887Y-108561359D01*
X129843561Y-108550000D01*
X129843553Y-108550000D01*
X129805000Y-108546203D01*
X129766447Y-108550000D01*
X126626437Y-108550000D01*
X126526623Y-108428377D01*
X126393942Y-108319488D01*
X126242567Y-108238577D01*
X126078316Y-108188752D01*
X125907500Y-108171928D01*
X125432500Y-108171928D01*
X125261684Y-108188752D01*
X125097433Y-108238577D01*
X124946058Y-108319488D01*
X124813377Y-108428377D01*
X124713563Y-108550000D01*
X123880158Y-108550000D01*
X121222571Y-105892413D01*
X138913146Y-105892413D01*
X138913146Y-106427587D01*
X139017553Y-106952477D01*
X139222355Y-107446913D01*
X139519681Y-107891894D01*
X139898106Y-108270319D01*
X140343087Y-108567645D01*
X140837523Y-108772447D01*
X141362413Y-108876854D01*
X141897587Y-108876854D01*
X142422477Y-108772447D01*
X142916913Y-108567645D01*
X143361894Y-108270319D01*
X143740319Y-107891894D01*
X144037645Y-107446913D01*
X144242447Y-106952477D01*
X144346854Y-106427587D01*
X144346854Y-105892413D01*
X144242447Y-105367523D01*
X144037645Y-104873087D01*
X143740319Y-104428106D01*
X143361894Y-104049681D01*
X142916913Y-103752355D01*
X142422477Y-103547553D01*
X141897587Y-103443146D01*
X141362413Y-103443146D01*
X140837523Y-103547553D01*
X140343087Y-103752355D01*
X139898106Y-104049681D01*
X139519681Y-104428106D01*
X139222355Y-104873087D01*
X139017553Y-105367523D01*
X138913146Y-105892413D01*
X121222571Y-105892413D01*
X115032507Y-99702349D01*
X120677256Y-99702349D01*
X120791118Y-99982090D01*
X121106296Y-100137961D01*
X121445826Y-100229349D01*
X121796661Y-100252741D01*
X122145319Y-100207240D01*
X122478400Y-100094594D01*
X122688882Y-99982090D01*
X122802744Y-99702349D01*
X121740000Y-98639605D01*
X120677256Y-99702349D01*
X115032507Y-99702349D01*
X113846819Y-98516661D01*
X119947259Y-98516661D01*
X119992760Y-98865319D01*
X120105406Y-99198400D01*
X120217910Y-99408882D01*
X120497651Y-99522744D01*
X121560395Y-98460000D01*
X121919605Y-98460000D01*
X122982349Y-99522744D01*
X123262090Y-99408882D01*
X123417961Y-99093704D01*
X123509349Y-98754174D01*
X123532741Y-98403339D01*
X123487240Y-98054681D01*
X123374594Y-97721600D01*
X123262090Y-97511118D01*
X122982349Y-97397256D01*
X121919605Y-98460000D01*
X121560395Y-98460000D01*
X120497651Y-97397256D01*
X120217910Y-97511118D01*
X120062039Y-97826296D01*
X119970651Y-98165826D01*
X119947259Y-98516661D01*
X113846819Y-98516661D01*
X113262347Y-97932190D01*
X113237764Y-97902236D01*
X113118233Y-97804138D01*
X112981860Y-97731246D01*
X112833887Y-97686359D01*
X112718561Y-97675000D01*
X112718553Y-97675000D01*
X112680000Y-97671203D01*
X112641447Y-97675000D01*
X107946913Y-97675000D01*
X107921847Y-97614485D01*
X107726500Y-97322129D01*
X107622022Y-97217651D01*
X120677256Y-97217651D01*
X121740000Y-98280395D01*
X122802744Y-97217651D01*
X122688882Y-96937910D01*
X122373704Y-96782039D01*
X122034174Y-96690651D01*
X121683339Y-96667259D01*
X121334681Y-96712760D01*
X121001600Y-96825406D01*
X120791118Y-96937910D01*
X120677256Y-97217651D01*
X107622022Y-97217651D01*
X107477871Y-97073500D01*
X107285318Y-96944840D01*
X107635158Y-96595000D01*
X130618526Y-96595000D01*
X130726525Y-96756632D01*
X130933368Y-96963475D01*
X131009850Y-97014579D01*
X130653087Y-97162355D01*
X130208106Y-97459681D01*
X129829681Y-97838106D01*
X129532355Y-98283087D01*
X129327553Y-98777523D01*
X129223146Y-99302413D01*
X129223146Y-99837587D01*
X129327553Y-100362477D01*
X129532355Y-100856913D01*
X129829681Y-101301894D01*
X130208106Y-101680319D01*
X130653087Y-101977645D01*
X131147523Y-102182447D01*
X131672413Y-102286854D01*
X132207587Y-102286854D01*
X132732477Y-102182447D01*
X133226913Y-101977645D01*
X133671894Y-101680319D01*
X134050319Y-101301894D01*
X134347645Y-100856913D01*
X134552447Y-100362477D01*
X134656854Y-99837587D01*
X134656854Y-99302413D01*
X134552447Y-98777523D01*
X134347645Y-98283087D01*
X134050319Y-97838106D01*
X133671894Y-97459681D01*
X133226913Y-97162355D01*
X132796072Y-96983895D01*
X132826632Y-96963475D01*
X133033475Y-96756632D01*
X133141474Y-96595000D01*
X136251447Y-96595000D01*
X136290000Y-96598797D01*
X136328553Y-96595000D01*
X136328561Y-96595000D01*
X136443887Y-96583641D01*
X136591860Y-96538754D01*
X136728233Y-96465862D01*
X136847764Y-96367764D01*
X136872347Y-96337810D01*
X173845158Y-59365000D01*
X178818526Y-59365000D01*
X178926525Y-59526632D01*
X179133368Y-59733475D01*
X179307760Y-59850000D01*
X179133368Y-59966525D01*
X178926525Y-60173368D01*
X178818526Y-60335000D01*
X175408555Y-60335000D01*
X175370000Y-60331203D01*
X175331444Y-60335000D01*
X175331439Y-60335000D01*
X175291026Y-60338980D01*
X175216113Y-60346358D01*
X175068140Y-60391246D01*
X174931767Y-60464138D01*
X174871559Y-60513550D01*
X174842187Y-60537655D01*
X174842184Y-60537658D01*
X174812236Y-60562236D01*
X174787658Y-60592184D01*
X144982185Y-90397658D01*
X144952237Y-90422236D01*
X144927659Y-90452184D01*
X144927655Y-90452188D01*
X144901142Y-90484494D01*
X144854139Y-90541767D01*
X144833070Y-90581185D01*
X144781246Y-90678141D01*
X144736359Y-90826114D01*
X144721203Y-90980000D01*
X144725001Y-91018563D01*
X144725000Y-100529198D01*
X144722733Y-100530713D01*
X144550713Y-100702733D01*
X144415557Y-100905008D01*
X144322460Y-101129764D01*
X144275000Y-101368363D01*
X144275000Y-101611637D01*
X144322460Y-101850236D01*
X144415557Y-102074992D01*
X144550713Y-102277267D01*
X144722733Y-102449287D01*
X144925008Y-102584443D01*
X145149764Y-102677540D01*
X145388363Y-102725000D01*
X145631637Y-102725000D01*
X145870236Y-102677540D01*
X146094992Y-102584443D01*
X146297267Y-102449287D01*
X146469287Y-102277267D01*
X146604443Y-102074992D01*
X146697540Y-101850236D01*
X146745000Y-101611637D01*
X146745000Y-101368363D01*
X146697540Y-101129764D01*
X146604443Y-100905008D01*
X146469287Y-100702733D01*
X146297267Y-100530713D01*
X146295000Y-100529198D01*
X146295000Y-91305157D01*
X161797744Y-75802413D01*
X165233146Y-75802413D01*
X165233146Y-76337587D01*
X165337553Y-76862477D01*
X165542355Y-77356913D01*
X165839681Y-77801894D01*
X166218106Y-78180319D01*
X166663087Y-78477645D01*
X167157523Y-78682447D01*
X167682413Y-78786854D01*
X168217587Y-78786854D01*
X168742477Y-78682447D01*
X169236913Y-78477645D01*
X169681894Y-78180319D01*
X170060319Y-77801894D01*
X170357645Y-77356913D01*
X170562447Y-76862477D01*
X170666854Y-76337587D01*
X170666854Y-75802413D01*
X170562447Y-75277523D01*
X170357645Y-74783087D01*
X170060319Y-74338106D01*
X169681894Y-73959681D01*
X169236913Y-73662355D01*
X168742477Y-73457553D01*
X168217587Y-73353146D01*
X167682413Y-73353146D01*
X167157523Y-73457553D01*
X166663087Y-73662355D01*
X166218106Y-73959681D01*
X165839681Y-74338106D01*
X165542355Y-74783087D01*
X165337553Y-75277523D01*
X165233146Y-75802413D01*
X161797744Y-75802413D01*
X166748735Y-70851422D01*
X178090738Y-70851422D01*
X178090738Y-71288578D01*
X178176023Y-71717335D01*
X178343316Y-72121215D01*
X178586187Y-72484697D01*
X178895303Y-72793813D01*
X179258785Y-73036684D01*
X179662665Y-73203977D01*
X180091422Y-73289262D01*
X180528578Y-73289262D01*
X180957335Y-73203977D01*
X181361215Y-73036684D01*
X181724697Y-72793813D01*
X182033813Y-72484697D01*
X182276684Y-72121215D01*
X182443977Y-71717335D01*
X182529262Y-71288578D01*
X182529262Y-70851422D01*
X182443977Y-70422665D01*
X182276684Y-70018785D01*
X182033813Y-69655303D01*
X181724697Y-69346187D01*
X181361215Y-69103316D01*
X180957335Y-68936023D01*
X180528578Y-68850738D01*
X180091422Y-68850738D01*
X179662665Y-68936023D01*
X179258785Y-69103316D01*
X178895303Y-69346187D01*
X178586187Y-69655303D01*
X178343316Y-70018785D01*
X178176023Y-70422665D01*
X178090738Y-70851422D01*
X166748735Y-70851422D01*
X170550157Y-67050000D01*
X178591928Y-67050000D01*
X178604188Y-67174482D01*
X178640498Y-67294180D01*
X178699463Y-67404494D01*
X178778815Y-67501185D01*
X178875506Y-67580537D01*
X178985820Y-67639502D01*
X179105518Y-67675812D01*
X179230000Y-67688072D01*
X179794250Y-67685000D01*
X179953000Y-67526250D01*
X179953000Y-66327000D01*
X180207000Y-66327000D01*
X180207000Y-67526250D01*
X180365750Y-67685000D01*
X180930000Y-67688072D01*
X181054482Y-67675812D01*
X181174180Y-67639502D01*
X181284494Y-67580537D01*
X181381185Y-67501185D01*
X181460537Y-67404494D01*
X181519502Y-67294180D01*
X181555812Y-67174482D01*
X181568072Y-67050000D01*
X181565000Y-66485750D01*
X181406250Y-66327000D01*
X180207000Y-66327000D01*
X179953000Y-66327000D01*
X178753750Y-66327000D01*
X178595000Y-66485750D01*
X178591928Y-67050000D01*
X170550157Y-67050000D01*
X172250157Y-65350000D01*
X178591928Y-65350000D01*
X178595000Y-65914250D01*
X178753750Y-66073000D01*
X179953000Y-66073000D01*
X179953000Y-63787000D01*
X180207000Y-63787000D01*
X180207000Y-66073000D01*
X181406250Y-66073000D01*
X181565000Y-65914250D01*
X181568072Y-65350000D01*
X181555812Y-65225518D01*
X181519502Y-65105820D01*
X181460537Y-64995506D01*
X181381185Y-64898815D01*
X181284494Y-64819463D01*
X181174180Y-64760498D01*
X181093534Y-64736034D01*
X181177588Y-64660269D01*
X181351641Y-64426920D01*
X181476825Y-64164099D01*
X181521476Y-64016890D01*
X181400155Y-63787000D01*
X180207000Y-63787000D01*
X179953000Y-63787000D01*
X178759845Y-63787000D01*
X178638524Y-64016890D01*
X178683175Y-64164099D01*
X178808359Y-64426920D01*
X178982412Y-64660269D01*
X179066466Y-64736034D01*
X178985820Y-64760498D01*
X178875506Y-64819463D01*
X178778815Y-64898815D01*
X178699463Y-64995506D01*
X178640498Y-65105820D01*
X178604188Y-65225518D01*
X178591928Y-65350000D01*
X172250157Y-65350000D01*
X175695158Y-61905000D01*
X178818526Y-61905000D01*
X178926525Y-62066632D01*
X179133368Y-62273475D01*
X179315534Y-62395195D01*
X179198645Y-62464822D01*
X178982412Y-62659731D01*
X178808359Y-62893080D01*
X178683175Y-63155901D01*
X178638524Y-63303110D01*
X178759845Y-63533000D01*
X179953000Y-63533000D01*
X179953000Y-63513000D01*
X180207000Y-63513000D01*
X180207000Y-63533000D01*
X181400155Y-63533000D01*
X181521476Y-63303110D01*
X181476825Y-63155901D01*
X181351641Y-62893080D01*
X181177588Y-62659731D01*
X180961355Y-62464822D01*
X180844466Y-62395195D01*
X181026632Y-62273475D01*
X181233475Y-62066632D01*
X181395990Y-61823411D01*
X181507932Y-61553158D01*
X181565000Y-61266260D01*
X181565000Y-60973740D01*
X181507932Y-60686842D01*
X181395990Y-60416589D01*
X181233475Y-60173368D01*
X181026632Y-59966525D01*
X180852240Y-59850000D01*
X181026632Y-59733475D01*
X181233475Y-59526632D01*
X181237906Y-59520000D01*
X186411928Y-59520000D01*
X186415000Y-60134250D01*
X186573750Y-60293000D01*
X187823000Y-60293000D01*
X187823000Y-59043750D01*
X188077000Y-59043750D01*
X188077000Y-60293000D01*
X189326250Y-60293000D01*
X189485000Y-60134250D01*
X189488072Y-59520000D01*
X189475812Y-59395518D01*
X189439502Y-59275820D01*
X189380537Y-59165506D01*
X189301185Y-59068815D01*
X189204494Y-58989463D01*
X189094180Y-58930498D01*
X188974482Y-58894188D01*
X188850000Y-58881928D01*
X188235750Y-58885000D01*
X188077000Y-59043750D01*
X187823000Y-59043750D01*
X187664250Y-58885000D01*
X187050000Y-58881928D01*
X186925518Y-58894188D01*
X186805820Y-58930498D01*
X186695506Y-58989463D01*
X186598815Y-59068815D01*
X186519463Y-59165506D01*
X186460498Y-59275820D01*
X186424188Y-59395518D01*
X186411928Y-59520000D01*
X181237906Y-59520000D01*
X181395990Y-59283411D01*
X181507932Y-59013158D01*
X181565000Y-58726260D01*
X181565000Y-58433740D01*
X181507932Y-58146842D01*
X181395990Y-57876589D01*
X181233475Y-57633368D01*
X181026632Y-57426525D01*
X180783411Y-57264010D01*
X180513158Y-57152068D01*
X180226260Y-57095000D01*
X179933740Y-57095000D01*
X179646842Y-57152068D01*
X179376589Y-57264010D01*
X179133368Y-57426525D01*
X178926525Y-57633368D01*
X178818526Y-57795000D01*
X173558555Y-57795000D01*
X173520000Y-57791203D01*
X173481444Y-57795000D01*
X173481439Y-57795000D01*
X173441026Y-57798980D01*
X173366113Y-57806358D01*
X173218140Y-57851246D01*
X173081767Y-57924138D01*
X173021559Y-57973550D01*
X172992187Y-57997655D01*
X172992184Y-57997658D01*
X172962236Y-58022236D01*
X172937658Y-58052184D01*
X135964843Y-95025000D01*
X133141474Y-95025000D01*
X133033475Y-94863368D01*
X132826632Y-94656525D01*
X132644466Y-94534805D01*
X132761355Y-94465178D01*
X132977588Y-94270269D01*
X133151641Y-94036920D01*
X133276825Y-93774099D01*
X133321476Y-93626890D01*
X133200155Y-93397000D01*
X132007000Y-93397000D01*
X132007000Y-93417000D01*
X131753000Y-93417000D01*
X131753000Y-93397000D01*
X130559845Y-93397000D01*
X130438524Y-93626890D01*
X130483175Y-93774099D01*
X130608359Y-94036920D01*
X130782412Y-94270269D01*
X130998645Y-94465178D01*
X131115534Y-94534805D01*
X130933368Y-94656525D01*
X130726525Y-94863368D01*
X130618526Y-95025000D01*
X107348552Y-95025000D01*
X107309999Y-95021203D01*
X107271446Y-95025000D01*
X107271439Y-95025000D01*
X107170490Y-95034943D01*
X107156112Y-95036359D01*
X107008140Y-95081246D01*
X106871767Y-95154138D01*
X106811559Y-95203550D01*
X106782187Y-95227655D01*
X106782184Y-95227658D01*
X106752236Y-95252236D01*
X106727657Y-95282185D01*
X105812190Y-96197653D01*
X105782236Y-96222236D01*
X105684138Y-96341768D01*
X105611246Y-96478141D01*
X105566359Y-96626114D01*
X105555000Y-96741440D01*
X105555000Y-96741447D01*
X105551203Y-96780000D01*
X105555000Y-96818553D01*
X105555000Y-96853087D01*
X105494485Y-96878153D01*
X105202129Y-97073500D01*
X104953500Y-97322129D01*
X104758153Y-97614485D01*
X104623596Y-97939335D01*
X104555000Y-98284193D01*
X104555000Y-98635807D01*
X104623596Y-98980665D01*
X104758153Y-99305515D01*
X104953500Y-99597871D01*
X105202129Y-99846500D01*
X105494485Y-100041847D01*
X105555000Y-100066913D01*
X105555001Y-106451437D01*
X105551203Y-106490000D01*
X105566359Y-106643886D01*
X105611246Y-106791859D01*
X105621972Y-106811925D01*
X105684139Y-106928233D01*
X105704036Y-106952477D01*
X105757655Y-107017812D01*
X105757659Y-107017816D01*
X105782237Y-107047764D01*
X105812185Y-107072342D01*
X106727657Y-107987815D01*
X106752236Y-108017764D01*
X106782184Y-108042342D01*
X106782187Y-108042345D01*
X106811559Y-108066450D01*
X106871767Y-108115862D01*
X107008136Y-108188752D01*
X107008140Y-108188754D01*
X107156112Y-108233641D01*
X107170490Y-108235057D01*
X107271439Y-108245000D01*
X107271446Y-108245000D01*
X107309999Y-108248797D01*
X107348552Y-108245000D01*
X108741928Y-108245000D01*
X108741928Y-108260000D01*
X108754188Y-108384482D01*
X108790498Y-108504180D01*
X108849463Y-108614494D01*
X108928815Y-108711185D01*
X109025506Y-108790537D01*
X109135820Y-108849502D01*
X109255518Y-108885812D01*
X109380000Y-108898072D01*
X109395000Y-108898072D01*
X109395001Y-110581437D01*
X109391203Y-110620000D01*
X109406359Y-110773886D01*
X109451246Y-110921859D01*
X109476978Y-110970000D01*
X109524139Y-111058233D01*
X109564690Y-111107644D01*
X109597655Y-111147812D01*
X109597659Y-111147816D01*
X109622237Y-111177764D01*
X109652185Y-111202342D01*
X112625000Y-114175157D01*
X112625000Y-115243739D01*
X112534494Y-115169463D01*
X112424180Y-115110498D01*
X112304482Y-115074188D01*
X112180000Y-115061928D01*
X110180000Y-115061928D01*
X110055518Y-115074188D01*
X109935820Y-115110498D01*
X109825506Y-115169463D01*
X109728815Y-115248815D01*
X109649463Y-115345506D01*
X109590498Y-115455820D01*
X109554188Y-115575518D01*
X109541928Y-115700000D01*
X109541928Y-117165000D01*
X107500403Y-117165000D01*
X107441623Y-117093377D01*
X107308942Y-116984488D01*
X107157567Y-116903577D01*
X106993316Y-116853752D01*
X106822500Y-116836928D01*
X106247500Y-116836928D01*
X106076684Y-116853752D01*
X105912433Y-116903577D01*
X105761058Y-116984488D01*
X105737161Y-117004099D01*
X105664494Y-116944463D01*
X105554180Y-116885498D01*
X105434482Y-116849188D01*
X105310000Y-116836928D01*
X105070750Y-116840000D01*
X104912000Y-116998750D01*
X104912000Y-117823000D01*
X104932000Y-117823000D01*
X104932000Y-118077000D01*
X104912000Y-118077000D01*
X104912000Y-118901250D01*
X105070750Y-119060000D01*
X105310000Y-119063072D01*
X105434482Y-119050812D01*
X105554180Y-119014502D01*
X105664494Y-118955537D01*
X105737161Y-118895901D01*
X105761058Y-118915512D01*
X105912433Y-118996423D01*
X106076684Y-119046248D01*
X106247500Y-119063072D01*
X106822500Y-119063072D01*
X106993316Y-119046248D01*
X107157567Y-118996423D01*
X107308942Y-118915512D01*
X107441623Y-118806623D01*
X107500403Y-118735000D01*
X109541928Y-118735000D01*
X109541928Y-120200000D01*
X109554188Y-120324482D01*
X109590498Y-120444180D01*
X109649463Y-120554494D01*
X109728815Y-120651185D01*
X109825506Y-120730537D01*
X109935820Y-120789502D01*
X110055518Y-120825812D01*
X110180000Y-120838072D01*
X110491983Y-120838072D01*
X110524139Y-120898233D01*
X110553856Y-120934443D01*
X110597655Y-120987812D01*
X110597659Y-120987816D01*
X110622237Y-121017764D01*
X110652185Y-121042342D01*
X113957653Y-124347810D01*
X113982236Y-124377764D01*
X114101767Y-124475862D01*
X114217579Y-124537764D01*
X114238140Y-124548754D01*
X114386113Y-124593642D01*
X114461026Y-124601020D01*
X114501439Y-124605000D01*
X114501444Y-124605000D01*
X114540000Y-124608797D01*
X114578556Y-124605000D01*
X114764843Y-124605000D01*
X113704843Y-125665000D01*
X112818072Y-125665000D01*
X112818072Y-124200000D01*
X112805812Y-124075518D01*
X112769502Y-123955820D01*
X112710537Y-123845506D01*
X112631185Y-123748815D01*
X112534494Y-123669463D01*
X112424180Y-123610498D01*
X112304482Y-123574188D01*
X112180000Y-123561928D01*
X110180000Y-123561928D01*
X110055518Y-123574188D01*
X109935820Y-123610498D01*
X109825506Y-123669463D01*
X109728815Y-123748815D01*
X109649463Y-123845506D01*
X109590498Y-123955820D01*
X109554188Y-124075518D01*
X109541928Y-124200000D01*
X109541928Y-125665000D01*
X107410403Y-125665000D01*
X107351623Y-125593377D01*
X107218942Y-125484488D01*
X107067567Y-125403577D01*
X106903316Y-125353752D01*
X106732500Y-125336928D01*
X106157500Y-125336928D01*
X105986684Y-125353752D01*
X105822433Y-125403577D01*
X105671058Y-125484488D01*
X105647161Y-125504099D01*
X105574494Y-125444463D01*
X105464180Y-125385498D01*
X105344482Y-125349188D01*
X105220000Y-125336928D01*
X104980750Y-125340000D01*
X104822000Y-125498750D01*
X104822000Y-126323000D01*
X104842000Y-126323000D01*
X104842000Y-126577000D01*
X104822000Y-126577000D01*
X104822000Y-127401250D01*
X104980750Y-127560000D01*
X105220000Y-127563072D01*
X105344482Y-127550812D01*
X105464180Y-127514502D01*
X105574494Y-127455537D01*
X105647161Y-127395901D01*
X105671058Y-127415512D01*
X105822433Y-127496423D01*
X105986684Y-127546248D01*
X106157500Y-127563072D01*
X106732500Y-127563072D01*
X106903316Y-127546248D01*
X107067567Y-127496423D01*
X107218942Y-127415512D01*
X107351623Y-127306623D01*
X107410403Y-127235000D01*
X109541928Y-127235000D01*
X109541928Y-128700000D01*
X109554188Y-128824482D01*
X109590498Y-128944180D01*
X109649463Y-129054494D01*
X109728815Y-129151185D01*
X109825506Y-129230537D01*
X109935820Y-129289502D01*
X110055518Y-129325812D01*
X110180000Y-129338072D01*
X112180000Y-129338072D01*
X112304482Y-129325812D01*
X112424180Y-129289502D01*
X112534494Y-129230537D01*
X112631185Y-129151185D01*
X112710537Y-129054494D01*
X112769502Y-128944180D01*
X112805812Y-128824482D01*
X112818072Y-128700000D01*
X112818072Y-127235000D01*
X113991447Y-127235000D01*
X114030000Y-127238797D01*
X114068553Y-127235000D01*
X114068561Y-127235000D01*
X114183887Y-127223641D01*
X114331860Y-127178754D01*
X114468233Y-127105862D01*
X114587764Y-127007764D01*
X114612347Y-126977810D01*
X116185157Y-125405000D01*
X116950482Y-125405000D01*
X116975506Y-125425537D01*
X117085820Y-125484502D01*
X117205518Y-125520812D01*
X117330000Y-125533072D01*
X118666928Y-125533072D01*
X118666928Y-126870000D01*
X118679188Y-126994482D01*
X118715498Y-127114180D01*
X118774463Y-127224494D01*
X118795000Y-127249519D01*
X118795001Y-129364841D01*
X115122190Y-133037653D01*
X115092236Y-133062236D01*
X114994138Y-133181768D01*
X114921246Y-133318141D01*
X114876359Y-133466114D01*
X114865000Y-133581440D01*
X114865000Y-133581447D01*
X114861203Y-133620000D01*
X114865000Y-133658553D01*
X114865001Y-136298661D01*
X114735241Y-136385363D01*
X114535363Y-136585241D01*
X114380000Y-136817759D01*
X114224637Y-136585241D01*
X114024759Y-136385363D01*
X113789727Y-136228320D01*
X113528574Y-136120147D01*
X113251335Y-136065000D01*
X112968665Y-136065000D01*
X112691426Y-136120147D01*
X112430273Y-136228320D01*
X112195241Y-136385363D01*
X111995363Y-136585241D01*
X111840000Y-136817759D01*
X111684637Y-136585241D01*
X111484759Y-136385363D01*
X111249727Y-136228320D01*
X110988574Y-136120147D01*
X110711335Y-136065000D01*
X110428665Y-136065000D01*
X110151426Y-136120147D01*
X109890273Y-136228320D01*
X109655241Y-136385363D01*
X109455363Y-136585241D01*
X109298320Y-136820273D01*
X109190147Y-137081426D01*
X109135000Y-137358665D01*
X109135000Y-137641335D01*
X109190147Y-137918574D01*
X109298320Y-138179727D01*
X109455363Y-138414759D01*
X109655241Y-138614637D01*
X109890273Y-138771680D01*
X110151426Y-138879853D01*
X110428665Y-138935000D01*
X110711335Y-138935000D01*
X110988574Y-138879853D01*
X111249727Y-138771680D01*
X111484759Y-138614637D01*
X111684637Y-138414759D01*
X111840000Y-138182241D01*
X111995363Y-138414759D01*
X112195241Y-138614637D01*
X112430273Y-138771680D01*
X112691426Y-138879853D01*
X112968665Y-138935000D01*
X113251335Y-138935000D01*
X113528574Y-138879853D01*
X113789727Y-138771680D01*
X114024759Y-138614637D01*
X114224637Y-138414759D01*
X114380000Y-138182241D01*
X114535363Y-138414759D01*
X114735241Y-138614637D01*
X114970273Y-138771680D01*
X115231426Y-138879853D01*
X115508665Y-138935000D01*
X115791335Y-138935000D01*
X116068574Y-138879853D01*
X116329727Y-138771680D01*
X116564759Y-138614637D01*
X116764637Y-138414759D01*
X116920000Y-138182241D01*
X117075363Y-138414759D01*
X117275241Y-138614637D01*
X117510273Y-138771680D01*
X117771426Y-138879853D01*
X118048665Y-138935000D01*
X118331335Y-138935000D01*
X118608574Y-138879853D01*
X118869727Y-138771680D01*
X119104759Y-138614637D01*
X119304637Y-138414759D01*
X119460000Y-138182241D01*
X119615363Y-138414759D01*
X119815241Y-138614637D01*
X120050273Y-138771680D01*
X120311426Y-138879853D01*
X120588665Y-138935000D01*
X120871335Y-138935000D01*
X121148574Y-138879853D01*
X121409727Y-138771680D01*
X121644759Y-138614637D01*
X121844637Y-138414759D01*
X122000000Y-138182241D01*
X122155363Y-138414759D01*
X122355241Y-138614637D01*
X122590273Y-138771680D01*
X122851426Y-138879853D01*
X123128665Y-138935000D01*
X123411335Y-138935000D01*
X123688574Y-138879853D01*
X123949727Y-138771680D01*
X124184759Y-138614637D01*
X124384637Y-138414759D01*
X124541680Y-138179727D01*
X124649853Y-137918574D01*
X124692325Y-137705054D01*
X124800713Y-137867267D01*
X124972733Y-138039287D01*
X125175008Y-138174443D01*
X125399764Y-138267540D01*
X125638363Y-138315000D01*
X125881637Y-138315000D01*
X126120236Y-138267540D01*
X126344992Y-138174443D01*
X126547267Y-138039287D01*
X126719287Y-137867267D01*
X126854443Y-137664992D01*
X126947540Y-137440236D01*
X126995000Y-137201637D01*
X126995000Y-136958363D01*
X126947540Y-136719764D01*
X126854443Y-136495008D01*
X126719287Y-136292733D01*
X126547267Y-136120713D01*
X126344992Y-135985557D01*
X126120236Y-135892460D01*
X125881637Y-135845000D01*
X125638363Y-135845000D01*
X125635690Y-135845532D01*
X125595158Y-135805000D01*
X125631637Y-135805000D01*
X125870236Y-135757540D01*
X126094992Y-135664443D01*
X126297267Y-135529287D01*
X126469287Y-135357267D01*
X126604443Y-135154992D01*
X126697540Y-134930236D01*
X126745000Y-134691637D01*
X126745000Y-134448363D01*
X126697540Y-134209764D01*
X126604443Y-133985008D01*
X126469287Y-133782733D01*
X126297267Y-133610713D01*
X126094992Y-133475557D01*
X125870236Y-133382460D01*
X125631637Y-133335000D01*
X125388363Y-133335000D01*
X125385690Y-133335532D01*
X125095158Y-133045000D01*
X125241637Y-133045000D01*
X125480236Y-132997540D01*
X125704992Y-132904443D01*
X125907267Y-132769287D01*
X126079287Y-132597267D01*
X126214443Y-132394992D01*
X126307540Y-132170236D01*
X126355000Y-131931637D01*
X126355000Y-131688363D01*
X126354204Y-131684361D01*
X127185001Y-132515158D01*
X127185000Y-148761447D01*
X127181203Y-148800000D01*
X127185000Y-148838553D01*
X127185000Y-148838560D01*
X127196359Y-148953886D01*
X127241246Y-149101859D01*
X127314138Y-149238232D01*
X127412236Y-149357764D01*
X127442190Y-149382347D01*
X128214842Y-150155000D01*
X127075158Y-150155000D01*
X124055000Y-147134843D01*
X124055000Y-146321339D01*
X124184759Y-146234637D01*
X124384637Y-146034759D01*
X124541680Y-145799727D01*
X124649853Y-145538574D01*
X124705000Y-145261335D01*
X124705000Y-144978665D01*
X124649853Y-144701426D01*
X124541680Y-144440273D01*
X124384637Y-144205241D01*
X124184759Y-144005363D01*
X123949727Y-143848320D01*
X123688574Y-143740147D01*
X123411335Y-143685000D01*
X123128665Y-143685000D01*
X122851426Y-143740147D01*
X122590273Y-143848320D01*
X122355241Y-144005363D01*
X122155363Y-144205241D01*
X122068661Y-144335000D01*
X121931339Y-144335000D01*
X121844637Y-144205241D01*
X121644759Y-144005363D01*
X121409727Y-143848320D01*
X121148574Y-143740147D01*
X120871335Y-143685000D01*
X120588665Y-143685000D01*
X120311426Y-143740147D01*
X120050273Y-143848320D01*
X119815241Y-144005363D01*
X119615363Y-144205241D01*
X119528661Y-144335000D01*
X119391339Y-144335000D01*
X119304637Y-144205241D01*
X119104759Y-144005363D01*
X118869727Y-143848320D01*
X118608574Y-143740147D01*
X118331335Y-143685000D01*
X118048665Y-143685000D01*
X117771426Y-143740147D01*
X117510273Y-143848320D01*
X117275241Y-144005363D01*
X117075363Y-144205241D01*
X116988661Y-144335000D01*
X116851339Y-144335000D01*
X116764637Y-144205241D01*
X116564759Y-144005363D01*
X116329727Y-143848320D01*
X116068574Y-143740147D01*
X115791335Y-143685000D01*
X115508665Y-143685000D01*
X115231426Y-143740147D01*
X114970273Y-143848320D01*
X114735241Y-144005363D01*
X114535363Y-144205241D01*
X114448661Y-144335000D01*
X114311339Y-144335000D01*
X114224637Y-144205241D01*
X114024759Y-144005363D01*
X113789727Y-143848320D01*
X113528574Y-143740147D01*
X113251335Y-143685000D01*
X112968665Y-143685000D01*
X112691426Y-143740147D01*
X112430273Y-143848320D01*
X112195241Y-144005363D01*
X111996643Y-144203961D01*
X111995812Y-144195518D01*
X111959502Y-144075820D01*
X111900537Y-143965506D01*
X111821185Y-143868815D01*
X111724494Y-143789463D01*
X111614180Y-143730498D01*
X111494482Y-143694188D01*
X111370000Y-143681928D01*
X109770000Y-143681928D01*
X109645518Y-143694188D01*
X109525820Y-143730498D01*
X109415506Y-143789463D01*
X109318815Y-143868815D01*
X109239463Y-143965506D01*
X109180498Y-144075820D01*
X109144188Y-144195518D01*
X109131928Y-144320000D01*
X109131928Y-145920000D01*
X109144188Y-146044482D01*
X109180498Y-146164180D01*
X109239463Y-146274494D01*
X109318815Y-146371185D01*
X109415506Y-146450537D01*
X109525820Y-146509502D01*
X109645518Y-146545812D01*
X109770000Y-146558072D01*
X111370000Y-146558072D01*
X111494482Y-146545812D01*
X111614180Y-146509502D01*
X111724494Y-146450537D01*
X111821185Y-146371185D01*
X111900537Y-146274494D01*
X111959502Y-146164180D01*
X111995812Y-146044482D01*
X111996643Y-146036039D01*
X112195241Y-146234637D01*
X112430273Y-146391680D01*
X112691426Y-146499853D01*
X112968665Y-146555000D01*
X113251335Y-146555000D01*
X113528574Y-146499853D01*
X113789727Y-146391680D01*
X114024759Y-146234637D01*
X114224637Y-146034759D01*
X114311339Y-145905000D01*
X114448661Y-145905000D01*
X114535363Y-146034759D01*
X114735241Y-146234637D01*
X114970273Y-146391680D01*
X115231426Y-146499853D01*
X115508665Y-146555000D01*
X115791335Y-146555000D01*
X116068574Y-146499853D01*
X116329727Y-146391680D01*
X116564759Y-146234637D01*
X116764637Y-146034759D01*
X116851339Y-145905000D01*
X116988661Y-145905000D01*
X117075363Y-146034759D01*
X117275241Y-146234637D01*
X117510273Y-146391680D01*
X117771426Y-146499853D01*
X118048665Y-146555000D01*
X118331335Y-146555000D01*
X118608574Y-146499853D01*
X118869727Y-146391680D01*
X119104759Y-146234637D01*
X119304637Y-146034759D01*
X119391339Y-145905000D01*
X119528661Y-145905000D01*
X119615363Y-146034759D01*
X119815241Y-146234637D01*
X120050273Y-146391680D01*
X120311426Y-146499853D01*
X120588665Y-146555000D01*
X120871335Y-146555000D01*
X121148574Y-146499853D01*
X121409727Y-146391680D01*
X121644759Y-146234637D01*
X121844637Y-146034759D01*
X121931339Y-145905000D01*
X122068661Y-145905000D01*
X122155363Y-146034759D01*
X122355241Y-146234637D01*
X122485000Y-146321339D01*
X122485000Y-147421447D01*
X122481203Y-147460000D01*
X122485000Y-147498553D01*
X122485000Y-147498560D01*
X122496359Y-147613886D01*
X122541246Y-147761859D01*
X122614138Y-147898232D01*
X122712236Y-148017764D01*
X122742190Y-148042347D01*
X126167658Y-151467816D01*
X126192236Y-151497764D01*
X126222184Y-151522342D01*
X126222187Y-151522345D01*
X126251559Y-151546450D01*
X126311767Y-151595862D01*
X126375635Y-151630000D01*
X107965914Y-151630000D01*
X108156824Y-151439090D01*
X108508606Y-150912611D01*
X108750917Y-150327620D01*
X108874447Y-149706595D01*
X108874447Y-149073405D01*
X108750917Y-148452380D01*
X108508606Y-147867389D01*
X108156824Y-147340910D01*
X107709090Y-146893176D01*
X107182611Y-146541394D01*
X106597620Y-146299083D01*
X105976595Y-146175553D01*
X105343405Y-146175553D01*
X104722380Y-146299083D01*
X104137389Y-146541394D01*
X103610910Y-146893176D01*
X103240000Y-147264086D01*
X103240000Y-126925000D01*
X103531928Y-126925000D01*
X103544188Y-127049482D01*
X103580498Y-127169180D01*
X103639463Y-127279494D01*
X103718815Y-127376185D01*
X103815506Y-127455537D01*
X103925820Y-127514502D01*
X104045518Y-127550812D01*
X104170000Y-127563072D01*
X104409250Y-127560000D01*
X104568000Y-127401250D01*
X104568000Y-126577000D01*
X103693750Y-126577000D01*
X103535000Y-126735750D01*
X103531928Y-126925000D01*
X103240000Y-126925000D01*
X103240000Y-125975000D01*
X103531928Y-125975000D01*
X103535000Y-126164250D01*
X103693750Y-126323000D01*
X104568000Y-126323000D01*
X104568000Y-125498750D01*
X104409250Y-125340000D01*
X104170000Y-125336928D01*
X104045518Y-125349188D01*
X103925820Y-125385498D01*
X103815506Y-125444463D01*
X103718815Y-125523815D01*
X103639463Y-125620506D01*
X103580498Y-125730820D01*
X103544188Y-125850518D01*
X103531928Y-125975000D01*
X103240000Y-125975000D01*
X103240000Y-118425000D01*
X103621928Y-118425000D01*
X103634188Y-118549482D01*
X103670498Y-118669180D01*
X103729463Y-118779494D01*
X103808815Y-118876185D01*
X103905506Y-118955537D01*
X104015820Y-119014502D01*
X104135518Y-119050812D01*
X104260000Y-119063072D01*
X104499250Y-119060000D01*
X104658000Y-118901250D01*
X104658000Y-118077000D01*
X103783750Y-118077000D01*
X103625000Y-118235750D01*
X103621928Y-118425000D01*
X103240000Y-118425000D01*
X103240000Y-117475000D01*
X103621928Y-117475000D01*
X103625000Y-117664250D01*
X103783750Y-117823000D01*
X104658000Y-117823000D01*
X104658000Y-116998750D01*
X104499250Y-116840000D01*
X104260000Y-116836928D01*
X104135518Y-116849188D01*
X104015820Y-116885498D01*
X103905506Y-116944463D01*
X103808815Y-117023815D01*
X103729463Y-117120506D01*
X103670498Y-117230820D01*
X103634188Y-117350518D01*
X103621928Y-117475000D01*
X103240000Y-117475000D01*
X103240000Y-79720000D01*
X130391928Y-79720000D01*
X130391928Y-81420000D01*
X130404188Y-81544482D01*
X130440498Y-81664180D01*
X130499463Y-81774494D01*
X130578815Y-81871185D01*
X130675506Y-81950537D01*
X130785820Y-82009502D01*
X130858380Y-82031513D01*
X130726525Y-82163368D01*
X130564010Y-82406589D01*
X130452068Y-82676842D01*
X130395000Y-82963740D01*
X130395000Y-83256260D01*
X130452068Y-83543158D01*
X130564010Y-83813411D01*
X130726525Y-84056632D01*
X130933368Y-84263475D01*
X131107760Y-84380000D01*
X130933368Y-84496525D01*
X130726525Y-84703368D01*
X130564010Y-84946589D01*
X130452068Y-85216842D01*
X130395000Y-85503740D01*
X130395000Y-85796260D01*
X130452068Y-86083158D01*
X130564010Y-86353411D01*
X130726525Y-86596632D01*
X130933368Y-86803475D01*
X131107760Y-86920000D01*
X130933368Y-87036525D01*
X130726525Y-87243368D01*
X130564010Y-87486589D01*
X130452068Y-87756842D01*
X130395000Y-88043740D01*
X130395000Y-88336260D01*
X130452068Y-88623158D01*
X130564010Y-88893411D01*
X130726525Y-89136632D01*
X130933368Y-89343475D01*
X131107760Y-89460000D01*
X130933368Y-89576525D01*
X130726525Y-89783368D01*
X130564010Y-90026589D01*
X130452068Y-90296842D01*
X130395000Y-90583740D01*
X130395000Y-90876260D01*
X130452068Y-91163158D01*
X130564010Y-91433411D01*
X130726525Y-91676632D01*
X130933368Y-91883475D01*
X131115534Y-92005195D01*
X130998645Y-92074822D01*
X130782412Y-92269731D01*
X130608359Y-92503080D01*
X130483175Y-92765901D01*
X130438524Y-92913110D01*
X130559845Y-93143000D01*
X131753000Y-93143000D01*
X131753000Y-93123000D01*
X132007000Y-93123000D01*
X132007000Y-93143000D01*
X133200155Y-93143000D01*
X133321476Y-92913110D01*
X133276825Y-92765901D01*
X133151641Y-92503080D01*
X132977588Y-92269731D01*
X132761355Y-92074822D01*
X132644466Y-92005195D01*
X132826632Y-91883475D01*
X133033475Y-91676632D01*
X133195990Y-91433411D01*
X133307932Y-91163158D01*
X133365000Y-90876260D01*
X133365000Y-90583740D01*
X133307932Y-90296842D01*
X133195990Y-90026589D01*
X133033475Y-89783368D01*
X132826632Y-89576525D01*
X132652240Y-89460000D01*
X132826632Y-89343475D01*
X133033475Y-89136632D01*
X133195990Y-88893411D01*
X133307932Y-88623158D01*
X133365000Y-88336260D01*
X133365000Y-88043740D01*
X133307932Y-87756842D01*
X133195990Y-87486589D01*
X133033475Y-87243368D01*
X132826632Y-87036525D01*
X132652240Y-86920000D01*
X132826632Y-86803475D01*
X133033475Y-86596632D01*
X133195990Y-86353411D01*
X133307932Y-86083158D01*
X133365000Y-85796260D01*
X133365000Y-85503740D01*
X133307932Y-85216842D01*
X133195990Y-84946589D01*
X133033475Y-84703368D01*
X132826632Y-84496525D01*
X132652240Y-84380000D01*
X132826632Y-84263475D01*
X133033475Y-84056632D01*
X133195990Y-83813411D01*
X133307932Y-83543158D01*
X133365000Y-83256260D01*
X133365000Y-82963740D01*
X133307932Y-82676842D01*
X133195990Y-82406589D01*
X133033475Y-82163368D01*
X132901620Y-82031513D01*
X132974180Y-82009502D01*
X133084494Y-81950537D01*
X133181185Y-81871185D01*
X133260537Y-81774494D01*
X133319502Y-81664180D01*
X133355812Y-81544482D01*
X133368072Y-81420000D01*
X133368072Y-79720000D01*
X133355812Y-79595518D01*
X133319502Y-79475820D01*
X133260537Y-79365506D01*
X133181185Y-79268815D01*
X133084494Y-79189463D01*
X132974180Y-79130498D01*
X132854482Y-79094188D01*
X132730000Y-79081928D01*
X131030000Y-79081928D01*
X130905518Y-79094188D01*
X130785820Y-79130498D01*
X130675506Y-79189463D01*
X130578815Y-79268815D01*
X130499463Y-79365506D01*
X130440498Y-79475820D01*
X130404188Y-79595518D01*
X130391928Y-79720000D01*
X103240000Y-79720000D01*
X103240000Y-78337000D01*
X130442596Y-78337000D01*
X130653087Y-78477645D01*
X131147523Y-78682447D01*
X131672413Y-78786854D01*
X132207587Y-78786854D01*
X132732477Y-78682447D01*
X133226913Y-78477645D01*
X133437404Y-78337000D01*
X138630000Y-78337000D01*
X138654776Y-78334560D01*
X138678601Y-78327333D01*
X138700557Y-78315597D01*
X138719803Y-78299803D01*
X138735597Y-78280557D01*
X138747333Y-78258601D01*
X138754560Y-78234776D01*
X138757000Y-78210000D01*
X138757000Y-53320000D01*
X178422686Y-53320000D01*
X178343316Y-53438785D01*
G36*
X129085532Y-121115689D02*
G01*
X129085000Y-121118363D01*
X129085000Y-121361637D01*
X129132460Y-121600236D01*
X129225557Y-121824992D01*
X129360713Y-122027267D01*
X129532733Y-122199287D01*
X129735008Y-122334443D01*
X129959764Y-122427540D01*
X130198363Y-122475000D01*
X130441637Y-122475000D01*
X130680236Y-122427540D01*
X130904992Y-122334443D01*
X131107267Y-122199287D01*
X131279287Y-122027267D01*
X131414443Y-121824992D01*
X131507540Y-121600236D01*
X131555000Y-121361637D01*
X131555000Y-121215157D01*
X140007658Y-129667816D01*
X140032236Y-129697764D01*
X140062184Y-129722342D01*
X140062187Y-129722345D01*
X140091559Y-129746450D01*
X140151767Y-129795862D01*
X140288140Y-129868754D01*
X140401672Y-129903194D01*
X140436112Y-129913641D01*
X140450490Y-129915057D01*
X140551439Y-129925000D01*
X140551446Y-129925000D01*
X140589999Y-129928797D01*
X140628552Y-129925000D01*
X156334843Y-129925000D01*
X157345001Y-130935159D01*
X157345000Y-143574842D01*
X156184843Y-144735000D01*
X154381474Y-144735000D01*
X154273475Y-144573368D01*
X154066632Y-144366525D01*
X153892240Y-144250000D01*
X154066632Y-144133475D01*
X154273475Y-143926632D01*
X154435990Y-143683411D01*
X154547932Y-143413158D01*
X154605000Y-143126260D01*
X154605000Y-142833740D01*
X154547932Y-142546842D01*
X154435990Y-142276589D01*
X154273475Y-142033368D01*
X154066632Y-141826525D01*
X153823411Y-141664010D01*
X153553158Y-141552068D01*
X153266260Y-141495000D01*
X152973740Y-141495000D01*
X152686842Y-141552068D01*
X152416589Y-141664010D01*
X152173368Y-141826525D01*
X151966525Y-142033368D01*
X151858526Y-142195000D01*
X149508555Y-142195000D01*
X149470000Y-142191203D01*
X149431444Y-142195000D01*
X149431439Y-142195000D01*
X149391026Y-142198980D01*
X149316113Y-142206358D01*
X149168140Y-142251246D01*
X149031767Y-142324138D01*
X148971559Y-142373550D01*
X148942187Y-142397655D01*
X148942184Y-142397658D01*
X148912236Y-142422236D01*
X148887658Y-142452184D01*
X141184843Y-150155000D01*
X135495157Y-150155000D01*
X136217815Y-149432342D01*
X136247764Y-149407764D01*
X136345862Y-149288233D01*
X136418754Y-149151860D01*
X136463641Y-149003887D01*
X136475000Y-148888561D01*
X136475000Y-148888554D01*
X136478797Y-148850001D01*
X136475000Y-148811448D01*
X136475000Y-148541474D01*
X136636632Y-148433475D01*
X136843475Y-148226632D01*
X136960000Y-148052240D01*
X137076525Y-148226632D01*
X137283368Y-148433475D01*
X137526589Y-148595990D01*
X137796842Y-148707932D01*
X138083740Y-148765000D01*
X138376260Y-148765000D01*
X138663158Y-148707932D01*
X138933411Y-148595990D01*
X139176632Y-148433475D01*
X139383475Y-148226632D01*
X139545990Y-147983411D01*
X139657932Y-147713158D01*
X139715000Y-147426260D01*
X139715000Y-147133740D01*
X139657932Y-146846842D01*
X139545990Y-146576589D01*
X139383475Y-146333368D01*
X139251620Y-146201513D01*
X139324180Y-146179502D01*
X139434494Y-146120537D01*
X139531185Y-146041185D01*
X139610537Y-145944494D01*
X139669502Y-145834180D01*
X139705812Y-145714482D01*
X139718072Y-145590000D01*
X139718072Y-143890000D01*
X139705812Y-143765518D01*
X139669502Y-143645820D01*
X139610537Y-143535506D01*
X139531185Y-143438815D01*
X139434494Y-143359463D01*
X139324180Y-143300498D01*
X139204482Y-143264188D01*
X139080000Y-143251928D01*
X139015000Y-143251928D01*
X139015000Y-140008363D01*
X141075000Y-140008363D01*
X141075000Y-140251637D01*
X141122460Y-140490236D01*
X141215557Y-140714992D01*
X141350713Y-140917267D01*
X141522733Y-141089287D01*
X141725008Y-141224443D01*
X141949764Y-141317540D01*
X142188363Y-141365000D01*
X142431637Y-141365000D01*
X142670236Y-141317540D01*
X142894992Y-141224443D01*
X143097267Y-141089287D01*
X143269287Y-140917267D01*
X143270802Y-140915000D01*
X149461447Y-140915000D01*
X149500000Y-140918797D01*
X149538553Y-140915000D01*
X149538561Y-140915000D01*
X149653887Y-140903641D01*
X149801860Y-140858754D01*
X149938233Y-140785862D01*
X150057764Y-140687764D01*
X150082347Y-140657810D01*
X156127810Y-134612347D01*
X156157764Y-134587764D01*
X156255862Y-134468233D01*
X156328754Y-134331860D01*
X156373642Y-134183887D01*
X156381162Y-134107523D01*
X156385000Y-134068561D01*
X156385000Y-134068556D01*
X156388797Y-134030000D01*
X156385000Y-133991444D01*
X156385000Y-133450802D01*
X156387267Y-133449287D01*
X156559287Y-133277267D01*
X156694443Y-133074992D01*
X156787540Y-132850236D01*
X156835000Y-132611637D01*
X156835000Y-132368363D01*
X156787540Y-132129764D01*
X156694443Y-131905008D01*
X156559287Y-131702733D01*
X156387267Y-131530713D01*
X156184992Y-131395557D01*
X155960236Y-131302460D01*
X155721637Y-131255000D01*
X155478363Y-131255000D01*
X155239764Y-131302460D01*
X155015008Y-131395557D01*
X154812733Y-131530713D01*
X154640713Y-131702733D01*
X154505557Y-131905008D01*
X154412460Y-132129764D01*
X154365000Y-132368363D01*
X154365000Y-132611637D01*
X154412460Y-132850236D01*
X154505557Y-133074992D01*
X154640713Y-133277267D01*
X154812733Y-133449287D01*
X154815001Y-133450802D01*
X154815001Y-133704842D01*
X149174843Y-139345000D01*
X143270802Y-139345000D01*
X143269287Y-139342733D01*
X143097267Y-139170713D01*
X142894992Y-139035557D01*
X142670236Y-138942460D01*
X142431637Y-138895000D01*
X142188363Y-138895000D01*
X141949764Y-138942460D01*
X141725008Y-139035557D01*
X141522733Y-139170713D01*
X141350713Y-139342733D01*
X141215557Y-139545008D01*
X141122460Y-139769764D01*
X141075000Y-140008363D01*
X139015000Y-140008363D01*
X139015000Y-138038556D01*
X139018797Y-138000000D01*
X139015000Y-137961444D01*
X139015000Y-137961439D01*
X139010744Y-137918232D01*
X139003642Y-137846113D01*
X138958754Y-137698140D01*
X138943478Y-137669561D01*
X138955000Y-137611637D01*
X138955000Y-137368363D01*
X138907540Y-137129764D01*
X138814443Y-136905008D01*
X138679287Y-136702733D01*
X138507267Y-136530713D01*
X138304992Y-136395557D01*
X138080236Y-136302460D01*
X137841637Y-136255000D01*
X137598363Y-136255000D01*
X137359764Y-136302460D01*
X137135008Y-136395557D01*
X136932733Y-136530713D01*
X136760713Y-136702733D01*
X136625557Y-136905008D01*
X136532460Y-137129764D01*
X136485000Y-137368363D01*
X136485000Y-137611637D01*
X136532460Y-137850236D01*
X136625557Y-138074992D01*
X136760713Y-138277267D01*
X136932733Y-138449287D01*
X137135008Y-138584443D01*
X137359764Y-138677540D01*
X137445001Y-138694495D01*
X137445000Y-143251928D01*
X137380000Y-143251928D01*
X137255518Y-143264188D01*
X137135820Y-143300498D01*
X137025506Y-143359463D01*
X136928815Y-143438815D01*
X136849463Y-143535506D01*
X136790498Y-143645820D01*
X136768487Y-143718380D01*
X136636632Y-143586525D01*
X136475000Y-143478526D01*
X136475000Y-134632413D01*
X138913146Y-134632413D01*
X138913146Y-135167587D01*
X139017553Y-135692477D01*
X139222355Y-136186913D01*
X139519681Y-136631894D01*
X139898106Y-137010319D01*
X140343087Y-137307645D01*
X140837523Y-137512447D01*
X141362413Y-137616854D01*
X141897587Y-137616854D01*
X142422477Y-137512447D01*
X142916913Y-137307645D01*
X143361894Y-137010319D01*
X143740319Y-136631894D01*
X144037645Y-136186913D01*
X144242447Y-135692477D01*
X144346854Y-135167587D01*
X144346854Y-134632413D01*
X144242447Y-134107523D01*
X144037645Y-133613087D01*
X143740319Y-133168106D01*
X143361894Y-132789681D01*
X142916913Y-132492355D01*
X142422477Y-132287553D01*
X141897587Y-132183146D01*
X141362413Y-132183146D01*
X140837523Y-132287553D01*
X140343087Y-132492355D01*
X139898106Y-132789681D01*
X139519681Y-133168106D01*
X139222355Y-133613087D01*
X139017553Y-134107523D01*
X138913146Y-134632413D01*
X136475000Y-134632413D01*
X136475000Y-131558556D01*
X136478797Y-131520000D01*
X136475000Y-131481444D01*
X136475000Y-131481439D01*
X136467153Y-131401768D01*
X136463642Y-131366113D01*
X136418754Y-131218140D01*
X136400580Y-131184139D01*
X136345862Y-131081767D01*
X136247764Y-130962236D01*
X136217810Y-130937653D01*
X129372347Y-124092190D01*
X129347764Y-124062236D01*
X129228233Y-123964138D01*
X129091860Y-123891246D01*
X128943887Y-123846359D01*
X128828561Y-123835000D01*
X128828553Y-123835000D01*
X128790000Y-123831203D01*
X128751447Y-123835000D01*
X128068072Y-123835000D01*
X128068072Y-123545000D01*
X128055812Y-123420518D01*
X128055655Y-123420000D01*
X128055812Y-123419482D01*
X128068072Y-123295000D01*
X128068072Y-122745000D01*
X128055812Y-122620518D01*
X128055655Y-122620000D01*
X128055812Y-122619482D01*
X128068072Y-122495000D01*
X128068072Y-121945000D01*
X128055812Y-121820518D01*
X128055467Y-121819380D01*
X128065000Y-121705750D01*
X127972917Y-121613667D01*
X127960537Y-121590506D01*
X127881185Y-121493815D01*
X127791241Y-121420000D01*
X127881185Y-121346185D01*
X127960537Y-121249494D01*
X127972917Y-121226333D01*
X128065000Y-121134250D01*
X128055467Y-121020620D01*
X128055812Y-121019482D01*
X128068072Y-120895000D01*
X128068072Y-120605000D01*
X128574843Y-120605000D01*
X129085532Y-121115689D01*
G37*
X129085532Y-121115689D02*
X129085000Y-121118363D01*
X129085000Y-121361637D01*
X129132460Y-121600236D01*
X129225557Y-121824992D01*
X129360713Y-122027267D01*
X129532733Y-122199287D01*
X129735008Y-122334443D01*
X129959764Y-122427540D01*
X130198363Y-122475000D01*
X130441637Y-122475000D01*
X130680236Y-122427540D01*
X130904992Y-122334443D01*
X131107267Y-122199287D01*
X131279287Y-122027267D01*
X131414443Y-121824992D01*
X131507540Y-121600236D01*
X131555000Y-121361637D01*
X131555000Y-121215157D01*
X140007658Y-129667816D01*
X140032236Y-129697764D01*
X140062184Y-129722342D01*
X140062187Y-129722345D01*
X140091559Y-129746450D01*
X140151767Y-129795862D01*
X140288140Y-129868754D01*
X140401672Y-129903194D01*
X140436112Y-129913641D01*
X140450490Y-129915057D01*
X140551439Y-129925000D01*
X140551446Y-129925000D01*
X140589999Y-129928797D01*
X140628552Y-129925000D01*
X156334843Y-129925000D01*
X157345001Y-130935159D01*
X157345000Y-143574842D01*
X156184843Y-144735000D01*
X154381474Y-144735000D01*
X154273475Y-144573368D01*
X154066632Y-144366525D01*
X153892240Y-144250000D01*
X154066632Y-144133475D01*
X154273475Y-143926632D01*
X154435990Y-143683411D01*
X154547932Y-143413158D01*
X154605000Y-143126260D01*
X154605000Y-142833740D01*
X154547932Y-142546842D01*
X154435990Y-142276589D01*
X154273475Y-142033368D01*
X154066632Y-141826525D01*
X153823411Y-141664010D01*
X153553158Y-141552068D01*
X153266260Y-141495000D01*
X152973740Y-141495000D01*
X152686842Y-141552068D01*
X152416589Y-141664010D01*
X152173368Y-141826525D01*
X151966525Y-142033368D01*
X151858526Y-142195000D01*
X149508555Y-142195000D01*
X149470000Y-142191203D01*
X149431444Y-142195000D01*
X149431439Y-142195000D01*
X149391026Y-142198980D01*
X149316113Y-142206358D01*
X149168140Y-142251246D01*
X149031767Y-142324138D01*
X148971559Y-142373550D01*
X148942187Y-142397655D01*
X148942184Y-142397658D01*
X148912236Y-142422236D01*
X148887658Y-142452184D01*
X141184843Y-150155000D01*
X135495157Y-150155000D01*
X136217815Y-149432342D01*
X136247764Y-149407764D01*
X136345862Y-149288233D01*
X136418754Y-149151860D01*
X136463641Y-149003887D01*
X136475000Y-148888561D01*
X136475000Y-148888554D01*
X136478797Y-148850001D01*
X136475000Y-148811448D01*
X136475000Y-148541474D01*
X136636632Y-148433475D01*
X136843475Y-148226632D01*
X136960000Y-148052240D01*
X137076525Y-148226632D01*
X137283368Y-148433475D01*
X137526589Y-148595990D01*
X137796842Y-148707932D01*
X138083740Y-148765000D01*
X138376260Y-148765000D01*
X138663158Y-148707932D01*
X138933411Y-148595990D01*
X139176632Y-148433475D01*
X139383475Y-148226632D01*
X139545990Y-147983411D01*
X139657932Y-147713158D01*
X139715000Y-147426260D01*
X139715000Y-147133740D01*
X139657932Y-146846842D01*
X139545990Y-146576589D01*
X139383475Y-146333368D01*
X139251620Y-146201513D01*
X139324180Y-146179502D01*
X139434494Y-146120537D01*
X139531185Y-146041185D01*
X139610537Y-145944494D01*
X139669502Y-145834180D01*
X139705812Y-145714482D01*
X139718072Y-145590000D01*
X139718072Y-143890000D01*
X139705812Y-143765518D01*
X139669502Y-143645820D01*
X139610537Y-143535506D01*
X139531185Y-143438815D01*
X139434494Y-143359463D01*
X139324180Y-143300498D01*
X139204482Y-143264188D01*
X139080000Y-143251928D01*
X139015000Y-143251928D01*
X139015000Y-140008363D01*
X141075000Y-140008363D01*
X141075000Y-140251637D01*
X141122460Y-140490236D01*
X141215557Y-140714992D01*
X141350713Y-140917267D01*
X141522733Y-141089287D01*
X141725008Y-141224443D01*
X141949764Y-141317540D01*
X142188363Y-141365000D01*
X142431637Y-141365000D01*
X142670236Y-141317540D01*
X142894992Y-141224443D01*
X143097267Y-141089287D01*
X143269287Y-140917267D01*
X143270802Y-140915000D01*
X149461447Y-140915000D01*
X149500000Y-140918797D01*
X149538553Y-140915000D01*
X149538561Y-140915000D01*
X149653887Y-140903641D01*
X149801860Y-140858754D01*
X149938233Y-140785862D01*
X150057764Y-140687764D01*
X150082347Y-140657810D01*
X156127810Y-134612347D01*
X156157764Y-134587764D01*
X156255862Y-134468233D01*
X156328754Y-134331860D01*
X156373642Y-134183887D01*
X156381162Y-134107523D01*
X156385000Y-134068561D01*
X156385000Y-134068556D01*
X156388797Y-134030000D01*
X156385000Y-133991444D01*
X156385000Y-133450802D01*
X156387267Y-133449287D01*
X156559287Y-133277267D01*
X156694443Y-133074992D01*
X156787540Y-132850236D01*
X156835000Y-132611637D01*
X156835000Y-132368363D01*
X156787540Y-132129764D01*
X156694443Y-131905008D01*
X156559287Y-131702733D01*
X156387267Y-131530713D01*
X156184992Y-131395557D01*
X155960236Y-131302460D01*
X155721637Y-131255000D01*
X155478363Y-131255000D01*
X155239764Y-131302460D01*
X155015008Y-131395557D01*
X154812733Y-131530713D01*
X154640713Y-131702733D01*
X154505557Y-131905008D01*
X154412460Y-132129764D01*
X154365000Y-132368363D01*
X154365000Y-132611637D01*
X154412460Y-132850236D01*
X154505557Y-133074992D01*
X154640713Y-133277267D01*
X154812733Y-133449287D01*
X154815001Y-133450802D01*
X154815001Y-133704842D01*
X149174843Y-139345000D01*
X143270802Y-139345000D01*
X143269287Y-139342733D01*
X143097267Y-139170713D01*
X142894992Y-139035557D01*
X142670236Y-138942460D01*
X142431637Y-138895000D01*
X142188363Y-138895000D01*
X141949764Y-138942460D01*
X141725008Y-139035557D01*
X141522733Y-139170713D01*
X141350713Y-139342733D01*
X141215557Y-139545008D01*
X141122460Y-139769764D01*
X141075000Y-140008363D01*
X139015000Y-140008363D01*
X139015000Y-138038556D01*
X139018797Y-138000000D01*
X139015000Y-137961444D01*
X139015000Y-137961439D01*
X139010744Y-137918232D01*
X139003642Y-137846113D01*
X138958754Y-137698140D01*
X138943478Y-137669561D01*
X138955000Y-137611637D01*
X138955000Y-137368363D01*
X138907540Y-137129764D01*
X138814443Y-136905008D01*
X138679287Y-136702733D01*
X138507267Y-136530713D01*
X138304992Y-136395557D01*
X138080236Y-136302460D01*
X137841637Y-136255000D01*
X137598363Y-136255000D01*
X137359764Y-136302460D01*
X137135008Y-136395557D01*
X136932733Y-136530713D01*
X136760713Y-136702733D01*
X136625557Y-136905008D01*
X136532460Y-137129764D01*
X136485000Y-137368363D01*
X136485000Y-137611637D01*
X136532460Y-137850236D01*
X136625557Y-138074992D01*
X136760713Y-138277267D01*
X136932733Y-138449287D01*
X137135008Y-138584443D01*
X137359764Y-138677540D01*
X137445001Y-138694495D01*
X137445000Y-143251928D01*
X137380000Y-143251928D01*
X137255518Y-143264188D01*
X137135820Y-143300498D01*
X137025506Y-143359463D01*
X136928815Y-143438815D01*
X136849463Y-143535506D01*
X136790498Y-143645820D01*
X136768487Y-143718380D01*
X136636632Y-143586525D01*
X136475000Y-143478526D01*
X136475000Y-134632413D01*
X138913146Y-134632413D01*
X138913146Y-135167587D01*
X139017553Y-135692477D01*
X139222355Y-136186913D01*
X139519681Y-136631894D01*
X139898106Y-137010319D01*
X140343087Y-137307645D01*
X140837523Y-137512447D01*
X141362413Y-137616854D01*
X141897587Y-137616854D01*
X142422477Y-137512447D01*
X142916913Y-137307645D01*
X143361894Y-137010319D01*
X143740319Y-136631894D01*
X144037645Y-136186913D01*
X144242447Y-135692477D01*
X144346854Y-135167587D01*
X144346854Y-134632413D01*
X144242447Y-134107523D01*
X144037645Y-133613087D01*
X143740319Y-133168106D01*
X143361894Y-132789681D01*
X142916913Y-132492355D01*
X142422477Y-132287553D01*
X141897587Y-132183146D01*
X141362413Y-132183146D01*
X140837523Y-132287553D01*
X140343087Y-132492355D01*
X139898106Y-132789681D01*
X139519681Y-133168106D01*
X139222355Y-133613087D01*
X139017553Y-134107523D01*
X138913146Y-134632413D01*
X136475000Y-134632413D01*
X136475000Y-131558556D01*
X136478797Y-131520000D01*
X136475000Y-131481444D01*
X136475000Y-131481439D01*
X136467153Y-131401768D01*
X136463642Y-131366113D01*
X136418754Y-131218140D01*
X136400580Y-131184139D01*
X136345862Y-131081767D01*
X136247764Y-130962236D01*
X136217810Y-130937653D01*
X129372347Y-124092190D01*
X129347764Y-124062236D01*
X129228233Y-123964138D01*
X129091860Y-123891246D01*
X128943887Y-123846359D01*
X128828561Y-123835000D01*
X128828553Y-123835000D01*
X128790000Y-123831203D01*
X128751447Y-123835000D01*
X128068072Y-123835000D01*
X128068072Y-123545000D01*
X128055812Y-123420518D01*
X128055655Y-123420000D01*
X128055812Y-123419482D01*
X128068072Y-123295000D01*
X128068072Y-122745000D01*
X128055812Y-122620518D01*
X128055655Y-122620000D01*
X128055812Y-122619482D01*
X128068072Y-122495000D01*
X128068072Y-121945000D01*
X128055812Y-121820518D01*
X128055467Y-121819380D01*
X128065000Y-121705750D01*
X127972917Y-121613667D01*
X127960537Y-121590506D01*
X127881185Y-121493815D01*
X127791241Y-121420000D01*
X127881185Y-121346185D01*
X127960537Y-121249494D01*
X127972917Y-121226333D01*
X128065000Y-121134250D01*
X128055467Y-121020620D01*
X128055812Y-121019482D01*
X128068072Y-120895000D01*
X128068072Y-120605000D01*
X128574843Y-120605000D01*
X129085532Y-121115689D01*
G36*
X132365001Y-135535158D02*
G01*
X132365000Y-143478526D01*
X132203368Y-143586525D01*
X131996525Y-143793368D01*
X131834010Y-144036589D01*
X131722068Y-144306842D01*
X131665000Y-144593740D01*
X131665000Y-144886260D01*
X131722068Y-145173158D01*
X131834010Y-145443411D01*
X131996525Y-145686632D01*
X132203368Y-145893475D01*
X132379406Y-146011100D01*
X132149731Y-146182412D01*
X131954822Y-146398645D01*
X131805843Y-146648748D01*
X131708519Y-146923109D01*
X131829186Y-147153000D01*
X133023000Y-147153000D01*
X133023000Y-147133000D01*
X133277000Y-147133000D01*
X133277000Y-147153000D01*
X133297000Y-147153000D01*
X133297000Y-147407000D01*
X133277000Y-147407000D01*
X133277000Y-148600155D01*
X133506890Y-148721476D01*
X133654099Y-148676825D01*
X133916920Y-148551641D01*
X134150269Y-148377588D01*
X134345178Y-148161355D01*
X134414805Y-148044466D01*
X134536525Y-148226632D01*
X134743368Y-148433475D01*
X134895030Y-148534812D01*
X134164843Y-149265000D01*
X129545158Y-149265000D01*
X128755000Y-148474843D01*
X128755000Y-147636891D01*
X131708519Y-147636891D01*
X131805843Y-147911252D01*
X131954822Y-148161355D01*
X132149731Y-148377588D01*
X132383080Y-148551641D01*
X132645901Y-148676825D01*
X132793110Y-148721476D01*
X133023000Y-148600155D01*
X133023000Y-147407000D01*
X131829186Y-147407000D01*
X131708519Y-147636891D01*
X128755000Y-147636891D01*
X128755000Y-132228556D01*
X128758797Y-132190000D01*
X128755000Y-132151444D01*
X128755000Y-132151439D01*
X128750165Y-132102345D01*
X128743642Y-132036113D01*
X128698754Y-131888140D01*
X128690003Y-131871768D01*
X128676674Y-131846831D01*
X132365001Y-135535158D01*
G37*
X132365001Y-135535158D02*
X132365000Y-143478526D01*
X132203368Y-143586525D01*
X131996525Y-143793368D01*
X131834010Y-144036589D01*
X131722068Y-144306842D01*
X131665000Y-144593740D01*
X131665000Y-144886260D01*
X131722068Y-145173158D01*
X131834010Y-145443411D01*
X131996525Y-145686632D01*
X132203368Y-145893475D01*
X132379406Y-146011100D01*
X132149731Y-146182412D01*
X131954822Y-146398645D01*
X131805843Y-146648748D01*
X131708519Y-146923109D01*
X131829186Y-147153000D01*
X133023000Y-147153000D01*
X133023000Y-147133000D01*
X133277000Y-147133000D01*
X133277000Y-147153000D01*
X133297000Y-147153000D01*
X133297000Y-147407000D01*
X133277000Y-147407000D01*
X133277000Y-148600155D01*
X133506890Y-148721476D01*
X133654099Y-148676825D01*
X133916920Y-148551641D01*
X134150269Y-148377588D01*
X134345178Y-148161355D01*
X134414805Y-148044466D01*
X134536525Y-148226632D01*
X134743368Y-148433475D01*
X134895030Y-148534812D01*
X134164843Y-149265000D01*
X129545158Y-149265000D01*
X128755000Y-148474843D01*
X128755000Y-147636891D01*
X131708519Y-147636891D01*
X131805843Y-147911252D01*
X131954822Y-148161355D01*
X132149731Y-148377588D01*
X132383080Y-148551641D01*
X132645901Y-148676825D01*
X132793110Y-148721476D01*
X133023000Y-148600155D01*
X133023000Y-147407000D01*
X131829186Y-147407000D01*
X131708519Y-147636891D01*
X128755000Y-147636891D01*
X128755000Y-132228556D01*
X128758797Y-132190000D01*
X128755000Y-132151444D01*
X128755000Y-132151439D01*
X128750165Y-132102345D01*
X128743642Y-132036113D01*
X128698754Y-131888140D01*
X128690003Y-131871768D01*
X128676674Y-131846831D01*
X132365001Y-135535158D01*
G36*
X124780518Y-118995812D02*
G01*
X124905000Y-119008072D01*
X125191928Y-119008072D01*
X125191928Y-119295000D01*
X125204188Y-119419482D01*
X125204345Y-119420000D01*
X125204188Y-119420518D01*
X125191928Y-119545000D01*
X125191928Y-120095000D01*
X125204188Y-120219482D01*
X125204345Y-120220000D01*
X125204188Y-120220518D01*
X125191928Y-120345000D01*
X125191928Y-120895000D01*
X125204188Y-121019482D01*
X125204533Y-121020620D01*
X125195000Y-121134250D01*
X125287083Y-121226333D01*
X125299463Y-121249494D01*
X125378815Y-121346185D01*
X125468759Y-121420000D01*
X125378815Y-121493815D01*
X125299463Y-121590506D01*
X125287083Y-121613667D01*
X125195000Y-121705750D01*
X125204533Y-121819380D01*
X125204188Y-121820518D01*
X125191928Y-121945000D01*
X125191928Y-122495000D01*
X125204188Y-122619482D01*
X125204345Y-122620000D01*
X125204188Y-122620518D01*
X125191928Y-122745000D01*
X125191928Y-123035000D01*
X122385157Y-123035000D01*
X121842345Y-122492188D01*
X121817764Y-122462236D01*
X121698233Y-122364138D01*
X121561860Y-122291246D01*
X121413887Y-122246359D01*
X121298561Y-122235000D01*
X121298553Y-122235000D01*
X121260000Y-122231203D01*
X121221447Y-122235000D01*
X119309518Y-122235000D01*
X119291241Y-122220000D01*
X119381185Y-122146185D01*
X119460537Y-122049494D01*
X119472917Y-122026333D01*
X119565000Y-121934250D01*
X119555467Y-121820620D01*
X119555812Y-121819482D01*
X119568072Y-121695000D01*
X119568072Y-121145000D01*
X119555812Y-121020518D01*
X119555467Y-121019380D01*
X119565000Y-120905750D01*
X119472917Y-120813667D01*
X119460537Y-120790506D01*
X119381185Y-120693815D01*
X119291241Y-120620000D01*
X119381185Y-120546185D01*
X119460537Y-120449494D01*
X119472917Y-120426333D01*
X119565000Y-120334250D01*
X119555467Y-120220620D01*
X119555812Y-120219482D01*
X119568072Y-120095000D01*
X119568072Y-119545000D01*
X119555812Y-119420518D01*
X119555655Y-119420000D01*
X119555812Y-119419482D01*
X119568072Y-119295000D01*
X119568072Y-119008072D01*
X119855000Y-119008072D01*
X119979482Y-118995812D01*
X119980000Y-118995655D01*
X119980518Y-118995812D01*
X120105000Y-119008072D01*
X120655000Y-119008072D01*
X120779482Y-118995812D01*
X120780000Y-118995655D01*
X120780518Y-118995812D01*
X120905000Y-119008072D01*
X121270602Y-119008072D01*
X121274039Y-119014502D01*
X121324139Y-119108233D01*
X121364690Y-119157644D01*
X121397655Y-119197812D01*
X121397659Y-119197816D01*
X121422237Y-119227764D01*
X121452185Y-119252342D01*
X122245000Y-120045157D01*
X122245000Y-120101637D01*
X122292460Y-120340236D01*
X122385557Y-120564992D01*
X122520713Y-120767267D01*
X122692733Y-120939287D01*
X122895008Y-121074443D01*
X123119764Y-121167540D01*
X123358363Y-121215000D01*
X123601637Y-121215000D01*
X123840236Y-121167540D01*
X124064992Y-121074443D01*
X124267267Y-120939287D01*
X124439287Y-120767267D01*
X124574443Y-120564992D01*
X124667540Y-120340236D01*
X124715000Y-120101637D01*
X124715000Y-119858363D01*
X124667540Y-119619764D01*
X124574443Y-119395008D01*
X124439287Y-119192733D01*
X124267267Y-119020713D01*
X124248348Y-119008072D01*
X124655000Y-119008072D01*
X124779482Y-118995812D01*
X124780000Y-118995655D01*
X124780518Y-118995812D01*
G37*
X124780518Y-118995812D02*
X124905000Y-119008072D01*
X125191928Y-119008072D01*
X125191928Y-119295000D01*
X125204188Y-119419482D01*
X125204345Y-119420000D01*
X125204188Y-119420518D01*
X125191928Y-119545000D01*
X125191928Y-120095000D01*
X125204188Y-120219482D01*
X125204345Y-120220000D01*
X125204188Y-120220518D01*
X125191928Y-120345000D01*
X125191928Y-120895000D01*
X125204188Y-121019482D01*
X125204533Y-121020620D01*
X125195000Y-121134250D01*
X125287083Y-121226333D01*
X125299463Y-121249494D01*
X125378815Y-121346185D01*
X125468759Y-121420000D01*
X125378815Y-121493815D01*
X125299463Y-121590506D01*
X125287083Y-121613667D01*
X125195000Y-121705750D01*
X125204533Y-121819380D01*
X125204188Y-121820518D01*
X125191928Y-121945000D01*
X125191928Y-122495000D01*
X125204188Y-122619482D01*
X125204345Y-122620000D01*
X125204188Y-122620518D01*
X125191928Y-122745000D01*
X125191928Y-123035000D01*
X122385157Y-123035000D01*
X121842345Y-122492188D01*
X121817764Y-122462236D01*
X121698233Y-122364138D01*
X121561860Y-122291246D01*
X121413887Y-122246359D01*
X121298561Y-122235000D01*
X121298553Y-122235000D01*
X121260000Y-122231203D01*
X121221447Y-122235000D01*
X119309518Y-122235000D01*
X119291241Y-122220000D01*
X119381185Y-122146185D01*
X119460537Y-122049494D01*
X119472917Y-122026333D01*
X119565000Y-121934250D01*
X119555467Y-121820620D01*
X119555812Y-121819482D01*
X119568072Y-121695000D01*
X119568072Y-121145000D01*
X119555812Y-121020518D01*
X119555467Y-121019380D01*
X119565000Y-120905750D01*
X119472917Y-120813667D01*
X119460537Y-120790506D01*
X119381185Y-120693815D01*
X119291241Y-120620000D01*
X119381185Y-120546185D01*
X119460537Y-120449494D01*
X119472917Y-120426333D01*
X119565000Y-120334250D01*
X119555467Y-120220620D01*
X119555812Y-120219482D01*
X119568072Y-120095000D01*
X119568072Y-119545000D01*
X119555812Y-119420518D01*
X119555655Y-119420000D01*
X119555812Y-119419482D01*
X119568072Y-119295000D01*
X119568072Y-119008072D01*
X119855000Y-119008072D01*
X119979482Y-118995812D01*
X119980000Y-118995655D01*
X119980518Y-118995812D01*
X120105000Y-119008072D01*
X120655000Y-119008072D01*
X120779482Y-118995812D01*
X120780000Y-118995655D01*
X120780518Y-118995812D01*
X120905000Y-119008072D01*
X121270602Y-119008072D01*
X121274039Y-119014502D01*
X121324139Y-119108233D01*
X121364690Y-119157644D01*
X121397655Y-119197812D01*
X121397659Y-119197816D01*
X121422237Y-119227764D01*
X121452185Y-119252342D01*
X122245000Y-120045157D01*
X122245000Y-120101637D01*
X122292460Y-120340236D01*
X122385557Y-120564992D01*
X122520713Y-120767267D01*
X122692733Y-120939287D01*
X122895008Y-121074443D01*
X123119764Y-121167540D01*
X123358363Y-121215000D01*
X123601637Y-121215000D01*
X123840236Y-121167540D01*
X124064992Y-121074443D01*
X124267267Y-120939287D01*
X124439287Y-120767267D01*
X124574443Y-120564992D01*
X124667540Y-120340236D01*
X124715000Y-120101637D01*
X124715000Y-119858363D01*
X124667540Y-119619764D01*
X124574443Y-119395008D01*
X124439287Y-119192733D01*
X124267267Y-119020713D01*
X124248348Y-119008072D01*
X124655000Y-119008072D01*
X124779482Y-118995812D01*
X124780000Y-118995655D01*
X124780518Y-118995812D01*
G36*
X122972658Y-109862816D02*
G01*
X122997236Y-109892764D01*
X123027184Y-109917342D01*
X123027187Y-109917345D01*
X123032772Y-109921928D01*
X123116767Y-109990862D01*
X123253140Y-110063754D01*
X123366672Y-110098194D01*
X123401112Y-110108641D01*
X123415490Y-110110057D01*
X123516439Y-110120000D01*
X123516446Y-110120000D01*
X123554999Y-110123797D01*
X123593552Y-110120000D01*
X124713563Y-110120000D01*
X124787425Y-110210000D01*
X124704488Y-110311058D01*
X124623577Y-110462433D01*
X124573752Y-110626684D01*
X124556928Y-110797500D01*
X124556928Y-111372500D01*
X124573752Y-111543316D01*
X124623577Y-111707567D01*
X124704488Y-111858942D01*
X124802037Y-111977805D01*
X121942025Y-114837818D01*
X121908754Y-114728140D01*
X121866345Y-114648798D01*
X121835862Y-114591767D01*
X121737764Y-114472236D01*
X121707811Y-114447654D01*
X120795000Y-113534843D01*
X120795000Y-113451474D01*
X120956632Y-113343475D01*
X121163475Y-113136632D01*
X121325990Y-112893411D01*
X121437932Y-112623158D01*
X121495000Y-112336260D01*
X121495000Y-112043740D01*
X121437932Y-111756842D01*
X121325990Y-111486589D01*
X121163475Y-111243368D01*
X120956632Y-111036525D01*
X120713411Y-110874010D01*
X120443158Y-110762068D01*
X120156260Y-110705000D01*
X119863740Y-110705000D01*
X119576842Y-110762068D01*
X119306589Y-110874010D01*
X119063368Y-111036525D01*
X118931513Y-111168380D01*
X118909502Y-111095820D01*
X118850537Y-110985506D01*
X118771185Y-110888815D01*
X118674494Y-110809463D01*
X118564180Y-110750498D01*
X118444482Y-110714188D01*
X118320000Y-110701928D01*
X116620000Y-110701928D01*
X116495518Y-110714188D01*
X116375820Y-110750498D01*
X116265506Y-110809463D01*
X116168815Y-110888815D01*
X116089463Y-110985506D01*
X116030498Y-111095820D01*
X115994188Y-111215518D01*
X115981928Y-111340000D01*
X115981928Y-113040000D01*
X115994188Y-113164482D01*
X116030498Y-113284180D01*
X116089463Y-113394494D01*
X116168815Y-113491185D01*
X116265506Y-113570537D01*
X116375820Y-113629502D01*
X116495518Y-113665812D01*
X116620000Y-113678072D01*
X116863248Y-113678072D01*
X116887655Y-113707812D01*
X116887659Y-113707816D01*
X116912237Y-113737764D01*
X116942185Y-113762342D01*
X117637918Y-114458075D01*
X117471637Y-114425000D01*
X117228363Y-114425000D01*
X116989764Y-114472460D01*
X116765008Y-114565557D01*
X116562733Y-114700713D01*
X116390713Y-114872733D01*
X116255557Y-115075008D01*
X116162460Y-115299764D01*
X116115000Y-115538363D01*
X116115000Y-115781637D01*
X116149174Y-115953441D01*
X116050236Y-115912460D01*
X115811637Y-115865000D01*
X115568363Y-115865000D01*
X115329764Y-115912460D01*
X115105008Y-116005557D01*
X114902733Y-116140713D01*
X114730713Y-116312733D01*
X114595557Y-116515008D01*
X114502460Y-116739764D01*
X114455000Y-116978363D01*
X114455000Y-117221637D01*
X114502460Y-117460236D01*
X114595557Y-117684992D01*
X114730713Y-117887267D01*
X114902733Y-118059287D01*
X115105008Y-118194443D01*
X115329764Y-118287540D01*
X115568363Y-118335000D01*
X115811637Y-118335000D01*
X116050236Y-118287540D01*
X116274992Y-118194443D01*
X116477267Y-118059287D01*
X116649287Y-117887267D01*
X116650802Y-117885000D01*
X116864843Y-117885000D01*
X117123815Y-118143972D01*
X117085820Y-118155498D01*
X116975506Y-118214463D01*
X116878815Y-118293815D01*
X116799463Y-118390506D01*
X116740498Y-118500820D01*
X116704188Y-118620518D01*
X116691928Y-118745000D01*
X116691928Y-118905374D01*
X116667267Y-118880713D01*
X116464992Y-118745557D01*
X116240236Y-118652460D01*
X116001637Y-118605000D01*
X115758363Y-118605000D01*
X115519764Y-118652460D01*
X115295008Y-118745557D01*
X115092733Y-118880713D01*
X114920713Y-119052733D01*
X114785557Y-119255008D01*
X114692460Y-119479764D01*
X114645000Y-119718363D01*
X114645000Y-119961637D01*
X114673109Y-120102952D01*
X114195000Y-119624843D01*
X114195000Y-113888556D01*
X114198797Y-113850000D01*
X114195000Y-113811440D01*
X114195000Y-113811439D01*
X114191020Y-113771026D01*
X114183642Y-113696113D01*
X114138754Y-113548140D01*
X114065862Y-113411767D01*
X113967764Y-113292236D01*
X113937811Y-113267654D01*
X110965000Y-110294843D01*
X110965000Y-108898072D01*
X110980000Y-108898072D01*
X111104482Y-108885812D01*
X111224180Y-108849502D01*
X111334494Y-108790537D01*
X111431185Y-108711185D01*
X111510537Y-108614494D01*
X111569502Y-108504180D01*
X111585117Y-108452702D01*
X111866903Y-108452702D01*
X111938486Y-108696671D01*
X112193996Y-108817571D01*
X112468184Y-108886300D01*
X112750512Y-108900217D01*
X113030130Y-108858787D01*
X113296292Y-108763603D01*
X113421514Y-108696671D01*
X113493097Y-108452702D01*
X112680000Y-107639605D01*
X111866903Y-108452702D01*
X111585117Y-108452702D01*
X111605812Y-108384482D01*
X111618072Y-108260000D01*
X111618072Y-108252785D01*
X111687298Y-108273097D01*
X112500395Y-107460000D01*
X112859605Y-107460000D01*
X113672702Y-108273097D01*
X113916671Y-108201514D01*
X114037571Y-107946004D01*
X114106300Y-107671816D01*
X114120217Y-107389488D01*
X114078787Y-107109870D01*
X113983603Y-106843708D01*
X113916671Y-106718486D01*
X113672702Y-106646903D01*
X112859605Y-107460000D01*
X112500395Y-107460000D01*
X111687298Y-106646903D01*
X111618072Y-106667215D01*
X111618072Y-106660000D01*
X111605812Y-106535518D01*
X111585118Y-106467298D01*
X111866903Y-106467298D01*
X112680000Y-107280395D01*
X113493097Y-106467298D01*
X113421514Y-106223329D01*
X113166004Y-106102429D01*
X112891816Y-106033700D01*
X112609488Y-106019783D01*
X112329870Y-106061213D01*
X112063708Y-106156397D01*
X111938486Y-106223329D01*
X111866903Y-106467298D01*
X111585118Y-106467298D01*
X111569502Y-106415820D01*
X111510537Y-106305506D01*
X111431185Y-106208815D01*
X111334494Y-106129463D01*
X111224180Y-106070498D01*
X111104482Y-106034188D01*
X110980000Y-106021928D01*
X109380000Y-106021928D01*
X109255518Y-106034188D01*
X109135820Y-106070498D01*
X109025506Y-106129463D01*
X108928815Y-106208815D01*
X108849463Y-106305506D01*
X108790498Y-106415820D01*
X108754188Y-106535518D01*
X108741928Y-106660000D01*
X108741928Y-106675000D01*
X107635158Y-106675000D01*
X107125000Y-106164843D01*
X107125000Y-100066913D01*
X107185515Y-100041847D01*
X107477871Y-99846500D01*
X107726500Y-99597871D01*
X107921847Y-99305515D01*
X107946913Y-99245000D01*
X112354843Y-99245000D01*
X122972658Y-109862816D01*
G37*
X122972658Y-109862816D02*
X122997236Y-109892764D01*
X123027184Y-109917342D01*
X123027187Y-109917345D01*
X123032772Y-109921928D01*
X123116767Y-109990862D01*
X123253140Y-110063754D01*
X123366672Y-110098194D01*
X123401112Y-110108641D01*
X123415490Y-110110057D01*
X123516439Y-110120000D01*
X123516446Y-110120000D01*
X123554999Y-110123797D01*
X123593552Y-110120000D01*
X124713563Y-110120000D01*
X124787425Y-110210000D01*
X124704488Y-110311058D01*
X124623577Y-110462433D01*
X124573752Y-110626684D01*
X124556928Y-110797500D01*
X124556928Y-111372500D01*
X124573752Y-111543316D01*
X124623577Y-111707567D01*
X124704488Y-111858942D01*
X124802037Y-111977805D01*
X121942025Y-114837818D01*
X121908754Y-114728140D01*
X121866345Y-114648798D01*
X121835862Y-114591767D01*
X121737764Y-114472236D01*
X121707811Y-114447654D01*
X120795000Y-113534843D01*
X120795000Y-113451474D01*
X120956632Y-113343475D01*
X121163475Y-113136632D01*
X121325990Y-112893411D01*
X121437932Y-112623158D01*
X121495000Y-112336260D01*
X121495000Y-112043740D01*
X121437932Y-111756842D01*
X121325990Y-111486589D01*
X121163475Y-111243368D01*
X120956632Y-111036525D01*
X120713411Y-110874010D01*
X120443158Y-110762068D01*
X120156260Y-110705000D01*
X119863740Y-110705000D01*
X119576842Y-110762068D01*
X119306589Y-110874010D01*
X119063368Y-111036525D01*
X118931513Y-111168380D01*
X118909502Y-111095820D01*
X118850537Y-110985506D01*
X118771185Y-110888815D01*
X118674494Y-110809463D01*
X118564180Y-110750498D01*
X118444482Y-110714188D01*
X118320000Y-110701928D01*
X116620000Y-110701928D01*
X116495518Y-110714188D01*
X116375820Y-110750498D01*
X116265506Y-110809463D01*
X116168815Y-110888815D01*
X116089463Y-110985506D01*
X116030498Y-111095820D01*
X115994188Y-111215518D01*
X115981928Y-111340000D01*
X115981928Y-113040000D01*
X115994188Y-113164482D01*
X116030498Y-113284180D01*
X116089463Y-113394494D01*
X116168815Y-113491185D01*
X116265506Y-113570537D01*
X116375820Y-113629502D01*
X116495518Y-113665812D01*
X116620000Y-113678072D01*
X116863248Y-113678072D01*
X116887655Y-113707812D01*
X116887659Y-113707816D01*
X116912237Y-113737764D01*
X116942185Y-113762342D01*
X117637918Y-114458075D01*
X117471637Y-114425000D01*
X117228363Y-114425000D01*
X116989764Y-114472460D01*
X116765008Y-114565557D01*
X116562733Y-114700713D01*
X116390713Y-114872733D01*
X116255557Y-115075008D01*
X116162460Y-115299764D01*
X116115000Y-115538363D01*
X116115000Y-115781637D01*
X116149174Y-115953441D01*
X116050236Y-115912460D01*
X115811637Y-115865000D01*
X115568363Y-115865000D01*
X115329764Y-115912460D01*
X115105008Y-116005557D01*
X114902733Y-116140713D01*
X114730713Y-116312733D01*
X114595557Y-116515008D01*
X114502460Y-116739764D01*
X114455000Y-116978363D01*
X114455000Y-117221637D01*
X114502460Y-117460236D01*
X114595557Y-117684992D01*
X114730713Y-117887267D01*
X114902733Y-118059287D01*
X115105008Y-118194443D01*
X115329764Y-118287540D01*
X115568363Y-118335000D01*
X115811637Y-118335000D01*
X116050236Y-118287540D01*
X116274992Y-118194443D01*
X116477267Y-118059287D01*
X116649287Y-117887267D01*
X116650802Y-117885000D01*
X116864843Y-117885000D01*
X117123815Y-118143972D01*
X117085820Y-118155498D01*
X116975506Y-118214463D01*
X116878815Y-118293815D01*
X116799463Y-118390506D01*
X116740498Y-118500820D01*
X116704188Y-118620518D01*
X116691928Y-118745000D01*
X116691928Y-118905374D01*
X116667267Y-118880713D01*
X116464992Y-118745557D01*
X116240236Y-118652460D01*
X116001637Y-118605000D01*
X115758363Y-118605000D01*
X115519764Y-118652460D01*
X115295008Y-118745557D01*
X115092733Y-118880713D01*
X114920713Y-119052733D01*
X114785557Y-119255008D01*
X114692460Y-119479764D01*
X114645000Y-119718363D01*
X114645000Y-119961637D01*
X114673109Y-120102952D01*
X114195000Y-119624843D01*
X114195000Y-113888556D01*
X114198797Y-113850000D01*
X114195000Y-113811440D01*
X114195000Y-113811439D01*
X114191020Y-113771026D01*
X114183642Y-113696113D01*
X114138754Y-113548140D01*
X114065862Y-113411767D01*
X113967764Y-113292236D01*
X113937811Y-113267654D01*
X110965000Y-110294843D01*
X110965000Y-108898072D01*
X110980000Y-108898072D01*
X111104482Y-108885812D01*
X111224180Y-108849502D01*
X111334494Y-108790537D01*
X111431185Y-108711185D01*
X111510537Y-108614494D01*
X111569502Y-108504180D01*
X111585117Y-108452702D01*
X111866903Y-108452702D01*
X111938486Y-108696671D01*
X112193996Y-108817571D01*
X112468184Y-108886300D01*
X112750512Y-108900217D01*
X113030130Y-108858787D01*
X113296292Y-108763603D01*
X113421514Y-108696671D01*
X113493097Y-108452702D01*
X112680000Y-107639605D01*
X111866903Y-108452702D01*
X111585117Y-108452702D01*
X111605812Y-108384482D01*
X111618072Y-108260000D01*
X111618072Y-108252785D01*
X111687298Y-108273097D01*
X112500395Y-107460000D01*
X112859605Y-107460000D01*
X113672702Y-108273097D01*
X113916671Y-108201514D01*
X114037571Y-107946004D01*
X114106300Y-107671816D01*
X114120217Y-107389488D01*
X114078787Y-107109870D01*
X113983603Y-106843708D01*
X113916671Y-106718486D01*
X113672702Y-106646903D01*
X112859605Y-107460000D01*
X112500395Y-107460000D01*
X111687298Y-106646903D01*
X111618072Y-106667215D01*
X111618072Y-106660000D01*
X111605812Y-106535518D01*
X111585118Y-106467298D01*
X111866903Y-106467298D01*
X112680000Y-107280395D01*
X113493097Y-106467298D01*
X113421514Y-106223329D01*
X113166004Y-106102429D01*
X112891816Y-106033700D01*
X112609488Y-106019783D01*
X112329870Y-106061213D01*
X112063708Y-106156397D01*
X111938486Y-106223329D01*
X111866903Y-106467298D01*
X111585118Y-106467298D01*
X111569502Y-106415820D01*
X111510537Y-106305506D01*
X111431185Y-106208815D01*
X111334494Y-106129463D01*
X111224180Y-106070498D01*
X111104482Y-106034188D01*
X110980000Y-106021928D01*
X109380000Y-106021928D01*
X109255518Y-106034188D01*
X109135820Y-106070498D01*
X109025506Y-106129463D01*
X108928815Y-106208815D01*
X108849463Y-106305506D01*
X108790498Y-106415820D01*
X108754188Y-106535518D01*
X108741928Y-106660000D01*
X108741928Y-106675000D01*
X107635158Y-106675000D01*
X107125000Y-106164843D01*
X107125000Y-100066913D01*
X107185515Y-100041847D01*
X107477871Y-99846500D01*
X107726500Y-99597871D01*
X107921847Y-99305515D01*
X107946913Y-99245000D01*
X112354843Y-99245000D01*
X122972658Y-109862816D01*
M02*
