%FSLAX45Y45*%
G04 Gerber Fmt 4.5, Leading zero omitted, Abs format (unit mm)*
G04 Created by KiCad (PCBNEW (5.1.6)-1) date 2021-11-02 04:41:42*
%MOMM*%
%LPD*%
G01*
G04 APERTURE LIST*
%TA.AperFunction,Profile*%
%ADD10C,0.050000*%
%TD*%
%ADD11C,0.200000*%
%ADD12C,0.300000*%
G04 APERTURE END LIST*
D10*
X19255000Y-5266000D02*
X19255000Y-15229000D01*
X10258000Y-5266000D02*
X19255000Y-5266000D01*
X10258000Y-15229000D02*
X10258000Y-5266000D01*
X19255000Y-15229000D02*
X10258000Y-15229000D01*
D11*
X18460000Y-8111000D02*
X18690000Y-8341000D01*
X18690000Y-8111000D02*
X18460000Y-8341000D01*
X18460000Y-9311000D02*
X18690000Y-9541000D01*
X18690000Y-9311000D02*
X18460000Y-9541000D01*
X18156000Y-5449000D02*
G75*
G03*
X18156000Y-5449000I-125000J0D01*
G01*
X13496000Y-7107000D02*
G75*
G03*
X13496000Y-7107000I-125000J0D01*
G01*
X18156000Y-7107000D02*
G75*
G03*
X18156000Y-7107000I-125000J0D01*
G01*
X13496000Y-5449000D02*
G75*
G03*
X13496000Y-5449000I-125000J0D01*
G01*
X16732000Y-13896000D02*
X16732000Y-14216000D01*
X16572000Y-14056000D02*
X16892000Y-14056000D01*
X16795000Y-7447000D02*
X16795000Y-7767000D01*
X16635000Y-7607000D02*
X16955000Y-7607000D01*
X16732000Y-14863000D02*
X16732000Y-15183000D01*
X16572000Y-15023000D02*
X16892000Y-15023000D01*
X13194000Y-7447000D02*
X13194000Y-7767000D01*
X13034000Y-7607000D02*
X13354000Y-7607000D01*
X18635000Y-10456000D02*
X18635000Y-10776000D01*
X18475000Y-10616000D02*
X18795000Y-10616000D01*
X14163000Y-13330000D02*
X14163000Y-13650000D01*
X14003000Y-13490000D02*
X14323000Y-13490000D01*
X16795000Y-9797000D02*
X16795000Y-10117000D01*
X16635000Y-9957000D02*
X16955000Y-9957000D01*
X14163000Y-10456000D02*
X14163000Y-10776000D01*
X14003000Y-10616000D02*
X14323000Y-10616000D01*
X18635000Y-13330000D02*
X18635000Y-13650000D01*
X18475000Y-13490000D02*
X18795000Y-13490000D01*
X13194000Y-9797000D02*
X13194000Y-10117000D01*
X13034000Y-9957000D02*
X13354000Y-9957000D01*
X19109101Y-5716101D02*
X19109101Y-5397899D01*
X18790899Y-5397899D01*
X18790899Y-5716101D01*
X19109101Y-5716101D01*
X10725101Y-15098101D02*
X10725101Y-14779899D01*
X10406899Y-14779899D01*
X10406899Y-15098101D01*
X10725101Y-15098101D01*
X10723101Y-5717101D02*
X10723101Y-5398899D01*
X10404899Y-5398899D01*
X10404899Y-5717101D01*
X10723101Y-5717101D01*
X19110101Y-15098101D02*
X19110101Y-14779899D01*
X18791899Y-14779899D01*
X18791899Y-15098101D01*
X19110101Y-15098101D01*
D12*
X10541928Y-15697214D02*
X10541928Y-15397214D01*
X10613357Y-15397214D01*
X10656214Y-15411500D01*
X10684786Y-15440071D01*
X10699071Y-15468643D01*
X10713357Y-15525786D01*
X10713357Y-15568643D01*
X10699071Y-15625786D01*
X10684786Y-15654357D01*
X10656214Y-15682929D01*
X10613357Y-15697214D01*
X10541928Y-15697214D01*
X10841928Y-15697214D02*
X10841928Y-15497214D01*
X10841928Y-15554357D02*
X10856214Y-15525786D01*
X10870500Y-15511500D01*
X10899071Y-15497214D01*
X10927643Y-15497214D01*
X11027643Y-15697214D02*
X11027643Y-15497214D01*
X11027643Y-15397214D02*
X11013357Y-15411500D01*
X11027643Y-15425786D01*
X11041928Y-15411500D01*
X11027643Y-15397214D01*
X11027643Y-15425786D01*
X11213357Y-15697214D02*
X11184786Y-15682929D01*
X11170500Y-15654357D01*
X11170500Y-15397214D01*
X11370500Y-15697214D02*
X11341928Y-15682929D01*
X11327643Y-15654357D01*
X11327643Y-15397214D01*
X11713357Y-15697214D02*
X11713357Y-15397214D01*
X11813357Y-15611500D01*
X11913357Y-15397214D01*
X11913357Y-15697214D01*
X12184786Y-15697214D02*
X12184786Y-15540071D01*
X12170500Y-15511500D01*
X12141928Y-15497214D01*
X12084786Y-15497214D01*
X12056214Y-15511500D01*
X12184786Y-15682929D02*
X12156214Y-15697214D01*
X12084786Y-15697214D01*
X12056214Y-15682929D01*
X12041928Y-15654357D01*
X12041928Y-15625786D01*
X12056214Y-15597214D01*
X12084786Y-15582929D01*
X12156214Y-15582929D01*
X12184786Y-15568643D01*
X12327643Y-15497214D02*
X12327643Y-15797214D01*
X12327643Y-15511500D02*
X12356214Y-15497214D01*
X12413357Y-15497214D01*
X12441928Y-15511500D01*
X12456214Y-15525786D01*
X12470500Y-15554357D01*
X12470500Y-15640071D01*
X12456214Y-15668643D01*
X12441928Y-15682929D01*
X12413357Y-15697214D01*
X12356214Y-15697214D01*
X12327643Y-15682929D01*
X12599071Y-15668643D02*
X12613357Y-15682929D01*
X12599071Y-15697214D01*
X12584786Y-15682929D01*
X12599071Y-15668643D01*
X12599071Y-15697214D01*
X12599071Y-15511500D02*
X12613357Y-15525786D01*
X12599071Y-15540071D01*
X12584786Y-15525786D01*
X12599071Y-15511500D01*
X12599071Y-15540071D01*
X10025500Y-16076500D02*
X10255500Y-16306500D01*
X10255500Y-16076500D02*
X10025500Y-16306500D01*
X10527643Y-16055786D02*
X10541928Y-16041500D01*
X10570500Y-16027214D01*
X10641928Y-16027214D01*
X10670500Y-16041500D01*
X10684786Y-16055786D01*
X10699071Y-16084357D01*
X10699071Y-16112929D01*
X10684786Y-16155786D01*
X10513357Y-16327214D01*
X10699071Y-16327214D01*
X10827643Y-16298643D02*
X10841928Y-16312929D01*
X10827643Y-16327214D01*
X10813357Y-16312929D01*
X10827643Y-16298643D01*
X10827643Y-16327214D01*
X10941928Y-16027214D02*
X11127643Y-16027214D01*
X11027643Y-16141500D01*
X11070500Y-16141500D01*
X11099071Y-16155786D01*
X11113357Y-16170071D01*
X11127643Y-16198643D01*
X11127643Y-16270071D01*
X11113357Y-16298643D01*
X11099071Y-16312929D01*
X11070500Y-16327214D01*
X10984786Y-16327214D01*
X10956214Y-16312929D01*
X10941928Y-16298643D01*
X11313357Y-16027214D02*
X11341928Y-16027214D01*
X11370500Y-16041500D01*
X11384786Y-16055786D01*
X11399071Y-16084357D01*
X11413357Y-16141500D01*
X11413357Y-16212929D01*
X11399071Y-16270071D01*
X11384786Y-16298643D01*
X11370500Y-16312929D01*
X11341928Y-16327214D01*
X11313357Y-16327214D01*
X11284786Y-16312929D01*
X11270500Y-16298643D01*
X11256214Y-16270071D01*
X11241928Y-16212929D01*
X11241928Y-16141500D01*
X11256214Y-16084357D01*
X11270500Y-16055786D01*
X11284786Y-16041500D01*
X11313357Y-16027214D01*
X11541928Y-16327214D02*
X11541928Y-16127214D01*
X11541928Y-16155786D02*
X11556214Y-16141500D01*
X11584786Y-16127214D01*
X11627643Y-16127214D01*
X11656214Y-16141500D01*
X11670500Y-16170071D01*
X11670500Y-16327214D01*
X11670500Y-16170071D02*
X11684786Y-16141500D01*
X11713357Y-16127214D01*
X11756214Y-16127214D01*
X11784786Y-16141500D01*
X11799071Y-16170071D01*
X11799071Y-16327214D01*
X11941928Y-16327214D02*
X11941928Y-16127214D01*
X11941928Y-16155786D02*
X11956214Y-16141500D01*
X11984786Y-16127214D01*
X12027643Y-16127214D01*
X12056214Y-16141500D01*
X12070500Y-16170071D01*
X12070500Y-16327214D01*
X12070500Y-16170071D02*
X12084786Y-16141500D01*
X12113357Y-16127214D01*
X12156214Y-16127214D01*
X12184786Y-16141500D01*
X12199071Y-16170071D01*
X12199071Y-16327214D01*
X12784786Y-16012929D02*
X12527643Y-16398643D01*
X13170500Y-16027214D02*
X13199071Y-16027214D01*
X13227643Y-16041500D01*
X13241928Y-16055786D01*
X13256214Y-16084357D01*
X13270500Y-16141500D01*
X13270500Y-16212929D01*
X13256214Y-16270071D01*
X13241928Y-16298643D01*
X13227643Y-16312929D01*
X13199071Y-16327214D01*
X13170500Y-16327214D01*
X13141928Y-16312929D01*
X13127643Y-16298643D01*
X13113357Y-16270071D01*
X13099071Y-16212929D01*
X13099071Y-16141500D01*
X13113357Y-16084357D01*
X13127643Y-16055786D01*
X13141928Y-16041500D01*
X13170500Y-16027214D01*
X13399071Y-16298643D02*
X13413357Y-16312929D01*
X13399071Y-16327214D01*
X13384786Y-16312929D01*
X13399071Y-16298643D01*
X13399071Y-16327214D01*
X13599071Y-16027214D02*
X13627643Y-16027214D01*
X13656214Y-16041500D01*
X13670500Y-16055786D01*
X13684786Y-16084357D01*
X13699071Y-16141500D01*
X13699071Y-16212929D01*
X13684786Y-16270071D01*
X13670500Y-16298643D01*
X13656214Y-16312929D01*
X13627643Y-16327214D01*
X13599071Y-16327214D01*
X13570500Y-16312929D01*
X13556214Y-16298643D01*
X13541928Y-16270071D01*
X13527643Y-16212929D01*
X13527643Y-16141500D01*
X13541928Y-16084357D01*
X13556214Y-16055786D01*
X13570500Y-16041500D01*
X13599071Y-16027214D01*
X13841928Y-16327214D02*
X13899071Y-16327214D01*
X13927643Y-16312929D01*
X13941928Y-16298643D01*
X13970500Y-16255786D01*
X13984786Y-16198643D01*
X13984786Y-16084357D01*
X13970500Y-16055786D01*
X13956214Y-16041500D01*
X13927643Y-16027214D01*
X13870500Y-16027214D01*
X13841928Y-16041500D01*
X13827643Y-16055786D01*
X13813357Y-16084357D01*
X13813357Y-16155786D01*
X13827643Y-16184357D01*
X13841928Y-16198643D01*
X13870500Y-16212929D01*
X13927643Y-16212929D01*
X13956214Y-16198643D01*
X13970500Y-16184357D01*
X13984786Y-16155786D01*
X14270500Y-16327214D02*
X14099071Y-16327214D01*
X14184786Y-16327214D02*
X14184786Y-16027214D01*
X14156214Y-16070071D01*
X14127643Y-16098643D01*
X14099071Y-16112929D01*
X14384786Y-16027214D02*
X14384786Y-16084357D01*
X14499071Y-16027214D02*
X14499071Y-16084357D01*
X14941928Y-16441500D02*
X14927643Y-16427214D01*
X14899071Y-16384357D01*
X14884786Y-16355786D01*
X14870500Y-16312929D01*
X14856214Y-16241500D01*
X14856214Y-16184357D01*
X14870500Y-16112929D01*
X14884786Y-16070071D01*
X14899071Y-16041500D01*
X14927643Y-15998643D01*
X14941928Y-15984357D01*
X15041928Y-16055786D02*
X15056214Y-16041500D01*
X15084786Y-16027214D01*
X15156214Y-16027214D01*
X15184786Y-16041500D01*
X15199071Y-16055786D01*
X15213357Y-16084357D01*
X15213357Y-16112929D01*
X15199071Y-16155786D01*
X15027643Y-16327214D01*
X15213357Y-16327214D01*
X15570500Y-16327214D02*
X15570500Y-16027214D01*
X15699071Y-16327214D02*
X15699071Y-16170071D01*
X15684786Y-16141500D01*
X15656214Y-16127214D01*
X15613357Y-16127214D01*
X15584786Y-16141500D01*
X15570500Y-16155786D01*
X15884786Y-16327214D02*
X15856214Y-16312929D01*
X15841928Y-16298643D01*
X15827643Y-16270071D01*
X15827643Y-16184357D01*
X15841928Y-16155786D01*
X15856214Y-16141500D01*
X15884786Y-16127214D01*
X15927643Y-16127214D01*
X15956214Y-16141500D01*
X15970500Y-16155786D01*
X15984786Y-16184357D01*
X15984786Y-16270071D01*
X15970500Y-16298643D01*
X15956214Y-16312929D01*
X15927643Y-16327214D01*
X15884786Y-16327214D01*
X16156214Y-16327214D02*
X16127643Y-16312929D01*
X16113357Y-16284357D01*
X16113357Y-16027214D01*
X16384786Y-16312929D02*
X16356214Y-16327214D01*
X16299071Y-16327214D01*
X16270500Y-16312929D01*
X16256214Y-16284357D01*
X16256214Y-16170071D01*
X16270500Y-16141500D01*
X16299071Y-16127214D01*
X16356214Y-16127214D01*
X16384786Y-16141500D01*
X16399071Y-16170071D01*
X16399071Y-16198643D01*
X16256214Y-16227214D01*
X16513357Y-16312929D02*
X16541928Y-16327214D01*
X16599071Y-16327214D01*
X16627643Y-16312929D01*
X16641928Y-16284357D01*
X16641928Y-16270071D01*
X16627643Y-16241500D01*
X16599071Y-16227214D01*
X16556214Y-16227214D01*
X16527643Y-16212929D01*
X16513357Y-16184357D01*
X16513357Y-16170071D01*
X16527643Y-16141500D01*
X16556214Y-16127214D01*
X16599071Y-16127214D01*
X16627643Y-16141500D01*
X16741928Y-16441500D02*
X16756214Y-16427214D01*
X16784786Y-16384357D01*
X16799071Y-16355786D01*
X16813357Y-16312929D01*
X16827643Y-16241500D01*
X16827643Y-16184357D01*
X16813357Y-16112929D01*
X16799071Y-16070071D01*
X16784786Y-16041500D01*
X16756214Y-15998643D01*
X16741928Y-15984357D01*
X17284786Y-16441500D02*
X17270500Y-16427214D01*
X17241928Y-16384357D01*
X17227643Y-16355786D01*
X17213357Y-16312929D01*
X17199071Y-16241500D01*
X17199071Y-16184357D01*
X17213357Y-16112929D01*
X17227643Y-16070071D01*
X17241928Y-16041500D01*
X17270500Y-15998643D01*
X17284786Y-15984357D01*
X17399071Y-16127214D02*
X17399071Y-16327214D01*
X17399071Y-16155786D02*
X17413357Y-16141500D01*
X17441928Y-16127214D01*
X17484786Y-16127214D01*
X17513357Y-16141500D01*
X17527643Y-16170071D01*
X17527643Y-16327214D01*
X17713357Y-16327214D02*
X17684786Y-16312929D01*
X17670500Y-16298643D01*
X17656214Y-16270071D01*
X17656214Y-16184357D01*
X17670500Y-16155786D01*
X17684786Y-16141500D01*
X17713357Y-16127214D01*
X17756214Y-16127214D01*
X17784786Y-16141500D01*
X17799071Y-16155786D01*
X17813357Y-16184357D01*
X17813357Y-16270071D01*
X17799071Y-16298643D01*
X17784786Y-16312929D01*
X17756214Y-16327214D01*
X17713357Y-16327214D01*
X17899071Y-16127214D02*
X18013357Y-16127214D01*
X17941928Y-16027214D02*
X17941928Y-16284357D01*
X17956214Y-16312929D01*
X17984786Y-16327214D01*
X18013357Y-16327214D01*
X18341928Y-16127214D02*
X18341928Y-16427214D01*
X18341928Y-16141500D02*
X18370500Y-16127214D01*
X18427643Y-16127214D01*
X18456214Y-16141500D01*
X18470500Y-16155786D01*
X18484786Y-16184357D01*
X18484786Y-16270071D01*
X18470500Y-16298643D01*
X18456214Y-16312929D01*
X18427643Y-16327214D01*
X18370500Y-16327214D01*
X18341928Y-16312929D01*
X18656214Y-16327214D02*
X18627643Y-16312929D01*
X18613357Y-16284357D01*
X18613357Y-16027214D01*
X18899071Y-16327214D02*
X18899071Y-16170071D01*
X18884786Y-16141500D01*
X18856214Y-16127214D01*
X18799071Y-16127214D01*
X18770500Y-16141500D01*
X18899071Y-16312929D02*
X18870500Y-16327214D01*
X18799071Y-16327214D01*
X18770500Y-16312929D01*
X18756214Y-16284357D01*
X18756214Y-16255786D01*
X18770500Y-16227214D01*
X18799071Y-16212929D01*
X18870500Y-16212929D01*
X18899071Y-16198643D01*
X18999071Y-16127214D02*
X19113357Y-16127214D01*
X19041928Y-16027214D02*
X19041928Y-16284357D01*
X19056214Y-16312929D01*
X19084786Y-16327214D01*
X19113357Y-16327214D01*
X19327643Y-16312929D02*
X19299071Y-16327214D01*
X19241928Y-16327214D01*
X19213357Y-16312929D01*
X19199071Y-16284357D01*
X19199071Y-16170071D01*
X19213357Y-16141500D01*
X19241928Y-16127214D01*
X19299071Y-16127214D01*
X19327643Y-16141500D01*
X19341928Y-16170071D01*
X19341928Y-16198643D01*
X19199071Y-16227214D01*
X19599071Y-16327214D02*
X19599071Y-16027214D01*
X19599071Y-16312929D02*
X19570500Y-16327214D01*
X19513357Y-16327214D01*
X19484786Y-16312929D01*
X19470500Y-16298643D01*
X19456214Y-16270071D01*
X19456214Y-16184357D01*
X19470500Y-16155786D01*
X19484786Y-16141500D01*
X19513357Y-16127214D01*
X19570500Y-16127214D01*
X19599071Y-16141500D01*
X19713357Y-16441500D02*
X19727643Y-16427214D01*
X19756214Y-16384357D01*
X19770500Y-16355786D01*
X19784786Y-16312929D01*
X19799071Y-16241500D01*
X19799071Y-16184357D01*
X19784786Y-16112929D01*
X19770500Y-16070071D01*
X19756214Y-16041500D01*
X19727643Y-15998643D01*
X19713357Y-15984357D01*
X10255500Y-16587500D02*
G75*
G03*
X10255500Y-16587500I-125000J0D01*
G01*
X10527643Y-16451786D02*
X10541928Y-16437500D01*
X10570500Y-16423214D01*
X10641928Y-16423214D01*
X10670500Y-16437500D01*
X10684786Y-16451786D01*
X10699071Y-16480357D01*
X10699071Y-16508929D01*
X10684786Y-16551786D01*
X10513357Y-16723214D01*
X10699071Y-16723214D01*
X10827643Y-16694643D02*
X10841928Y-16708929D01*
X10827643Y-16723214D01*
X10813357Y-16708929D01*
X10827643Y-16694643D01*
X10827643Y-16723214D01*
X11113357Y-16423214D02*
X10970500Y-16423214D01*
X10956214Y-16566071D01*
X10970500Y-16551786D01*
X10999071Y-16537500D01*
X11070500Y-16537500D01*
X11099071Y-16551786D01*
X11113357Y-16566071D01*
X11127643Y-16594643D01*
X11127643Y-16666071D01*
X11113357Y-16694643D01*
X11099071Y-16708929D01*
X11070500Y-16723214D01*
X10999071Y-16723214D01*
X10970500Y-16708929D01*
X10956214Y-16694643D01*
X11313357Y-16423214D02*
X11341928Y-16423214D01*
X11370500Y-16437500D01*
X11384786Y-16451786D01*
X11399071Y-16480357D01*
X11413357Y-16537500D01*
X11413357Y-16608929D01*
X11399071Y-16666071D01*
X11384786Y-16694643D01*
X11370500Y-16708929D01*
X11341928Y-16723214D01*
X11313357Y-16723214D01*
X11284786Y-16708929D01*
X11270500Y-16694643D01*
X11256214Y-16666071D01*
X11241928Y-16608929D01*
X11241928Y-16537500D01*
X11256214Y-16480357D01*
X11270500Y-16451786D01*
X11284786Y-16437500D01*
X11313357Y-16423214D01*
X11541928Y-16723214D02*
X11541928Y-16523214D01*
X11541928Y-16551786D02*
X11556214Y-16537500D01*
X11584786Y-16523214D01*
X11627643Y-16523214D01*
X11656214Y-16537500D01*
X11670500Y-16566071D01*
X11670500Y-16723214D01*
X11670500Y-16566071D02*
X11684786Y-16537500D01*
X11713357Y-16523214D01*
X11756214Y-16523214D01*
X11784786Y-16537500D01*
X11799071Y-16566071D01*
X11799071Y-16723214D01*
X11941928Y-16723214D02*
X11941928Y-16523214D01*
X11941928Y-16551786D02*
X11956214Y-16537500D01*
X11984786Y-16523214D01*
X12027643Y-16523214D01*
X12056214Y-16537500D01*
X12070500Y-16566071D01*
X12070500Y-16723214D01*
X12070500Y-16566071D02*
X12084786Y-16537500D01*
X12113357Y-16523214D01*
X12156214Y-16523214D01*
X12184786Y-16537500D01*
X12199071Y-16566071D01*
X12199071Y-16723214D01*
X12784786Y-16408929D02*
X12527643Y-16794643D01*
X13170500Y-16423214D02*
X13199071Y-16423214D01*
X13227643Y-16437500D01*
X13241928Y-16451786D01*
X13256214Y-16480357D01*
X13270500Y-16537500D01*
X13270500Y-16608929D01*
X13256214Y-16666071D01*
X13241928Y-16694643D01*
X13227643Y-16708929D01*
X13199071Y-16723214D01*
X13170500Y-16723214D01*
X13141928Y-16708929D01*
X13127643Y-16694643D01*
X13113357Y-16666071D01*
X13099071Y-16608929D01*
X13099071Y-16537500D01*
X13113357Y-16480357D01*
X13127643Y-16451786D01*
X13141928Y-16437500D01*
X13170500Y-16423214D01*
X13399071Y-16694643D02*
X13413357Y-16708929D01*
X13399071Y-16723214D01*
X13384786Y-16708929D01*
X13399071Y-16694643D01*
X13399071Y-16723214D01*
X13599071Y-16423214D02*
X13627643Y-16423214D01*
X13656214Y-16437500D01*
X13670500Y-16451786D01*
X13684786Y-16480357D01*
X13699071Y-16537500D01*
X13699071Y-16608929D01*
X13684786Y-16666071D01*
X13670500Y-16694643D01*
X13656214Y-16708929D01*
X13627643Y-16723214D01*
X13599071Y-16723214D01*
X13570500Y-16708929D01*
X13556214Y-16694643D01*
X13541928Y-16666071D01*
X13527643Y-16608929D01*
X13527643Y-16537500D01*
X13541928Y-16480357D01*
X13556214Y-16451786D01*
X13570500Y-16437500D01*
X13599071Y-16423214D01*
X13841928Y-16723214D02*
X13899071Y-16723214D01*
X13927643Y-16708929D01*
X13941928Y-16694643D01*
X13970500Y-16651786D01*
X13984786Y-16594643D01*
X13984786Y-16480357D01*
X13970500Y-16451786D01*
X13956214Y-16437500D01*
X13927643Y-16423214D01*
X13870500Y-16423214D01*
X13841928Y-16437500D01*
X13827643Y-16451786D01*
X13813357Y-16480357D01*
X13813357Y-16551786D01*
X13827643Y-16580357D01*
X13841928Y-16594643D01*
X13870500Y-16608929D01*
X13927643Y-16608929D01*
X13956214Y-16594643D01*
X13970500Y-16580357D01*
X13984786Y-16551786D01*
X14156214Y-16551786D02*
X14127643Y-16537500D01*
X14113357Y-16523214D01*
X14099071Y-16494643D01*
X14099071Y-16480357D01*
X14113357Y-16451786D01*
X14127643Y-16437500D01*
X14156214Y-16423214D01*
X14213357Y-16423214D01*
X14241928Y-16437500D01*
X14256214Y-16451786D01*
X14270500Y-16480357D01*
X14270500Y-16494643D01*
X14256214Y-16523214D01*
X14241928Y-16537500D01*
X14213357Y-16551786D01*
X14156214Y-16551786D01*
X14127643Y-16566071D01*
X14113357Y-16580357D01*
X14099071Y-16608929D01*
X14099071Y-16666071D01*
X14113357Y-16694643D01*
X14127643Y-16708929D01*
X14156214Y-16723214D01*
X14213357Y-16723214D01*
X14241928Y-16708929D01*
X14256214Y-16694643D01*
X14270500Y-16666071D01*
X14270500Y-16608929D01*
X14256214Y-16580357D01*
X14241928Y-16566071D01*
X14213357Y-16551786D01*
X14384786Y-16423214D02*
X14384786Y-16480357D01*
X14499071Y-16423214D02*
X14499071Y-16480357D01*
X14941928Y-16837500D02*
X14927643Y-16823214D01*
X14899071Y-16780357D01*
X14884786Y-16751786D01*
X14870500Y-16708929D01*
X14856214Y-16637500D01*
X14856214Y-16580357D01*
X14870500Y-16508929D01*
X14884786Y-16466071D01*
X14899071Y-16437500D01*
X14927643Y-16394643D01*
X14941928Y-16380357D01*
X15184786Y-16523214D02*
X15184786Y-16723214D01*
X15113357Y-16408929D02*
X15041928Y-16623214D01*
X15227643Y-16623214D01*
X15570500Y-16723214D02*
X15570500Y-16423214D01*
X15699071Y-16723214D02*
X15699071Y-16566071D01*
X15684786Y-16537500D01*
X15656214Y-16523214D01*
X15613357Y-16523214D01*
X15584786Y-16537500D01*
X15570500Y-16551786D01*
X15884786Y-16723214D02*
X15856214Y-16708929D01*
X15841928Y-16694643D01*
X15827643Y-16666071D01*
X15827643Y-16580357D01*
X15841928Y-16551786D01*
X15856214Y-16537500D01*
X15884786Y-16523214D01*
X15927643Y-16523214D01*
X15956214Y-16537500D01*
X15970500Y-16551786D01*
X15984786Y-16580357D01*
X15984786Y-16666071D01*
X15970500Y-16694643D01*
X15956214Y-16708929D01*
X15927643Y-16723214D01*
X15884786Y-16723214D01*
X16156214Y-16723214D02*
X16127643Y-16708929D01*
X16113357Y-16680357D01*
X16113357Y-16423214D01*
X16384786Y-16708929D02*
X16356214Y-16723214D01*
X16299071Y-16723214D01*
X16270500Y-16708929D01*
X16256214Y-16680357D01*
X16256214Y-16566071D01*
X16270500Y-16537500D01*
X16299071Y-16523214D01*
X16356214Y-16523214D01*
X16384786Y-16537500D01*
X16399071Y-16566071D01*
X16399071Y-16594643D01*
X16256214Y-16623214D01*
X16513357Y-16708929D02*
X16541928Y-16723214D01*
X16599071Y-16723214D01*
X16627643Y-16708929D01*
X16641928Y-16680357D01*
X16641928Y-16666071D01*
X16627643Y-16637500D01*
X16599071Y-16623214D01*
X16556214Y-16623214D01*
X16527643Y-16608929D01*
X16513357Y-16580357D01*
X16513357Y-16566071D01*
X16527643Y-16537500D01*
X16556214Y-16523214D01*
X16599071Y-16523214D01*
X16627643Y-16537500D01*
X16741928Y-16837500D02*
X16756214Y-16823214D01*
X16784786Y-16780357D01*
X16799071Y-16751786D01*
X16813357Y-16708929D01*
X16827643Y-16637500D01*
X16827643Y-16580357D01*
X16813357Y-16508929D01*
X16799071Y-16466071D01*
X16784786Y-16437500D01*
X16756214Y-16394643D01*
X16741928Y-16380357D01*
X17284786Y-16837500D02*
X17270500Y-16823214D01*
X17241928Y-16780357D01*
X17227643Y-16751786D01*
X17213357Y-16708929D01*
X17199071Y-16637500D01*
X17199071Y-16580357D01*
X17213357Y-16508929D01*
X17227643Y-16466071D01*
X17241928Y-16437500D01*
X17270500Y-16394643D01*
X17284786Y-16380357D01*
X17399071Y-16523214D02*
X17399071Y-16723214D01*
X17399071Y-16551786D02*
X17413357Y-16537500D01*
X17441928Y-16523214D01*
X17484786Y-16523214D01*
X17513357Y-16537500D01*
X17527643Y-16566071D01*
X17527643Y-16723214D01*
X17713357Y-16723214D02*
X17684786Y-16708929D01*
X17670500Y-16694643D01*
X17656214Y-16666071D01*
X17656214Y-16580357D01*
X17670500Y-16551786D01*
X17684786Y-16537500D01*
X17713357Y-16523214D01*
X17756214Y-16523214D01*
X17784786Y-16537500D01*
X17799071Y-16551786D01*
X17813357Y-16580357D01*
X17813357Y-16666071D01*
X17799071Y-16694643D01*
X17784786Y-16708929D01*
X17756214Y-16723214D01*
X17713357Y-16723214D01*
X17899071Y-16523214D02*
X18013357Y-16523214D01*
X17941928Y-16423214D02*
X17941928Y-16680357D01*
X17956214Y-16708929D01*
X17984786Y-16723214D01*
X18013357Y-16723214D01*
X18341928Y-16523214D02*
X18341928Y-16823214D01*
X18341928Y-16537500D02*
X18370500Y-16523214D01*
X18427643Y-16523214D01*
X18456214Y-16537500D01*
X18470500Y-16551786D01*
X18484786Y-16580357D01*
X18484786Y-16666071D01*
X18470500Y-16694643D01*
X18456214Y-16708929D01*
X18427643Y-16723214D01*
X18370500Y-16723214D01*
X18341928Y-16708929D01*
X18656214Y-16723214D02*
X18627643Y-16708929D01*
X18613357Y-16680357D01*
X18613357Y-16423214D01*
X18899071Y-16723214D02*
X18899071Y-16566071D01*
X18884786Y-16537500D01*
X18856214Y-16523214D01*
X18799071Y-16523214D01*
X18770500Y-16537500D01*
X18899071Y-16708929D02*
X18870500Y-16723214D01*
X18799071Y-16723214D01*
X18770500Y-16708929D01*
X18756214Y-16680357D01*
X18756214Y-16651786D01*
X18770500Y-16623214D01*
X18799071Y-16608929D01*
X18870500Y-16608929D01*
X18899071Y-16594643D01*
X18999071Y-16523214D02*
X19113357Y-16523214D01*
X19041928Y-16423214D02*
X19041928Y-16680357D01*
X19056214Y-16708929D01*
X19084786Y-16723214D01*
X19113357Y-16723214D01*
X19327643Y-16708929D02*
X19299071Y-16723214D01*
X19241928Y-16723214D01*
X19213357Y-16708929D01*
X19199071Y-16680357D01*
X19199071Y-16566071D01*
X19213357Y-16537500D01*
X19241928Y-16523214D01*
X19299071Y-16523214D01*
X19327643Y-16537500D01*
X19341928Y-16566071D01*
X19341928Y-16594643D01*
X19199071Y-16623214D01*
X19599071Y-16723214D02*
X19599071Y-16423214D01*
X19599071Y-16708929D02*
X19570500Y-16723214D01*
X19513357Y-16723214D01*
X19484786Y-16708929D01*
X19470500Y-16694643D01*
X19456214Y-16666071D01*
X19456214Y-16580357D01*
X19470500Y-16551786D01*
X19484786Y-16537500D01*
X19513357Y-16523214D01*
X19570500Y-16523214D01*
X19599071Y-16537500D01*
X19713357Y-16837500D02*
X19727643Y-16823214D01*
X19756214Y-16780357D01*
X19770500Y-16751786D01*
X19784786Y-16708929D01*
X19799071Y-16637500D01*
X19799071Y-16580357D01*
X19784786Y-16508929D01*
X19770500Y-16466071D01*
X19756214Y-16437500D01*
X19727643Y-16394643D01*
X19713357Y-16380357D01*
X10095500Y-16823500D02*
X10095500Y-17143500D01*
X9935500Y-16983500D02*
X10255500Y-16983500D01*
X10513357Y-16819214D02*
X10699071Y-16819214D01*
X10599071Y-16933500D01*
X10641928Y-16933500D01*
X10670500Y-16947786D01*
X10684786Y-16962072D01*
X10699071Y-16990643D01*
X10699071Y-17062072D01*
X10684786Y-17090643D01*
X10670500Y-17104929D01*
X10641928Y-17119214D01*
X10556214Y-17119214D01*
X10527643Y-17104929D01*
X10513357Y-17090643D01*
X10827643Y-17090643D02*
X10841928Y-17104929D01*
X10827643Y-17119214D01*
X10813357Y-17104929D01*
X10827643Y-17090643D01*
X10827643Y-17119214D01*
X10956214Y-16847786D02*
X10970500Y-16833500D01*
X10999071Y-16819214D01*
X11070500Y-16819214D01*
X11099071Y-16833500D01*
X11113357Y-16847786D01*
X11127643Y-16876357D01*
X11127643Y-16904929D01*
X11113357Y-16947786D01*
X10941928Y-17119214D01*
X11127643Y-17119214D01*
X11313357Y-16819214D02*
X11341928Y-16819214D01*
X11370500Y-16833500D01*
X11384786Y-16847786D01*
X11399071Y-16876357D01*
X11413357Y-16933500D01*
X11413357Y-17004929D01*
X11399071Y-17062072D01*
X11384786Y-17090643D01*
X11370500Y-17104929D01*
X11341928Y-17119214D01*
X11313357Y-17119214D01*
X11284786Y-17104929D01*
X11270500Y-17090643D01*
X11256214Y-17062072D01*
X11241928Y-17004929D01*
X11241928Y-16933500D01*
X11256214Y-16876357D01*
X11270500Y-16847786D01*
X11284786Y-16833500D01*
X11313357Y-16819214D01*
X11541928Y-17119214D02*
X11541928Y-16919214D01*
X11541928Y-16947786D02*
X11556214Y-16933500D01*
X11584786Y-16919214D01*
X11627643Y-16919214D01*
X11656214Y-16933500D01*
X11670500Y-16962072D01*
X11670500Y-17119214D01*
X11670500Y-16962072D02*
X11684786Y-16933500D01*
X11713357Y-16919214D01*
X11756214Y-16919214D01*
X11784786Y-16933500D01*
X11799071Y-16962072D01*
X11799071Y-17119214D01*
X11941928Y-17119214D02*
X11941928Y-16919214D01*
X11941928Y-16947786D02*
X11956214Y-16933500D01*
X11984786Y-16919214D01*
X12027643Y-16919214D01*
X12056214Y-16933500D01*
X12070500Y-16962072D01*
X12070500Y-17119214D01*
X12070500Y-16962072D02*
X12084786Y-16933500D01*
X12113357Y-16919214D01*
X12156214Y-16919214D01*
X12184786Y-16933500D01*
X12199071Y-16962072D01*
X12199071Y-17119214D01*
X12784786Y-16804929D02*
X12527643Y-17190643D01*
X13170500Y-16819214D02*
X13199071Y-16819214D01*
X13227643Y-16833500D01*
X13241928Y-16847786D01*
X13256214Y-16876357D01*
X13270500Y-16933500D01*
X13270500Y-17004929D01*
X13256214Y-17062072D01*
X13241928Y-17090643D01*
X13227643Y-17104929D01*
X13199071Y-17119214D01*
X13170500Y-17119214D01*
X13141928Y-17104929D01*
X13127643Y-17090643D01*
X13113357Y-17062072D01*
X13099071Y-17004929D01*
X13099071Y-16933500D01*
X13113357Y-16876357D01*
X13127643Y-16847786D01*
X13141928Y-16833500D01*
X13170500Y-16819214D01*
X13399071Y-17090643D02*
X13413357Y-17104929D01*
X13399071Y-17119214D01*
X13384786Y-17104929D01*
X13399071Y-17090643D01*
X13399071Y-17119214D01*
X13699071Y-17119214D02*
X13527643Y-17119214D01*
X13613357Y-17119214D02*
X13613357Y-16819214D01*
X13584786Y-16862072D01*
X13556214Y-16890643D01*
X13527643Y-16904929D01*
X13813357Y-16847786D02*
X13827643Y-16833500D01*
X13856214Y-16819214D01*
X13927643Y-16819214D01*
X13956214Y-16833500D01*
X13970500Y-16847786D01*
X13984786Y-16876357D01*
X13984786Y-16904929D01*
X13970500Y-16947786D01*
X13799071Y-17119214D01*
X13984786Y-17119214D01*
X14241928Y-16819214D02*
X14184786Y-16819214D01*
X14156214Y-16833500D01*
X14141928Y-16847786D01*
X14113357Y-16890643D01*
X14099071Y-16947786D01*
X14099071Y-17062072D01*
X14113357Y-17090643D01*
X14127643Y-17104929D01*
X14156214Y-17119214D01*
X14213357Y-17119214D01*
X14241928Y-17104929D01*
X14256214Y-17090643D01*
X14270500Y-17062072D01*
X14270500Y-16990643D01*
X14256214Y-16962072D01*
X14241928Y-16947786D01*
X14213357Y-16933500D01*
X14156214Y-16933500D01*
X14127643Y-16947786D01*
X14113357Y-16962072D01*
X14099071Y-16990643D01*
X14384786Y-16819214D02*
X14384786Y-16876357D01*
X14499071Y-16819214D02*
X14499071Y-16876357D01*
X14941928Y-17233500D02*
X14927643Y-17219214D01*
X14899071Y-17176357D01*
X14884786Y-17147786D01*
X14870500Y-17104929D01*
X14856214Y-17033500D01*
X14856214Y-16976357D01*
X14870500Y-16904929D01*
X14884786Y-16862072D01*
X14899071Y-16833500D01*
X14927643Y-16790643D01*
X14941928Y-16776357D01*
X15213357Y-17119214D02*
X15041928Y-17119214D01*
X15127643Y-17119214D02*
X15127643Y-16819214D01*
X15099071Y-16862072D01*
X15070500Y-16890643D01*
X15041928Y-16904929D01*
X15399071Y-16819214D02*
X15427643Y-16819214D01*
X15456214Y-16833500D01*
X15470500Y-16847786D01*
X15484786Y-16876357D01*
X15499071Y-16933500D01*
X15499071Y-17004929D01*
X15484786Y-17062072D01*
X15470500Y-17090643D01*
X15456214Y-17104929D01*
X15427643Y-17119214D01*
X15399071Y-17119214D01*
X15370500Y-17104929D01*
X15356214Y-17090643D01*
X15341928Y-17062072D01*
X15327643Y-17004929D01*
X15327643Y-16933500D01*
X15341928Y-16876357D01*
X15356214Y-16847786D01*
X15370500Y-16833500D01*
X15399071Y-16819214D01*
X15856214Y-17119214D02*
X15856214Y-16819214D01*
X15984786Y-17119214D02*
X15984786Y-16962072D01*
X15970500Y-16933500D01*
X15941928Y-16919214D01*
X15899071Y-16919214D01*
X15870500Y-16933500D01*
X15856214Y-16947786D01*
X16170500Y-17119214D02*
X16141928Y-17104929D01*
X16127643Y-17090643D01*
X16113357Y-17062072D01*
X16113357Y-16976357D01*
X16127643Y-16947786D01*
X16141928Y-16933500D01*
X16170500Y-16919214D01*
X16213357Y-16919214D01*
X16241928Y-16933500D01*
X16256214Y-16947786D01*
X16270500Y-16976357D01*
X16270500Y-17062072D01*
X16256214Y-17090643D01*
X16241928Y-17104929D01*
X16213357Y-17119214D01*
X16170500Y-17119214D01*
X16441928Y-17119214D02*
X16413357Y-17104929D01*
X16399071Y-17076357D01*
X16399071Y-16819214D01*
X16670500Y-17104929D02*
X16641928Y-17119214D01*
X16584786Y-17119214D01*
X16556214Y-17104929D01*
X16541928Y-17076357D01*
X16541928Y-16962072D01*
X16556214Y-16933500D01*
X16584786Y-16919214D01*
X16641928Y-16919214D01*
X16670500Y-16933500D01*
X16684786Y-16962072D01*
X16684786Y-16990643D01*
X16541928Y-17019214D01*
X16799071Y-17104929D02*
X16827643Y-17119214D01*
X16884786Y-17119214D01*
X16913357Y-17104929D01*
X16927643Y-17076357D01*
X16927643Y-17062072D01*
X16913357Y-17033500D01*
X16884786Y-17019214D01*
X16841928Y-17019214D01*
X16813357Y-17004929D01*
X16799071Y-16976357D01*
X16799071Y-16962072D01*
X16813357Y-16933500D01*
X16841928Y-16919214D01*
X16884786Y-16919214D01*
X16913357Y-16933500D01*
X17027643Y-17233500D02*
X17041928Y-17219214D01*
X17070500Y-17176357D01*
X17084786Y-17147786D01*
X17099071Y-17104929D01*
X17113357Y-17033500D01*
X17113357Y-16976357D01*
X17099071Y-16904929D01*
X17084786Y-16862072D01*
X17070500Y-16833500D01*
X17041928Y-16790643D01*
X17027643Y-16776357D01*
X17570500Y-17233500D02*
X17556214Y-17219214D01*
X17527643Y-17176357D01*
X17513357Y-17147786D01*
X17499071Y-17104929D01*
X17484786Y-17033500D01*
X17484786Y-16976357D01*
X17499071Y-16904929D01*
X17513357Y-16862072D01*
X17527643Y-16833500D01*
X17556214Y-16790643D01*
X17570500Y-16776357D01*
X17684786Y-16919214D02*
X17684786Y-17119214D01*
X17684786Y-16947786D02*
X17699071Y-16933500D01*
X17727643Y-16919214D01*
X17770500Y-16919214D01*
X17799071Y-16933500D01*
X17813357Y-16962072D01*
X17813357Y-17119214D01*
X17999071Y-17119214D02*
X17970500Y-17104929D01*
X17956214Y-17090643D01*
X17941928Y-17062072D01*
X17941928Y-16976357D01*
X17956214Y-16947786D01*
X17970500Y-16933500D01*
X17999071Y-16919214D01*
X18041928Y-16919214D01*
X18070500Y-16933500D01*
X18084786Y-16947786D01*
X18099071Y-16976357D01*
X18099071Y-17062072D01*
X18084786Y-17090643D01*
X18070500Y-17104929D01*
X18041928Y-17119214D01*
X17999071Y-17119214D01*
X18184786Y-16919214D02*
X18299071Y-16919214D01*
X18227643Y-16819214D02*
X18227643Y-17076357D01*
X18241928Y-17104929D01*
X18270500Y-17119214D01*
X18299071Y-17119214D01*
X18627643Y-16919214D02*
X18627643Y-17219214D01*
X18627643Y-16933500D02*
X18656214Y-16919214D01*
X18713357Y-16919214D01*
X18741928Y-16933500D01*
X18756214Y-16947786D01*
X18770500Y-16976357D01*
X18770500Y-17062072D01*
X18756214Y-17090643D01*
X18741928Y-17104929D01*
X18713357Y-17119214D01*
X18656214Y-17119214D01*
X18627643Y-17104929D01*
X18941928Y-17119214D02*
X18913357Y-17104929D01*
X18899071Y-17076357D01*
X18899071Y-16819214D01*
X19184786Y-17119214D02*
X19184786Y-16962072D01*
X19170500Y-16933500D01*
X19141928Y-16919214D01*
X19084786Y-16919214D01*
X19056214Y-16933500D01*
X19184786Y-17104929D02*
X19156214Y-17119214D01*
X19084786Y-17119214D01*
X19056214Y-17104929D01*
X19041928Y-17076357D01*
X19041928Y-17047786D01*
X19056214Y-17019214D01*
X19084786Y-17004929D01*
X19156214Y-17004929D01*
X19184786Y-16990643D01*
X19284786Y-16919214D02*
X19399071Y-16919214D01*
X19327643Y-16819214D02*
X19327643Y-17076357D01*
X19341928Y-17104929D01*
X19370500Y-17119214D01*
X19399071Y-17119214D01*
X19613357Y-17104929D02*
X19584786Y-17119214D01*
X19527643Y-17119214D01*
X19499071Y-17104929D01*
X19484786Y-17076357D01*
X19484786Y-16962072D01*
X19499071Y-16933500D01*
X19527643Y-16919214D01*
X19584786Y-16919214D01*
X19613357Y-16933500D01*
X19627643Y-16962072D01*
X19627643Y-16990643D01*
X19484786Y-17019214D01*
X19884786Y-17119214D02*
X19884786Y-16819214D01*
X19884786Y-17104929D02*
X19856214Y-17119214D01*
X19799071Y-17119214D01*
X19770500Y-17104929D01*
X19756214Y-17090643D01*
X19741928Y-17062072D01*
X19741928Y-16976357D01*
X19756214Y-16947786D01*
X19770500Y-16933500D01*
X19799071Y-16919214D01*
X19856214Y-16919214D01*
X19884786Y-16933500D01*
X19999071Y-17233500D02*
X20013357Y-17219214D01*
X20041928Y-17176357D01*
X20056214Y-17147786D01*
X20070500Y-17104929D01*
X20084786Y-17033500D01*
X20084786Y-16976357D01*
X20070500Y-16904929D01*
X20056214Y-16862072D01*
X20041928Y-16833500D01*
X20013357Y-16790643D01*
X19999071Y-16776357D01*
X10189601Y-17592601D02*
X10189601Y-17274400D01*
X9871399Y-17274400D01*
X9871399Y-17592601D01*
X10189601Y-17592601D01*
X10670500Y-17369214D02*
X10670500Y-17569214D01*
X10599071Y-17254929D02*
X10527643Y-17469214D01*
X10713357Y-17469214D01*
X10827643Y-17540643D02*
X10841928Y-17554929D01*
X10827643Y-17569214D01*
X10813357Y-17554929D01*
X10827643Y-17540643D01*
X10827643Y-17569214D01*
X11113357Y-17269214D02*
X10970500Y-17269214D01*
X10956214Y-17412072D01*
X10970500Y-17397786D01*
X10999071Y-17383500D01*
X11070500Y-17383500D01*
X11099071Y-17397786D01*
X11113357Y-17412072D01*
X11127643Y-17440643D01*
X11127643Y-17512072D01*
X11113357Y-17540643D01*
X11099071Y-17554929D01*
X11070500Y-17569214D01*
X10999071Y-17569214D01*
X10970500Y-17554929D01*
X10956214Y-17540643D01*
X11313357Y-17269214D02*
X11341928Y-17269214D01*
X11370500Y-17283500D01*
X11384786Y-17297786D01*
X11399071Y-17326357D01*
X11413357Y-17383500D01*
X11413357Y-17454929D01*
X11399071Y-17512072D01*
X11384786Y-17540643D01*
X11370500Y-17554929D01*
X11341928Y-17569214D01*
X11313357Y-17569214D01*
X11284786Y-17554929D01*
X11270500Y-17540643D01*
X11256214Y-17512072D01*
X11241928Y-17454929D01*
X11241928Y-17383500D01*
X11256214Y-17326357D01*
X11270500Y-17297786D01*
X11284786Y-17283500D01*
X11313357Y-17269214D01*
X11541928Y-17569214D02*
X11541928Y-17369214D01*
X11541928Y-17397786D02*
X11556214Y-17383500D01*
X11584786Y-17369214D01*
X11627643Y-17369214D01*
X11656214Y-17383500D01*
X11670500Y-17412072D01*
X11670500Y-17569214D01*
X11670500Y-17412072D02*
X11684786Y-17383500D01*
X11713357Y-17369214D01*
X11756214Y-17369214D01*
X11784786Y-17383500D01*
X11799071Y-17412072D01*
X11799071Y-17569214D01*
X11941928Y-17569214D02*
X11941928Y-17369214D01*
X11941928Y-17397786D02*
X11956214Y-17383500D01*
X11984786Y-17369214D01*
X12027643Y-17369214D01*
X12056214Y-17383500D01*
X12070500Y-17412072D01*
X12070500Y-17569214D01*
X12070500Y-17412072D02*
X12084786Y-17383500D01*
X12113357Y-17369214D01*
X12156214Y-17369214D01*
X12184786Y-17383500D01*
X12199071Y-17412072D01*
X12199071Y-17569214D01*
X12784786Y-17254929D02*
X12527643Y-17640643D01*
X13170500Y-17269214D02*
X13199071Y-17269214D01*
X13227643Y-17283500D01*
X13241928Y-17297786D01*
X13256214Y-17326357D01*
X13270500Y-17383500D01*
X13270500Y-17454929D01*
X13256214Y-17512072D01*
X13241928Y-17540643D01*
X13227643Y-17554929D01*
X13199071Y-17569214D01*
X13170500Y-17569214D01*
X13141928Y-17554929D01*
X13127643Y-17540643D01*
X13113357Y-17512072D01*
X13099071Y-17454929D01*
X13099071Y-17383500D01*
X13113357Y-17326357D01*
X13127643Y-17297786D01*
X13141928Y-17283500D01*
X13170500Y-17269214D01*
X13399071Y-17540643D02*
X13413357Y-17554929D01*
X13399071Y-17569214D01*
X13384786Y-17554929D01*
X13399071Y-17540643D01*
X13399071Y-17569214D01*
X13699071Y-17569214D02*
X13527643Y-17569214D01*
X13613357Y-17569214D02*
X13613357Y-17269214D01*
X13584786Y-17312072D01*
X13556214Y-17340643D01*
X13527643Y-17354929D01*
X13799071Y-17269214D02*
X13999071Y-17269214D01*
X13870500Y-17569214D01*
X14084786Y-17269214D02*
X14284786Y-17269214D01*
X14156214Y-17569214D01*
X14384786Y-17269214D02*
X14384786Y-17326357D01*
X14499071Y-17269214D02*
X14499071Y-17326357D01*
X14941928Y-17683500D02*
X14927643Y-17669214D01*
X14899071Y-17626357D01*
X14884786Y-17597786D01*
X14870500Y-17554929D01*
X14856214Y-17483500D01*
X14856214Y-17426357D01*
X14870500Y-17354929D01*
X14884786Y-17312072D01*
X14899071Y-17283500D01*
X14927643Y-17240643D01*
X14941928Y-17226357D01*
X15184786Y-17369214D02*
X15184786Y-17569214D01*
X15113357Y-17254929D02*
X15041928Y-17469214D01*
X15227643Y-17469214D01*
X15570500Y-17569214D02*
X15570500Y-17269214D01*
X15699071Y-17569214D02*
X15699071Y-17412072D01*
X15684786Y-17383500D01*
X15656214Y-17369214D01*
X15613357Y-17369214D01*
X15584786Y-17383500D01*
X15570500Y-17397786D01*
X15884786Y-17569214D02*
X15856214Y-17554929D01*
X15841928Y-17540643D01*
X15827643Y-17512072D01*
X15827643Y-17426357D01*
X15841928Y-17397786D01*
X15856214Y-17383500D01*
X15884786Y-17369214D01*
X15927643Y-17369214D01*
X15956214Y-17383500D01*
X15970500Y-17397786D01*
X15984786Y-17426357D01*
X15984786Y-17512072D01*
X15970500Y-17540643D01*
X15956214Y-17554929D01*
X15927643Y-17569214D01*
X15884786Y-17569214D01*
X16156214Y-17569214D02*
X16127643Y-17554929D01*
X16113357Y-17526357D01*
X16113357Y-17269214D01*
X16384786Y-17554929D02*
X16356214Y-17569214D01*
X16299071Y-17569214D01*
X16270500Y-17554929D01*
X16256214Y-17526357D01*
X16256214Y-17412072D01*
X16270500Y-17383500D01*
X16299071Y-17369214D01*
X16356214Y-17369214D01*
X16384786Y-17383500D01*
X16399071Y-17412072D01*
X16399071Y-17440643D01*
X16256214Y-17469214D01*
X16513357Y-17554929D02*
X16541928Y-17569214D01*
X16599071Y-17569214D01*
X16627643Y-17554929D01*
X16641928Y-17526357D01*
X16641928Y-17512072D01*
X16627643Y-17483500D01*
X16599071Y-17469214D01*
X16556214Y-17469214D01*
X16527643Y-17454929D01*
X16513357Y-17426357D01*
X16513357Y-17412072D01*
X16527643Y-17383500D01*
X16556214Y-17369214D01*
X16599071Y-17369214D01*
X16627643Y-17383500D01*
X16741928Y-17683500D02*
X16756214Y-17669214D01*
X16784786Y-17626357D01*
X16799071Y-17597786D01*
X16813357Y-17554929D01*
X16827643Y-17483500D01*
X16827643Y-17426357D01*
X16813357Y-17354929D01*
X16799071Y-17312072D01*
X16784786Y-17283500D01*
X16756214Y-17240643D01*
X16741928Y-17226357D01*
X17284786Y-17683500D02*
X17270500Y-17669214D01*
X17241928Y-17626357D01*
X17227643Y-17597786D01*
X17213357Y-17554929D01*
X17199071Y-17483500D01*
X17199071Y-17426357D01*
X17213357Y-17354929D01*
X17227643Y-17312072D01*
X17241928Y-17283500D01*
X17270500Y-17240643D01*
X17284786Y-17226357D01*
X17399071Y-17369214D02*
X17399071Y-17569214D01*
X17399071Y-17397786D02*
X17413357Y-17383500D01*
X17441928Y-17369214D01*
X17484786Y-17369214D01*
X17513357Y-17383500D01*
X17527643Y-17412072D01*
X17527643Y-17569214D01*
X17713357Y-17569214D02*
X17684786Y-17554929D01*
X17670500Y-17540643D01*
X17656214Y-17512072D01*
X17656214Y-17426357D01*
X17670500Y-17397786D01*
X17684786Y-17383500D01*
X17713357Y-17369214D01*
X17756214Y-17369214D01*
X17784786Y-17383500D01*
X17799071Y-17397786D01*
X17813357Y-17426357D01*
X17813357Y-17512072D01*
X17799071Y-17540643D01*
X17784786Y-17554929D01*
X17756214Y-17569214D01*
X17713357Y-17569214D01*
X17899071Y-17369214D02*
X18013357Y-17369214D01*
X17941928Y-17269214D02*
X17941928Y-17526357D01*
X17956214Y-17554929D01*
X17984786Y-17569214D01*
X18013357Y-17569214D01*
X18341928Y-17369214D02*
X18341928Y-17669214D01*
X18341928Y-17383500D02*
X18370500Y-17369214D01*
X18427643Y-17369214D01*
X18456214Y-17383500D01*
X18470500Y-17397786D01*
X18484786Y-17426357D01*
X18484786Y-17512072D01*
X18470500Y-17540643D01*
X18456214Y-17554929D01*
X18427643Y-17569214D01*
X18370500Y-17569214D01*
X18341928Y-17554929D01*
X18656214Y-17569214D02*
X18627643Y-17554929D01*
X18613357Y-17526357D01*
X18613357Y-17269214D01*
X18899071Y-17569214D02*
X18899071Y-17412072D01*
X18884786Y-17383500D01*
X18856214Y-17369214D01*
X18799071Y-17369214D01*
X18770500Y-17383500D01*
X18899071Y-17554929D02*
X18870500Y-17569214D01*
X18799071Y-17569214D01*
X18770500Y-17554929D01*
X18756214Y-17526357D01*
X18756214Y-17497786D01*
X18770500Y-17469214D01*
X18799071Y-17454929D01*
X18870500Y-17454929D01*
X18899071Y-17440643D01*
X18999071Y-17369214D02*
X19113357Y-17369214D01*
X19041928Y-17269214D02*
X19041928Y-17526357D01*
X19056214Y-17554929D01*
X19084786Y-17569214D01*
X19113357Y-17569214D01*
X19327643Y-17554929D02*
X19299071Y-17569214D01*
X19241928Y-17569214D01*
X19213357Y-17554929D01*
X19199071Y-17526357D01*
X19199071Y-17412072D01*
X19213357Y-17383500D01*
X19241928Y-17369214D01*
X19299071Y-17369214D01*
X19327643Y-17383500D01*
X19341928Y-17412072D01*
X19341928Y-17440643D01*
X19199071Y-17469214D01*
X19599071Y-17569214D02*
X19599071Y-17269214D01*
X19599071Y-17554929D02*
X19570500Y-17569214D01*
X19513357Y-17569214D01*
X19484786Y-17554929D01*
X19470500Y-17540643D01*
X19456214Y-17512072D01*
X19456214Y-17426357D01*
X19470500Y-17397786D01*
X19484786Y-17383500D01*
X19513357Y-17369214D01*
X19570500Y-17369214D01*
X19599071Y-17383500D01*
X19713357Y-17683500D02*
X19727643Y-17669214D01*
X19756214Y-17626357D01*
X19770500Y-17597786D01*
X19784786Y-17554929D01*
X19799071Y-17483500D01*
X19799071Y-17426357D01*
X19784786Y-17354929D01*
X19770500Y-17312072D01*
X19756214Y-17283500D01*
X19727643Y-17240643D01*
X19713357Y-17226357D01*
M02*
