G04 #@! TF.GenerationSoftware,KiCad,Pcbnew,(5.1.6)-1*
G04 #@! TF.CreationDate,2021-11-02T04:41:39+01:00*
G04 #@! TF.ProjectId,SLAVE,534c4156-452e-46b6-9963-61645f706362,V1*
G04 #@! TF.SameCoordinates,Original*
G04 #@! TF.FileFunction,Copper,L2,Bot*
G04 #@! TF.FilePolarity,Positive*
%FSLAX46Y46*%
G04 Gerber Fmt 4.6, Leading zero omitted, Abs format (unit mm)*
G04 Created by KiCad (PCBNEW (5.1.6)-1) date 2021-11-02 04:41:39*
%MOMM*%
%LPD*%
G01*
G04 APERTURE LIST*
G04 #@! TA.AperFunction,EtchedComponent*
%ADD10C,0.150000*%
G04 #@! TD*
G04 #@! TA.AperFunction,ComponentPad*
%ADD11C,1.600000*%
G04 #@! TD*
G04 #@! TA.AperFunction,ComponentPad*
%ADD12R,1.600000X1.600000*%
G04 #@! TD*
G04 #@! TA.AperFunction,ComponentPad*
%ADD13C,1.800000*%
G04 #@! TD*
G04 #@! TA.AperFunction,ComponentPad*
%ADD14R,1.800000X1.800000*%
G04 #@! TD*
G04 #@! TA.AperFunction,ComponentPad*
%ADD15C,2.550000*%
G04 #@! TD*
G04 #@! TA.AperFunction,ComponentPad*
%ADD16R,1.700000X1.700000*%
G04 #@! TD*
G04 #@! TA.AperFunction,ComponentPad*
%ADD17O,1.700000X1.700000*%
G04 #@! TD*
G04 #@! TA.AperFunction,ComponentPad*
%ADD18C,3.000000*%
G04 #@! TD*
G04 #@! TA.AperFunction,ComponentPad*
%ADD19R,3.000000X3.000000*%
G04 #@! TD*
G04 #@! TA.AperFunction,ComponentPad*
%ADD20C,1.500000*%
G04 #@! TD*
G04 #@! TA.AperFunction,ComponentPad*
%ADD21R,1.500000X1.500000*%
G04 #@! TD*
G04 #@! TA.AperFunction,ComponentPad*
%ADD22C,2.300000*%
G04 #@! TD*
G04 #@! TA.AperFunction,ComponentPad*
%ADD23R,2.000000X2.300000*%
G04 #@! TD*
G04 #@! TA.AperFunction,ComponentPad*
%ADD24O,1.600000X1.600000*%
G04 #@! TD*
G04 #@! TA.AperFunction,ViaPad*
%ADD25C,1.200000*%
G04 #@! TD*
G04 #@! TA.AperFunction,Conductor*
%ADD26C,0.300000*%
G04 #@! TD*
G04 #@! TA.AperFunction,Conductor*
%ADD27C,0.254000*%
G04 #@! TD*
G04 APERTURE END LIST*
D10*
X192000000Y-55570000D02*
G75*
G03*
X192000000Y-55570000I-2500000J0D01*
G01*
X192010000Y-149390000D02*
G75*
G03*
X192010000Y-149390000I-2500000J0D01*
G01*
X108140000Y-55580000D02*
G75*
G03*
X108140000Y-55580000I-2500000J0D01*
G01*
X108160000Y-149390000D02*
G75*
G03*
X108160000Y-149390000I-2500000J0D01*
G01*
X181810000Y-71070000D02*
G75*
G03*
X181810000Y-71070000I-1500000J0D01*
G01*
X181810000Y-54490000D02*
G75*
G03*
X181810000Y-54490000I-1500000J0D01*
G01*
X135210000Y-71070000D02*
G75*
G03*
X135210000Y-71070000I-1500000J0D01*
G01*
X135210000Y-54490000D02*
G75*
G03*
X135210000Y-54490000I-1500000J0D01*
G01*
X188350000Y-106160000D02*
G75*
G03*
X188350000Y-106160000I-2000000J0D01*
G01*
X188350000Y-134900000D02*
G75*
G03*
X188350000Y-134900000I-2000000J0D01*
G01*
X169950000Y-99570000D02*
G75*
G03*
X169950000Y-99570000I-2000000J0D01*
G01*
X169950000Y-76070000D02*
G75*
G03*
X169950000Y-76070000I-2000000J0D01*
G01*
X169320000Y-150230000D02*
G75*
G03*
X169320000Y-150230000I-2000000J0D01*
G01*
X169320000Y-140560000D02*
G75*
G03*
X169320000Y-140560000I-2000000J0D01*
G01*
X143630000Y-134900000D02*
G75*
G03*
X143630000Y-134900000I-2000000J0D01*
G01*
X143630000Y-106160000D02*
G75*
G03*
X143630000Y-106160000I-2000000J0D01*
G01*
X133940000Y-99570000D02*
G75*
G03*
X133940000Y-99570000I-2000000J0D01*
G01*
X133940000Y-76070000D02*
G75*
G03*
X133940000Y-76070000I-2000000J0D01*
G01*
D11*
X112680000Y-107460000D03*
D12*
X110180000Y-107460000D03*
D13*
X187950000Y-62960000D03*
D14*
X187950000Y-60420000D03*
G04 #@! TA.AperFunction,ComponentPad*
G36*
G01*
X126445001Y-62345000D02*
X124394999Y-62345000D01*
G75*
G02*
X124145000Y-62095001I0J249999D01*
G01*
X124145000Y-60044999D01*
G75*
G02*
X124394999Y-59795000I249999J0D01*
G01*
X126445001Y-59795000D01*
G75*
G02*
X126695000Y-60044999I0J-249999D01*
G01*
X126695000Y-62095001D01*
G75*
G02*
X126445001Y-62345000I-249999J0D01*
G01*
G37*
G04 #@! TD.AperFunction*
D15*
X125420000Y-56270000D03*
D16*
X117470000Y-112190000D03*
D17*
X120010000Y-112190000D03*
D18*
X116760000Y-56610000D03*
D19*
X111680000Y-56610000D03*
D17*
X133150000Y-147280000D03*
X133150000Y-144740000D03*
X135690000Y-147280000D03*
X135690000Y-144740000D03*
X138230000Y-147280000D03*
D16*
X138230000Y-144740000D03*
D17*
X153120000Y-142980000D03*
X153120000Y-145520000D03*
D16*
X153120000Y-148060000D03*
D15*
X111710000Y-62870000D03*
G04 #@! TA.AperFunction,ComponentPad*
G36*
G01*
X117785000Y-61844999D02*
X117785000Y-63895001D01*
G75*
G02*
X117535001Y-64145000I-249999J0D01*
G01*
X115484999Y-64145000D01*
G75*
G02*
X115235000Y-63895001I0J249999D01*
G01*
X115235000Y-61844999D01*
G75*
G02*
X115484999Y-61595000I249999J0D01*
G01*
X117535001Y-61595000D01*
G75*
G02*
X117785000Y-61844999I0J-249999D01*
G01*
G37*
G04 #@! TD.AperFunction*
D17*
X180080000Y-58580000D03*
X180080000Y-61120000D03*
X180080000Y-63660000D03*
D16*
X180080000Y-66200000D03*
X135710000Y-110970000D03*
D17*
X135710000Y-113510000D03*
X135710000Y-116050000D03*
D16*
X131880000Y-80570000D03*
D17*
X131880000Y-83110000D03*
X131880000Y-85650000D03*
X131880000Y-88190000D03*
X131880000Y-90730000D03*
X131880000Y-93270000D03*
X131880000Y-95810000D03*
X173870000Y-86740000D03*
D16*
X173870000Y-89280000D03*
D20*
X180910000Y-89790000D03*
X183450000Y-88770000D03*
X180910000Y-87750000D03*
D21*
X183450000Y-86730000D03*
D22*
X106340000Y-98460000D03*
X111540000Y-69060000D03*
D23*
X116540000Y-69060000D03*
D22*
X121740000Y-98460000D03*
G04 #@! TA.AperFunction,SMDPad,CuDef*
G36*
G01*
X123487500Y-140370000D02*
X123012500Y-140370000D01*
G75*
G02*
X122775000Y-140132500I0J237500D01*
G01*
X122775000Y-139557500D01*
G75*
G02*
X123012500Y-139320000I237500J0D01*
G01*
X123487500Y-139320000D01*
G75*
G02*
X123725000Y-139557500I0J-237500D01*
G01*
X123725000Y-140132500D01*
G75*
G02*
X123487500Y-140370000I-237500J0D01*
G01*
G37*
G04 #@! TD.AperFunction*
G04 #@! TA.AperFunction,SMDPad,CuDef*
G36*
G01*
X123487500Y-142120000D02*
X123012500Y-142120000D01*
G75*
G02*
X122775000Y-141882500I0J237500D01*
G01*
X122775000Y-141307500D01*
G75*
G02*
X123012500Y-141070000I237500J0D01*
G01*
X123487500Y-141070000D01*
G75*
G02*
X123725000Y-141307500I0J-237500D01*
G01*
X123725000Y-141882500D01*
G75*
G02*
X123487500Y-142120000I-237500J0D01*
G01*
G37*
G04 #@! TD.AperFunction*
G04 #@! TA.AperFunction,SMDPad,CuDef*
G36*
G01*
X120917500Y-142100000D02*
X120442500Y-142100000D01*
G75*
G02*
X120205000Y-141862500I0J237500D01*
G01*
X120205000Y-141287500D01*
G75*
G02*
X120442500Y-141050000I237500J0D01*
G01*
X120917500Y-141050000D01*
G75*
G02*
X121155000Y-141287500I0J-237500D01*
G01*
X121155000Y-141862500D01*
G75*
G02*
X120917500Y-142100000I-237500J0D01*
G01*
G37*
G04 #@! TD.AperFunction*
G04 #@! TA.AperFunction,SMDPad,CuDef*
G36*
G01*
X120917500Y-140350000D02*
X120442500Y-140350000D01*
G75*
G02*
X120205000Y-140112500I0J237500D01*
G01*
X120205000Y-139537500D01*
G75*
G02*
X120442500Y-139300000I237500J0D01*
G01*
X120917500Y-139300000D01*
G75*
G02*
X121155000Y-139537500I0J-237500D01*
G01*
X121155000Y-140112500D01*
G75*
G02*
X120917500Y-140350000I-237500J0D01*
G01*
G37*
G04 #@! TD.AperFunction*
G04 #@! TA.AperFunction,SMDPad,CuDef*
G36*
G01*
X118397500Y-140365000D02*
X117922500Y-140365000D01*
G75*
G02*
X117685000Y-140127500I0J237500D01*
G01*
X117685000Y-139552500D01*
G75*
G02*
X117922500Y-139315000I237500J0D01*
G01*
X118397500Y-139315000D01*
G75*
G02*
X118635000Y-139552500I0J-237500D01*
G01*
X118635000Y-140127500D01*
G75*
G02*
X118397500Y-140365000I-237500J0D01*
G01*
G37*
G04 #@! TD.AperFunction*
G04 #@! TA.AperFunction,SMDPad,CuDef*
G36*
G01*
X118397500Y-142115000D02*
X117922500Y-142115000D01*
G75*
G02*
X117685000Y-141877500I0J237500D01*
G01*
X117685000Y-141302500D01*
G75*
G02*
X117922500Y-141065000I237500J0D01*
G01*
X118397500Y-141065000D01*
G75*
G02*
X118635000Y-141302500I0J-237500D01*
G01*
X118635000Y-141877500D01*
G75*
G02*
X118397500Y-142115000I-237500J0D01*
G01*
G37*
G04 #@! TD.AperFunction*
G04 #@! TA.AperFunction,SMDPad,CuDef*
G36*
G01*
X115857500Y-142100000D02*
X115382500Y-142100000D01*
G75*
G02*
X115145000Y-141862500I0J237500D01*
G01*
X115145000Y-141287500D01*
G75*
G02*
X115382500Y-141050000I237500J0D01*
G01*
X115857500Y-141050000D01*
G75*
G02*
X116095000Y-141287500I0J-237500D01*
G01*
X116095000Y-141862500D01*
G75*
G02*
X115857500Y-142100000I-237500J0D01*
G01*
G37*
G04 #@! TD.AperFunction*
G04 #@! TA.AperFunction,SMDPad,CuDef*
G36*
G01*
X115857500Y-140350000D02*
X115382500Y-140350000D01*
G75*
G02*
X115145000Y-140112500I0J237500D01*
G01*
X115145000Y-139537500D01*
G75*
G02*
X115382500Y-139300000I237500J0D01*
G01*
X115857500Y-139300000D01*
G75*
G02*
X116095000Y-139537500I0J-237500D01*
G01*
X116095000Y-140112500D01*
G75*
G02*
X115857500Y-140350000I-237500J0D01*
G01*
G37*
G04 #@! TD.AperFunction*
G04 #@! TA.AperFunction,SMDPad,CuDef*
G36*
G01*
X113327500Y-140350000D02*
X112852500Y-140350000D01*
G75*
G02*
X112615000Y-140112500I0J237500D01*
G01*
X112615000Y-139537500D01*
G75*
G02*
X112852500Y-139300000I237500J0D01*
G01*
X113327500Y-139300000D01*
G75*
G02*
X113565000Y-139537500I0J-237500D01*
G01*
X113565000Y-140112500D01*
G75*
G02*
X113327500Y-140350000I-237500J0D01*
G01*
G37*
G04 #@! TD.AperFunction*
G04 #@! TA.AperFunction,SMDPad,CuDef*
G36*
G01*
X113327500Y-142100000D02*
X112852500Y-142100000D01*
G75*
G02*
X112615000Y-141862500I0J237500D01*
G01*
X112615000Y-141287500D01*
G75*
G02*
X112852500Y-141050000I237500J0D01*
G01*
X113327500Y-141050000D01*
G75*
G02*
X113565000Y-141287500I0J-237500D01*
G01*
X113565000Y-141862500D01*
G75*
G02*
X113327500Y-142100000I-237500J0D01*
G01*
G37*
G04 #@! TD.AperFunction*
G04 #@! TA.AperFunction,SMDPad,CuDef*
G36*
G01*
X110757500Y-142100000D02*
X110282500Y-142100000D01*
G75*
G02*
X110045000Y-141862500I0J237500D01*
G01*
X110045000Y-141287500D01*
G75*
G02*
X110282500Y-141050000I237500J0D01*
G01*
X110757500Y-141050000D01*
G75*
G02*
X110995000Y-141287500I0J-237500D01*
G01*
X110995000Y-141862500D01*
G75*
G02*
X110757500Y-142100000I-237500J0D01*
G01*
G37*
G04 #@! TD.AperFunction*
G04 #@! TA.AperFunction,SMDPad,CuDef*
G36*
G01*
X110757500Y-140350000D02*
X110282500Y-140350000D01*
G75*
G02*
X110045000Y-140112500I0J237500D01*
G01*
X110045000Y-139537500D01*
G75*
G02*
X110282500Y-139300000I237500J0D01*
G01*
X110757500Y-139300000D01*
G75*
G02*
X110995000Y-139537500I0J-237500D01*
G01*
X110995000Y-140112500D01*
G75*
G02*
X110757500Y-140350000I-237500J0D01*
G01*
G37*
G04 #@! TD.AperFunction*
D24*
X110570000Y-137500000D03*
X123270000Y-145120000D03*
X113110000Y-137500000D03*
X120730000Y-145120000D03*
X115650000Y-137500000D03*
X118190000Y-145120000D03*
X118190000Y-137500000D03*
X115650000Y-145120000D03*
X120730000Y-137500000D03*
X113110000Y-145120000D03*
X123270000Y-137500000D03*
D12*
X110570000Y-145120000D03*
D25*
X120900000Y-120630000D03*
X146240000Y-132480000D03*
X123480000Y-119980000D03*
X125960000Y-128020000D03*
X155600000Y-132490000D03*
X142310000Y-140130000D03*
X137720000Y-137490000D03*
X133430000Y-133200000D03*
X130320000Y-121240000D03*
X145510000Y-101490000D03*
X125510000Y-134570000D03*
X137800000Y-123980000D03*
X125120000Y-131810000D03*
X125760000Y-137080000D03*
X147850000Y-124610000D03*
X160220000Y-97680000D03*
X141190000Y-116350000D03*
X132000000Y-117600000D03*
X117350000Y-115660000D03*
X115880000Y-119840000D03*
X115690000Y-117100000D03*
D26*
X110570000Y-145120000D02*
X106300000Y-140850000D01*
X106300000Y-140850000D02*
X106300000Y-114210000D01*
X110180000Y-110330000D02*
X110180000Y-107460000D01*
X106300000Y-114210000D02*
X110180000Y-110330000D01*
X123480000Y-119980000D02*
X124820000Y-121320000D01*
X124820000Y-126880000D02*
X125960000Y-128020000D01*
X124820000Y-121320000D02*
X124820000Y-126880000D01*
X131880000Y-85650000D02*
X140040000Y-85650000D01*
X140040000Y-85650000D02*
X153090000Y-98700000D01*
X153090000Y-98700000D02*
X153090000Y-138280000D01*
X153090000Y-138280000D02*
X141190000Y-150180000D01*
X141190000Y-150180000D02*
X136110000Y-150180000D01*
X135690000Y-149760000D02*
X135690000Y-147280000D01*
X136110000Y-150180000D02*
X135690000Y-149760000D01*
X131880000Y-83110000D02*
X141330000Y-83110000D01*
X141330000Y-83110000D02*
X155600000Y-97380000D01*
X155600000Y-97380000D02*
X155600000Y-132490000D01*
X142310000Y-140130000D02*
X137460000Y-140130000D01*
X135690000Y-141900000D02*
X135690000Y-144740000D01*
X137460000Y-140130000D02*
X135690000Y-141900000D01*
X137720000Y-137490000D02*
X133430000Y-133200000D01*
X131880000Y-88190000D02*
X139070000Y-88190000D01*
X139070000Y-88190000D02*
X150920000Y-100040000D01*
X150920000Y-100040000D02*
X150920000Y-137030000D01*
X143210000Y-144740000D02*
X138230000Y-144740000D01*
X150920000Y-137030000D02*
X143210000Y-144740000D01*
X130320000Y-121240000D02*
X139680000Y-121240000D01*
X139680000Y-121240000D02*
X145510000Y-115410000D01*
X145510000Y-115410000D02*
X145510000Y-101490000D01*
X127230000Y-134570000D02*
X125510000Y-134570000D01*
X134900000Y-126900000D02*
X127230000Y-134570000D01*
X134900000Y-126900000D02*
X134900000Y-126880000D01*
X134900000Y-126880000D02*
X137800000Y-123980000D01*
X125120000Y-131810000D02*
X127850000Y-131810000D01*
X127850000Y-131810000D02*
X137480000Y-122180000D01*
X137480000Y-122180000D02*
X146620000Y-122180000D01*
X146620000Y-122180000D02*
X148440000Y-120360000D01*
X148440000Y-120360000D02*
X148440000Y-101650000D01*
X137520000Y-90730000D02*
X131880000Y-90730000D01*
X148440000Y-101650000D02*
X137520000Y-90730000D01*
X125760000Y-137080000D02*
X127550000Y-137080000D01*
X127550000Y-137080000D02*
X140020000Y-124610000D01*
X140020000Y-124610000D02*
X147850000Y-124610000D01*
X142510000Y-80570000D02*
X131880000Y-80570000D01*
X143110000Y-80570000D02*
X142510000Y-80570000D01*
X160220000Y-97680000D02*
X143110000Y-80570000D01*
X141190000Y-116350000D02*
X137670000Y-119870000D01*
X137670000Y-119870000D02*
X134270000Y-119870000D01*
X132000000Y-117600000D02*
X134270000Y-119870000D01*
X123250000Y-137520000D02*
X123270000Y-137500000D01*
X123270000Y-137500000D02*
X123270000Y-136050000D01*
X123270000Y-136050000D02*
X123270000Y-135540000D01*
X123270000Y-135540000D02*
X117350000Y-129620000D01*
X117350000Y-129620000D02*
X117350000Y-115660000D01*
X123270000Y-139825000D02*
X123250000Y-139845000D01*
X123270000Y-137500000D02*
X123270000Y-139825000D01*
X120680000Y-137550000D02*
X120730000Y-137500000D01*
X120730000Y-139775000D02*
X120680000Y-139825000D01*
X120730000Y-137500000D02*
X120730000Y-139775000D01*
X118160000Y-137530000D02*
X118190000Y-137500000D01*
X118190000Y-139810000D02*
X118160000Y-139840000D01*
X118190000Y-137500000D02*
X118190000Y-139810000D01*
X115620000Y-137530000D02*
X115650000Y-137500000D01*
X115650000Y-139795000D02*
X115620000Y-139825000D01*
X115650000Y-137500000D02*
X115650000Y-139795000D01*
X113090000Y-137520000D02*
X113110000Y-137500000D01*
X113110000Y-137500000D02*
X113110000Y-122610000D01*
X113110000Y-122610000D02*
X115880000Y-119840000D01*
X113110000Y-139805000D02*
X113090000Y-139825000D01*
X113110000Y-137500000D02*
X113110000Y-139805000D01*
X110540000Y-137530000D02*
X110570000Y-137500000D01*
X110570000Y-137500000D02*
X110570000Y-122220000D01*
X110570000Y-122220000D02*
X115690000Y-117100000D01*
X110570000Y-139775000D02*
X110520000Y-139825000D01*
X110570000Y-137500000D02*
X110570000Y-139775000D01*
D27*
G36*
X178343316Y-53438785D02*
G01*
X178176023Y-53842665D01*
X178090738Y-54271422D01*
X178090738Y-54708578D01*
X178176023Y-55137335D01*
X178343316Y-55541215D01*
X178586187Y-55904697D01*
X178895303Y-56213813D01*
X179258785Y-56456684D01*
X179662665Y-56623977D01*
X180091422Y-56709262D01*
X180528578Y-56709262D01*
X180957335Y-56623977D01*
X181361215Y-56456684D01*
X181724697Y-56213813D01*
X182033813Y-55904697D01*
X182276684Y-55541215D01*
X182443977Y-55137335D01*
X182529262Y-54708578D01*
X182529262Y-54271422D01*
X182443977Y-53842665D01*
X182276684Y-53438785D01*
X182197314Y-53320000D01*
X187204086Y-53320000D01*
X187003176Y-53520910D01*
X186651394Y-54047389D01*
X186409083Y-54632380D01*
X186285553Y-55253405D01*
X186285553Y-55886595D01*
X186409083Y-56507620D01*
X186651394Y-57092611D01*
X187003176Y-57619090D01*
X187450910Y-58066824D01*
X187977389Y-58418606D01*
X188562380Y-58660917D01*
X189183405Y-58784447D01*
X189816595Y-58784447D01*
X190437620Y-58660917D01*
X191022611Y-58418606D01*
X191549090Y-58066824D01*
X191890000Y-57725914D01*
X191890001Y-147224087D01*
X191559090Y-146893176D01*
X191032611Y-146541394D01*
X190447620Y-146299083D01*
X189826595Y-146175553D01*
X189193405Y-146175553D01*
X188572380Y-146299083D01*
X187987389Y-146541394D01*
X187460910Y-146893176D01*
X187013176Y-147340910D01*
X186661394Y-147867389D01*
X186419083Y-148452380D01*
X186295553Y-149073405D01*
X186295553Y-149706595D01*
X186419083Y-150327620D01*
X186661394Y-150912611D01*
X187013176Y-151439090D01*
X187204086Y-151630000D01*
X169652083Y-151630000D01*
X169727645Y-151516913D01*
X169932447Y-151022477D01*
X170036854Y-150497587D01*
X170036854Y-149962413D01*
X169932447Y-149437523D01*
X169727645Y-148943087D01*
X169430319Y-148498106D01*
X169051894Y-148119681D01*
X168606913Y-147822355D01*
X168112477Y-147617553D01*
X167587587Y-147513146D01*
X167052413Y-147513146D01*
X166527523Y-147617553D01*
X166033087Y-147822355D01*
X165588106Y-148119681D01*
X165209681Y-148498106D01*
X164912355Y-148943087D01*
X164707553Y-149437523D01*
X164603146Y-149962413D01*
X164603146Y-150497587D01*
X164707553Y-151022477D01*
X164912355Y-151516913D01*
X164987917Y-151630000D01*
X107965914Y-151630000D01*
X108156824Y-151439090D01*
X108508606Y-150912611D01*
X108750917Y-150327620D01*
X108874447Y-149706595D01*
X108874447Y-149073405D01*
X108750917Y-148452380D01*
X108508606Y-147867389D01*
X108354593Y-147636891D01*
X131708519Y-147636891D01*
X131805843Y-147911252D01*
X131954822Y-148161355D01*
X132149731Y-148377588D01*
X132383080Y-148551641D01*
X132645901Y-148676825D01*
X132793110Y-148721476D01*
X133023000Y-148600155D01*
X133023000Y-147407000D01*
X131829186Y-147407000D01*
X131708519Y-147636891D01*
X108354593Y-147636891D01*
X108156824Y-147340910D01*
X107709090Y-146893176D01*
X107182611Y-146541394D01*
X106597620Y-146299083D01*
X105976595Y-146175553D01*
X105343405Y-146175553D01*
X104722380Y-146299083D01*
X104137389Y-146541394D01*
X103610910Y-146893176D01*
X103240000Y-147264086D01*
X103240000Y-114210000D01*
X105511203Y-114210000D01*
X105515001Y-114248563D01*
X105515000Y-140811447D01*
X105511203Y-140850000D01*
X105515000Y-140888553D01*
X105515000Y-140888560D01*
X105526359Y-141003886D01*
X105571246Y-141151859D01*
X105644138Y-141288232D01*
X105742236Y-141407764D01*
X105772190Y-141432347D01*
X109131928Y-144792086D01*
X109131928Y-145920000D01*
X109144188Y-146044482D01*
X109180498Y-146164180D01*
X109239463Y-146274494D01*
X109318815Y-146371185D01*
X109415506Y-146450537D01*
X109525820Y-146509502D01*
X109645518Y-146545812D01*
X109770000Y-146558072D01*
X111370000Y-146558072D01*
X111494482Y-146545812D01*
X111614180Y-146509502D01*
X111724494Y-146450537D01*
X111821185Y-146371185D01*
X111900537Y-146274494D01*
X111959502Y-146164180D01*
X111995812Y-146044482D01*
X111996643Y-146036039D01*
X112195241Y-146234637D01*
X112430273Y-146391680D01*
X112691426Y-146499853D01*
X112968665Y-146555000D01*
X113251335Y-146555000D01*
X113528574Y-146499853D01*
X113789727Y-146391680D01*
X114024759Y-146234637D01*
X114224637Y-146034759D01*
X114380000Y-145802241D01*
X114535363Y-146034759D01*
X114735241Y-146234637D01*
X114970273Y-146391680D01*
X115231426Y-146499853D01*
X115508665Y-146555000D01*
X115791335Y-146555000D01*
X116068574Y-146499853D01*
X116329727Y-146391680D01*
X116564759Y-146234637D01*
X116764637Y-146034759D01*
X116920000Y-145802241D01*
X117075363Y-146034759D01*
X117275241Y-146234637D01*
X117510273Y-146391680D01*
X117771426Y-146499853D01*
X118048665Y-146555000D01*
X118331335Y-146555000D01*
X118608574Y-146499853D01*
X118869727Y-146391680D01*
X119104759Y-146234637D01*
X119304637Y-146034759D01*
X119460000Y-145802241D01*
X119615363Y-146034759D01*
X119815241Y-146234637D01*
X120050273Y-146391680D01*
X120311426Y-146499853D01*
X120588665Y-146555000D01*
X120871335Y-146555000D01*
X121148574Y-146499853D01*
X121409727Y-146391680D01*
X121644759Y-146234637D01*
X121844637Y-146034759D01*
X122000000Y-145802241D01*
X122155363Y-146034759D01*
X122355241Y-146234637D01*
X122590273Y-146391680D01*
X122851426Y-146499853D01*
X123128665Y-146555000D01*
X123411335Y-146555000D01*
X123688574Y-146499853D01*
X123949727Y-146391680D01*
X124184759Y-146234637D01*
X124384637Y-146034759D01*
X124541680Y-145799727D01*
X124649853Y-145538574D01*
X124705000Y-145261335D01*
X124705000Y-144978665D01*
X124649853Y-144701426D01*
X124541680Y-144440273D01*
X124384637Y-144205241D01*
X124184759Y-144005363D01*
X123949727Y-143848320D01*
X123688574Y-143740147D01*
X123411335Y-143685000D01*
X123128665Y-143685000D01*
X122851426Y-143740147D01*
X122590273Y-143848320D01*
X122355241Y-144005363D01*
X122155363Y-144205241D01*
X122000000Y-144437759D01*
X121844637Y-144205241D01*
X121644759Y-144005363D01*
X121409727Y-143848320D01*
X121148574Y-143740147D01*
X120871335Y-143685000D01*
X120588665Y-143685000D01*
X120311426Y-143740147D01*
X120050273Y-143848320D01*
X119815241Y-144005363D01*
X119615363Y-144205241D01*
X119460000Y-144437759D01*
X119304637Y-144205241D01*
X119104759Y-144005363D01*
X118869727Y-143848320D01*
X118608574Y-143740147D01*
X118331335Y-143685000D01*
X118048665Y-143685000D01*
X117771426Y-143740147D01*
X117510273Y-143848320D01*
X117275241Y-144005363D01*
X117075363Y-144205241D01*
X116920000Y-144437759D01*
X116764637Y-144205241D01*
X116564759Y-144005363D01*
X116329727Y-143848320D01*
X116068574Y-143740147D01*
X115791335Y-143685000D01*
X115508665Y-143685000D01*
X115231426Y-143740147D01*
X114970273Y-143848320D01*
X114735241Y-144005363D01*
X114535363Y-144205241D01*
X114380000Y-144437759D01*
X114224637Y-144205241D01*
X114024759Y-144005363D01*
X113789727Y-143848320D01*
X113528574Y-143740147D01*
X113251335Y-143685000D01*
X112968665Y-143685000D01*
X112691426Y-143740147D01*
X112430273Y-143848320D01*
X112195241Y-144005363D01*
X111996643Y-144203961D01*
X111995812Y-144195518D01*
X111959502Y-144075820D01*
X111900537Y-143965506D01*
X111821185Y-143868815D01*
X111724494Y-143789463D01*
X111614180Y-143730498D01*
X111494482Y-143694188D01*
X111370000Y-143681928D01*
X110242086Y-143681928D01*
X108660158Y-142100000D01*
X109406928Y-142100000D01*
X109419188Y-142224482D01*
X109455498Y-142344180D01*
X109514463Y-142454494D01*
X109593815Y-142551185D01*
X109690506Y-142630537D01*
X109800820Y-142689502D01*
X109920518Y-142725812D01*
X110045000Y-142738072D01*
X110234250Y-142735000D01*
X110393000Y-142576250D01*
X110393000Y-141702000D01*
X110647000Y-141702000D01*
X110647000Y-142576250D01*
X110805750Y-142735000D01*
X110995000Y-142738072D01*
X111119482Y-142725812D01*
X111239180Y-142689502D01*
X111349494Y-142630537D01*
X111446185Y-142551185D01*
X111525537Y-142454494D01*
X111584502Y-142344180D01*
X111620812Y-142224482D01*
X111633072Y-142100000D01*
X111976928Y-142100000D01*
X111989188Y-142224482D01*
X112025498Y-142344180D01*
X112084463Y-142454494D01*
X112163815Y-142551185D01*
X112260506Y-142630537D01*
X112370820Y-142689502D01*
X112490518Y-142725812D01*
X112615000Y-142738072D01*
X112804250Y-142735000D01*
X112963000Y-142576250D01*
X112963000Y-141702000D01*
X113217000Y-141702000D01*
X113217000Y-142576250D01*
X113375750Y-142735000D01*
X113565000Y-142738072D01*
X113689482Y-142725812D01*
X113809180Y-142689502D01*
X113919494Y-142630537D01*
X114016185Y-142551185D01*
X114095537Y-142454494D01*
X114154502Y-142344180D01*
X114190812Y-142224482D01*
X114203072Y-142100000D01*
X114506928Y-142100000D01*
X114519188Y-142224482D01*
X114555498Y-142344180D01*
X114614463Y-142454494D01*
X114693815Y-142551185D01*
X114790506Y-142630537D01*
X114900820Y-142689502D01*
X115020518Y-142725812D01*
X115145000Y-142738072D01*
X115334250Y-142735000D01*
X115493000Y-142576250D01*
X115493000Y-141702000D01*
X115747000Y-141702000D01*
X115747000Y-142576250D01*
X115905750Y-142735000D01*
X116095000Y-142738072D01*
X116219482Y-142725812D01*
X116339180Y-142689502D01*
X116449494Y-142630537D01*
X116546185Y-142551185D01*
X116625537Y-142454494D01*
X116684502Y-142344180D01*
X116720812Y-142224482D01*
X116731594Y-142115000D01*
X117046928Y-142115000D01*
X117059188Y-142239482D01*
X117095498Y-142359180D01*
X117154463Y-142469494D01*
X117233815Y-142566185D01*
X117330506Y-142645537D01*
X117440820Y-142704502D01*
X117560518Y-142740812D01*
X117685000Y-142753072D01*
X117874250Y-142750000D01*
X118033000Y-142591250D01*
X118033000Y-141717000D01*
X118287000Y-141717000D01*
X118287000Y-142591250D01*
X118445750Y-142750000D01*
X118635000Y-142753072D01*
X118759482Y-142740812D01*
X118879180Y-142704502D01*
X118989494Y-142645537D01*
X119086185Y-142566185D01*
X119165537Y-142469494D01*
X119224502Y-142359180D01*
X119260812Y-142239482D01*
X119273072Y-142115000D01*
X119272880Y-142100000D01*
X119566928Y-142100000D01*
X119579188Y-142224482D01*
X119615498Y-142344180D01*
X119674463Y-142454494D01*
X119753815Y-142551185D01*
X119850506Y-142630537D01*
X119960820Y-142689502D01*
X120080518Y-142725812D01*
X120205000Y-142738072D01*
X120394250Y-142735000D01*
X120553000Y-142576250D01*
X120553000Y-141702000D01*
X120807000Y-141702000D01*
X120807000Y-142576250D01*
X120965750Y-142735000D01*
X121155000Y-142738072D01*
X121279482Y-142725812D01*
X121399180Y-142689502D01*
X121509494Y-142630537D01*
X121606185Y-142551185D01*
X121685537Y-142454494D01*
X121744502Y-142344180D01*
X121780812Y-142224482D01*
X121791102Y-142120000D01*
X122136928Y-142120000D01*
X122149188Y-142244482D01*
X122185498Y-142364180D01*
X122244463Y-142474494D01*
X122323815Y-142571185D01*
X122420506Y-142650537D01*
X122530820Y-142709502D01*
X122650518Y-142745812D01*
X122775000Y-142758072D01*
X122964250Y-142755000D01*
X123123000Y-142596250D01*
X123123000Y-141722000D01*
X123377000Y-141722000D01*
X123377000Y-142596250D01*
X123535750Y-142755000D01*
X123725000Y-142758072D01*
X123849482Y-142745812D01*
X123969180Y-142709502D01*
X124079494Y-142650537D01*
X124176185Y-142571185D01*
X124255537Y-142474494D01*
X124314502Y-142364180D01*
X124350812Y-142244482D01*
X124363072Y-142120000D01*
X124360000Y-141880750D01*
X124201250Y-141722000D01*
X123377000Y-141722000D01*
X123123000Y-141722000D01*
X122298750Y-141722000D01*
X122140000Y-141880750D01*
X122136928Y-142120000D01*
X121791102Y-142120000D01*
X121793072Y-142100000D01*
X121790000Y-141860750D01*
X121631250Y-141702000D01*
X120807000Y-141702000D01*
X120553000Y-141702000D01*
X119728750Y-141702000D01*
X119570000Y-141860750D01*
X119566928Y-142100000D01*
X119272880Y-142100000D01*
X119270000Y-141875750D01*
X119111250Y-141717000D01*
X118287000Y-141717000D01*
X118033000Y-141717000D01*
X117208750Y-141717000D01*
X117050000Y-141875750D01*
X117046928Y-142115000D01*
X116731594Y-142115000D01*
X116733072Y-142100000D01*
X116730000Y-141860750D01*
X116571250Y-141702000D01*
X115747000Y-141702000D01*
X115493000Y-141702000D01*
X114668750Y-141702000D01*
X114510000Y-141860750D01*
X114506928Y-142100000D01*
X114203072Y-142100000D01*
X114200000Y-141860750D01*
X114041250Y-141702000D01*
X113217000Y-141702000D01*
X112963000Y-141702000D01*
X112138750Y-141702000D01*
X111980000Y-141860750D01*
X111976928Y-142100000D01*
X111633072Y-142100000D01*
X111630000Y-141860750D01*
X111471250Y-141702000D01*
X110647000Y-141702000D01*
X110393000Y-141702000D01*
X109568750Y-141702000D01*
X109410000Y-141860750D01*
X109406928Y-142100000D01*
X108660158Y-142100000D01*
X107085000Y-140524843D01*
X107085000Y-137358665D01*
X109135000Y-137358665D01*
X109135000Y-137641335D01*
X109190147Y-137918574D01*
X109298320Y-138179727D01*
X109455363Y-138414759D01*
X109655241Y-138614637D01*
X109785001Y-138701339D01*
X109785001Y-138818563D01*
X109663377Y-138918377D01*
X109554488Y-139051058D01*
X109473577Y-139202433D01*
X109423752Y-139366684D01*
X109406928Y-139537500D01*
X109406928Y-140112500D01*
X109423752Y-140283316D01*
X109473577Y-140447567D01*
X109554488Y-140598942D01*
X109574099Y-140622839D01*
X109514463Y-140695506D01*
X109455498Y-140805820D01*
X109419188Y-140925518D01*
X109406928Y-141050000D01*
X109410000Y-141289250D01*
X109568750Y-141448000D01*
X110393000Y-141448000D01*
X110393000Y-141428000D01*
X110647000Y-141428000D01*
X110647000Y-141448000D01*
X111471250Y-141448000D01*
X111630000Y-141289250D01*
X111633072Y-141050000D01*
X111620812Y-140925518D01*
X111584502Y-140805820D01*
X111525537Y-140695506D01*
X111465901Y-140622839D01*
X111485512Y-140598942D01*
X111566423Y-140447567D01*
X111616248Y-140283316D01*
X111633072Y-140112500D01*
X111633072Y-139537500D01*
X111616248Y-139366684D01*
X111566423Y-139202433D01*
X111485512Y-139051058D01*
X111376623Y-138918377D01*
X111355000Y-138900631D01*
X111355000Y-138701339D01*
X111484759Y-138614637D01*
X111684637Y-138414759D01*
X111840000Y-138182241D01*
X111995363Y-138414759D01*
X112195241Y-138614637D01*
X112325001Y-138701339D01*
X112325001Y-138843183D01*
X112233377Y-138918377D01*
X112124488Y-139051058D01*
X112043577Y-139202433D01*
X111993752Y-139366684D01*
X111976928Y-139537500D01*
X111976928Y-140112500D01*
X111993752Y-140283316D01*
X112043577Y-140447567D01*
X112124488Y-140598942D01*
X112144099Y-140622839D01*
X112084463Y-140695506D01*
X112025498Y-140805820D01*
X111989188Y-140925518D01*
X111976928Y-141050000D01*
X111980000Y-141289250D01*
X112138750Y-141448000D01*
X112963000Y-141448000D01*
X112963000Y-141428000D01*
X113217000Y-141428000D01*
X113217000Y-141448000D01*
X114041250Y-141448000D01*
X114200000Y-141289250D01*
X114203072Y-141050000D01*
X114190812Y-140925518D01*
X114154502Y-140805820D01*
X114095537Y-140695506D01*
X114035901Y-140622839D01*
X114055512Y-140598942D01*
X114136423Y-140447567D01*
X114186248Y-140283316D01*
X114203072Y-140112500D01*
X114203072Y-139537500D01*
X114186248Y-139366684D01*
X114136423Y-139202433D01*
X114055512Y-139051058D01*
X113946623Y-138918377D01*
X113895000Y-138876011D01*
X113895000Y-138701339D01*
X114024759Y-138614637D01*
X114224637Y-138414759D01*
X114380000Y-138182241D01*
X114535363Y-138414759D01*
X114735241Y-138614637D01*
X114865001Y-138701339D01*
X114865001Y-138834976D01*
X114763377Y-138918377D01*
X114654488Y-139051058D01*
X114573577Y-139202433D01*
X114523752Y-139366684D01*
X114506928Y-139537500D01*
X114506928Y-140112500D01*
X114523752Y-140283316D01*
X114573577Y-140447567D01*
X114654488Y-140598942D01*
X114674099Y-140622839D01*
X114614463Y-140695506D01*
X114555498Y-140805820D01*
X114519188Y-140925518D01*
X114506928Y-141050000D01*
X114510000Y-141289250D01*
X114668750Y-141448000D01*
X115493000Y-141448000D01*
X115493000Y-141428000D01*
X115747000Y-141428000D01*
X115747000Y-141448000D01*
X116571250Y-141448000D01*
X116730000Y-141289250D01*
X116733072Y-141050000D01*
X116720812Y-140925518D01*
X116684502Y-140805820D01*
X116625537Y-140695506D01*
X116565901Y-140622839D01*
X116585512Y-140598942D01*
X116666423Y-140447567D01*
X116716248Y-140283316D01*
X116733072Y-140112500D01*
X116733072Y-139537500D01*
X116716248Y-139366684D01*
X116666423Y-139202433D01*
X116585512Y-139051058D01*
X116476623Y-138918377D01*
X116435000Y-138884218D01*
X116435000Y-138701339D01*
X116564759Y-138614637D01*
X116764637Y-138414759D01*
X116920000Y-138182241D01*
X117075363Y-138414759D01*
X117275241Y-138614637D01*
X117405001Y-138701339D01*
X117405001Y-138849976D01*
X117303377Y-138933377D01*
X117194488Y-139066058D01*
X117113577Y-139217433D01*
X117063752Y-139381684D01*
X117046928Y-139552500D01*
X117046928Y-140127500D01*
X117063752Y-140298316D01*
X117113577Y-140462567D01*
X117194488Y-140613942D01*
X117214099Y-140637839D01*
X117154463Y-140710506D01*
X117095498Y-140820820D01*
X117059188Y-140940518D01*
X117046928Y-141065000D01*
X117050000Y-141304250D01*
X117208750Y-141463000D01*
X118033000Y-141463000D01*
X118033000Y-141443000D01*
X118287000Y-141443000D01*
X118287000Y-141463000D01*
X119111250Y-141463000D01*
X119270000Y-141304250D01*
X119273072Y-141065000D01*
X119260812Y-140940518D01*
X119224502Y-140820820D01*
X119165537Y-140710506D01*
X119105901Y-140637839D01*
X119125512Y-140613942D01*
X119206423Y-140462567D01*
X119256248Y-140298316D01*
X119273072Y-140127500D01*
X119273072Y-139552500D01*
X119256248Y-139381684D01*
X119206423Y-139217433D01*
X119125512Y-139066058D01*
X119016623Y-138933377D01*
X118975000Y-138899218D01*
X118975000Y-138701339D01*
X119104759Y-138614637D01*
X119304637Y-138414759D01*
X119460000Y-138182241D01*
X119615363Y-138414759D01*
X119815241Y-138614637D01*
X119945001Y-138701339D01*
X119945001Y-138818563D01*
X119823377Y-138918377D01*
X119714488Y-139051058D01*
X119633577Y-139202433D01*
X119583752Y-139366684D01*
X119566928Y-139537500D01*
X119566928Y-140112500D01*
X119583752Y-140283316D01*
X119633577Y-140447567D01*
X119714488Y-140598942D01*
X119734099Y-140622839D01*
X119674463Y-140695506D01*
X119615498Y-140805820D01*
X119579188Y-140925518D01*
X119566928Y-141050000D01*
X119570000Y-141289250D01*
X119728750Y-141448000D01*
X120553000Y-141448000D01*
X120553000Y-141428000D01*
X120807000Y-141428000D01*
X120807000Y-141448000D01*
X121631250Y-141448000D01*
X121790000Y-141289250D01*
X121793072Y-141050000D01*
X121780812Y-140925518D01*
X121744502Y-140805820D01*
X121685537Y-140695506D01*
X121625901Y-140622839D01*
X121645512Y-140598942D01*
X121726423Y-140447567D01*
X121776248Y-140283316D01*
X121793072Y-140112500D01*
X121793072Y-139537500D01*
X121776248Y-139366684D01*
X121726423Y-139202433D01*
X121645512Y-139051058D01*
X121536623Y-138918377D01*
X121515000Y-138900631D01*
X121515000Y-138701339D01*
X121644759Y-138614637D01*
X121844637Y-138414759D01*
X122000000Y-138182241D01*
X122155363Y-138414759D01*
X122355241Y-138614637D01*
X122485001Y-138701339D01*
X122485001Y-138863183D01*
X122393377Y-138938377D01*
X122284488Y-139071058D01*
X122203577Y-139222433D01*
X122153752Y-139386684D01*
X122136928Y-139557500D01*
X122136928Y-140132500D01*
X122153752Y-140303316D01*
X122203577Y-140467567D01*
X122284488Y-140618942D01*
X122304099Y-140642839D01*
X122244463Y-140715506D01*
X122185498Y-140825820D01*
X122149188Y-140945518D01*
X122136928Y-141070000D01*
X122140000Y-141309250D01*
X122298750Y-141468000D01*
X123123000Y-141468000D01*
X123123000Y-141448000D01*
X123377000Y-141448000D01*
X123377000Y-141468000D01*
X124201250Y-141468000D01*
X124360000Y-141309250D01*
X124363072Y-141070000D01*
X124350812Y-140945518D01*
X124314502Y-140825820D01*
X124255537Y-140715506D01*
X124195901Y-140642839D01*
X124215512Y-140618942D01*
X124296423Y-140467567D01*
X124346248Y-140303316D01*
X124363072Y-140132500D01*
X124363072Y-139557500D01*
X124346248Y-139386684D01*
X124296423Y-139222433D01*
X124215512Y-139071058D01*
X124106623Y-138938377D01*
X124055000Y-138896011D01*
X124055000Y-138701339D01*
X124184759Y-138614637D01*
X124384637Y-138414759D01*
X124541680Y-138179727D01*
X124649853Y-137918574D01*
X124692325Y-137705054D01*
X124800713Y-137867267D01*
X124972733Y-138039287D01*
X125175008Y-138174443D01*
X125399764Y-138267540D01*
X125638363Y-138315000D01*
X125881637Y-138315000D01*
X126120236Y-138267540D01*
X126344992Y-138174443D01*
X126547267Y-138039287D01*
X126719287Y-137867267D01*
X126720802Y-137865000D01*
X127511447Y-137865000D01*
X127550000Y-137868797D01*
X127588553Y-137865000D01*
X127588561Y-137865000D01*
X127703887Y-137853641D01*
X127851860Y-137808754D01*
X127988233Y-137735862D01*
X128107764Y-137637764D01*
X128132347Y-137607810D01*
X132232084Y-133508073D01*
X132242460Y-133560236D01*
X132335557Y-133784992D01*
X132470713Y-133987267D01*
X132642733Y-134159287D01*
X132845008Y-134294443D01*
X133069764Y-134387540D01*
X133308363Y-134435000D01*
X133551637Y-134435000D01*
X133554311Y-134434468D01*
X136485532Y-137365690D01*
X136485000Y-137368363D01*
X136485000Y-137611637D01*
X136532460Y-137850236D01*
X136625557Y-138074992D01*
X136760713Y-138277267D01*
X136932733Y-138449287D01*
X137135008Y-138584443D01*
X137359764Y-138677540D01*
X137598363Y-138725000D01*
X137841637Y-138725000D01*
X138080236Y-138677540D01*
X138304992Y-138584443D01*
X138507267Y-138449287D01*
X138679287Y-138277267D01*
X138814443Y-138074992D01*
X138907540Y-137850236D01*
X138955000Y-137611637D01*
X138955000Y-137368363D01*
X138907540Y-137129764D01*
X138814443Y-136905008D01*
X138679287Y-136702733D01*
X138507267Y-136530713D01*
X138304992Y-136395557D01*
X138080236Y-136302460D01*
X137841637Y-136255000D01*
X137598363Y-136255000D01*
X137595690Y-136255532D01*
X135972571Y-134632413D01*
X138913146Y-134632413D01*
X138913146Y-135167587D01*
X139017553Y-135692477D01*
X139222355Y-136186913D01*
X139519681Y-136631894D01*
X139898106Y-137010319D01*
X140343087Y-137307645D01*
X140837523Y-137512447D01*
X141362413Y-137616854D01*
X141897587Y-137616854D01*
X142422477Y-137512447D01*
X142916913Y-137307645D01*
X143361894Y-137010319D01*
X143740319Y-136631894D01*
X144037645Y-136186913D01*
X144242447Y-135692477D01*
X144346854Y-135167587D01*
X144346854Y-134632413D01*
X144242447Y-134107523D01*
X144037645Y-133613087D01*
X143740319Y-133168106D01*
X143361894Y-132789681D01*
X142916913Y-132492355D01*
X142422477Y-132287553D01*
X141897587Y-132183146D01*
X141362413Y-132183146D01*
X140837523Y-132287553D01*
X140343087Y-132492355D01*
X139898106Y-132789681D01*
X139519681Y-133168106D01*
X139222355Y-133613087D01*
X139017553Y-134107523D01*
X138913146Y-134632413D01*
X135972571Y-134632413D01*
X134664468Y-133324311D01*
X134665000Y-133321637D01*
X134665000Y-133078363D01*
X134617540Y-132839764D01*
X134524443Y-132615008D01*
X134389287Y-132412733D01*
X134217267Y-132240713D01*
X134014992Y-132105557D01*
X133790236Y-132012460D01*
X133738073Y-132002084D01*
X140345158Y-125395000D01*
X146889198Y-125395000D01*
X146890713Y-125397267D01*
X147062733Y-125569287D01*
X147265008Y-125704443D01*
X147489764Y-125797540D01*
X147728363Y-125845000D01*
X147971637Y-125845000D01*
X148210236Y-125797540D01*
X148434992Y-125704443D01*
X148637267Y-125569287D01*
X148809287Y-125397267D01*
X148944443Y-125194992D01*
X149037540Y-124970236D01*
X149085000Y-124731637D01*
X149085000Y-124488363D01*
X149037540Y-124249764D01*
X148944443Y-124025008D01*
X148809287Y-123822733D01*
X148637267Y-123650713D01*
X148434992Y-123515557D01*
X148210236Y-123422460D01*
X147971637Y-123375000D01*
X147728363Y-123375000D01*
X147489764Y-123422460D01*
X147265008Y-123515557D01*
X147062733Y-123650713D01*
X146890713Y-123822733D01*
X146889198Y-123825000D01*
X140058552Y-123825000D01*
X140019999Y-123821203D01*
X139981446Y-123825000D01*
X139981439Y-123825000D01*
X139880490Y-123834943D01*
X139866112Y-123836359D01*
X139793575Y-123858363D01*
X139718140Y-123881246D01*
X139581767Y-123954138D01*
X139521559Y-124003550D01*
X139492187Y-124027655D01*
X139492184Y-124027658D01*
X139462236Y-124052236D01*
X139437658Y-124082184D01*
X138772803Y-124747039D01*
X138894443Y-124564992D01*
X138987540Y-124340236D01*
X139035000Y-124101637D01*
X139035000Y-123858363D01*
X138987540Y-123619764D01*
X138894443Y-123395008D01*
X138759287Y-123192733D01*
X138587267Y-123020713D01*
X138503887Y-122965000D01*
X146581447Y-122965000D01*
X146620000Y-122968797D01*
X146658553Y-122965000D01*
X146658561Y-122965000D01*
X146773887Y-122953641D01*
X146921860Y-122908754D01*
X147058233Y-122835862D01*
X147177764Y-122737764D01*
X147202347Y-122707810D01*
X148967811Y-120942346D01*
X148997764Y-120917764D01*
X149095862Y-120798233D01*
X149168754Y-120661860D01*
X149187897Y-120598754D01*
X149213642Y-120513887D01*
X149222124Y-120427764D01*
X149225000Y-120398561D01*
X149225000Y-120398556D01*
X149228797Y-120360000D01*
X149225000Y-120321444D01*
X149225000Y-101688552D01*
X149228797Y-101649999D01*
X149225000Y-101611446D01*
X149225000Y-101611439D01*
X149213641Y-101496113D01*
X149200090Y-101451439D01*
X149168754Y-101348140D01*
X149095862Y-101211767D01*
X148997764Y-101092236D01*
X148967816Y-101067658D01*
X138102347Y-90202190D01*
X138077764Y-90172236D01*
X137958233Y-90074138D01*
X137821860Y-90001246D01*
X137673887Y-89956359D01*
X137558561Y-89945000D01*
X137558553Y-89945000D01*
X137520000Y-89941203D01*
X137481447Y-89945000D01*
X133141474Y-89945000D01*
X133033475Y-89783368D01*
X132826632Y-89576525D01*
X132652240Y-89460000D01*
X132826632Y-89343475D01*
X133033475Y-89136632D01*
X133141474Y-88975000D01*
X138744843Y-88975000D01*
X150135000Y-100365157D01*
X150135001Y-136704842D01*
X142884843Y-143955000D01*
X139718072Y-143955000D01*
X139718072Y-143890000D01*
X139705812Y-143765518D01*
X139669502Y-143645820D01*
X139610537Y-143535506D01*
X139531185Y-143438815D01*
X139434494Y-143359463D01*
X139324180Y-143300498D01*
X139204482Y-143264188D01*
X139080000Y-143251928D01*
X137380000Y-143251928D01*
X137255518Y-143264188D01*
X137135820Y-143300498D01*
X137025506Y-143359463D01*
X136928815Y-143438815D01*
X136849463Y-143535506D01*
X136790498Y-143645820D01*
X136768487Y-143718380D01*
X136636632Y-143586525D01*
X136475000Y-143478526D01*
X136475000Y-142225157D01*
X137785158Y-140915000D01*
X141349198Y-140915000D01*
X141350713Y-140917267D01*
X141522733Y-141089287D01*
X141725008Y-141224443D01*
X141949764Y-141317540D01*
X142188363Y-141365000D01*
X142431637Y-141365000D01*
X142670236Y-141317540D01*
X142894992Y-141224443D01*
X143097267Y-141089287D01*
X143269287Y-140917267D01*
X143404443Y-140714992D01*
X143497540Y-140490236D01*
X143545000Y-140251637D01*
X143545000Y-140008363D01*
X143497540Y-139769764D01*
X143404443Y-139545008D01*
X143269287Y-139342733D01*
X143097267Y-139170713D01*
X142894992Y-139035557D01*
X142670236Y-138942460D01*
X142431637Y-138895000D01*
X142188363Y-138895000D01*
X141949764Y-138942460D01*
X141725008Y-139035557D01*
X141522733Y-139170713D01*
X141350713Y-139342733D01*
X141349198Y-139345000D01*
X137498552Y-139345000D01*
X137459999Y-139341203D01*
X137421446Y-139345000D01*
X137421439Y-139345000D01*
X137306113Y-139356359D01*
X137158140Y-139401246D01*
X137021767Y-139474138D01*
X136980335Y-139508141D01*
X136932187Y-139547655D01*
X136932184Y-139547658D01*
X136902236Y-139572236D01*
X136877658Y-139602184D01*
X135162190Y-141317653D01*
X135132236Y-141342236D01*
X135034138Y-141461768D01*
X134961246Y-141598141D01*
X134916359Y-141746114D01*
X134905000Y-141861440D01*
X134905000Y-141861447D01*
X134901203Y-141900000D01*
X134905000Y-141938553D01*
X134905001Y-143478526D01*
X134743368Y-143586525D01*
X134536525Y-143793368D01*
X134420000Y-143967760D01*
X134303475Y-143793368D01*
X134096632Y-143586525D01*
X133853411Y-143424010D01*
X133583158Y-143312068D01*
X133296260Y-143255000D01*
X133003740Y-143255000D01*
X132716842Y-143312068D01*
X132446589Y-143424010D01*
X132203368Y-143586525D01*
X131996525Y-143793368D01*
X131834010Y-144036589D01*
X131722068Y-144306842D01*
X131665000Y-144593740D01*
X131665000Y-144886260D01*
X131722068Y-145173158D01*
X131834010Y-145443411D01*
X131996525Y-145686632D01*
X132203368Y-145893475D01*
X132379406Y-146011100D01*
X132149731Y-146182412D01*
X131954822Y-146398645D01*
X131805843Y-146648748D01*
X131708519Y-146923109D01*
X131829186Y-147153000D01*
X133023000Y-147153000D01*
X133023000Y-147133000D01*
X133277000Y-147133000D01*
X133277000Y-147153000D01*
X133297000Y-147153000D01*
X133297000Y-147407000D01*
X133277000Y-147407000D01*
X133277000Y-148600155D01*
X133506890Y-148721476D01*
X133654099Y-148676825D01*
X133916920Y-148551641D01*
X134150269Y-148377588D01*
X134345178Y-148161355D01*
X134414805Y-148044466D01*
X134536525Y-148226632D01*
X134743368Y-148433475D01*
X134905000Y-148541474D01*
X134905000Y-149721447D01*
X134901203Y-149760000D01*
X134905000Y-149798553D01*
X134905000Y-149798560D01*
X134916359Y-149913886D01*
X134961246Y-150061859D01*
X135034138Y-150198232D01*
X135132236Y-150317764D01*
X135162190Y-150342347D01*
X135527649Y-150707805D01*
X135552236Y-150737764D01*
X135671767Y-150835862D01*
X135808140Y-150908754D01*
X135956113Y-150953642D01*
X136031026Y-150961020D01*
X136071439Y-150965000D01*
X136071444Y-150965000D01*
X136110000Y-150968797D01*
X136148556Y-150965000D01*
X141151447Y-150965000D01*
X141190000Y-150968797D01*
X141228553Y-150965000D01*
X141228561Y-150965000D01*
X141343887Y-150953641D01*
X141491860Y-150908754D01*
X141628233Y-150835862D01*
X141747764Y-150737764D01*
X141772347Y-150707810D01*
X143570157Y-148910000D01*
X151631928Y-148910000D01*
X151644188Y-149034482D01*
X151680498Y-149154180D01*
X151739463Y-149264494D01*
X151818815Y-149361185D01*
X151915506Y-149440537D01*
X152025820Y-149499502D01*
X152145518Y-149535812D01*
X152270000Y-149548072D01*
X152834250Y-149545000D01*
X152993000Y-149386250D01*
X152993000Y-148187000D01*
X153247000Y-148187000D01*
X153247000Y-149386250D01*
X153405750Y-149545000D01*
X153970000Y-149548072D01*
X154094482Y-149535812D01*
X154214180Y-149499502D01*
X154324494Y-149440537D01*
X154421185Y-149361185D01*
X154500537Y-149264494D01*
X154559502Y-149154180D01*
X154595812Y-149034482D01*
X154608072Y-148910000D01*
X154605000Y-148345750D01*
X154446250Y-148187000D01*
X153247000Y-148187000D01*
X152993000Y-148187000D01*
X151793750Y-148187000D01*
X151635000Y-148345750D01*
X151631928Y-148910000D01*
X143570157Y-148910000D01*
X145270157Y-147210000D01*
X151631928Y-147210000D01*
X151635000Y-147774250D01*
X151793750Y-147933000D01*
X152993000Y-147933000D01*
X152993000Y-147913000D01*
X153247000Y-147913000D01*
X153247000Y-147933000D01*
X154446250Y-147933000D01*
X154605000Y-147774250D01*
X154608072Y-147210000D01*
X154595812Y-147085518D01*
X154559502Y-146965820D01*
X154500537Y-146855506D01*
X154421185Y-146758815D01*
X154324494Y-146679463D01*
X154214180Y-146620498D01*
X154141620Y-146598487D01*
X154273475Y-146466632D01*
X154435990Y-146223411D01*
X154547932Y-145953158D01*
X154605000Y-145666260D01*
X154605000Y-145373740D01*
X154547932Y-145086842D01*
X154435990Y-144816589D01*
X154273475Y-144573368D01*
X154066632Y-144366525D01*
X153892240Y-144250000D01*
X154066632Y-144133475D01*
X154273475Y-143926632D01*
X154435990Y-143683411D01*
X154547932Y-143413158D01*
X154605000Y-143126260D01*
X154605000Y-142833740D01*
X154547932Y-142546842D01*
X154435990Y-142276589D01*
X154273475Y-142033368D01*
X154066632Y-141826525D01*
X153823411Y-141664010D01*
X153553158Y-141552068D01*
X153266260Y-141495000D01*
X152973740Y-141495000D01*
X152686842Y-141552068D01*
X152416589Y-141664010D01*
X152173368Y-141826525D01*
X151966525Y-142033368D01*
X151804010Y-142276589D01*
X151692068Y-142546842D01*
X151635000Y-142833740D01*
X151635000Y-143126260D01*
X151692068Y-143413158D01*
X151804010Y-143683411D01*
X151966525Y-143926632D01*
X152173368Y-144133475D01*
X152347760Y-144250000D01*
X152173368Y-144366525D01*
X151966525Y-144573368D01*
X151804010Y-144816589D01*
X151692068Y-145086842D01*
X151635000Y-145373740D01*
X151635000Y-145666260D01*
X151692068Y-145953158D01*
X151804010Y-146223411D01*
X151966525Y-146466632D01*
X152098380Y-146598487D01*
X152025820Y-146620498D01*
X151915506Y-146679463D01*
X151818815Y-146758815D01*
X151739463Y-146855506D01*
X151680498Y-146965820D01*
X151644188Y-147085518D01*
X151631928Y-147210000D01*
X145270157Y-147210000D01*
X152187744Y-140292413D01*
X164603146Y-140292413D01*
X164603146Y-140827587D01*
X164707553Y-141352477D01*
X164912355Y-141846913D01*
X165209681Y-142291894D01*
X165588106Y-142670319D01*
X166033087Y-142967645D01*
X166527523Y-143172447D01*
X167052413Y-143276854D01*
X167587587Y-143276854D01*
X168112477Y-143172447D01*
X168606913Y-142967645D01*
X169051894Y-142670319D01*
X169430319Y-142291894D01*
X169727645Y-141846913D01*
X169932447Y-141352477D01*
X170036854Y-140827587D01*
X170036854Y-140292413D01*
X169932447Y-139767523D01*
X169727645Y-139273087D01*
X169430319Y-138828106D01*
X169051894Y-138449681D01*
X168606913Y-138152355D01*
X168112477Y-137947553D01*
X167587587Y-137843146D01*
X167052413Y-137843146D01*
X166527523Y-137947553D01*
X166033087Y-138152355D01*
X165588106Y-138449681D01*
X165209681Y-138828106D01*
X164912355Y-139273087D01*
X164707553Y-139767523D01*
X164603146Y-140292413D01*
X152187744Y-140292413D01*
X153617816Y-138862342D01*
X153647764Y-138837764D01*
X153745862Y-138718233D01*
X153818754Y-138581860D01*
X153858850Y-138449681D01*
X153863641Y-138433888D01*
X153865906Y-138410890D01*
X153875000Y-138318561D01*
X153875000Y-138318554D01*
X153878797Y-138280001D01*
X153875000Y-138241448D01*
X153875000Y-134632413D01*
X183633146Y-134632413D01*
X183633146Y-135167587D01*
X183737553Y-135692477D01*
X183942355Y-136186913D01*
X184239681Y-136631894D01*
X184618106Y-137010319D01*
X185063087Y-137307645D01*
X185557523Y-137512447D01*
X186082413Y-137616854D01*
X186617587Y-137616854D01*
X187142477Y-137512447D01*
X187636913Y-137307645D01*
X188081894Y-137010319D01*
X188460319Y-136631894D01*
X188757645Y-136186913D01*
X188962447Y-135692477D01*
X189066854Y-135167587D01*
X189066854Y-134632413D01*
X188962447Y-134107523D01*
X188757645Y-133613087D01*
X188460319Y-133168106D01*
X188081894Y-132789681D01*
X187636913Y-132492355D01*
X187142477Y-132287553D01*
X186617587Y-132183146D01*
X186082413Y-132183146D01*
X185557523Y-132287553D01*
X185063087Y-132492355D01*
X184618106Y-132789681D01*
X184239681Y-133168106D01*
X183942355Y-133613087D01*
X183737553Y-134107523D01*
X183633146Y-134632413D01*
X153875000Y-134632413D01*
X153875000Y-98738555D01*
X153878797Y-98700000D01*
X153875000Y-98661440D01*
X153875000Y-98661439D01*
X153871020Y-98621026D01*
X153863642Y-98546113D01*
X153818754Y-98398140D01*
X153745862Y-98261767D01*
X153647764Y-98142236D01*
X153617817Y-98117659D01*
X140622347Y-85122190D01*
X140597764Y-85092236D01*
X140478233Y-84994138D01*
X140341860Y-84921246D01*
X140193887Y-84876359D01*
X140078561Y-84865000D01*
X140078553Y-84865000D01*
X140040000Y-84861203D01*
X140001447Y-84865000D01*
X133141474Y-84865000D01*
X133033475Y-84703368D01*
X132826632Y-84496525D01*
X132652240Y-84380000D01*
X132826632Y-84263475D01*
X133033475Y-84056632D01*
X133141474Y-83895000D01*
X141004843Y-83895000D01*
X154815000Y-97705157D01*
X154815001Y-131529198D01*
X154812733Y-131530713D01*
X154640713Y-131702733D01*
X154505557Y-131905008D01*
X154412460Y-132129764D01*
X154365000Y-132368363D01*
X154365000Y-132611637D01*
X154412460Y-132850236D01*
X154505557Y-133074992D01*
X154640713Y-133277267D01*
X154812733Y-133449287D01*
X155015008Y-133584443D01*
X155239764Y-133677540D01*
X155478363Y-133725000D01*
X155721637Y-133725000D01*
X155960236Y-133677540D01*
X156184992Y-133584443D01*
X156387267Y-133449287D01*
X156559287Y-133277267D01*
X156694443Y-133074992D01*
X156787540Y-132850236D01*
X156835000Y-132611637D01*
X156835000Y-132368363D01*
X156787540Y-132129764D01*
X156694443Y-131905008D01*
X156559287Y-131702733D01*
X156387267Y-131530713D01*
X156385000Y-131529198D01*
X156385000Y-105892413D01*
X183633146Y-105892413D01*
X183633146Y-106427587D01*
X183737553Y-106952477D01*
X183942355Y-107446913D01*
X184239681Y-107891894D01*
X184618106Y-108270319D01*
X185063087Y-108567645D01*
X185557523Y-108772447D01*
X186082413Y-108876854D01*
X186617587Y-108876854D01*
X187142477Y-108772447D01*
X187636913Y-108567645D01*
X188081894Y-108270319D01*
X188460319Y-107891894D01*
X188757645Y-107446913D01*
X188962447Y-106952477D01*
X189066854Y-106427587D01*
X189066854Y-105892413D01*
X188962447Y-105367523D01*
X188757645Y-104873087D01*
X188460319Y-104428106D01*
X188081894Y-104049681D01*
X187636913Y-103752355D01*
X187142477Y-103547553D01*
X186617587Y-103443146D01*
X186082413Y-103443146D01*
X185557523Y-103547553D01*
X185063087Y-103752355D01*
X184618106Y-104049681D01*
X184239681Y-104428106D01*
X183942355Y-104873087D01*
X183737553Y-105367523D01*
X183633146Y-105892413D01*
X156385000Y-105892413D01*
X156385000Y-99302413D01*
X165233146Y-99302413D01*
X165233146Y-99837587D01*
X165337553Y-100362477D01*
X165542355Y-100856913D01*
X165839681Y-101301894D01*
X166218106Y-101680319D01*
X166663087Y-101977645D01*
X167157523Y-102182447D01*
X167682413Y-102286854D01*
X168217587Y-102286854D01*
X168742477Y-102182447D01*
X169236913Y-101977645D01*
X169681894Y-101680319D01*
X170060319Y-101301894D01*
X170357645Y-100856913D01*
X170562447Y-100362477D01*
X170666854Y-99837587D01*
X170666854Y-99302413D01*
X170562447Y-98777523D01*
X170357645Y-98283087D01*
X170060319Y-97838106D01*
X169681894Y-97459681D01*
X169236913Y-97162355D01*
X168742477Y-96957553D01*
X168217587Y-96853146D01*
X167682413Y-96853146D01*
X167157523Y-96957553D01*
X166663087Y-97162355D01*
X166218106Y-97459681D01*
X165839681Y-97838106D01*
X165542355Y-98283087D01*
X165337553Y-98777523D01*
X165233146Y-99302413D01*
X156385000Y-99302413D01*
X156385000Y-97418556D01*
X156388797Y-97380000D01*
X156385000Y-97341440D01*
X156385000Y-97341439D01*
X156380426Y-97295000D01*
X156373642Y-97226113D01*
X156328754Y-97078140D01*
X156326274Y-97073500D01*
X156255862Y-96941767D01*
X156157764Y-96822236D01*
X156127811Y-96797654D01*
X141912347Y-82582190D01*
X141887764Y-82552236D01*
X141768233Y-82454138D01*
X141631860Y-82381246D01*
X141483887Y-82336359D01*
X141368561Y-82325000D01*
X141368553Y-82325000D01*
X141330000Y-82321203D01*
X141291447Y-82325000D01*
X133141474Y-82325000D01*
X133033475Y-82163368D01*
X132901620Y-82031513D01*
X132974180Y-82009502D01*
X133084494Y-81950537D01*
X133181185Y-81871185D01*
X133260537Y-81774494D01*
X133319502Y-81664180D01*
X133355812Y-81544482D01*
X133368072Y-81420000D01*
X133368072Y-81355000D01*
X142784843Y-81355000D01*
X158985532Y-97555690D01*
X158985000Y-97558363D01*
X158985000Y-97801637D01*
X159032460Y-98040236D01*
X159125557Y-98264992D01*
X159260713Y-98467267D01*
X159432733Y-98639287D01*
X159635008Y-98774443D01*
X159859764Y-98867540D01*
X160098363Y-98915000D01*
X160341637Y-98915000D01*
X160580236Y-98867540D01*
X160804992Y-98774443D01*
X161007267Y-98639287D01*
X161179287Y-98467267D01*
X161314443Y-98264992D01*
X161407540Y-98040236D01*
X161455000Y-97801637D01*
X161455000Y-97558363D01*
X161407540Y-97319764D01*
X161314443Y-97095008D01*
X161179287Y-96892733D01*
X161007267Y-96720713D01*
X160804992Y-96585557D01*
X160580236Y-96492460D01*
X160341637Y-96445000D01*
X160098363Y-96445000D01*
X160095690Y-96445532D01*
X157734351Y-94084193D01*
X183965000Y-94084193D01*
X183965000Y-94435807D01*
X184033596Y-94780665D01*
X184168153Y-95105515D01*
X184363500Y-95397871D01*
X184612129Y-95646500D01*
X184904485Y-95841847D01*
X185229335Y-95976404D01*
X185574193Y-96045000D01*
X185925807Y-96045000D01*
X186270665Y-95976404D01*
X186595515Y-95841847D01*
X186887871Y-95646500D01*
X187136500Y-95397871D01*
X187331847Y-95105515D01*
X187466404Y-94780665D01*
X187535000Y-94435807D01*
X187535000Y-94084193D01*
X187466404Y-93739335D01*
X187331847Y-93414485D01*
X187136500Y-93122129D01*
X186887871Y-92873500D01*
X186595515Y-92678153D01*
X186270665Y-92543596D01*
X185925807Y-92475000D01*
X185574193Y-92475000D01*
X185229335Y-92543596D01*
X184904485Y-92678153D01*
X184612129Y-92873500D01*
X184363500Y-93122129D01*
X184168153Y-93414485D01*
X184033596Y-93739335D01*
X183965000Y-94084193D01*
X157734351Y-94084193D01*
X152080158Y-88430000D01*
X172381928Y-88430000D01*
X172381928Y-90130000D01*
X172394188Y-90254482D01*
X172430498Y-90374180D01*
X172489463Y-90484494D01*
X172568815Y-90581185D01*
X172665506Y-90660537D01*
X172775820Y-90719502D01*
X172895518Y-90755812D01*
X173020000Y-90768072D01*
X174720000Y-90768072D01*
X174844482Y-90755812D01*
X174964180Y-90719502D01*
X175074494Y-90660537D01*
X175171185Y-90581185D01*
X175250537Y-90484494D01*
X175309502Y-90374180D01*
X175345812Y-90254482D01*
X175358072Y-90130000D01*
X175358072Y-88430000D01*
X175345812Y-88305518D01*
X175309502Y-88185820D01*
X175250537Y-88075506D01*
X175171185Y-87978815D01*
X175074494Y-87899463D01*
X174964180Y-87840498D01*
X174891620Y-87818487D01*
X175023475Y-87686632D01*
X175072280Y-87613589D01*
X179525000Y-87613589D01*
X179525000Y-87886411D01*
X179578225Y-88153989D01*
X179682629Y-88406043D01*
X179834201Y-88632886D01*
X179971315Y-88770000D01*
X179834201Y-88907114D01*
X179682629Y-89133957D01*
X179578225Y-89386011D01*
X179525000Y-89653589D01*
X179525000Y-89926411D01*
X179578225Y-90193989D01*
X179682629Y-90446043D01*
X179834201Y-90672886D01*
X180027114Y-90865799D01*
X180253957Y-91017371D01*
X180506011Y-91121775D01*
X180773589Y-91175000D01*
X181046411Y-91175000D01*
X181313989Y-91121775D01*
X181566043Y-91017371D01*
X181792886Y-90865799D01*
X181985799Y-90672886D01*
X182137371Y-90446043D01*
X182241775Y-90193989D01*
X182295000Y-89926411D01*
X182295000Y-89726993D01*
X182672612Y-89726993D01*
X182738137Y-89965860D01*
X182985116Y-90081760D01*
X183249960Y-90147250D01*
X183522492Y-90159812D01*
X183792238Y-90118965D01*
X184048832Y-90026277D01*
X184161863Y-89965860D01*
X184227388Y-89726993D01*
X183450000Y-88949605D01*
X182672612Y-89726993D01*
X182295000Y-89726993D01*
X182295000Y-89653589D01*
X182261228Y-89483807D01*
X182493007Y-89547388D01*
X183270395Y-88770000D01*
X183256253Y-88755858D01*
X183435858Y-88576253D01*
X183450000Y-88590395D01*
X183464143Y-88576253D01*
X183643748Y-88755858D01*
X183629605Y-88770000D01*
X184406993Y-89547388D01*
X184645860Y-89481863D01*
X184761760Y-89234884D01*
X184827250Y-88970040D01*
X184839812Y-88697508D01*
X184798965Y-88427762D01*
X184706277Y-88171168D01*
X184645860Y-88058137D01*
X184526631Y-88025431D01*
X184554494Y-88010537D01*
X184651185Y-87931185D01*
X184730537Y-87834494D01*
X184789502Y-87724180D01*
X184825812Y-87604482D01*
X184838072Y-87480000D01*
X184838072Y-85980000D01*
X184825812Y-85855518D01*
X184789502Y-85735820D01*
X184730537Y-85625506D01*
X184651185Y-85528815D01*
X184554494Y-85449463D01*
X184444180Y-85390498D01*
X184324482Y-85354188D01*
X184200000Y-85341928D01*
X182700000Y-85341928D01*
X182575518Y-85354188D01*
X182455820Y-85390498D01*
X182345506Y-85449463D01*
X182248815Y-85528815D01*
X182169463Y-85625506D01*
X182110498Y-85735820D01*
X182074188Y-85855518D01*
X182061928Y-85980000D01*
X182061928Y-86981049D01*
X181985799Y-86867114D01*
X181792886Y-86674201D01*
X181566043Y-86522629D01*
X181313989Y-86418225D01*
X181046411Y-86365000D01*
X180773589Y-86365000D01*
X180506011Y-86418225D01*
X180253957Y-86522629D01*
X180027114Y-86674201D01*
X179834201Y-86867114D01*
X179682629Y-87093957D01*
X179578225Y-87346011D01*
X179525000Y-87613589D01*
X175072280Y-87613589D01*
X175185990Y-87443411D01*
X175297932Y-87173158D01*
X175355000Y-86886260D01*
X175355000Y-86593740D01*
X175297932Y-86306842D01*
X175185990Y-86036589D01*
X175023475Y-85793368D01*
X174816632Y-85586525D01*
X174573411Y-85424010D01*
X174303158Y-85312068D01*
X174016260Y-85255000D01*
X173723740Y-85255000D01*
X173436842Y-85312068D01*
X173166589Y-85424010D01*
X172923368Y-85586525D01*
X172716525Y-85793368D01*
X172554010Y-86036589D01*
X172442068Y-86306842D01*
X172385000Y-86593740D01*
X172385000Y-86886260D01*
X172442068Y-87173158D01*
X172554010Y-87443411D01*
X172716525Y-87686632D01*
X172848380Y-87818487D01*
X172775820Y-87840498D01*
X172665506Y-87899463D01*
X172568815Y-87978815D01*
X172489463Y-88075506D01*
X172430498Y-88185820D01*
X172394188Y-88305518D01*
X172381928Y-88430000D01*
X152080158Y-88430000D01*
X145734351Y-82084193D01*
X183965000Y-82084193D01*
X183965000Y-82435807D01*
X184033596Y-82780665D01*
X184168153Y-83105515D01*
X184363500Y-83397871D01*
X184612129Y-83646500D01*
X184904485Y-83841847D01*
X185229335Y-83976404D01*
X185574193Y-84045000D01*
X185925807Y-84045000D01*
X186270665Y-83976404D01*
X186595515Y-83841847D01*
X186887871Y-83646500D01*
X187136500Y-83397871D01*
X187331847Y-83105515D01*
X187466404Y-82780665D01*
X187535000Y-82435807D01*
X187535000Y-82084193D01*
X187466404Y-81739335D01*
X187331847Y-81414485D01*
X187136500Y-81122129D01*
X186887871Y-80873500D01*
X186595515Y-80678153D01*
X186270665Y-80543596D01*
X185925807Y-80475000D01*
X185574193Y-80475000D01*
X185229335Y-80543596D01*
X184904485Y-80678153D01*
X184612129Y-80873500D01*
X184363500Y-81122129D01*
X184168153Y-81414485D01*
X184033596Y-81739335D01*
X183965000Y-82084193D01*
X145734351Y-82084193D01*
X143692347Y-80042190D01*
X143667764Y-80012236D01*
X143548233Y-79914138D01*
X143411860Y-79841246D01*
X143263887Y-79796359D01*
X143148561Y-79785000D01*
X143148553Y-79785000D01*
X143110000Y-79781203D01*
X143071447Y-79785000D01*
X133368072Y-79785000D01*
X133368072Y-79720000D01*
X133355812Y-79595518D01*
X133319502Y-79475820D01*
X133260537Y-79365506D01*
X133181185Y-79268815D01*
X133084494Y-79189463D01*
X132974180Y-79130498D01*
X132854482Y-79094188D01*
X132730000Y-79081928D01*
X131030000Y-79081928D01*
X130905518Y-79094188D01*
X130785820Y-79130498D01*
X130675506Y-79189463D01*
X130578815Y-79268815D01*
X130499463Y-79365506D01*
X130440498Y-79475820D01*
X130404188Y-79595518D01*
X130391928Y-79720000D01*
X130391928Y-81420000D01*
X130404188Y-81544482D01*
X130440498Y-81664180D01*
X130499463Y-81774494D01*
X130578815Y-81871185D01*
X130675506Y-81950537D01*
X130785820Y-82009502D01*
X130858380Y-82031513D01*
X130726525Y-82163368D01*
X130564010Y-82406589D01*
X130452068Y-82676842D01*
X130395000Y-82963740D01*
X130395000Y-83256260D01*
X130452068Y-83543158D01*
X130564010Y-83813411D01*
X130726525Y-84056632D01*
X130933368Y-84263475D01*
X131107760Y-84380000D01*
X130933368Y-84496525D01*
X130726525Y-84703368D01*
X130564010Y-84946589D01*
X130452068Y-85216842D01*
X130395000Y-85503740D01*
X130395000Y-85796260D01*
X130452068Y-86083158D01*
X130564010Y-86353411D01*
X130726525Y-86596632D01*
X130933368Y-86803475D01*
X131107760Y-86920000D01*
X130933368Y-87036525D01*
X130726525Y-87243368D01*
X130564010Y-87486589D01*
X130452068Y-87756842D01*
X130395000Y-88043740D01*
X130395000Y-88336260D01*
X130452068Y-88623158D01*
X130564010Y-88893411D01*
X130726525Y-89136632D01*
X130933368Y-89343475D01*
X131107760Y-89460000D01*
X130933368Y-89576525D01*
X130726525Y-89783368D01*
X130564010Y-90026589D01*
X130452068Y-90296842D01*
X130395000Y-90583740D01*
X130395000Y-90876260D01*
X130452068Y-91163158D01*
X130564010Y-91433411D01*
X130726525Y-91676632D01*
X130933368Y-91883475D01*
X131115534Y-92005195D01*
X130998645Y-92074822D01*
X130782412Y-92269731D01*
X130608359Y-92503080D01*
X130483175Y-92765901D01*
X130438524Y-92913110D01*
X130559845Y-93143000D01*
X131753000Y-93143000D01*
X131753000Y-93123000D01*
X132007000Y-93123000D01*
X132007000Y-93143000D01*
X133200155Y-93143000D01*
X133321476Y-92913110D01*
X133276825Y-92765901D01*
X133151641Y-92503080D01*
X132977588Y-92269731D01*
X132761355Y-92074822D01*
X132644466Y-92005195D01*
X132826632Y-91883475D01*
X133033475Y-91676632D01*
X133141474Y-91515000D01*
X137194843Y-91515000D01*
X146061545Y-100381703D01*
X145870236Y-100302460D01*
X145631637Y-100255000D01*
X145388363Y-100255000D01*
X145149764Y-100302460D01*
X144925008Y-100395557D01*
X144722733Y-100530713D01*
X144550713Y-100702733D01*
X144415557Y-100905008D01*
X144322460Y-101129764D01*
X144275000Y-101368363D01*
X144275000Y-101611637D01*
X144322460Y-101850236D01*
X144415557Y-102074992D01*
X144550713Y-102277267D01*
X144722733Y-102449287D01*
X144725001Y-102450802D01*
X144725000Y-115084842D01*
X139354843Y-120455000D01*
X138194577Y-120455000D01*
X138227764Y-120427764D01*
X138252347Y-120397810D01*
X141065689Y-117584468D01*
X141068363Y-117585000D01*
X141311637Y-117585000D01*
X141550236Y-117537540D01*
X141774992Y-117444443D01*
X141977267Y-117309287D01*
X142149287Y-117137267D01*
X142284443Y-116934992D01*
X142377540Y-116710236D01*
X142425000Y-116471637D01*
X142425000Y-116228363D01*
X142377540Y-115989764D01*
X142284443Y-115765008D01*
X142149287Y-115562733D01*
X141977267Y-115390713D01*
X141774992Y-115255557D01*
X141550236Y-115162460D01*
X141311637Y-115115000D01*
X141068363Y-115115000D01*
X140829764Y-115162460D01*
X140605008Y-115255557D01*
X140402733Y-115390713D01*
X140230713Y-115562733D01*
X140095557Y-115765008D01*
X140002460Y-115989764D01*
X139955000Y-116228363D01*
X139955000Y-116471637D01*
X139955532Y-116474311D01*
X137344843Y-119085000D01*
X134595157Y-119085000D01*
X133234468Y-117724311D01*
X133235000Y-117721637D01*
X133235000Y-117478363D01*
X133187540Y-117239764D01*
X133094443Y-117015008D01*
X132959287Y-116812733D01*
X132787267Y-116640713D01*
X132584992Y-116505557D01*
X132360236Y-116412460D01*
X132121637Y-116365000D01*
X131878363Y-116365000D01*
X131639764Y-116412460D01*
X131415008Y-116505557D01*
X131212733Y-116640713D01*
X131040713Y-116812733D01*
X130905557Y-117015008D01*
X130812460Y-117239764D01*
X130765000Y-117478363D01*
X130765000Y-117721637D01*
X130812460Y-117960236D01*
X130905557Y-118184992D01*
X131040713Y-118387267D01*
X131212733Y-118559287D01*
X131415008Y-118694443D01*
X131639764Y-118787540D01*
X131878363Y-118835000D01*
X132121637Y-118835000D01*
X132124311Y-118834468D01*
X133687653Y-120397810D01*
X133712236Y-120427764D01*
X133745423Y-120455000D01*
X131280802Y-120455000D01*
X131279287Y-120452733D01*
X131107267Y-120280713D01*
X130904992Y-120145557D01*
X130680236Y-120052460D01*
X130441637Y-120005000D01*
X130198363Y-120005000D01*
X129959764Y-120052460D01*
X129735008Y-120145557D01*
X129532733Y-120280713D01*
X129360713Y-120452733D01*
X129225557Y-120655008D01*
X129132460Y-120879764D01*
X129085000Y-121118363D01*
X129085000Y-121361637D01*
X129132460Y-121600236D01*
X129225557Y-121824992D01*
X129360713Y-122027267D01*
X129532733Y-122199287D01*
X129735008Y-122334443D01*
X129959764Y-122427540D01*
X130198363Y-122475000D01*
X130441637Y-122475000D01*
X130680236Y-122427540D01*
X130904992Y-122334443D01*
X131107267Y-122199287D01*
X131279287Y-122027267D01*
X131280802Y-122025000D01*
X136524843Y-122025000D01*
X127524843Y-131025000D01*
X126080802Y-131025000D01*
X126079287Y-131022733D01*
X125907267Y-130850713D01*
X125704992Y-130715557D01*
X125480236Y-130622460D01*
X125241637Y-130575000D01*
X124998363Y-130575000D01*
X124759764Y-130622460D01*
X124535008Y-130715557D01*
X124332733Y-130850713D01*
X124160713Y-131022733D01*
X124025557Y-131225008D01*
X123932460Y-131449764D01*
X123885000Y-131688363D01*
X123885000Y-131931637D01*
X123932460Y-132170236D01*
X124025557Y-132394992D01*
X124160713Y-132597267D01*
X124332733Y-132769287D01*
X124535008Y-132904443D01*
X124759764Y-132997540D01*
X124998363Y-133045000D01*
X125241637Y-133045000D01*
X125480236Y-132997540D01*
X125704992Y-132904443D01*
X125907267Y-132769287D01*
X126079287Y-132597267D01*
X126080802Y-132595000D01*
X127811447Y-132595000D01*
X127850000Y-132598797D01*
X127888553Y-132595000D01*
X127888561Y-132595000D01*
X128003887Y-132583641D01*
X128150753Y-132539090D01*
X126904843Y-133785000D01*
X126470802Y-133785000D01*
X126469287Y-133782733D01*
X126297267Y-133610713D01*
X126094992Y-133475557D01*
X125870236Y-133382460D01*
X125631637Y-133335000D01*
X125388363Y-133335000D01*
X125149764Y-133382460D01*
X124925008Y-133475557D01*
X124722733Y-133610713D01*
X124550713Y-133782733D01*
X124415557Y-133985008D01*
X124322460Y-134209764D01*
X124275000Y-134448363D01*
X124275000Y-134691637D01*
X124322460Y-134930236D01*
X124415557Y-135154992D01*
X124550713Y-135357267D01*
X124722733Y-135529287D01*
X124925008Y-135664443D01*
X125149764Y-135757540D01*
X125388363Y-135805000D01*
X125631637Y-135805000D01*
X125870236Y-135757540D01*
X126094992Y-135664443D01*
X126297267Y-135529287D01*
X126469287Y-135357267D01*
X126470802Y-135355000D01*
X127191447Y-135355000D01*
X127230000Y-135358797D01*
X127268553Y-135355000D01*
X127268561Y-135355000D01*
X127383887Y-135343641D01*
X127531860Y-135298754D01*
X127668233Y-135225862D01*
X127787764Y-135127764D01*
X127812347Y-135097810D01*
X135427817Y-127482341D01*
X135457764Y-127457764D01*
X135555862Y-127338233D01*
X135560384Y-127329773D01*
X137675690Y-125214468D01*
X137678363Y-125215000D01*
X137921637Y-125215000D01*
X138160236Y-125167540D01*
X138384992Y-125074443D01*
X138567039Y-124952803D01*
X127224843Y-136295000D01*
X126720802Y-136295000D01*
X126719287Y-136292733D01*
X126547267Y-136120713D01*
X126344992Y-135985557D01*
X126120236Y-135892460D01*
X125881637Y-135845000D01*
X125638363Y-135845000D01*
X125399764Y-135892460D01*
X125175008Y-135985557D01*
X124972733Y-136120713D01*
X124800713Y-136292733D01*
X124665557Y-136495008D01*
X124572460Y-136719764D01*
X124548968Y-136837868D01*
X124541680Y-136820273D01*
X124384637Y-136585241D01*
X124184759Y-136385363D01*
X124055000Y-136298661D01*
X124055000Y-135578552D01*
X124058797Y-135539999D01*
X124055000Y-135501446D01*
X124055000Y-135501439D01*
X124043641Y-135386113D01*
X123998754Y-135238140D01*
X123925862Y-135101767D01*
X123876450Y-135041559D01*
X123852345Y-135012187D01*
X123852342Y-135012184D01*
X123827764Y-134982236D01*
X123797816Y-134957658D01*
X118135000Y-129294843D01*
X118135000Y-119858363D01*
X122245000Y-119858363D01*
X122245000Y-120101637D01*
X122292460Y-120340236D01*
X122385557Y-120564992D01*
X122520713Y-120767267D01*
X122692733Y-120939287D01*
X122895008Y-121074443D01*
X123119764Y-121167540D01*
X123358363Y-121215000D01*
X123601637Y-121215000D01*
X123604311Y-121214468D01*
X124035000Y-121645158D01*
X124035001Y-126841437D01*
X124031203Y-126880000D01*
X124046359Y-127033886D01*
X124091246Y-127181859D01*
X124101937Y-127201860D01*
X124164139Y-127318233D01*
X124180552Y-127338232D01*
X124237655Y-127407812D01*
X124237659Y-127407816D01*
X124262237Y-127437764D01*
X124292185Y-127462342D01*
X124725532Y-127895689D01*
X124725000Y-127898363D01*
X124725000Y-128141637D01*
X124772460Y-128380236D01*
X124865557Y-128604992D01*
X125000713Y-128807267D01*
X125172733Y-128979287D01*
X125375008Y-129114443D01*
X125599764Y-129207540D01*
X125838363Y-129255000D01*
X126081637Y-129255000D01*
X126320236Y-129207540D01*
X126544992Y-129114443D01*
X126747267Y-128979287D01*
X126919287Y-128807267D01*
X127054443Y-128604992D01*
X127147540Y-128380236D01*
X127195000Y-128141637D01*
X127195000Y-127898363D01*
X127147540Y-127659764D01*
X127054443Y-127435008D01*
X126919287Y-127232733D01*
X126747267Y-127060713D01*
X126544992Y-126925557D01*
X126320236Y-126832460D01*
X126081637Y-126785000D01*
X125838363Y-126785000D01*
X125835689Y-126785532D01*
X125605000Y-126554843D01*
X125605000Y-121358552D01*
X125608797Y-121319999D01*
X125605000Y-121281446D01*
X125605000Y-121281439D01*
X125593641Y-121166113D01*
X125570175Y-121088754D01*
X125548754Y-121018140D01*
X125547536Y-121015862D01*
X125475862Y-120881767D01*
X125410207Y-120801767D01*
X125402345Y-120792187D01*
X125402342Y-120792184D01*
X125377764Y-120762236D01*
X125347817Y-120737659D01*
X124714468Y-120104311D01*
X124715000Y-120101637D01*
X124715000Y-119858363D01*
X124667540Y-119619764D01*
X124574443Y-119395008D01*
X124439287Y-119192733D01*
X124267267Y-119020713D01*
X124064992Y-118885557D01*
X123840236Y-118792460D01*
X123601637Y-118745000D01*
X123358363Y-118745000D01*
X123119764Y-118792460D01*
X122895008Y-118885557D01*
X122692733Y-119020713D01*
X122520713Y-119192733D01*
X122385557Y-119395008D01*
X122292460Y-119619764D01*
X122245000Y-119858363D01*
X118135000Y-119858363D01*
X118135000Y-116620802D01*
X118137267Y-116619287D01*
X118309287Y-116447267D01*
X118444443Y-116244992D01*
X118537540Y-116020236D01*
X118560712Y-115903740D01*
X134225000Y-115903740D01*
X134225000Y-116196260D01*
X134282068Y-116483158D01*
X134394010Y-116753411D01*
X134556525Y-116996632D01*
X134763368Y-117203475D01*
X135006589Y-117365990D01*
X135276842Y-117477932D01*
X135563740Y-117535000D01*
X135856260Y-117535000D01*
X136143158Y-117477932D01*
X136413411Y-117365990D01*
X136656632Y-117203475D01*
X136863475Y-116996632D01*
X137025990Y-116753411D01*
X137137932Y-116483158D01*
X137195000Y-116196260D01*
X137195000Y-115903740D01*
X137137932Y-115616842D01*
X137025990Y-115346589D01*
X136863475Y-115103368D01*
X136656632Y-114896525D01*
X136474466Y-114774805D01*
X136591355Y-114705178D01*
X136807588Y-114510269D01*
X136981641Y-114276920D01*
X137106825Y-114014099D01*
X137151476Y-113866890D01*
X137030155Y-113637000D01*
X135837000Y-113637000D01*
X135837000Y-113657000D01*
X135583000Y-113657000D01*
X135583000Y-113637000D01*
X134389845Y-113637000D01*
X134268524Y-113866890D01*
X134313175Y-114014099D01*
X134438359Y-114276920D01*
X134612412Y-114510269D01*
X134828645Y-114705178D01*
X134945534Y-114774805D01*
X134763368Y-114896525D01*
X134556525Y-115103368D01*
X134394010Y-115346589D01*
X134282068Y-115616842D01*
X134225000Y-115903740D01*
X118560712Y-115903740D01*
X118585000Y-115781637D01*
X118585000Y-115538363D01*
X118537540Y-115299764D01*
X118444443Y-115075008D01*
X118309287Y-114872733D01*
X118137267Y-114700713D01*
X117934992Y-114565557D01*
X117710236Y-114472460D01*
X117471637Y-114425000D01*
X117228363Y-114425000D01*
X116989764Y-114472460D01*
X116765008Y-114565557D01*
X116562733Y-114700713D01*
X116390713Y-114872733D01*
X116255557Y-115075008D01*
X116162460Y-115299764D01*
X116115000Y-115538363D01*
X116115000Y-115781637D01*
X116149174Y-115953441D01*
X116050236Y-115912460D01*
X115811637Y-115865000D01*
X115568363Y-115865000D01*
X115329764Y-115912460D01*
X115105008Y-116005557D01*
X114902733Y-116140713D01*
X114730713Y-116312733D01*
X114595557Y-116515008D01*
X114502460Y-116739764D01*
X114455000Y-116978363D01*
X114455000Y-117221637D01*
X114455532Y-117224310D01*
X110042185Y-121637658D01*
X110012237Y-121662236D01*
X109987659Y-121692184D01*
X109987655Y-121692188D01*
X109954690Y-121732356D01*
X109914139Y-121781767D01*
X109905589Y-121797764D01*
X109841246Y-121918141D01*
X109796359Y-122066114D01*
X109781203Y-122220000D01*
X109785001Y-122258563D01*
X109785000Y-136298661D01*
X109655241Y-136385363D01*
X109455363Y-136585241D01*
X109298320Y-136820273D01*
X109190147Y-137081426D01*
X109135000Y-137358665D01*
X107085000Y-137358665D01*
X107085000Y-114535157D01*
X110280157Y-111340000D01*
X115981928Y-111340000D01*
X115981928Y-113040000D01*
X115994188Y-113164482D01*
X116030498Y-113284180D01*
X116089463Y-113394494D01*
X116168815Y-113491185D01*
X116265506Y-113570537D01*
X116375820Y-113629502D01*
X116495518Y-113665812D01*
X116620000Y-113678072D01*
X118320000Y-113678072D01*
X118444482Y-113665812D01*
X118564180Y-113629502D01*
X118674494Y-113570537D01*
X118771185Y-113491185D01*
X118850537Y-113394494D01*
X118909502Y-113284180D01*
X118931513Y-113211620D01*
X119063368Y-113343475D01*
X119306589Y-113505990D01*
X119576842Y-113617932D01*
X119863740Y-113675000D01*
X120156260Y-113675000D01*
X120443158Y-113617932D01*
X120713411Y-113505990D01*
X120956632Y-113343475D01*
X121163475Y-113136632D01*
X121325990Y-112893411D01*
X121437932Y-112623158D01*
X121495000Y-112336260D01*
X121495000Y-112043740D01*
X121437932Y-111756842D01*
X121325990Y-111486589D01*
X121163475Y-111243368D01*
X120956632Y-111036525D01*
X120713411Y-110874010D01*
X120443158Y-110762068D01*
X120156260Y-110705000D01*
X119863740Y-110705000D01*
X119576842Y-110762068D01*
X119306589Y-110874010D01*
X119063368Y-111036525D01*
X118931513Y-111168380D01*
X118909502Y-111095820D01*
X118850537Y-110985506D01*
X118771185Y-110888815D01*
X118674494Y-110809463D01*
X118564180Y-110750498D01*
X118444482Y-110714188D01*
X118320000Y-110701928D01*
X116620000Y-110701928D01*
X116495518Y-110714188D01*
X116375820Y-110750498D01*
X116265506Y-110809463D01*
X116168815Y-110888815D01*
X116089463Y-110985506D01*
X116030498Y-111095820D01*
X115994188Y-111215518D01*
X115981928Y-111340000D01*
X110280157Y-111340000D01*
X110707811Y-110912346D01*
X110737764Y-110887764D01*
X110835862Y-110768233D01*
X110908754Y-110631860D01*
X110908754Y-110631859D01*
X110953642Y-110483887D01*
X110961020Y-110408974D01*
X110965000Y-110368561D01*
X110965000Y-110368556D01*
X110968797Y-110330000D01*
X110965000Y-110291444D01*
X110965000Y-110120000D01*
X134221928Y-110120000D01*
X134221928Y-111820000D01*
X134234188Y-111944482D01*
X134270498Y-112064180D01*
X134329463Y-112174494D01*
X134408815Y-112271185D01*
X134505506Y-112350537D01*
X134615820Y-112409502D01*
X134696466Y-112433966D01*
X134612412Y-112509731D01*
X134438359Y-112743080D01*
X134313175Y-113005901D01*
X134268524Y-113153110D01*
X134389845Y-113383000D01*
X135583000Y-113383000D01*
X135583000Y-113363000D01*
X135837000Y-113363000D01*
X135837000Y-113383000D01*
X137030155Y-113383000D01*
X137151476Y-113153110D01*
X137106825Y-113005901D01*
X136981641Y-112743080D01*
X136807588Y-112509731D01*
X136723534Y-112433966D01*
X136804180Y-112409502D01*
X136914494Y-112350537D01*
X137011185Y-112271185D01*
X137090537Y-112174494D01*
X137149502Y-112064180D01*
X137185812Y-111944482D01*
X137198072Y-111820000D01*
X137198072Y-110120000D01*
X137185812Y-109995518D01*
X137149502Y-109875820D01*
X137090537Y-109765506D01*
X137011185Y-109668815D01*
X136914494Y-109589463D01*
X136804180Y-109530498D01*
X136684482Y-109494188D01*
X136560000Y-109481928D01*
X134860000Y-109481928D01*
X134735518Y-109494188D01*
X134615820Y-109530498D01*
X134505506Y-109589463D01*
X134408815Y-109668815D01*
X134329463Y-109765506D01*
X134270498Y-109875820D01*
X134234188Y-109995518D01*
X134221928Y-110120000D01*
X110965000Y-110120000D01*
X110965000Y-108898072D01*
X110980000Y-108898072D01*
X111104482Y-108885812D01*
X111224180Y-108849502D01*
X111334494Y-108790537D01*
X111431185Y-108711185D01*
X111510537Y-108614494D01*
X111569502Y-108504180D01*
X111585117Y-108452702D01*
X111866903Y-108452702D01*
X111938486Y-108696671D01*
X112193996Y-108817571D01*
X112468184Y-108886300D01*
X112750512Y-108900217D01*
X113030130Y-108858787D01*
X113296292Y-108763603D01*
X113421514Y-108696671D01*
X113493097Y-108452702D01*
X112680000Y-107639605D01*
X111866903Y-108452702D01*
X111585117Y-108452702D01*
X111605812Y-108384482D01*
X111618072Y-108260000D01*
X111618072Y-108252785D01*
X111687298Y-108273097D01*
X112500395Y-107460000D01*
X112859605Y-107460000D01*
X113672702Y-108273097D01*
X113916671Y-108201514D01*
X114037571Y-107946004D01*
X114106300Y-107671816D01*
X114120217Y-107389488D01*
X114078787Y-107109870D01*
X113983603Y-106843708D01*
X113916671Y-106718486D01*
X113672702Y-106646903D01*
X112859605Y-107460000D01*
X112500395Y-107460000D01*
X111687298Y-106646903D01*
X111618072Y-106667215D01*
X111618072Y-106660000D01*
X111605812Y-106535518D01*
X111585118Y-106467298D01*
X111866903Y-106467298D01*
X112680000Y-107280395D01*
X113493097Y-106467298D01*
X113421514Y-106223329D01*
X113166004Y-106102429D01*
X112891816Y-106033700D01*
X112609488Y-106019783D01*
X112329870Y-106061213D01*
X112063708Y-106156397D01*
X111938486Y-106223329D01*
X111866903Y-106467298D01*
X111585118Y-106467298D01*
X111569502Y-106415820D01*
X111510537Y-106305506D01*
X111431185Y-106208815D01*
X111334494Y-106129463D01*
X111224180Y-106070498D01*
X111104482Y-106034188D01*
X110980000Y-106021928D01*
X109380000Y-106021928D01*
X109255518Y-106034188D01*
X109135820Y-106070498D01*
X109025506Y-106129463D01*
X108928815Y-106208815D01*
X108849463Y-106305506D01*
X108790498Y-106415820D01*
X108754188Y-106535518D01*
X108741928Y-106660000D01*
X108741928Y-108260000D01*
X108754188Y-108384482D01*
X108790498Y-108504180D01*
X108849463Y-108614494D01*
X108928815Y-108711185D01*
X109025506Y-108790537D01*
X109135820Y-108849502D01*
X109255518Y-108885812D01*
X109380000Y-108898072D01*
X109395000Y-108898072D01*
X109395000Y-110004843D01*
X105772185Y-113627658D01*
X105742237Y-113652236D01*
X105717659Y-113682184D01*
X105717655Y-113682188D01*
X105684690Y-113722356D01*
X105644139Y-113771767D01*
X105605177Y-113844660D01*
X105571246Y-113908141D01*
X105526359Y-114056114D01*
X105511203Y-114210000D01*
X103240000Y-114210000D01*
X103240000Y-105892413D01*
X138913146Y-105892413D01*
X138913146Y-106427587D01*
X139017553Y-106952477D01*
X139222355Y-107446913D01*
X139519681Y-107891894D01*
X139898106Y-108270319D01*
X140343087Y-108567645D01*
X140837523Y-108772447D01*
X141362413Y-108876854D01*
X141897587Y-108876854D01*
X142422477Y-108772447D01*
X142916913Y-108567645D01*
X143361894Y-108270319D01*
X143740319Y-107891894D01*
X144037645Y-107446913D01*
X144242447Y-106952477D01*
X144346854Y-106427587D01*
X144346854Y-105892413D01*
X144242447Y-105367523D01*
X144037645Y-104873087D01*
X143740319Y-104428106D01*
X143361894Y-104049681D01*
X142916913Y-103752355D01*
X142422477Y-103547553D01*
X141897587Y-103443146D01*
X141362413Y-103443146D01*
X140837523Y-103547553D01*
X140343087Y-103752355D01*
X139898106Y-104049681D01*
X139519681Y-104428106D01*
X139222355Y-104873087D01*
X139017553Y-105367523D01*
X138913146Y-105892413D01*
X103240000Y-105892413D01*
X103240000Y-98284193D01*
X104555000Y-98284193D01*
X104555000Y-98635807D01*
X104623596Y-98980665D01*
X104758153Y-99305515D01*
X104953500Y-99597871D01*
X105202129Y-99846500D01*
X105494485Y-100041847D01*
X105819335Y-100176404D01*
X106164193Y-100245000D01*
X106515807Y-100245000D01*
X106860665Y-100176404D01*
X107185515Y-100041847D01*
X107477871Y-99846500D01*
X107622022Y-99702349D01*
X120677256Y-99702349D01*
X120791118Y-99982090D01*
X121106296Y-100137961D01*
X121445826Y-100229349D01*
X121796661Y-100252741D01*
X122145319Y-100207240D01*
X122478400Y-100094594D01*
X122688882Y-99982090D01*
X122802744Y-99702349D01*
X121740000Y-98639605D01*
X120677256Y-99702349D01*
X107622022Y-99702349D01*
X107726500Y-99597871D01*
X107921847Y-99305515D01*
X108056404Y-98980665D01*
X108125000Y-98635807D01*
X108125000Y-98516661D01*
X119947259Y-98516661D01*
X119992760Y-98865319D01*
X120105406Y-99198400D01*
X120217910Y-99408882D01*
X120497651Y-99522744D01*
X121560395Y-98460000D01*
X121919605Y-98460000D01*
X122982349Y-99522744D01*
X123262090Y-99408882D01*
X123314744Y-99302413D01*
X129223146Y-99302413D01*
X129223146Y-99837587D01*
X129327553Y-100362477D01*
X129532355Y-100856913D01*
X129829681Y-101301894D01*
X130208106Y-101680319D01*
X130653087Y-101977645D01*
X131147523Y-102182447D01*
X131672413Y-102286854D01*
X132207587Y-102286854D01*
X132732477Y-102182447D01*
X133226913Y-101977645D01*
X133671894Y-101680319D01*
X134050319Y-101301894D01*
X134347645Y-100856913D01*
X134552447Y-100362477D01*
X134656854Y-99837587D01*
X134656854Y-99302413D01*
X134552447Y-98777523D01*
X134347645Y-98283087D01*
X134050319Y-97838106D01*
X133671894Y-97459681D01*
X133226913Y-97162355D01*
X132796072Y-96983895D01*
X132826632Y-96963475D01*
X133033475Y-96756632D01*
X133195990Y-96513411D01*
X133307932Y-96243158D01*
X133365000Y-95956260D01*
X133365000Y-95663740D01*
X133307932Y-95376842D01*
X133195990Y-95106589D01*
X133033475Y-94863368D01*
X132826632Y-94656525D01*
X132644466Y-94534805D01*
X132761355Y-94465178D01*
X132977588Y-94270269D01*
X133151641Y-94036920D01*
X133276825Y-93774099D01*
X133321476Y-93626890D01*
X133200155Y-93397000D01*
X132007000Y-93397000D01*
X132007000Y-93417000D01*
X131753000Y-93417000D01*
X131753000Y-93397000D01*
X130559845Y-93397000D01*
X130438524Y-93626890D01*
X130483175Y-93774099D01*
X130608359Y-94036920D01*
X130782412Y-94270269D01*
X130998645Y-94465178D01*
X131115534Y-94534805D01*
X130933368Y-94656525D01*
X130726525Y-94863368D01*
X130564010Y-95106589D01*
X130452068Y-95376842D01*
X130395000Y-95663740D01*
X130395000Y-95956260D01*
X130452068Y-96243158D01*
X130564010Y-96513411D01*
X130726525Y-96756632D01*
X130933368Y-96963475D01*
X131009850Y-97014579D01*
X130653087Y-97162355D01*
X130208106Y-97459681D01*
X129829681Y-97838106D01*
X129532355Y-98283087D01*
X129327553Y-98777523D01*
X129223146Y-99302413D01*
X123314744Y-99302413D01*
X123417961Y-99093704D01*
X123509349Y-98754174D01*
X123532741Y-98403339D01*
X123487240Y-98054681D01*
X123374594Y-97721600D01*
X123262090Y-97511118D01*
X122982349Y-97397256D01*
X121919605Y-98460000D01*
X121560395Y-98460000D01*
X120497651Y-97397256D01*
X120217910Y-97511118D01*
X120062039Y-97826296D01*
X119970651Y-98165826D01*
X119947259Y-98516661D01*
X108125000Y-98516661D01*
X108125000Y-98284193D01*
X108056404Y-97939335D01*
X107921847Y-97614485D01*
X107726500Y-97322129D01*
X107622022Y-97217651D01*
X120677256Y-97217651D01*
X121740000Y-98280395D01*
X122802744Y-97217651D01*
X122688882Y-96937910D01*
X122373704Y-96782039D01*
X122034174Y-96690651D01*
X121683339Y-96667259D01*
X121334681Y-96712760D01*
X121001600Y-96825406D01*
X120791118Y-96937910D01*
X120677256Y-97217651D01*
X107622022Y-97217651D01*
X107477871Y-97073500D01*
X107185515Y-96878153D01*
X106860665Y-96743596D01*
X106515807Y-96675000D01*
X106164193Y-96675000D01*
X105819335Y-96743596D01*
X105494485Y-96878153D01*
X105202129Y-97073500D01*
X104953500Y-97322129D01*
X104758153Y-97614485D01*
X104623596Y-97939335D01*
X104555000Y-98284193D01*
X103240000Y-98284193D01*
X103240000Y-78337000D01*
X130442596Y-78337000D01*
X130653087Y-78477645D01*
X131147523Y-78682447D01*
X131672413Y-78786854D01*
X132207587Y-78786854D01*
X132732477Y-78682447D01*
X133226913Y-78477645D01*
X133437404Y-78337000D01*
X138630000Y-78337000D01*
X138654776Y-78334560D01*
X138678601Y-78327333D01*
X138700557Y-78315597D01*
X138719803Y-78299803D01*
X138735597Y-78280557D01*
X138747333Y-78258601D01*
X138754560Y-78234776D01*
X138757000Y-78210000D01*
X138757000Y-75802413D01*
X165233146Y-75802413D01*
X165233146Y-76337587D01*
X165337553Y-76862477D01*
X165542355Y-77356913D01*
X165839681Y-77801894D01*
X166218106Y-78180319D01*
X166663087Y-78477645D01*
X167157523Y-78682447D01*
X167682413Y-78786854D01*
X168217587Y-78786854D01*
X168742477Y-78682447D01*
X169236913Y-78477645D01*
X169681894Y-78180319D01*
X170060319Y-77801894D01*
X170357645Y-77356913D01*
X170562447Y-76862477D01*
X170666854Y-76337587D01*
X170666854Y-75802413D01*
X170562447Y-75277523D01*
X170357645Y-74783087D01*
X170060319Y-74338106D01*
X169681894Y-73959681D01*
X169236913Y-73662355D01*
X168742477Y-73457553D01*
X168217587Y-73353146D01*
X167682413Y-73353146D01*
X167157523Y-73457553D01*
X166663087Y-73662355D01*
X166218106Y-73959681D01*
X165839681Y-74338106D01*
X165542355Y-74783087D01*
X165337553Y-75277523D01*
X165233146Y-75802413D01*
X138757000Y-75802413D01*
X138757000Y-70851422D01*
X178090738Y-70851422D01*
X178090738Y-71288578D01*
X178176023Y-71717335D01*
X178343316Y-72121215D01*
X178586187Y-72484697D01*
X178895303Y-72793813D01*
X179258785Y-73036684D01*
X179662665Y-73203977D01*
X180091422Y-73289262D01*
X180528578Y-73289262D01*
X180957335Y-73203977D01*
X181361215Y-73036684D01*
X181724697Y-72793813D01*
X182033813Y-72484697D01*
X182276684Y-72121215D01*
X182443977Y-71717335D01*
X182529262Y-71288578D01*
X182529262Y-70851422D01*
X182443977Y-70422665D01*
X182276684Y-70018785D01*
X182033813Y-69655303D01*
X181724697Y-69346187D01*
X181361215Y-69103316D01*
X180957335Y-68936023D01*
X180528578Y-68850738D01*
X180091422Y-68850738D01*
X179662665Y-68936023D01*
X179258785Y-69103316D01*
X178895303Y-69346187D01*
X178586187Y-69655303D01*
X178343316Y-70018785D01*
X178176023Y-70422665D01*
X178090738Y-70851422D01*
X138757000Y-70851422D01*
X138757000Y-67050000D01*
X178591928Y-67050000D01*
X178604188Y-67174482D01*
X178640498Y-67294180D01*
X178699463Y-67404494D01*
X178778815Y-67501185D01*
X178875506Y-67580537D01*
X178985820Y-67639502D01*
X179105518Y-67675812D01*
X179230000Y-67688072D01*
X179794250Y-67685000D01*
X179953000Y-67526250D01*
X179953000Y-66327000D01*
X180207000Y-66327000D01*
X180207000Y-67526250D01*
X180365750Y-67685000D01*
X180930000Y-67688072D01*
X181054482Y-67675812D01*
X181174180Y-67639502D01*
X181284494Y-67580537D01*
X181381185Y-67501185D01*
X181460537Y-67404494D01*
X181519502Y-67294180D01*
X181555812Y-67174482D01*
X181568072Y-67050000D01*
X181565000Y-66485750D01*
X181406250Y-66327000D01*
X180207000Y-66327000D01*
X179953000Y-66327000D01*
X178753750Y-66327000D01*
X178595000Y-66485750D01*
X178591928Y-67050000D01*
X138757000Y-67050000D01*
X138757000Y-65350000D01*
X178591928Y-65350000D01*
X178595000Y-65914250D01*
X178753750Y-66073000D01*
X179953000Y-66073000D01*
X179953000Y-63787000D01*
X180207000Y-63787000D01*
X180207000Y-66073000D01*
X181406250Y-66073000D01*
X181565000Y-65914250D01*
X181568072Y-65350000D01*
X181555812Y-65225518D01*
X181519502Y-65105820D01*
X181460537Y-64995506D01*
X181381185Y-64898815D01*
X181284494Y-64819463D01*
X181174180Y-64760498D01*
X181093534Y-64736034D01*
X181177588Y-64660269D01*
X181351641Y-64426920D01*
X181476825Y-64164099D01*
X181521476Y-64016890D01*
X181400155Y-63787000D01*
X180207000Y-63787000D01*
X179953000Y-63787000D01*
X178759845Y-63787000D01*
X178638524Y-64016890D01*
X178683175Y-64164099D01*
X178808359Y-64426920D01*
X178982412Y-64660269D01*
X179066466Y-64736034D01*
X178985820Y-64760498D01*
X178875506Y-64819463D01*
X178778815Y-64898815D01*
X178699463Y-64995506D01*
X178640498Y-65105820D01*
X178604188Y-65225518D01*
X178591928Y-65350000D01*
X138757000Y-65350000D01*
X138757000Y-58433740D01*
X178595000Y-58433740D01*
X178595000Y-58726260D01*
X178652068Y-59013158D01*
X178764010Y-59283411D01*
X178926525Y-59526632D01*
X179133368Y-59733475D01*
X179307760Y-59850000D01*
X179133368Y-59966525D01*
X178926525Y-60173368D01*
X178764010Y-60416589D01*
X178652068Y-60686842D01*
X178595000Y-60973740D01*
X178595000Y-61266260D01*
X178652068Y-61553158D01*
X178764010Y-61823411D01*
X178926525Y-62066632D01*
X179133368Y-62273475D01*
X179315534Y-62395195D01*
X179198645Y-62464822D01*
X178982412Y-62659731D01*
X178808359Y-62893080D01*
X178683175Y-63155901D01*
X178638524Y-63303110D01*
X178759845Y-63533000D01*
X179953000Y-63533000D01*
X179953000Y-63513000D01*
X180207000Y-63513000D01*
X180207000Y-63533000D01*
X181400155Y-63533000D01*
X181521476Y-63303110D01*
X181476825Y-63155901D01*
X181351641Y-62893080D01*
X181177588Y-62659731D01*
X180961355Y-62464822D01*
X180844466Y-62395195D01*
X181026632Y-62273475D01*
X181233475Y-62066632D01*
X181395990Y-61823411D01*
X181507932Y-61553158D01*
X181554310Y-61320000D01*
X186411928Y-61320000D01*
X186424188Y-61444482D01*
X186460498Y-61564180D01*
X186519463Y-61674494D01*
X186598815Y-61771185D01*
X186695506Y-61850537D01*
X186805820Y-61909502D01*
X186824127Y-61915056D01*
X186757688Y-61981495D01*
X186589701Y-62232905D01*
X186473989Y-62512257D01*
X186415000Y-62808816D01*
X186415000Y-63111184D01*
X186473989Y-63407743D01*
X186589701Y-63687095D01*
X186757688Y-63938505D01*
X186971495Y-64152312D01*
X187222905Y-64320299D01*
X187502257Y-64436011D01*
X187798816Y-64495000D01*
X188101184Y-64495000D01*
X188397743Y-64436011D01*
X188677095Y-64320299D01*
X188928505Y-64152312D01*
X189142312Y-63938505D01*
X189310299Y-63687095D01*
X189426011Y-63407743D01*
X189485000Y-63111184D01*
X189485000Y-62808816D01*
X189426011Y-62512257D01*
X189310299Y-62232905D01*
X189142312Y-61981495D01*
X189075873Y-61915056D01*
X189094180Y-61909502D01*
X189204494Y-61850537D01*
X189301185Y-61771185D01*
X189380537Y-61674494D01*
X189439502Y-61564180D01*
X189475812Y-61444482D01*
X189488072Y-61320000D01*
X189485000Y-60705750D01*
X189326250Y-60547000D01*
X188077000Y-60547000D01*
X188077000Y-60567000D01*
X187823000Y-60567000D01*
X187823000Y-60547000D01*
X186573750Y-60547000D01*
X186415000Y-60705750D01*
X186411928Y-61320000D01*
X181554310Y-61320000D01*
X181565000Y-61266260D01*
X181565000Y-60973740D01*
X181507932Y-60686842D01*
X181395990Y-60416589D01*
X181233475Y-60173368D01*
X181026632Y-59966525D01*
X180852240Y-59850000D01*
X181026632Y-59733475D01*
X181233475Y-59526632D01*
X181237906Y-59520000D01*
X186411928Y-59520000D01*
X186415000Y-60134250D01*
X186573750Y-60293000D01*
X187823000Y-60293000D01*
X187823000Y-59043750D01*
X188077000Y-59043750D01*
X188077000Y-60293000D01*
X189326250Y-60293000D01*
X189485000Y-60134250D01*
X189488072Y-59520000D01*
X189475812Y-59395518D01*
X189439502Y-59275820D01*
X189380537Y-59165506D01*
X189301185Y-59068815D01*
X189204494Y-58989463D01*
X189094180Y-58930498D01*
X188974482Y-58894188D01*
X188850000Y-58881928D01*
X188235750Y-58885000D01*
X188077000Y-59043750D01*
X187823000Y-59043750D01*
X187664250Y-58885000D01*
X187050000Y-58881928D01*
X186925518Y-58894188D01*
X186805820Y-58930498D01*
X186695506Y-58989463D01*
X186598815Y-59068815D01*
X186519463Y-59165506D01*
X186460498Y-59275820D01*
X186424188Y-59395518D01*
X186411928Y-59520000D01*
X181237906Y-59520000D01*
X181395990Y-59283411D01*
X181507932Y-59013158D01*
X181565000Y-58726260D01*
X181565000Y-58433740D01*
X181507932Y-58146842D01*
X181395990Y-57876589D01*
X181233475Y-57633368D01*
X181026632Y-57426525D01*
X180783411Y-57264010D01*
X180513158Y-57152068D01*
X180226260Y-57095000D01*
X179933740Y-57095000D01*
X179646842Y-57152068D01*
X179376589Y-57264010D01*
X179133368Y-57426525D01*
X178926525Y-57633368D01*
X178764010Y-57876589D01*
X178652068Y-58146842D01*
X178595000Y-58433740D01*
X138757000Y-58433740D01*
X138757000Y-53320000D01*
X178422686Y-53320000D01*
X178343316Y-53438785D01*
G37*
X178343316Y-53438785D02*
X178176023Y-53842665D01*
X178090738Y-54271422D01*
X178090738Y-54708578D01*
X178176023Y-55137335D01*
X178343316Y-55541215D01*
X178586187Y-55904697D01*
X178895303Y-56213813D01*
X179258785Y-56456684D01*
X179662665Y-56623977D01*
X180091422Y-56709262D01*
X180528578Y-56709262D01*
X180957335Y-56623977D01*
X181361215Y-56456684D01*
X181724697Y-56213813D01*
X182033813Y-55904697D01*
X182276684Y-55541215D01*
X182443977Y-55137335D01*
X182529262Y-54708578D01*
X182529262Y-54271422D01*
X182443977Y-53842665D01*
X182276684Y-53438785D01*
X182197314Y-53320000D01*
X187204086Y-53320000D01*
X187003176Y-53520910D01*
X186651394Y-54047389D01*
X186409083Y-54632380D01*
X186285553Y-55253405D01*
X186285553Y-55886595D01*
X186409083Y-56507620D01*
X186651394Y-57092611D01*
X187003176Y-57619090D01*
X187450910Y-58066824D01*
X187977389Y-58418606D01*
X188562380Y-58660917D01*
X189183405Y-58784447D01*
X189816595Y-58784447D01*
X190437620Y-58660917D01*
X191022611Y-58418606D01*
X191549090Y-58066824D01*
X191890000Y-57725914D01*
X191890001Y-147224087D01*
X191559090Y-146893176D01*
X191032611Y-146541394D01*
X190447620Y-146299083D01*
X189826595Y-146175553D01*
X189193405Y-146175553D01*
X188572380Y-146299083D01*
X187987389Y-146541394D01*
X187460910Y-146893176D01*
X187013176Y-147340910D01*
X186661394Y-147867389D01*
X186419083Y-148452380D01*
X186295553Y-149073405D01*
X186295553Y-149706595D01*
X186419083Y-150327620D01*
X186661394Y-150912611D01*
X187013176Y-151439090D01*
X187204086Y-151630000D01*
X169652083Y-151630000D01*
X169727645Y-151516913D01*
X169932447Y-151022477D01*
X170036854Y-150497587D01*
X170036854Y-149962413D01*
X169932447Y-149437523D01*
X169727645Y-148943087D01*
X169430319Y-148498106D01*
X169051894Y-148119681D01*
X168606913Y-147822355D01*
X168112477Y-147617553D01*
X167587587Y-147513146D01*
X167052413Y-147513146D01*
X166527523Y-147617553D01*
X166033087Y-147822355D01*
X165588106Y-148119681D01*
X165209681Y-148498106D01*
X164912355Y-148943087D01*
X164707553Y-149437523D01*
X164603146Y-149962413D01*
X164603146Y-150497587D01*
X164707553Y-151022477D01*
X164912355Y-151516913D01*
X164987917Y-151630000D01*
X107965914Y-151630000D01*
X108156824Y-151439090D01*
X108508606Y-150912611D01*
X108750917Y-150327620D01*
X108874447Y-149706595D01*
X108874447Y-149073405D01*
X108750917Y-148452380D01*
X108508606Y-147867389D01*
X108354593Y-147636891D01*
X131708519Y-147636891D01*
X131805843Y-147911252D01*
X131954822Y-148161355D01*
X132149731Y-148377588D01*
X132383080Y-148551641D01*
X132645901Y-148676825D01*
X132793110Y-148721476D01*
X133023000Y-148600155D01*
X133023000Y-147407000D01*
X131829186Y-147407000D01*
X131708519Y-147636891D01*
X108354593Y-147636891D01*
X108156824Y-147340910D01*
X107709090Y-146893176D01*
X107182611Y-146541394D01*
X106597620Y-146299083D01*
X105976595Y-146175553D01*
X105343405Y-146175553D01*
X104722380Y-146299083D01*
X104137389Y-146541394D01*
X103610910Y-146893176D01*
X103240000Y-147264086D01*
X103240000Y-114210000D01*
X105511203Y-114210000D01*
X105515001Y-114248563D01*
X105515000Y-140811447D01*
X105511203Y-140850000D01*
X105515000Y-140888553D01*
X105515000Y-140888560D01*
X105526359Y-141003886D01*
X105571246Y-141151859D01*
X105644138Y-141288232D01*
X105742236Y-141407764D01*
X105772190Y-141432347D01*
X109131928Y-144792086D01*
X109131928Y-145920000D01*
X109144188Y-146044482D01*
X109180498Y-146164180D01*
X109239463Y-146274494D01*
X109318815Y-146371185D01*
X109415506Y-146450537D01*
X109525820Y-146509502D01*
X109645518Y-146545812D01*
X109770000Y-146558072D01*
X111370000Y-146558072D01*
X111494482Y-146545812D01*
X111614180Y-146509502D01*
X111724494Y-146450537D01*
X111821185Y-146371185D01*
X111900537Y-146274494D01*
X111959502Y-146164180D01*
X111995812Y-146044482D01*
X111996643Y-146036039D01*
X112195241Y-146234637D01*
X112430273Y-146391680D01*
X112691426Y-146499853D01*
X112968665Y-146555000D01*
X113251335Y-146555000D01*
X113528574Y-146499853D01*
X113789727Y-146391680D01*
X114024759Y-146234637D01*
X114224637Y-146034759D01*
X114380000Y-145802241D01*
X114535363Y-146034759D01*
X114735241Y-146234637D01*
X114970273Y-146391680D01*
X115231426Y-146499853D01*
X115508665Y-146555000D01*
X115791335Y-146555000D01*
X116068574Y-146499853D01*
X116329727Y-146391680D01*
X116564759Y-146234637D01*
X116764637Y-146034759D01*
X116920000Y-145802241D01*
X117075363Y-146034759D01*
X117275241Y-146234637D01*
X117510273Y-146391680D01*
X117771426Y-146499853D01*
X118048665Y-146555000D01*
X118331335Y-146555000D01*
X118608574Y-146499853D01*
X118869727Y-146391680D01*
X119104759Y-146234637D01*
X119304637Y-146034759D01*
X119460000Y-145802241D01*
X119615363Y-146034759D01*
X119815241Y-146234637D01*
X120050273Y-146391680D01*
X120311426Y-146499853D01*
X120588665Y-146555000D01*
X120871335Y-146555000D01*
X121148574Y-146499853D01*
X121409727Y-146391680D01*
X121644759Y-146234637D01*
X121844637Y-146034759D01*
X122000000Y-145802241D01*
X122155363Y-146034759D01*
X122355241Y-146234637D01*
X122590273Y-146391680D01*
X122851426Y-146499853D01*
X123128665Y-146555000D01*
X123411335Y-146555000D01*
X123688574Y-146499853D01*
X123949727Y-146391680D01*
X124184759Y-146234637D01*
X124384637Y-146034759D01*
X124541680Y-145799727D01*
X124649853Y-145538574D01*
X124705000Y-145261335D01*
X124705000Y-144978665D01*
X124649853Y-144701426D01*
X124541680Y-144440273D01*
X124384637Y-144205241D01*
X124184759Y-144005363D01*
X123949727Y-143848320D01*
X123688574Y-143740147D01*
X123411335Y-143685000D01*
X123128665Y-143685000D01*
X122851426Y-143740147D01*
X122590273Y-143848320D01*
X122355241Y-144005363D01*
X122155363Y-144205241D01*
X122000000Y-144437759D01*
X121844637Y-144205241D01*
X121644759Y-144005363D01*
X121409727Y-143848320D01*
X121148574Y-143740147D01*
X120871335Y-143685000D01*
X120588665Y-143685000D01*
X120311426Y-143740147D01*
X120050273Y-143848320D01*
X119815241Y-144005363D01*
X119615363Y-144205241D01*
X119460000Y-144437759D01*
X119304637Y-144205241D01*
X119104759Y-144005363D01*
X118869727Y-143848320D01*
X118608574Y-143740147D01*
X118331335Y-143685000D01*
X118048665Y-143685000D01*
X117771426Y-143740147D01*
X117510273Y-143848320D01*
X117275241Y-144005363D01*
X117075363Y-144205241D01*
X116920000Y-144437759D01*
X116764637Y-144205241D01*
X116564759Y-144005363D01*
X116329727Y-143848320D01*
X116068574Y-143740147D01*
X115791335Y-143685000D01*
X115508665Y-143685000D01*
X115231426Y-143740147D01*
X114970273Y-143848320D01*
X114735241Y-144005363D01*
X114535363Y-144205241D01*
X114380000Y-144437759D01*
X114224637Y-144205241D01*
X114024759Y-144005363D01*
X113789727Y-143848320D01*
X113528574Y-143740147D01*
X113251335Y-143685000D01*
X112968665Y-143685000D01*
X112691426Y-143740147D01*
X112430273Y-143848320D01*
X112195241Y-144005363D01*
X111996643Y-144203961D01*
X111995812Y-144195518D01*
X111959502Y-144075820D01*
X111900537Y-143965506D01*
X111821185Y-143868815D01*
X111724494Y-143789463D01*
X111614180Y-143730498D01*
X111494482Y-143694188D01*
X111370000Y-143681928D01*
X110242086Y-143681928D01*
X108660158Y-142100000D01*
X109406928Y-142100000D01*
X109419188Y-142224482D01*
X109455498Y-142344180D01*
X109514463Y-142454494D01*
X109593815Y-142551185D01*
X109690506Y-142630537D01*
X109800820Y-142689502D01*
X109920518Y-142725812D01*
X110045000Y-142738072D01*
X110234250Y-142735000D01*
X110393000Y-142576250D01*
X110393000Y-141702000D01*
X110647000Y-141702000D01*
X110647000Y-142576250D01*
X110805750Y-142735000D01*
X110995000Y-142738072D01*
X111119482Y-142725812D01*
X111239180Y-142689502D01*
X111349494Y-142630537D01*
X111446185Y-142551185D01*
X111525537Y-142454494D01*
X111584502Y-142344180D01*
X111620812Y-142224482D01*
X111633072Y-142100000D01*
X111976928Y-142100000D01*
X111989188Y-142224482D01*
X112025498Y-142344180D01*
X112084463Y-142454494D01*
X112163815Y-142551185D01*
X112260506Y-142630537D01*
X112370820Y-142689502D01*
X112490518Y-142725812D01*
X112615000Y-142738072D01*
X112804250Y-142735000D01*
X112963000Y-142576250D01*
X112963000Y-141702000D01*
X113217000Y-141702000D01*
X113217000Y-142576250D01*
X113375750Y-142735000D01*
X113565000Y-142738072D01*
X113689482Y-142725812D01*
X113809180Y-142689502D01*
X113919494Y-142630537D01*
X114016185Y-142551185D01*
X114095537Y-142454494D01*
X114154502Y-142344180D01*
X114190812Y-142224482D01*
X114203072Y-142100000D01*
X114506928Y-142100000D01*
X114519188Y-142224482D01*
X114555498Y-142344180D01*
X114614463Y-142454494D01*
X114693815Y-142551185D01*
X114790506Y-142630537D01*
X114900820Y-142689502D01*
X115020518Y-142725812D01*
X115145000Y-142738072D01*
X115334250Y-142735000D01*
X115493000Y-142576250D01*
X115493000Y-141702000D01*
X115747000Y-141702000D01*
X115747000Y-142576250D01*
X115905750Y-142735000D01*
X116095000Y-142738072D01*
X116219482Y-142725812D01*
X116339180Y-142689502D01*
X116449494Y-142630537D01*
X116546185Y-142551185D01*
X116625537Y-142454494D01*
X116684502Y-142344180D01*
X116720812Y-142224482D01*
X116731594Y-142115000D01*
X117046928Y-142115000D01*
X117059188Y-142239482D01*
X117095498Y-142359180D01*
X117154463Y-142469494D01*
X117233815Y-142566185D01*
X117330506Y-142645537D01*
X117440820Y-142704502D01*
X117560518Y-142740812D01*
X117685000Y-142753072D01*
X117874250Y-142750000D01*
X118033000Y-142591250D01*
X118033000Y-141717000D01*
X118287000Y-141717000D01*
X118287000Y-142591250D01*
X118445750Y-142750000D01*
X118635000Y-142753072D01*
X118759482Y-142740812D01*
X118879180Y-142704502D01*
X118989494Y-142645537D01*
X119086185Y-142566185D01*
X119165537Y-142469494D01*
X119224502Y-142359180D01*
X119260812Y-142239482D01*
X119273072Y-142115000D01*
X119272880Y-142100000D01*
X119566928Y-142100000D01*
X119579188Y-142224482D01*
X119615498Y-142344180D01*
X119674463Y-142454494D01*
X119753815Y-142551185D01*
X119850506Y-142630537D01*
X119960820Y-142689502D01*
X120080518Y-142725812D01*
X120205000Y-142738072D01*
X120394250Y-142735000D01*
X120553000Y-142576250D01*
X120553000Y-141702000D01*
X120807000Y-141702000D01*
X120807000Y-142576250D01*
X120965750Y-142735000D01*
X121155000Y-142738072D01*
X121279482Y-142725812D01*
X121399180Y-142689502D01*
X121509494Y-142630537D01*
X121606185Y-142551185D01*
X121685537Y-142454494D01*
X121744502Y-142344180D01*
X121780812Y-142224482D01*
X121791102Y-142120000D01*
X122136928Y-142120000D01*
X122149188Y-142244482D01*
X122185498Y-142364180D01*
X122244463Y-142474494D01*
X122323815Y-142571185D01*
X122420506Y-142650537D01*
X122530820Y-142709502D01*
X122650518Y-142745812D01*
X122775000Y-142758072D01*
X122964250Y-142755000D01*
X123123000Y-142596250D01*
X123123000Y-141722000D01*
X123377000Y-141722000D01*
X123377000Y-142596250D01*
X123535750Y-142755000D01*
X123725000Y-142758072D01*
X123849482Y-142745812D01*
X123969180Y-142709502D01*
X124079494Y-142650537D01*
X124176185Y-142571185D01*
X124255537Y-142474494D01*
X124314502Y-142364180D01*
X124350812Y-142244482D01*
X124363072Y-142120000D01*
X124360000Y-141880750D01*
X124201250Y-141722000D01*
X123377000Y-141722000D01*
X123123000Y-141722000D01*
X122298750Y-141722000D01*
X122140000Y-141880750D01*
X122136928Y-142120000D01*
X121791102Y-142120000D01*
X121793072Y-142100000D01*
X121790000Y-141860750D01*
X121631250Y-141702000D01*
X120807000Y-141702000D01*
X120553000Y-141702000D01*
X119728750Y-141702000D01*
X119570000Y-141860750D01*
X119566928Y-142100000D01*
X119272880Y-142100000D01*
X119270000Y-141875750D01*
X119111250Y-141717000D01*
X118287000Y-141717000D01*
X118033000Y-141717000D01*
X117208750Y-141717000D01*
X117050000Y-141875750D01*
X117046928Y-142115000D01*
X116731594Y-142115000D01*
X116733072Y-142100000D01*
X116730000Y-141860750D01*
X116571250Y-141702000D01*
X115747000Y-141702000D01*
X115493000Y-141702000D01*
X114668750Y-141702000D01*
X114510000Y-141860750D01*
X114506928Y-142100000D01*
X114203072Y-142100000D01*
X114200000Y-141860750D01*
X114041250Y-141702000D01*
X113217000Y-141702000D01*
X112963000Y-141702000D01*
X112138750Y-141702000D01*
X111980000Y-141860750D01*
X111976928Y-142100000D01*
X111633072Y-142100000D01*
X111630000Y-141860750D01*
X111471250Y-141702000D01*
X110647000Y-141702000D01*
X110393000Y-141702000D01*
X109568750Y-141702000D01*
X109410000Y-141860750D01*
X109406928Y-142100000D01*
X108660158Y-142100000D01*
X107085000Y-140524843D01*
X107085000Y-137358665D01*
X109135000Y-137358665D01*
X109135000Y-137641335D01*
X109190147Y-137918574D01*
X109298320Y-138179727D01*
X109455363Y-138414759D01*
X109655241Y-138614637D01*
X109785001Y-138701339D01*
X109785001Y-138818563D01*
X109663377Y-138918377D01*
X109554488Y-139051058D01*
X109473577Y-139202433D01*
X109423752Y-139366684D01*
X109406928Y-139537500D01*
X109406928Y-140112500D01*
X109423752Y-140283316D01*
X109473577Y-140447567D01*
X109554488Y-140598942D01*
X109574099Y-140622839D01*
X109514463Y-140695506D01*
X109455498Y-140805820D01*
X109419188Y-140925518D01*
X109406928Y-141050000D01*
X109410000Y-141289250D01*
X109568750Y-141448000D01*
X110393000Y-141448000D01*
X110393000Y-141428000D01*
X110647000Y-141428000D01*
X110647000Y-141448000D01*
X111471250Y-141448000D01*
X111630000Y-141289250D01*
X111633072Y-141050000D01*
X111620812Y-140925518D01*
X111584502Y-140805820D01*
X111525537Y-140695506D01*
X111465901Y-140622839D01*
X111485512Y-140598942D01*
X111566423Y-140447567D01*
X111616248Y-140283316D01*
X111633072Y-140112500D01*
X111633072Y-139537500D01*
X111616248Y-139366684D01*
X111566423Y-139202433D01*
X111485512Y-139051058D01*
X111376623Y-138918377D01*
X111355000Y-138900631D01*
X111355000Y-138701339D01*
X111484759Y-138614637D01*
X111684637Y-138414759D01*
X111840000Y-138182241D01*
X111995363Y-138414759D01*
X112195241Y-138614637D01*
X112325001Y-138701339D01*
X112325001Y-138843183D01*
X112233377Y-138918377D01*
X112124488Y-139051058D01*
X112043577Y-139202433D01*
X111993752Y-139366684D01*
X111976928Y-139537500D01*
X111976928Y-140112500D01*
X111993752Y-140283316D01*
X112043577Y-140447567D01*
X112124488Y-140598942D01*
X112144099Y-140622839D01*
X112084463Y-140695506D01*
X112025498Y-140805820D01*
X111989188Y-140925518D01*
X111976928Y-141050000D01*
X111980000Y-141289250D01*
X112138750Y-141448000D01*
X112963000Y-141448000D01*
X112963000Y-141428000D01*
X113217000Y-141428000D01*
X113217000Y-141448000D01*
X114041250Y-141448000D01*
X114200000Y-141289250D01*
X114203072Y-141050000D01*
X114190812Y-140925518D01*
X114154502Y-140805820D01*
X114095537Y-140695506D01*
X114035901Y-140622839D01*
X114055512Y-140598942D01*
X114136423Y-140447567D01*
X114186248Y-140283316D01*
X114203072Y-140112500D01*
X114203072Y-139537500D01*
X114186248Y-139366684D01*
X114136423Y-139202433D01*
X114055512Y-139051058D01*
X113946623Y-138918377D01*
X113895000Y-138876011D01*
X113895000Y-138701339D01*
X114024759Y-138614637D01*
X114224637Y-138414759D01*
X114380000Y-138182241D01*
X114535363Y-138414759D01*
X114735241Y-138614637D01*
X114865001Y-138701339D01*
X114865001Y-138834976D01*
X114763377Y-138918377D01*
X114654488Y-139051058D01*
X114573577Y-139202433D01*
X114523752Y-139366684D01*
X114506928Y-139537500D01*
X114506928Y-140112500D01*
X114523752Y-140283316D01*
X114573577Y-140447567D01*
X114654488Y-140598942D01*
X114674099Y-140622839D01*
X114614463Y-140695506D01*
X114555498Y-140805820D01*
X114519188Y-140925518D01*
X114506928Y-141050000D01*
X114510000Y-141289250D01*
X114668750Y-141448000D01*
X115493000Y-141448000D01*
X115493000Y-141428000D01*
X115747000Y-141428000D01*
X115747000Y-141448000D01*
X116571250Y-141448000D01*
X116730000Y-141289250D01*
X116733072Y-141050000D01*
X116720812Y-140925518D01*
X116684502Y-140805820D01*
X116625537Y-140695506D01*
X116565901Y-140622839D01*
X116585512Y-140598942D01*
X116666423Y-140447567D01*
X116716248Y-140283316D01*
X116733072Y-140112500D01*
X116733072Y-139537500D01*
X116716248Y-139366684D01*
X116666423Y-139202433D01*
X116585512Y-139051058D01*
X116476623Y-138918377D01*
X116435000Y-138884218D01*
X116435000Y-138701339D01*
X116564759Y-138614637D01*
X116764637Y-138414759D01*
X116920000Y-138182241D01*
X117075363Y-138414759D01*
X117275241Y-138614637D01*
X117405001Y-138701339D01*
X117405001Y-138849976D01*
X117303377Y-138933377D01*
X117194488Y-139066058D01*
X117113577Y-139217433D01*
X117063752Y-139381684D01*
X117046928Y-139552500D01*
X117046928Y-140127500D01*
X117063752Y-140298316D01*
X117113577Y-140462567D01*
X117194488Y-140613942D01*
X117214099Y-140637839D01*
X117154463Y-140710506D01*
X117095498Y-140820820D01*
X117059188Y-140940518D01*
X117046928Y-141065000D01*
X117050000Y-141304250D01*
X117208750Y-141463000D01*
X118033000Y-141463000D01*
X118033000Y-141443000D01*
X118287000Y-141443000D01*
X118287000Y-141463000D01*
X119111250Y-141463000D01*
X119270000Y-141304250D01*
X119273072Y-141065000D01*
X119260812Y-140940518D01*
X119224502Y-140820820D01*
X119165537Y-140710506D01*
X119105901Y-140637839D01*
X119125512Y-140613942D01*
X119206423Y-140462567D01*
X119256248Y-140298316D01*
X119273072Y-140127500D01*
X119273072Y-139552500D01*
X119256248Y-139381684D01*
X119206423Y-139217433D01*
X119125512Y-139066058D01*
X119016623Y-138933377D01*
X118975000Y-138899218D01*
X118975000Y-138701339D01*
X119104759Y-138614637D01*
X119304637Y-138414759D01*
X119460000Y-138182241D01*
X119615363Y-138414759D01*
X119815241Y-138614637D01*
X119945001Y-138701339D01*
X119945001Y-138818563D01*
X119823377Y-138918377D01*
X119714488Y-139051058D01*
X119633577Y-139202433D01*
X119583752Y-139366684D01*
X119566928Y-139537500D01*
X119566928Y-140112500D01*
X119583752Y-140283316D01*
X119633577Y-140447567D01*
X119714488Y-140598942D01*
X119734099Y-140622839D01*
X119674463Y-140695506D01*
X119615498Y-140805820D01*
X119579188Y-140925518D01*
X119566928Y-141050000D01*
X119570000Y-141289250D01*
X119728750Y-141448000D01*
X120553000Y-141448000D01*
X120553000Y-141428000D01*
X120807000Y-141428000D01*
X120807000Y-141448000D01*
X121631250Y-141448000D01*
X121790000Y-141289250D01*
X121793072Y-141050000D01*
X121780812Y-140925518D01*
X121744502Y-140805820D01*
X121685537Y-140695506D01*
X121625901Y-140622839D01*
X121645512Y-140598942D01*
X121726423Y-140447567D01*
X121776248Y-140283316D01*
X121793072Y-140112500D01*
X121793072Y-139537500D01*
X121776248Y-139366684D01*
X121726423Y-139202433D01*
X121645512Y-139051058D01*
X121536623Y-138918377D01*
X121515000Y-138900631D01*
X121515000Y-138701339D01*
X121644759Y-138614637D01*
X121844637Y-138414759D01*
X122000000Y-138182241D01*
X122155363Y-138414759D01*
X122355241Y-138614637D01*
X122485001Y-138701339D01*
X122485001Y-138863183D01*
X122393377Y-138938377D01*
X122284488Y-139071058D01*
X122203577Y-139222433D01*
X122153752Y-139386684D01*
X122136928Y-139557500D01*
X122136928Y-140132500D01*
X122153752Y-140303316D01*
X122203577Y-140467567D01*
X122284488Y-140618942D01*
X122304099Y-140642839D01*
X122244463Y-140715506D01*
X122185498Y-140825820D01*
X122149188Y-140945518D01*
X122136928Y-141070000D01*
X122140000Y-141309250D01*
X122298750Y-141468000D01*
X123123000Y-141468000D01*
X123123000Y-141448000D01*
X123377000Y-141448000D01*
X123377000Y-141468000D01*
X124201250Y-141468000D01*
X124360000Y-141309250D01*
X124363072Y-141070000D01*
X124350812Y-140945518D01*
X124314502Y-140825820D01*
X124255537Y-140715506D01*
X124195901Y-140642839D01*
X124215512Y-140618942D01*
X124296423Y-140467567D01*
X124346248Y-140303316D01*
X124363072Y-140132500D01*
X124363072Y-139557500D01*
X124346248Y-139386684D01*
X124296423Y-139222433D01*
X124215512Y-139071058D01*
X124106623Y-138938377D01*
X124055000Y-138896011D01*
X124055000Y-138701339D01*
X124184759Y-138614637D01*
X124384637Y-138414759D01*
X124541680Y-138179727D01*
X124649853Y-137918574D01*
X124692325Y-137705054D01*
X124800713Y-137867267D01*
X124972733Y-138039287D01*
X125175008Y-138174443D01*
X125399764Y-138267540D01*
X125638363Y-138315000D01*
X125881637Y-138315000D01*
X126120236Y-138267540D01*
X126344992Y-138174443D01*
X126547267Y-138039287D01*
X126719287Y-137867267D01*
X126720802Y-137865000D01*
X127511447Y-137865000D01*
X127550000Y-137868797D01*
X127588553Y-137865000D01*
X127588561Y-137865000D01*
X127703887Y-137853641D01*
X127851860Y-137808754D01*
X127988233Y-137735862D01*
X128107764Y-137637764D01*
X128132347Y-137607810D01*
X132232084Y-133508073D01*
X132242460Y-133560236D01*
X132335557Y-133784992D01*
X132470713Y-133987267D01*
X132642733Y-134159287D01*
X132845008Y-134294443D01*
X133069764Y-134387540D01*
X133308363Y-134435000D01*
X133551637Y-134435000D01*
X133554311Y-134434468D01*
X136485532Y-137365690D01*
X136485000Y-137368363D01*
X136485000Y-137611637D01*
X136532460Y-137850236D01*
X136625557Y-138074992D01*
X136760713Y-138277267D01*
X136932733Y-138449287D01*
X137135008Y-138584443D01*
X137359764Y-138677540D01*
X137598363Y-138725000D01*
X137841637Y-138725000D01*
X138080236Y-138677540D01*
X138304992Y-138584443D01*
X138507267Y-138449287D01*
X138679287Y-138277267D01*
X138814443Y-138074992D01*
X138907540Y-137850236D01*
X138955000Y-137611637D01*
X138955000Y-137368363D01*
X138907540Y-137129764D01*
X138814443Y-136905008D01*
X138679287Y-136702733D01*
X138507267Y-136530713D01*
X138304992Y-136395557D01*
X138080236Y-136302460D01*
X137841637Y-136255000D01*
X137598363Y-136255000D01*
X137595690Y-136255532D01*
X135972571Y-134632413D01*
X138913146Y-134632413D01*
X138913146Y-135167587D01*
X139017553Y-135692477D01*
X139222355Y-136186913D01*
X139519681Y-136631894D01*
X139898106Y-137010319D01*
X140343087Y-137307645D01*
X140837523Y-137512447D01*
X141362413Y-137616854D01*
X141897587Y-137616854D01*
X142422477Y-137512447D01*
X142916913Y-137307645D01*
X143361894Y-137010319D01*
X143740319Y-136631894D01*
X144037645Y-136186913D01*
X144242447Y-135692477D01*
X144346854Y-135167587D01*
X144346854Y-134632413D01*
X144242447Y-134107523D01*
X144037645Y-133613087D01*
X143740319Y-133168106D01*
X143361894Y-132789681D01*
X142916913Y-132492355D01*
X142422477Y-132287553D01*
X141897587Y-132183146D01*
X141362413Y-132183146D01*
X140837523Y-132287553D01*
X140343087Y-132492355D01*
X139898106Y-132789681D01*
X139519681Y-133168106D01*
X139222355Y-133613087D01*
X139017553Y-134107523D01*
X138913146Y-134632413D01*
X135972571Y-134632413D01*
X134664468Y-133324311D01*
X134665000Y-133321637D01*
X134665000Y-133078363D01*
X134617540Y-132839764D01*
X134524443Y-132615008D01*
X134389287Y-132412733D01*
X134217267Y-132240713D01*
X134014992Y-132105557D01*
X133790236Y-132012460D01*
X133738073Y-132002084D01*
X140345158Y-125395000D01*
X146889198Y-125395000D01*
X146890713Y-125397267D01*
X147062733Y-125569287D01*
X147265008Y-125704443D01*
X147489764Y-125797540D01*
X147728363Y-125845000D01*
X147971637Y-125845000D01*
X148210236Y-125797540D01*
X148434992Y-125704443D01*
X148637267Y-125569287D01*
X148809287Y-125397267D01*
X148944443Y-125194992D01*
X149037540Y-124970236D01*
X149085000Y-124731637D01*
X149085000Y-124488363D01*
X149037540Y-124249764D01*
X148944443Y-124025008D01*
X148809287Y-123822733D01*
X148637267Y-123650713D01*
X148434992Y-123515557D01*
X148210236Y-123422460D01*
X147971637Y-123375000D01*
X147728363Y-123375000D01*
X147489764Y-123422460D01*
X147265008Y-123515557D01*
X147062733Y-123650713D01*
X146890713Y-123822733D01*
X146889198Y-123825000D01*
X140058552Y-123825000D01*
X140019999Y-123821203D01*
X139981446Y-123825000D01*
X139981439Y-123825000D01*
X139880490Y-123834943D01*
X139866112Y-123836359D01*
X139793575Y-123858363D01*
X139718140Y-123881246D01*
X139581767Y-123954138D01*
X139521559Y-124003550D01*
X139492187Y-124027655D01*
X139492184Y-124027658D01*
X139462236Y-124052236D01*
X139437658Y-124082184D01*
X138772803Y-124747039D01*
X138894443Y-124564992D01*
X138987540Y-124340236D01*
X139035000Y-124101637D01*
X139035000Y-123858363D01*
X138987540Y-123619764D01*
X138894443Y-123395008D01*
X138759287Y-123192733D01*
X138587267Y-123020713D01*
X138503887Y-122965000D01*
X146581447Y-122965000D01*
X146620000Y-122968797D01*
X146658553Y-122965000D01*
X146658561Y-122965000D01*
X146773887Y-122953641D01*
X146921860Y-122908754D01*
X147058233Y-122835862D01*
X147177764Y-122737764D01*
X147202347Y-122707810D01*
X148967811Y-120942346D01*
X148997764Y-120917764D01*
X149095862Y-120798233D01*
X149168754Y-120661860D01*
X149187897Y-120598754D01*
X149213642Y-120513887D01*
X149222124Y-120427764D01*
X149225000Y-120398561D01*
X149225000Y-120398556D01*
X149228797Y-120360000D01*
X149225000Y-120321444D01*
X149225000Y-101688552D01*
X149228797Y-101649999D01*
X149225000Y-101611446D01*
X149225000Y-101611439D01*
X149213641Y-101496113D01*
X149200090Y-101451439D01*
X149168754Y-101348140D01*
X149095862Y-101211767D01*
X148997764Y-101092236D01*
X148967816Y-101067658D01*
X138102347Y-90202190D01*
X138077764Y-90172236D01*
X137958233Y-90074138D01*
X137821860Y-90001246D01*
X137673887Y-89956359D01*
X137558561Y-89945000D01*
X137558553Y-89945000D01*
X137520000Y-89941203D01*
X137481447Y-89945000D01*
X133141474Y-89945000D01*
X133033475Y-89783368D01*
X132826632Y-89576525D01*
X132652240Y-89460000D01*
X132826632Y-89343475D01*
X133033475Y-89136632D01*
X133141474Y-88975000D01*
X138744843Y-88975000D01*
X150135000Y-100365157D01*
X150135001Y-136704842D01*
X142884843Y-143955000D01*
X139718072Y-143955000D01*
X139718072Y-143890000D01*
X139705812Y-143765518D01*
X139669502Y-143645820D01*
X139610537Y-143535506D01*
X139531185Y-143438815D01*
X139434494Y-143359463D01*
X139324180Y-143300498D01*
X139204482Y-143264188D01*
X139080000Y-143251928D01*
X137380000Y-143251928D01*
X137255518Y-143264188D01*
X137135820Y-143300498D01*
X137025506Y-143359463D01*
X136928815Y-143438815D01*
X136849463Y-143535506D01*
X136790498Y-143645820D01*
X136768487Y-143718380D01*
X136636632Y-143586525D01*
X136475000Y-143478526D01*
X136475000Y-142225157D01*
X137785158Y-140915000D01*
X141349198Y-140915000D01*
X141350713Y-140917267D01*
X141522733Y-141089287D01*
X141725008Y-141224443D01*
X141949764Y-141317540D01*
X142188363Y-141365000D01*
X142431637Y-141365000D01*
X142670236Y-141317540D01*
X142894992Y-141224443D01*
X143097267Y-141089287D01*
X143269287Y-140917267D01*
X143404443Y-140714992D01*
X143497540Y-140490236D01*
X143545000Y-140251637D01*
X143545000Y-140008363D01*
X143497540Y-139769764D01*
X143404443Y-139545008D01*
X143269287Y-139342733D01*
X143097267Y-139170713D01*
X142894992Y-139035557D01*
X142670236Y-138942460D01*
X142431637Y-138895000D01*
X142188363Y-138895000D01*
X141949764Y-138942460D01*
X141725008Y-139035557D01*
X141522733Y-139170713D01*
X141350713Y-139342733D01*
X141349198Y-139345000D01*
X137498552Y-139345000D01*
X137459999Y-139341203D01*
X137421446Y-139345000D01*
X137421439Y-139345000D01*
X137306113Y-139356359D01*
X137158140Y-139401246D01*
X137021767Y-139474138D01*
X136980335Y-139508141D01*
X136932187Y-139547655D01*
X136932184Y-139547658D01*
X136902236Y-139572236D01*
X136877658Y-139602184D01*
X135162190Y-141317653D01*
X135132236Y-141342236D01*
X135034138Y-141461768D01*
X134961246Y-141598141D01*
X134916359Y-141746114D01*
X134905000Y-141861440D01*
X134905000Y-141861447D01*
X134901203Y-141900000D01*
X134905000Y-141938553D01*
X134905001Y-143478526D01*
X134743368Y-143586525D01*
X134536525Y-143793368D01*
X134420000Y-143967760D01*
X134303475Y-143793368D01*
X134096632Y-143586525D01*
X133853411Y-143424010D01*
X133583158Y-143312068D01*
X133296260Y-143255000D01*
X133003740Y-143255000D01*
X132716842Y-143312068D01*
X132446589Y-143424010D01*
X132203368Y-143586525D01*
X131996525Y-143793368D01*
X131834010Y-144036589D01*
X131722068Y-144306842D01*
X131665000Y-144593740D01*
X131665000Y-144886260D01*
X131722068Y-145173158D01*
X131834010Y-145443411D01*
X131996525Y-145686632D01*
X132203368Y-145893475D01*
X132379406Y-146011100D01*
X132149731Y-146182412D01*
X131954822Y-146398645D01*
X131805843Y-146648748D01*
X131708519Y-146923109D01*
X131829186Y-147153000D01*
X133023000Y-147153000D01*
X133023000Y-147133000D01*
X133277000Y-147133000D01*
X133277000Y-147153000D01*
X133297000Y-147153000D01*
X133297000Y-147407000D01*
X133277000Y-147407000D01*
X133277000Y-148600155D01*
X133506890Y-148721476D01*
X133654099Y-148676825D01*
X133916920Y-148551641D01*
X134150269Y-148377588D01*
X134345178Y-148161355D01*
X134414805Y-148044466D01*
X134536525Y-148226632D01*
X134743368Y-148433475D01*
X134905000Y-148541474D01*
X134905000Y-149721447D01*
X134901203Y-149760000D01*
X134905000Y-149798553D01*
X134905000Y-149798560D01*
X134916359Y-149913886D01*
X134961246Y-150061859D01*
X135034138Y-150198232D01*
X135132236Y-150317764D01*
X135162190Y-150342347D01*
X135527649Y-150707805D01*
X135552236Y-150737764D01*
X135671767Y-150835862D01*
X135808140Y-150908754D01*
X135956113Y-150953642D01*
X136031026Y-150961020D01*
X136071439Y-150965000D01*
X136071444Y-150965000D01*
X136110000Y-150968797D01*
X136148556Y-150965000D01*
X141151447Y-150965000D01*
X141190000Y-150968797D01*
X141228553Y-150965000D01*
X141228561Y-150965000D01*
X141343887Y-150953641D01*
X141491860Y-150908754D01*
X141628233Y-150835862D01*
X141747764Y-150737764D01*
X141772347Y-150707810D01*
X143570157Y-148910000D01*
X151631928Y-148910000D01*
X151644188Y-149034482D01*
X151680498Y-149154180D01*
X151739463Y-149264494D01*
X151818815Y-149361185D01*
X151915506Y-149440537D01*
X152025820Y-149499502D01*
X152145518Y-149535812D01*
X152270000Y-149548072D01*
X152834250Y-149545000D01*
X152993000Y-149386250D01*
X152993000Y-148187000D01*
X153247000Y-148187000D01*
X153247000Y-149386250D01*
X153405750Y-149545000D01*
X153970000Y-149548072D01*
X154094482Y-149535812D01*
X154214180Y-149499502D01*
X154324494Y-149440537D01*
X154421185Y-149361185D01*
X154500537Y-149264494D01*
X154559502Y-149154180D01*
X154595812Y-149034482D01*
X154608072Y-148910000D01*
X154605000Y-148345750D01*
X154446250Y-148187000D01*
X153247000Y-148187000D01*
X152993000Y-148187000D01*
X151793750Y-148187000D01*
X151635000Y-148345750D01*
X151631928Y-148910000D01*
X143570157Y-148910000D01*
X145270157Y-147210000D01*
X151631928Y-147210000D01*
X151635000Y-147774250D01*
X151793750Y-147933000D01*
X152993000Y-147933000D01*
X152993000Y-147913000D01*
X153247000Y-147913000D01*
X153247000Y-147933000D01*
X154446250Y-147933000D01*
X154605000Y-147774250D01*
X154608072Y-147210000D01*
X154595812Y-147085518D01*
X154559502Y-146965820D01*
X154500537Y-146855506D01*
X154421185Y-146758815D01*
X154324494Y-146679463D01*
X154214180Y-146620498D01*
X154141620Y-146598487D01*
X154273475Y-146466632D01*
X154435990Y-146223411D01*
X154547932Y-145953158D01*
X154605000Y-145666260D01*
X154605000Y-145373740D01*
X154547932Y-145086842D01*
X154435990Y-144816589D01*
X154273475Y-144573368D01*
X154066632Y-144366525D01*
X153892240Y-144250000D01*
X154066632Y-144133475D01*
X154273475Y-143926632D01*
X154435990Y-143683411D01*
X154547932Y-143413158D01*
X154605000Y-143126260D01*
X154605000Y-142833740D01*
X154547932Y-142546842D01*
X154435990Y-142276589D01*
X154273475Y-142033368D01*
X154066632Y-141826525D01*
X153823411Y-141664010D01*
X153553158Y-141552068D01*
X153266260Y-141495000D01*
X152973740Y-141495000D01*
X152686842Y-141552068D01*
X152416589Y-141664010D01*
X152173368Y-141826525D01*
X151966525Y-142033368D01*
X151804010Y-142276589D01*
X151692068Y-142546842D01*
X151635000Y-142833740D01*
X151635000Y-143126260D01*
X151692068Y-143413158D01*
X151804010Y-143683411D01*
X151966525Y-143926632D01*
X152173368Y-144133475D01*
X152347760Y-144250000D01*
X152173368Y-144366525D01*
X151966525Y-144573368D01*
X151804010Y-144816589D01*
X151692068Y-145086842D01*
X151635000Y-145373740D01*
X151635000Y-145666260D01*
X151692068Y-145953158D01*
X151804010Y-146223411D01*
X151966525Y-146466632D01*
X152098380Y-146598487D01*
X152025820Y-146620498D01*
X151915506Y-146679463D01*
X151818815Y-146758815D01*
X151739463Y-146855506D01*
X151680498Y-146965820D01*
X151644188Y-147085518D01*
X151631928Y-147210000D01*
X145270157Y-147210000D01*
X152187744Y-140292413D01*
X164603146Y-140292413D01*
X164603146Y-140827587D01*
X164707553Y-141352477D01*
X164912355Y-141846913D01*
X165209681Y-142291894D01*
X165588106Y-142670319D01*
X166033087Y-142967645D01*
X166527523Y-143172447D01*
X167052413Y-143276854D01*
X167587587Y-143276854D01*
X168112477Y-143172447D01*
X168606913Y-142967645D01*
X169051894Y-142670319D01*
X169430319Y-142291894D01*
X169727645Y-141846913D01*
X169932447Y-141352477D01*
X170036854Y-140827587D01*
X170036854Y-140292413D01*
X169932447Y-139767523D01*
X169727645Y-139273087D01*
X169430319Y-138828106D01*
X169051894Y-138449681D01*
X168606913Y-138152355D01*
X168112477Y-137947553D01*
X167587587Y-137843146D01*
X167052413Y-137843146D01*
X166527523Y-137947553D01*
X166033087Y-138152355D01*
X165588106Y-138449681D01*
X165209681Y-138828106D01*
X164912355Y-139273087D01*
X164707553Y-139767523D01*
X164603146Y-140292413D01*
X152187744Y-140292413D01*
X153617816Y-138862342D01*
X153647764Y-138837764D01*
X153745862Y-138718233D01*
X153818754Y-138581860D01*
X153858850Y-138449681D01*
X153863641Y-138433888D01*
X153865906Y-138410890D01*
X153875000Y-138318561D01*
X153875000Y-138318554D01*
X153878797Y-138280001D01*
X153875000Y-138241448D01*
X153875000Y-134632413D01*
X183633146Y-134632413D01*
X183633146Y-135167587D01*
X183737553Y-135692477D01*
X183942355Y-136186913D01*
X184239681Y-136631894D01*
X184618106Y-137010319D01*
X185063087Y-137307645D01*
X185557523Y-137512447D01*
X186082413Y-137616854D01*
X186617587Y-137616854D01*
X187142477Y-137512447D01*
X187636913Y-137307645D01*
X188081894Y-137010319D01*
X188460319Y-136631894D01*
X188757645Y-136186913D01*
X188962447Y-135692477D01*
X189066854Y-135167587D01*
X189066854Y-134632413D01*
X188962447Y-134107523D01*
X188757645Y-133613087D01*
X188460319Y-133168106D01*
X188081894Y-132789681D01*
X187636913Y-132492355D01*
X187142477Y-132287553D01*
X186617587Y-132183146D01*
X186082413Y-132183146D01*
X185557523Y-132287553D01*
X185063087Y-132492355D01*
X184618106Y-132789681D01*
X184239681Y-133168106D01*
X183942355Y-133613087D01*
X183737553Y-134107523D01*
X183633146Y-134632413D01*
X153875000Y-134632413D01*
X153875000Y-98738555D01*
X153878797Y-98700000D01*
X153875000Y-98661440D01*
X153875000Y-98661439D01*
X153871020Y-98621026D01*
X153863642Y-98546113D01*
X153818754Y-98398140D01*
X153745862Y-98261767D01*
X153647764Y-98142236D01*
X153617817Y-98117659D01*
X140622347Y-85122190D01*
X140597764Y-85092236D01*
X140478233Y-84994138D01*
X140341860Y-84921246D01*
X140193887Y-84876359D01*
X140078561Y-84865000D01*
X140078553Y-84865000D01*
X140040000Y-84861203D01*
X140001447Y-84865000D01*
X133141474Y-84865000D01*
X133033475Y-84703368D01*
X132826632Y-84496525D01*
X132652240Y-84380000D01*
X132826632Y-84263475D01*
X133033475Y-84056632D01*
X133141474Y-83895000D01*
X141004843Y-83895000D01*
X154815000Y-97705157D01*
X154815001Y-131529198D01*
X154812733Y-131530713D01*
X154640713Y-131702733D01*
X154505557Y-131905008D01*
X154412460Y-132129764D01*
X154365000Y-132368363D01*
X154365000Y-132611637D01*
X154412460Y-132850236D01*
X154505557Y-133074992D01*
X154640713Y-133277267D01*
X154812733Y-133449287D01*
X155015008Y-133584443D01*
X155239764Y-133677540D01*
X155478363Y-133725000D01*
X155721637Y-133725000D01*
X155960236Y-133677540D01*
X156184992Y-133584443D01*
X156387267Y-133449287D01*
X156559287Y-133277267D01*
X156694443Y-133074992D01*
X156787540Y-132850236D01*
X156835000Y-132611637D01*
X156835000Y-132368363D01*
X156787540Y-132129764D01*
X156694443Y-131905008D01*
X156559287Y-131702733D01*
X156387267Y-131530713D01*
X156385000Y-131529198D01*
X156385000Y-105892413D01*
X183633146Y-105892413D01*
X183633146Y-106427587D01*
X183737553Y-106952477D01*
X183942355Y-107446913D01*
X184239681Y-107891894D01*
X184618106Y-108270319D01*
X185063087Y-108567645D01*
X185557523Y-108772447D01*
X186082413Y-108876854D01*
X186617587Y-108876854D01*
X187142477Y-108772447D01*
X187636913Y-108567645D01*
X188081894Y-108270319D01*
X188460319Y-107891894D01*
X188757645Y-107446913D01*
X188962447Y-106952477D01*
X189066854Y-106427587D01*
X189066854Y-105892413D01*
X188962447Y-105367523D01*
X188757645Y-104873087D01*
X188460319Y-104428106D01*
X188081894Y-104049681D01*
X187636913Y-103752355D01*
X187142477Y-103547553D01*
X186617587Y-103443146D01*
X186082413Y-103443146D01*
X185557523Y-103547553D01*
X185063087Y-103752355D01*
X184618106Y-104049681D01*
X184239681Y-104428106D01*
X183942355Y-104873087D01*
X183737553Y-105367523D01*
X183633146Y-105892413D01*
X156385000Y-105892413D01*
X156385000Y-99302413D01*
X165233146Y-99302413D01*
X165233146Y-99837587D01*
X165337553Y-100362477D01*
X165542355Y-100856913D01*
X165839681Y-101301894D01*
X166218106Y-101680319D01*
X166663087Y-101977645D01*
X167157523Y-102182447D01*
X167682413Y-102286854D01*
X168217587Y-102286854D01*
X168742477Y-102182447D01*
X169236913Y-101977645D01*
X169681894Y-101680319D01*
X170060319Y-101301894D01*
X170357645Y-100856913D01*
X170562447Y-100362477D01*
X170666854Y-99837587D01*
X170666854Y-99302413D01*
X170562447Y-98777523D01*
X170357645Y-98283087D01*
X170060319Y-97838106D01*
X169681894Y-97459681D01*
X169236913Y-97162355D01*
X168742477Y-96957553D01*
X168217587Y-96853146D01*
X167682413Y-96853146D01*
X167157523Y-96957553D01*
X166663087Y-97162355D01*
X166218106Y-97459681D01*
X165839681Y-97838106D01*
X165542355Y-98283087D01*
X165337553Y-98777523D01*
X165233146Y-99302413D01*
X156385000Y-99302413D01*
X156385000Y-97418556D01*
X156388797Y-97380000D01*
X156385000Y-97341440D01*
X156385000Y-97341439D01*
X156380426Y-97295000D01*
X156373642Y-97226113D01*
X156328754Y-97078140D01*
X156326274Y-97073500D01*
X156255862Y-96941767D01*
X156157764Y-96822236D01*
X156127811Y-96797654D01*
X141912347Y-82582190D01*
X141887764Y-82552236D01*
X141768233Y-82454138D01*
X141631860Y-82381246D01*
X141483887Y-82336359D01*
X141368561Y-82325000D01*
X141368553Y-82325000D01*
X141330000Y-82321203D01*
X141291447Y-82325000D01*
X133141474Y-82325000D01*
X133033475Y-82163368D01*
X132901620Y-82031513D01*
X132974180Y-82009502D01*
X133084494Y-81950537D01*
X133181185Y-81871185D01*
X133260537Y-81774494D01*
X133319502Y-81664180D01*
X133355812Y-81544482D01*
X133368072Y-81420000D01*
X133368072Y-81355000D01*
X142784843Y-81355000D01*
X158985532Y-97555690D01*
X158985000Y-97558363D01*
X158985000Y-97801637D01*
X159032460Y-98040236D01*
X159125557Y-98264992D01*
X159260713Y-98467267D01*
X159432733Y-98639287D01*
X159635008Y-98774443D01*
X159859764Y-98867540D01*
X160098363Y-98915000D01*
X160341637Y-98915000D01*
X160580236Y-98867540D01*
X160804992Y-98774443D01*
X161007267Y-98639287D01*
X161179287Y-98467267D01*
X161314443Y-98264992D01*
X161407540Y-98040236D01*
X161455000Y-97801637D01*
X161455000Y-97558363D01*
X161407540Y-97319764D01*
X161314443Y-97095008D01*
X161179287Y-96892733D01*
X161007267Y-96720713D01*
X160804992Y-96585557D01*
X160580236Y-96492460D01*
X160341637Y-96445000D01*
X160098363Y-96445000D01*
X160095690Y-96445532D01*
X157734351Y-94084193D01*
X183965000Y-94084193D01*
X183965000Y-94435807D01*
X184033596Y-94780665D01*
X184168153Y-95105515D01*
X184363500Y-95397871D01*
X184612129Y-95646500D01*
X184904485Y-95841847D01*
X185229335Y-95976404D01*
X185574193Y-96045000D01*
X185925807Y-96045000D01*
X186270665Y-95976404D01*
X186595515Y-95841847D01*
X186887871Y-95646500D01*
X187136500Y-95397871D01*
X187331847Y-95105515D01*
X187466404Y-94780665D01*
X187535000Y-94435807D01*
X187535000Y-94084193D01*
X187466404Y-93739335D01*
X187331847Y-93414485D01*
X187136500Y-93122129D01*
X186887871Y-92873500D01*
X186595515Y-92678153D01*
X186270665Y-92543596D01*
X185925807Y-92475000D01*
X185574193Y-92475000D01*
X185229335Y-92543596D01*
X184904485Y-92678153D01*
X184612129Y-92873500D01*
X184363500Y-93122129D01*
X184168153Y-93414485D01*
X184033596Y-93739335D01*
X183965000Y-94084193D01*
X157734351Y-94084193D01*
X152080158Y-88430000D01*
X172381928Y-88430000D01*
X172381928Y-90130000D01*
X172394188Y-90254482D01*
X172430498Y-90374180D01*
X172489463Y-90484494D01*
X172568815Y-90581185D01*
X172665506Y-90660537D01*
X172775820Y-90719502D01*
X172895518Y-90755812D01*
X173020000Y-90768072D01*
X174720000Y-90768072D01*
X174844482Y-90755812D01*
X174964180Y-90719502D01*
X175074494Y-90660537D01*
X175171185Y-90581185D01*
X175250537Y-90484494D01*
X175309502Y-90374180D01*
X175345812Y-90254482D01*
X175358072Y-90130000D01*
X175358072Y-88430000D01*
X175345812Y-88305518D01*
X175309502Y-88185820D01*
X175250537Y-88075506D01*
X175171185Y-87978815D01*
X175074494Y-87899463D01*
X174964180Y-87840498D01*
X174891620Y-87818487D01*
X175023475Y-87686632D01*
X175072280Y-87613589D01*
X179525000Y-87613589D01*
X179525000Y-87886411D01*
X179578225Y-88153989D01*
X179682629Y-88406043D01*
X179834201Y-88632886D01*
X179971315Y-88770000D01*
X179834201Y-88907114D01*
X179682629Y-89133957D01*
X179578225Y-89386011D01*
X179525000Y-89653589D01*
X179525000Y-89926411D01*
X179578225Y-90193989D01*
X179682629Y-90446043D01*
X179834201Y-90672886D01*
X180027114Y-90865799D01*
X180253957Y-91017371D01*
X180506011Y-91121775D01*
X180773589Y-91175000D01*
X181046411Y-91175000D01*
X181313989Y-91121775D01*
X181566043Y-91017371D01*
X181792886Y-90865799D01*
X181985799Y-90672886D01*
X182137371Y-90446043D01*
X182241775Y-90193989D01*
X182295000Y-89926411D01*
X182295000Y-89726993D01*
X182672612Y-89726993D01*
X182738137Y-89965860D01*
X182985116Y-90081760D01*
X183249960Y-90147250D01*
X183522492Y-90159812D01*
X183792238Y-90118965D01*
X184048832Y-90026277D01*
X184161863Y-89965860D01*
X184227388Y-89726993D01*
X183450000Y-88949605D01*
X182672612Y-89726993D01*
X182295000Y-89726993D01*
X182295000Y-89653589D01*
X182261228Y-89483807D01*
X182493007Y-89547388D01*
X183270395Y-88770000D01*
X183256253Y-88755858D01*
X183435858Y-88576253D01*
X183450000Y-88590395D01*
X183464143Y-88576253D01*
X183643748Y-88755858D01*
X183629605Y-88770000D01*
X184406993Y-89547388D01*
X184645860Y-89481863D01*
X184761760Y-89234884D01*
X184827250Y-88970040D01*
X184839812Y-88697508D01*
X184798965Y-88427762D01*
X184706277Y-88171168D01*
X184645860Y-88058137D01*
X184526631Y-88025431D01*
X184554494Y-88010537D01*
X184651185Y-87931185D01*
X184730537Y-87834494D01*
X184789502Y-87724180D01*
X184825812Y-87604482D01*
X184838072Y-87480000D01*
X184838072Y-85980000D01*
X184825812Y-85855518D01*
X184789502Y-85735820D01*
X184730537Y-85625506D01*
X184651185Y-85528815D01*
X184554494Y-85449463D01*
X184444180Y-85390498D01*
X184324482Y-85354188D01*
X184200000Y-85341928D01*
X182700000Y-85341928D01*
X182575518Y-85354188D01*
X182455820Y-85390498D01*
X182345506Y-85449463D01*
X182248815Y-85528815D01*
X182169463Y-85625506D01*
X182110498Y-85735820D01*
X182074188Y-85855518D01*
X182061928Y-85980000D01*
X182061928Y-86981049D01*
X181985799Y-86867114D01*
X181792886Y-86674201D01*
X181566043Y-86522629D01*
X181313989Y-86418225D01*
X181046411Y-86365000D01*
X180773589Y-86365000D01*
X180506011Y-86418225D01*
X180253957Y-86522629D01*
X180027114Y-86674201D01*
X179834201Y-86867114D01*
X179682629Y-87093957D01*
X179578225Y-87346011D01*
X179525000Y-87613589D01*
X175072280Y-87613589D01*
X175185990Y-87443411D01*
X175297932Y-87173158D01*
X175355000Y-86886260D01*
X175355000Y-86593740D01*
X175297932Y-86306842D01*
X175185990Y-86036589D01*
X175023475Y-85793368D01*
X174816632Y-85586525D01*
X174573411Y-85424010D01*
X174303158Y-85312068D01*
X174016260Y-85255000D01*
X173723740Y-85255000D01*
X173436842Y-85312068D01*
X173166589Y-85424010D01*
X172923368Y-85586525D01*
X172716525Y-85793368D01*
X172554010Y-86036589D01*
X172442068Y-86306842D01*
X172385000Y-86593740D01*
X172385000Y-86886260D01*
X172442068Y-87173158D01*
X172554010Y-87443411D01*
X172716525Y-87686632D01*
X172848380Y-87818487D01*
X172775820Y-87840498D01*
X172665506Y-87899463D01*
X172568815Y-87978815D01*
X172489463Y-88075506D01*
X172430498Y-88185820D01*
X172394188Y-88305518D01*
X172381928Y-88430000D01*
X152080158Y-88430000D01*
X145734351Y-82084193D01*
X183965000Y-82084193D01*
X183965000Y-82435807D01*
X184033596Y-82780665D01*
X184168153Y-83105515D01*
X184363500Y-83397871D01*
X184612129Y-83646500D01*
X184904485Y-83841847D01*
X185229335Y-83976404D01*
X185574193Y-84045000D01*
X185925807Y-84045000D01*
X186270665Y-83976404D01*
X186595515Y-83841847D01*
X186887871Y-83646500D01*
X187136500Y-83397871D01*
X187331847Y-83105515D01*
X187466404Y-82780665D01*
X187535000Y-82435807D01*
X187535000Y-82084193D01*
X187466404Y-81739335D01*
X187331847Y-81414485D01*
X187136500Y-81122129D01*
X186887871Y-80873500D01*
X186595515Y-80678153D01*
X186270665Y-80543596D01*
X185925807Y-80475000D01*
X185574193Y-80475000D01*
X185229335Y-80543596D01*
X184904485Y-80678153D01*
X184612129Y-80873500D01*
X184363500Y-81122129D01*
X184168153Y-81414485D01*
X184033596Y-81739335D01*
X183965000Y-82084193D01*
X145734351Y-82084193D01*
X143692347Y-80042190D01*
X143667764Y-80012236D01*
X143548233Y-79914138D01*
X143411860Y-79841246D01*
X143263887Y-79796359D01*
X143148561Y-79785000D01*
X143148553Y-79785000D01*
X143110000Y-79781203D01*
X143071447Y-79785000D01*
X133368072Y-79785000D01*
X133368072Y-79720000D01*
X133355812Y-79595518D01*
X133319502Y-79475820D01*
X133260537Y-79365506D01*
X133181185Y-79268815D01*
X133084494Y-79189463D01*
X132974180Y-79130498D01*
X132854482Y-79094188D01*
X132730000Y-79081928D01*
X131030000Y-79081928D01*
X130905518Y-79094188D01*
X130785820Y-79130498D01*
X130675506Y-79189463D01*
X130578815Y-79268815D01*
X130499463Y-79365506D01*
X130440498Y-79475820D01*
X130404188Y-79595518D01*
X130391928Y-79720000D01*
X130391928Y-81420000D01*
X130404188Y-81544482D01*
X130440498Y-81664180D01*
X130499463Y-81774494D01*
X130578815Y-81871185D01*
X130675506Y-81950537D01*
X130785820Y-82009502D01*
X130858380Y-82031513D01*
X130726525Y-82163368D01*
X130564010Y-82406589D01*
X130452068Y-82676842D01*
X130395000Y-82963740D01*
X130395000Y-83256260D01*
X130452068Y-83543158D01*
X130564010Y-83813411D01*
X130726525Y-84056632D01*
X130933368Y-84263475D01*
X131107760Y-84380000D01*
X130933368Y-84496525D01*
X130726525Y-84703368D01*
X130564010Y-84946589D01*
X130452068Y-85216842D01*
X130395000Y-85503740D01*
X130395000Y-85796260D01*
X130452068Y-86083158D01*
X130564010Y-86353411D01*
X130726525Y-86596632D01*
X130933368Y-86803475D01*
X131107760Y-86920000D01*
X130933368Y-87036525D01*
X130726525Y-87243368D01*
X130564010Y-87486589D01*
X130452068Y-87756842D01*
X130395000Y-88043740D01*
X130395000Y-88336260D01*
X130452068Y-88623158D01*
X130564010Y-88893411D01*
X130726525Y-89136632D01*
X130933368Y-89343475D01*
X131107760Y-89460000D01*
X130933368Y-89576525D01*
X130726525Y-89783368D01*
X130564010Y-90026589D01*
X130452068Y-90296842D01*
X130395000Y-90583740D01*
X130395000Y-90876260D01*
X130452068Y-91163158D01*
X130564010Y-91433411D01*
X130726525Y-91676632D01*
X130933368Y-91883475D01*
X131115534Y-92005195D01*
X130998645Y-92074822D01*
X130782412Y-92269731D01*
X130608359Y-92503080D01*
X130483175Y-92765901D01*
X130438524Y-92913110D01*
X130559845Y-93143000D01*
X131753000Y-93143000D01*
X131753000Y-93123000D01*
X132007000Y-93123000D01*
X132007000Y-93143000D01*
X133200155Y-93143000D01*
X133321476Y-92913110D01*
X133276825Y-92765901D01*
X133151641Y-92503080D01*
X132977588Y-92269731D01*
X132761355Y-92074822D01*
X132644466Y-92005195D01*
X132826632Y-91883475D01*
X133033475Y-91676632D01*
X133141474Y-91515000D01*
X137194843Y-91515000D01*
X146061545Y-100381703D01*
X145870236Y-100302460D01*
X145631637Y-100255000D01*
X145388363Y-100255000D01*
X145149764Y-100302460D01*
X144925008Y-100395557D01*
X144722733Y-100530713D01*
X144550713Y-100702733D01*
X144415557Y-100905008D01*
X144322460Y-101129764D01*
X144275000Y-101368363D01*
X144275000Y-101611637D01*
X144322460Y-101850236D01*
X144415557Y-102074992D01*
X144550713Y-102277267D01*
X144722733Y-102449287D01*
X144725001Y-102450802D01*
X144725000Y-115084842D01*
X139354843Y-120455000D01*
X138194577Y-120455000D01*
X138227764Y-120427764D01*
X138252347Y-120397810D01*
X141065689Y-117584468D01*
X141068363Y-117585000D01*
X141311637Y-117585000D01*
X141550236Y-117537540D01*
X141774992Y-117444443D01*
X141977267Y-117309287D01*
X142149287Y-117137267D01*
X142284443Y-116934992D01*
X142377540Y-116710236D01*
X142425000Y-116471637D01*
X142425000Y-116228363D01*
X142377540Y-115989764D01*
X142284443Y-115765008D01*
X142149287Y-115562733D01*
X141977267Y-115390713D01*
X141774992Y-115255557D01*
X141550236Y-115162460D01*
X141311637Y-115115000D01*
X141068363Y-115115000D01*
X140829764Y-115162460D01*
X140605008Y-115255557D01*
X140402733Y-115390713D01*
X140230713Y-115562733D01*
X140095557Y-115765008D01*
X140002460Y-115989764D01*
X139955000Y-116228363D01*
X139955000Y-116471637D01*
X139955532Y-116474311D01*
X137344843Y-119085000D01*
X134595157Y-119085000D01*
X133234468Y-117724311D01*
X133235000Y-117721637D01*
X133235000Y-117478363D01*
X133187540Y-117239764D01*
X133094443Y-117015008D01*
X132959287Y-116812733D01*
X132787267Y-116640713D01*
X132584992Y-116505557D01*
X132360236Y-116412460D01*
X132121637Y-116365000D01*
X131878363Y-116365000D01*
X131639764Y-116412460D01*
X131415008Y-116505557D01*
X131212733Y-116640713D01*
X131040713Y-116812733D01*
X130905557Y-117015008D01*
X130812460Y-117239764D01*
X130765000Y-117478363D01*
X130765000Y-117721637D01*
X130812460Y-117960236D01*
X130905557Y-118184992D01*
X131040713Y-118387267D01*
X131212733Y-118559287D01*
X131415008Y-118694443D01*
X131639764Y-118787540D01*
X131878363Y-118835000D01*
X132121637Y-118835000D01*
X132124311Y-118834468D01*
X133687653Y-120397810D01*
X133712236Y-120427764D01*
X133745423Y-120455000D01*
X131280802Y-120455000D01*
X131279287Y-120452733D01*
X131107267Y-120280713D01*
X130904992Y-120145557D01*
X130680236Y-120052460D01*
X130441637Y-120005000D01*
X130198363Y-120005000D01*
X129959764Y-120052460D01*
X129735008Y-120145557D01*
X129532733Y-120280713D01*
X129360713Y-120452733D01*
X129225557Y-120655008D01*
X129132460Y-120879764D01*
X129085000Y-121118363D01*
X129085000Y-121361637D01*
X129132460Y-121600236D01*
X129225557Y-121824992D01*
X129360713Y-122027267D01*
X129532733Y-122199287D01*
X129735008Y-122334443D01*
X129959764Y-122427540D01*
X130198363Y-122475000D01*
X130441637Y-122475000D01*
X130680236Y-122427540D01*
X130904992Y-122334443D01*
X131107267Y-122199287D01*
X131279287Y-122027267D01*
X131280802Y-122025000D01*
X136524843Y-122025000D01*
X127524843Y-131025000D01*
X126080802Y-131025000D01*
X126079287Y-131022733D01*
X125907267Y-130850713D01*
X125704992Y-130715557D01*
X125480236Y-130622460D01*
X125241637Y-130575000D01*
X124998363Y-130575000D01*
X124759764Y-130622460D01*
X124535008Y-130715557D01*
X124332733Y-130850713D01*
X124160713Y-131022733D01*
X124025557Y-131225008D01*
X123932460Y-131449764D01*
X123885000Y-131688363D01*
X123885000Y-131931637D01*
X123932460Y-132170236D01*
X124025557Y-132394992D01*
X124160713Y-132597267D01*
X124332733Y-132769287D01*
X124535008Y-132904443D01*
X124759764Y-132997540D01*
X124998363Y-133045000D01*
X125241637Y-133045000D01*
X125480236Y-132997540D01*
X125704992Y-132904443D01*
X125907267Y-132769287D01*
X126079287Y-132597267D01*
X126080802Y-132595000D01*
X127811447Y-132595000D01*
X127850000Y-132598797D01*
X127888553Y-132595000D01*
X127888561Y-132595000D01*
X128003887Y-132583641D01*
X128150753Y-132539090D01*
X126904843Y-133785000D01*
X126470802Y-133785000D01*
X126469287Y-133782733D01*
X126297267Y-133610713D01*
X126094992Y-133475557D01*
X125870236Y-133382460D01*
X125631637Y-133335000D01*
X125388363Y-133335000D01*
X125149764Y-133382460D01*
X124925008Y-133475557D01*
X124722733Y-133610713D01*
X124550713Y-133782733D01*
X124415557Y-133985008D01*
X124322460Y-134209764D01*
X124275000Y-134448363D01*
X124275000Y-134691637D01*
X124322460Y-134930236D01*
X124415557Y-135154992D01*
X124550713Y-135357267D01*
X124722733Y-135529287D01*
X124925008Y-135664443D01*
X125149764Y-135757540D01*
X125388363Y-135805000D01*
X125631637Y-135805000D01*
X125870236Y-135757540D01*
X126094992Y-135664443D01*
X126297267Y-135529287D01*
X126469287Y-135357267D01*
X126470802Y-135355000D01*
X127191447Y-135355000D01*
X127230000Y-135358797D01*
X127268553Y-135355000D01*
X127268561Y-135355000D01*
X127383887Y-135343641D01*
X127531860Y-135298754D01*
X127668233Y-135225862D01*
X127787764Y-135127764D01*
X127812347Y-135097810D01*
X135427817Y-127482341D01*
X135457764Y-127457764D01*
X135555862Y-127338233D01*
X135560384Y-127329773D01*
X137675690Y-125214468D01*
X137678363Y-125215000D01*
X137921637Y-125215000D01*
X138160236Y-125167540D01*
X138384992Y-125074443D01*
X138567039Y-124952803D01*
X127224843Y-136295000D01*
X126720802Y-136295000D01*
X126719287Y-136292733D01*
X126547267Y-136120713D01*
X126344992Y-135985557D01*
X126120236Y-135892460D01*
X125881637Y-135845000D01*
X125638363Y-135845000D01*
X125399764Y-135892460D01*
X125175008Y-135985557D01*
X124972733Y-136120713D01*
X124800713Y-136292733D01*
X124665557Y-136495008D01*
X124572460Y-136719764D01*
X124548968Y-136837868D01*
X124541680Y-136820273D01*
X124384637Y-136585241D01*
X124184759Y-136385363D01*
X124055000Y-136298661D01*
X124055000Y-135578552D01*
X124058797Y-135539999D01*
X124055000Y-135501446D01*
X124055000Y-135501439D01*
X124043641Y-135386113D01*
X123998754Y-135238140D01*
X123925862Y-135101767D01*
X123876450Y-135041559D01*
X123852345Y-135012187D01*
X123852342Y-135012184D01*
X123827764Y-134982236D01*
X123797816Y-134957658D01*
X118135000Y-129294843D01*
X118135000Y-119858363D01*
X122245000Y-119858363D01*
X122245000Y-120101637D01*
X122292460Y-120340236D01*
X122385557Y-120564992D01*
X122520713Y-120767267D01*
X122692733Y-120939287D01*
X122895008Y-121074443D01*
X123119764Y-121167540D01*
X123358363Y-121215000D01*
X123601637Y-121215000D01*
X123604311Y-121214468D01*
X124035000Y-121645158D01*
X124035001Y-126841437D01*
X124031203Y-126880000D01*
X124046359Y-127033886D01*
X124091246Y-127181859D01*
X124101937Y-127201860D01*
X124164139Y-127318233D01*
X124180552Y-127338232D01*
X124237655Y-127407812D01*
X124237659Y-127407816D01*
X124262237Y-127437764D01*
X124292185Y-127462342D01*
X124725532Y-127895689D01*
X124725000Y-127898363D01*
X124725000Y-128141637D01*
X124772460Y-128380236D01*
X124865557Y-128604992D01*
X125000713Y-128807267D01*
X125172733Y-128979287D01*
X125375008Y-129114443D01*
X125599764Y-129207540D01*
X125838363Y-129255000D01*
X126081637Y-129255000D01*
X126320236Y-129207540D01*
X126544992Y-129114443D01*
X126747267Y-128979287D01*
X126919287Y-128807267D01*
X127054443Y-128604992D01*
X127147540Y-128380236D01*
X127195000Y-128141637D01*
X127195000Y-127898363D01*
X127147540Y-127659764D01*
X127054443Y-127435008D01*
X126919287Y-127232733D01*
X126747267Y-127060713D01*
X126544992Y-126925557D01*
X126320236Y-126832460D01*
X126081637Y-126785000D01*
X125838363Y-126785000D01*
X125835689Y-126785532D01*
X125605000Y-126554843D01*
X125605000Y-121358552D01*
X125608797Y-121319999D01*
X125605000Y-121281446D01*
X125605000Y-121281439D01*
X125593641Y-121166113D01*
X125570175Y-121088754D01*
X125548754Y-121018140D01*
X125547536Y-121015862D01*
X125475862Y-120881767D01*
X125410207Y-120801767D01*
X125402345Y-120792187D01*
X125402342Y-120792184D01*
X125377764Y-120762236D01*
X125347817Y-120737659D01*
X124714468Y-120104311D01*
X124715000Y-120101637D01*
X124715000Y-119858363D01*
X124667540Y-119619764D01*
X124574443Y-119395008D01*
X124439287Y-119192733D01*
X124267267Y-119020713D01*
X124064992Y-118885557D01*
X123840236Y-118792460D01*
X123601637Y-118745000D01*
X123358363Y-118745000D01*
X123119764Y-118792460D01*
X122895008Y-118885557D01*
X122692733Y-119020713D01*
X122520713Y-119192733D01*
X122385557Y-119395008D01*
X122292460Y-119619764D01*
X122245000Y-119858363D01*
X118135000Y-119858363D01*
X118135000Y-116620802D01*
X118137267Y-116619287D01*
X118309287Y-116447267D01*
X118444443Y-116244992D01*
X118537540Y-116020236D01*
X118560712Y-115903740D01*
X134225000Y-115903740D01*
X134225000Y-116196260D01*
X134282068Y-116483158D01*
X134394010Y-116753411D01*
X134556525Y-116996632D01*
X134763368Y-117203475D01*
X135006589Y-117365990D01*
X135276842Y-117477932D01*
X135563740Y-117535000D01*
X135856260Y-117535000D01*
X136143158Y-117477932D01*
X136413411Y-117365990D01*
X136656632Y-117203475D01*
X136863475Y-116996632D01*
X137025990Y-116753411D01*
X137137932Y-116483158D01*
X137195000Y-116196260D01*
X137195000Y-115903740D01*
X137137932Y-115616842D01*
X137025990Y-115346589D01*
X136863475Y-115103368D01*
X136656632Y-114896525D01*
X136474466Y-114774805D01*
X136591355Y-114705178D01*
X136807588Y-114510269D01*
X136981641Y-114276920D01*
X137106825Y-114014099D01*
X137151476Y-113866890D01*
X137030155Y-113637000D01*
X135837000Y-113637000D01*
X135837000Y-113657000D01*
X135583000Y-113657000D01*
X135583000Y-113637000D01*
X134389845Y-113637000D01*
X134268524Y-113866890D01*
X134313175Y-114014099D01*
X134438359Y-114276920D01*
X134612412Y-114510269D01*
X134828645Y-114705178D01*
X134945534Y-114774805D01*
X134763368Y-114896525D01*
X134556525Y-115103368D01*
X134394010Y-115346589D01*
X134282068Y-115616842D01*
X134225000Y-115903740D01*
X118560712Y-115903740D01*
X118585000Y-115781637D01*
X118585000Y-115538363D01*
X118537540Y-115299764D01*
X118444443Y-115075008D01*
X118309287Y-114872733D01*
X118137267Y-114700713D01*
X117934992Y-114565557D01*
X117710236Y-114472460D01*
X117471637Y-114425000D01*
X117228363Y-114425000D01*
X116989764Y-114472460D01*
X116765008Y-114565557D01*
X116562733Y-114700713D01*
X116390713Y-114872733D01*
X116255557Y-115075008D01*
X116162460Y-115299764D01*
X116115000Y-115538363D01*
X116115000Y-115781637D01*
X116149174Y-115953441D01*
X116050236Y-115912460D01*
X115811637Y-115865000D01*
X115568363Y-115865000D01*
X115329764Y-115912460D01*
X115105008Y-116005557D01*
X114902733Y-116140713D01*
X114730713Y-116312733D01*
X114595557Y-116515008D01*
X114502460Y-116739764D01*
X114455000Y-116978363D01*
X114455000Y-117221637D01*
X114455532Y-117224310D01*
X110042185Y-121637658D01*
X110012237Y-121662236D01*
X109987659Y-121692184D01*
X109987655Y-121692188D01*
X109954690Y-121732356D01*
X109914139Y-121781767D01*
X109905589Y-121797764D01*
X109841246Y-121918141D01*
X109796359Y-122066114D01*
X109781203Y-122220000D01*
X109785001Y-122258563D01*
X109785000Y-136298661D01*
X109655241Y-136385363D01*
X109455363Y-136585241D01*
X109298320Y-136820273D01*
X109190147Y-137081426D01*
X109135000Y-137358665D01*
X107085000Y-137358665D01*
X107085000Y-114535157D01*
X110280157Y-111340000D01*
X115981928Y-111340000D01*
X115981928Y-113040000D01*
X115994188Y-113164482D01*
X116030498Y-113284180D01*
X116089463Y-113394494D01*
X116168815Y-113491185D01*
X116265506Y-113570537D01*
X116375820Y-113629502D01*
X116495518Y-113665812D01*
X116620000Y-113678072D01*
X118320000Y-113678072D01*
X118444482Y-113665812D01*
X118564180Y-113629502D01*
X118674494Y-113570537D01*
X118771185Y-113491185D01*
X118850537Y-113394494D01*
X118909502Y-113284180D01*
X118931513Y-113211620D01*
X119063368Y-113343475D01*
X119306589Y-113505990D01*
X119576842Y-113617932D01*
X119863740Y-113675000D01*
X120156260Y-113675000D01*
X120443158Y-113617932D01*
X120713411Y-113505990D01*
X120956632Y-113343475D01*
X121163475Y-113136632D01*
X121325990Y-112893411D01*
X121437932Y-112623158D01*
X121495000Y-112336260D01*
X121495000Y-112043740D01*
X121437932Y-111756842D01*
X121325990Y-111486589D01*
X121163475Y-111243368D01*
X120956632Y-111036525D01*
X120713411Y-110874010D01*
X120443158Y-110762068D01*
X120156260Y-110705000D01*
X119863740Y-110705000D01*
X119576842Y-110762068D01*
X119306589Y-110874010D01*
X119063368Y-111036525D01*
X118931513Y-111168380D01*
X118909502Y-111095820D01*
X118850537Y-110985506D01*
X118771185Y-110888815D01*
X118674494Y-110809463D01*
X118564180Y-110750498D01*
X118444482Y-110714188D01*
X118320000Y-110701928D01*
X116620000Y-110701928D01*
X116495518Y-110714188D01*
X116375820Y-110750498D01*
X116265506Y-110809463D01*
X116168815Y-110888815D01*
X116089463Y-110985506D01*
X116030498Y-111095820D01*
X115994188Y-111215518D01*
X115981928Y-111340000D01*
X110280157Y-111340000D01*
X110707811Y-110912346D01*
X110737764Y-110887764D01*
X110835862Y-110768233D01*
X110908754Y-110631860D01*
X110908754Y-110631859D01*
X110953642Y-110483887D01*
X110961020Y-110408974D01*
X110965000Y-110368561D01*
X110965000Y-110368556D01*
X110968797Y-110330000D01*
X110965000Y-110291444D01*
X110965000Y-110120000D01*
X134221928Y-110120000D01*
X134221928Y-111820000D01*
X134234188Y-111944482D01*
X134270498Y-112064180D01*
X134329463Y-112174494D01*
X134408815Y-112271185D01*
X134505506Y-112350537D01*
X134615820Y-112409502D01*
X134696466Y-112433966D01*
X134612412Y-112509731D01*
X134438359Y-112743080D01*
X134313175Y-113005901D01*
X134268524Y-113153110D01*
X134389845Y-113383000D01*
X135583000Y-113383000D01*
X135583000Y-113363000D01*
X135837000Y-113363000D01*
X135837000Y-113383000D01*
X137030155Y-113383000D01*
X137151476Y-113153110D01*
X137106825Y-113005901D01*
X136981641Y-112743080D01*
X136807588Y-112509731D01*
X136723534Y-112433966D01*
X136804180Y-112409502D01*
X136914494Y-112350537D01*
X137011185Y-112271185D01*
X137090537Y-112174494D01*
X137149502Y-112064180D01*
X137185812Y-111944482D01*
X137198072Y-111820000D01*
X137198072Y-110120000D01*
X137185812Y-109995518D01*
X137149502Y-109875820D01*
X137090537Y-109765506D01*
X137011185Y-109668815D01*
X136914494Y-109589463D01*
X136804180Y-109530498D01*
X136684482Y-109494188D01*
X136560000Y-109481928D01*
X134860000Y-109481928D01*
X134735518Y-109494188D01*
X134615820Y-109530498D01*
X134505506Y-109589463D01*
X134408815Y-109668815D01*
X134329463Y-109765506D01*
X134270498Y-109875820D01*
X134234188Y-109995518D01*
X134221928Y-110120000D01*
X110965000Y-110120000D01*
X110965000Y-108898072D01*
X110980000Y-108898072D01*
X111104482Y-108885812D01*
X111224180Y-108849502D01*
X111334494Y-108790537D01*
X111431185Y-108711185D01*
X111510537Y-108614494D01*
X111569502Y-108504180D01*
X111585117Y-108452702D01*
X111866903Y-108452702D01*
X111938486Y-108696671D01*
X112193996Y-108817571D01*
X112468184Y-108886300D01*
X112750512Y-108900217D01*
X113030130Y-108858787D01*
X113296292Y-108763603D01*
X113421514Y-108696671D01*
X113493097Y-108452702D01*
X112680000Y-107639605D01*
X111866903Y-108452702D01*
X111585117Y-108452702D01*
X111605812Y-108384482D01*
X111618072Y-108260000D01*
X111618072Y-108252785D01*
X111687298Y-108273097D01*
X112500395Y-107460000D01*
X112859605Y-107460000D01*
X113672702Y-108273097D01*
X113916671Y-108201514D01*
X114037571Y-107946004D01*
X114106300Y-107671816D01*
X114120217Y-107389488D01*
X114078787Y-107109870D01*
X113983603Y-106843708D01*
X113916671Y-106718486D01*
X113672702Y-106646903D01*
X112859605Y-107460000D01*
X112500395Y-107460000D01*
X111687298Y-106646903D01*
X111618072Y-106667215D01*
X111618072Y-106660000D01*
X111605812Y-106535518D01*
X111585118Y-106467298D01*
X111866903Y-106467298D01*
X112680000Y-107280395D01*
X113493097Y-106467298D01*
X113421514Y-106223329D01*
X113166004Y-106102429D01*
X112891816Y-106033700D01*
X112609488Y-106019783D01*
X112329870Y-106061213D01*
X112063708Y-106156397D01*
X111938486Y-106223329D01*
X111866903Y-106467298D01*
X111585118Y-106467298D01*
X111569502Y-106415820D01*
X111510537Y-106305506D01*
X111431185Y-106208815D01*
X111334494Y-106129463D01*
X111224180Y-106070498D01*
X111104482Y-106034188D01*
X110980000Y-106021928D01*
X109380000Y-106021928D01*
X109255518Y-106034188D01*
X109135820Y-106070498D01*
X109025506Y-106129463D01*
X108928815Y-106208815D01*
X108849463Y-106305506D01*
X108790498Y-106415820D01*
X108754188Y-106535518D01*
X108741928Y-106660000D01*
X108741928Y-108260000D01*
X108754188Y-108384482D01*
X108790498Y-108504180D01*
X108849463Y-108614494D01*
X108928815Y-108711185D01*
X109025506Y-108790537D01*
X109135820Y-108849502D01*
X109255518Y-108885812D01*
X109380000Y-108898072D01*
X109395000Y-108898072D01*
X109395000Y-110004843D01*
X105772185Y-113627658D01*
X105742237Y-113652236D01*
X105717659Y-113682184D01*
X105717655Y-113682188D01*
X105684690Y-113722356D01*
X105644139Y-113771767D01*
X105605177Y-113844660D01*
X105571246Y-113908141D01*
X105526359Y-114056114D01*
X105511203Y-114210000D01*
X103240000Y-114210000D01*
X103240000Y-105892413D01*
X138913146Y-105892413D01*
X138913146Y-106427587D01*
X139017553Y-106952477D01*
X139222355Y-107446913D01*
X139519681Y-107891894D01*
X139898106Y-108270319D01*
X140343087Y-108567645D01*
X140837523Y-108772447D01*
X141362413Y-108876854D01*
X141897587Y-108876854D01*
X142422477Y-108772447D01*
X142916913Y-108567645D01*
X143361894Y-108270319D01*
X143740319Y-107891894D01*
X144037645Y-107446913D01*
X144242447Y-106952477D01*
X144346854Y-106427587D01*
X144346854Y-105892413D01*
X144242447Y-105367523D01*
X144037645Y-104873087D01*
X143740319Y-104428106D01*
X143361894Y-104049681D01*
X142916913Y-103752355D01*
X142422477Y-103547553D01*
X141897587Y-103443146D01*
X141362413Y-103443146D01*
X140837523Y-103547553D01*
X140343087Y-103752355D01*
X139898106Y-104049681D01*
X139519681Y-104428106D01*
X139222355Y-104873087D01*
X139017553Y-105367523D01*
X138913146Y-105892413D01*
X103240000Y-105892413D01*
X103240000Y-98284193D01*
X104555000Y-98284193D01*
X104555000Y-98635807D01*
X104623596Y-98980665D01*
X104758153Y-99305515D01*
X104953500Y-99597871D01*
X105202129Y-99846500D01*
X105494485Y-100041847D01*
X105819335Y-100176404D01*
X106164193Y-100245000D01*
X106515807Y-100245000D01*
X106860665Y-100176404D01*
X107185515Y-100041847D01*
X107477871Y-99846500D01*
X107622022Y-99702349D01*
X120677256Y-99702349D01*
X120791118Y-99982090D01*
X121106296Y-100137961D01*
X121445826Y-100229349D01*
X121796661Y-100252741D01*
X122145319Y-100207240D01*
X122478400Y-100094594D01*
X122688882Y-99982090D01*
X122802744Y-99702349D01*
X121740000Y-98639605D01*
X120677256Y-99702349D01*
X107622022Y-99702349D01*
X107726500Y-99597871D01*
X107921847Y-99305515D01*
X108056404Y-98980665D01*
X108125000Y-98635807D01*
X108125000Y-98516661D01*
X119947259Y-98516661D01*
X119992760Y-98865319D01*
X120105406Y-99198400D01*
X120217910Y-99408882D01*
X120497651Y-99522744D01*
X121560395Y-98460000D01*
X121919605Y-98460000D01*
X122982349Y-99522744D01*
X123262090Y-99408882D01*
X123314744Y-99302413D01*
X129223146Y-99302413D01*
X129223146Y-99837587D01*
X129327553Y-100362477D01*
X129532355Y-100856913D01*
X129829681Y-101301894D01*
X130208106Y-101680319D01*
X130653087Y-101977645D01*
X131147523Y-102182447D01*
X131672413Y-102286854D01*
X132207587Y-102286854D01*
X132732477Y-102182447D01*
X133226913Y-101977645D01*
X133671894Y-101680319D01*
X134050319Y-101301894D01*
X134347645Y-100856913D01*
X134552447Y-100362477D01*
X134656854Y-99837587D01*
X134656854Y-99302413D01*
X134552447Y-98777523D01*
X134347645Y-98283087D01*
X134050319Y-97838106D01*
X133671894Y-97459681D01*
X133226913Y-97162355D01*
X132796072Y-96983895D01*
X132826632Y-96963475D01*
X133033475Y-96756632D01*
X133195990Y-96513411D01*
X133307932Y-96243158D01*
X133365000Y-95956260D01*
X133365000Y-95663740D01*
X133307932Y-95376842D01*
X133195990Y-95106589D01*
X133033475Y-94863368D01*
X132826632Y-94656525D01*
X132644466Y-94534805D01*
X132761355Y-94465178D01*
X132977588Y-94270269D01*
X133151641Y-94036920D01*
X133276825Y-93774099D01*
X133321476Y-93626890D01*
X133200155Y-93397000D01*
X132007000Y-93397000D01*
X132007000Y-93417000D01*
X131753000Y-93417000D01*
X131753000Y-93397000D01*
X130559845Y-93397000D01*
X130438524Y-93626890D01*
X130483175Y-93774099D01*
X130608359Y-94036920D01*
X130782412Y-94270269D01*
X130998645Y-94465178D01*
X131115534Y-94534805D01*
X130933368Y-94656525D01*
X130726525Y-94863368D01*
X130564010Y-95106589D01*
X130452068Y-95376842D01*
X130395000Y-95663740D01*
X130395000Y-95956260D01*
X130452068Y-96243158D01*
X130564010Y-96513411D01*
X130726525Y-96756632D01*
X130933368Y-96963475D01*
X131009850Y-97014579D01*
X130653087Y-97162355D01*
X130208106Y-97459681D01*
X129829681Y-97838106D01*
X129532355Y-98283087D01*
X129327553Y-98777523D01*
X129223146Y-99302413D01*
X123314744Y-99302413D01*
X123417961Y-99093704D01*
X123509349Y-98754174D01*
X123532741Y-98403339D01*
X123487240Y-98054681D01*
X123374594Y-97721600D01*
X123262090Y-97511118D01*
X122982349Y-97397256D01*
X121919605Y-98460000D01*
X121560395Y-98460000D01*
X120497651Y-97397256D01*
X120217910Y-97511118D01*
X120062039Y-97826296D01*
X119970651Y-98165826D01*
X119947259Y-98516661D01*
X108125000Y-98516661D01*
X108125000Y-98284193D01*
X108056404Y-97939335D01*
X107921847Y-97614485D01*
X107726500Y-97322129D01*
X107622022Y-97217651D01*
X120677256Y-97217651D01*
X121740000Y-98280395D01*
X122802744Y-97217651D01*
X122688882Y-96937910D01*
X122373704Y-96782039D01*
X122034174Y-96690651D01*
X121683339Y-96667259D01*
X121334681Y-96712760D01*
X121001600Y-96825406D01*
X120791118Y-96937910D01*
X120677256Y-97217651D01*
X107622022Y-97217651D01*
X107477871Y-97073500D01*
X107185515Y-96878153D01*
X106860665Y-96743596D01*
X106515807Y-96675000D01*
X106164193Y-96675000D01*
X105819335Y-96743596D01*
X105494485Y-96878153D01*
X105202129Y-97073500D01*
X104953500Y-97322129D01*
X104758153Y-97614485D01*
X104623596Y-97939335D01*
X104555000Y-98284193D01*
X103240000Y-98284193D01*
X103240000Y-78337000D01*
X130442596Y-78337000D01*
X130653087Y-78477645D01*
X131147523Y-78682447D01*
X131672413Y-78786854D01*
X132207587Y-78786854D01*
X132732477Y-78682447D01*
X133226913Y-78477645D01*
X133437404Y-78337000D01*
X138630000Y-78337000D01*
X138654776Y-78334560D01*
X138678601Y-78327333D01*
X138700557Y-78315597D01*
X138719803Y-78299803D01*
X138735597Y-78280557D01*
X138747333Y-78258601D01*
X138754560Y-78234776D01*
X138757000Y-78210000D01*
X138757000Y-75802413D01*
X165233146Y-75802413D01*
X165233146Y-76337587D01*
X165337553Y-76862477D01*
X165542355Y-77356913D01*
X165839681Y-77801894D01*
X166218106Y-78180319D01*
X166663087Y-78477645D01*
X167157523Y-78682447D01*
X167682413Y-78786854D01*
X168217587Y-78786854D01*
X168742477Y-78682447D01*
X169236913Y-78477645D01*
X169681894Y-78180319D01*
X170060319Y-77801894D01*
X170357645Y-77356913D01*
X170562447Y-76862477D01*
X170666854Y-76337587D01*
X170666854Y-75802413D01*
X170562447Y-75277523D01*
X170357645Y-74783087D01*
X170060319Y-74338106D01*
X169681894Y-73959681D01*
X169236913Y-73662355D01*
X168742477Y-73457553D01*
X168217587Y-73353146D01*
X167682413Y-73353146D01*
X167157523Y-73457553D01*
X166663087Y-73662355D01*
X166218106Y-73959681D01*
X165839681Y-74338106D01*
X165542355Y-74783087D01*
X165337553Y-75277523D01*
X165233146Y-75802413D01*
X138757000Y-75802413D01*
X138757000Y-70851422D01*
X178090738Y-70851422D01*
X178090738Y-71288578D01*
X178176023Y-71717335D01*
X178343316Y-72121215D01*
X178586187Y-72484697D01*
X178895303Y-72793813D01*
X179258785Y-73036684D01*
X179662665Y-73203977D01*
X180091422Y-73289262D01*
X180528578Y-73289262D01*
X180957335Y-73203977D01*
X181361215Y-73036684D01*
X181724697Y-72793813D01*
X182033813Y-72484697D01*
X182276684Y-72121215D01*
X182443977Y-71717335D01*
X182529262Y-71288578D01*
X182529262Y-70851422D01*
X182443977Y-70422665D01*
X182276684Y-70018785D01*
X182033813Y-69655303D01*
X181724697Y-69346187D01*
X181361215Y-69103316D01*
X180957335Y-68936023D01*
X180528578Y-68850738D01*
X180091422Y-68850738D01*
X179662665Y-68936023D01*
X179258785Y-69103316D01*
X178895303Y-69346187D01*
X178586187Y-69655303D01*
X178343316Y-70018785D01*
X178176023Y-70422665D01*
X178090738Y-70851422D01*
X138757000Y-70851422D01*
X138757000Y-67050000D01*
X178591928Y-67050000D01*
X178604188Y-67174482D01*
X178640498Y-67294180D01*
X178699463Y-67404494D01*
X178778815Y-67501185D01*
X178875506Y-67580537D01*
X178985820Y-67639502D01*
X179105518Y-67675812D01*
X179230000Y-67688072D01*
X179794250Y-67685000D01*
X179953000Y-67526250D01*
X179953000Y-66327000D01*
X180207000Y-66327000D01*
X180207000Y-67526250D01*
X180365750Y-67685000D01*
X180930000Y-67688072D01*
X181054482Y-67675812D01*
X181174180Y-67639502D01*
X181284494Y-67580537D01*
X181381185Y-67501185D01*
X181460537Y-67404494D01*
X181519502Y-67294180D01*
X181555812Y-67174482D01*
X181568072Y-67050000D01*
X181565000Y-66485750D01*
X181406250Y-66327000D01*
X180207000Y-66327000D01*
X179953000Y-66327000D01*
X178753750Y-66327000D01*
X178595000Y-66485750D01*
X178591928Y-67050000D01*
X138757000Y-67050000D01*
X138757000Y-65350000D01*
X178591928Y-65350000D01*
X178595000Y-65914250D01*
X178753750Y-66073000D01*
X179953000Y-66073000D01*
X179953000Y-63787000D01*
X180207000Y-63787000D01*
X180207000Y-66073000D01*
X181406250Y-66073000D01*
X181565000Y-65914250D01*
X181568072Y-65350000D01*
X181555812Y-65225518D01*
X181519502Y-65105820D01*
X181460537Y-64995506D01*
X181381185Y-64898815D01*
X181284494Y-64819463D01*
X181174180Y-64760498D01*
X181093534Y-64736034D01*
X181177588Y-64660269D01*
X181351641Y-64426920D01*
X181476825Y-64164099D01*
X181521476Y-64016890D01*
X181400155Y-63787000D01*
X180207000Y-63787000D01*
X179953000Y-63787000D01*
X178759845Y-63787000D01*
X178638524Y-64016890D01*
X178683175Y-64164099D01*
X178808359Y-64426920D01*
X178982412Y-64660269D01*
X179066466Y-64736034D01*
X178985820Y-64760498D01*
X178875506Y-64819463D01*
X178778815Y-64898815D01*
X178699463Y-64995506D01*
X178640498Y-65105820D01*
X178604188Y-65225518D01*
X178591928Y-65350000D01*
X138757000Y-65350000D01*
X138757000Y-58433740D01*
X178595000Y-58433740D01*
X178595000Y-58726260D01*
X178652068Y-59013158D01*
X178764010Y-59283411D01*
X178926525Y-59526632D01*
X179133368Y-59733475D01*
X179307760Y-59850000D01*
X179133368Y-59966525D01*
X178926525Y-60173368D01*
X178764010Y-60416589D01*
X178652068Y-60686842D01*
X178595000Y-60973740D01*
X178595000Y-61266260D01*
X178652068Y-61553158D01*
X178764010Y-61823411D01*
X178926525Y-62066632D01*
X179133368Y-62273475D01*
X179315534Y-62395195D01*
X179198645Y-62464822D01*
X178982412Y-62659731D01*
X178808359Y-62893080D01*
X178683175Y-63155901D01*
X178638524Y-63303110D01*
X178759845Y-63533000D01*
X179953000Y-63533000D01*
X179953000Y-63513000D01*
X180207000Y-63513000D01*
X180207000Y-63533000D01*
X181400155Y-63533000D01*
X181521476Y-63303110D01*
X181476825Y-63155901D01*
X181351641Y-62893080D01*
X181177588Y-62659731D01*
X180961355Y-62464822D01*
X180844466Y-62395195D01*
X181026632Y-62273475D01*
X181233475Y-62066632D01*
X181395990Y-61823411D01*
X181507932Y-61553158D01*
X181554310Y-61320000D01*
X186411928Y-61320000D01*
X186424188Y-61444482D01*
X186460498Y-61564180D01*
X186519463Y-61674494D01*
X186598815Y-61771185D01*
X186695506Y-61850537D01*
X186805820Y-61909502D01*
X186824127Y-61915056D01*
X186757688Y-61981495D01*
X186589701Y-62232905D01*
X186473989Y-62512257D01*
X186415000Y-62808816D01*
X186415000Y-63111184D01*
X186473989Y-63407743D01*
X186589701Y-63687095D01*
X186757688Y-63938505D01*
X186971495Y-64152312D01*
X187222905Y-64320299D01*
X187502257Y-64436011D01*
X187798816Y-64495000D01*
X188101184Y-64495000D01*
X188397743Y-64436011D01*
X188677095Y-64320299D01*
X188928505Y-64152312D01*
X189142312Y-63938505D01*
X189310299Y-63687095D01*
X189426011Y-63407743D01*
X189485000Y-63111184D01*
X189485000Y-62808816D01*
X189426011Y-62512257D01*
X189310299Y-62232905D01*
X189142312Y-61981495D01*
X189075873Y-61915056D01*
X189094180Y-61909502D01*
X189204494Y-61850537D01*
X189301185Y-61771185D01*
X189380537Y-61674494D01*
X189439502Y-61564180D01*
X189475812Y-61444482D01*
X189488072Y-61320000D01*
X189485000Y-60705750D01*
X189326250Y-60547000D01*
X188077000Y-60547000D01*
X188077000Y-60567000D01*
X187823000Y-60567000D01*
X187823000Y-60547000D01*
X186573750Y-60547000D01*
X186415000Y-60705750D01*
X186411928Y-61320000D01*
X181554310Y-61320000D01*
X181565000Y-61266260D01*
X181565000Y-60973740D01*
X181507932Y-60686842D01*
X181395990Y-60416589D01*
X181233475Y-60173368D01*
X181026632Y-59966525D01*
X180852240Y-59850000D01*
X181026632Y-59733475D01*
X181233475Y-59526632D01*
X181237906Y-59520000D01*
X186411928Y-59520000D01*
X186415000Y-60134250D01*
X186573750Y-60293000D01*
X187823000Y-60293000D01*
X187823000Y-59043750D01*
X188077000Y-59043750D01*
X188077000Y-60293000D01*
X189326250Y-60293000D01*
X189485000Y-60134250D01*
X189488072Y-59520000D01*
X189475812Y-59395518D01*
X189439502Y-59275820D01*
X189380537Y-59165506D01*
X189301185Y-59068815D01*
X189204494Y-58989463D01*
X189094180Y-58930498D01*
X188974482Y-58894188D01*
X188850000Y-58881928D01*
X188235750Y-58885000D01*
X188077000Y-59043750D01*
X187823000Y-59043750D01*
X187664250Y-58885000D01*
X187050000Y-58881928D01*
X186925518Y-58894188D01*
X186805820Y-58930498D01*
X186695506Y-58989463D01*
X186598815Y-59068815D01*
X186519463Y-59165506D01*
X186460498Y-59275820D01*
X186424188Y-59395518D01*
X186411928Y-59520000D01*
X181237906Y-59520000D01*
X181395990Y-59283411D01*
X181507932Y-59013158D01*
X181565000Y-58726260D01*
X181565000Y-58433740D01*
X181507932Y-58146842D01*
X181395990Y-57876589D01*
X181233475Y-57633368D01*
X181026632Y-57426525D01*
X180783411Y-57264010D01*
X180513158Y-57152068D01*
X180226260Y-57095000D01*
X179933740Y-57095000D01*
X179646842Y-57152068D01*
X179376589Y-57264010D01*
X179133368Y-57426525D01*
X178926525Y-57633368D01*
X178764010Y-57876589D01*
X178652068Y-58146842D01*
X178595000Y-58433740D01*
X138757000Y-58433740D01*
X138757000Y-53320000D01*
X178422686Y-53320000D01*
X178343316Y-53438785D01*
M02*
