G04 #@! TF.GenerationSoftware,KiCad,Pcbnew,(5.1.12)-1*
G04 #@! TF.CreationDate,2022-05-31T10:14:08-04:00*
G04 #@! TF.ProjectId,OMC_WIFI_PCB,4f4d435f-5749-4464-995f-5043422e6b69,rev?*
G04 #@! TF.SameCoordinates,Original*
G04 #@! TF.FileFunction,Soldermask,Bot*
G04 #@! TF.FilePolarity,Negative*
%FSLAX46Y46*%
G04 Gerber Fmt 4.6, Leading zero omitted, Abs format (unit mm)*
G04 Created by KiCad (PCBNEW (5.1.12)-1) date 2022-05-31 10:14:08*
%MOMM*%
%LPD*%
G01*
G04 APERTURE LIST*
%ADD10C,0.100000*%
%ADD11O,5.100000X7.100000*%
%ADD12O,1.800000X1.800000*%
%ADD13C,1.800000*%
%ADD14O,3.100000X3.100000*%
%ADD15C,3.216000*%
%ADD16C,1.750000*%
%ADD17C,2.400000*%
%ADD18C,3.100000*%
%ADD19C,2.450000*%
G04 APERTURE END LIST*
D10*
G36*
X632000000Y955900000D02*
G01*
X652000000Y955900000D01*
X657000000Y950600000D01*
X657000000Y942500000D01*
X646200000Y931900000D01*
X632000000Y931900000D01*
X622400000Y922500000D01*
X608600000Y922500000D01*
X608600000Y914700000D01*
X576000000Y914700000D01*
X576000000Y966200000D01*
X621000000Y966200000D01*
X632000000Y955900000D01*
G37*
X632000000Y955900000D02*
X652000000Y955900000D01*
X657000000Y950600000D01*
X657000000Y942500000D01*
X646200000Y931900000D01*
X632000000Y931900000D01*
X622400000Y922500000D01*
X608600000Y922500000D01*
X608600000Y914700000D01*
X576000000Y914700000D01*
X576000000Y966200000D01*
X621000000Y966200000D01*
X632000000Y955900000D01*
G36*
G01*
X602750000Y953658063D02*
X602750000Y956341937D01*
G75*
G02*
X603008063Y956600000I258063J0D01*
G01*
X605691937Y956600000D01*
G75*
G02*
X605950000Y956341937I0J-258063D01*
G01*
X605950000Y953658063D01*
G75*
G02*
X605691937Y953400000I-258063J0D01*
G01*
X603008063Y953400000D01*
G75*
G02*
X602750000Y953658063I0J258063D01*
G01*
G37*
G36*
G01*
X602750000Y945858063D02*
X602750000Y948541937D01*
G75*
G02*
X603008063Y948800000I258063J0D01*
G01*
X605691937Y948800000D01*
G75*
G02*
X605950000Y948541937I0J-258063D01*
G01*
X605950000Y945858063D01*
G75*
G02*
X605691937Y945600000I-258063J0D01*
G01*
X603008063Y945600000D01*
G75*
G02*
X602750000Y945858063I0J258063D01*
G01*
G37*
G36*
G01*
X577500000Y952375000D02*
X577500000Y954425000D01*
G75*
G02*
X578525000Y955450000I1025000J0D01*
G01*
X585075000Y955450000D01*
G75*
G02*
X586100000Y954425000I0J-1025000D01*
G01*
X586100000Y952375000D01*
G75*
G02*
X585075000Y951350000I-1025000J0D01*
G01*
X578525000Y951350000D01*
G75*
G02*
X577500000Y952375000I0J1025000D01*
G01*
G37*
G36*
G01*
X590300000Y952375000D02*
X590300000Y954425000D01*
G75*
G02*
X591325000Y955450000I1025000J0D01*
G01*
X597875000Y955450000D01*
G75*
G02*
X598900000Y954425000I0J-1025000D01*
G01*
X598900000Y952375000D01*
G75*
G02*
X597875000Y951350000I-1025000J0D01*
G01*
X591325000Y951350000D01*
G75*
G02*
X590300000Y952375000I0J1025000D01*
G01*
G37*
G36*
G01*
X583900000Y946175000D02*
X583900000Y948225000D01*
G75*
G02*
X584925000Y949250000I1025000J0D01*
G01*
X591475000Y949250000D01*
G75*
G02*
X592500000Y948225000I0J-1025000D01*
G01*
X592500000Y946175000D01*
G75*
G02*
X591475000Y945150000I-1025000J0D01*
G01*
X584925000Y945150000D01*
G75*
G02*
X583900000Y946175000I0J1025000D01*
G01*
G37*
D11*
X594500000Y932600000D03*
X581900000Y932500000D03*
X588200000Y920600000D03*
D12*
X663350000Y948650000D03*
X663350000Y946110000D03*
X663350000Y943570000D03*
X663350000Y941030000D03*
X663350000Y938490000D03*
G36*
G01*
X664250000Y936800000D02*
X664250000Y935100000D01*
G75*
G02*
X664200000Y935050000I-50000J0D01*
G01*
X662500000Y935050000D01*
G75*
G02*
X662450000Y935100000I0J50000D01*
G01*
X662450000Y936800000D01*
G75*
G02*
X662500000Y936850000I50000J0D01*
G01*
X664200000Y936850000D01*
G75*
G02*
X664250000Y936800000I0J-50000D01*
G01*
G37*
X673450000Y946110000D03*
X673450000Y943570000D03*
X673450000Y941030000D03*
X673450000Y948650000D03*
X673450000Y938490000D03*
G36*
G01*
X674350000Y936800000D02*
X674350000Y935100000D01*
G75*
G02*
X674300000Y935050000I-50000J0D01*
G01*
X672600000Y935050000D01*
G75*
G02*
X672550000Y935100000I0J50000D01*
G01*
X672550000Y936800000D01*
G75*
G02*
X672600000Y936850000I50000J0D01*
G01*
X674300000Y936850000D01*
G75*
G02*
X674350000Y936800000I0J-50000D01*
G01*
G37*
G36*
G01*
X679100000Y952550000D02*
X679100000Y954250000D01*
G75*
G02*
X679150000Y954300000I50000J0D01*
G01*
X680850000Y954300000D01*
G75*
G02*
X680900000Y954250000I0J-50000D01*
G01*
X680900000Y952550000D01*
G75*
G02*
X680850000Y952500000I-50000J0D01*
G01*
X679150000Y952500000D01*
G75*
G02*
X679100000Y952550000I0J50000D01*
G01*
G37*
X636330000Y918900000D03*
X633790000Y918900000D03*
G36*
G01*
X632100000Y918000000D02*
X630400000Y918000000D01*
G75*
G02*
X630350000Y918050000I0J50000D01*
G01*
X630350000Y919750000D01*
G75*
G02*
X630400000Y919800000I50000J0D01*
G01*
X632100000Y919800000D01*
G75*
G02*
X632150000Y919750000I0J-50000D01*
G01*
X632150000Y918050000D01*
G75*
G02*
X632100000Y918000000I-50000J0D01*
G01*
G37*
D13*
X675550000Y962050000D03*
X675550000Y964550000D03*
X675550000Y967050000D03*
X675550000Y969550000D03*
D14*
X612800000Y973400000D03*
X612800000Y968320000D03*
X612800000Y963280000D03*
G36*
G01*
X611250000Y956660000D02*
X611250000Y959660000D01*
G75*
G02*
X611300000Y959710000I50000J0D01*
G01*
X614300000Y959710000D01*
G75*
G02*
X614350000Y959660000I0J-50000D01*
G01*
X614350000Y956660000D01*
G75*
G02*
X614300000Y956610000I-50000J0D01*
G01*
X611300000Y956610000D01*
G75*
G02*
X611250000Y956660000I0J50000D01*
G01*
G37*
D15*
X611300000Y944350000D03*
X621400000Y926550000D03*
X618900000Y944350000D03*
D16*
X634100000Y940550000D03*
X634100000Y930350000D03*
D15*
X636600000Y935450000D03*
G36*
G01*
X678412500Y972862500D02*
X678412500Y972337500D01*
G75*
G02*
X678150000Y972075000I-262500J0D01*
G01*
X677600000Y972075000D01*
G75*
G02*
X677337500Y972337500I0J262500D01*
G01*
X677337500Y972862500D01*
G75*
G02*
X677600000Y973125000I262500J0D01*
G01*
X678150000Y973125000D01*
G75*
G02*
X678412500Y972862500I0J-262500D01*
G01*
G37*
G36*
G01*
X680237500Y972862500D02*
X680237500Y972337500D01*
G75*
G02*
X679975000Y972075000I-262500J0D01*
G01*
X679425000Y972075000D01*
G75*
G02*
X679162500Y972337500I0J262500D01*
G01*
X679162500Y972862500D01*
G75*
G02*
X679425000Y973125000I262500J0D01*
G01*
X679975000Y973125000D01*
G75*
G02*
X680237500Y972862500I0J-262500D01*
G01*
G37*
D12*
X664700000Y922200000D03*
G36*
G01*
X665600000Y920510000D02*
X665600000Y918810000D01*
G75*
G02*
X665550000Y918760000I-50000J0D01*
G01*
X663850000Y918760000D01*
G75*
G02*
X663800000Y918810000I0J50000D01*
G01*
X663800000Y920510000D01*
G75*
G02*
X663850000Y920560000I50000J0D01*
G01*
X665550000Y920560000D01*
G75*
G02*
X665600000Y920510000I0J-50000D01*
G01*
G37*
G36*
G01*
X677587500Y969625000D02*
X678112500Y969625000D01*
G75*
G02*
X678375000Y969362500I0J-262500D01*
G01*
X678375000Y968712500D01*
G75*
G02*
X678112500Y968450000I-262500J0D01*
G01*
X677587500Y968450000D01*
G75*
G02*
X677325000Y968712500I0J262500D01*
G01*
X677325000Y969362500D01*
G75*
G02*
X677587500Y969625000I262500J0D01*
G01*
G37*
G36*
G01*
X677587500Y971350000D02*
X678112500Y971350000D01*
G75*
G02*
X678375000Y971087500I0J-262500D01*
G01*
X678375000Y970437500D01*
G75*
G02*
X678112500Y970175000I-262500J0D01*
G01*
X677587500Y970175000D01*
G75*
G02*
X677325000Y970437500I0J262500D01*
G01*
X677325000Y971087500D01*
G75*
G02*
X677587500Y971350000I262500J0D01*
G01*
G37*
D17*
X659000000Y917950000D03*
G36*
G01*
X652300000Y948900000D02*
X655300000Y948900000D01*
G75*
G02*
X655350000Y948850000I0J-50000D01*
G01*
X655350000Y945850000D01*
G75*
G02*
X655300000Y945800000I-50000J0D01*
G01*
X652300000Y945800000D01*
G75*
G02*
X652250000Y945850000I0J50000D01*
G01*
X652250000Y948850000D01*
G75*
G02*
X652300000Y948900000I50000J0D01*
G01*
G37*
D18*
X648800000Y947350000D03*
D17*
X643600000Y917950000D03*
D12*
X664700000Y931380000D03*
X664700000Y928840000D03*
G36*
G01*
X665600000Y927150000D02*
X665600000Y925450000D01*
G75*
G02*
X665550000Y925400000I-50000J0D01*
G01*
X663850000Y925400000D01*
G75*
G02*
X663800000Y925450000I0J50000D01*
G01*
X663800000Y927150000D01*
G75*
G02*
X663850000Y927200000I50000J0D01*
G01*
X665550000Y927200000D01*
G75*
G02*
X665600000Y927150000I0J-50000D01*
G01*
G37*
D19*
X604500000Y918450000D03*
X604500000Y923450000D03*
X604500000Y938450000D03*
X604500000Y933450000D03*
D12*
X676850000Y931400000D03*
X676850000Y928860000D03*
X676850000Y926320000D03*
X676850000Y923780000D03*
X676850000Y921240000D03*
G36*
G01*
X677750000Y919550000D02*
X677750000Y917850000D01*
G75*
G02*
X677700000Y917800000I-50000J0D01*
G01*
X676000000Y917800000D01*
G75*
G02*
X675950000Y917850000I0J50000D01*
G01*
X675950000Y919550000D01*
G75*
G02*
X676000000Y919600000I50000J0D01*
G01*
X677700000Y919600000D01*
G75*
G02*
X677750000Y919550000I0J-50000D01*
G01*
G37*
G36*
G01*
X655550000Y974300000D02*
X655550000Y973400000D01*
G75*
G02*
X655500000Y973350000I-50000J0D01*
G01*
X653500000Y973350000D01*
G75*
G02*
X653450000Y973400000I0J50000D01*
G01*
X653450000Y974300000D01*
G75*
G02*
X653500000Y974350000I50000J0D01*
G01*
X655500000Y974350000D01*
G75*
G02*
X655550000Y974300000I0J-50000D01*
G01*
G37*
G36*
G01*
X655550000Y973030000D02*
X655550000Y972130000D01*
G75*
G02*
X655500000Y972080000I-50000J0D01*
G01*
X653500000Y972080000D01*
G75*
G02*
X653450000Y972130000I0J50000D01*
G01*
X653450000Y973030000D01*
G75*
G02*
X653500000Y973080000I50000J0D01*
G01*
X655500000Y973080000D01*
G75*
G02*
X655550000Y973030000I0J-50000D01*
G01*
G37*
G36*
G01*
X655550000Y971760000D02*
X655550000Y970860000D01*
G75*
G02*
X655500000Y970810000I-50000J0D01*
G01*
X653500000Y970810000D01*
G75*
G02*
X653450000Y970860000I0J50000D01*
G01*
X653450000Y971760000D01*
G75*
G02*
X653500000Y971810000I50000J0D01*
G01*
X655500000Y971810000D01*
G75*
G02*
X655550000Y971760000I0J-50000D01*
G01*
G37*
G36*
G01*
X655550000Y970490000D02*
X655550000Y969590000D01*
G75*
G02*
X655500000Y969540000I-50000J0D01*
G01*
X653500000Y969540000D01*
G75*
G02*
X653450000Y969590000I0J50000D01*
G01*
X653450000Y970490000D01*
G75*
G02*
X653500000Y970540000I50000J0D01*
G01*
X655500000Y970540000D01*
G75*
G02*
X655550000Y970490000I0J-50000D01*
G01*
G37*
G36*
G01*
X655550000Y969220000D02*
X655550000Y968320000D01*
G75*
G02*
X655500000Y968270000I-50000J0D01*
G01*
X653500000Y968270000D01*
G75*
G02*
X653450000Y968320000I0J50000D01*
G01*
X653450000Y969220000D01*
G75*
G02*
X653500000Y969270000I50000J0D01*
G01*
X655500000Y969270000D01*
G75*
G02*
X655550000Y969220000I0J-50000D01*
G01*
G37*
G36*
G01*
X655550000Y967950000D02*
X655550000Y967050000D01*
G75*
G02*
X655500000Y967000000I-50000J0D01*
G01*
X653500000Y967000000D01*
G75*
G02*
X653450000Y967050000I0J50000D01*
G01*
X653450000Y967950000D01*
G75*
G02*
X653500000Y968000000I50000J0D01*
G01*
X655500000Y968000000D01*
G75*
G02*
X655550000Y967950000I0J-50000D01*
G01*
G37*
G36*
G01*
X655550000Y966680000D02*
X655550000Y965780000D01*
G75*
G02*
X655500000Y965730000I-50000J0D01*
G01*
X653500000Y965730000D01*
G75*
G02*
X653450000Y965780000I0J50000D01*
G01*
X653450000Y966680000D01*
G75*
G02*
X653500000Y966730000I50000J0D01*
G01*
X655500000Y966730000D01*
G75*
G02*
X655550000Y966680000I0J-50000D01*
G01*
G37*
G36*
G01*
X655550000Y965410000D02*
X655550000Y964510000D01*
G75*
G02*
X655500000Y964460000I-50000J0D01*
G01*
X653500000Y964460000D01*
G75*
G02*
X653450000Y964510000I0J50000D01*
G01*
X653450000Y965410000D01*
G75*
G02*
X653500000Y965460000I50000J0D01*
G01*
X655500000Y965460000D01*
G75*
G02*
X655550000Y965410000I0J-50000D01*
G01*
G37*
G36*
G01*
X655550000Y964140000D02*
X655550000Y963240000D01*
G75*
G02*
X655500000Y963190000I-50000J0D01*
G01*
X653500000Y963190000D01*
G75*
G02*
X653450000Y963240000I0J50000D01*
G01*
X653450000Y964140000D01*
G75*
G02*
X653500000Y964190000I50000J0D01*
G01*
X655500000Y964190000D01*
G75*
G02*
X655550000Y964140000I0J-50000D01*
G01*
G37*
G36*
G01*
X655550000Y962870000D02*
X655550000Y961970000D01*
G75*
G02*
X655500000Y961920000I-50000J0D01*
G01*
X653500000Y961920000D01*
G75*
G02*
X653450000Y961970000I0J50000D01*
G01*
X653450000Y962870000D01*
G75*
G02*
X653500000Y962920000I50000J0D01*
G01*
X655500000Y962920000D01*
G75*
G02*
X655550000Y962870000I0J-50000D01*
G01*
G37*
G36*
G01*
X655550000Y961600000D02*
X655550000Y960700000D01*
G75*
G02*
X655500000Y960650000I-50000J0D01*
G01*
X653500000Y960650000D01*
G75*
G02*
X653450000Y960700000I0J50000D01*
G01*
X653450000Y961600000D01*
G75*
G02*
X653500000Y961650000I50000J0D01*
G01*
X655500000Y961650000D01*
G75*
G02*
X655550000Y961600000I0J-50000D01*
G01*
G37*
G36*
G01*
X655550000Y960330000D02*
X655550000Y959430000D01*
G75*
G02*
X655500000Y959380000I-50000J0D01*
G01*
X653500000Y959380000D01*
G75*
G02*
X653450000Y959430000I0J50000D01*
G01*
X653450000Y960330000D01*
G75*
G02*
X653500000Y960380000I50000J0D01*
G01*
X655500000Y960380000D01*
G75*
G02*
X655550000Y960330000I0J-50000D01*
G01*
G37*
G36*
G01*
X655550000Y959060000D02*
X655550000Y958160000D01*
G75*
G02*
X655500000Y958110000I-50000J0D01*
G01*
X653500000Y958110000D01*
G75*
G02*
X653450000Y958160000I0J50000D01*
G01*
X653450000Y959060000D01*
G75*
G02*
X653500000Y959110000I50000J0D01*
G01*
X655500000Y959110000D01*
G75*
G02*
X655550000Y959060000I0J-50000D01*
G01*
G37*
G36*
G01*
X655550000Y957790000D02*
X655550000Y956890000D01*
G75*
G02*
X655500000Y956840000I-50000J0D01*
G01*
X653500000Y956840000D01*
G75*
G02*
X653450000Y956890000I0J50000D01*
G01*
X653450000Y957790000D01*
G75*
G02*
X653500000Y957840000I50000J0D01*
G01*
X655500000Y957840000D01*
G75*
G02*
X655550000Y957790000I0J-50000D01*
G01*
G37*
G36*
G01*
X657735000Y955290000D02*
X656835000Y955290000D01*
G75*
G02*
X656785000Y955340000I0J50000D01*
G01*
X656785000Y957340000D01*
G75*
G02*
X656835000Y957390000I50000J0D01*
G01*
X657735000Y957390000D01*
G75*
G02*
X657785000Y957340000I0J-50000D01*
G01*
X657785000Y955340000D01*
G75*
G02*
X657735000Y955290000I-50000J0D01*
G01*
G37*
G36*
G01*
X659005000Y955290000D02*
X658105000Y955290000D01*
G75*
G02*
X658055000Y955340000I0J50000D01*
G01*
X658055000Y957340000D01*
G75*
G02*
X658105000Y957390000I50000J0D01*
G01*
X659005000Y957390000D01*
G75*
G02*
X659055000Y957340000I0J-50000D01*
G01*
X659055000Y955340000D01*
G75*
G02*
X659005000Y955290000I-50000J0D01*
G01*
G37*
G36*
G01*
X660275000Y955290000D02*
X659375000Y955290000D01*
G75*
G02*
X659325000Y955340000I0J50000D01*
G01*
X659325000Y957340000D01*
G75*
G02*
X659375000Y957390000I50000J0D01*
G01*
X660275000Y957390000D01*
G75*
G02*
X660325000Y957340000I0J-50000D01*
G01*
X660325000Y955340000D01*
G75*
G02*
X660275000Y955290000I-50000J0D01*
G01*
G37*
G36*
G01*
X661545000Y955290000D02*
X660645000Y955290000D01*
G75*
G02*
X660595000Y955340000I0J50000D01*
G01*
X660595000Y957340000D01*
G75*
G02*
X660645000Y957390000I50000J0D01*
G01*
X661545000Y957390000D01*
G75*
G02*
X661595000Y957340000I0J-50000D01*
G01*
X661595000Y955340000D01*
G75*
G02*
X661545000Y955290000I-50000J0D01*
G01*
G37*
G36*
G01*
X662815000Y955290000D02*
X661915000Y955290000D01*
G75*
G02*
X661865000Y955340000I0J50000D01*
G01*
X661865000Y957340000D01*
G75*
G02*
X661915000Y957390000I50000J0D01*
G01*
X662815000Y957390000D01*
G75*
G02*
X662865000Y957340000I0J-50000D01*
G01*
X662865000Y955340000D01*
G75*
G02*
X662815000Y955290000I-50000J0D01*
G01*
G37*
G36*
G01*
X664085000Y955290000D02*
X663185000Y955290000D01*
G75*
G02*
X663135000Y955340000I0J50000D01*
G01*
X663135000Y957340000D01*
G75*
G02*
X663185000Y957390000I50000J0D01*
G01*
X664085000Y957390000D01*
G75*
G02*
X664135000Y957340000I0J-50000D01*
G01*
X664135000Y955340000D01*
G75*
G02*
X664085000Y955290000I-50000J0D01*
G01*
G37*
G36*
G01*
X665355000Y955290000D02*
X664455000Y955290000D01*
G75*
G02*
X664405000Y955340000I0J50000D01*
G01*
X664405000Y957340000D01*
G75*
G02*
X664455000Y957390000I50000J0D01*
G01*
X665355000Y957390000D01*
G75*
G02*
X665405000Y957340000I0J-50000D01*
G01*
X665405000Y955340000D01*
G75*
G02*
X665355000Y955290000I-50000J0D01*
G01*
G37*
G36*
G01*
X666625000Y955290000D02*
X665725000Y955290000D01*
G75*
G02*
X665675000Y955340000I0J50000D01*
G01*
X665675000Y957340000D01*
G75*
G02*
X665725000Y957390000I50000J0D01*
G01*
X666625000Y957390000D01*
G75*
G02*
X666675000Y957340000I0J-50000D01*
G01*
X666675000Y955340000D01*
G75*
G02*
X666625000Y955290000I-50000J0D01*
G01*
G37*
G36*
G01*
X667895000Y955290000D02*
X666995000Y955290000D01*
G75*
G02*
X666945000Y955340000I0J50000D01*
G01*
X666945000Y957340000D01*
G75*
G02*
X666995000Y957390000I50000J0D01*
G01*
X667895000Y957390000D01*
G75*
G02*
X667945000Y957340000I0J-50000D01*
G01*
X667945000Y955340000D01*
G75*
G02*
X667895000Y955290000I-50000J0D01*
G01*
G37*
G36*
G01*
X669165000Y955290000D02*
X668265000Y955290000D01*
G75*
G02*
X668215000Y955340000I0J50000D01*
G01*
X668215000Y957340000D01*
G75*
G02*
X668265000Y957390000I50000J0D01*
G01*
X669165000Y957390000D01*
G75*
G02*
X669215000Y957340000I0J-50000D01*
G01*
X669215000Y955340000D01*
G75*
G02*
X669165000Y955290000I-50000J0D01*
G01*
G37*
G36*
G01*
X672550000Y957790000D02*
X672550000Y956890000D01*
G75*
G02*
X672500000Y956840000I-50000J0D01*
G01*
X670500000Y956840000D01*
G75*
G02*
X670450000Y956890000I0J50000D01*
G01*
X670450000Y957790000D01*
G75*
G02*
X670500000Y957840000I50000J0D01*
G01*
X672500000Y957840000D01*
G75*
G02*
X672550000Y957790000I0J-50000D01*
G01*
G37*
G36*
G01*
X672550000Y959060000D02*
X672550000Y958160000D01*
G75*
G02*
X672500000Y958110000I-50000J0D01*
G01*
X670500000Y958110000D01*
G75*
G02*
X670450000Y958160000I0J50000D01*
G01*
X670450000Y959060000D01*
G75*
G02*
X670500000Y959110000I50000J0D01*
G01*
X672500000Y959110000D01*
G75*
G02*
X672550000Y959060000I0J-50000D01*
G01*
G37*
G36*
G01*
X672550000Y960330000D02*
X672550000Y959430000D01*
G75*
G02*
X672500000Y959380000I-50000J0D01*
G01*
X670500000Y959380000D01*
G75*
G02*
X670450000Y959430000I0J50000D01*
G01*
X670450000Y960330000D01*
G75*
G02*
X670500000Y960380000I50000J0D01*
G01*
X672500000Y960380000D01*
G75*
G02*
X672550000Y960330000I0J-50000D01*
G01*
G37*
G36*
G01*
X672550000Y961600000D02*
X672550000Y960700000D01*
G75*
G02*
X672500000Y960650000I-50000J0D01*
G01*
X670500000Y960650000D01*
G75*
G02*
X670450000Y960700000I0J50000D01*
G01*
X670450000Y961600000D01*
G75*
G02*
X670500000Y961650000I50000J0D01*
G01*
X672500000Y961650000D01*
G75*
G02*
X672550000Y961600000I0J-50000D01*
G01*
G37*
G36*
G01*
X672550000Y962870000D02*
X672550000Y961970000D01*
G75*
G02*
X672500000Y961920000I-50000J0D01*
G01*
X670500000Y961920000D01*
G75*
G02*
X670450000Y961970000I0J50000D01*
G01*
X670450000Y962870000D01*
G75*
G02*
X670500000Y962920000I50000J0D01*
G01*
X672500000Y962920000D01*
G75*
G02*
X672550000Y962870000I0J-50000D01*
G01*
G37*
G36*
G01*
X672550000Y964140000D02*
X672550000Y963240000D01*
G75*
G02*
X672500000Y963190000I-50000J0D01*
G01*
X670500000Y963190000D01*
G75*
G02*
X670450000Y963240000I0J50000D01*
G01*
X670450000Y964140000D01*
G75*
G02*
X670500000Y964190000I50000J0D01*
G01*
X672500000Y964190000D01*
G75*
G02*
X672550000Y964140000I0J-50000D01*
G01*
G37*
G36*
G01*
X672550000Y965410000D02*
X672550000Y964510000D01*
G75*
G02*
X672500000Y964460000I-50000J0D01*
G01*
X670500000Y964460000D01*
G75*
G02*
X670450000Y964510000I0J50000D01*
G01*
X670450000Y965410000D01*
G75*
G02*
X670500000Y965460000I50000J0D01*
G01*
X672500000Y965460000D01*
G75*
G02*
X672550000Y965410000I0J-50000D01*
G01*
G37*
G36*
G01*
X672550000Y966680000D02*
X672550000Y965780000D01*
G75*
G02*
X672500000Y965730000I-50000J0D01*
G01*
X670500000Y965730000D01*
G75*
G02*
X670450000Y965780000I0J50000D01*
G01*
X670450000Y966680000D01*
G75*
G02*
X670500000Y966730000I50000J0D01*
G01*
X672500000Y966730000D01*
G75*
G02*
X672550000Y966680000I0J-50000D01*
G01*
G37*
G36*
G01*
X672550000Y967950000D02*
X672550000Y967050000D01*
G75*
G02*
X672500000Y967000000I-50000J0D01*
G01*
X670500000Y967000000D01*
G75*
G02*
X670450000Y967050000I0J50000D01*
G01*
X670450000Y967950000D01*
G75*
G02*
X670500000Y968000000I50000J0D01*
G01*
X672500000Y968000000D01*
G75*
G02*
X672550000Y967950000I0J-50000D01*
G01*
G37*
G36*
G01*
X672550000Y969220000D02*
X672550000Y968320000D01*
G75*
G02*
X672500000Y968270000I-50000J0D01*
G01*
X670500000Y968270000D01*
G75*
G02*
X670450000Y968320000I0J50000D01*
G01*
X670450000Y969220000D01*
G75*
G02*
X670500000Y969270000I50000J0D01*
G01*
X672500000Y969270000D01*
G75*
G02*
X672550000Y969220000I0J-50000D01*
G01*
G37*
G36*
G01*
X672550000Y970490000D02*
X672550000Y969590000D01*
G75*
G02*
X672500000Y969540000I-50000J0D01*
G01*
X670500000Y969540000D01*
G75*
G02*
X670450000Y969590000I0J50000D01*
G01*
X670450000Y970490000D01*
G75*
G02*
X670500000Y970540000I50000J0D01*
G01*
X672500000Y970540000D01*
G75*
G02*
X672550000Y970490000I0J-50000D01*
G01*
G37*
G36*
G01*
X672550000Y971760000D02*
X672550000Y970860000D01*
G75*
G02*
X672500000Y970810000I-50000J0D01*
G01*
X670500000Y970810000D01*
G75*
G02*
X670450000Y970860000I0J50000D01*
G01*
X670450000Y971760000D01*
G75*
G02*
X670500000Y971810000I50000J0D01*
G01*
X672500000Y971810000D01*
G75*
G02*
X672550000Y971760000I0J-50000D01*
G01*
G37*
G36*
G01*
X672550000Y973030000D02*
X672550000Y972130000D01*
G75*
G02*
X672500000Y972080000I-50000J0D01*
G01*
X670500000Y972080000D01*
G75*
G02*
X670450000Y972130000I0J50000D01*
G01*
X670450000Y973030000D01*
G75*
G02*
X670500000Y973080000I50000J0D01*
G01*
X672500000Y973080000D01*
G75*
G02*
X672550000Y973030000I0J-50000D01*
G01*
G37*
G36*
G01*
X672550000Y974300000D02*
X672550000Y973400000D01*
G75*
G02*
X672500000Y973350000I-50000J0D01*
G01*
X670500000Y973350000D01*
G75*
G02*
X670450000Y973400000I0J50000D01*
G01*
X670450000Y974300000D01*
G75*
G02*
X670500000Y974350000I50000J0D01*
G01*
X672500000Y974350000D01*
G75*
G02*
X672550000Y974300000I0J-50000D01*
G01*
G37*
G36*
G01*
X666550000Y968850000D02*
X666550000Y963850000D01*
G75*
G02*
X666500000Y963800000I-50000J0D01*
G01*
X661500000Y963800000D01*
G75*
G02*
X661450000Y963850000I0J50000D01*
G01*
X661450000Y968850000D01*
G75*
G02*
X661500000Y968900000I50000J0D01*
G01*
X666500000Y968900000D01*
G75*
G02*
X666550000Y968850000I0J-50000D01*
G01*
G37*
M02*
