G04 #@! TF.GenerationSoftware,KiCad,Pcbnew,(5.1.12)-1*
G04 #@! TF.CreationDate,2022-05-31T10:14:08-04:00*
G04 #@! TF.ProjectId,OMC_WIFI_PCB,4f4d435f-5749-4464-995f-5043422e6b69,rev?*
G04 #@! TF.SameCoordinates,Original*
G04 #@! TF.FileFunction,Copper,L1,Top*
G04 #@! TF.FilePolarity,Positive*
%FSLAX46Y46*%
G04 Gerber Fmt 4.6, Leading zero omitted, Abs format (unit mm)*
G04 Created by KiCad (PCBNEW (5.1.12)-1) date 2022-05-31 10:14:08*
%MOMM*%
%LPD*%
G01*
G04 APERTURE LIST*
G04 #@! TA.AperFunction,NonConductor*
%ADD10C,0.400000*%
G04 #@! TD*
G04 #@! TA.AperFunction,EtchedComponent*
%ADD11C,0.381000*%
G04 #@! TD*
G04 #@! TA.AperFunction,SMDPad,CuDef*
%ADD12R,0.900000X0.800000*%
G04 #@! TD*
G04 #@! TA.AperFunction,ComponentPad*
%ADD13O,5.000000X7.000000*%
G04 #@! TD*
G04 #@! TA.AperFunction,ComponentPad*
%ADD14O,1.700000X1.700000*%
G04 #@! TD*
G04 #@! TA.AperFunction,ComponentPad*
%ADD15R,1.700000X1.700000*%
G04 #@! TD*
G04 #@! TA.AperFunction,ComponentPad*
%ADD16C,1.700000*%
G04 #@! TD*
G04 #@! TA.AperFunction,ComponentPad*
%ADD17O,3.000000X3.000000*%
G04 #@! TD*
G04 #@! TA.AperFunction,ComponentPad*
%ADD18R,3.000000X3.000000*%
G04 #@! TD*
G04 #@! TA.AperFunction,ComponentPad*
%ADD19C,3.116000*%
G04 #@! TD*
G04 #@! TA.AperFunction,ComponentPad*
%ADD20C,1.650000*%
G04 #@! TD*
G04 #@! TA.AperFunction,ComponentPad*
%ADD21C,2.300000*%
G04 #@! TD*
G04 #@! TA.AperFunction,ComponentPad*
%ADD22C,3.000000*%
G04 #@! TD*
G04 #@! TA.AperFunction,ComponentPad*
%ADD23C,2.350000*%
G04 #@! TD*
G04 #@! TA.AperFunction,SMDPad,CuDef*
%ADD24R,2.500000X1.800000*%
G04 #@! TD*
G04 #@! TA.AperFunction,ViaPad*
%ADD25C,1.200000*%
G04 #@! TD*
G04 #@! TA.AperFunction,Conductor*
%ADD26C,0.300000*%
G04 #@! TD*
G04 #@! TA.AperFunction,Conductor*
%ADD27C,4.000000*%
G04 #@! TD*
G04 #@! TA.AperFunction,Conductor*
%ADD28C,0.254000*%
G04 #@! TD*
G04 #@! TA.AperFunction,Conductor*
%ADD29C,0.100000*%
G04 #@! TD*
G04 APERTURE END LIST*
D10*
X599376190Y928409523D02*
X597776190Y928028571D01*
X598919047Y927723809D01*
X597776190Y927419047D01*
X599376190Y927038095D01*
X598233333Y926504761D02*
X598233333Y925742857D01*
X597776190Y926657142D02*
X599376190Y926123809D01*
X597776190Y925590476D01*
X597776190Y924142857D02*
X598538095Y924676190D01*
X597776190Y925057142D02*
X599376190Y925057142D01*
X599376190Y924447619D01*
X599300000Y924295238D01*
X599223809Y924219047D01*
X599071428Y924142857D01*
X598842857Y924142857D01*
X598690476Y924219047D01*
X598614285Y924295238D01*
X598538095Y924447619D01*
X598538095Y925057142D01*
X597776190Y923457142D02*
X599376190Y923457142D01*
X597776190Y922542857D01*
X599376190Y922542857D01*
X597776190Y921780952D02*
X599376190Y921780952D01*
X597776190Y921019047D02*
X599376190Y921019047D01*
X597776190Y920104761D01*
X599376190Y920104761D01*
X599300000Y918504761D02*
X599376190Y918657142D01*
X599376190Y918885714D01*
X599300000Y919114285D01*
X599147619Y919266666D01*
X598995238Y919342857D01*
X598690476Y919419047D01*
X598461904Y919419047D01*
X598157142Y919342857D01*
X598004761Y919266666D01*
X597852380Y919114285D01*
X597776190Y918885714D01*
X597776190Y918733333D01*
X597852380Y918504761D01*
X597928571Y918428571D01*
X598461904Y918428571D01*
X598461904Y918733333D01*
X597928571Y917742857D02*
X597852380Y917666666D01*
X597776190Y917742857D01*
X597852380Y917819047D01*
X597928571Y917742857D01*
X597776190Y917742857D01*
X598385714Y917742857D02*
X599300000Y917819047D01*
X599376190Y917742857D01*
X599300000Y917666666D01*
X598385714Y917742857D01*
X599376190Y917742857D01*
D11*
X581352160Y965200360D02*
X582551040Y968299160D01*
X582551040Y968299160D02*
X581951600Y967900380D01*
X580950840Y967199340D02*
X582251320Y970000960D01*
X581352160Y965200360D02*
X581951600Y965898860D01*
X581750940Y970199080D02*
X580950840Y967199340D01*
X580950840Y967199340D02*
X582149720Y967999440D01*
X582149720Y967999440D02*
X581352160Y965200360D01*
X581352160Y965200360D02*
X581250560Y966099520D01*
X581850000Y971591000D02*
X586549000Y964606000D01*
X586549000Y964606000D02*
X577151000Y964606000D01*
X577151000Y964606000D02*
X581850000Y971591000D01*
D12*
X619350000Y919100000D03*
X621350000Y920050000D03*
X621350000Y918150000D03*
G04 #@! TA.AperFunction,ComponentPad*
G36*
G01*
X602800000Y953699999D02*
X602800000Y956300001D01*
G75*
G02*
X603049999Y956550000I249999J0D01*
G01*
X605650001Y956550000D01*
G75*
G02*
X605900000Y956300001I0J-249999D01*
G01*
X605900000Y953699999D01*
G75*
G02*
X605650001Y953450000I-249999J0D01*
G01*
X603049999Y953450000D01*
G75*
G02*
X602800000Y953699999I0J249999D01*
G01*
G37*
G04 #@! TD.AperFunction*
G04 #@! TA.AperFunction,ComponentPad*
G36*
G01*
X602800000Y945899999D02*
X602800000Y948500001D01*
G75*
G02*
X603049999Y948750000I249999J0D01*
G01*
X605650001Y948750000D01*
G75*
G02*
X605900000Y948500001I0J-249999D01*
G01*
X605900000Y945899999D01*
G75*
G02*
X605650001Y945650000I-249999J0D01*
G01*
X603049999Y945650000D01*
G75*
G02*
X602800000Y945899999I0J249999D01*
G01*
G37*
G04 #@! TD.AperFunction*
G04 #@! TA.AperFunction,ComponentPad*
G36*
G01*
X577550000Y952400000D02*
X577550000Y954400000D01*
G75*
G02*
X578550000Y955400000I1000000J0D01*
G01*
X585050000Y955400000D01*
G75*
G02*
X586050000Y954400000I0J-1000000D01*
G01*
X586050000Y952400000D01*
G75*
G02*
X585050000Y951400000I-1000000J0D01*
G01*
X578550000Y951400000D01*
G75*
G02*
X577550000Y952400000I0J1000000D01*
G01*
G37*
G04 #@! TD.AperFunction*
G04 #@! TA.AperFunction,ComponentPad*
G36*
G01*
X590350000Y952400000D02*
X590350000Y954400000D01*
G75*
G02*
X591350000Y955400000I1000000J0D01*
G01*
X597850000Y955400000D01*
G75*
G02*
X598850000Y954400000I0J-1000000D01*
G01*
X598850000Y952400000D01*
G75*
G02*
X597850000Y951400000I-1000000J0D01*
G01*
X591350000Y951400000D01*
G75*
G02*
X590350000Y952400000I0J1000000D01*
G01*
G37*
G04 #@! TD.AperFunction*
G04 #@! TA.AperFunction,ComponentPad*
G36*
G01*
X583950000Y946200000D02*
X583950000Y948200000D01*
G75*
G02*
X584950000Y949200000I1000000J0D01*
G01*
X591450000Y949200000D01*
G75*
G02*
X592450000Y948200000I0J-1000000D01*
G01*
X592450000Y946200000D01*
G75*
G02*
X591450000Y945200000I-1000000J0D01*
G01*
X584950000Y945200000D01*
G75*
G02*
X583950000Y946200000I0J1000000D01*
G01*
G37*
G04 #@! TD.AperFunction*
D13*
X594500000Y932600000D03*
X581900000Y932500000D03*
X588200000Y920600000D03*
D14*
X663350000Y948650000D03*
X663350000Y946110000D03*
X663350000Y943570000D03*
X663350000Y941030000D03*
X663350000Y938490000D03*
D15*
X663350000Y935950000D03*
D14*
X673450000Y946110000D03*
X673450000Y943570000D03*
X673450000Y941030000D03*
X673450000Y948650000D03*
X673450000Y938490000D03*
D15*
X673450000Y935950000D03*
X680000000Y953400000D03*
D14*
X636330000Y918900000D03*
X633790000Y918900000D03*
D15*
X631250000Y918900000D03*
D16*
X675550000Y962050000D03*
X675550000Y964550000D03*
X675550000Y967050000D03*
X675550000Y969550000D03*
D17*
X612800000Y973400000D03*
X612800000Y968320000D03*
X612800000Y963280000D03*
D18*
X612800000Y958160000D03*
D19*
X611300000Y944350000D03*
X621400000Y926550000D03*
X618900000Y944350000D03*
D20*
X634100000Y940550000D03*
X634100000Y930350000D03*
D19*
X636600000Y935450000D03*
D14*
X664700000Y922200000D03*
D15*
X664700000Y919660000D03*
D21*
X659000000Y917950000D03*
D18*
X653800000Y947350000D03*
D22*
X648800000Y947350000D03*
D21*
X643600000Y917950000D03*
G04 #@! TA.AperFunction,SMDPad,CuDef*
G36*
G01*
X624462500Y918662500D02*
X624937500Y918662500D01*
G75*
G02*
X625175000Y918425000I0J-237500D01*
G01*
X625175000Y917925000D01*
G75*
G02*
X624937500Y917687500I-237500J0D01*
G01*
X624462500Y917687500D01*
G75*
G02*
X624225000Y917925000I0J237500D01*
G01*
X624225000Y918425000D01*
G75*
G02*
X624462500Y918662500I237500J0D01*
G01*
G37*
G04 #@! TD.AperFunction*
G04 #@! TA.AperFunction,SMDPad,CuDef*
G36*
G01*
X624462500Y920487500D02*
X624937500Y920487500D01*
G75*
G02*
X625175000Y920250000I0J-237500D01*
G01*
X625175000Y919750000D01*
G75*
G02*
X624937500Y919512500I-237500J0D01*
G01*
X624462500Y919512500D01*
G75*
G02*
X624225000Y919750000I0J237500D01*
G01*
X624225000Y920250000D01*
G75*
G02*
X624462500Y920487500I237500J0D01*
G01*
G37*
G04 #@! TD.AperFunction*
G04 #@! TA.AperFunction,SMDPad,CuDef*
G36*
G01*
X679487500Y937712500D02*
X679487500Y938187500D01*
G75*
G02*
X679725000Y938425000I237500J0D01*
G01*
X680225000Y938425000D01*
G75*
G02*
X680462500Y938187500I0J-237500D01*
G01*
X680462500Y937712500D01*
G75*
G02*
X680225000Y937475000I-237500J0D01*
G01*
X679725000Y937475000D01*
G75*
G02*
X679487500Y937712500I0J237500D01*
G01*
G37*
G04 #@! TD.AperFunction*
G04 #@! TA.AperFunction,SMDPad,CuDef*
G36*
G01*
X677662500Y937712500D02*
X677662500Y938187500D01*
G75*
G02*
X677900000Y938425000I237500J0D01*
G01*
X678400000Y938425000D01*
G75*
G02*
X678637500Y938187500I0J-237500D01*
G01*
X678637500Y937712500D01*
G75*
G02*
X678400000Y937475000I-237500J0D01*
G01*
X677900000Y937475000D01*
G75*
G02*
X677662500Y937712500I0J237500D01*
G01*
G37*
G04 #@! TD.AperFunction*
G04 #@! TA.AperFunction,SMDPad,CuDef*
G36*
G01*
X679512500Y944462500D02*
X679512500Y944937500D01*
G75*
G02*
X679750000Y945175000I237500J0D01*
G01*
X680250000Y945175000D01*
G75*
G02*
X680487500Y944937500I0J-237500D01*
G01*
X680487500Y944462500D01*
G75*
G02*
X680250000Y944225000I-237500J0D01*
G01*
X679750000Y944225000D01*
G75*
G02*
X679512500Y944462500I0J237500D01*
G01*
G37*
G04 #@! TD.AperFunction*
G04 #@! TA.AperFunction,SMDPad,CuDef*
G36*
G01*
X677687500Y944462500D02*
X677687500Y944937500D01*
G75*
G02*
X677925000Y945175000I237500J0D01*
G01*
X678425000Y945175000D01*
G75*
G02*
X678662500Y944937500I0J-237500D01*
G01*
X678662500Y944462500D01*
G75*
G02*
X678425000Y944225000I-237500J0D01*
G01*
X677925000Y944225000D01*
G75*
G02*
X677687500Y944462500I0J237500D01*
G01*
G37*
G04 #@! TD.AperFunction*
D14*
X664700000Y931380000D03*
X664700000Y928840000D03*
D15*
X664700000Y926300000D03*
D23*
X604500000Y918450000D03*
X604500000Y923450000D03*
X604500000Y938450000D03*
X604500000Y933450000D03*
D24*
X615700000Y919100000D03*
X611700000Y919100000D03*
G04 #@! TA.AperFunction,SMDPad,CuDef*
G36*
G01*
X679425000Y939462500D02*
X679425000Y939937500D01*
G75*
G02*
X679662500Y940175000I237500J0D01*
G01*
X680237500Y940175000D01*
G75*
G02*
X680475000Y939937500I0J-237500D01*
G01*
X680475000Y939462500D01*
G75*
G02*
X680237500Y939225000I-237500J0D01*
G01*
X679662500Y939225000D01*
G75*
G02*
X679425000Y939462500I0J237500D01*
G01*
G37*
G04 #@! TD.AperFunction*
G04 #@! TA.AperFunction,SMDPad,CuDef*
G36*
G01*
X677675000Y939462500D02*
X677675000Y939937500D01*
G75*
G02*
X677912500Y940175000I237500J0D01*
G01*
X678487500Y940175000D01*
G75*
G02*
X678725000Y939937500I0J-237500D01*
G01*
X678725000Y939462500D01*
G75*
G02*
X678487500Y939225000I-237500J0D01*
G01*
X677912500Y939225000D01*
G75*
G02*
X677675000Y939462500I0J237500D01*
G01*
G37*
G04 #@! TD.AperFunction*
G04 #@! TA.AperFunction,SMDPad,CuDef*
G36*
G01*
X679425000Y946362500D02*
X679425000Y946837500D01*
G75*
G02*
X679662500Y947075000I237500J0D01*
G01*
X680237500Y947075000D01*
G75*
G02*
X680475000Y946837500I0J-237500D01*
G01*
X680475000Y946362500D01*
G75*
G02*
X680237500Y946125000I-237500J0D01*
G01*
X679662500Y946125000D01*
G75*
G02*
X679425000Y946362500I0J237500D01*
G01*
G37*
G04 #@! TD.AperFunction*
G04 #@! TA.AperFunction,SMDPad,CuDef*
G36*
G01*
X677675000Y946362500D02*
X677675000Y946837500D01*
G75*
G02*
X677912500Y947075000I237500J0D01*
G01*
X678487500Y947075000D01*
G75*
G02*
X678725000Y946837500I0J-237500D01*
G01*
X678725000Y946362500D01*
G75*
G02*
X678487500Y946125000I-237500J0D01*
G01*
X677912500Y946125000D01*
G75*
G02*
X677675000Y946362500I0J237500D01*
G01*
G37*
G04 #@! TD.AperFunction*
D14*
X676850000Y931400000D03*
X676850000Y928860000D03*
X676850000Y926320000D03*
X676850000Y923780000D03*
X676850000Y921240000D03*
D15*
X676850000Y918700000D03*
D25*
X661100000Y961600000D03*
X659900000Y960300000D03*
X671000000Y927750000D03*
X658600000Y959400000D03*
X657434999Y958240002D03*
X659350000Y972600000D03*
X658000000Y971300000D03*
X673500000Y955700000D03*
X673500000Y951850000D03*
D26*
X611700000Y919100000D02*
X614700000Y916100000D01*
X614700000Y916100000D02*
X631000000Y916100000D01*
X663970000Y930650000D02*
X664700000Y931380000D01*
X663670000Y930350000D02*
X664700000Y931380000D01*
X634100000Y930350000D02*
X663670000Y930350000D01*
X631000000Y916110000D02*
X633790000Y918900000D01*
X674750001Y961250001D02*
X675550000Y962050000D01*
X674750001Y944870001D02*
X674750001Y961250001D01*
X673450000Y943570000D02*
X674750001Y944870001D01*
X669400000Y936310000D02*
X669400000Y938150000D01*
X676850000Y928860000D02*
X669400000Y936310000D01*
X669400000Y948650000D02*
X669400000Y936310000D01*
X661100000Y956950000D02*
X669400000Y948650000D01*
X661100000Y961600000D02*
X661100000Y956950000D01*
X667600000Y935570000D02*
X676850000Y926320000D01*
X659900000Y955800000D02*
X667600000Y948100000D01*
X667600000Y948100000D02*
X667600000Y935570000D01*
X659900000Y960300000D02*
X659900000Y955800000D01*
D27*
X627450000Y945900000D02*
X646938922Y945900000D01*
X646938922Y945900000D02*
X648594461Y947555539D01*
X579800000Y934600000D02*
X581900000Y932500000D01*
X579800000Y951400000D02*
X579800000Y934600000D01*
X581800000Y953400000D02*
X579800000Y951400000D01*
X605508910Y963400010D02*
X610748920Y958160000D01*
X591800010Y963400010D02*
X605508910Y963400010D01*
X610748920Y958160000D02*
X612800000Y958160000D01*
X581800000Y953400000D02*
X591800010Y963400010D01*
X615190000Y958160000D02*
X627450000Y945900000D01*
X612800000Y958160000D02*
X615190000Y958160000D01*
D26*
X624650000Y920050000D02*
X624700000Y920000000D01*
X666750001Y923500001D02*
X671000000Y927750000D01*
X630025001Y923500001D02*
X666750001Y923500001D01*
X626525000Y920000000D02*
X630025001Y923500001D01*
X624700000Y920000000D02*
X626525000Y920000000D01*
X671849991Y963349991D02*
X671849991Y962849991D01*
X675550000Y967050000D02*
X671849991Y963349991D01*
X671849991Y947710009D02*
X671849991Y948049991D01*
X673450000Y946110000D02*
X671849991Y947710009D01*
X671849991Y948049991D02*
X671849991Y947810009D01*
X671849991Y962849991D02*
X671849991Y948049991D01*
X672450001Y949649999D02*
X673450000Y948650000D01*
X672450001Y961450001D02*
X672450001Y949649999D01*
X675550000Y964550000D02*
X672450001Y961450001D01*
X664650001Y949249999D02*
X658600000Y955300000D01*
X664650001Y939790001D02*
X664650001Y949249999D01*
X663350000Y938490000D02*
X664650001Y939790001D01*
X658600000Y955300000D02*
X658600000Y959400000D01*
X657434999Y954565001D02*
X657434999Y955365001D01*
X663350000Y948650000D02*
X657434999Y954565001D01*
X657434999Y958240002D02*
X657434999Y955365001D01*
D27*
X604500000Y938450000D02*
X604500000Y933450000D01*
X598650000Y932600000D02*
X604500000Y938450000D01*
X594500000Y932600000D02*
X598650000Y932600000D01*
X603650000Y932600000D02*
X604500000Y933450000D01*
X594500000Y932600000D02*
X603650000Y932600000D01*
D26*
X624700000Y918175000D02*
X624700000Y918540212D01*
X624675000Y918150000D02*
X624700000Y918175000D01*
D27*
X612680000Y963300000D02*
X612700000Y963280000D01*
X612700000Y963280000D02*
X619870000Y963280000D01*
X630499990Y952650010D02*
X650571071Y952650010D01*
X619870000Y963280000D02*
X630499990Y952650010D01*
X636600000Y935450000D02*
X630300000Y935450000D01*
X653800000Y945689998D02*
X653800000Y947350000D01*
X643560002Y935450000D02*
X653800000Y945689998D01*
X636600000Y935450000D02*
X643560002Y935450000D01*
X653800000Y949421081D02*
X653800000Y947350000D01*
X650571071Y952650010D02*
X653800000Y949421081D01*
X624050000Y929200000D02*
X626025000Y931175000D01*
X626025000Y931175000D02*
X621400000Y926550000D01*
X624250000Y929400000D02*
X627775000Y932925000D01*
X627775000Y932925000D02*
X626025000Y931175000D01*
X630300000Y935450000D02*
X627775000Y932925000D01*
X604500000Y918450000D02*
X604500000Y923450000D01*
X607600000Y926550000D02*
X621400000Y926550000D01*
X604500000Y923450000D02*
X607600000Y926550000D01*
X618900000Y944350000D02*
X614341999Y948908001D01*
X606058001Y948908001D02*
X614341999Y948908001D01*
X604350000Y947200000D02*
X606058001Y948908001D01*
D26*
X634100000Y940550000D02*
X628550000Y940550000D01*
X625925000Y937925000D02*
X624249990Y936249990D01*
X628550000Y940550000D02*
X625925000Y937925000D01*
X618650000Y930650000D02*
X625925000Y937925000D01*
X618200000Y930200000D02*
X618650000Y930650000D01*
X617800000Y929800000D02*
X618250000Y930250000D01*
X602950010Y915299990D02*
X601050000Y917200000D01*
X609600000Y916400000D02*
X608499990Y915299990D01*
X608499990Y915299990D02*
X602950010Y915299990D01*
X609600000Y919960002D02*
X609600000Y916400000D01*
X613600000Y921200000D02*
X610839998Y921200000D01*
X610839998Y921200000D02*
X609600000Y919960002D01*
X618250000Y930250000D02*
X618099990Y930099990D01*
X615700000Y919100000D02*
X613600000Y921200000D01*
X618650000Y930650000D02*
X618250000Y930250000D01*
X602150000Y926150000D02*
X605800000Y929800000D01*
X605800000Y929800000D02*
X617800000Y929800000D01*
X602150000Y926150000D02*
X601050000Y925050000D01*
X601050000Y917200000D02*
X601050000Y925050000D01*
X619350000Y919100000D02*
X615700000Y919100000D01*
X675348542Y972600000D02*
X677600009Y970348533D01*
X659350000Y972600000D02*
X675348542Y972600000D01*
X677600009Y948949991D02*
X679950000Y946600000D01*
X677600009Y970348533D02*
X677600009Y948949991D01*
X679550000Y939650000D02*
X679600000Y939700000D01*
X679697288Y939700000D02*
X679950000Y939700000D01*
X677000000Y942650000D02*
X679950000Y939700000D01*
X677000000Y970100000D02*
X677000000Y942650000D01*
X675800000Y971300000D02*
X677000000Y970100000D01*
X658000000Y971300000D02*
X675800000Y971300000D01*
X678200000Y944725000D02*
X678175000Y944700000D01*
X678200000Y946600000D02*
X678200000Y944725000D01*
X677800000Y938000000D02*
X677800000Y937950000D01*
X678200000Y938000000D02*
X678150000Y937950000D01*
X678200000Y939700000D02*
X678200000Y938000000D01*
X637280000Y917950000D02*
X636330000Y918900000D01*
X643600000Y917950000D02*
X637280000Y917950000D01*
X673500000Y951850000D02*
X673500000Y955700000D01*
D27*
X588200000Y947200000D02*
X588200000Y920600000D01*
X596200000Y955000000D02*
X594600000Y953400000D01*
X601000000Y953400000D02*
X602600000Y955000000D01*
X594600000Y953400000D02*
X601000000Y953400000D01*
X602600000Y955000000D02*
X596200000Y955000000D01*
X604350000Y955000000D02*
X602600000Y955000000D01*
D26*
X621350000Y918150000D02*
X624675000Y918150000D01*
D28*
X682090000Y919151247D02*
X681935163Y919382977D01*
X681632977Y919685163D01*
X681277645Y919922588D01*
X680882821Y920086130D01*
X680463677Y920169503D01*
X680036323Y920169503D01*
X679617179Y920086130D01*
X679222355Y919922588D01*
X678867023Y919685163D01*
X678564837Y919382977D01*
X678335292Y919039439D01*
X678338072Y919550000D01*
X678325812Y919674482D01*
X678289502Y919794180D01*
X678230537Y919904494D01*
X678151185Y920001185D01*
X678054494Y920080537D01*
X677944180Y920139502D01*
X677871620Y920161513D01*
X678003475Y920293368D01*
X678165990Y920536589D01*
X678277932Y920806842D01*
X678335000Y921093740D01*
X678335000Y921386260D01*
X678277932Y921673158D01*
X678165990Y921943411D01*
X678003475Y922186632D01*
X677796632Y922393475D01*
X677622240Y922510000D01*
X677796632Y922626525D01*
X678003475Y922833368D01*
X678165990Y923076589D01*
X678277932Y923346842D01*
X678335000Y923633740D01*
X678335000Y923926260D01*
X678277932Y924213158D01*
X678165990Y924483411D01*
X678003475Y924726632D01*
X677796632Y924933475D01*
X677622240Y925050000D01*
X677796632Y925166525D01*
X678003475Y925373368D01*
X678165990Y925616589D01*
X678277932Y925886842D01*
X678335000Y926173740D01*
X678335000Y926466260D01*
X678277932Y926753158D01*
X678165990Y927023411D01*
X678003475Y927266632D01*
X677796632Y927473475D01*
X677622240Y927590000D01*
X677796632Y927706525D01*
X678003475Y927913368D01*
X678165990Y928156589D01*
X678277932Y928426842D01*
X678335000Y928713740D01*
X678335000Y929006260D01*
X678277932Y929293158D01*
X678165990Y929563411D01*
X678003475Y929806632D01*
X677796632Y930013475D01*
X677622240Y930130000D01*
X677796632Y930246525D01*
X678003475Y930453368D01*
X678165990Y930696589D01*
X678277932Y930966842D01*
X678335000Y931253740D01*
X678335000Y931546260D01*
X678277932Y931833158D01*
X678165990Y932103411D01*
X678003475Y932346632D01*
X677796632Y932553475D01*
X677553411Y932715990D01*
X677283158Y932827932D01*
X676996260Y932885000D01*
X676703740Y932885000D01*
X676416842Y932827932D01*
X676146589Y932715990D01*
X675903368Y932553475D01*
X675696525Y932346632D01*
X675534010Y932103411D01*
X675422068Y931833158D01*
X675365000Y931546260D01*
X675365000Y931455158D01*
X672256652Y934563505D01*
X672355820Y934510498D01*
X672475518Y934474188D01*
X672600000Y934461928D01*
X674300000Y934461928D01*
X674424482Y934474188D01*
X674544180Y934510498D01*
X674654494Y934569463D01*
X674751185Y934648815D01*
X674830537Y934745506D01*
X674889502Y934855820D01*
X674925812Y934975518D01*
X674938072Y935100000D01*
X674938072Y936800000D01*
X674925812Y936924482D01*
X674889502Y937044180D01*
X674830537Y937154494D01*
X674751185Y937251185D01*
X674654494Y937330537D01*
X674544180Y937389502D01*
X674471620Y937411513D01*
X674603475Y937543368D01*
X674765990Y937786589D01*
X674877932Y938056842D01*
X674935000Y938343740D01*
X674935000Y938636260D01*
X674877932Y938923158D01*
X674765990Y939193411D01*
X674603475Y939436632D01*
X674396632Y939643475D01*
X674214466Y939765195D01*
X674331355Y939834822D01*
X674547588Y940029731D01*
X674721641Y940263080D01*
X674846825Y940525901D01*
X674891476Y940673110D01*
X674770155Y940903000D01*
X673577000Y940903000D01*
X673577000Y940883000D01*
X673323000Y940883000D01*
X673323000Y940903000D01*
X672129845Y940903000D01*
X672008524Y940673110D01*
X672053175Y940525901D01*
X672178359Y940263080D01*
X672352412Y940029731D01*
X672568645Y939834822D01*
X672685534Y939765195D01*
X672503368Y939643475D01*
X672296525Y939436632D01*
X672134010Y939193411D01*
X672022068Y938923158D01*
X671965000Y938636260D01*
X671965000Y938343740D01*
X672022068Y938056842D01*
X672134010Y937786589D01*
X672296525Y937543368D01*
X672428380Y937411513D01*
X672355820Y937389502D01*
X672245506Y937330537D01*
X672148815Y937251185D01*
X672069463Y937154494D01*
X672010498Y937044180D01*
X671974188Y936924482D01*
X671961928Y936800000D01*
X671961928Y935100000D01*
X671974188Y934975518D01*
X672010498Y934855820D01*
X672063505Y934756652D01*
X670185000Y936635157D01*
X670185000Y948611444D01*
X670188797Y948650000D01*
X670185000Y948688560D01*
X670185000Y948688561D01*
X670181020Y948728974D01*
X670173642Y948803887D01*
X670128754Y948951860D01*
X670112775Y948981755D01*
X670055862Y949088233D01*
X669957764Y949207764D01*
X669927811Y949232346D01*
X661885000Y957275157D01*
X661885000Y960639198D01*
X661887267Y960640713D01*
X662059287Y960812733D01*
X662194443Y961015008D01*
X662287540Y961239764D01*
X662335000Y961478363D01*
X662335000Y961721637D01*
X662287540Y961960236D01*
X662194443Y962184992D01*
X662059287Y962387267D01*
X661887267Y962559287D01*
X661684992Y962694443D01*
X661460236Y962787540D01*
X661221637Y962835000D01*
X660978363Y962835000D01*
X660739764Y962787540D01*
X660515008Y962694443D01*
X660312733Y962559287D01*
X660140713Y962387267D01*
X660005557Y962184992D01*
X659912460Y961960236D01*
X659865000Y961721637D01*
X659865000Y961535000D01*
X659778363Y961535000D01*
X659539764Y961487540D01*
X659315008Y961394443D01*
X659112733Y961259287D01*
X658940713Y961087267D01*
X658805557Y960884992D01*
X658712460Y960660236D01*
X658707440Y960635000D01*
X658478363Y960635000D01*
X658239764Y960587540D01*
X658015008Y960494443D01*
X657812733Y960359287D01*
X657640713Y960187267D01*
X657505557Y959984992D01*
X657412460Y959760236D01*
X657365000Y959521637D01*
X657365000Y959475002D01*
X657313362Y959475002D01*
X657074763Y959427542D01*
X656850007Y959334445D01*
X656647732Y959199289D01*
X656475712Y959027269D01*
X656340556Y958824994D01*
X656247459Y958600238D01*
X656199999Y958361639D01*
X656199999Y958118365D01*
X656247459Y957879766D01*
X656340556Y957655010D01*
X656475712Y957452735D01*
X656647732Y957280715D01*
X656649999Y957279200D01*
X656650000Y955403572D01*
X656649999Y955403562D01*
X656649999Y954603554D01*
X656646202Y954565001D01*
X656649999Y954526448D01*
X656649999Y954526441D01*
X656661358Y954411115D01*
X656706245Y954263142D01*
X656779137Y954126769D01*
X656877235Y954007237D01*
X656907189Y953982654D01*
X661902925Y948986918D01*
X661865000Y948796260D01*
X661865000Y948503740D01*
X661922068Y948216842D01*
X662034010Y947946589D01*
X662196525Y947703368D01*
X662403368Y947496525D01*
X662577760Y947380000D01*
X662403368Y947263475D01*
X662196525Y947056632D01*
X662034010Y946813411D01*
X661922068Y946543158D01*
X661865000Y946256260D01*
X661865000Y945963740D01*
X661922068Y945676842D01*
X662034010Y945406589D01*
X662196525Y945163368D01*
X662403368Y944956525D01*
X662577760Y944840000D01*
X662403368Y944723475D01*
X662196525Y944516632D01*
X662034010Y944273411D01*
X661922068Y944003158D01*
X661865000Y943716260D01*
X661865000Y943423740D01*
X661922068Y943136842D01*
X662034010Y942866589D01*
X662196525Y942623368D01*
X662403368Y942416525D01*
X662585534Y942294805D01*
X662468645Y942225178D01*
X662252412Y942030269D01*
X662078359Y941796920D01*
X661953175Y941534099D01*
X661908524Y941386890D01*
X662029845Y941157000D01*
X663223000Y941157000D01*
X663223000Y941177000D01*
X663477000Y941177000D01*
X663477000Y941157000D01*
X663497000Y941157000D01*
X663497000Y940903000D01*
X663477000Y940903000D01*
X663477000Y940883000D01*
X663223000Y940883000D01*
X663223000Y940903000D01*
X662029845Y940903000D01*
X661908524Y940673110D01*
X661953175Y940525901D01*
X662078359Y940263080D01*
X662252412Y940029731D01*
X662468645Y939834822D01*
X662585534Y939765195D01*
X662403368Y939643475D01*
X662196525Y939436632D01*
X662034010Y939193411D01*
X661922068Y938923158D01*
X661865000Y938636260D01*
X661865000Y938343740D01*
X661922068Y938056842D01*
X662034010Y937786589D01*
X662196525Y937543368D01*
X662328380Y937411513D01*
X662255820Y937389502D01*
X662145506Y937330537D01*
X662048815Y937251185D01*
X661969463Y937154494D01*
X661910498Y937044180D01*
X661874188Y936924482D01*
X661861928Y936800000D01*
X661861928Y935100000D01*
X661874188Y934975518D01*
X661910498Y934855820D01*
X661969463Y934745506D01*
X662048815Y934648815D01*
X662145506Y934569463D01*
X662255820Y934510498D01*
X662375518Y934474188D01*
X662500000Y934461928D01*
X664200000Y934461928D01*
X664324482Y934474188D01*
X664444180Y934510498D01*
X664554494Y934569463D01*
X664651185Y934648815D01*
X664730537Y934745506D01*
X664789502Y934855820D01*
X664825812Y934975518D01*
X664838072Y935100000D01*
X664838072Y936800000D01*
X664825812Y936924482D01*
X664789502Y937044180D01*
X664730537Y937154494D01*
X664651185Y937251185D01*
X664554494Y937330537D01*
X664444180Y937389502D01*
X664371620Y937411513D01*
X664503475Y937543368D01*
X664665990Y937786589D01*
X664777932Y938056842D01*
X664835000Y938343740D01*
X664835000Y938636260D01*
X664797076Y938826918D01*
X665177818Y939207660D01*
X665207765Y939232237D01*
X665305863Y939351768D01*
X665378755Y939488141D01*
X665423642Y939636114D01*
X665435001Y939751440D01*
X665435001Y939751447D01*
X665438798Y939790000D01*
X665435001Y939828553D01*
X665435001Y949154841D01*
X666815000Y947774842D01*
X666815001Y935608563D01*
X666811203Y935570000D01*
X666826359Y935416114D01*
X666871246Y935268141D01*
X666887314Y935238080D01*
X666944139Y935131767D01*
X666970210Y935100000D01*
X667017655Y935042188D01*
X667017659Y935042184D01*
X667042237Y935012236D01*
X667072185Y934987658D01*
X675402924Y926656918D01*
X675365000Y926466260D01*
X675365000Y926173740D01*
X675422068Y925886842D01*
X675534010Y925616589D01*
X675696525Y925373368D01*
X675903368Y925166525D01*
X676077760Y925050000D01*
X675903368Y924933475D01*
X675696525Y924726632D01*
X675534010Y924483411D01*
X675422068Y924213158D01*
X675365000Y923926260D01*
X675365000Y923633740D01*
X675422068Y923346842D01*
X675534010Y923076589D01*
X675696525Y922833368D01*
X675903368Y922626525D01*
X676077760Y922510000D01*
X675903368Y922393475D01*
X675696525Y922186632D01*
X675534010Y921943411D01*
X675422068Y921673158D01*
X675365000Y921386260D01*
X675365000Y921093740D01*
X675422068Y920806842D01*
X675534010Y920536589D01*
X675696525Y920293368D01*
X675828380Y920161513D01*
X675755820Y920139502D01*
X675645506Y920080537D01*
X675548815Y920001185D01*
X675469463Y919904494D01*
X675410498Y919794180D01*
X675374188Y919674482D01*
X675361928Y919550000D01*
X675365000Y918985750D01*
X675523750Y918827000D01*
X676723000Y918827000D01*
X676723000Y918847000D01*
X676977000Y918847000D01*
X676977000Y918827000D01*
X676997000Y918827000D01*
X676997000Y918573000D01*
X676977000Y918573000D01*
X676977000Y917373750D01*
X677135750Y917215000D01*
X677700000Y917211928D01*
X677824482Y917224188D01*
X677944180Y917260498D01*
X678054494Y917319463D01*
X678151185Y917398815D01*
X678156330Y917405084D01*
X678163870Y917367179D01*
X678327412Y916972355D01*
X678564837Y916617023D01*
X678867023Y916314837D01*
X679222355Y916077412D01*
X679617179Y915913870D01*
X680036323Y915830497D01*
X680463677Y915830497D01*
X680882821Y915913870D01*
X681277645Y916077412D01*
X681632977Y916314837D01*
X681935163Y916617023D01*
X682090000Y916848753D01*
X682090000Y915360000D01*
X631264787Y915360000D01*
X631301860Y915371246D01*
X631438233Y915444138D01*
X631557764Y915542236D01*
X631628116Y915627959D01*
X633453082Y917452925D01*
X633643740Y917415000D01*
X633936260Y917415000D01*
X634223158Y917472068D01*
X634493411Y917584010D01*
X634736632Y917746525D01*
X634943475Y917953368D01*
X635060000Y918127760D01*
X635176525Y917953368D01*
X635383368Y917746525D01*
X635626589Y917584010D01*
X635896842Y917472068D01*
X636183740Y917415000D01*
X636476260Y917415000D01*
X636666918Y917452925D01*
X636697653Y917422190D01*
X636722236Y917392236D01*
X636841767Y917294138D01*
X636972636Y917224188D01*
X636978140Y917221246D01*
X637126113Y917176358D01*
X637201026Y917168980D01*
X637241439Y917165000D01*
X637241444Y917165000D01*
X637280000Y917161203D01*
X637318556Y917165000D01*
X641993087Y917165000D01*
X642018153Y917104485D01*
X642213500Y916812129D01*
X642462129Y916563500D01*
X642754485Y916368153D01*
X643079335Y916233596D01*
X643424193Y916165000D01*
X643775807Y916165000D01*
X644120665Y916233596D01*
X644445515Y916368153D01*
X644737871Y916563500D01*
X644882022Y916707651D01*
X657937256Y916707651D01*
X658051118Y916427910D01*
X658366296Y916272039D01*
X658705826Y916180651D01*
X659056661Y916157259D01*
X659405319Y916202760D01*
X659738400Y916315406D01*
X659948882Y916427910D01*
X660062744Y916707651D01*
X659000000Y917770395D01*
X657937256Y916707651D01*
X644882022Y916707651D01*
X644986500Y916812129D01*
X645181847Y917104485D01*
X645316404Y917429335D01*
X645385000Y917774193D01*
X645385000Y917893339D01*
X657207259Y917893339D01*
X657252760Y917544681D01*
X657365406Y917211600D01*
X657477910Y917001118D01*
X657757651Y916887256D01*
X658820395Y917950000D01*
X659179605Y917950000D01*
X660242349Y916887256D01*
X660522090Y917001118D01*
X660677961Y917316296D01*
X660769349Y917655826D01*
X660782295Y917850000D01*
X675361928Y917850000D01*
X675374188Y917725518D01*
X675410498Y917605820D01*
X675469463Y917495506D01*
X675548815Y917398815D01*
X675645506Y917319463D01*
X675755820Y917260498D01*
X675875518Y917224188D01*
X676000000Y917211928D01*
X676564250Y917215000D01*
X676723000Y917373750D01*
X676723000Y918573000D01*
X675523750Y918573000D01*
X675365000Y918414250D01*
X675361928Y917850000D01*
X660782295Y917850000D01*
X660792741Y918006661D01*
X660747240Y918355319D01*
X660634594Y918688400D01*
X660569599Y918810000D01*
X663211928Y918810000D01*
X663224188Y918685518D01*
X663260498Y918565820D01*
X663319463Y918455506D01*
X663398815Y918358815D01*
X663495506Y918279463D01*
X663605820Y918220498D01*
X663725518Y918184188D01*
X663850000Y918171928D01*
X664414250Y918175000D01*
X664573000Y918333750D01*
X664573000Y919533000D01*
X664827000Y919533000D01*
X664827000Y918333750D01*
X664985750Y918175000D01*
X665550000Y918171928D01*
X665674482Y918184188D01*
X665794180Y918220498D01*
X665904494Y918279463D01*
X666001185Y918358815D01*
X666080537Y918455506D01*
X666139502Y918565820D01*
X666175812Y918685518D01*
X666188072Y918810000D01*
X666185000Y919374250D01*
X666026250Y919533000D01*
X664827000Y919533000D01*
X664573000Y919533000D01*
X663373750Y919533000D01*
X663215000Y919374250D01*
X663211928Y918810000D01*
X660569599Y918810000D01*
X660522090Y918898882D01*
X660242349Y919012744D01*
X659179605Y917950000D01*
X658820395Y917950000D01*
X657757651Y919012744D01*
X657477910Y918898882D01*
X657322039Y918583704D01*
X657230651Y918244174D01*
X657207259Y917893339D01*
X645385000Y917893339D01*
X645385000Y918125807D01*
X645316404Y918470665D01*
X645181847Y918795515D01*
X644986500Y919087871D01*
X644882022Y919192349D01*
X657937256Y919192349D01*
X659000000Y918129605D01*
X660062744Y919192349D01*
X659948882Y919472090D01*
X659633704Y919627961D01*
X659294174Y919719349D01*
X658943339Y919742741D01*
X658594681Y919697240D01*
X658261600Y919584594D01*
X658051118Y919472090D01*
X657937256Y919192349D01*
X644882022Y919192349D01*
X644737871Y919336500D01*
X644445515Y919531847D01*
X644120665Y919666404D01*
X643775807Y919735000D01*
X643424193Y919735000D01*
X643079335Y919666404D01*
X642754485Y919531847D01*
X642462129Y919336500D01*
X642213500Y919087871D01*
X642018153Y918795515D01*
X641993087Y918735000D01*
X637811272Y918735000D01*
X637815000Y918753740D01*
X637815000Y919046260D01*
X637757932Y919333158D01*
X637645990Y919603411D01*
X637483475Y919846632D01*
X637276632Y920053475D01*
X637033411Y920215990D01*
X636763158Y920327932D01*
X636476260Y920385000D01*
X636183740Y920385000D01*
X635896842Y920327932D01*
X635626589Y920215990D01*
X635383368Y920053475D01*
X635176525Y919846632D01*
X635060000Y919672240D01*
X634943475Y919846632D01*
X634736632Y920053475D01*
X634493411Y920215990D01*
X634223158Y920327932D01*
X633936260Y920385000D01*
X633643740Y920385000D01*
X633356842Y920327932D01*
X633086589Y920215990D01*
X632843368Y920053475D01*
X632711513Y919921620D01*
X632689502Y919994180D01*
X632630537Y920104494D01*
X632551185Y920201185D01*
X632454494Y920280537D01*
X632344180Y920339502D01*
X632224482Y920375812D01*
X632100000Y920388072D01*
X631535750Y920385000D01*
X631377000Y920226250D01*
X631377000Y919027000D01*
X631397000Y919027000D01*
X631397000Y918773000D01*
X631377000Y918773000D01*
X631377000Y918753000D01*
X631123000Y918753000D01*
X631123000Y918773000D01*
X629923750Y918773000D01*
X629765000Y918614250D01*
X629761928Y918050000D01*
X629774188Y917925518D01*
X629810498Y917805820D01*
X629869463Y917695506D01*
X629948815Y917598815D01*
X630045506Y917519463D01*
X630155820Y917460498D01*
X630275518Y917424188D01*
X630400000Y917411928D01*
X630964250Y917415000D01*
X631122998Y917573748D01*
X631122998Y917415000D01*
X631194843Y917415000D01*
X630664843Y916885000D01*
X615025157Y916885000D01*
X614337111Y917573046D01*
X614450000Y917561928D01*
X616950000Y917561928D01*
X617074482Y917574188D01*
X617194180Y917610498D01*
X617304494Y917669463D01*
X617401185Y917748815D01*
X617480537Y917845506D01*
X617539502Y917955820D01*
X617575812Y918075518D01*
X617588072Y918200000D01*
X617588072Y918315000D01*
X618394499Y918315000D01*
X618448815Y918248815D01*
X618545506Y918169463D01*
X618655820Y918110498D01*
X618775518Y918074188D01*
X618900000Y918061928D01*
X619800000Y918061928D01*
X619924482Y918074188D01*
X620044180Y918110498D01*
X620154494Y918169463D01*
X620251185Y918248815D01*
X620261928Y918261905D01*
X620261928Y917750000D01*
X620274188Y917625518D01*
X620310498Y917505820D01*
X620369463Y917395506D01*
X620448815Y917298815D01*
X620545506Y917219463D01*
X620655820Y917160498D01*
X620775518Y917124188D01*
X620900000Y917111928D01*
X621800000Y917111928D01*
X621924482Y917124188D01*
X622044180Y917160498D01*
X622154494Y917219463D01*
X622251185Y917298815D01*
X622305501Y917365000D01*
X623794856Y917365000D01*
X623843377Y917305877D01*
X623976058Y917196988D01*
X624127433Y917116077D01*
X624291684Y917066252D01*
X624462500Y917049428D01*
X624937500Y917049428D01*
X625108316Y917066252D01*
X625272567Y917116077D01*
X625423942Y917196988D01*
X625556623Y917305877D01*
X625665512Y917438558D01*
X625746423Y917589933D01*
X625796248Y917754184D01*
X625813072Y917925000D01*
X625813072Y918425000D01*
X625796248Y918595816D01*
X625746423Y918760067D01*
X625665512Y918911442D01*
X625556623Y919044123D01*
X625503768Y919087500D01*
X625556623Y919130877D01*
X625625661Y919215000D01*
X626486447Y919215000D01*
X626525000Y919211203D01*
X626563553Y919215000D01*
X626563561Y919215000D01*
X626678887Y919226359D01*
X626826860Y919271246D01*
X626963233Y919344138D01*
X627082764Y919442236D01*
X627107347Y919472190D01*
X627385157Y919750000D01*
X629761928Y919750000D01*
X629765000Y919185750D01*
X629923750Y919027000D01*
X631123000Y919027000D01*
X631123000Y920226250D01*
X630964250Y920385000D01*
X630400000Y920388072D01*
X630275518Y920375812D01*
X630155820Y920339502D01*
X630045506Y920280537D01*
X629948815Y920201185D01*
X629869463Y920104494D01*
X629810498Y919994180D01*
X629774188Y919874482D01*
X629761928Y919750000D01*
X627385157Y919750000D01*
X630350158Y922715001D01*
X663305968Y922715001D01*
X663272068Y922633158D01*
X663215000Y922346260D01*
X663215000Y922053740D01*
X663272068Y921766842D01*
X663384010Y921496589D01*
X663546525Y921253368D01*
X663678380Y921121513D01*
X663605820Y921099502D01*
X663495506Y921040537D01*
X663398815Y920961185D01*
X663319463Y920864494D01*
X663260498Y920754180D01*
X663224188Y920634482D01*
X663211928Y920510000D01*
X663215000Y919945750D01*
X663373750Y919787000D01*
X664573000Y919787000D01*
X664573000Y919807000D01*
X664827000Y919807000D01*
X664827000Y919787000D01*
X666026250Y919787000D01*
X666185000Y919945750D01*
X666188072Y920510000D01*
X666175812Y920634482D01*
X666139502Y920754180D01*
X666080537Y920864494D01*
X666001185Y920961185D01*
X665904494Y921040537D01*
X665794180Y921099502D01*
X665721620Y921121513D01*
X665853475Y921253368D01*
X666015990Y921496589D01*
X666127932Y921766842D01*
X666185000Y922053740D01*
X666185000Y922346260D01*
X666127932Y922633158D01*
X666094032Y922715001D01*
X666711448Y922715001D01*
X666750001Y922711204D01*
X666788554Y922715001D01*
X666788562Y922715001D01*
X666903888Y922726360D01*
X667051861Y922771247D01*
X667188234Y922844139D01*
X667307765Y922942237D01*
X667332348Y922972191D01*
X670875690Y926515532D01*
X670878363Y926515000D01*
X671121637Y926515000D01*
X671360236Y926562460D01*
X671584992Y926655557D01*
X671787267Y926790713D01*
X671959287Y926962733D01*
X672094443Y927165008D01*
X672187540Y927389764D01*
X672235000Y927628363D01*
X672235000Y927871637D01*
X672187540Y928110236D01*
X672094443Y928334992D01*
X671959287Y928537267D01*
X671787267Y928709287D01*
X671584992Y928844443D01*
X671360236Y928937540D01*
X671121637Y928985000D01*
X670878363Y928985000D01*
X670639764Y928937540D01*
X670415008Y928844443D01*
X670212733Y928709287D01*
X670040713Y928537267D01*
X669905557Y928334992D01*
X669812460Y928110236D01*
X669765000Y927871637D01*
X669765000Y927628363D01*
X669765532Y927625690D01*
X666424844Y924285001D01*
X630063557Y924285001D01*
X630025001Y924288798D01*
X629986445Y924285001D01*
X629986440Y924285001D01*
X629946027Y924281021D01*
X629871114Y924273643D01*
X629728079Y924230253D01*
X629723141Y924228755D01*
X629586768Y924155863D01*
X629467237Y924057765D01*
X629442656Y924027813D01*
X626199843Y920785000D01*
X625625661Y920785000D01*
X625556623Y920869123D01*
X625423942Y920978012D01*
X625272567Y921058923D01*
X625108316Y921108748D01*
X624937500Y921125572D01*
X624462500Y921125572D01*
X624291684Y921108748D01*
X624127433Y921058923D01*
X623976058Y920978012D01*
X623843377Y920869123D01*
X623734488Y920736442D01*
X623653577Y920585067D01*
X623603752Y920420816D01*
X623586928Y920250000D01*
X623586928Y919750000D01*
X623603752Y919579184D01*
X623653577Y919414933D01*
X623734488Y919263558D01*
X623843377Y919130877D01*
X623896232Y919087500D01*
X623843377Y919044123D01*
X623753822Y918935000D01*
X622305501Y918935000D01*
X622251185Y919001185D01*
X622154494Y919080537D01*
X622118082Y919100000D01*
X622154494Y919119463D01*
X622251185Y919198815D01*
X622330537Y919295506D01*
X622389502Y919405820D01*
X622425812Y919525518D01*
X622438072Y919650000D01*
X622435000Y919764250D01*
X622276250Y919923000D01*
X621477000Y919923000D01*
X621477000Y919903000D01*
X621223000Y919903000D01*
X621223000Y919923000D01*
X620423750Y919923000D01*
X620339143Y919838393D01*
X620330537Y919854494D01*
X620251185Y919951185D01*
X620154494Y920030537D01*
X620044180Y920089502D01*
X619924482Y920125812D01*
X619800000Y920138072D01*
X618900000Y920138072D01*
X618775518Y920125812D01*
X618655820Y920089502D01*
X618545506Y920030537D01*
X618448815Y919951185D01*
X618394499Y919885000D01*
X617588072Y919885000D01*
X617588072Y920000000D01*
X617575812Y920124482D01*
X617539502Y920244180D01*
X617480537Y920354494D01*
X617402158Y920450000D01*
X620261928Y920450000D01*
X620265000Y920335750D01*
X620423750Y920177000D01*
X621223000Y920177000D01*
X621223000Y920926250D01*
X621477000Y920926250D01*
X621477000Y920177000D01*
X622276250Y920177000D01*
X622435000Y920335750D01*
X622438072Y920450000D01*
X622425812Y920574482D01*
X622389502Y920694180D01*
X622330537Y920804494D01*
X622251185Y920901185D01*
X622154494Y920980537D01*
X622044180Y921039502D01*
X621924482Y921075812D01*
X621800000Y921088072D01*
X621635750Y921085000D01*
X621477000Y920926250D01*
X621223000Y920926250D01*
X621064250Y921085000D01*
X620900000Y921088072D01*
X620775518Y921075812D01*
X620655820Y921039502D01*
X620545506Y920980537D01*
X620448815Y920901185D01*
X620369463Y920804494D01*
X620310498Y920694180D01*
X620274188Y920574482D01*
X620261928Y920450000D01*
X617402158Y920450000D01*
X617401185Y920451185D01*
X617304494Y920530537D01*
X617194180Y920589502D01*
X617074482Y920625812D01*
X616950000Y920638072D01*
X615272086Y920638072D01*
X614182347Y921727810D01*
X614157764Y921757764D01*
X614139199Y921773000D01*
X622400000Y921773000D01*
X622422330Y921774978D01*
X622446291Y921781737D01*
X622468474Y921793040D01*
X622488025Y921808454D01*
X626275232Y925450000D01*
X663211928Y925450000D01*
X663224188Y925325518D01*
X663260498Y925205820D01*
X663319463Y925095506D01*
X663398815Y924998815D01*
X663495506Y924919463D01*
X663605820Y924860498D01*
X663725518Y924824188D01*
X663850000Y924811928D01*
X664414250Y924815000D01*
X664573000Y924973750D01*
X664573000Y926173000D01*
X664827000Y926173000D01*
X664827000Y924973750D01*
X664985750Y924815000D01*
X665550000Y924811928D01*
X665674482Y924824188D01*
X665794180Y924860498D01*
X665904494Y924919463D01*
X666001185Y924998815D01*
X666080537Y925095506D01*
X666139502Y925205820D01*
X666175812Y925325518D01*
X666188072Y925450000D01*
X666185000Y926014250D01*
X666026250Y926173000D01*
X664827000Y926173000D01*
X664573000Y926173000D01*
X663373750Y926173000D01*
X663215000Y926014250D01*
X663211928Y925450000D01*
X626275232Y925450000D01*
X632851153Y931773000D01*
X633770191Y931773000D01*
X633674134Y931753893D01*
X633408431Y931643835D01*
X633169304Y931484056D01*
X632965944Y931280696D01*
X632806165Y931041569D01*
X632696107Y930775866D01*
X632640000Y930493797D01*
X632640000Y930206203D01*
X632696107Y929924134D01*
X632806165Y929658431D01*
X632965944Y929419304D01*
X633169304Y929215944D01*
X633408431Y929056165D01*
X633674134Y928946107D01*
X633956203Y928890000D01*
X634243797Y928890000D01*
X634525866Y928946107D01*
X634791569Y929056165D01*
X635030696Y929215944D01*
X635234056Y929419304D01*
X635331407Y929565000D01*
X663398435Y929565000D01*
X663384010Y929543411D01*
X663272068Y929273158D01*
X663215000Y928986260D01*
X663215000Y928693740D01*
X663272068Y928406842D01*
X663384010Y928136589D01*
X663546525Y927893368D01*
X663678380Y927761513D01*
X663605820Y927739502D01*
X663495506Y927680537D01*
X663398815Y927601185D01*
X663319463Y927504494D01*
X663260498Y927394180D01*
X663224188Y927274482D01*
X663211928Y927150000D01*
X663215000Y926585750D01*
X663373750Y926427000D01*
X664573000Y926427000D01*
X664573000Y926447000D01*
X664827000Y926447000D01*
X664827000Y926427000D01*
X666026250Y926427000D01*
X666185000Y926585750D01*
X666188072Y927150000D01*
X666175812Y927274482D01*
X666139502Y927394180D01*
X666080537Y927504494D01*
X666001185Y927601185D01*
X665904494Y927680537D01*
X665794180Y927739502D01*
X665721620Y927761513D01*
X665853475Y927893368D01*
X666015990Y928136589D01*
X666127932Y928406842D01*
X666185000Y928693740D01*
X666185000Y928986260D01*
X666127932Y929273158D01*
X666015990Y929543411D01*
X665853475Y929786632D01*
X665646632Y929993475D01*
X665472240Y930110000D01*
X665646632Y930226525D01*
X665853475Y930433368D01*
X666015990Y930676589D01*
X666127932Y930946842D01*
X666185000Y931233740D01*
X666185000Y931526260D01*
X666127932Y931813158D01*
X666015990Y932083411D01*
X665853475Y932326632D01*
X665646632Y932533475D01*
X665403411Y932695990D01*
X665133158Y932807932D01*
X664846260Y932865000D01*
X664553740Y932865000D01*
X664266842Y932807932D01*
X663996589Y932695990D01*
X663753368Y932533475D01*
X663546525Y932326632D01*
X663384010Y932083411D01*
X663272068Y931813158D01*
X663215000Y931526260D01*
X663215000Y931233740D01*
X663234641Y931135000D01*
X635331407Y931135000D01*
X635234056Y931280696D01*
X635030696Y931484056D01*
X634791569Y931643835D01*
X634525866Y931753893D01*
X634429809Y931773000D01*
X646200000Y931773000D01*
X646223611Y931775214D01*
X646247502Y931782218D01*
X646269567Y931793749D01*
X646288959Y931809362D01*
X657088959Y942409362D01*
X657105597Y942429443D01*
X657117333Y942451399D01*
X657124560Y942475224D01*
X657127000Y942500000D01*
X657127000Y950600000D01*
X657125285Y950620799D01*
X657118820Y950644841D01*
X657107789Y950667160D01*
X657092616Y950686899D01*
X653327000Y954700253D01*
X653327000Y971421637D01*
X656765000Y971421637D01*
X656765000Y971178363D01*
X656812460Y970939764D01*
X656905557Y970715008D01*
X657040713Y970512733D01*
X657212733Y970340713D01*
X657415008Y970205557D01*
X657639764Y970112460D01*
X657878363Y970065000D01*
X658121637Y970065000D01*
X658360236Y970112460D01*
X658584992Y970205557D01*
X658787267Y970340713D01*
X658959287Y970512733D01*
X658960802Y970515000D01*
X674405600Y970515000D01*
X674405496Y970514896D01*
X674521601Y970398791D01*
X674272528Y970321157D01*
X674146629Y970057117D01*
X674074661Y969773589D01*
X674059389Y969481469D01*
X674101401Y969191981D01*
X674199081Y968916253D01*
X674272528Y968778843D01*
X674521603Y968701208D01*
X675370395Y969550000D01*
X675356253Y969564143D01*
X675535858Y969743748D01*
X675550000Y969729605D01*
X675564143Y969743748D01*
X675743748Y969564143D01*
X675729605Y969550000D01*
X675743748Y969535858D01*
X675564143Y969356253D01*
X675550000Y969370395D01*
X674701208Y968521603D01*
X674766410Y968312416D01*
X674603368Y968203475D01*
X674396525Y967996632D01*
X674234010Y967753411D01*
X674122068Y967483158D01*
X674065000Y967196260D01*
X674065000Y966903740D01*
X674102924Y966713082D01*
X671322181Y963932338D01*
X671292227Y963907755D01*
X671194129Y963788223D01*
X671121237Y963651850D01*
X671076350Y963503877D01*
X671064991Y963388551D01*
X671064991Y963388544D01*
X671061194Y963349991D01*
X671064991Y963311438D01*
X671064991Y962888551D01*
X671064992Y948088562D01*
X671064991Y948088552D01*
X671064991Y947748562D01*
X671061194Y947710009D01*
X671064991Y947671456D01*
X671064991Y947671449D01*
X671076350Y947556123D01*
X671121237Y947408150D01*
X671194129Y947271777D01*
X671292227Y947152245D01*
X671322181Y947127662D01*
X672002925Y946446918D01*
X671965000Y946256260D01*
X671965000Y945963740D01*
X672022068Y945676842D01*
X672134010Y945406589D01*
X672296525Y945163368D01*
X672503368Y944956525D01*
X672677760Y944840000D01*
X672503368Y944723475D01*
X672296525Y944516632D01*
X672134010Y944273411D01*
X672022068Y944003158D01*
X671965000Y943716260D01*
X671965000Y943423740D01*
X672022068Y943136842D01*
X672134010Y942866589D01*
X672296525Y942623368D01*
X672503368Y942416525D01*
X672685534Y942294805D01*
X672568645Y942225178D01*
X672352412Y942030269D01*
X672178359Y941796920D01*
X672053175Y941534099D01*
X672008524Y941386890D01*
X672129845Y941157000D01*
X673323000Y941157000D01*
X673323000Y941177000D01*
X673577000Y941177000D01*
X673577000Y941157000D01*
X674770155Y941157000D01*
X674891476Y941386890D01*
X674846825Y941534099D01*
X674721641Y941796920D01*
X674547588Y942030269D01*
X674331355Y942225178D01*
X674214466Y942294805D01*
X674396632Y942416525D01*
X674603475Y942623368D01*
X674765990Y942866589D01*
X674877932Y943136842D01*
X674935000Y943423740D01*
X674935000Y943716260D01*
X674897076Y943906918D01*
X675277818Y944287660D01*
X675307765Y944312237D01*
X675405863Y944431768D01*
X675478755Y944568141D01*
X675523642Y944716114D01*
X675535001Y944831440D01*
X675535001Y944831447D01*
X675538798Y944870000D01*
X675535001Y944908553D01*
X675535001Y960565000D01*
X675696260Y960565000D01*
X675983158Y960622068D01*
X676215000Y960718100D01*
X676215001Y942688563D01*
X676211203Y942650000D01*
X676226359Y942496114D01*
X676271246Y942348141D01*
X676271247Y942348140D01*
X676344139Y942211767D01*
X676384690Y942162356D01*
X676417655Y942122188D01*
X676417659Y942122184D01*
X676442237Y942092236D01*
X676472185Y942067658D01*
X677743423Y940796419D01*
X677741684Y940796248D01*
X677577433Y940746423D01*
X677426058Y940665512D01*
X677293377Y940556623D01*
X677184488Y940423942D01*
X677103577Y940272567D01*
X677053752Y940108316D01*
X677036928Y939937500D01*
X677036928Y939462500D01*
X677053752Y939291684D01*
X677103577Y939127433D01*
X677184488Y938976058D01*
X677293377Y938843377D01*
X677309519Y938830129D01*
X677280877Y938806623D01*
X677171988Y938673942D01*
X677091077Y938522567D01*
X677041252Y938358316D01*
X677024428Y938187500D01*
X677024428Y938134281D01*
X677015000Y938038560D01*
X677015000Y937911439D01*
X677024428Y937815718D01*
X677024428Y937712500D01*
X677041252Y937541684D01*
X677091077Y937377433D01*
X677171988Y937226058D01*
X677280877Y937093377D01*
X677413558Y936984488D01*
X677564933Y936903577D01*
X677729184Y936853752D01*
X677900000Y936836928D01*
X678400000Y936836928D01*
X678570816Y936853752D01*
X678735067Y936903577D01*
X678886442Y936984488D01*
X678995283Y937073812D01*
X679036315Y937023815D01*
X679133006Y936944463D01*
X679243320Y936885498D01*
X679363018Y936849188D01*
X679487500Y936836928D01*
X679689250Y936840000D01*
X679848000Y936998750D01*
X679848000Y937823000D01*
X680102000Y937823000D01*
X680102000Y936998750D01*
X680260750Y936840000D01*
X680462500Y936836928D01*
X680586982Y936849188D01*
X680706680Y936885498D01*
X680816994Y936944463D01*
X680913685Y937023815D01*
X680993037Y937120506D01*
X681052002Y937230820D01*
X681088312Y937350518D01*
X681100572Y937475000D01*
X681097500Y937664250D01*
X680938750Y937823000D01*
X680102000Y937823000D01*
X679848000Y937823000D01*
X679828000Y937823000D01*
X679828000Y938077000D01*
X679848000Y938077000D01*
X679848000Y938097000D01*
X680102000Y938097000D01*
X680102000Y938077000D01*
X680938750Y938077000D01*
X681097500Y938235750D01*
X681100572Y938425000D01*
X681088312Y938549482D01*
X681052002Y938669180D01*
X680993037Y938779494D01*
X680913685Y938876185D01*
X680895677Y938890964D01*
X680965512Y938976058D01*
X681046423Y939127433D01*
X681096248Y939291684D01*
X681113072Y939462500D01*
X681113072Y939937500D01*
X681096248Y940108316D01*
X681046423Y940272567D01*
X680965512Y940423942D01*
X680856623Y940556623D01*
X680723942Y940665512D01*
X680572567Y940746423D01*
X680408316Y940796248D01*
X680237500Y940813072D01*
X679947086Y940813072D01*
X677785000Y942975157D01*
X677785000Y943600717D01*
X677925000Y943586928D01*
X678425000Y943586928D01*
X678595816Y943603752D01*
X678760067Y943653577D01*
X678911442Y943734488D01*
X679020283Y943823812D01*
X679061315Y943773815D01*
X679158006Y943694463D01*
X679268320Y943635498D01*
X679388018Y943599188D01*
X679512500Y943586928D01*
X679714250Y943590000D01*
X679873000Y943748750D01*
X679873000Y944573000D01*
X680127000Y944573000D01*
X680127000Y943748750D01*
X680285750Y943590000D01*
X680487500Y943586928D01*
X680611982Y943599188D01*
X680731680Y943635498D01*
X680841994Y943694463D01*
X680938685Y943773815D01*
X681018037Y943870506D01*
X681077002Y943980820D01*
X681113312Y944100518D01*
X681125572Y944225000D01*
X681122500Y944414250D01*
X680963750Y944573000D01*
X680127000Y944573000D01*
X679873000Y944573000D01*
X679853000Y944573000D01*
X679853000Y944827000D01*
X679873000Y944827000D01*
X679873000Y944847000D01*
X680127000Y944847000D01*
X680127000Y944827000D01*
X680963750Y944827000D01*
X681122500Y944985750D01*
X681125572Y945175000D01*
X681113312Y945299482D01*
X681077002Y945419180D01*
X681018037Y945529494D01*
X680938685Y945626185D01*
X680841994Y945705537D01*
X680822931Y945715727D01*
X680856623Y945743377D01*
X680965512Y945876058D01*
X681046423Y946027433D01*
X681096248Y946191684D01*
X681113072Y946362500D01*
X681113072Y946837500D01*
X681096248Y947008316D01*
X681046423Y947172567D01*
X680965512Y947323942D01*
X680856623Y947456623D01*
X680723942Y947565512D01*
X680572567Y947646423D01*
X680408316Y947696248D01*
X680237500Y947713072D01*
X679947086Y947713072D01*
X678385009Y949275148D01*
X678385009Y954250000D01*
X678511928Y954250000D01*
X678511928Y952550000D01*
X678524188Y952425518D01*
X678560498Y952305820D01*
X678619463Y952195506D01*
X678698815Y952098815D01*
X678795506Y952019463D01*
X678905820Y951960498D01*
X679025518Y951924188D01*
X679150000Y951911928D01*
X680850000Y951911928D01*
X680974482Y951924188D01*
X681094180Y951960498D01*
X681204494Y952019463D01*
X681301185Y952098815D01*
X681380537Y952195506D01*
X681439502Y952305820D01*
X681475812Y952425518D01*
X681488072Y952550000D01*
X681488072Y954250000D01*
X681475812Y954374482D01*
X681439502Y954494180D01*
X681380537Y954604494D01*
X681301185Y954701185D01*
X681204494Y954780537D01*
X681094180Y954839502D01*
X680974482Y954875812D01*
X680850000Y954888072D01*
X679150000Y954888072D01*
X679025518Y954875812D01*
X678905820Y954839502D01*
X678795506Y954780537D01*
X678698815Y954701185D01*
X678619463Y954604494D01*
X678560498Y954494180D01*
X678524188Y954374482D01*
X678511928Y954250000D01*
X678385009Y954250000D01*
X678385009Y970309981D01*
X678388806Y970348534D01*
X678385009Y970387087D01*
X678385009Y970387094D01*
X678373650Y970502420D01*
X678362787Y970538233D01*
X678328763Y970650393D01*
X678300489Y970703290D01*
X678255871Y970786766D01*
X678197624Y970857739D01*
X678182354Y970876346D01*
X678182351Y970876349D01*
X678157773Y970906297D01*
X678127826Y970930874D01*
X675930889Y973127810D01*
X675906306Y973157764D01*
X675786775Y973255862D01*
X675650402Y973328754D01*
X675502429Y973373641D01*
X675387103Y973385000D01*
X675387095Y973385000D01*
X675348542Y973388797D01*
X675309989Y973385000D01*
X660310802Y973385000D01*
X660309287Y973387267D01*
X660137267Y973559287D01*
X659934992Y973694443D01*
X659710236Y973787540D01*
X659471637Y973835000D01*
X659228363Y973835000D01*
X658989764Y973787540D01*
X658765008Y973694443D01*
X658562733Y973559287D01*
X658390713Y973387267D01*
X658255557Y973184992D01*
X658162460Y972960236D01*
X658115000Y972721637D01*
X658115000Y972535000D01*
X657878363Y972535000D01*
X657639764Y972487540D01*
X657415008Y972394443D01*
X657212733Y972259287D01*
X657040713Y972087267D01*
X656905557Y971884992D01*
X656812460Y971660236D01*
X656765000Y971421637D01*
X653327000Y971421637D01*
X653327000Y974173000D01*
X682090001Y974173000D01*
X682090000Y919151247D01*
G04 #@! TA.AperFunction,Conductor*
D29*
G36*
X682090000Y919151247D02*
G01*
X681935163Y919382977D01*
X681632977Y919685163D01*
X681277645Y919922588D01*
X680882821Y920086130D01*
X680463677Y920169503D01*
X680036323Y920169503D01*
X679617179Y920086130D01*
X679222355Y919922588D01*
X678867023Y919685163D01*
X678564837Y919382977D01*
X678335292Y919039439D01*
X678338072Y919550000D01*
X678325812Y919674482D01*
X678289502Y919794180D01*
X678230537Y919904494D01*
X678151185Y920001185D01*
X678054494Y920080537D01*
X677944180Y920139502D01*
X677871620Y920161513D01*
X678003475Y920293368D01*
X678165990Y920536589D01*
X678277932Y920806842D01*
X678335000Y921093740D01*
X678335000Y921386260D01*
X678277932Y921673158D01*
X678165990Y921943411D01*
X678003475Y922186632D01*
X677796632Y922393475D01*
X677622240Y922510000D01*
X677796632Y922626525D01*
X678003475Y922833368D01*
X678165990Y923076589D01*
X678277932Y923346842D01*
X678335000Y923633740D01*
X678335000Y923926260D01*
X678277932Y924213158D01*
X678165990Y924483411D01*
X678003475Y924726632D01*
X677796632Y924933475D01*
X677622240Y925050000D01*
X677796632Y925166525D01*
X678003475Y925373368D01*
X678165990Y925616589D01*
X678277932Y925886842D01*
X678335000Y926173740D01*
X678335000Y926466260D01*
X678277932Y926753158D01*
X678165990Y927023411D01*
X678003475Y927266632D01*
X677796632Y927473475D01*
X677622240Y927590000D01*
X677796632Y927706525D01*
X678003475Y927913368D01*
X678165990Y928156589D01*
X678277932Y928426842D01*
X678335000Y928713740D01*
X678335000Y929006260D01*
X678277932Y929293158D01*
X678165990Y929563411D01*
X678003475Y929806632D01*
X677796632Y930013475D01*
X677622240Y930130000D01*
X677796632Y930246525D01*
X678003475Y930453368D01*
X678165990Y930696589D01*
X678277932Y930966842D01*
X678335000Y931253740D01*
X678335000Y931546260D01*
X678277932Y931833158D01*
X678165990Y932103411D01*
X678003475Y932346632D01*
X677796632Y932553475D01*
X677553411Y932715990D01*
X677283158Y932827932D01*
X676996260Y932885000D01*
X676703740Y932885000D01*
X676416842Y932827932D01*
X676146589Y932715990D01*
X675903368Y932553475D01*
X675696525Y932346632D01*
X675534010Y932103411D01*
X675422068Y931833158D01*
X675365000Y931546260D01*
X675365000Y931455158D01*
X672256652Y934563505D01*
X672355820Y934510498D01*
X672475518Y934474188D01*
X672600000Y934461928D01*
X674300000Y934461928D01*
X674424482Y934474188D01*
X674544180Y934510498D01*
X674654494Y934569463D01*
X674751185Y934648815D01*
X674830537Y934745506D01*
X674889502Y934855820D01*
X674925812Y934975518D01*
X674938072Y935100000D01*
X674938072Y936800000D01*
X674925812Y936924482D01*
X674889502Y937044180D01*
X674830537Y937154494D01*
X674751185Y937251185D01*
X674654494Y937330537D01*
X674544180Y937389502D01*
X674471620Y937411513D01*
X674603475Y937543368D01*
X674765990Y937786589D01*
X674877932Y938056842D01*
X674935000Y938343740D01*
X674935000Y938636260D01*
X674877932Y938923158D01*
X674765990Y939193411D01*
X674603475Y939436632D01*
X674396632Y939643475D01*
X674214466Y939765195D01*
X674331355Y939834822D01*
X674547588Y940029731D01*
X674721641Y940263080D01*
X674846825Y940525901D01*
X674891476Y940673110D01*
X674770155Y940903000D01*
X673577000Y940903000D01*
X673577000Y940883000D01*
X673323000Y940883000D01*
X673323000Y940903000D01*
X672129845Y940903000D01*
X672008524Y940673110D01*
X672053175Y940525901D01*
X672178359Y940263080D01*
X672352412Y940029731D01*
X672568645Y939834822D01*
X672685534Y939765195D01*
X672503368Y939643475D01*
X672296525Y939436632D01*
X672134010Y939193411D01*
X672022068Y938923158D01*
X671965000Y938636260D01*
X671965000Y938343740D01*
X672022068Y938056842D01*
X672134010Y937786589D01*
X672296525Y937543368D01*
X672428380Y937411513D01*
X672355820Y937389502D01*
X672245506Y937330537D01*
X672148815Y937251185D01*
X672069463Y937154494D01*
X672010498Y937044180D01*
X671974188Y936924482D01*
X671961928Y936800000D01*
X671961928Y935100000D01*
X671974188Y934975518D01*
X672010498Y934855820D01*
X672063505Y934756652D01*
X670185000Y936635157D01*
X670185000Y948611444D01*
X670188797Y948650000D01*
X670185000Y948688560D01*
X670185000Y948688561D01*
X670181020Y948728974D01*
X670173642Y948803887D01*
X670128754Y948951860D01*
X670112775Y948981755D01*
X670055862Y949088233D01*
X669957764Y949207764D01*
X669927811Y949232346D01*
X661885000Y957275157D01*
X661885000Y960639198D01*
X661887267Y960640713D01*
X662059287Y960812733D01*
X662194443Y961015008D01*
X662287540Y961239764D01*
X662335000Y961478363D01*
X662335000Y961721637D01*
X662287540Y961960236D01*
X662194443Y962184992D01*
X662059287Y962387267D01*
X661887267Y962559287D01*
X661684992Y962694443D01*
X661460236Y962787540D01*
X661221637Y962835000D01*
X660978363Y962835000D01*
X660739764Y962787540D01*
X660515008Y962694443D01*
X660312733Y962559287D01*
X660140713Y962387267D01*
X660005557Y962184992D01*
X659912460Y961960236D01*
X659865000Y961721637D01*
X659865000Y961535000D01*
X659778363Y961535000D01*
X659539764Y961487540D01*
X659315008Y961394443D01*
X659112733Y961259287D01*
X658940713Y961087267D01*
X658805557Y960884992D01*
X658712460Y960660236D01*
X658707440Y960635000D01*
X658478363Y960635000D01*
X658239764Y960587540D01*
X658015008Y960494443D01*
X657812733Y960359287D01*
X657640713Y960187267D01*
X657505557Y959984992D01*
X657412460Y959760236D01*
X657365000Y959521637D01*
X657365000Y959475002D01*
X657313362Y959475002D01*
X657074763Y959427542D01*
X656850007Y959334445D01*
X656647732Y959199289D01*
X656475712Y959027269D01*
X656340556Y958824994D01*
X656247459Y958600238D01*
X656199999Y958361639D01*
X656199999Y958118365D01*
X656247459Y957879766D01*
X656340556Y957655010D01*
X656475712Y957452735D01*
X656647732Y957280715D01*
X656649999Y957279200D01*
X656650000Y955403572D01*
X656649999Y955403562D01*
X656649999Y954603554D01*
X656646202Y954565001D01*
X656649999Y954526448D01*
X656649999Y954526441D01*
X656661358Y954411115D01*
X656706245Y954263142D01*
X656779137Y954126769D01*
X656877235Y954007237D01*
X656907189Y953982654D01*
X661902925Y948986918D01*
X661865000Y948796260D01*
X661865000Y948503740D01*
X661922068Y948216842D01*
X662034010Y947946589D01*
X662196525Y947703368D01*
X662403368Y947496525D01*
X662577760Y947380000D01*
X662403368Y947263475D01*
X662196525Y947056632D01*
X662034010Y946813411D01*
X661922068Y946543158D01*
X661865000Y946256260D01*
X661865000Y945963740D01*
X661922068Y945676842D01*
X662034010Y945406589D01*
X662196525Y945163368D01*
X662403368Y944956525D01*
X662577760Y944840000D01*
X662403368Y944723475D01*
X662196525Y944516632D01*
X662034010Y944273411D01*
X661922068Y944003158D01*
X661865000Y943716260D01*
X661865000Y943423740D01*
X661922068Y943136842D01*
X662034010Y942866589D01*
X662196525Y942623368D01*
X662403368Y942416525D01*
X662585534Y942294805D01*
X662468645Y942225178D01*
X662252412Y942030269D01*
X662078359Y941796920D01*
X661953175Y941534099D01*
X661908524Y941386890D01*
X662029845Y941157000D01*
X663223000Y941157000D01*
X663223000Y941177000D01*
X663477000Y941177000D01*
X663477000Y941157000D01*
X663497000Y941157000D01*
X663497000Y940903000D01*
X663477000Y940903000D01*
X663477000Y940883000D01*
X663223000Y940883000D01*
X663223000Y940903000D01*
X662029845Y940903000D01*
X661908524Y940673110D01*
X661953175Y940525901D01*
X662078359Y940263080D01*
X662252412Y940029731D01*
X662468645Y939834822D01*
X662585534Y939765195D01*
X662403368Y939643475D01*
X662196525Y939436632D01*
X662034010Y939193411D01*
X661922068Y938923158D01*
X661865000Y938636260D01*
X661865000Y938343740D01*
X661922068Y938056842D01*
X662034010Y937786589D01*
X662196525Y937543368D01*
X662328380Y937411513D01*
X662255820Y937389502D01*
X662145506Y937330537D01*
X662048815Y937251185D01*
X661969463Y937154494D01*
X661910498Y937044180D01*
X661874188Y936924482D01*
X661861928Y936800000D01*
X661861928Y935100000D01*
X661874188Y934975518D01*
X661910498Y934855820D01*
X661969463Y934745506D01*
X662048815Y934648815D01*
X662145506Y934569463D01*
X662255820Y934510498D01*
X662375518Y934474188D01*
X662500000Y934461928D01*
X664200000Y934461928D01*
X664324482Y934474188D01*
X664444180Y934510498D01*
X664554494Y934569463D01*
X664651185Y934648815D01*
X664730537Y934745506D01*
X664789502Y934855820D01*
X664825812Y934975518D01*
X664838072Y935100000D01*
X664838072Y936800000D01*
X664825812Y936924482D01*
X664789502Y937044180D01*
X664730537Y937154494D01*
X664651185Y937251185D01*
X664554494Y937330537D01*
X664444180Y937389502D01*
X664371620Y937411513D01*
X664503475Y937543368D01*
X664665990Y937786589D01*
X664777932Y938056842D01*
X664835000Y938343740D01*
X664835000Y938636260D01*
X664797076Y938826918D01*
X665177818Y939207660D01*
X665207765Y939232237D01*
X665305863Y939351768D01*
X665378755Y939488141D01*
X665423642Y939636114D01*
X665435001Y939751440D01*
X665435001Y939751447D01*
X665438798Y939790000D01*
X665435001Y939828553D01*
X665435001Y949154841D01*
X666815000Y947774842D01*
X666815001Y935608563D01*
X666811203Y935570000D01*
X666826359Y935416114D01*
X666871246Y935268141D01*
X666887314Y935238080D01*
X666944139Y935131767D01*
X666970210Y935100000D01*
X667017655Y935042188D01*
X667017659Y935042184D01*
X667042237Y935012236D01*
X667072185Y934987658D01*
X675402924Y926656918D01*
X675365000Y926466260D01*
X675365000Y926173740D01*
X675422068Y925886842D01*
X675534010Y925616589D01*
X675696525Y925373368D01*
X675903368Y925166525D01*
X676077760Y925050000D01*
X675903368Y924933475D01*
X675696525Y924726632D01*
X675534010Y924483411D01*
X675422068Y924213158D01*
X675365000Y923926260D01*
X675365000Y923633740D01*
X675422068Y923346842D01*
X675534010Y923076589D01*
X675696525Y922833368D01*
X675903368Y922626525D01*
X676077760Y922510000D01*
X675903368Y922393475D01*
X675696525Y922186632D01*
X675534010Y921943411D01*
X675422068Y921673158D01*
X675365000Y921386260D01*
X675365000Y921093740D01*
X675422068Y920806842D01*
X675534010Y920536589D01*
X675696525Y920293368D01*
X675828380Y920161513D01*
X675755820Y920139502D01*
X675645506Y920080537D01*
X675548815Y920001185D01*
X675469463Y919904494D01*
X675410498Y919794180D01*
X675374188Y919674482D01*
X675361928Y919550000D01*
X675365000Y918985750D01*
X675523750Y918827000D01*
X676723000Y918827000D01*
X676723000Y918847000D01*
X676977000Y918847000D01*
X676977000Y918827000D01*
X676997000Y918827000D01*
X676997000Y918573000D01*
X676977000Y918573000D01*
X676977000Y917373750D01*
X677135750Y917215000D01*
X677700000Y917211928D01*
X677824482Y917224188D01*
X677944180Y917260498D01*
X678054494Y917319463D01*
X678151185Y917398815D01*
X678156330Y917405084D01*
X678163870Y917367179D01*
X678327412Y916972355D01*
X678564837Y916617023D01*
X678867023Y916314837D01*
X679222355Y916077412D01*
X679617179Y915913870D01*
X680036323Y915830497D01*
X680463677Y915830497D01*
X680882821Y915913870D01*
X681277645Y916077412D01*
X681632977Y916314837D01*
X681935163Y916617023D01*
X682090000Y916848753D01*
X682090000Y915360000D01*
X631264787Y915360000D01*
X631301860Y915371246D01*
X631438233Y915444138D01*
X631557764Y915542236D01*
X631628116Y915627959D01*
X633453082Y917452925D01*
X633643740Y917415000D01*
X633936260Y917415000D01*
X634223158Y917472068D01*
X634493411Y917584010D01*
X634736632Y917746525D01*
X634943475Y917953368D01*
X635060000Y918127760D01*
X635176525Y917953368D01*
X635383368Y917746525D01*
X635626589Y917584010D01*
X635896842Y917472068D01*
X636183740Y917415000D01*
X636476260Y917415000D01*
X636666918Y917452925D01*
X636697653Y917422190D01*
X636722236Y917392236D01*
X636841767Y917294138D01*
X636972636Y917224188D01*
X636978140Y917221246D01*
X637126113Y917176358D01*
X637201026Y917168980D01*
X637241439Y917165000D01*
X637241444Y917165000D01*
X637280000Y917161203D01*
X637318556Y917165000D01*
X641993087Y917165000D01*
X642018153Y917104485D01*
X642213500Y916812129D01*
X642462129Y916563500D01*
X642754485Y916368153D01*
X643079335Y916233596D01*
X643424193Y916165000D01*
X643775807Y916165000D01*
X644120665Y916233596D01*
X644445515Y916368153D01*
X644737871Y916563500D01*
X644882022Y916707651D01*
X657937256Y916707651D01*
X658051118Y916427910D01*
X658366296Y916272039D01*
X658705826Y916180651D01*
X659056661Y916157259D01*
X659405319Y916202760D01*
X659738400Y916315406D01*
X659948882Y916427910D01*
X660062744Y916707651D01*
X659000000Y917770395D01*
X657937256Y916707651D01*
X644882022Y916707651D01*
X644986500Y916812129D01*
X645181847Y917104485D01*
X645316404Y917429335D01*
X645385000Y917774193D01*
X645385000Y917893339D01*
X657207259Y917893339D01*
X657252760Y917544681D01*
X657365406Y917211600D01*
X657477910Y917001118D01*
X657757651Y916887256D01*
X658820395Y917950000D01*
X659179605Y917950000D01*
X660242349Y916887256D01*
X660522090Y917001118D01*
X660677961Y917316296D01*
X660769349Y917655826D01*
X660782295Y917850000D01*
X675361928Y917850000D01*
X675374188Y917725518D01*
X675410498Y917605820D01*
X675469463Y917495506D01*
X675548815Y917398815D01*
X675645506Y917319463D01*
X675755820Y917260498D01*
X675875518Y917224188D01*
X676000000Y917211928D01*
X676564250Y917215000D01*
X676723000Y917373750D01*
X676723000Y918573000D01*
X675523750Y918573000D01*
X675365000Y918414250D01*
X675361928Y917850000D01*
X660782295Y917850000D01*
X660792741Y918006661D01*
X660747240Y918355319D01*
X660634594Y918688400D01*
X660569599Y918810000D01*
X663211928Y918810000D01*
X663224188Y918685518D01*
X663260498Y918565820D01*
X663319463Y918455506D01*
X663398815Y918358815D01*
X663495506Y918279463D01*
X663605820Y918220498D01*
X663725518Y918184188D01*
X663850000Y918171928D01*
X664414250Y918175000D01*
X664573000Y918333750D01*
X664573000Y919533000D01*
X664827000Y919533000D01*
X664827000Y918333750D01*
X664985750Y918175000D01*
X665550000Y918171928D01*
X665674482Y918184188D01*
X665794180Y918220498D01*
X665904494Y918279463D01*
X666001185Y918358815D01*
X666080537Y918455506D01*
X666139502Y918565820D01*
X666175812Y918685518D01*
X666188072Y918810000D01*
X666185000Y919374250D01*
X666026250Y919533000D01*
X664827000Y919533000D01*
X664573000Y919533000D01*
X663373750Y919533000D01*
X663215000Y919374250D01*
X663211928Y918810000D01*
X660569599Y918810000D01*
X660522090Y918898882D01*
X660242349Y919012744D01*
X659179605Y917950000D01*
X658820395Y917950000D01*
X657757651Y919012744D01*
X657477910Y918898882D01*
X657322039Y918583704D01*
X657230651Y918244174D01*
X657207259Y917893339D01*
X645385000Y917893339D01*
X645385000Y918125807D01*
X645316404Y918470665D01*
X645181847Y918795515D01*
X644986500Y919087871D01*
X644882022Y919192349D01*
X657937256Y919192349D01*
X659000000Y918129605D01*
X660062744Y919192349D01*
X659948882Y919472090D01*
X659633704Y919627961D01*
X659294174Y919719349D01*
X658943339Y919742741D01*
X658594681Y919697240D01*
X658261600Y919584594D01*
X658051118Y919472090D01*
X657937256Y919192349D01*
X644882022Y919192349D01*
X644737871Y919336500D01*
X644445515Y919531847D01*
X644120665Y919666404D01*
X643775807Y919735000D01*
X643424193Y919735000D01*
X643079335Y919666404D01*
X642754485Y919531847D01*
X642462129Y919336500D01*
X642213500Y919087871D01*
X642018153Y918795515D01*
X641993087Y918735000D01*
X637811272Y918735000D01*
X637815000Y918753740D01*
X637815000Y919046260D01*
X637757932Y919333158D01*
X637645990Y919603411D01*
X637483475Y919846632D01*
X637276632Y920053475D01*
X637033411Y920215990D01*
X636763158Y920327932D01*
X636476260Y920385000D01*
X636183740Y920385000D01*
X635896842Y920327932D01*
X635626589Y920215990D01*
X635383368Y920053475D01*
X635176525Y919846632D01*
X635060000Y919672240D01*
X634943475Y919846632D01*
X634736632Y920053475D01*
X634493411Y920215990D01*
X634223158Y920327932D01*
X633936260Y920385000D01*
X633643740Y920385000D01*
X633356842Y920327932D01*
X633086589Y920215990D01*
X632843368Y920053475D01*
X632711513Y919921620D01*
X632689502Y919994180D01*
X632630537Y920104494D01*
X632551185Y920201185D01*
X632454494Y920280537D01*
X632344180Y920339502D01*
X632224482Y920375812D01*
X632100000Y920388072D01*
X631535750Y920385000D01*
X631377000Y920226250D01*
X631377000Y919027000D01*
X631397000Y919027000D01*
X631397000Y918773000D01*
X631377000Y918773000D01*
X631377000Y918753000D01*
X631123000Y918753000D01*
X631123000Y918773000D01*
X629923750Y918773000D01*
X629765000Y918614250D01*
X629761928Y918050000D01*
X629774188Y917925518D01*
X629810498Y917805820D01*
X629869463Y917695506D01*
X629948815Y917598815D01*
X630045506Y917519463D01*
X630155820Y917460498D01*
X630275518Y917424188D01*
X630400000Y917411928D01*
X630964250Y917415000D01*
X631122998Y917573748D01*
X631122998Y917415000D01*
X631194843Y917415000D01*
X630664843Y916885000D01*
X615025157Y916885000D01*
X614337111Y917573046D01*
X614450000Y917561928D01*
X616950000Y917561928D01*
X617074482Y917574188D01*
X617194180Y917610498D01*
X617304494Y917669463D01*
X617401185Y917748815D01*
X617480537Y917845506D01*
X617539502Y917955820D01*
X617575812Y918075518D01*
X617588072Y918200000D01*
X617588072Y918315000D01*
X618394499Y918315000D01*
X618448815Y918248815D01*
X618545506Y918169463D01*
X618655820Y918110498D01*
X618775518Y918074188D01*
X618900000Y918061928D01*
X619800000Y918061928D01*
X619924482Y918074188D01*
X620044180Y918110498D01*
X620154494Y918169463D01*
X620251185Y918248815D01*
X620261928Y918261905D01*
X620261928Y917750000D01*
X620274188Y917625518D01*
X620310498Y917505820D01*
X620369463Y917395506D01*
X620448815Y917298815D01*
X620545506Y917219463D01*
X620655820Y917160498D01*
X620775518Y917124188D01*
X620900000Y917111928D01*
X621800000Y917111928D01*
X621924482Y917124188D01*
X622044180Y917160498D01*
X622154494Y917219463D01*
X622251185Y917298815D01*
X622305501Y917365000D01*
X623794856Y917365000D01*
X623843377Y917305877D01*
X623976058Y917196988D01*
X624127433Y917116077D01*
X624291684Y917066252D01*
X624462500Y917049428D01*
X624937500Y917049428D01*
X625108316Y917066252D01*
X625272567Y917116077D01*
X625423942Y917196988D01*
X625556623Y917305877D01*
X625665512Y917438558D01*
X625746423Y917589933D01*
X625796248Y917754184D01*
X625813072Y917925000D01*
X625813072Y918425000D01*
X625796248Y918595816D01*
X625746423Y918760067D01*
X625665512Y918911442D01*
X625556623Y919044123D01*
X625503768Y919087500D01*
X625556623Y919130877D01*
X625625661Y919215000D01*
X626486447Y919215000D01*
X626525000Y919211203D01*
X626563553Y919215000D01*
X626563561Y919215000D01*
X626678887Y919226359D01*
X626826860Y919271246D01*
X626963233Y919344138D01*
X627082764Y919442236D01*
X627107347Y919472190D01*
X627385157Y919750000D01*
X629761928Y919750000D01*
X629765000Y919185750D01*
X629923750Y919027000D01*
X631123000Y919027000D01*
X631123000Y920226250D01*
X630964250Y920385000D01*
X630400000Y920388072D01*
X630275518Y920375812D01*
X630155820Y920339502D01*
X630045506Y920280537D01*
X629948815Y920201185D01*
X629869463Y920104494D01*
X629810498Y919994180D01*
X629774188Y919874482D01*
X629761928Y919750000D01*
X627385157Y919750000D01*
X630350158Y922715001D01*
X663305968Y922715001D01*
X663272068Y922633158D01*
X663215000Y922346260D01*
X663215000Y922053740D01*
X663272068Y921766842D01*
X663384010Y921496589D01*
X663546525Y921253368D01*
X663678380Y921121513D01*
X663605820Y921099502D01*
X663495506Y921040537D01*
X663398815Y920961185D01*
X663319463Y920864494D01*
X663260498Y920754180D01*
X663224188Y920634482D01*
X663211928Y920510000D01*
X663215000Y919945750D01*
X663373750Y919787000D01*
X664573000Y919787000D01*
X664573000Y919807000D01*
X664827000Y919807000D01*
X664827000Y919787000D01*
X666026250Y919787000D01*
X666185000Y919945750D01*
X666188072Y920510000D01*
X666175812Y920634482D01*
X666139502Y920754180D01*
X666080537Y920864494D01*
X666001185Y920961185D01*
X665904494Y921040537D01*
X665794180Y921099502D01*
X665721620Y921121513D01*
X665853475Y921253368D01*
X666015990Y921496589D01*
X666127932Y921766842D01*
X666185000Y922053740D01*
X666185000Y922346260D01*
X666127932Y922633158D01*
X666094032Y922715001D01*
X666711448Y922715001D01*
X666750001Y922711204D01*
X666788554Y922715001D01*
X666788562Y922715001D01*
X666903888Y922726360D01*
X667051861Y922771247D01*
X667188234Y922844139D01*
X667307765Y922942237D01*
X667332348Y922972191D01*
X670875690Y926515532D01*
X670878363Y926515000D01*
X671121637Y926515000D01*
X671360236Y926562460D01*
X671584992Y926655557D01*
X671787267Y926790713D01*
X671959287Y926962733D01*
X672094443Y927165008D01*
X672187540Y927389764D01*
X672235000Y927628363D01*
X672235000Y927871637D01*
X672187540Y928110236D01*
X672094443Y928334992D01*
X671959287Y928537267D01*
X671787267Y928709287D01*
X671584992Y928844443D01*
X671360236Y928937540D01*
X671121637Y928985000D01*
X670878363Y928985000D01*
X670639764Y928937540D01*
X670415008Y928844443D01*
X670212733Y928709287D01*
X670040713Y928537267D01*
X669905557Y928334992D01*
X669812460Y928110236D01*
X669765000Y927871637D01*
X669765000Y927628363D01*
X669765532Y927625690D01*
X666424844Y924285001D01*
X630063557Y924285001D01*
X630025001Y924288798D01*
X629986445Y924285001D01*
X629986440Y924285001D01*
X629946027Y924281021D01*
X629871114Y924273643D01*
X629728079Y924230253D01*
X629723141Y924228755D01*
X629586768Y924155863D01*
X629467237Y924057765D01*
X629442656Y924027813D01*
X626199843Y920785000D01*
X625625661Y920785000D01*
X625556623Y920869123D01*
X625423942Y920978012D01*
X625272567Y921058923D01*
X625108316Y921108748D01*
X624937500Y921125572D01*
X624462500Y921125572D01*
X624291684Y921108748D01*
X624127433Y921058923D01*
X623976058Y920978012D01*
X623843377Y920869123D01*
X623734488Y920736442D01*
X623653577Y920585067D01*
X623603752Y920420816D01*
X623586928Y920250000D01*
X623586928Y919750000D01*
X623603752Y919579184D01*
X623653577Y919414933D01*
X623734488Y919263558D01*
X623843377Y919130877D01*
X623896232Y919087500D01*
X623843377Y919044123D01*
X623753822Y918935000D01*
X622305501Y918935000D01*
X622251185Y919001185D01*
X622154494Y919080537D01*
X622118082Y919100000D01*
X622154494Y919119463D01*
X622251185Y919198815D01*
X622330537Y919295506D01*
X622389502Y919405820D01*
X622425812Y919525518D01*
X622438072Y919650000D01*
X622435000Y919764250D01*
X622276250Y919923000D01*
X621477000Y919923000D01*
X621477000Y919903000D01*
X621223000Y919903000D01*
X621223000Y919923000D01*
X620423750Y919923000D01*
X620339143Y919838393D01*
X620330537Y919854494D01*
X620251185Y919951185D01*
X620154494Y920030537D01*
X620044180Y920089502D01*
X619924482Y920125812D01*
X619800000Y920138072D01*
X618900000Y920138072D01*
X618775518Y920125812D01*
X618655820Y920089502D01*
X618545506Y920030537D01*
X618448815Y919951185D01*
X618394499Y919885000D01*
X617588072Y919885000D01*
X617588072Y920000000D01*
X617575812Y920124482D01*
X617539502Y920244180D01*
X617480537Y920354494D01*
X617402158Y920450000D01*
X620261928Y920450000D01*
X620265000Y920335750D01*
X620423750Y920177000D01*
X621223000Y920177000D01*
X621223000Y920926250D01*
X621477000Y920926250D01*
X621477000Y920177000D01*
X622276250Y920177000D01*
X622435000Y920335750D01*
X622438072Y920450000D01*
X622425812Y920574482D01*
X622389502Y920694180D01*
X622330537Y920804494D01*
X622251185Y920901185D01*
X622154494Y920980537D01*
X622044180Y921039502D01*
X621924482Y921075812D01*
X621800000Y921088072D01*
X621635750Y921085000D01*
X621477000Y920926250D01*
X621223000Y920926250D01*
X621064250Y921085000D01*
X620900000Y921088072D01*
X620775518Y921075812D01*
X620655820Y921039502D01*
X620545506Y920980537D01*
X620448815Y920901185D01*
X620369463Y920804494D01*
X620310498Y920694180D01*
X620274188Y920574482D01*
X620261928Y920450000D01*
X617402158Y920450000D01*
X617401185Y920451185D01*
X617304494Y920530537D01*
X617194180Y920589502D01*
X617074482Y920625812D01*
X616950000Y920638072D01*
X615272086Y920638072D01*
X614182347Y921727810D01*
X614157764Y921757764D01*
X614139199Y921773000D01*
X622400000Y921773000D01*
X622422330Y921774978D01*
X622446291Y921781737D01*
X622468474Y921793040D01*
X622488025Y921808454D01*
X626275232Y925450000D01*
X663211928Y925450000D01*
X663224188Y925325518D01*
X663260498Y925205820D01*
X663319463Y925095506D01*
X663398815Y924998815D01*
X663495506Y924919463D01*
X663605820Y924860498D01*
X663725518Y924824188D01*
X663850000Y924811928D01*
X664414250Y924815000D01*
X664573000Y924973750D01*
X664573000Y926173000D01*
X664827000Y926173000D01*
X664827000Y924973750D01*
X664985750Y924815000D01*
X665550000Y924811928D01*
X665674482Y924824188D01*
X665794180Y924860498D01*
X665904494Y924919463D01*
X666001185Y924998815D01*
X666080537Y925095506D01*
X666139502Y925205820D01*
X666175812Y925325518D01*
X666188072Y925450000D01*
X666185000Y926014250D01*
X666026250Y926173000D01*
X664827000Y926173000D01*
X664573000Y926173000D01*
X663373750Y926173000D01*
X663215000Y926014250D01*
X663211928Y925450000D01*
X626275232Y925450000D01*
X632851153Y931773000D01*
X633770191Y931773000D01*
X633674134Y931753893D01*
X633408431Y931643835D01*
X633169304Y931484056D01*
X632965944Y931280696D01*
X632806165Y931041569D01*
X632696107Y930775866D01*
X632640000Y930493797D01*
X632640000Y930206203D01*
X632696107Y929924134D01*
X632806165Y929658431D01*
X632965944Y929419304D01*
X633169304Y929215944D01*
X633408431Y929056165D01*
X633674134Y928946107D01*
X633956203Y928890000D01*
X634243797Y928890000D01*
X634525866Y928946107D01*
X634791569Y929056165D01*
X635030696Y929215944D01*
X635234056Y929419304D01*
X635331407Y929565000D01*
X663398435Y929565000D01*
X663384010Y929543411D01*
X663272068Y929273158D01*
X663215000Y928986260D01*
X663215000Y928693740D01*
X663272068Y928406842D01*
X663384010Y928136589D01*
X663546525Y927893368D01*
X663678380Y927761513D01*
X663605820Y927739502D01*
X663495506Y927680537D01*
X663398815Y927601185D01*
X663319463Y927504494D01*
X663260498Y927394180D01*
X663224188Y927274482D01*
X663211928Y927150000D01*
X663215000Y926585750D01*
X663373750Y926427000D01*
X664573000Y926427000D01*
X664573000Y926447000D01*
X664827000Y926447000D01*
X664827000Y926427000D01*
X666026250Y926427000D01*
X666185000Y926585750D01*
X666188072Y927150000D01*
X666175812Y927274482D01*
X666139502Y927394180D01*
X666080537Y927504494D01*
X666001185Y927601185D01*
X665904494Y927680537D01*
X665794180Y927739502D01*
X665721620Y927761513D01*
X665853475Y927893368D01*
X666015990Y928136589D01*
X666127932Y928406842D01*
X666185000Y928693740D01*
X666185000Y928986260D01*
X666127932Y929273158D01*
X666015990Y929543411D01*
X665853475Y929786632D01*
X665646632Y929993475D01*
X665472240Y930110000D01*
X665646632Y930226525D01*
X665853475Y930433368D01*
X666015990Y930676589D01*
X666127932Y930946842D01*
X666185000Y931233740D01*
X666185000Y931526260D01*
X666127932Y931813158D01*
X666015990Y932083411D01*
X665853475Y932326632D01*
X665646632Y932533475D01*
X665403411Y932695990D01*
X665133158Y932807932D01*
X664846260Y932865000D01*
X664553740Y932865000D01*
X664266842Y932807932D01*
X663996589Y932695990D01*
X663753368Y932533475D01*
X663546525Y932326632D01*
X663384010Y932083411D01*
X663272068Y931813158D01*
X663215000Y931526260D01*
X663215000Y931233740D01*
X663234641Y931135000D01*
X635331407Y931135000D01*
X635234056Y931280696D01*
X635030696Y931484056D01*
X634791569Y931643835D01*
X634525866Y931753893D01*
X634429809Y931773000D01*
X646200000Y931773000D01*
X646223611Y931775214D01*
X646247502Y931782218D01*
X646269567Y931793749D01*
X646288959Y931809362D01*
X657088959Y942409362D01*
X657105597Y942429443D01*
X657117333Y942451399D01*
X657124560Y942475224D01*
X657127000Y942500000D01*
X657127000Y950600000D01*
X657125285Y950620799D01*
X657118820Y950644841D01*
X657107789Y950667160D01*
X657092616Y950686899D01*
X653327000Y954700253D01*
X653327000Y971421637D01*
X656765000Y971421637D01*
X656765000Y971178363D01*
X656812460Y970939764D01*
X656905557Y970715008D01*
X657040713Y970512733D01*
X657212733Y970340713D01*
X657415008Y970205557D01*
X657639764Y970112460D01*
X657878363Y970065000D01*
X658121637Y970065000D01*
X658360236Y970112460D01*
X658584992Y970205557D01*
X658787267Y970340713D01*
X658959287Y970512733D01*
X658960802Y970515000D01*
X674405600Y970515000D01*
X674405496Y970514896D01*
X674521601Y970398791D01*
X674272528Y970321157D01*
X674146629Y970057117D01*
X674074661Y969773589D01*
X674059389Y969481469D01*
X674101401Y969191981D01*
X674199081Y968916253D01*
X674272528Y968778843D01*
X674521603Y968701208D01*
X675370395Y969550000D01*
X675356253Y969564143D01*
X675535858Y969743748D01*
X675550000Y969729605D01*
X675564143Y969743748D01*
X675743748Y969564143D01*
X675729605Y969550000D01*
X675743748Y969535858D01*
X675564143Y969356253D01*
X675550000Y969370395D01*
X674701208Y968521603D01*
X674766410Y968312416D01*
X674603368Y968203475D01*
X674396525Y967996632D01*
X674234010Y967753411D01*
X674122068Y967483158D01*
X674065000Y967196260D01*
X674065000Y966903740D01*
X674102924Y966713082D01*
X671322181Y963932338D01*
X671292227Y963907755D01*
X671194129Y963788223D01*
X671121237Y963651850D01*
X671076350Y963503877D01*
X671064991Y963388551D01*
X671064991Y963388544D01*
X671061194Y963349991D01*
X671064991Y963311438D01*
X671064991Y962888551D01*
X671064992Y948088562D01*
X671064991Y948088552D01*
X671064991Y947748562D01*
X671061194Y947710009D01*
X671064991Y947671456D01*
X671064991Y947671449D01*
X671076350Y947556123D01*
X671121237Y947408150D01*
X671194129Y947271777D01*
X671292227Y947152245D01*
X671322181Y947127662D01*
X672002925Y946446918D01*
X671965000Y946256260D01*
X671965000Y945963740D01*
X672022068Y945676842D01*
X672134010Y945406589D01*
X672296525Y945163368D01*
X672503368Y944956525D01*
X672677760Y944840000D01*
X672503368Y944723475D01*
X672296525Y944516632D01*
X672134010Y944273411D01*
X672022068Y944003158D01*
X671965000Y943716260D01*
X671965000Y943423740D01*
X672022068Y943136842D01*
X672134010Y942866589D01*
X672296525Y942623368D01*
X672503368Y942416525D01*
X672685534Y942294805D01*
X672568645Y942225178D01*
X672352412Y942030269D01*
X672178359Y941796920D01*
X672053175Y941534099D01*
X672008524Y941386890D01*
X672129845Y941157000D01*
X673323000Y941157000D01*
X673323000Y941177000D01*
X673577000Y941177000D01*
X673577000Y941157000D01*
X674770155Y941157000D01*
X674891476Y941386890D01*
X674846825Y941534099D01*
X674721641Y941796920D01*
X674547588Y942030269D01*
X674331355Y942225178D01*
X674214466Y942294805D01*
X674396632Y942416525D01*
X674603475Y942623368D01*
X674765990Y942866589D01*
X674877932Y943136842D01*
X674935000Y943423740D01*
X674935000Y943716260D01*
X674897076Y943906918D01*
X675277818Y944287660D01*
X675307765Y944312237D01*
X675405863Y944431768D01*
X675478755Y944568141D01*
X675523642Y944716114D01*
X675535001Y944831440D01*
X675535001Y944831447D01*
X675538798Y944870000D01*
X675535001Y944908553D01*
X675535001Y960565000D01*
X675696260Y960565000D01*
X675983158Y960622068D01*
X676215000Y960718100D01*
X676215001Y942688563D01*
X676211203Y942650000D01*
X676226359Y942496114D01*
X676271246Y942348141D01*
X676271247Y942348140D01*
X676344139Y942211767D01*
X676384690Y942162356D01*
X676417655Y942122188D01*
X676417659Y942122184D01*
X676442237Y942092236D01*
X676472185Y942067658D01*
X677743423Y940796419D01*
X677741684Y940796248D01*
X677577433Y940746423D01*
X677426058Y940665512D01*
X677293377Y940556623D01*
X677184488Y940423942D01*
X677103577Y940272567D01*
X677053752Y940108316D01*
X677036928Y939937500D01*
X677036928Y939462500D01*
X677053752Y939291684D01*
X677103577Y939127433D01*
X677184488Y938976058D01*
X677293377Y938843377D01*
X677309519Y938830129D01*
X677280877Y938806623D01*
X677171988Y938673942D01*
X677091077Y938522567D01*
X677041252Y938358316D01*
X677024428Y938187500D01*
X677024428Y938134281D01*
X677015000Y938038560D01*
X677015000Y937911439D01*
X677024428Y937815718D01*
X677024428Y937712500D01*
X677041252Y937541684D01*
X677091077Y937377433D01*
X677171988Y937226058D01*
X677280877Y937093377D01*
X677413558Y936984488D01*
X677564933Y936903577D01*
X677729184Y936853752D01*
X677900000Y936836928D01*
X678400000Y936836928D01*
X678570816Y936853752D01*
X678735067Y936903577D01*
X678886442Y936984488D01*
X678995283Y937073812D01*
X679036315Y937023815D01*
X679133006Y936944463D01*
X679243320Y936885498D01*
X679363018Y936849188D01*
X679487500Y936836928D01*
X679689250Y936840000D01*
X679848000Y936998750D01*
X679848000Y937823000D01*
X680102000Y937823000D01*
X680102000Y936998750D01*
X680260750Y936840000D01*
X680462500Y936836928D01*
X680586982Y936849188D01*
X680706680Y936885498D01*
X680816994Y936944463D01*
X680913685Y937023815D01*
X680993037Y937120506D01*
X681052002Y937230820D01*
X681088312Y937350518D01*
X681100572Y937475000D01*
X681097500Y937664250D01*
X680938750Y937823000D01*
X680102000Y937823000D01*
X679848000Y937823000D01*
X679828000Y937823000D01*
X679828000Y938077000D01*
X679848000Y938077000D01*
X679848000Y938097000D01*
X680102000Y938097000D01*
X680102000Y938077000D01*
X680938750Y938077000D01*
X681097500Y938235750D01*
X681100572Y938425000D01*
X681088312Y938549482D01*
X681052002Y938669180D01*
X680993037Y938779494D01*
X680913685Y938876185D01*
X680895677Y938890964D01*
X680965512Y938976058D01*
X681046423Y939127433D01*
X681096248Y939291684D01*
X681113072Y939462500D01*
X681113072Y939937500D01*
X681096248Y940108316D01*
X681046423Y940272567D01*
X680965512Y940423942D01*
X680856623Y940556623D01*
X680723942Y940665512D01*
X680572567Y940746423D01*
X680408316Y940796248D01*
X680237500Y940813072D01*
X679947086Y940813072D01*
X677785000Y942975157D01*
X677785000Y943600717D01*
X677925000Y943586928D01*
X678425000Y943586928D01*
X678595816Y943603752D01*
X678760067Y943653577D01*
X678911442Y943734488D01*
X679020283Y943823812D01*
X679061315Y943773815D01*
X679158006Y943694463D01*
X679268320Y943635498D01*
X679388018Y943599188D01*
X679512500Y943586928D01*
X679714250Y943590000D01*
X679873000Y943748750D01*
X679873000Y944573000D01*
X680127000Y944573000D01*
X680127000Y943748750D01*
X680285750Y943590000D01*
X680487500Y943586928D01*
X680611982Y943599188D01*
X680731680Y943635498D01*
X680841994Y943694463D01*
X680938685Y943773815D01*
X681018037Y943870506D01*
X681077002Y943980820D01*
X681113312Y944100518D01*
X681125572Y944225000D01*
X681122500Y944414250D01*
X680963750Y944573000D01*
X680127000Y944573000D01*
X679873000Y944573000D01*
X679853000Y944573000D01*
X679853000Y944827000D01*
X679873000Y944827000D01*
X679873000Y944847000D01*
X680127000Y944847000D01*
X680127000Y944827000D01*
X680963750Y944827000D01*
X681122500Y944985750D01*
X681125572Y945175000D01*
X681113312Y945299482D01*
X681077002Y945419180D01*
X681018037Y945529494D01*
X680938685Y945626185D01*
X680841994Y945705537D01*
X680822931Y945715727D01*
X680856623Y945743377D01*
X680965512Y945876058D01*
X681046423Y946027433D01*
X681096248Y946191684D01*
X681113072Y946362500D01*
X681113072Y946837500D01*
X681096248Y947008316D01*
X681046423Y947172567D01*
X680965512Y947323942D01*
X680856623Y947456623D01*
X680723942Y947565512D01*
X680572567Y947646423D01*
X680408316Y947696248D01*
X680237500Y947713072D01*
X679947086Y947713072D01*
X678385009Y949275148D01*
X678385009Y954250000D01*
X678511928Y954250000D01*
X678511928Y952550000D01*
X678524188Y952425518D01*
X678560498Y952305820D01*
X678619463Y952195506D01*
X678698815Y952098815D01*
X678795506Y952019463D01*
X678905820Y951960498D01*
X679025518Y951924188D01*
X679150000Y951911928D01*
X680850000Y951911928D01*
X680974482Y951924188D01*
X681094180Y951960498D01*
X681204494Y952019463D01*
X681301185Y952098815D01*
X681380537Y952195506D01*
X681439502Y952305820D01*
X681475812Y952425518D01*
X681488072Y952550000D01*
X681488072Y954250000D01*
X681475812Y954374482D01*
X681439502Y954494180D01*
X681380537Y954604494D01*
X681301185Y954701185D01*
X681204494Y954780537D01*
X681094180Y954839502D01*
X680974482Y954875812D01*
X680850000Y954888072D01*
X679150000Y954888072D01*
X679025518Y954875812D01*
X678905820Y954839502D01*
X678795506Y954780537D01*
X678698815Y954701185D01*
X678619463Y954604494D01*
X678560498Y954494180D01*
X678524188Y954374482D01*
X678511928Y954250000D01*
X678385009Y954250000D01*
X678385009Y970309981D01*
X678388806Y970348534D01*
X678385009Y970387087D01*
X678385009Y970387094D01*
X678373650Y970502420D01*
X678362787Y970538233D01*
X678328763Y970650393D01*
X678300489Y970703290D01*
X678255871Y970786766D01*
X678197624Y970857739D01*
X678182354Y970876346D01*
X678182351Y970876349D01*
X678157773Y970906297D01*
X678127826Y970930874D01*
X675930889Y973127810D01*
X675906306Y973157764D01*
X675786775Y973255862D01*
X675650402Y973328754D01*
X675502429Y973373641D01*
X675387103Y973385000D01*
X675387095Y973385000D01*
X675348542Y973388797D01*
X675309989Y973385000D01*
X660310802Y973385000D01*
X660309287Y973387267D01*
X660137267Y973559287D01*
X659934992Y973694443D01*
X659710236Y973787540D01*
X659471637Y973835000D01*
X659228363Y973835000D01*
X658989764Y973787540D01*
X658765008Y973694443D01*
X658562733Y973559287D01*
X658390713Y973387267D01*
X658255557Y973184992D01*
X658162460Y972960236D01*
X658115000Y972721637D01*
X658115000Y972535000D01*
X657878363Y972535000D01*
X657639764Y972487540D01*
X657415008Y972394443D01*
X657212733Y972259287D01*
X657040713Y972087267D01*
X656905557Y971884992D01*
X656812460Y971660236D01*
X656765000Y971421637D01*
X653327000Y971421637D01*
X653327000Y974173000D01*
X682090001Y974173000D01*
X682090000Y919151247D01*
G37*
G04 #@! TD.AperFunction*
M02*
