G04 #@! TF.GenerationSoftware,KiCad,Pcbnew,(5.1.12)-1*
G04 #@! TF.CreationDate,2022-05-31T10:14:08-04:00*
G04 #@! TF.ProjectId,OMC_WIFI_PCB,4f4d435f-5749-4464-995f-5043422e6b69,rev?*
G04 #@! TF.SameCoordinates,Original*
G04 #@! TF.FileFunction,Paste,Top*
G04 #@! TF.FilePolarity,Positive*
%FSLAX46Y46*%
G04 Gerber Fmt 4.6, Leading zero omitted, Abs format (unit mm)*
G04 Created by KiCad (PCBNEW (5.1.12)-1) date 2022-05-31 10:14:08*
%MOMM*%
%LPD*%
G01*
G04 APERTURE LIST*
%ADD10R,0.900000X0.800000*%
%ADD11R,2.500000X1.800000*%
G04 APERTURE END LIST*
D10*
X619350000Y919100000D03*
X621350000Y920050000D03*
X621350000Y918150000D03*
G36*
G01*
X624462500Y918662500D02*
X624937500Y918662500D01*
G75*
G02*
X625175000Y918425000I0J-237500D01*
G01*
X625175000Y917925000D01*
G75*
G02*
X624937500Y917687500I-237500J0D01*
G01*
X624462500Y917687500D01*
G75*
G02*
X624225000Y917925000I0J237500D01*
G01*
X624225000Y918425000D01*
G75*
G02*
X624462500Y918662500I237500J0D01*
G01*
G37*
G36*
G01*
X624462500Y920487500D02*
X624937500Y920487500D01*
G75*
G02*
X625175000Y920250000I0J-237500D01*
G01*
X625175000Y919750000D01*
G75*
G02*
X624937500Y919512500I-237500J0D01*
G01*
X624462500Y919512500D01*
G75*
G02*
X624225000Y919750000I0J237500D01*
G01*
X624225000Y920250000D01*
G75*
G02*
X624462500Y920487500I237500J0D01*
G01*
G37*
G36*
G01*
X679487500Y937712500D02*
X679487500Y938187500D01*
G75*
G02*
X679725000Y938425000I237500J0D01*
G01*
X680225000Y938425000D01*
G75*
G02*
X680462500Y938187500I0J-237500D01*
G01*
X680462500Y937712500D01*
G75*
G02*
X680225000Y937475000I-237500J0D01*
G01*
X679725000Y937475000D01*
G75*
G02*
X679487500Y937712500I0J237500D01*
G01*
G37*
G36*
G01*
X677662500Y937712500D02*
X677662500Y938187500D01*
G75*
G02*
X677900000Y938425000I237500J0D01*
G01*
X678400000Y938425000D01*
G75*
G02*
X678637500Y938187500I0J-237500D01*
G01*
X678637500Y937712500D01*
G75*
G02*
X678400000Y937475000I-237500J0D01*
G01*
X677900000Y937475000D01*
G75*
G02*
X677662500Y937712500I0J237500D01*
G01*
G37*
G36*
G01*
X679512500Y944462500D02*
X679512500Y944937500D01*
G75*
G02*
X679750000Y945175000I237500J0D01*
G01*
X680250000Y945175000D01*
G75*
G02*
X680487500Y944937500I0J-237500D01*
G01*
X680487500Y944462500D01*
G75*
G02*
X680250000Y944225000I-237500J0D01*
G01*
X679750000Y944225000D01*
G75*
G02*
X679512500Y944462500I0J237500D01*
G01*
G37*
G36*
G01*
X677687500Y944462500D02*
X677687500Y944937500D01*
G75*
G02*
X677925000Y945175000I237500J0D01*
G01*
X678425000Y945175000D01*
G75*
G02*
X678662500Y944937500I0J-237500D01*
G01*
X678662500Y944462500D01*
G75*
G02*
X678425000Y944225000I-237500J0D01*
G01*
X677925000Y944225000D01*
G75*
G02*
X677687500Y944462500I0J237500D01*
G01*
G37*
D11*
X615700000Y919100000D03*
X611700000Y919100000D03*
G36*
G01*
X679425000Y939462500D02*
X679425000Y939937500D01*
G75*
G02*
X679662500Y940175000I237500J0D01*
G01*
X680237500Y940175000D01*
G75*
G02*
X680475000Y939937500I0J-237500D01*
G01*
X680475000Y939462500D01*
G75*
G02*
X680237500Y939225000I-237500J0D01*
G01*
X679662500Y939225000D01*
G75*
G02*
X679425000Y939462500I0J237500D01*
G01*
G37*
G36*
G01*
X677675000Y939462500D02*
X677675000Y939937500D01*
G75*
G02*
X677912500Y940175000I237500J0D01*
G01*
X678487500Y940175000D01*
G75*
G02*
X678725000Y939937500I0J-237500D01*
G01*
X678725000Y939462500D01*
G75*
G02*
X678487500Y939225000I-237500J0D01*
G01*
X677912500Y939225000D01*
G75*
G02*
X677675000Y939462500I0J237500D01*
G01*
G37*
G36*
G01*
X679425000Y946362500D02*
X679425000Y946837500D01*
G75*
G02*
X679662500Y947075000I237500J0D01*
G01*
X680237500Y947075000D01*
G75*
G02*
X680475000Y946837500I0J-237500D01*
G01*
X680475000Y946362500D01*
G75*
G02*
X680237500Y946125000I-237500J0D01*
G01*
X679662500Y946125000D01*
G75*
G02*
X679425000Y946362500I0J237500D01*
G01*
G37*
G36*
G01*
X677675000Y946362500D02*
X677675000Y946837500D01*
G75*
G02*
X677912500Y947075000I237500J0D01*
G01*
X678487500Y947075000D01*
G75*
G02*
X678725000Y946837500I0J-237500D01*
G01*
X678725000Y946362500D01*
G75*
G02*
X678487500Y946125000I-237500J0D01*
G01*
X677912500Y946125000D01*
G75*
G02*
X677675000Y946362500I0J237500D01*
G01*
G37*
M02*
