G04 #@! TF.GenerationSoftware,KiCad,Pcbnew,(5.1.12)-1*
G04 #@! TF.CreationDate,2022-05-31T10:14:08-04:00*
G04 #@! TF.ProjectId,OMC_WIFI_PCB,4f4d435f-5749-4464-995f-5043422e6b69,rev?*
G04 #@! TF.SameCoordinates,Original*
G04 #@! TF.FileFunction,Copper,L2,Bot*
G04 #@! TF.FilePolarity,Positive*
%FSLAX46Y46*%
G04 Gerber Fmt 4.6, Leading zero omitted, Abs format (unit mm)*
G04 Created by KiCad (PCBNEW (5.1.12)-1) date 2022-05-31 10:14:08*
%MOMM*%
%LPD*%
G01*
G04 APERTURE LIST*
G04 #@! TA.AperFunction,NonConductor*
%ADD10C,0.400000*%
G04 #@! TD*
G04 #@! TA.AperFunction,EtchedComponent*
%ADD11C,0.381000*%
G04 #@! TD*
G04 #@! TA.AperFunction,ComponentPad*
%ADD12O,5.000000X7.000000*%
G04 #@! TD*
G04 #@! TA.AperFunction,ComponentPad*
%ADD13O,1.700000X1.700000*%
G04 #@! TD*
G04 #@! TA.AperFunction,ComponentPad*
%ADD14R,1.700000X1.700000*%
G04 #@! TD*
G04 #@! TA.AperFunction,ComponentPad*
%ADD15C,1.700000*%
G04 #@! TD*
G04 #@! TA.AperFunction,ComponentPad*
%ADD16O,3.000000X3.000000*%
G04 #@! TD*
G04 #@! TA.AperFunction,ComponentPad*
%ADD17R,3.000000X3.000000*%
G04 #@! TD*
G04 #@! TA.AperFunction,ComponentPad*
%ADD18C,3.116000*%
G04 #@! TD*
G04 #@! TA.AperFunction,ComponentPad*
%ADD19C,1.650000*%
G04 #@! TD*
G04 #@! TA.AperFunction,ComponentPad*
%ADD20C,2.300000*%
G04 #@! TD*
G04 #@! TA.AperFunction,ComponentPad*
%ADD21C,3.000000*%
G04 #@! TD*
G04 #@! TA.AperFunction,ComponentPad*
%ADD22C,2.350000*%
G04 #@! TD*
G04 #@! TA.AperFunction,SMDPad,CuDef*
%ADD23R,2.000000X0.900000*%
G04 #@! TD*
G04 #@! TA.AperFunction,SMDPad,CuDef*
%ADD24R,0.900000X2.000000*%
G04 #@! TD*
G04 #@! TA.AperFunction,SMDPad,CuDef*
%ADD25R,5.000000X5.000000*%
G04 #@! TD*
G04 #@! TA.AperFunction,ViaPad*
%ADD26C,1.200000*%
G04 #@! TD*
G04 #@! TA.AperFunction,Conductor*
%ADD27C,0.300000*%
G04 #@! TD*
G04 #@! TA.AperFunction,Conductor*
%ADD28C,4.000000*%
G04 #@! TD*
G04 #@! TA.AperFunction,Conductor*
%ADD29C,0.254000*%
G04 #@! TD*
G04 #@! TA.AperFunction,Conductor*
%ADD30C,0.100000*%
G04 #@! TD*
G04 APERTURE END LIST*
D10*
X620309523Y933376190D02*
X619928571Y931776190D01*
X619623809Y932919047D01*
X619319047Y931776190D01*
X618938095Y933376190D01*
X618404761Y932233333D02*
X617642857Y932233333D01*
X618557142Y931776190D02*
X618023809Y933376190D01*
X617490476Y931776190D01*
X616042857Y931776190D02*
X616576190Y932538095D01*
X616957142Y931776190D02*
X616957142Y933376190D01*
X616347619Y933376190D01*
X616195238Y933300000D01*
X616119047Y933223809D01*
X616042857Y933071428D01*
X616042857Y932842857D01*
X616119047Y932690476D01*
X616195238Y932614285D01*
X616347619Y932538095D01*
X616957142Y932538095D01*
X615357142Y931776190D02*
X615357142Y933376190D01*
X614442857Y931776190D01*
X614442857Y933376190D01*
X613680952Y931776190D02*
X613680952Y933376190D01*
X612919047Y931776190D02*
X612919047Y933376190D01*
X612004761Y931776190D01*
X612004761Y933376190D01*
X610404761Y933300000D02*
X610557142Y933376190D01*
X610785714Y933376190D01*
X611014285Y933300000D01*
X611166666Y933147619D01*
X611242857Y932995238D01*
X611319047Y932690476D01*
X611319047Y932461904D01*
X611242857Y932157142D01*
X611166666Y932004761D01*
X611014285Y931852380D01*
X610785714Y931776190D01*
X610633333Y931776190D01*
X610404761Y931852380D01*
X610328571Y931928571D01*
X610328571Y932461904D01*
X610633333Y932461904D01*
X609642857Y931928571D02*
X609566666Y931852380D01*
X609642857Y931776190D01*
X609719047Y931852380D01*
X609642857Y931928571D01*
X609642857Y931776190D01*
X609642857Y932385714D02*
X609719047Y933300000D01*
X609642857Y933376190D01*
X609566666Y933300000D01*
X609642857Y932385714D01*
X609642857Y933376190D01*
D11*
X615397840Y935000360D02*
X614198960Y938099160D01*
X614198960Y938099160D02*
X614798400Y937700380D01*
X615799160Y936999340D02*
X614498680Y939800960D01*
X615397840Y935000360D02*
X614798400Y935698860D01*
X614999060Y939999080D02*
X615799160Y936999340D01*
X615799160Y936999340D02*
X614600280Y937799440D01*
X614600280Y937799440D02*
X615397840Y935000360D01*
X615397840Y935000360D02*
X615499440Y935899520D01*
X614900000Y941391000D02*
X610201000Y934406000D01*
X610201000Y934406000D02*
X619599000Y934406000D01*
X619599000Y934406000D02*
X614900000Y941391000D01*
G04 #@! TA.AperFunction,ComponentPad*
G36*
G01*
X602800000Y953699999D02*
X602800000Y956300001D01*
G75*
G02*
X603049999Y956550000I249999J0D01*
G01*
X605650001Y956550000D01*
G75*
G02*
X605900000Y956300001I0J-249999D01*
G01*
X605900000Y953699999D01*
G75*
G02*
X605650001Y953450000I-249999J0D01*
G01*
X603049999Y953450000D01*
G75*
G02*
X602800000Y953699999I0J249999D01*
G01*
G37*
G04 #@! TD.AperFunction*
G04 #@! TA.AperFunction,ComponentPad*
G36*
G01*
X602800000Y945899999D02*
X602800000Y948500001D01*
G75*
G02*
X603049999Y948750000I249999J0D01*
G01*
X605650001Y948750000D01*
G75*
G02*
X605900000Y948500001I0J-249999D01*
G01*
X605900000Y945899999D01*
G75*
G02*
X605650001Y945650000I-249999J0D01*
G01*
X603049999Y945650000D01*
G75*
G02*
X602800000Y945899999I0J249999D01*
G01*
G37*
G04 #@! TD.AperFunction*
G04 #@! TA.AperFunction,ComponentPad*
G36*
G01*
X577550000Y952400000D02*
X577550000Y954400000D01*
G75*
G02*
X578550000Y955400000I1000000J0D01*
G01*
X585050000Y955400000D01*
G75*
G02*
X586050000Y954400000I0J-1000000D01*
G01*
X586050000Y952400000D01*
G75*
G02*
X585050000Y951400000I-1000000J0D01*
G01*
X578550000Y951400000D01*
G75*
G02*
X577550000Y952400000I0J1000000D01*
G01*
G37*
G04 #@! TD.AperFunction*
G04 #@! TA.AperFunction,ComponentPad*
G36*
G01*
X590350000Y952400000D02*
X590350000Y954400000D01*
G75*
G02*
X591350000Y955400000I1000000J0D01*
G01*
X597850000Y955400000D01*
G75*
G02*
X598850000Y954400000I0J-1000000D01*
G01*
X598850000Y952400000D01*
G75*
G02*
X597850000Y951400000I-1000000J0D01*
G01*
X591350000Y951400000D01*
G75*
G02*
X590350000Y952400000I0J1000000D01*
G01*
G37*
G04 #@! TD.AperFunction*
G04 #@! TA.AperFunction,ComponentPad*
G36*
G01*
X583950000Y946200000D02*
X583950000Y948200000D01*
G75*
G02*
X584950000Y949200000I1000000J0D01*
G01*
X591450000Y949200000D01*
G75*
G02*
X592450000Y948200000I0J-1000000D01*
G01*
X592450000Y946200000D01*
G75*
G02*
X591450000Y945200000I-1000000J0D01*
G01*
X584950000Y945200000D01*
G75*
G02*
X583950000Y946200000I0J1000000D01*
G01*
G37*
G04 #@! TD.AperFunction*
D12*
X594500000Y932600000D03*
X581900000Y932500000D03*
X588200000Y920600000D03*
D13*
X663350000Y948650000D03*
X663350000Y946110000D03*
X663350000Y943570000D03*
X663350000Y941030000D03*
X663350000Y938490000D03*
D14*
X663350000Y935950000D03*
D13*
X673450000Y946110000D03*
X673450000Y943570000D03*
X673450000Y941030000D03*
X673450000Y948650000D03*
X673450000Y938490000D03*
D14*
X673450000Y935950000D03*
X680000000Y953400000D03*
D13*
X636330000Y918900000D03*
X633790000Y918900000D03*
D14*
X631250000Y918900000D03*
D15*
X675550000Y962050000D03*
X675550000Y964550000D03*
X675550000Y967050000D03*
X675550000Y969550000D03*
D16*
X612800000Y973400000D03*
X612800000Y968320000D03*
X612800000Y963280000D03*
D17*
X612800000Y958160000D03*
D18*
X611300000Y944350000D03*
X621400000Y926550000D03*
X618900000Y944350000D03*
D19*
X634100000Y940550000D03*
X634100000Y930350000D03*
D18*
X636600000Y935450000D03*
G04 #@! TA.AperFunction,SMDPad,CuDef*
G36*
G01*
X678362500Y972837500D02*
X678362500Y972362500D01*
G75*
G02*
X678125000Y972125000I-237500J0D01*
G01*
X677625000Y972125000D01*
G75*
G02*
X677387500Y972362500I0J237500D01*
G01*
X677387500Y972837500D01*
G75*
G02*
X677625000Y973075000I237500J0D01*
G01*
X678125000Y973075000D01*
G75*
G02*
X678362500Y972837500I0J-237500D01*
G01*
G37*
G04 #@! TD.AperFunction*
G04 #@! TA.AperFunction,SMDPad,CuDef*
G36*
G01*
X680187500Y972837500D02*
X680187500Y972362500D01*
G75*
G02*
X679950000Y972125000I-237500J0D01*
G01*
X679450000Y972125000D01*
G75*
G02*
X679212500Y972362500I0J237500D01*
G01*
X679212500Y972837500D01*
G75*
G02*
X679450000Y973075000I237500J0D01*
G01*
X679950000Y973075000D01*
G75*
G02*
X680187500Y972837500I0J-237500D01*
G01*
G37*
G04 #@! TD.AperFunction*
D13*
X664700000Y922200000D03*
D14*
X664700000Y919660000D03*
G04 #@! TA.AperFunction,SMDPad,CuDef*
G36*
G01*
X677612500Y969575000D02*
X678087500Y969575000D01*
G75*
G02*
X678325000Y969337500I0J-237500D01*
G01*
X678325000Y968737500D01*
G75*
G02*
X678087500Y968500000I-237500J0D01*
G01*
X677612500Y968500000D01*
G75*
G02*
X677375000Y968737500I0J237500D01*
G01*
X677375000Y969337500D01*
G75*
G02*
X677612500Y969575000I237500J0D01*
G01*
G37*
G04 #@! TD.AperFunction*
G04 #@! TA.AperFunction,SMDPad,CuDef*
G36*
G01*
X677612500Y971300000D02*
X678087500Y971300000D01*
G75*
G02*
X678325000Y971062500I0J-237500D01*
G01*
X678325000Y970462500D01*
G75*
G02*
X678087500Y970225000I-237500J0D01*
G01*
X677612500Y970225000D01*
G75*
G02*
X677375000Y970462500I0J237500D01*
G01*
X677375000Y971062500D01*
G75*
G02*
X677612500Y971300000I237500J0D01*
G01*
G37*
G04 #@! TD.AperFunction*
D20*
X659000000Y917950000D03*
D17*
X653800000Y947350000D03*
D21*
X648800000Y947350000D03*
D20*
X643600000Y917950000D03*
D13*
X664700000Y931380000D03*
X664700000Y928840000D03*
D14*
X664700000Y926300000D03*
D22*
X604500000Y918450000D03*
X604500000Y923450000D03*
X604500000Y938450000D03*
X604500000Y933450000D03*
D13*
X676850000Y931400000D03*
X676850000Y928860000D03*
X676850000Y926320000D03*
X676850000Y923780000D03*
X676850000Y921240000D03*
D14*
X676850000Y918700000D03*
D23*
X654500000Y973850000D03*
X654500000Y972580000D03*
X654500000Y971310000D03*
X654500000Y970040000D03*
X654500000Y968770000D03*
X654500000Y967500000D03*
X654500000Y966230000D03*
X654500000Y964960000D03*
X654500000Y963690000D03*
X654500000Y962420000D03*
X654500000Y961150000D03*
X654500000Y959880000D03*
X654500000Y958610000D03*
X654500000Y957340000D03*
D24*
X657285000Y956340000D03*
X658555000Y956340000D03*
X659825000Y956340000D03*
X661095000Y956340000D03*
X662365000Y956340000D03*
X663635000Y956340000D03*
X664905000Y956340000D03*
X666175000Y956340000D03*
X667445000Y956340000D03*
X668715000Y956340000D03*
D23*
X671500000Y957340000D03*
X671500000Y958610000D03*
X671500000Y959880000D03*
X671500000Y961150000D03*
X671500000Y962420000D03*
X671500000Y963690000D03*
X671500000Y964960000D03*
X671500000Y966230000D03*
X671500000Y967500000D03*
X671500000Y968770000D03*
X671500000Y970040000D03*
X671500000Y971310000D03*
X671500000Y972580000D03*
X671500000Y973850000D03*
D25*
X664000000Y966350000D03*
D26*
X661100000Y961600000D03*
X659900000Y960300000D03*
X671000000Y927750000D03*
X658600000Y959400000D03*
X657434999Y958240002D03*
X659350000Y972600000D03*
X658000000Y971300000D03*
X673500000Y955700000D03*
X673500000Y951850000D03*
D27*
X633790000Y930040000D02*
X634100000Y930350000D01*
X633790000Y918900000D02*
X633790000Y930040000D01*
X664700000Y934820000D02*
X673450000Y943570000D01*
X664700000Y931380000D02*
X664700000Y934820000D01*
X661049999Y961650001D02*
X661100000Y961600000D01*
X661049999Y964790001D02*
X661049999Y961650001D01*
X655800000Y970040000D02*
X661049999Y964790001D01*
X654500000Y970040000D02*
X655800000Y970040000D01*
X654500000Y968770000D02*
X655800000Y968770000D01*
X659900000Y964670000D02*
X659900000Y960300000D01*
X655800000Y968770000D02*
X659900000Y964670000D01*
D28*
X646928920Y945900000D02*
X648578920Y947550000D01*
X627500000Y945900000D02*
X646928920Y945900000D01*
X579800000Y934600000D02*
X581900000Y932500000D01*
X579800000Y951400000D02*
X579800000Y934600000D01*
X581800000Y953400000D02*
X579800000Y951400000D01*
X591800008Y963400008D02*
X605508912Y963400008D01*
X581800000Y953400000D02*
X591800008Y963400008D01*
X615240000Y958160000D02*
X627500000Y945900000D01*
X612800000Y958160000D02*
X615240000Y958160000D01*
X610748920Y958160000D02*
X609104460Y959804460D01*
X612800000Y958160000D02*
X610748920Y958160000D01*
X609104460Y959804460D02*
X610628928Y958279992D01*
X605508912Y963400008D02*
X609104460Y959804460D01*
D27*
X673450000Y938490000D02*
X671060000Y936100000D01*
X671060000Y927810000D02*
X671000000Y927750000D01*
X671060000Y936100000D02*
X671060000Y927810000D01*
X679700000Y959920000D02*
X679700000Y961350000D01*
X663350000Y943570000D02*
X679700000Y959920000D01*
X679700000Y961350000D02*
X679700000Y960820000D01*
X679700000Y972600000D02*
X679700000Y961350000D01*
X661400000Y941620000D02*
X663350000Y943570000D01*
X661399999Y932140001D02*
X661400000Y941620000D01*
X664700000Y928840000D02*
X661399999Y932140001D01*
X655490002Y967500000D02*
X654500000Y967500000D01*
X658600000Y964390002D02*
X655490002Y967500000D01*
X658600000Y959400000D02*
X658600000Y964390002D01*
X655490002Y959880000D02*
X656384999Y958985003D01*
X654500000Y959880000D02*
X655490002Y959880000D01*
X656384999Y953075001D02*
X656384999Y953915001D01*
X663350000Y946110000D02*
X656384999Y953075001D01*
X656384999Y953915001D02*
X656384999Y953290999D01*
X656384999Y958985003D02*
X656384999Y953915001D01*
X657434999Y959515001D02*
X657434999Y958240002D01*
X655800000Y961150000D02*
X657434999Y959515001D01*
X654500000Y961150000D02*
X655800000Y961150000D01*
D28*
X604500000Y933450000D02*
X604500000Y938450000D01*
X598650000Y932600000D02*
X604500000Y938450000D01*
X594500000Y932600000D02*
X598650000Y932600000D01*
X603650000Y932600000D02*
X604500000Y933450000D01*
X594500000Y932600000D02*
X603650000Y932600000D01*
X612680000Y963300000D02*
X612700000Y963280000D01*
X619820000Y963280000D02*
X630449992Y952650008D01*
X612700000Y963280000D02*
X619820000Y963280000D01*
X630449992Y952650008D02*
X650549992Y952650008D01*
X653800000Y949400000D02*
X653800000Y947350000D01*
X650549992Y952650008D02*
X653800000Y949400000D01*
X653800000Y947350000D02*
X653800000Y945700000D01*
X643550000Y935450000D02*
X636600000Y935450000D01*
X653800000Y945700000D02*
X643550000Y935450000D01*
X630300000Y935450000D02*
X636600000Y935450000D01*
X624050000Y929200000D02*
X624875000Y930025000D01*
X624875000Y930025000D02*
X630300000Y935450000D01*
X621400000Y926550000D02*
X624875000Y930025000D01*
X624250000Y929400000D02*
X624875000Y930025000D01*
X607600000Y926550000D02*
X604500000Y923450000D01*
X621400000Y926550000D02*
X607600000Y926550000D01*
X604500000Y918450000D02*
X604500000Y923450000D01*
X618900000Y944350000D02*
X614341999Y948908001D01*
X606058001Y948908001D02*
X604350000Y947200000D01*
X614341999Y948908001D02*
X606058001Y948908001D01*
D27*
X659330000Y972580000D02*
X659350000Y972600000D01*
X654500000Y972580000D02*
X659330000Y972580000D01*
X657990000Y971310000D02*
X658000000Y971300000D01*
X654500000Y971310000D02*
X657990000Y971310000D01*
X671520000Y972600000D02*
X671500000Y972580000D01*
X677875000Y972600000D02*
X676850000Y972600000D01*
X676850000Y972600000D02*
X671520000Y972600000D01*
X677125000Y972600000D02*
X676850000Y972600000D01*
X677875000Y970787500D02*
X677850000Y970762500D01*
X677875000Y972600000D02*
X677875000Y970787500D01*
X657450010Y951086402D02*
X657450010Y924350010D01*
X654500000Y954036412D02*
X657450010Y951086402D01*
X654500000Y957340000D02*
X654500000Y954036412D01*
X657450010Y924350010D02*
X659600020Y922200000D01*
X659600020Y922200000D02*
X664700000Y922200000D01*
X672800000Y964960000D02*
X673500001Y964259999D01*
X671500000Y964960000D02*
X672800000Y964960000D01*
X677800000Y951850000D02*
X678475000Y952525000D01*
X673500000Y951850000D02*
X677800000Y951850000D01*
X678475000Y952525000D02*
X679250000Y953300000D01*
X677900000Y951950000D02*
X678475000Y952525000D01*
X673500001Y956548529D02*
X673500001Y964259999D01*
X673500000Y955700000D02*
X673500001Y956548529D01*
D28*
X588200000Y920600000D02*
X588200000Y947200000D01*
X596200000Y955000000D02*
X594600000Y953400000D01*
X600850000Y953400000D02*
X602450000Y955000000D01*
X594600000Y953400000D02*
X600850000Y953400000D01*
X602450000Y955000000D02*
X596200000Y955000000D01*
X604350000Y955000000D02*
X602450000Y955000000D01*
D29*
X669865000Y974135750D02*
X670023750Y973977000D01*
X671373000Y973977000D01*
X671373000Y973997000D01*
X671627000Y973997000D01*
X671627000Y973977000D01*
X672976250Y973977000D01*
X673135000Y974135750D01*
X673135697Y974173000D01*
X682090001Y974173000D01*
X682090000Y919151247D01*
X681935163Y919382977D01*
X681632977Y919685163D01*
X681277645Y919922588D01*
X680882821Y920086130D01*
X680463677Y920169503D01*
X680036323Y920169503D01*
X679617179Y920086130D01*
X679222355Y919922588D01*
X678867023Y919685163D01*
X678564837Y919382977D01*
X678335292Y919039439D01*
X678338072Y919550000D01*
X678325812Y919674482D01*
X678289502Y919794180D01*
X678230537Y919904494D01*
X678151185Y920001185D01*
X678054494Y920080537D01*
X677944180Y920139502D01*
X677871620Y920161513D01*
X678003475Y920293368D01*
X678165990Y920536589D01*
X678277932Y920806842D01*
X678335000Y921093740D01*
X678335000Y921386260D01*
X678277932Y921673158D01*
X678165990Y921943411D01*
X678003475Y922186632D01*
X677796632Y922393475D01*
X677622240Y922510000D01*
X677796632Y922626525D01*
X678003475Y922833368D01*
X678165990Y923076589D01*
X678277932Y923346842D01*
X678335000Y923633740D01*
X678335000Y923926260D01*
X678277932Y924213158D01*
X678165990Y924483411D01*
X678003475Y924726632D01*
X677796632Y924933475D01*
X677622240Y925050000D01*
X677796632Y925166525D01*
X678003475Y925373368D01*
X678165990Y925616589D01*
X678277932Y925886842D01*
X678335000Y926173740D01*
X678335000Y926466260D01*
X678277932Y926753158D01*
X678165990Y927023411D01*
X678003475Y927266632D01*
X677796632Y927473475D01*
X677622240Y927590000D01*
X677796632Y927706525D01*
X678003475Y927913368D01*
X678165990Y928156589D01*
X678277932Y928426842D01*
X678335000Y928713740D01*
X678335000Y929006260D01*
X678277932Y929293158D01*
X678165990Y929563411D01*
X678003475Y929806632D01*
X677796632Y930013475D01*
X677622240Y930130000D01*
X677796632Y930246525D01*
X678003475Y930453368D01*
X678165990Y930696589D01*
X678277932Y930966842D01*
X678335000Y931253740D01*
X678335000Y931546260D01*
X678277932Y931833158D01*
X678165990Y932103411D01*
X678003475Y932346632D01*
X677796632Y932553475D01*
X677553411Y932715990D01*
X677283158Y932827932D01*
X676996260Y932885000D01*
X676703740Y932885000D01*
X676416842Y932827932D01*
X676146589Y932715990D01*
X675903368Y932553475D01*
X675696525Y932346632D01*
X675534010Y932103411D01*
X675422068Y931833158D01*
X675365000Y931546260D01*
X675365000Y931253740D01*
X675422068Y930966842D01*
X675534010Y930696589D01*
X675696525Y930453368D01*
X675903368Y930246525D01*
X676077760Y930130000D01*
X675903368Y930013475D01*
X675696525Y929806632D01*
X675534010Y929563411D01*
X675422068Y929293158D01*
X675365000Y929006260D01*
X675365000Y928713740D01*
X675422068Y928426842D01*
X675534010Y928156589D01*
X675696525Y927913368D01*
X675903368Y927706525D01*
X676077760Y927590000D01*
X675903368Y927473475D01*
X675696525Y927266632D01*
X675534010Y927023411D01*
X675422068Y926753158D01*
X675365000Y926466260D01*
X675365000Y926173740D01*
X675422068Y925886842D01*
X675534010Y925616589D01*
X675696525Y925373368D01*
X675903368Y925166525D01*
X676077760Y925050000D01*
X675903368Y924933475D01*
X675696525Y924726632D01*
X675534010Y924483411D01*
X675422068Y924213158D01*
X675365000Y923926260D01*
X675365000Y923633740D01*
X675422068Y923346842D01*
X675534010Y923076589D01*
X675696525Y922833368D01*
X675903368Y922626525D01*
X676077760Y922510000D01*
X675903368Y922393475D01*
X675696525Y922186632D01*
X675534010Y921943411D01*
X675422068Y921673158D01*
X675365000Y921386260D01*
X675365000Y921093740D01*
X675422068Y920806842D01*
X675534010Y920536589D01*
X675696525Y920293368D01*
X675828380Y920161513D01*
X675755820Y920139502D01*
X675645506Y920080537D01*
X675548815Y920001185D01*
X675469463Y919904494D01*
X675410498Y919794180D01*
X675374188Y919674482D01*
X675361928Y919550000D01*
X675365000Y918985750D01*
X675523750Y918827000D01*
X676723000Y918827000D01*
X676723000Y918847000D01*
X676977000Y918847000D01*
X676977000Y918827000D01*
X676997000Y918827000D01*
X676997000Y918573000D01*
X676977000Y918573000D01*
X676977000Y917373750D01*
X677135750Y917215000D01*
X677700000Y917211928D01*
X677824482Y917224188D01*
X677944180Y917260498D01*
X678054494Y917319463D01*
X678151185Y917398815D01*
X678156330Y917405084D01*
X678163870Y917367179D01*
X678327412Y916972355D01*
X678564837Y916617023D01*
X678867023Y916314837D01*
X679222355Y916077412D01*
X679617179Y915913870D01*
X680036323Y915830497D01*
X680463677Y915830497D01*
X680882821Y915913870D01*
X681277645Y916077412D01*
X681632977Y916314837D01*
X681935163Y916617023D01*
X682090000Y916848753D01*
X682090000Y915360000D01*
X609027000Y915360000D01*
X609027000Y918050000D01*
X629761928Y918050000D01*
X629774188Y917925518D01*
X629810498Y917805820D01*
X629869463Y917695506D01*
X629948815Y917598815D01*
X630045506Y917519463D01*
X630155820Y917460498D01*
X630275518Y917424188D01*
X630400000Y917411928D01*
X630964250Y917415000D01*
X631123000Y917573750D01*
X631123000Y918773000D01*
X629923750Y918773000D01*
X629765000Y918614250D01*
X629761928Y918050000D01*
X609027000Y918050000D01*
X609027000Y919750000D01*
X629761928Y919750000D01*
X629765000Y919185750D01*
X629923750Y919027000D01*
X631123000Y919027000D01*
X631123000Y920226250D01*
X630964250Y920385000D01*
X630400000Y920388072D01*
X630275518Y920375812D01*
X630155820Y920339502D01*
X630045506Y920280537D01*
X629948815Y920201185D01*
X629869463Y920104494D01*
X629810498Y919994180D01*
X629774188Y919874482D01*
X629761928Y919750000D01*
X609027000Y919750000D01*
X609027000Y919947394D01*
X610852606Y921773000D01*
X622400000Y921773000D01*
X622422330Y921774978D01*
X622446291Y921781737D01*
X622468474Y921793040D01*
X622488025Y921808454D01*
X632851153Y931773000D01*
X633770191Y931773000D01*
X633674134Y931753893D01*
X633408431Y931643835D01*
X633169304Y931484056D01*
X632965944Y931280696D01*
X632806165Y931041569D01*
X632696107Y930775866D01*
X632640000Y930493797D01*
X632640000Y930206203D01*
X632696107Y929924134D01*
X632806165Y929658431D01*
X632965944Y929419304D01*
X633005001Y929380247D01*
X633005000Y920161474D01*
X632843368Y920053475D01*
X632711513Y919921620D01*
X632689502Y919994180D01*
X632630537Y920104494D01*
X632551185Y920201185D01*
X632454494Y920280537D01*
X632344180Y920339502D01*
X632224482Y920375812D01*
X632100000Y920388072D01*
X631535750Y920385000D01*
X631377000Y920226250D01*
X631377000Y919027000D01*
X631397000Y919027000D01*
X631397000Y918773000D01*
X631377000Y918773000D01*
X631377000Y917573750D01*
X631535750Y917415000D01*
X632100000Y917411928D01*
X632224482Y917424188D01*
X632344180Y917460498D01*
X632454494Y917519463D01*
X632551185Y917598815D01*
X632630537Y917695506D01*
X632689502Y917805820D01*
X632711513Y917878380D01*
X632843368Y917746525D01*
X633086589Y917584010D01*
X633356842Y917472068D01*
X633643740Y917415000D01*
X633936260Y917415000D01*
X634223158Y917472068D01*
X634493411Y917584010D01*
X634736632Y917746525D01*
X634943475Y917953368D01*
X635060000Y918127760D01*
X635176525Y917953368D01*
X635383368Y917746525D01*
X635626589Y917584010D01*
X635896842Y917472068D01*
X636183740Y917415000D01*
X636476260Y917415000D01*
X636763158Y917472068D01*
X637033411Y917584010D01*
X637276632Y917746525D01*
X637483475Y917953368D01*
X637598695Y918125807D01*
X641815000Y918125807D01*
X641815000Y917774193D01*
X641883596Y917429335D01*
X642018153Y917104485D01*
X642213500Y916812129D01*
X642462129Y916563500D01*
X642754485Y916368153D01*
X643079335Y916233596D01*
X643424193Y916165000D01*
X643775807Y916165000D01*
X644120665Y916233596D01*
X644445515Y916368153D01*
X644737871Y916563500D01*
X644882022Y916707651D01*
X657937256Y916707651D01*
X658051118Y916427910D01*
X658366296Y916272039D01*
X658705826Y916180651D01*
X659056661Y916157259D01*
X659405319Y916202760D01*
X659738400Y916315406D01*
X659948882Y916427910D01*
X660062744Y916707651D01*
X659000000Y917770395D01*
X657937256Y916707651D01*
X644882022Y916707651D01*
X644986500Y916812129D01*
X645181847Y917104485D01*
X645316404Y917429335D01*
X645385000Y917774193D01*
X645385000Y917893339D01*
X657207259Y917893339D01*
X657252760Y917544681D01*
X657365406Y917211600D01*
X657477910Y917001118D01*
X657757651Y916887256D01*
X658820395Y917950000D01*
X659179605Y917950000D01*
X660242349Y916887256D01*
X660522090Y917001118D01*
X660677961Y917316296D01*
X660769349Y917655826D01*
X660782295Y917850000D01*
X675361928Y917850000D01*
X675374188Y917725518D01*
X675410498Y917605820D01*
X675469463Y917495506D01*
X675548815Y917398815D01*
X675645506Y917319463D01*
X675755820Y917260498D01*
X675875518Y917224188D01*
X676000000Y917211928D01*
X676564250Y917215000D01*
X676723000Y917373750D01*
X676723000Y918573000D01*
X675523750Y918573000D01*
X675365000Y918414250D01*
X675361928Y917850000D01*
X660782295Y917850000D01*
X660792741Y918006661D01*
X660747240Y918355319D01*
X660634594Y918688400D01*
X660569599Y918810000D01*
X663211928Y918810000D01*
X663224188Y918685518D01*
X663260498Y918565820D01*
X663319463Y918455506D01*
X663398815Y918358815D01*
X663495506Y918279463D01*
X663605820Y918220498D01*
X663725518Y918184188D01*
X663850000Y918171928D01*
X664414250Y918175000D01*
X664573000Y918333750D01*
X664573000Y919533000D01*
X664827000Y919533000D01*
X664827000Y918333750D01*
X664985750Y918175000D01*
X665550000Y918171928D01*
X665674482Y918184188D01*
X665794180Y918220498D01*
X665904494Y918279463D01*
X666001185Y918358815D01*
X666080537Y918455506D01*
X666139502Y918565820D01*
X666175812Y918685518D01*
X666188072Y918810000D01*
X666185000Y919374250D01*
X666026250Y919533000D01*
X664827000Y919533000D01*
X664573000Y919533000D01*
X663373750Y919533000D01*
X663215000Y919374250D01*
X663211928Y918810000D01*
X660569599Y918810000D01*
X660522090Y918898882D01*
X660242349Y919012744D01*
X659179605Y917950000D01*
X658820395Y917950000D01*
X657757651Y919012744D01*
X657477910Y918898882D01*
X657322039Y918583704D01*
X657230651Y918244174D01*
X657207259Y917893339D01*
X645385000Y917893339D01*
X645385000Y918125807D01*
X645316404Y918470665D01*
X645181847Y918795515D01*
X644986500Y919087871D01*
X644882022Y919192349D01*
X657937256Y919192349D01*
X659000000Y918129605D01*
X660062744Y919192349D01*
X659948882Y919472090D01*
X659633704Y919627961D01*
X659294174Y919719349D01*
X658943339Y919742741D01*
X658594681Y919697240D01*
X658261600Y919584594D01*
X658051118Y919472090D01*
X657937256Y919192349D01*
X644882022Y919192349D01*
X644737871Y919336500D01*
X644445515Y919531847D01*
X644120665Y919666404D01*
X643775807Y919735000D01*
X643424193Y919735000D01*
X643079335Y919666404D01*
X642754485Y919531847D01*
X642462129Y919336500D01*
X642213500Y919087871D01*
X642018153Y918795515D01*
X641883596Y918470665D01*
X641815000Y918125807D01*
X637598695Y918125807D01*
X637645990Y918196589D01*
X637757932Y918466842D01*
X637815000Y918753740D01*
X637815000Y919046260D01*
X637757932Y919333158D01*
X637645990Y919603411D01*
X637483475Y919846632D01*
X637276632Y920053475D01*
X637033411Y920215990D01*
X636763158Y920327932D01*
X636476260Y920385000D01*
X636183740Y920385000D01*
X635896842Y920327932D01*
X635626589Y920215990D01*
X635383368Y920053475D01*
X635176525Y919846632D01*
X635060000Y919672240D01*
X634943475Y919846632D01*
X634736632Y920053475D01*
X634575000Y920161474D01*
X634575000Y928966459D01*
X634791569Y929056165D01*
X635030696Y929215944D01*
X635234056Y929419304D01*
X635393835Y929658431D01*
X635503893Y929924134D01*
X635560000Y930206203D01*
X635560000Y930493797D01*
X635503893Y930775866D01*
X635393835Y931041569D01*
X635234056Y931280696D01*
X635030696Y931484056D01*
X634791569Y931643835D01*
X634525866Y931753893D01*
X634429809Y931773000D01*
X646200000Y931773000D01*
X646223611Y931775214D01*
X646247502Y931782218D01*
X646269567Y931793749D01*
X646288959Y931809362D01*
X656665010Y941993264D01*
X656665011Y924388573D01*
X656661213Y924350010D01*
X656676369Y924196124D01*
X656721256Y924048151D01*
X656721257Y924048150D01*
X656794149Y923911777D01*
X656834700Y923862366D01*
X656867665Y923822198D01*
X656867669Y923822194D01*
X656892247Y923792246D01*
X656922195Y923767668D01*
X659017678Y921672184D01*
X659042256Y921642236D01*
X659072204Y921617658D01*
X659072207Y921617655D01*
X659101579Y921593550D01*
X659161787Y921544138D01*
X659298160Y921471246D01*
X659411692Y921436806D01*
X659446132Y921426359D01*
X659460510Y921424943D01*
X659561459Y921415000D01*
X659561466Y921415000D01*
X659600019Y921411203D01*
X659638572Y921415000D01*
X663438526Y921415000D01*
X663546525Y921253368D01*
X663678380Y921121513D01*
X663605820Y921099502D01*
X663495506Y921040537D01*
X663398815Y920961185D01*
X663319463Y920864494D01*
X663260498Y920754180D01*
X663224188Y920634482D01*
X663211928Y920510000D01*
X663215000Y919945750D01*
X663373750Y919787000D01*
X664573000Y919787000D01*
X664573000Y919807000D01*
X664827000Y919807000D01*
X664827000Y919787000D01*
X666026250Y919787000D01*
X666185000Y919945750D01*
X666188072Y920510000D01*
X666175812Y920634482D01*
X666139502Y920754180D01*
X666080537Y920864494D01*
X666001185Y920961185D01*
X665904494Y921040537D01*
X665794180Y921099502D01*
X665721620Y921121513D01*
X665853475Y921253368D01*
X666015990Y921496589D01*
X666127932Y921766842D01*
X666185000Y922053740D01*
X666185000Y922346260D01*
X666127932Y922633158D01*
X666015990Y922903411D01*
X665853475Y923146632D01*
X665646632Y923353475D01*
X665403411Y923515990D01*
X665133158Y923627932D01*
X664846260Y923685000D01*
X664553740Y923685000D01*
X664266842Y923627932D01*
X663996589Y923515990D01*
X663753368Y923353475D01*
X663546525Y923146632D01*
X663438526Y922985000D01*
X659925178Y922985000D01*
X658235010Y924675167D01*
X658235010Y925450000D01*
X663211928Y925450000D01*
X663224188Y925325518D01*
X663260498Y925205820D01*
X663319463Y925095506D01*
X663398815Y924998815D01*
X663495506Y924919463D01*
X663605820Y924860498D01*
X663725518Y924824188D01*
X663850000Y924811928D01*
X664414250Y924815000D01*
X664573000Y924973750D01*
X664573000Y926173000D01*
X664827000Y926173000D01*
X664827000Y924973750D01*
X664985750Y924815000D01*
X665550000Y924811928D01*
X665674482Y924824188D01*
X665794180Y924860498D01*
X665904494Y924919463D01*
X666001185Y924998815D01*
X666080537Y925095506D01*
X666139502Y925205820D01*
X666175812Y925325518D01*
X666188072Y925450000D01*
X666185000Y926014250D01*
X666026250Y926173000D01*
X664827000Y926173000D01*
X664573000Y926173000D01*
X663373750Y926173000D01*
X663215000Y926014250D01*
X663211928Y925450000D01*
X658235010Y925450000D01*
X658235010Y950114833D01*
X661902925Y946446918D01*
X661865000Y946256260D01*
X661865000Y945963740D01*
X661922068Y945676842D01*
X662034010Y945406589D01*
X662196525Y945163368D01*
X662403368Y944956525D01*
X662577760Y944840000D01*
X662403368Y944723475D01*
X662196525Y944516632D01*
X662034010Y944273411D01*
X661922068Y944003158D01*
X661865000Y943716260D01*
X661865000Y943423740D01*
X661902925Y943233082D01*
X660872185Y942202342D01*
X660842237Y942177764D01*
X660817659Y942147816D01*
X660817655Y942147812D01*
X660801543Y942128179D01*
X660744139Y942058233D01*
X660729192Y942030269D01*
X660671246Y941921859D01*
X660626359Y941773886D01*
X660611203Y941620000D01*
X660615001Y941581437D01*
X660614999Y932178554D01*
X660611202Y932140001D01*
X660614999Y932101448D01*
X660614999Y932101441D01*
X660626358Y931986115D01*
X660671245Y931838142D01*
X660744137Y931701769D01*
X660842235Y931582238D01*
X660872183Y931557660D01*
X663252924Y929176918D01*
X663215000Y928986260D01*
X663215000Y928693740D01*
X663272068Y928406842D01*
X663384010Y928136589D01*
X663546525Y927893368D01*
X663678380Y927761513D01*
X663605820Y927739502D01*
X663495506Y927680537D01*
X663398815Y927601185D01*
X663319463Y927504494D01*
X663260498Y927394180D01*
X663224188Y927274482D01*
X663211928Y927150000D01*
X663215000Y926585750D01*
X663373750Y926427000D01*
X664573000Y926427000D01*
X664573000Y926447000D01*
X664827000Y926447000D01*
X664827000Y926427000D01*
X666026250Y926427000D01*
X666185000Y926585750D01*
X666188072Y927150000D01*
X666175812Y927274482D01*
X666139502Y927394180D01*
X666080537Y927504494D01*
X666001185Y927601185D01*
X665904494Y927680537D01*
X665794180Y927739502D01*
X665721620Y927761513D01*
X665853475Y927893368D01*
X666015990Y928136589D01*
X666127932Y928406842D01*
X666185000Y928693740D01*
X666185000Y928986260D01*
X666127932Y929273158D01*
X666015990Y929543411D01*
X665853475Y929786632D01*
X665646632Y929993475D01*
X665472240Y930110000D01*
X665646632Y930226525D01*
X665853475Y930433368D01*
X666015990Y930676589D01*
X666127932Y930946842D01*
X666185000Y931233740D01*
X666185000Y931526260D01*
X666127932Y931813158D01*
X666015990Y932083411D01*
X665853475Y932326632D01*
X665646632Y932533475D01*
X665485000Y932641474D01*
X665485000Y934494843D01*
X671965000Y940974843D01*
X671965000Y940902998D01*
X672129844Y940902998D01*
X672008524Y940673110D01*
X672053175Y940525901D01*
X672178359Y940263080D01*
X672352412Y940029731D01*
X672568645Y939834822D01*
X672685534Y939765195D01*
X672503368Y939643475D01*
X672296525Y939436632D01*
X672134010Y939193411D01*
X672022068Y938923158D01*
X671965000Y938636260D01*
X671965000Y938343740D01*
X672002925Y938153082D01*
X670532190Y936682347D01*
X670502236Y936657764D01*
X670404138Y936538232D01*
X670331246Y936401859D01*
X670286359Y936253886D01*
X670275000Y936138560D01*
X670275000Y936138553D01*
X670271203Y936100000D01*
X670275000Y936061447D01*
X670275001Y928750893D01*
X670212733Y928709287D01*
X670040713Y928537267D01*
X669905557Y928334992D01*
X669812460Y928110236D01*
X669765000Y927871637D01*
X669765000Y927628363D01*
X669812460Y927389764D01*
X669905557Y927165008D01*
X670040713Y926962733D01*
X670212733Y926790713D01*
X670415008Y926655557D01*
X670639764Y926562460D01*
X670878363Y926515000D01*
X671121637Y926515000D01*
X671360236Y926562460D01*
X671584992Y926655557D01*
X671787267Y926790713D01*
X671959287Y926962733D01*
X672094443Y927165008D01*
X672187540Y927389764D01*
X672235000Y927628363D01*
X672235000Y927871637D01*
X672187540Y928110236D01*
X672094443Y928334992D01*
X671959287Y928537267D01*
X671845000Y928651554D01*
X671845000Y935774843D01*
X671961928Y935891771D01*
X671961928Y935100000D01*
X671974188Y934975518D01*
X672010498Y934855820D01*
X672069463Y934745506D01*
X672148815Y934648815D01*
X672245506Y934569463D01*
X672355820Y934510498D01*
X672475518Y934474188D01*
X672600000Y934461928D01*
X674300000Y934461928D01*
X674424482Y934474188D01*
X674544180Y934510498D01*
X674654494Y934569463D01*
X674751185Y934648815D01*
X674830537Y934745506D01*
X674889502Y934855820D01*
X674925812Y934975518D01*
X674938072Y935100000D01*
X674938072Y936800000D01*
X674925812Y936924482D01*
X674889502Y937044180D01*
X674830537Y937154494D01*
X674751185Y937251185D01*
X674654494Y937330537D01*
X674544180Y937389502D01*
X674471620Y937411513D01*
X674603475Y937543368D01*
X674765990Y937786589D01*
X674877932Y938056842D01*
X674935000Y938343740D01*
X674935000Y938636260D01*
X674877932Y938923158D01*
X674765990Y939193411D01*
X674603475Y939436632D01*
X674396632Y939643475D01*
X674214466Y939765195D01*
X674331355Y939834822D01*
X674547588Y940029731D01*
X674721641Y940263080D01*
X674846825Y940525901D01*
X674891476Y940673110D01*
X674770155Y940903000D01*
X673577000Y940903000D01*
X673577000Y940883000D01*
X673323000Y940883000D01*
X673323000Y940903000D01*
X673303000Y940903000D01*
X673303000Y941157000D01*
X673323000Y941157000D01*
X673323000Y941177000D01*
X673577000Y941177000D01*
X673577000Y941157000D01*
X674770155Y941157000D01*
X674891476Y941386890D01*
X674846825Y941534099D01*
X674721641Y941796920D01*
X674547588Y942030269D01*
X674331355Y942225178D01*
X674214466Y942294805D01*
X674396632Y942416525D01*
X674603475Y942623368D01*
X674765990Y942866589D01*
X674877932Y943136842D01*
X674935000Y943423740D01*
X674935000Y943716260D01*
X674877932Y944003158D01*
X674765990Y944273411D01*
X674603475Y944516632D01*
X674396632Y944723475D01*
X674222240Y944840000D01*
X674396632Y944956525D01*
X674603475Y945163368D01*
X674765990Y945406589D01*
X674877932Y945676842D01*
X674935000Y945963740D01*
X674935000Y946256260D01*
X674877932Y946543158D01*
X674765990Y946813411D01*
X674603475Y947056632D01*
X674396632Y947263475D01*
X674222240Y947380000D01*
X674396632Y947496525D01*
X674603475Y947703368D01*
X674765990Y947946589D01*
X674877932Y948216842D01*
X674935000Y948503740D01*
X674935000Y948796260D01*
X674877932Y949083158D01*
X674765990Y949353411D01*
X674603475Y949596632D01*
X674396632Y949803475D01*
X674153411Y949965990D01*
X673883158Y950077932D01*
X673596260Y950135000D01*
X673303740Y950135000D01*
X673016842Y950077932D01*
X672746589Y949965990D01*
X672503368Y949803475D01*
X672296525Y949596632D01*
X672134010Y949353411D01*
X672022068Y949083158D01*
X671965000Y948796260D01*
X671965000Y948503740D01*
X672022068Y948216842D01*
X672134010Y947946589D01*
X672296525Y947703368D01*
X672503368Y947496525D01*
X672677760Y947380000D01*
X672503368Y947263475D01*
X672296525Y947056632D01*
X672134010Y946813411D01*
X672022068Y946543158D01*
X671965000Y946256260D01*
X671965000Y945963740D01*
X672022068Y945676842D01*
X672134010Y945406589D01*
X672296525Y945163368D01*
X672503368Y944956525D01*
X672677760Y944840000D01*
X672503368Y944723475D01*
X672296525Y944516632D01*
X672134010Y944273411D01*
X672022068Y944003158D01*
X671965000Y943716260D01*
X671965000Y943423740D01*
X672002925Y943233082D01*
X664838072Y936068229D01*
X664838072Y936800000D01*
X664825812Y936924482D01*
X664789502Y937044180D01*
X664730537Y937154494D01*
X664651185Y937251185D01*
X664554494Y937330537D01*
X664444180Y937389502D01*
X664371620Y937411513D01*
X664503475Y937543368D01*
X664665990Y937786589D01*
X664777932Y938056842D01*
X664835000Y938343740D01*
X664835000Y938636260D01*
X664777932Y938923158D01*
X664665990Y939193411D01*
X664503475Y939436632D01*
X664296632Y939643475D01*
X664114466Y939765195D01*
X664231355Y939834822D01*
X664447588Y940029731D01*
X664621641Y940263080D01*
X664746825Y940525901D01*
X664791476Y940673110D01*
X664670155Y940903000D01*
X663477000Y940903000D01*
X663477000Y940883000D01*
X663223000Y940883000D01*
X663223000Y940903000D01*
X663203000Y940903000D01*
X663203000Y941157000D01*
X663223000Y941157000D01*
X663223000Y941177000D01*
X663477000Y941177000D01*
X663477000Y941157000D01*
X664670155Y941157000D01*
X664791476Y941386890D01*
X664746825Y941534099D01*
X664621641Y941796920D01*
X664447588Y942030269D01*
X664231355Y942225178D01*
X664114466Y942294805D01*
X664296632Y942416525D01*
X664503475Y942623368D01*
X664665990Y942866589D01*
X664777932Y943136842D01*
X664835000Y943423740D01*
X664835000Y943716260D01*
X664797075Y943906918D01*
X672332219Y951442062D01*
X672405557Y951265008D01*
X672540713Y951062733D01*
X672712733Y950890713D01*
X672915008Y950755557D01*
X673139764Y950662460D01*
X673378363Y950615000D01*
X673621637Y950615000D01*
X673860236Y950662460D01*
X674084992Y950755557D01*
X674287267Y950890713D01*
X674459287Y951062733D01*
X674460802Y951065000D01*
X677761447Y951065000D01*
X677800000Y951061203D01*
X677838553Y951065000D01*
X677838561Y951065000D01*
X677953887Y951076359D01*
X678101860Y951121246D01*
X678238233Y951194138D01*
X678357764Y951292236D01*
X678382347Y951322189D01*
X678993928Y951933771D01*
X679025518Y951924188D01*
X679150000Y951911928D01*
X680850000Y951911928D01*
X680974482Y951924188D01*
X681094180Y951960498D01*
X681204494Y952019463D01*
X681301185Y952098815D01*
X681380537Y952195506D01*
X681439502Y952305820D01*
X681475812Y952425518D01*
X681488072Y952550000D01*
X681488072Y954250000D01*
X681475812Y954374482D01*
X681439502Y954494180D01*
X681380537Y954604494D01*
X681301185Y954701185D01*
X681204494Y954780537D01*
X681094180Y954839502D01*
X680974482Y954875812D01*
X680850000Y954888072D01*
X679150000Y954888072D01*
X679025518Y954875812D01*
X678905820Y954839502D01*
X678795506Y954780537D01*
X678698815Y954701185D01*
X678619463Y954604494D01*
X678560498Y954494180D01*
X678524188Y954374482D01*
X678511928Y954250000D01*
X678511928Y953672085D01*
X677947193Y953107350D01*
X677947187Y953107345D01*
X677474843Y952635000D01*
X674460802Y952635000D01*
X674459287Y952637267D01*
X674287267Y952809287D01*
X674084992Y952944443D01*
X673907938Y953017781D01*
X680227811Y959337654D01*
X680257764Y959362236D01*
X680355862Y959481767D01*
X680428754Y959618140D01*
X680435648Y959640865D01*
X680473642Y959766113D01*
X680484858Y959880000D01*
X680485000Y959881439D01*
X680485000Y959881444D01*
X680488797Y959920000D01*
X680485000Y959958556D01*
X680485000Y971674339D01*
X680569123Y971743377D01*
X680678012Y971876058D01*
X680758923Y972027433D01*
X680808748Y972191684D01*
X680825572Y972362500D01*
X680825572Y972837500D01*
X680808748Y973008316D01*
X680758923Y973172567D01*
X680678012Y973323942D01*
X680569123Y973456623D01*
X680436442Y973565512D01*
X680285067Y973646423D01*
X680120816Y973696248D01*
X679950000Y973713072D01*
X679450000Y973713072D01*
X679279184Y973696248D01*
X679114933Y973646423D01*
X678963558Y973565512D01*
X678830877Y973456623D01*
X678787500Y973403768D01*
X678744123Y973456623D01*
X678611442Y973565512D01*
X678460067Y973646423D01*
X678295816Y973696248D01*
X678125000Y973713072D01*
X677625000Y973713072D01*
X677454184Y973696248D01*
X677289933Y973646423D01*
X677138558Y973565512D01*
X677005877Y973456623D01*
X676947097Y973385000D01*
X673136595Y973385000D01*
X673138072Y973400000D01*
X673135000Y973564250D01*
X672976250Y973723000D01*
X671627000Y973723000D01*
X671627000Y973703000D01*
X671373000Y973703000D01*
X671373000Y973723000D01*
X670023750Y973723000D01*
X669865000Y973564250D01*
X669861928Y973400000D01*
X669874188Y973275518D01*
X669892546Y973215000D01*
X669874188Y973154482D01*
X669861928Y973030000D01*
X669861928Y972130000D01*
X669874188Y972005518D01*
X669892546Y971945000D01*
X669874188Y971884482D01*
X669861928Y971760000D01*
X669861928Y970860000D01*
X669874188Y970735518D01*
X669892546Y970675000D01*
X669874188Y970614482D01*
X669861928Y970490000D01*
X669861928Y969590000D01*
X669874188Y969465518D01*
X669892546Y969405000D01*
X669874188Y969344482D01*
X669861928Y969220000D01*
X669861928Y968320000D01*
X669874188Y968195518D01*
X669892546Y968135000D01*
X669874188Y968074482D01*
X669861928Y967950000D01*
X669861928Y967050000D01*
X669874188Y966925518D01*
X669892546Y966865000D01*
X669874188Y966804482D01*
X669861928Y966680000D01*
X669861928Y965780000D01*
X669874188Y965655518D01*
X669892546Y965595000D01*
X669874188Y965534482D01*
X669861928Y965410000D01*
X669861928Y964510000D01*
X669874188Y964385518D01*
X669892546Y964325000D01*
X669874188Y964264482D01*
X669861928Y964140000D01*
X669861928Y963240000D01*
X669874188Y963115518D01*
X669892546Y963055000D01*
X669874188Y962994482D01*
X669861928Y962870000D01*
X669861928Y961970000D01*
X669874188Y961845518D01*
X669892546Y961785000D01*
X669874188Y961724482D01*
X669861928Y961600000D01*
X669861928Y960700000D01*
X669874188Y960575518D01*
X669892546Y960515000D01*
X669874188Y960454482D01*
X669861928Y960330000D01*
X669861928Y959430000D01*
X669874188Y959305518D01*
X669892546Y959245000D01*
X669874188Y959184482D01*
X669861928Y959060000D01*
X669861928Y958160000D01*
X669874188Y958035518D01*
X669892546Y957975000D01*
X669874188Y957914482D01*
X669861928Y957790000D01*
X669861928Y956890000D01*
X669874188Y956765518D01*
X669910498Y956645820D01*
X669969463Y956535506D01*
X670048815Y956438815D01*
X670145506Y956359463D01*
X670255820Y956300498D01*
X670375518Y956264188D01*
X670500000Y956251928D01*
X672391861Y956251928D01*
X672312460Y956060236D01*
X672265000Y955821637D01*
X672265000Y955578363D01*
X672312460Y955339764D01*
X672405557Y955115008D01*
X672540713Y954912733D01*
X672712733Y954740713D01*
X672915008Y954605557D01*
X673139764Y954512460D01*
X673175245Y954505402D01*
X664835000Y946165157D01*
X664835000Y946256260D01*
X664777932Y946543158D01*
X664665990Y946813411D01*
X664503475Y947056632D01*
X664296632Y947263475D01*
X664122240Y947380000D01*
X664296632Y947496525D01*
X664503475Y947703368D01*
X664665990Y947946589D01*
X664777932Y948216842D01*
X664835000Y948503740D01*
X664835000Y948796260D01*
X664777932Y949083158D01*
X664665990Y949353411D01*
X664503475Y949596632D01*
X664296632Y949803475D01*
X664053411Y949965990D01*
X663783158Y950077932D01*
X663496260Y950135000D01*
X663203740Y950135000D01*
X662916842Y950077932D01*
X662646589Y949965990D01*
X662403368Y949803475D01*
X662196525Y949596632D01*
X662034010Y949353411D01*
X661922068Y949083158D01*
X661865000Y948796260D01*
X661865000Y948705157D01*
X657169999Y953400158D01*
X657169999Y954701928D01*
X657735000Y954701928D01*
X657859482Y954714188D01*
X657920000Y954732546D01*
X657980518Y954714188D01*
X658105000Y954701928D01*
X659005000Y954701928D01*
X659129482Y954714188D01*
X659190000Y954732546D01*
X659250518Y954714188D01*
X659375000Y954701928D01*
X660275000Y954701928D01*
X660399482Y954714188D01*
X660460000Y954732546D01*
X660520518Y954714188D01*
X660645000Y954701928D01*
X661545000Y954701928D01*
X661669482Y954714188D01*
X661730000Y954732546D01*
X661790518Y954714188D01*
X661915000Y954701928D01*
X662815000Y954701928D01*
X662939482Y954714188D01*
X663000000Y954732546D01*
X663060518Y954714188D01*
X663185000Y954701928D01*
X664085000Y954701928D01*
X664209482Y954714188D01*
X664270000Y954732546D01*
X664330518Y954714188D01*
X664455000Y954701928D01*
X665355000Y954701928D01*
X665479482Y954714188D01*
X665540000Y954732546D01*
X665600518Y954714188D01*
X665725000Y954701928D01*
X666625000Y954701928D01*
X666749482Y954714188D01*
X666810000Y954732546D01*
X666870518Y954714188D01*
X666995000Y954701928D01*
X667895000Y954701928D01*
X668019482Y954714188D01*
X668080000Y954732546D01*
X668140518Y954714188D01*
X668265000Y954701928D01*
X668429250Y954705000D01*
X668588000Y954863750D01*
X668588000Y956213000D01*
X668842000Y956213000D01*
X668842000Y954863750D01*
X669000750Y954705000D01*
X669165000Y954701928D01*
X669289482Y954714188D01*
X669409180Y954750498D01*
X669519494Y954809463D01*
X669616185Y954888815D01*
X669695537Y954985506D01*
X669754502Y955095820D01*
X669790812Y955215518D01*
X669803072Y955340000D01*
X669800000Y956054250D01*
X669641250Y956213000D01*
X668842000Y956213000D01*
X668588000Y956213000D01*
X668568000Y956213000D01*
X668568000Y956467000D01*
X668588000Y956467000D01*
X668588000Y957816250D01*
X668842000Y957816250D01*
X668842000Y956467000D01*
X669641250Y956467000D01*
X669800000Y956625750D01*
X669803072Y957340000D01*
X669790812Y957464482D01*
X669754502Y957584180D01*
X669695537Y957694494D01*
X669616185Y957791185D01*
X669519494Y957870537D01*
X669409180Y957929502D01*
X669289482Y957965812D01*
X669165000Y957978072D01*
X669000750Y957975000D01*
X668842000Y957816250D01*
X668588000Y957816250D01*
X668429250Y957975000D01*
X668265000Y957978072D01*
X668140518Y957965812D01*
X668080000Y957947454D01*
X668019482Y957965812D01*
X667895000Y957978072D01*
X666995000Y957978072D01*
X666870518Y957965812D01*
X666810000Y957947454D01*
X666749482Y957965812D01*
X666625000Y957978072D01*
X665725000Y957978072D01*
X665600518Y957965812D01*
X665540000Y957947454D01*
X665479482Y957965812D01*
X665355000Y957978072D01*
X664455000Y957978072D01*
X664330518Y957965812D01*
X664270000Y957947454D01*
X664209482Y957965812D01*
X664085000Y957978072D01*
X663185000Y957978072D01*
X663060518Y957965812D01*
X663000000Y957947454D01*
X662939482Y957965812D01*
X662815000Y957978072D01*
X661915000Y957978072D01*
X661790518Y957965812D01*
X661730000Y957947454D01*
X661669482Y957965812D01*
X661545000Y957978072D01*
X660645000Y957978072D01*
X660520518Y957965812D01*
X660460000Y957947454D01*
X660399482Y957965812D01*
X660275000Y957978072D01*
X659375000Y957978072D01*
X659250518Y957965812D01*
X659190000Y957947454D01*
X659129482Y957965812D01*
X659005000Y957978072D01*
X658642093Y957978072D01*
X658669999Y958118365D01*
X658669999Y958165000D01*
X658721637Y958165000D01*
X658960236Y958212460D01*
X659184992Y958305557D01*
X659387267Y958440713D01*
X659559287Y958612733D01*
X659694443Y958815008D01*
X659787540Y959039764D01*
X659792560Y959065000D01*
X660021637Y959065000D01*
X660260236Y959112460D01*
X660484992Y959205557D01*
X660687267Y959340713D01*
X660859287Y959512733D01*
X660994443Y959715008D01*
X661087540Y959939764D01*
X661135000Y960178363D01*
X661135000Y960365000D01*
X661221637Y960365000D01*
X661460236Y960412460D01*
X661684992Y960505557D01*
X661887267Y960640713D01*
X662059287Y960812733D01*
X662194443Y961015008D01*
X662287540Y961239764D01*
X662335000Y961478363D01*
X662335000Y961721637D01*
X662287540Y961960236D01*
X662194443Y962184992D01*
X662059287Y962387267D01*
X661887267Y962559287D01*
X661834999Y962594211D01*
X661834999Y963212393D01*
X663714250Y963215000D01*
X663873000Y963373750D01*
X663873000Y966223000D01*
X664127000Y966223000D01*
X664127000Y963373750D01*
X664285750Y963215000D01*
X666500000Y963211928D01*
X666624482Y963224188D01*
X666744180Y963260498D01*
X666854494Y963319463D01*
X666951185Y963398815D01*
X667030537Y963495506D01*
X667089502Y963605820D01*
X667125812Y963725518D01*
X667138072Y963850000D01*
X667135000Y966064250D01*
X666976250Y966223000D01*
X664127000Y966223000D01*
X663873000Y966223000D01*
X661023750Y966223000D01*
X660875454Y966074704D01*
X658100158Y968850000D01*
X660861928Y968850000D01*
X660865000Y966635750D01*
X661023750Y966477000D01*
X663873000Y966477000D01*
X663873000Y969326250D01*
X664127000Y969326250D01*
X664127000Y966477000D01*
X666976250Y966477000D01*
X667135000Y966635750D01*
X667138072Y968850000D01*
X667125812Y968974482D01*
X667089502Y969094180D01*
X667030537Y969204494D01*
X666951185Y969301185D01*
X666854494Y969380537D01*
X666744180Y969439502D01*
X666624482Y969475812D01*
X666500000Y969488072D01*
X664285750Y969485000D01*
X664127000Y969326250D01*
X663873000Y969326250D01*
X663714250Y969485000D01*
X661500000Y969488072D01*
X661375518Y969475812D01*
X661255820Y969439502D01*
X661145506Y969380537D01*
X661048815Y969301185D01*
X660969463Y969204494D01*
X660910498Y969094180D01*
X660874188Y968974482D01*
X660861928Y968850000D01*
X658100158Y968850000D01*
X656425157Y970525000D01*
X657032516Y970525000D01*
X657040713Y970512733D01*
X657212733Y970340713D01*
X657415008Y970205557D01*
X657639764Y970112460D01*
X657878363Y970065000D01*
X658121637Y970065000D01*
X658360236Y970112460D01*
X658584992Y970205557D01*
X658787267Y970340713D01*
X658959287Y970512733D01*
X659094443Y970715008D01*
X659187540Y970939764D01*
X659235000Y971178363D01*
X659235000Y971365000D01*
X659471637Y971365000D01*
X659710236Y971412460D01*
X659934992Y971505557D01*
X660137267Y971640713D01*
X660309287Y971812733D01*
X660444443Y972015008D01*
X660537540Y972239764D01*
X660585000Y972478363D01*
X660585000Y972721637D01*
X660537540Y972960236D01*
X660444443Y973184992D01*
X660309287Y973387267D01*
X660137267Y973559287D01*
X659934992Y973694443D01*
X659710236Y973787540D01*
X659471637Y973835000D01*
X659228363Y973835000D01*
X658989764Y973787540D01*
X658765008Y973694443D01*
X658562733Y973559287D01*
X658390713Y973387267D01*
X658375835Y973365000D01*
X656134625Y973365000D01*
X656138072Y973400000D01*
X656135000Y973564250D01*
X655976250Y973723000D01*
X654627000Y973723000D01*
X654627000Y973703000D01*
X654373000Y973703000D01*
X654373000Y973723000D01*
X654353000Y973723000D01*
X654353000Y973977000D01*
X654373000Y973977000D01*
X654373000Y973997000D01*
X654627000Y973997000D01*
X654627000Y973977000D01*
X655976250Y973977000D01*
X656135000Y974135750D01*
X656135697Y974173000D01*
X669864303Y974173000D01*
X669865000Y974135750D01*
G04 #@! TA.AperFunction,Conductor*
D30*
G36*
X669865000Y974135750D02*
G01*
X670023750Y973977000D01*
X671373000Y973977000D01*
X671373000Y973997000D01*
X671627000Y973997000D01*
X671627000Y973977000D01*
X672976250Y973977000D01*
X673135000Y974135750D01*
X673135697Y974173000D01*
X682090001Y974173000D01*
X682090000Y919151247D01*
X681935163Y919382977D01*
X681632977Y919685163D01*
X681277645Y919922588D01*
X680882821Y920086130D01*
X680463677Y920169503D01*
X680036323Y920169503D01*
X679617179Y920086130D01*
X679222355Y919922588D01*
X678867023Y919685163D01*
X678564837Y919382977D01*
X678335292Y919039439D01*
X678338072Y919550000D01*
X678325812Y919674482D01*
X678289502Y919794180D01*
X678230537Y919904494D01*
X678151185Y920001185D01*
X678054494Y920080537D01*
X677944180Y920139502D01*
X677871620Y920161513D01*
X678003475Y920293368D01*
X678165990Y920536589D01*
X678277932Y920806842D01*
X678335000Y921093740D01*
X678335000Y921386260D01*
X678277932Y921673158D01*
X678165990Y921943411D01*
X678003475Y922186632D01*
X677796632Y922393475D01*
X677622240Y922510000D01*
X677796632Y922626525D01*
X678003475Y922833368D01*
X678165990Y923076589D01*
X678277932Y923346842D01*
X678335000Y923633740D01*
X678335000Y923926260D01*
X678277932Y924213158D01*
X678165990Y924483411D01*
X678003475Y924726632D01*
X677796632Y924933475D01*
X677622240Y925050000D01*
X677796632Y925166525D01*
X678003475Y925373368D01*
X678165990Y925616589D01*
X678277932Y925886842D01*
X678335000Y926173740D01*
X678335000Y926466260D01*
X678277932Y926753158D01*
X678165990Y927023411D01*
X678003475Y927266632D01*
X677796632Y927473475D01*
X677622240Y927590000D01*
X677796632Y927706525D01*
X678003475Y927913368D01*
X678165990Y928156589D01*
X678277932Y928426842D01*
X678335000Y928713740D01*
X678335000Y929006260D01*
X678277932Y929293158D01*
X678165990Y929563411D01*
X678003475Y929806632D01*
X677796632Y930013475D01*
X677622240Y930130000D01*
X677796632Y930246525D01*
X678003475Y930453368D01*
X678165990Y930696589D01*
X678277932Y930966842D01*
X678335000Y931253740D01*
X678335000Y931546260D01*
X678277932Y931833158D01*
X678165990Y932103411D01*
X678003475Y932346632D01*
X677796632Y932553475D01*
X677553411Y932715990D01*
X677283158Y932827932D01*
X676996260Y932885000D01*
X676703740Y932885000D01*
X676416842Y932827932D01*
X676146589Y932715990D01*
X675903368Y932553475D01*
X675696525Y932346632D01*
X675534010Y932103411D01*
X675422068Y931833158D01*
X675365000Y931546260D01*
X675365000Y931253740D01*
X675422068Y930966842D01*
X675534010Y930696589D01*
X675696525Y930453368D01*
X675903368Y930246525D01*
X676077760Y930130000D01*
X675903368Y930013475D01*
X675696525Y929806632D01*
X675534010Y929563411D01*
X675422068Y929293158D01*
X675365000Y929006260D01*
X675365000Y928713740D01*
X675422068Y928426842D01*
X675534010Y928156589D01*
X675696525Y927913368D01*
X675903368Y927706525D01*
X676077760Y927590000D01*
X675903368Y927473475D01*
X675696525Y927266632D01*
X675534010Y927023411D01*
X675422068Y926753158D01*
X675365000Y926466260D01*
X675365000Y926173740D01*
X675422068Y925886842D01*
X675534010Y925616589D01*
X675696525Y925373368D01*
X675903368Y925166525D01*
X676077760Y925050000D01*
X675903368Y924933475D01*
X675696525Y924726632D01*
X675534010Y924483411D01*
X675422068Y924213158D01*
X675365000Y923926260D01*
X675365000Y923633740D01*
X675422068Y923346842D01*
X675534010Y923076589D01*
X675696525Y922833368D01*
X675903368Y922626525D01*
X676077760Y922510000D01*
X675903368Y922393475D01*
X675696525Y922186632D01*
X675534010Y921943411D01*
X675422068Y921673158D01*
X675365000Y921386260D01*
X675365000Y921093740D01*
X675422068Y920806842D01*
X675534010Y920536589D01*
X675696525Y920293368D01*
X675828380Y920161513D01*
X675755820Y920139502D01*
X675645506Y920080537D01*
X675548815Y920001185D01*
X675469463Y919904494D01*
X675410498Y919794180D01*
X675374188Y919674482D01*
X675361928Y919550000D01*
X675365000Y918985750D01*
X675523750Y918827000D01*
X676723000Y918827000D01*
X676723000Y918847000D01*
X676977000Y918847000D01*
X676977000Y918827000D01*
X676997000Y918827000D01*
X676997000Y918573000D01*
X676977000Y918573000D01*
X676977000Y917373750D01*
X677135750Y917215000D01*
X677700000Y917211928D01*
X677824482Y917224188D01*
X677944180Y917260498D01*
X678054494Y917319463D01*
X678151185Y917398815D01*
X678156330Y917405084D01*
X678163870Y917367179D01*
X678327412Y916972355D01*
X678564837Y916617023D01*
X678867023Y916314837D01*
X679222355Y916077412D01*
X679617179Y915913870D01*
X680036323Y915830497D01*
X680463677Y915830497D01*
X680882821Y915913870D01*
X681277645Y916077412D01*
X681632977Y916314837D01*
X681935163Y916617023D01*
X682090000Y916848753D01*
X682090000Y915360000D01*
X609027000Y915360000D01*
X609027000Y918050000D01*
X629761928Y918050000D01*
X629774188Y917925518D01*
X629810498Y917805820D01*
X629869463Y917695506D01*
X629948815Y917598815D01*
X630045506Y917519463D01*
X630155820Y917460498D01*
X630275518Y917424188D01*
X630400000Y917411928D01*
X630964250Y917415000D01*
X631123000Y917573750D01*
X631123000Y918773000D01*
X629923750Y918773000D01*
X629765000Y918614250D01*
X629761928Y918050000D01*
X609027000Y918050000D01*
X609027000Y919750000D01*
X629761928Y919750000D01*
X629765000Y919185750D01*
X629923750Y919027000D01*
X631123000Y919027000D01*
X631123000Y920226250D01*
X630964250Y920385000D01*
X630400000Y920388072D01*
X630275518Y920375812D01*
X630155820Y920339502D01*
X630045506Y920280537D01*
X629948815Y920201185D01*
X629869463Y920104494D01*
X629810498Y919994180D01*
X629774188Y919874482D01*
X629761928Y919750000D01*
X609027000Y919750000D01*
X609027000Y919947394D01*
X610852606Y921773000D01*
X622400000Y921773000D01*
X622422330Y921774978D01*
X622446291Y921781737D01*
X622468474Y921793040D01*
X622488025Y921808454D01*
X632851153Y931773000D01*
X633770191Y931773000D01*
X633674134Y931753893D01*
X633408431Y931643835D01*
X633169304Y931484056D01*
X632965944Y931280696D01*
X632806165Y931041569D01*
X632696107Y930775866D01*
X632640000Y930493797D01*
X632640000Y930206203D01*
X632696107Y929924134D01*
X632806165Y929658431D01*
X632965944Y929419304D01*
X633005001Y929380247D01*
X633005000Y920161474D01*
X632843368Y920053475D01*
X632711513Y919921620D01*
X632689502Y919994180D01*
X632630537Y920104494D01*
X632551185Y920201185D01*
X632454494Y920280537D01*
X632344180Y920339502D01*
X632224482Y920375812D01*
X632100000Y920388072D01*
X631535750Y920385000D01*
X631377000Y920226250D01*
X631377000Y919027000D01*
X631397000Y919027000D01*
X631397000Y918773000D01*
X631377000Y918773000D01*
X631377000Y917573750D01*
X631535750Y917415000D01*
X632100000Y917411928D01*
X632224482Y917424188D01*
X632344180Y917460498D01*
X632454494Y917519463D01*
X632551185Y917598815D01*
X632630537Y917695506D01*
X632689502Y917805820D01*
X632711513Y917878380D01*
X632843368Y917746525D01*
X633086589Y917584010D01*
X633356842Y917472068D01*
X633643740Y917415000D01*
X633936260Y917415000D01*
X634223158Y917472068D01*
X634493411Y917584010D01*
X634736632Y917746525D01*
X634943475Y917953368D01*
X635060000Y918127760D01*
X635176525Y917953368D01*
X635383368Y917746525D01*
X635626589Y917584010D01*
X635896842Y917472068D01*
X636183740Y917415000D01*
X636476260Y917415000D01*
X636763158Y917472068D01*
X637033411Y917584010D01*
X637276632Y917746525D01*
X637483475Y917953368D01*
X637598695Y918125807D01*
X641815000Y918125807D01*
X641815000Y917774193D01*
X641883596Y917429335D01*
X642018153Y917104485D01*
X642213500Y916812129D01*
X642462129Y916563500D01*
X642754485Y916368153D01*
X643079335Y916233596D01*
X643424193Y916165000D01*
X643775807Y916165000D01*
X644120665Y916233596D01*
X644445515Y916368153D01*
X644737871Y916563500D01*
X644882022Y916707651D01*
X657937256Y916707651D01*
X658051118Y916427910D01*
X658366296Y916272039D01*
X658705826Y916180651D01*
X659056661Y916157259D01*
X659405319Y916202760D01*
X659738400Y916315406D01*
X659948882Y916427910D01*
X660062744Y916707651D01*
X659000000Y917770395D01*
X657937256Y916707651D01*
X644882022Y916707651D01*
X644986500Y916812129D01*
X645181847Y917104485D01*
X645316404Y917429335D01*
X645385000Y917774193D01*
X645385000Y917893339D01*
X657207259Y917893339D01*
X657252760Y917544681D01*
X657365406Y917211600D01*
X657477910Y917001118D01*
X657757651Y916887256D01*
X658820395Y917950000D01*
X659179605Y917950000D01*
X660242349Y916887256D01*
X660522090Y917001118D01*
X660677961Y917316296D01*
X660769349Y917655826D01*
X660782295Y917850000D01*
X675361928Y917850000D01*
X675374188Y917725518D01*
X675410498Y917605820D01*
X675469463Y917495506D01*
X675548815Y917398815D01*
X675645506Y917319463D01*
X675755820Y917260498D01*
X675875518Y917224188D01*
X676000000Y917211928D01*
X676564250Y917215000D01*
X676723000Y917373750D01*
X676723000Y918573000D01*
X675523750Y918573000D01*
X675365000Y918414250D01*
X675361928Y917850000D01*
X660782295Y917850000D01*
X660792741Y918006661D01*
X660747240Y918355319D01*
X660634594Y918688400D01*
X660569599Y918810000D01*
X663211928Y918810000D01*
X663224188Y918685518D01*
X663260498Y918565820D01*
X663319463Y918455506D01*
X663398815Y918358815D01*
X663495506Y918279463D01*
X663605820Y918220498D01*
X663725518Y918184188D01*
X663850000Y918171928D01*
X664414250Y918175000D01*
X664573000Y918333750D01*
X664573000Y919533000D01*
X664827000Y919533000D01*
X664827000Y918333750D01*
X664985750Y918175000D01*
X665550000Y918171928D01*
X665674482Y918184188D01*
X665794180Y918220498D01*
X665904494Y918279463D01*
X666001185Y918358815D01*
X666080537Y918455506D01*
X666139502Y918565820D01*
X666175812Y918685518D01*
X666188072Y918810000D01*
X666185000Y919374250D01*
X666026250Y919533000D01*
X664827000Y919533000D01*
X664573000Y919533000D01*
X663373750Y919533000D01*
X663215000Y919374250D01*
X663211928Y918810000D01*
X660569599Y918810000D01*
X660522090Y918898882D01*
X660242349Y919012744D01*
X659179605Y917950000D01*
X658820395Y917950000D01*
X657757651Y919012744D01*
X657477910Y918898882D01*
X657322039Y918583704D01*
X657230651Y918244174D01*
X657207259Y917893339D01*
X645385000Y917893339D01*
X645385000Y918125807D01*
X645316404Y918470665D01*
X645181847Y918795515D01*
X644986500Y919087871D01*
X644882022Y919192349D01*
X657937256Y919192349D01*
X659000000Y918129605D01*
X660062744Y919192349D01*
X659948882Y919472090D01*
X659633704Y919627961D01*
X659294174Y919719349D01*
X658943339Y919742741D01*
X658594681Y919697240D01*
X658261600Y919584594D01*
X658051118Y919472090D01*
X657937256Y919192349D01*
X644882022Y919192349D01*
X644737871Y919336500D01*
X644445515Y919531847D01*
X644120665Y919666404D01*
X643775807Y919735000D01*
X643424193Y919735000D01*
X643079335Y919666404D01*
X642754485Y919531847D01*
X642462129Y919336500D01*
X642213500Y919087871D01*
X642018153Y918795515D01*
X641883596Y918470665D01*
X641815000Y918125807D01*
X637598695Y918125807D01*
X637645990Y918196589D01*
X637757932Y918466842D01*
X637815000Y918753740D01*
X637815000Y919046260D01*
X637757932Y919333158D01*
X637645990Y919603411D01*
X637483475Y919846632D01*
X637276632Y920053475D01*
X637033411Y920215990D01*
X636763158Y920327932D01*
X636476260Y920385000D01*
X636183740Y920385000D01*
X635896842Y920327932D01*
X635626589Y920215990D01*
X635383368Y920053475D01*
X635176525Y919846632D01*
X635060000Y919672240D01*
X634943475Y919846632D01*
X634736632Y920053475D01*
X634575000Y920161474D01*
X634575000Y928966459D01*
X634791569Y929056165D01*
X635030696Y929215944D01*
X635234056Y929419304D01*
X635393835Y929658431D01*
X635503893Y929924134D01*
X635560000Y930206203D01*
X635560000Y930493797D01*
X635503893Y930775866D01*
X635393835Y931041569D01*
X635234056Y931280696D01*
X635030696Y931484056D01*
X634791569Y931643835D01*
X634525866Y931753893D01*
X634429809Y931773000D01*
X646200000Y931773000D01*
X646223611Y931775214D01*
X646247502Y931782218D01*
X646269567Y931793749D01*
X646288959Y931809362D01*
X656665010Y941993264D01*
X656665011Y924388573D01*
X656661213Y924350010D01*
X656676369Y924196124D01*
X656721256Y924048151D01*
X656721257Y924048150D01*
X656794149Y923911777D01*
X656834700Y923862366D01*
X656867665Y923822198D01*
X656867669Y923822194D01*
X656892247Y923792246D01*
X656922195Y923767668D01*
X659017678Y921672184D01*
X659042256Y921642236D01*
X659072204Y921617658D01*
X659072207Y921617655D01*
X659101579Y921593550D01*
X659161787Y921544138D01*
X659298160Y921471246D01*
X659411692Y921436806D01*
X659446132Y921426359D01*
X659460510Y921424943D01*
X659561459Y921415000D01*
X659561466Y921415000D01*
X659600019Y921411203D01*
X659638572Y921415000D01*
X663438526Y921415000D01*
X663546525Y921253368D01*
X663678380Y921121513D01*
X663605820Y921099502D01*
X663495506Y921040537D01*
X663398815Y920961185D01*
X663319463Y920864494D01*
X663260498Y920754180D01*
X663224188Y920634482D01*
X663211928Y920510000D01*
X663215000Y919945750D01*
X663373750Y919787000D01*
X664573000Y919787000D01*
X664573000Y919807000D01*
X664827000Y919807000D01*
X664827000Y919787000D01*
X666026250Y919787000D01*
X666185000Y919945750D01*
X666188072Y920510000D01*
X666175812Y920634482D01*
X666139502Y920754180D01*
X666080537Y920864494D01*
X666001185Y920961185D01*
X665904494Y921040537D01*
X665794180Y921099502D01*
X665721620Y921121513D01*
X665853475Y921253368D01*
X666015990Y921496589D01*
X666127932Y921766842D01*
X666185000Y922053740D01*
X666185000Y922346260D01*
X666127932Y922633158D01*
X666015990Y922903411D01*
X665853475Y923146632D01*
X665646632Y923353475D01*
X665403411Y923515990D01*
X665133158Y923627932D01*
X664846260Y923685000D01*
X664553740Y923685000D01*
X664266842Y923627932D01*
X663996589Y923515990D01*
X663753368Y923353475D01*
X663546525Y923146632D01*
X663438526Y922985000D01*
X659925178Y922985000D01*
X658235010Y924675167D01*
X658235010Y925450000D01*
X663211928Y925450000D01*
X663224188Y925325518D01*
X663260498Y925205820D01*
X663319463Y925095506D01*
X663398815Y924998815D01*
X663495506Y924919463D01*
X663605820Y924860498D01*
X663725518Y924824188D01*
X663850000Y924811928D01*
X664414250Y924815000D01*
X664573000Y924973750D01*
X664573000Y926173000D01*
X664827000Y926173000D01*
X664827000Y924973750D01*
X664985750Y924815000D01*
X665550000Y924811928D01*
X665674482Y924824188D01*
X665794180Y924860498D01*
X665904494Y924919463D01*
X666001185Y924998815D01*
X666080537Y925095506D01*
X666139502Y925205820D01*
X666175812Y925325518D01*
X666188072Y925450000D01*
X666185000Y926014250D01*
X666026250Y926173000D01*
X664827000Y926173000D01*
X664573000Y926173000D01*
X663373750Y926173000D01*
X663215000Y926014250D01*
X663211928Y925450000D01*
X658235010Y925450000D01*
X658235010Y950114833D01*
X661902925Y946446918D01*
X661865000Y946256260D01*
X661865000Y945963740D01*
X661922068Y945676842D01*
X662034010Y945406589D01*
X662196525Y945163368D01*
X662403368Y944956525D01*
X662577760Y944840000D01*
X662403368Y944723475D01*
X662196525Y944516632D01*
X662034010Y944273411D01*
X661922068Y944003158D01*
X661865000Y943716260D01*
X661865000Y943423740D01*
X661902925Y943233082D01*
X660872185Y942202342D01*
X660842237Y942177764D01*
X660817659Y942147816D01*
X660817655Y942147812D01*
X660801543Y942128179D01*
X660744139Y942058233D01*
X660729192Y942030269D01*
X660671246Y941921859D01*
X660626359Y941773886D01*
X660611203Y941620000D01*
X660615001Y941581437D01*
X660614999Y932178554D01*
X660611202Y932140001D01*
X660614999Y932101448D01*
X660614999Y932101441D01*
X660626358Y931986115D01*
X660671245Y931838142D01*
X660744137Y931701769D01*
X660842235Y931582238D01*
X660872183Y931557660D01*
X663252924Y929176918D01*
X663215000Y928986260D01*
X663215000Y928693740D01*
X663272068Y928406842D01*
X663384010Y928136589D01*
X663546525Y927893368D01*
X663678380Y927761513D01*
X663605820Y927739502D01*
X663495506Y927680537D01*
X663398815Y927601185D01*
X663319463Y927504494D01*
X663260498Y927394180D01*
X663224188Y927274482D01*
X663211928Y927150000D01*
X663215000Y926585750D01*
X663373750Y926427000D01*
X664573000Y926427000D01*
X664573000Y926447000D01*
X664827000Y926447000D01*
X664827000Y926427000D01*
X666026250Y926427000D01*
X666185000Y926585750D01*
X666188072Y927150000D01*
X666175812Y927274482D01*
X666139502Y927394180D01*
X666080537Y927504494D01*
X666001185Y927601185D01*
X665904494Y927680537D01*
X665794180Y927739502D01*
X665721620Y927761513D01*
X665853475Y927893368D01*
X666015990Y928136589D01*
X666127932Y928406842D01*
X666185000Y928693740D01*
X666185000Y928986260D01*
X666127932Y929273158D01*
X666015990Y929543411D01*
X665853475Y929786632D01*
X665646632Y929993475D01*
X665472240Y930110000D01*
X665646632Y930226525D01*
X665853475Y930433368D01*
X666015990Y930676589D01*
X666127932Y930946842D01*
X666185000Y931233740D01*
X666185000Y931526260D01*
X666127932Y931813158D01*
X666015990Y932083411D01*
X665853475Y932326632D01*
X665646632Y932533475D01*
X665485000Y932641474D01*
X665485000Y934494843D01*
X671965000Y940974843D01*
X671965000Y940902998D01*
X672129844Y940902998D01*
X672008524Y940673110D01*
X672053175Y940525901D01*
X672178359Y940263080D01*
X672352412Y940029731D01*
X672568645Y939834822D01*
X672685534Y939765195D01*
X672503368Y939643475D01*
X672296525Y939436632D01*
X672134010Y939193411D01*
X672022068Y938923158D01*
X671965000Y938636260D01*
X671965000Y938343740D01*
X672002925Y938153082D01*
X670532190Y936682347D01*
X670502236Y936657764D01*
X670404138Y936538232D01*
X670331246Y936401859D01*
X670286359Y936253886D01*
X670275000Y936138560D01*
X670275000Y936138553D01*
X670271203Y936100000D01*
X670275000Y936061447D01*
X670275001Y928750893D01*
X670212733Y928709287D01*
X670040713Y928537267D01*
X669905557Y928334992D01*
X669812460Y928110236D01*
X669765000Y927871637D01*
X669765000Y927628363D01*
X669812460Y927389764D01*
X669905557Y927165008D01*
X670040713Y926962733D01*
X670212733Y926790713D01*
X670415008Y926655557D01*
X670639764Y926562460D01*
X670878363Y926515000D01*
X671121637Y926515000D01*
X671360236Y926562460D01*
X671584992Y926655557D01*
X671787267Y926790713D01*
X671959287Y926962733D01*
X672094443Y927165008D01*
X672187540Y927389764D01*
X672235000Y927628363D01*
X672235000Y927871637D01*
X672187540Y928110236D01*
X672094443Y928334992D01*
X671959287Y928537267D01*
X671845000Y928651554D01*
X671845000Y935774843D01*
X671961928Y935891771D01*
X671961928Y935100000D01*
X671974188Y934975518D01*
X672010498Y934855820D01*
X672069463Y934745506D01*
X672148815Y934648815D01*
X672245506Y934569463D01*
X672355820Y934510498D01*
X672475518Y934474188D01*
X672600000Y934461928D01*
X674300000Y934461928D01*
X674424482Y934474188D01*
X674544180Y934510498D01*
X674654494Y934569463D01*
X674751185Y934648815D01*
X674830537Y934745506D01*
X674889502Y934855820D01*
X674925812Y934975518D01*
X674938072Y935100000D01*
X674938072Y936800000D01*
X674925812Y936924482D01*
X674889502Y937044180D01*
X674830537Y937154494D01*
X674751185Y937251185D01*
X674654494Y937330537D01*
X674544180Y937389502D01*
X674471620Y937411513D01*
X674603475Y937543368D01*
X674765990Y937786589D01*
X674877932Y938056842D01*
X674935000Y938343740D01*
X674935000Y938636260D01*
X674877932Y938923158D01*
X674765990Y939193411D01*
X674603475Y939436632D01*
X674396632Y939643475D01*
X674214466Y939765195D01*
X674331355Y939834822D01*
X674547588Y940029731D01*
X674721641Y940263080D01*
X674846825Y940525901D01*
X674891476Y940673110D01*
X674770155Y940903000D01*
X673577000Y940903000D01*
X673577000Y940883000D01*
X673323000Y940883000D01*
X673323000Y940903000D01*
X673303000Y940903000D01*
X673303000Y941157000D01*
X673323000Y941157000D01*
X673323000Y941177000D01*
X673577000Y941177000D01*
X673577000Y941157000D01*
X674770155Y941157000D01*
X674891476Y941386890D01*
X674846825Y941534099D01*
X674721641Y941796920D01*
X674547588Y942030269D01*
X674331355Y942225178D01*
X674214466Y942294805D01*
X674396632Y942416525D01*
X674603475Y942623368D01*
X674765990Y942866589D01*
X674877932Y943136842D01*
X674935000Y943423740D01*
X674935000Y943716260D01*
X674877932Y944003158D01*
X674765990Y944273411D01*
X674603475Y944516632D01*
X674396632Y944723475D01*
X674222240Y944840000D01*
X674396632Y944956525D01*
X674603475Y945163368D01*
X674765990Y945406589D01*
X674877932Y945676842D01*
X674935000Y945963740D01*
X674935000Y946256260D01*
X674877932Y946543158D01*
X674765990Y946813411D01*
X674603475Y947056632D01*
X674396632Y947263475D01*
X674222240Y947380000D01*
X674396632Y947496525D01*
X674603475Y947703368D01*
X674765990Y947946589D01*
X674877932Y948216842D01*
X674935000Y948503740D01*
X674935000Y948796260D01*
X674877932Y949083158D01*
X674765990Y949353411D01*
X674603475Y949596632D01*
X674396632Y949803475D01*
X674153411Y949965990D01*
X673883158Y950077932D01*
X673596260Y950135000D01*
X673303740Y950135000D01*
X673016842Y950077932D01*
X672746589Y949965990D01*
X672503368Y949803475D01*
X672296525Y949596632D01*
X672134010Y949353411D01*
X672022068Y949083158D01*
X671965000Y948796260D01*
X671965000Y948503740D01*
X672022068Y948216842D01*
X672134010Y947946589D01*
X672296525Y947703368D01*
X672503368Y947496525D01*
X672677760Y947380000D01*
X672503368Y947263475D01*
X672296525Y947056632D01*
X672134010Y946813411D01*
X672022068Y946543158D01*
X671965000Y946256260D01*
X671965000Y945963740D01*
X672022068Y945676842D01*
X672134010Y945406589D01*
X672296525Y945163368D01*
X672503368Y944956525D01*
X672677760Y944840000D01*
X672503368Y944723475D01*
X672296525Y944516632D01*
X672134010Y944273411D01*
X672022068Y944003158D01*
X671965000Y943716260D01*
X671965000Y943423740D01*
X672002925Y943233082D01*
X664838072Y936068229D01*
X664838072Y936800000D01*
X664825812Y936924482D01*
X664789502Y937044180D01*
X664730537Y937154494D01*
X664651185Y937251185D01*
X664554494Y937330537D01*
X664444180Y937389502D01*
X664371620Y937411513D01*
X664503475Y937543368D01*
X664665990Y937786589D01*
X664777932Y938056842D01*
X664835000Y938343740D01*
X664835000Y938636260D01*
X664777932Y938923158D01*
X664665990Y939193411D01*
X664503475Y939436632D01*
X664296632Y939643475D01*
X664114466Y939765195D01*
X664231355Y939834822D01*
X664447588Y940029731D01*
X664621641Y940263080D01*
X664746825Y940525901D01*
X664791476Y940673110D01*
X664670155Y940903000D01*
X663477000Y940903000D01*
X663477000Y940883000D01*
X663223000Y940883000D01*
X663223000Y940903000D01*
X663203000Y940903000D01*
X663203000Y941157000D01*
X663223000Y941157000D01*
X663223000Y941177000D01*
X663477000Y941177000D01*
X663477000Y941157000D01*
X664670155Y941157000D01*
X664791476Y941386890D01*
X664746825Y941534099D01*
X664621641Y941796920D01*
X664447588Y942030269D01*
X664231355Y942225178D01*
X664114466Y942294805D01*
X664296632Y942416525D01*
X664503475Y942623368D01*
X664665990Y942866589D01*
X664777932Y943136842D01*
X664835000Y943423740D01*
X664835000Y943716260D01*
X664797075Y943906918D01*
X672332219Y951442062D01*
X672405557Y951265008D01*
X672540713Y951062733D01*
X672712733Y950890713D01*
X672915008Y950755557D01*
X673139764Y950662460D01*
X673378363Y950615000D01*
X673621637Y950615000D01*
X673860236Y950662460D01*
X674084992Y950755557D01*
X674287267Y950890713D01*
X674459287Y951062733D01*
X674460802Y951065000D01*
X677761447Y951065000D01*
X677800000Y951061203D01*
X677838553Y951065000D01*
X677838561Y951065000D01*
X677953887Y951076359D01*
X678101860Y951121246D01*
X678238233Y951194138D01*
X678357764Y951292236D01*
X678382347Y951322189D01*
X678993928Y951933771D01*
X679025518Y951924188D01*
X679150000Y951911928D01*
X680850000Y951911928D01*
X680974482Y951924188D01*
X681094180Y951960498D01*
X681204494Y952019463D01*
X681301185Y952098815D01*
X681380537Y952195506D01*
X681439502Y952305820D01*
X681475812Y952425518D01*
X681488072Y952550000D01*
X681488072Y954250000D01*
X681475812Y954374482D01*
X681439502Y954494180D01*
X681380537Y954604494D01*
X681301185Y954701185D01*
X681204494Y954780537D01*
X681094180Y954839502D01*
X680974482Y954875812D01*
X680850000Y954888072D01*
X679150000Y954888072D01*
X679025518Y954875812D01*
X678905820Y954839502D01*
X678795506Y954780537D01*
X678698815Y954701185D01*
X678619463Y954604494D01*
X678560498Y954494180D01*
X678524188Y954374482D01*
X678511928Y954250000D01*
X678511928Y953672085D01*
X677947193Y953107350D01*
X677947187Y953107345D01*
X677474843Y952635000D01*
X674460802Y952635000D01*
X674459287Y952637267D01*
X674287267Y952809287D01*
X674084992Y952944443D01*
X673907938Y953017781D01*
X680227811Y959337654D01*
X680257764Y959362236D01*
X680355862Y959481767D01*
X680428754Y959618140D01*
X680435648Y959640865D01*
X680473642Y959766113D01*
X680484858Y959880000D01*
X680485000Y959881439D01*
X680485000Y959881444D01*
X680488797Y959920000D01*
X680485000Y959958556D01*
X680485000Y971674339D01*
X680569123Y971743377D01*
X680678012Y971876058D01*
X680758923Y972027433D01*
X680808748Y972191684D01*
X680825572Y972362500D01*
X680825572Y972837500D01*
X680808748Y973008316D01*
X680758923Y973172567D01*
X680678012Y973323942D01*
X680569123Y973456623D01*
X680436442Y973565512D01*
X680285067Y973646423D01*
X680120816Y973696248D01*
X679950000Y973713072D01*
X679450000Y973713072D01*
X679279184Y973696248D01*
X679114933Y973646423D01*
X678963558Y973565512D01*
X678830877Y973456623D01*
X678787500Y973403768D01*
X678744123Y973456623D01*
X678611442Y973565512D01*
X678460067Y973646423D01*
X678295816Y973696248D01*
X678125000Y973713072D01*
X677625000Y973713072D01*
X677454184Y973696248D01*
X677289933Y973646423D01*
X677138558Y973565512D01*
X677005877Y973456623D01*
X676947097Y973385000D01*
X673136595Y973385000D01*
X673138072Y973400000D01*
X673135000Y973564250D01*
X672976250Y973723000D01*
X671627000Y973723000D01*
X671627000Y973703000D01*
X671373000Y973703000D01*
X671373000Y973723000D01*
X670023750Y973723000D01*
X669865000Y973564250D01*
X669861928Y973400000D01*
X669874188Y973275518D01*
X669892546Y973215000D01*
X669874188Y973154482D01*
X669861928Y973030000D01*
X669861928Y972130000D01*
X669874188Y972005518D01*
X669892546Y971945000D01*
X669874188Y971884482D01*
X669861928Y971760000D01*
X669861928Y970860000D01*
X669874188Y970735518D01*
X669892546Y970675000D01*
X669874188Y970614482D01*
X669861928Y970490000D01*
X669861928Y969590000D01*
X669874188Y969465518D01*
X669892546Y969405000D01*
X669874188Y969344482D01*
X669861928Y969220000D01*
X669861928Y968320000D01*
X669874188Y968195518D01*
X669892546Y968135000D01*
X669874188Y968074482D01*
X669861928Y967950000D01*
X669861928Y967050000D01*
X669874188Y966925518D01*
X669892546Y966865000D01*
X669874188Y966804482D01*
X669861928Y966680000D01*
X669861928Y965780000D01*
X669874188Y965655518D01*
X669892546Y965595000D01*
X669874188Y965534482D01*
X669861928Y965410000D01*
X669861928Y964510000D01*
X669874188Y964385518D01*
X669892546Y964325000D01*
X669874188Y964264482D01*
X669861928Y964140000D01*
X669861928Y963240000D01*
X669874188Y963115518D01*
X669892546Y963055000D01*
X669874188Y962994482D01*
X669861928Y962870000D01*
X669861928Y961970000D01*
X669874188Y961845518D01*
X669892546Y961785000D01*
X669874188Y961724482D01*
X669861928Y961600000D01*
X669861928Y960700000D01*
X669874188Y960575518D01*
X669892546Y960515000D01*
X669874188Y960454482D01*
X669861928Y960330000D01*
X669861928Y959430000D01*
X669874188Y959305518D01*
X669892546Y959245000D01*
X669874188Y959184482D01*
X669861928Y959060000D01*
X669861928Y958160000D01*
X669874188Y958035518D01*
X669892546Y957975000D01*
X669874188Y957914482D01*
X669861928Y957790000D01*
X669861928Y956890000D01*
X669874188Y956765518D01*
X669910498Y956645820D01*
X669969463Y956535506D01*
X670048815Y956438815D01*
X670145506Y956359463D01*
X670255820Y956300498D01*
X670375518Y956264188D01*
X670500000Y956251928D01*
X672391861Y956251928D01*
X672312460Y956060236D01*
X672265000Y955821637D01*
X672265000Y955578363D01*
X672312460Y955339764D01*
X672405557Y955115008D01*
X672540713Y954912733D01*
X672712733Y954740713D01*
X672915008Y954605557D01*
X673139764Y954512460D01*
X673175245Y954505402D01*
X664835000Y946165157D01*
X664835000Y946256260D01*
X664777932Y946543158D01*
X664665990Y946813411D01*
X664503475Y947056632D01*
X664296632Y947263475D01*
X664122240Y947380000D01*
X664296632Y947496525D01*
X664503475Y947703368D01*
X664665990Y947946589D01*
X664777932Y948216842D01*
X664835000Y948503740D01*
X664835000Y948796260D01*
X664777932Y949083158D01*
X664665990Y949353411D01*
X664503475Y949596632D01*
X664296632Y949803475D01*
X664053411Y949965990D01*
X663783158Y950077932D01*
X663496260Y950135000D01*
X663203740Y950135000D01*
X662916842Y950077932D01*
X662646589Y949965990D01*
X662403368Y949803475D01*
X662196525Y949596632D01*
X662034010Y949353411D01*
X661922068Y949083158D01*
X661865000Y948796260D01*
X661865000Y948705157D01*
X657169999Y953400158D01*
X657169999Y954701928D01*
X657735000Y954701928D01*
X657859482Y954714188D01*
X657920000Y954732546D01*
X657980518Y954714188D01*
X658105000Y954701928D01*
X659005000Y954701928D01*
X659129482Y954714188D01*
X659190000Y954732546D01*
X659250518Y954714188D01*
X659375000Y954701928D01*
X660275000Y954701928D01*
X660399482Y954714188D01*
X660460000Y954732546D01*
X660520518Y954714188D01*
X660645000Y954701928D01*
X661545000Y954701928D01*
X661669482Y954714188D01*
X661730000Y954732546D01*
X661790518Y954714188D01*
X661915000Y954701928D01*
X662815000Y954701928D01*
X662939482Y954714188D01*
X663000000Y954732546D01*
X663060518Y954714188D01*
X663185000Y954701928D01*
X664085000Y954701928D01*
X664209482Y954714188D01*
X664270000Y954732546D01*
X664330518Y954714188D01*
X664455000Y954701928D01*
X665355000Y954701928D01*
X665479482Y954714188D01*
X665540000Y954732546D01*
X665600518Y954714188D01*
X665725000Y954701928D01*
X666625000Y954701928D01*
X666749482Y954714188D01*
X666810000Y954732546D01*
X666870518Y954714188D01*
X666995000Y954701928D01*
X667895000Y954701928D01*
X668019482Y954714188D01*
X668080000Y954732546D01*
X668140518Y954714188D01*
X668265000Y954701928D01*
X668429250Y954705000D01*
X668588000Y954863750D01*
X668588000Y956213000D01*
X668842000Y956213000D01*
X668842000Y954863750D01*
X669000750Y954705000D01*
X669165000Y954701928D01*
X669289482Y954714188D01*
X669409180Y954750498D01*
X669519494Y954809463D01*
X669616185Y954888815D01*
X669695537Y954985506D01*
X669754502Y955095820D01*
X669790812Y955215518D01*
X669803072Y955340000D01*
X669800000Y956054250D01*
X669641250Y956213000D01*
X668842000Y956213000D01*
X668588000Y956213000D01*
X668568000Y956213000D01*
X668568000Y956467000D01*
X668588000Y956467000D01*
X668588000Y957816250D01*
X668842000Y957816250D01*
X668842000Y956467000D01*
X669641250Y956467000D01*
X669800000Y956625750D01*
X669803072Y957340000D01*
X669790812Y957464482D01*
X669754502Y957584180D01*
X669695537Y957694494D01*
X669616185Y957791185D01*
X669519494Y957870537D01*
X669409180Y957929502D01*
X669289482Y957965812D01*
X669165000Y957978072D01*
X669000750Y957975000D01*
X668842000Y957816250D01*
X668588000Y957816250D01*
X668429250Y957975000D01*
X668265000Y957978072D01*
X668140518Y957965812D01*
X668080000Y957947454D01*
X668019482Y957965812D01*
X667895000Y957978072D01*
X666995000Y957978072D01*
X666870518Y957965812D01*
X666810000Y957947454D01*
X666749482Y957965812D01*
X666625000Y957978072D01*
X665725000Y957978072D01*
X665600518Y957965812D01*
X665540000Y957947454D01*
X665479482Y957965812D01*
X665355000Y957978072D01*
X664455000Y957978072D01*
X664330518Y957965812D01*
X664270000Y957947454D01*
X664209482Y957965812D01*
X664085000Y957978072D01*
X663185000Y957978072D01*
X663060518Y957965812D01*
X663000000Y957947454D01*
X662939482Y957965812D01*
X662815000Y957978072D01*
X661915000Y957978072D01*
X661790518Y957965812D01*
X661730000Y957947454D01*
X661669482Y957965812D01*
X661545000Y957978072D01*
X660645000Y957978072D01*
X660520518Y957965812D01*
X660460000Y957947454D01*
X660399482Y957965812D01*
X660275000Y957978072D01*
X659375000Y957978072D01*
X659250518Y957965812D01*
X659190000Y957947454D01*
X659129482Y957965812D01*
X659005000Y957978072D01*
X658642093Y957978072D01*
X658669999Y958118365D01*
X658669999Y958165000D01*
X658721637Y958165000D01*
X658960236Y958212460D01*
X659184992Y958305557D01*
X659387267Y958440713D01*
X659559287Y958612733D01*
X659694443Y958815008D01*
X659787540Y959039764D01*
X659792560Y959065000D01*
X660021637Y959065000D01*
X660260236Y959112460D01*
X660484992Y959205557D01*
X660687267Y959340713D01*
X660859287Y959512733D01*
X660994443Y959715008D01*
X661087540Y959939764D01*
X661135000Y960178363D01*
X661135000Y960365000D01*
X661221637Y960365000D01*
X661460236Y960412460D01*
X661684992Y960505557D01*
X661887267Y960640713D01*
X662059287Y960812733D01*
X662194443Y961015008D01*
X662287540Y961239764D01*
X662335000Y961478363D01*
X662335000Y961721637D01*
X662287540Y961960236D01*
X662194443Y962184992D01*
X662059287Y962387267D01*
X661887267Y962559287D01*
X661834999Y962594211D01*
X661834999Y963212393D01*
X663714250Y963215000D01*
X663873000Y963373750D01*
X663873000Y966223000D01*
X664127000Y966223000D01*
X664127000Y963373750D01*
X664285750Y963215000D01*
X666500000Y963211928D01*
X666624482Y963224188D01*
X666744180Y963260498D01*
X666854494Y963319463D01*
X666951185Y963398815D01*
X667030537Y963495506D01*
X667089502Y963605820D01*
X667125812Y963725518D01*
X667138072Y963850000D01*
X667135000Y966064250D01*
X666976250Y966223000D01*
X664127000Y966223000D01*
X663873000Y966223000D01*
X661023750Y966223000D01*
X660875454Y966074704D01*
X658100158Y968850000D01*
X660861928Y968850000D01*
X660865000Y966635750D01*
X661023750Y966477000D01*
X663873000Y966477000D01*
X663873000Y969326250D01*
X664127000Y969326250D01*
X664127000Y966477000D01*
X666976250Y966477000D01*
X667135000Y966635750D01*
X667138072Y968850000D01*
X667125812Y968974482D01*
X667089502Y969094180D01*
X667030537Y969204494D01*
X666951185Y969301185D01*
X666854494Y969380537D01*
X666744180Y969439502D01*
X666624482Y969475812D01*
X666500000Y969488072D01*
X664285750Y969485000D01*
X664127000Y969326250D01*
X663873000Y969326250D01*
X663714250Y969485000D01*
X661500000Y969488072D01*
X661375518Y969475812D01*
X661255820Y969439502D01*
X661145506Y969380537D01*
X661048815Y969301185D01*
X660969463Y969204494D01*
X660910498Y969094180D01*
X660874188Y968974482D01*
X660861928Y968850000D01*
X658100158Y968850000D01*
X656425157Y970525000D01*
X657032516Y970525000D01*
X657040713Y970512733D01*
X657212733Y970340713D01*
X657415008Y970205557D01*
X657639764Y970112460D01*
X657878363Y970065000D01*
X658121637Y970065000D01*
X658360236Y970112460D01*
X658584992Y970205557D01*
X658787267Y970340713D01*
X658959287Y970512733D01*
X659094443Y970715008D01*
X659187540Y970939764D01*
X659235000Y971178363D01*
X659235000Y971365000D01*
X659471637Y971365000D01*
X659710236Y971412460D01*
X659934992Y971505557D01*
X660137267Y971640713D01*
X660309287Y971812733D01*
X660444443Y972015008D01*
X660537540Y972239764D01*
X660585000Y972478363D01*
X660585000Y972721637D01*
X660537540Y972960236D01*
X660444443Y973184992D01*
X660309287Y973387267D01*
X660137267Y973559287D01*
X659934992Y973694443D01*
X659710236Y973787540D01*
X659471637Y973835000D01*
X659228363Y973835000D01*
X658989764Y973787540D01*
X658765008Y973694443D01*
X658562733Y973559287D01*
X658390713Y973387267D01*
X658375835Y973365000D01*
X656134625Y973365000D01*
X656138072Y973400000D01*
X656135000Y973564250D01*
X655976250Y973723000D01*
X654627000Y973723000D01*
X654627000Y973703000D01*
X654373000Y973703000D01*
X654373000Y973723000D01*
X654353000Y973723000D01*
X654353000Y973977000D01*
X654373000Y973977000D01*
X654373000Y973997000D01*
X654627000Y973997000D01*
X654627000Y973977000D01*
X655976250Y973977000D01*
X656135000Y974135750D01*
X656135697Y974173000D01*
X669864303Y974173000D01*
X669865000Y974135750D01*
G37*
G04 #@! TD.AperFunction*
D29*
X677005877Y971743377D02*
X677037251Y971717629D01*
X676993377Y971681623D01*
X676884488Y971548942D01*
X676803577Y971397567D01*
X676753752Y971233316D01*
X676736928Y971062500D01*
X676736928Y970462500D01*
X676748422Y970345796D01*
X676578397Y970398792D01*
X675729605Y969550000D01*
X676578397Y968701208D01*
X676739998Y968751578D01*
X676736928Y968500000D01*
X676749188Y968375518D01*
X676785498Y968255820D01*
X676844463Y968145506D01*
X676923815Y968048815D01*
X677020506Y967969463D01*
X677130820Y967910498D01*
X677250518Y967874188D01*
X677375000Y967861928D01*
X677564250Y967865000D01*
X677723000Y968023750D01*
X677723000Y968910500D01*
X677703000Y968910500D01*
X677703000Y969164500D01*
X677723000Y969164500D01*
X677723000Y969184500D01*
X677977000Y969184500D01*
X677977000Y969164500D01*
X677997000Y969164500D01*
X677997000Y968910500D01*
X677977000Y968910500D01*
X677977000Y968023750D01*
X678135750Y967865000D01*
X678325000Y967861928D01*
X678449482Y967874188D01*
X678569180Y967910498D01*
X678679494Y967969463D01*
X678776185Y968048815D01*
X678855537Y968145506D01*
X678914502Y968255820D01*
X678915000Y968257463D01*
X678915001Y961388570D01*
X678915000Y961388560D01*
X678915000Y960781439D01*
X678915001Y960781433D01*
X678915000Y960245157D01*
X674694598Y956024755D01*
X674687540Y956060236D01*
X674594443Y956284992D01*
X674459287Y956487267D01*
X674287267Y956659287D01*
X674285001Y956660801D01*
X674285001Y961270276D01*
X674396525Y961103368D01*
X674603368Y960896525D01*
X674846589Y960734010D01*
X675116842Y960622068D01*
X675403740Y960565000D01*
X675696260Y960565000D01*
X675983158Y960622068D01*
X676253411Y960734010D01*
X676496632Y960896525D01*
X676703475Y961103368D01*
X676865990Y961346589D01*
X676977932Y961616842D01*
X677035000Y961903740D01*
X677035000Y962196260D01*
X676977932Y962483158D01*
X676865990Y962753411D01*
X676703475Y962996632D01*
X676496632Y963203475D01*
X676352172Y963300000D01*
X676496632Y963396525D01*
X676703475Y963603368D01*
X676865990Y963846589D01*
X676977932Y964116842D01*
X677035000Y964403740D01*
X677035000Y964696260D01*
X676977932Y964983158D01*
X676865990Y965253411D01*
X676703475Y965496632D01*
X676496632Y965703475D01*
X676352172Y965800000D01*
X676496632Y965896525D01*
X676703475Y966103368D01*
X676865990Y966346589D01*
X676977932Y966616842D01*
X677035000Y966903740D01*
X677035000Y967196260D01*
X676977932Y967483158D01*
X676865990Y967753411D01*
X676703475Y967996632D01*
X676496632Y968203475D01*
X676333590Y968312416D01*
X676398792Y968521603D01*
X675550000Y969370395D01*
X674701208Y968521603D01*
X674766410Y968312416D01*
X674603368Y968203475D01*
X674396525Y967996632D01*
X674234010Y967753411D01*
X674122068Y967483158D01*
X674065000Y967196260D01*
X674065000Y966903740D01*
X674122068Y966616842D01*
X674234010Y966346589D01*
X674396525Y966103368D01*
X674603368Y965896525D01*
X674747828Y965800000D01*
X674603368Y965703475D01*
X674396525Y965496632D01*
X674234010Y965253411D01*
X674122068Y964983158D01*
X674083042Y964786963D01*
X674057765Y964817763D01*
X674027816Y964842342D01*
X673382347Y965487811D01*
X673357764Y965517764D01*
X673238233Y965615862D01*
X673127724Y965674930D01*
X673138072Y965780000D01*
X673138072Y966680000D01*
X673125812Y966804482D01*
X673107454Y966865000D01*
X673125812Y966925518D01*
X673138072Y967050000D01*
X673138072Y967950000D01*
X673125812Y968074482D01*
X673107454Y968135000D01*
X673125812Y968195518D01*
X673138072Y968320000D01*
X673138072Y969220000D01*
X673125812Y969344482D01*
X673107454Y969405000D01*
X673125812Y969465518D01*
X673127382Y969481469D01*
X674059389Y969481469D01*
X674101401Y969191981D01*
X674199081Y968916253D01*
X674272528Y968778843D01*
X674521603Y968701208D01*
X675370395Y969550000D01*
X674521603Y970398792D01*
X674272528Y970321157D01*
X674146629Y970057117D01*
X674074661Y969773589D01*
X674059389Y969481469D01*
X673127382Y969481469D01*
X673138072Y969590000D01*
X673138072Y970490000D01*
X673129366Y970578397D01*
X674701208Y970578397D01*
X675550000Y969729605D01*
X676398792Y970578397D01*
X676321157Y970827472D01*
X676057117Y970953371D01*
X675773589Y971025339D01*
X675481469Y971040611D01*
X675191981Y970998599D01*
X674916253Y970900919D01*
X674778843Y970827472D01*
X674701208Y970578397D01*
X673129366Y970578397D01*
X673125812Y970614482D01*
X673107454Y970675000D01*
X673125812Y970735518D01*
X673138072Y970860000D01*
X673138072Y971760000D01*
X673132655Y971815000D01*
X676947097Y971815000D01*
X677005877Y971743377D01*
G04 #@! TA.AperFunction,Conductor*
D30*
G36*
X677005877Y971743377D02*
G01*
X677037251Y971717629D01*
X676993377Y971681623D01*
X676884488Y971548942D01*
X676803577Y971397567D01*
X676753752Y971233316D01*
X676736928Y971062500D01*
X676736928Y970462500D01*
X676748422Y970345796D01*
X676578397Y970398792D01*
X675729605Y969550000D01*
X676578397Y968701208D01*
X676739998Y968751578D01*
X676736928Y968500000D01*
X676749188Y968375518D01*
X676785498Y968255820D01*
X676844463Y968145506D01*
X676923815Y968048815D01*
X677020506Y967969463D01*
X677130820Y967910498D01*
X677250518Y967874188D01*
X677375000Y967861928D01*
X677564250Y967865000D01*
X677723000Y968023750D01*
X677723000Y968910500D01*
X677703000Y968910500D01*
X677703000Y969164500D01*
X677723000Y969164500D01*
X677723000Y969184500D01*
X677977000Y969184500D01*
X677977000Y969164500D01*
X677997000Y969164500D01*
X677997000Y968910500D01*
X677977000Y968910500D01*
X677977000Y968023750D01*
X678135750Y967865000D01*
X678325000Y967861928D01*
X678449482Y967874188D01*
X678569180Y967910498D01*
X678679494Y967969463D01*
X678776185Y968048815D01*
X678855537Y968145506D01*
X678914502Y968255820D01*
X678915000Y968257463D01*
X678915001Y961388570D01*
X678915000Y961388560D01*
X678915000Y960781439D01*
X678915001Y960781433D01*
X678915000Y960245157D01*
X674694598Y956024755D01*
X674687540Y956060236D01*
X674594443Y956284992D01*
X674459287Y956487267D01*
X674287267Y956659287D01*
X674285001Y956660801D01*
X674285001Y961270276D01*
X674396525Y961103368D01*
X674603368Y960896525D01*
X674846589Y960734010D01*
X675116842Y960622068D01*
X675403740Y960565000D01*
X675696260Y960565000D01*
X675983158Y960622068D01*
X676253411Y960734010D01*
X676496632Y960896525D01*
X676703475Y961103368D01*
X676865990Y961346589D01*
X676977932Y961616842D01*
X677035000Y961903740D01*
X677035000Y962196260D01*
X676977932Y962483158D01*
X676865990Y962753411D01*
X676703475Y962996632D01*
X676496632Y963203475D01*
X676352172Y963300000D01*
X676496632Y963396525D01*
X676703475Y963603368D01*
X676865990Y963846589D01*
X676977932Y964116842D01*
X677035000Y964403740D01*
X677035000Y964696260D01*
X676977932Y964983158D01*
X676865990Y965253411D01*
X676703475Y965496632D01*
X676496632Y965703475D01*
X676352172Y965800000D01*
X676496632Y965896525D01*
X676703475Y966103368D01*
X676865990Y966346589D01*
X676977932Y966616842D01*
X677035000Y966903740D01*
X677035000Y967196260D01*
X676977932Y967483158D01*
X676865990Y967753411D01*
X676703475Y967996632D01*
X676496632Y968203475D01*
X676333590Y968312416D01*
X676398792Y968521603D01*
X675550000Y969370395D01*
X674701208Y968521603D01*
X674766410Y968312416D01*
X674603368Y968203475D01*
X674396525Y967996632D01*
X674234010Y967753411D01*
X674122068Y967483158D01*
X674065000Y967196260D01*
X674065000Y966903740D01*
X674122068Y966616842D01*
X674234010Y966346589D01*
X674396525Y966103368D01*
X674603368Y965896525D01*
X674747828Y965800000D01*
X674603368Y965703475D01*
X674396525Y965496632D01*
X674234010Y965253411D01*
X674122068Y964983158D01*
X674083042Y964786963D01*
X674057765Y964817763D01*
X674027816Y964842342D01*
X673382347Y965487811D01*
X673357764Y965517764D01*
X673238233Y965615862D01*
X673127724Y965674930D01*
X673138072Y965780000D01*
X673138072Y966680000D01*
X673125812Y966804482D01*
X673107454Y966865000D01*
X673125812Y966925518D01*
X673138072Y967050000D01*
X673138072Y967950000D01*
X673125812Y968074482D01*
X673107454Y968135000D01*
X673125812Y968195518D01*
X673138072Y968320000D01*
X673138072Y969220000D01*
X673125812Y969344482D01*
X673107454Y969405000D01*
X673125812Y969465518D01*
X673127382Y969481469D01*
X674059389Y969481469D01*
X674101401Y969191981D01*
X674199081Y968916253D01*
X674272528Y968778843D01*
X674521603Y968701208D01*
X675370395Y969550000D01*
X674521603Y970398792D01*
X674272528Y970321157D01*
X674146629Y970057117D01*
X674074661Y969773589D01*
X674059389Y969481469D01*
X673127382Y969481469D01*
X673138072Y969590000D01*
X673138072Y970490000D01*
X673129366Y970578397D01*
X674701208Y970578397D01*
X675550000Y969729605D01*
X676398792Y970578397D01*
X676321157Y970827472D01*
X676057117Y970953371D01*
X675773589Y971025339D01*
X675481469Y971040611D01*
X675191981Y970998599D01*
X674916253Y970900919D01*
X674778843Y970827472D01*
X674701208Y970578397D01*
X673129366Y970578397D01*
X673125812Y970614482D01*
X673107454Y970675000D01*
X673125812Y970735518D01*
X673138072Y970860000D01*
X673138072Y971760000D01*
X673132655Y971815000D01*
X676947097Y971815000D01*
X677005877Y971743377D01*
G37*
G04 #@! TD.AperFunction*
M02*
