M48
; DRILL file {KiCad (5.1.12)-1} date 05/31/22 10:15:13
; FORMAT={-:-/ absolute / metric / decimal}
; #@! TF.CreationDate,2022-05-31T10:15:13-04:00
; #@! TF.GenerationSoftware,Kicad,Pcbnew,(5.1.12)-1
; #@! TF.FileFunction,Plated,1,2,PTH
FMAT,2
METRIC
T1C0.600
T2C0.950
T3C1.000
T4C1.100
T5C1.350
T6C1.520
T7C2.100
T8C3.700
%
G90
G05
T1
X657.435Y958.24
X658.0Y971.3
X658.6Y959.4
X659.35Y972.6
X659.9Y960.3
X661.1Y961.6
X671.0Y927.75
X673.5Y955.7
X673.5Y951.85
T2
X675.55Y969.55
X675.55Y967.05
X675.55Y964.55
X675.55Y962.05
T3
X631.25Y918.9
X633.79Y918.9
X636.33Y918.9
X643.6Y917.95
X648.8Y947.35
X653.8Y947.35
X659.0Y917.95
X663.35Y948.65
X663.35Y946.11
X663.35Y943.57
X663.35Y941.03
X663.35Y938.49
X663.35Y935.95
X664.7Y931.38
X664.7Y928.84
X664.7Y926.3
X664.7Y922.2
X664.7Y919.66
X673.45Y948.65
X673.45Y946.11
X673.45Y943.57
X673.45Y941.03
X673.45Y938.49
X673.45Y935.95
X676.85Y931.4
X676.85Y928.86
X676.85Y926.32
X676.85Y923.78
X676.85Y921.24
X676.85Y918.7
X680.0Y953.4
T4
X634.1Y940.55
X634.1Y930.35
T5
X604.5Y938.45
X604.5Y933.45
X604.5Y923.45
X604.5Y918.45
T6
X612.8Y973.4
X612.8Y968.32
X612.8Y963.28
X612.8Y958.16
T7
X604.35Y955.0
X604.35Y947.2
X611.3Y944.35
X618.9Y944.35
X621.4Y926.55
X636.6Y935.45
T8
X581.9Y932.5
X588.2Y920.6
X594.5Y932.6
T3
X579.35Y953.4G85X584.25Y953.4
G05
X585.75Y947.2G85X590.65Y947.2
G05
X592.15Y953.4G85X597.05Y953.4
G05
T0
M30
