G04 #@! TF.GenerationSoftware,KiCad,Pcbnew,(5.1.12)-1*
G04 #@! TF.CreationDate,2022-05-31T10:14:08-04:00*
G04 #@! TF.ProjectId,OMC_WIFI_PCB,4f4d435f-5749-4464-995f-5043422e6b69,rev?*
G04 #@! TF.SameCoordinates,Original*
G04 #@! TF.FileFunction,Soldermask,Top*
G04 #@! TF.FilePolarity,Negative*
%FSLAX46Y46*%
G04 Gerber Fmt 4.6, Leading zero omitted, Abs format (unit mm)*
G04 Created by KiCad (PCBNEW (5.1.12)-1) date 2022-05-31 10:14:08*
%MOMM*%
%LPD*%
G01*
G04 APERTURE LIST*
%ADD10O,5.100000X7.100000*%
%ADD11O,1.800000X1.800000*%
%ADD12C,1.800000*%
%ADD13O,3.100000X3.100000*%
%ADD14C,3.216000*%
%ADD15C,1.750000*%
%ADD16C,2.400000*%
%ADD17C,3.100000*%
%ADD18C,2.450000*%
G04 APERTURE END LIST*
G36*
G01*
X619850000Y919500000D02*
X619850000Y918700000D01*
G75*
G02*
X619800000Y918650000I-50000J0D01*
G01*
X618900000Y918650000D01*
G75*
G02*
X618850000Y918700000I0J50000D01*
G01*
X618850000Y919500000D01*
G75*
G02*
X618900000Y919550000I50000J0D01*
G01*
X619800000Y919550000D01*
G75*
G02*
X619850000Y919500000I0J-50000D01*
G01*
G37*
G36*
G01*
X621850000Y920450000D02*
X621850000Y919650000D01*
G75*
G02*
X621800000Y919600000I-50000J0D01*
G01*
X620900000Y919600000D01*
G75*
G02*
X620850000Y919650000I0J50000D01*
G01*
X620850000Y920450000D01*
G75*
G02*
X620900000Y920500000I50000J0D01*
G01*
X621800000Y920500000D01*
G75*
G02*
X621850000Y920450000I0J-50000D01*
G01*
G37*
G36*
G01*
X621850000Y918550000D02*
X621850000Y917750000D01*
G75*
G02*
X621800000Y917700000I-50000J0D01*
G01*
X620900000Y917700000D01*
G75*
G02*
X620850000Y917750000I0J50000D01*
G01*
X620850000Y918550000D01*
G75*
G02*
X620900000Y918600000I50000J0D01*
G01*
X621800000Y918600000D01*
G75*
G02*
X621850000Y918550000I0J-50000D01*
G01*
G37*
G36*
G01*
X602750000Y953658063D02*
X602750000Y956341937D01*
G75*
G02*
X603008063Y956600000I258063J0D01*
G01*
X605691937Y956600000D01*
G75*
G02*
X605950000Y956341937I0J-258063D01*
G01*
X605950000Y953658063D01*
G75*
G02*
X605691937Y953400000I-258063J0D01*
G01*
X603008063Y953400000D01*
G75*
G02*
X602750000Y953658063I0J258063D01*
G01*
G37*
G36*
G01*
X602750000Y945858063D02*
X602750000Y948541937D01*
G75*
G02*
X603008063Y948800000I258063J0D01*
G01*
X605691937Y948800000D01*
G75*
G02*
X605950000Y948541937I0J-258063D01*
G01*
X605950000Y945858063D01*
G75*
G02*
X605691937Y945600000I-258063J0D01*
G01*
X603008063Y945600000D01*
G75*
G02*
X602750000Y945858063I0J258063D01*
G01*
G37*
G36*
G01*
X577500000Y952375000D02*
X577500000Y954425000D01*
G75*
G02*
X578525000Y955450000I1025000J0D01*
G01*
X585075000Y955450000D01*
G75*
G02*
X586100000Y954425000I0J-1025000D01*
G01*
X586100000Y952375000D01*
G75*
G02*
X585075000Y951350000I-1025000J0D01*
G01*
X578525000Y951350000D01*
G75*
G02*
X577500000Y952375000I0J1025000D01*
G01*
G37*
G36*
G01*
X590300000Y952375000D02*
X590300000Y954425000D01*
G75*
G02*
X591325000Y955450000I1025000J0D01*
G01*
X597875000Y955450000D01*
G75*
G02*
X598900000Y954425000I0J-1025000D01*
G01*
X598900000Y952375000D01*
G75*
G02*
X597875000Y951350000I-1025000J0D01*
G01*
X591325000Y951350000D01*
G75*
G02*
X590300000Y952375000I0J1025000D01*
G01*
G37*
G36*
G01*
X583900000Y946175000D02*
X583900000Y948225000D01*
G75*
G02*
X584925000Y949250000I1025000J0D01*
G01*
X591475000Y949250000D01*
G75*
G02*
X592500000Y948225000I0J-1025000D01*
G01*
X592500000Y946175000D01*
G75*
G02*
X591475000Y945150000I-1025000J0D01*
G01*
X584925000Y945150000D01*
G75*
G02*
X583900000Y946175000I0J1025000D01*
G01*
G37*
D10*
X594500000Y932600000D03*
X581900000Y932500000D03*
X588200000Y920600000D03*
D11*
X663350000Y948650000D03*
X663350000Y946110000D03*
X663350000Y943570000D03*
X663350000Y941030000D03*
X663350000Y938490000D03*
G36*
G01*
X664250000Y936800000D02*
X664250000Y935100000D01*
G75*
G02*
X664200000Y935050000I-50000J0D01*
G01*
X662500000Y935050000D01*
G75*
G02*
X662450000Y935100000I0J50000D01*
G01*
X662450000Y936800000D01*
G75*
G02*
X662500000Y936850000I50000J0D01*
G01*
X664200000Y936850000D01*
G75*
G02*
X664250000Y936800000I0J-50000D01*
G01*
G37*
X673450000Y946110000D03*
X673450000Y943570000D03*
X673450000Y941030000D03*
X673450000Y948650000D03*
X673450000Y938490000D03*
G36*
G01*
X674350000Y936800000D02*
X674350000Y935100000D01*
G75*
G02*
X674300000Y935050000I-50000J0D01*
G01*
X672600000Y935050000D01*
G75*
G02*
X672550000Y935100000I0J50000D01*
G01*
X672550000Y936800000D01*
G75*
G02*
X672600000Y936850000I50000J0D01*
G01*
X674300000Y936850000D01*
G75*
G02*
X674350000Y936800000I0J-50000D01*
G01*
G37*
G36*
G01*
X679100000Y952550000D02*
X679100000Y954250000D01*
G75*
G02*
X679150000Y954300000I50000J0D01*
G01*
X680850000Y954300000D01*
G75*
G02*
X680900000Y954250000I0J-50000D01*
G01*
X680900000Y952550000D01*
G75*
G02*
X680850000Y952500000I-50000J0D01*
G01*
X679150000Y952500000D01*
G75*
G02*
X679100000Y952550000I0J50000D01*
G01*
G37*
X636330000Y918900000D03*
X633790000Y918900000D03*
G36*
G01*
X632100000Y918000000D02*
X630400000Y918000000D01*
G75*
G02*
X630350000Y918050000I0J50000D01*
G01*
X630350000Y919750000D01*
G75*
G02*
X630400000Y919800000I50000J0D01*
G01*
X632100000Y919800000D01*
G75*
G02*
X632150000Y919750000I0J-50000D01*
G01*
X632150000Y918050000D01*
G75*
G02*
X632100000Y918000000I-50000J0D01*
G01*
G37*
D12*
X675550000Y962050000D03*
X675550000Y964550000D03*
X675550000Y967050000D03*
X675550000Y969550000D03*
D13*
X612800000Y973400000D03*
X612800000Y968320000D03*
X612800000Y963280000D03*
G36*
G01*
X611250000Y956660000D02*
X611250000Y959660000D01*
G75*
G02*
X611300000Y959710000I50000J0D01*
G01*
X614300000Y959710000D01*
G75*
G02*
X614350000Y959660000I0J-50000D01*
G01*
X614350000Y956660000D01*
G75*
G02*
X614300000Y956610000I-50000J0D01*
G01*
X611300000Y956610000D01*
G75*
G02*
X611250000Y956660000I0J50000D01*
G01*
G37*
D14*
X611300000Y944350000D03*
X621400000Y926550000D03*
X618900000Y944350000D03*
D15*
X634100000Y940550000D03*
X634100000Y930350000D03*
D14*
X636600000Y935450000D03*
D11*
X664700000Y922200000D03*
G36*
G01*
X665600000Y920510000D02*
X665600000Y918810000D01*
G75*
G02*
X665550000Y918760000I-50000J0D01*
G01*
X663850000Y918760000D01*
G75*
G02*
X663800000Y918810000I0J50000D01*
G01*
X663800000Y920510000D01*
G75*
G02*
X663850000Y920560000I50000J0D01*
G01*
X665550000Y920560000D01*
G75*
G02*
X665600000Y920510000I0J-50000D01*
G01*
G37*
D16*
X659000000Y917950000D03*
G36*
G01*
X652300000Y948900000D02*
X655300000Y948900000D01*
G75*
G02*
X655350000Y948850000I0J-50000D01*
G01*
X655350000Y945850000D01*
G75*
G02*
X655300000Y945800000I-50000J0D01*
G01*
X652300000Y945800000D01*
G75*
G02*
X652250000Y945850000I0J50000D01*
G01*
X652250000Y948850000D01*
G75*
G02*
X652300000Y948900000I50000J0D01*
G01*
G37*
D17*
X648800000Y947350000D03*
D16*
X643600000Y917950000D03*
G36*
G01*
X624437500Y918712500D02*
X624962500Y918712500D01*
G75*
G02*
X625225000Y918450000I0J-262500D01*
G01*
X625225000Y917900000D01*
G75*
G02*
X624962500Y917637500I-262500J0D01*
G01*
X624437500Y917637500D01*
G75*
G02*
X624175000Y917900000I0J262500D01*
G01*
X624175000Y918450000D01*
G75*
G02*
X624437500Y918712500I262500J0D01*
G01*
G37*
G36*
G01*
X624437500Y920537500D02*
X624962500Y920537500D01*
G75*
G02*
X625225000Y920275000I0J-262500D01*
G01*
X625225000Y919725000D01*
G75*
G02*
X624962500Y919462500I-262500J0D01*
G01*
X624437500Y919462500D01*
G75*
G02*
X624175000Y919725000I0J262500D01*
G01*
X624175000Y920275000D01*
G75*
G02*
X624437500Y920537500I262500J0D01*
G01*
G37*
G36*
G01*
X679437500Y937687500D02*
X679437500Y938212500D01*
G75*
G02*
X679700000Y938475000I262500J0D01*
G01*
X680250000Y938475000D01*
G75*
G02*
X680512500Y938212500I0J-262500D01*
G01*
X680512500Y937687500D01*
G75*
G02*
X680250000Y937425000I-262500J0D01*
G01*
X679700000Y937425000D01*
G75*
G02*
X679437500Y937687500I0J262500D01*
G01*
G37*
G36*
G01*
X677612500Y937687500D02*
X677612500Y938212500D01*
G75*
G02*
X677875000Y938475000I262500J0D01*
G01*
X678425000Y938475000D01*
G75*
G02*
X678687500Y938212500I0J-262500D01*
G01*
X678687500Y937687500D01*
G75*
G02*
X678425000Y937425000I-262500J0D01*
G01*
X677875000Y937425000D01*
G75*
G02*
X677612500Y937687500I0J262500D01*
G01*
G37*
G36*
G01*
X679462500Y944437500D02*
X679462500Y944962500D01*
G75*
G02*
X679725000Y945225000I262500J0D01*
G01*
X680275000Y945225000D01*
G75*
G02*
X680537500Y944962500I0J-262500D01*
G01*
X680537500Y944437500D01*
G75*
G02*
X680275000Y944175000I-262500J0D01*
G01*
X679725000Y944175000D01*
G75*
G02*
X679462500Y944437500I0J262500D01*
G01*
G37*
G36*
G01*
X677637500Y944437500D02*
X677637500Y944962500D01*
G75*
G02*
X677900000Y945225000I262500J0D01*
G01*
X678450000Y945225000D01*
G75*
G02*
X678712500Y944962500I0J-262500D01*
G01*
X678712500Y944437500D01*
G75*
G02*
X678450000Y944175000I-262500J0D01*
G01*
X677900000Y944175000D01*
G75*
G02*
X677637500Y944437500I0J262500D01*
G01*
G37*
D11*
X664700000Y931380000D03*
X664700000Y928840000D03*
G36*
G01*
X665600000Y927150000D02*
X665600000Y925450000D01*
G75*
G02*
X665550000Y925400000I-50000J0D01*
G01*
X663850000Y925400000D01*
G75*
G02*
X663800000Y925450000I0J50000D01*
G01*
X663800000Y927150000D01*
G75*
G02*
X663850000Y927200000I50000J0D01*
G01*
X665550000Y927200000D01*
G75*
G02*
X665600000Y927150000I0J-50000D01*
G01*
G37*
D18*
X604500000Y918450000D03*
X604500000Y923450000D03*
X604500000Y938450000D03*
X604500000Y933450000D03*
G36*
G01*
X614400000Y918200000D02*
X614400000Y920000000D01*
G75*
G02*
X614450000Y920050000I50000J0D01*
G01*
X616950000Y920050000D01*
G75*
G02*
X617000000Y920000000I0J-50000D01*
G01*
X617000000Y918200000D01*
G75*
G02*
X616950000Y918150000I-50000J0D01*
G01*
X614450000Y918150000D01*
G75*
G02*
X614400000Y918200000I0J50000D01*
G01*
G37*
G36*
G01*
X610400000Y918200000D02*
X610400000Y920000000D01*
G75*
G02*
X610450000Y920050000I50000J0D01*
G01*
X612950000Y920050000D01*
G75*
G02*
X613000000Y920000000I0J-50000D01*
G01*
X613000000Y918200000D01*
G75*
G02*
X612950000Y918150000I-50000J0D01*
G01*
X610450000Y918150000D01*
G75*
G02*
X610400000Y918200000I0J50000D01*
G01*
G37*
G36*
G01*
X679375000Y939437500D02*
X679375000Y939962500D01*
G75*
G02*
X679637500Y940225000I262500J0D01*
G01*
X680262500Y940225000D01*
G75*
G02*
X680525000Y939962500I0J-262500D01*
G01*
X680525000Y939437500D01*
G75*
G02*
X680262500Y939175000I-262500J0D01*
G01*
X679637500Y939175000D01*
G75*
G02*
X679375000Y939437500I0J262500D01*
G01*
G37*
G36*
G01*
X677625000Y939437500D02*
X677625000Y939962500D01*
G75*
G02*
X677887500Y940225000I262500J0D01*
G01*
X678512500Y940225000D01*
G75*
G02*
X678775000Y939962500I0J-262500D01*
G01*
X678775000Y939437500D01*
G75*
G02*
X678512500Y939175000I-262500J0D01*
G01*
X677887500Y939175000D01*
G75*
G02*
X677625000Y939437500I0J262500D01*
G01*
G37*
G36*
G01*
X679375000Y946337500D02*
X679375000Y946862500D01*
G75*
G02*
X679637500Y947125000I262500J0D01*
G01*
X680262500Y947125000D01*
G75*
G02*
X680525000Y946862500I0J-262500D01*
G01*
X680525000Y946337500D01*
G75*
G02*
X680262500Y946075000I-262500J0D01*
G01*
X679637500Y946075000D01*
G75*
G02*
X679375000Y946337500I0J262500D01*
G01*
G37*
G36*
G01*
X677625000Y946337500D02*
X677625000Y946862500D01*
G75*
G02*
X677887500Y947125000I262500J0D01*
G01*
X678512500Y947125000D01*
G75*
G02*
X678775000Y946862500I0J-262500D01*
G01*
X678775000Y946337500D01*
G75*
G02*
X678512500Y946075000I-262500J0D01*
G01*
X677887500Y946075000D01*
G75*
G02*
X677625000Y946337500I0J262500D01*
G01*
G37*
D11*
X676850000Y931400000D03*
X676850000Y928860000D03*
X676850000Y926320000D03*
X676850000Y923780000D03*
X676850000Y921240000D03*
G36*
G01*
X677750000Y919550000D02*
X677750000Y917850000D01*
G75*
G02*
X677700000Y917800000I-50000J0D01*
G01*
X676000000Y917800000D01*
G75*
G02*
X675950000Y917850000I0J50000D01*
G01*
X675950000Y919550000D01*
G75*
G02*
X676000000Y919600000I50000J0D01*
G01*
X677700000Y919600000D01*
G75*
G02*
X677750000Y919550000I0J-50000D01*
G01*
G37*
M02*
