G04 #@! TF.GenerationSoftware,KiCad,Pcbnew,(5.1.12)-1*
G04 #@! TF.CreationDate,2022-05-31T10:14:08-04:00*
G04 #@! TF.ProjectId,OMC_WIFI_PCB,4f4d435f-5749-4464-995f-5043422e6b69,rev?*
G04 #@! TF.SameCoordinates,Original*
G04 #@! TF.FileFunction,Legend,Bot*
G04 #@! TF.FilePolarity,Positive*
%FSLAX46Y46*%
G04 Gerber Fmt 4.6, Leading zero omitted, Abs format (unit mm)*
G04 Created by KiCad (PCBNEW (5.1.12)-1) date 2022-05-31 10:14:08*
%MOMM*%
%LPD*%
G01*
G04 APERTURE LIST*
%ADD10C,0.437500*%
%ADD11C,0.150000*%
%ADD12C,0.120000*%
%ADD13C,0.100000*%
%ADD14O,5.100000X7.100000*%
%ADD15O,1.800000X1.800000*%
%ADD16C,1.800000*%
%ADD17O,3.100000X3.100000*%
%ADD18C,3.216000*%
%ADD19C,1.750000*%
%ADD20C,2.400000*%
%ADD21C,3.100000*%
%ADD22C,2.450000*%
G04 APERTURE END LIST*
D10*
X659650000Y971557142D02*
X660233333Y971557142D01*
X660483333Y972604761D02*
X659650000Y972604761D01*
X659650000Y970604761D01*
X660483333Y970604761D01*
X661150000Y972509523D02*
X661400000Y972604761D01*
X661816666Y972604761D01*
X661983333Y972509523D01*
X662066666Y972414285D01*
X662150000Y972223809D01*
X662150000Y972033333D01*
X662066666Y971842857D01*
X661983333Y971747619D01*
X661816666Y971652380D01*
X661483333Y971557142D01*
X661316666Y971461904D01*
X661233333Y971366666D01*
X661150000Y971176190D01*
X661150000Y970985714D01*
X661233333Y970795238D01*
X661316666Y970700000D01*
X661483333Y970604761D01*
X661900000Y970604761D01*
X662150000Y970700000D01*
X662900000Y972604761D02*
X662900000Y970604761D01*
X663566666Y970604761D01*
X663733333Y970700000D01*
X663816666Y970795238D01*
X663900000Y970985714D01*
X663900000Y971271428D01*
X663816666Y971461904D01*
X663733333Y971557142D01*
X663566666Y971652380D01*
X662900000Y971652380D01*
X664483333Y970604761D02*
X665566666Y970604761D01*
X664983333Y971366666D01*
X665233333Y971366666D01*
X665400000Y971461904D01*
X665483333Y971557142D01*
X665566666Y971747619D01*
X665566666Y972223809D01*
X665483333Y972414285D01*
X665400000Y972509523D01*
X665233333Y972604761D01*
X664733333Y972604761D01*
X664566666Y972509523D01*
X664483333Y972414285D01*
X666233333Y970795238D02*
X666316666Y970700000D01*
X666483333Y970604761D01*
X666900000Y970604761D01*
X667066666Y970700000D01*
X667150000Y970795238D01*
X667233333Y970985714D01*
X667233333Y971176190D01*
X667150000Y971461904D01*
X666150000Y972604761D01*
X667233333Y972604761D01*
D11*
X648473928Y978197619D02*
X648283452Y978197619D01*
X648188214Y978150000D01*
X648092976Y978054761D01*
X648045357Y977864285D01*
X648045357Y977530952D01*
X648092976Y977340476D01*
X648188214Y977245238D01*
X648283452Y977197619D01*
X648473928Y977197619D01*
X648569166Y977245238D01*
X648664404Y977340476D01*
X648712023Y977530952D01*
X648712023Y977864285D01*
X648664404Y978054761D01*
X648569166Y978150000D01*
X648473928Y978197619D01*
X647616785Y977197619D02*
X647616785Y978197619D01*
X647283452Y977483333D01*
X646950119Y978197619D01*
X646950119Y977197619D01*
X645902500Y977292857D02*
X645950119Y977245238D01*
X646092976Y977197619D01*
X646188214Y977197619D01*
X646331071Y977245238D01*
X646426309Y977340476D01*
X646473928Y977435714D01*
X646521547Y977626190D01*
X646521547Y977769047D01*
X646473928Y977959523D01*
X646426309Y978054761D01*
X646331071Y978150000D01*
X646188214Y978197619D01*
X646092976Y978197619D01*
X645950119Y978150000D01*
X645902500Y978102380D01*
X644807261Y978197619D02*
X644569166Y977197619D01*
X644378690Y977911904D01*
X644188214Y977197619D01*
X643950119Y978197619D01*
X643569166Y977197619D02*
X643569166Y978197619D01*
X642759642Y977721428D02*
X643092976Y977721428D01*
X643092976Y977197619D02*
X643092976Y978197619D01*
X642616785Y978197619D01*
X642235833Y977197619D02*
X642235833Y978197619D01*
X640997738Y977578571D02*
X640235833Y977578571D01*
X638997738Y977197619D02*
X638997738Y978197619D01*
X638616785Y978197619D01*
X638521547Y978150000D01*
X638473928Y978102380D01*
X638426309Y978007142D01*
X638426309Y977864285D01*
X638473928Y977769047D01*
X638521547Y977721428D01*
X638616785Y977673809D01*
X638997738Y977673809D01*
X637426309Y977292857D02*
X637473928Y977245238D01*
X637616785Y977197619D01*
X637712023Y977197619D01*
X637854880Y977245238D01*
X637950119Y977340476D01*
X637997738Y977435714D01*
X638045357Y977626190D01*
X638045357Y977769047D01*
X637997738Y977959523D01*
X637950119Y978054761D01*
X637854880Y978150000D01*
X637712023Y978197619D01*
X637616785Y978197619D01*
X637473928Y978150000D01*
X637426309Y978102380D01*
X636664404Y977721428D02*
X636521547Y977673809D01*
X636473928Y977626190D01*
X636426309Y977530952D01*
X636426309Y977388095D01*
X636473928Y977292857D01*
X636521547Y977245238D01*
X636616785Y977197619D01*
X636997738Y977197619D01*
X636997738Y978197619D01*
X636664404Y978197619D01*
X636569166Y978150000D01*
X636521547Y978102380D01*
X636473928Y978007142D01*
X636473928Y977911904D01*
X636521547Y977816666D01*
X636569166Y977769047D01*
X636664404Y977721428D01*
X636997738Y977721428D01*
X635378690Y978197619D02*
X635045357Y977197619D01*
X634712023Y978197619D01*
X633854880Y977197619D02*
X634426309Y977197619D01*
X634140595Y977197619D02*
X634140595Y978197619D01*
X634235833Y978054761D01*
X634331071Y977959523D01*
X634426309Y977911904D01*
X633426309Y977292857D02*
X633378690Y977245238D01*
X633426309Y977197619D01*
X633473928Y977245238D01*
X633426309Y977292857D01*
X633426309Y977197619D01*
X632473928Y978197619D02*
X632950119Y978197619D01*
X632997738Y977721428D01*
X632950119Y977769047D01*
X632854880Y977816666D01*
X632616785Y977816666D01*
X632521547Y977769047D01*
X632473928Y977721428D01*
X632426309Y977626190D01*
X632426309Y977388095D01*
X632473928Y977292857D01*
X632521547Y977245238D01*
X632616785Y977197619D01*
X632854880Y977197619D01*
X632950119Y977245238D01*
X632997738Y977292857D01*
X648092976Y975642857D02*
X648140595Y975595238D01*
X648283452Y975547619D01*
X648378690Y975547619D01*
X648521547Y975595238D01*
X648616785Y975690476D01*
X648664404Y975785714D01*
X648712023Y975976190D01*
X648712023Y976119047D01*
X648664404Y976309523D01*
X648616785Y976404761D01*
X648521547Y976500000D01*
X648378690Y976547619D01*
X648283452Y976547619D01*
X648140595Y976500000D01*
X648092976Y976452380D01*
X647140595Y976500000D02*
X647235833Y976547619D01*
X647378690Y976547619D01*
X647521547Y976500000D01*
X647616785Y976404761D01*
X647664404Y976309523D01*
X647712023Y976119047D01*
X647712023Y975976190D01*
X647664404Y975785714D01*
X647616785Y975690476D01*
X647521547Y975595238D01*
X647378690Y975547619D01*
X647283452Y975547619D01*
X647140595Y975595238D01*
X647092976Y975642857D01*
X647092976Y975976190D01*
X647283452Y975976190D01*
X645092976Y975547619D02*
X645140595Y975547619D01*
X645235833Y975595238D01*
X645378690Y975738095D01*
X645616785Y976023809D01*
X645712023Y976166666D01*
X645759642Y976309523D01*
X645759642Y976404761D01*
X645712023Y976500000D01*
X645616785Y976547619D01*
X645569166Y976547619D01*
X645473928Y976500000D01*
X645426309Y976404761D01*
X645426309Y976357142D01*
X645473928Y976261904D01*
X645521547Y976214285D01*
X645807261Y976023809D01*
X645854880Y975976190D01*
X645902500Y975880952D01*
X645902500Y975738095D01*
X645854880Y975642857D01*
X645807261Y975595238D01*
X645712023Y975547619D01*
X645569166Y975547619D01*
X645473928Y975595238D01*
X645426309Y975642857D01*
X645283452Y975833333D01*
X645235833Y975976190D01*
X645235833Y976071428D01*
X643902500Y975547619D02*
X643902500Y976547619D01*
X643664404Y976547619D01*
X643521547Y976500000D01*
X643426309Y976404761D01*
X643378690Y976309523D01*
X643331071Y976119047D01*
X643331071Y975976190D01*
X643378690Y975785714D01*
X643426309Y975690476D01*
X643521547Y975595238D01*
X643664404Y975547619D01*
X643902500Y975547619D01*
X642902500Y975547619D02*
X642902500Y976547619D01*
X642902500Y976071428D02*
X642331071Y976071428D01*
X642331071Y975547619D02*
X642331071Y976547619D01*
X648712023Y974802380D02*
X648664404Y974850000D01*
X648569166Y974897619D01*
X648331071Y974897619D01*
X648235833Y974850000D01*
X648188214Y974802380D01*
X648140595Y974707142D01*
X648140595Y974611904D01*
X648188214Y974469047D01*
X648759642Y973897619D01*
X648140595Y973897619D01*
X647521547Y974897619D02*
X647426309Y974897619D01*
X647331071Y974850000D01*
X647283452Y974802380D01*
X647235833Y974707142D01*
X647188214Y974516666D01*
X647188214Y974278571D01*
X647235833Y974088095D01*
X647283452Y973992857D01*
X647331071Y973945238D01*
X647426309Y973897619D01*
X647521547Y973897619D01*
X647616785Y973945238D01*
X647664404Y973992857D01*
X647712023Y974088095D01*
X647759642Y974278571D01*
X647759642Y974516666D01*
X647712023Y974707142D01*
X647664404Y974802380D01*
X647616785Y974850000D01*
X647521547Y974897619D01*
X646807261Y974802380D02*
X646759642Y974850000D01*
X646664404Y974897619D01*
X646426309Y974897619D01*
X646331071Y974850000D01*
X646283452Y974802380D01*
X646235833Y974707142D01*
X646235833Y974611904D01*
X646283452Y974469047D01*
X646854880Y973897619D01*
X646235833Y973897619D01*
X645854880Y974802380D02*
X645807261Y974850000D01*
X645712023Y974897619D01*
X645473928Y974897619D01*
X645378690Y974850000D01*
X645331071Y974802380D01*
X645283452Y974707142D01*
X645283452Y974611904D01*
X645331071Y974469047D01*
X645902500Y973897619D01*
X645283452Y973897619D01*
X644854880Y974278571D02*
X644092976Y974278571D01*
X643426309Y974897619D02*
X643331071Y974897619D01*
X643235833Y974850000D01*
X643188214Y974802380D01*
X643140595Y974707142D01*
X643092976Y974516666D01*
X643092976Y974278571D01*
X643140595Y974088095D01*
X643188214Y973992857D01*
X643235833Y973945238D01*
X643331071Y973897619D01*
X643426309Y973897619D01*
X643521547Y973945238D01*
X643569166Y973992857D01*
X643616785Y974088095D01*
X643664404Y974278571D01*
X643664404Y974516666D01*
X643616785Y974707142D01*
X643569166Y974802380D01*
X643521547Y974850000D01*
X643426309Y974897619D01*
X642188214Y974897619D02*
X642664404Y974897619D01*
X642712023Y974421428D01*
X642664404Y974469047D01*
X642569166Y974516666D01*
X642331071Y974516666D01*
X642235833Y974469047D01*
X642188214Y974421428D01*
X642140595Y974326190D01*
X642140595Y974088095D01*
X642188214Y973992857D01*
X642235833Y973945238D01*
X642331071Y973897619D01*
X642569166Y973897619D01*
X642664404Y973945238D01*
X642712023Y973992857D01*
D12*
X594500000Y936500000D02*
X581900000Y936500000D01*
X594500000Y928500000D02*
X592200000Y920500000D01*
X584200000Y920500000D02*
X581900000Y928500000D01*
X581900000Y928500000D02*
G75*
G02*
X581900000Y936500000I0J4000000D01*
G01*
X594500000Y936500000D02*
G75*
G02*
X594500000Y928500000I0J-4000000D01*
G01*
X592200000Y920500000D02*
G75*
G02*
X584200000Y920500000I-4000000J0D01*
G01*
X679042224Y972077500D02*
X678532776Y972077500D01*
X679042224Y973122500D02*
X678532776Y973122500D01*
X678360000Y970046267D02*
X678360000Y969753733D01*
X677340000Y970046267D02*
X677340000Y969753733D01*
X672120000Y956495000D02*
X672120000Y955715000D01*
X672120000Y955715000D02*
X671120000Y955715000D01*
X653880000Y956495000D02*
X653880000Y955715000D01*
X653880000Y955715000D02*
X654880000Y955715000D01*
X672120000Y981460000D02*
X653880000Y981460000D01*
X653880000Y981460000D02*
X653880000Y975040000D01*
X672120000Y981460000D02*
X672120000Y975040000D01*
X672120000Y975040000D02*
X672500000Y975040000D01*
D11*
X678954166Y973577619D02*
X679287500Y974053809D01*
X679525595Y973577619D02*
X679525595Y974577619D01*
X679144642Y974577619D01*
X679049404Y974530000D01*
X679001785Y974482380D01*
X678954166Y974387142D01*
X678954166Y974244285D01*
X679001785Y974149047D01*
X679049404Y974101428D01*
X679144642Y974053809D01*
X679525595Y974053809D01*
X678097023Y974244285D02*
X678097023Y973577619D01*
X678335119Y974625238D02*
X678573214Y973910952D01*
X677954166Y973910952D01*
X679857142Y970066666D02*
X679904761Y970114285D01*
X679952380Y970257142D01*
X679952380Y970352380D01*
X679904761Y970495238D01*
X679809523Y970590476D01*
X679714285Y970638095D01*
X679523809Y970685714D01*
X679380952Y970685714D01*
X679190476Y970638095D01*
X679095238Y970590476D01*
X679000000Y970495238D01*
X678952380Y970352380D01*
X678952380Y970257142D01*
X679000000Y970114285D01*
X679047619Y970066666D01*
X679952380Y969114285D02*
X679952380Y969685714D01*
X679952380Y969400000D02*
X678952380Y969400000D01*
X679095238Y969495238D01*
X679190476Y969590476D01*
X679238095Y969685714D01*
X663761904Y954447619D02*
X663761904Y953638095D01*
X663714285Y953542857D01*
X663666666Y953495238D01*
X663571428Y953447619D01*
X663380952Y953447619D01*
X663285714Y953495238D01*
X663238095Y953542857D01*
X663190476Y953638095D01*
X663190476Y954447619D01*
X662190476Y953447619D02*
X662761904Y953447619D01*
X662476190Y953447619D02*
X662476190Y954447619D01*
X662571428Y954304761D01*
X662666666Y954209523D01*
X662761904Y954161904D01*
%LPC*%
D13*
G36*
X632000000Y955900000D02*
G01*
X652000000Y955900000D01*
X657000000Y950600000D01*
X657000000Y942500000D01*
X646200000Y931900000D01*
X632000000Y931900000D01*
X622400000Y922500000D01*
X608600000Y922500000D01*
X608600000Y914700000D01*
X576000000Y914700000D01*
X576000000Y966200000D01*
X621000000Y966200000D01*
X632000000Y955900000D01*
G37*
X632000000Y955900000D02*
X652000000Y955900000D01*
X657000000Y950600000D01*
X657000000Y942500000D01*
X646200000Y931900000D01*
X632000000Y931900000D01*
X622400000Y922500000D01*
X608600000Y922500000D01*
X608600000Y914700000D01*
X576000000Y914700000D01*
X576000000Y966200000D01*
X621000000Y966200000D01*
X632000000Y955900000D01*
G36*
G01*
X602750000Y953658063D02*
X602750000Y956341937D01*
G75*
G02*
X603008063Y956600000I258063J0D01*
G01*
X605691937Y956600000D01*
G75*
G02*
X605950000Y956341937I0J-258063D01*
G01*
X605950000Y953658063D01*
G75*
G02*
X605691937Y953400000I-258063J0D01*
G01*
X603008063Y953400000D01*
G75*
G02*
X602750000Y953658063I0J258063D01*
G01*
G37*
G36*
G01*
X602750000Y945858063D02*
X602750000Y948541937D01*
G75*
G02*
X603008063Y948800000I258063J0D01*
G01*
X605691937Y948800000D01*
G75*
G02*
X605950000Y948541937I0J-258063D01*
G01*
X605950000Y945858063D01*
G75*
G02*
X605691937Y945600000I-258063J0D01*
G01*
X603008063Y945600000D01*
G75*
G02*
X602750000Y945858063I0J258063D01*
G01*
G37*
G36*
G01*
X577500000Y952375000D02*
X577500000Y954425000D01*
G75*
G02*
X578525000Y955450000I1025000J0D01*
G01*
X585075000Y955450000D01*
G75*
G02*
X586100000Y954425000I0J-1025000D01*
G01*
X586100000Y952375000D01*
G75*
G02*
X585075000Y951350000I-1025000J0D01*
G01*
X578525000Y951350000D01*
G75*
G02*
X577500000Y952375000I0J1025000D01*
G01*
G37*
G36*
G01*
X590300000Y952375000D02*
X590300000Y954425000D01*
G75*
G02*
X591325000Y955450000I1025000J0D01*
G01*
X597875000Y955450000D01*
G75*
G02*
X598900000Y954425000I0J-1025000D01*
G01*
X598900000Y952375000D01*
G75*
G02*
X597875000Y951350000I-1025000J0D01*
G01*
X591325000Y951350000D01*
G75*
G02*
X590300000Y952375000I0J1025000D01*
G01*
G37*
G36*
G01*
X583900000Y946175000D02*
X583900000Y948225000D01*
G75*
G02*
X584925000Y949250000I1025000J0D01*
G01*
X591475000Y949250000D01*
G75*
G02*
X592500000Y948225000I0J-1025000D01*
G01*
X592500000Y946175000D01*
G75*
G02*
X591475000Y945150000I-1025000J0D01*
G01*
X584925000Y945150000D01*
G75*
G02*
X583900000Y946175000I0J1025000D01*
G01*
G37*
D14*
X594500000Y932600000D03*
X581900000Y932500000D03*
X588200000Y920600000D03*
D15*
X663350000Y948650000D03*
X663350000Y946110000D03*
X663350000Y943570000D03*
X663350000Y941030000D03*
X663350000Y938490000D03*
G36*
G01*
X664250000Y936800000D02*
X664250000Y935100000D01*
G75*
G02*
X664200000Y935050000I-50000J0D01*
G01*
X662500000Y935050000D01*
G75*
G02*
X662450000Y935100000I0J50000D01*
G01*
X662450000Y936800000D01*
G75*
G02*
X662500000Y936850000I50000J0D01*
G01*
X664200000Y936850000D01*
G75*
G02*
X664250000Y936800000I0J-50000D01*
G01*
G37*
X673450000Y946110000D03*
X673450000Y943570000D03*
X673450000Y941030000D03*
X673450000Y948650000D03*
X673450000Y938490000D03*
G36*
G01*
X674350000Y936800000D02*
X674350000Y935100000D01*
G75*
G02*
X674300000Y935050000I-50000J0D01*
G01*
X672600000Y935050000D01*
G75*
G02*
X672550000Y935100000I0J50000D01*
G01*
X672550000Y936800000D01*
G75*
G02*
X672600000Y936850000I50000J0D01*
G01*
X674300000Y936850000D01*
G75*
G02*
X674350000Y936800000I0J-50000D01*
G01*
G37*
G36*
G01*
X679100000Y952550000D02*
X679100000Y954250000D01*
G75*
G02*
X679150000Y954300000I50000J0D01*
G01*
X680850000Y954300000D01*
G75*
G02*
X680900000Y954250000I0J-50000D01*
G01*
X680900000Y952550000D01*
G75*
G02*
X680850000Y952500000I-50000J0D01*
G01*
X679150000Y952500000D01*
G75*
G02*
X679100000Y952550000I0J50000D01*
G01*
G37*
X636330000Y918900000D03*
X633790000Y918900000D03*
G36*
G01*
X632100000Y918000000D02*
X630400000Y918000000D01*
G75*
G02*
X630350000Y918050000I0J50000D01*
G01*
X630350000Y919750000D01*
G75*
G02*
X630400000Y919800000I50000J0D01*
G01*
X632100000Y919800000D01*
G75*
G02*
X632150000Y919750000I0J-50000D01*
G01*
X632150000Y918050000D01*
G75*
G02*
X632100000Y918000000I-50000J0D01*
G01*
G37*
D16*
X675550000Y962050000D03*
X675550000Y964550000D03*
X675550000Y967050000D03*
X675550000Y969550000D03*
D17*
X612800000Y973400000D03*
X612800000Y968320000D03*
X612800000Y963280000D03*
G36*
G01*
X611250000Y956660000D02*
X611250000Y959660000D01*
G75*
G02*
X611300000Y959710000I50000J0D01*
G01*
X614300000Y959710000D01*
G75*
G02*
X614350000Y959660000I0J-50000D01*
G01*
X614350000Y956660000D01*
G75*
G02*
X614300000Y956610000I-50000J0D01*
G01*
X611300000Y956610000D01*
G75*
G02*
X611250000Y956660000I0J50000D01*
G01*
G37*
D18*
X611300000Y944350000D03*
X621400000Y926550000D03*
X618900000Y944350000D03*
D19*
X634100000Y940550000D03*
X634100000Y930350000D03*
D18*
X636600000Y935450000D03*
G36*
G01*
X678412500Y972862500D02*
X678412500Y972337500D01*
G75*
G02*
X678150000Y972075000I-262500J0D01*
G01*
X677600000Y972075000D01*
G75*
G02*
X677337500Y972337500I0J262500D01*
G01*
X677337500Y972862500D01*
G75*
G02*
X677600000Y973125000I262500J0D01*
G01*
X678150000Y973125000D01*
G75*
G02*
X678412500Y972862500I0J-262500D01*
G01*
G37*
G36*
G01*
X680237500Y972862500D02*
X680237500Y972337500D01*
G75*
G02*
X679975000Y972075000I-262500J0D01*
G01*
X679425000Y972075000D01*
G75*
G02*
X679162500Y972337500I0J262500D01*
G01*
X679162500Y972862500D01*
G75*
G02*
X679425000Y973125000I262500J0D01*
G01*
X679975000Y973125000D01*
G75*
G02*
X680237500Y972862500I0J-262500D01*
G01*
G37*
D15*
X664700000Y922200000D03*
G36*
G01*
X665600000Y920510000D02*
X665600000Y918810000D01*
G75*
G02*
X665550000Y918760000I-50000J0D01*
G01*
X663850000Y918760000D01*
G75*
G02*
X663800000Y918810000I0J50000D01*
G01*
X663800000Y920510000D01*
G75*
G02*
X663850000Y920560000I50000J0D01*
G01*
X665550000Y920560000D01*
G75*
G02*
X665600000Y920510000I0J-50000D01*
G01*
G37*
G36*
G01*
X677587500Y969625000D02*
X678112500Y969625000D01*
G75*
G02*
X678375000Y969362500I0J-262500D01*
G01*
X678375000Y968712500D01*
G75*
G02*
X678112500Y968450000I-262500J0D01*
G01*
X677587500Y968450000D01*
G75*
G02*
X677325000Y968712500I0J262500D01*
G01*
X677325000Y969362500D01*
G75*
G02*
X677587500Y969625000I262500J0D01*
G01*
G37*
G36*
G01*
X677587500Y971350000D02*
X678112500Y971350000D01*
G75*
G02*
X678375000Y971087500I0J-262500D01*
G01*
X678375000Y970437500D01*
G75*
G02*
X678112500Y970175000I-262500J0D01*
G01*
X677587500Y970175000D01*
G75*
G02*
X677325000Y970437500I0J262500D01*
G01*
X677325000Y971087500D01*
G75*
G02*
X677587500Y971350000I262500J0D01*
G01*
G37*
D20*
X659000000Y917950000D03*
G36*
G01*
X652300000Y948900000D02*
X655300000Y948900000D01*
G75*
G02*
X655350000Y948850000I0J-50000D01*
G01*
X655350000Y945850000D01*
G75*
G02*
X655300000Y945800000I-50000J0D01*
G01*
X652300000Y945800000D01*
G75*
G02*
X652250000Y945850000I0J50000D01*
G01*
X652250000Y948850000D01*
G75*
G02*
X652300000Y948900000I50000J0D01*
G01*
G37*
D21*
X648800000Y947350000D03*
D20*
X643600000Y917950000D03*
D15*
X664700000Y931380000D03*
X664700000Y928840000D03*
G36*
G01*
X665600000Y927150000D02*
X665600000Y925450000D01*
G75*
G02*
X665550000Y925400000I-50000J0D01*
G01*
X663850000Y925400000D01*
G75*
G02*
X663800000Y925450000I0J50000D01*
G01*
X663800000Y927150000D01*
G75*
G02*
X663850000Y927200000I50000J0D01*
G01*
X665550000Y927200000D01*
G75*
G02*
X665600000Y927150000I0J-50000D01*
G01*
G37*
D22*
X604500000Y918450000D03*
X604500000Y923450000D03*
X604500000Y938450000D03*
X604500000Y933450000D03*
D15*
X676850000Y931400000D03*
X676850000Y928860000D03*
X676850000Y926320000D03*
X676850000Y923780000D03*
X676850000Y921240000D03*
G36*
G01*
X677750000Y919550000D02*
X677750000Y917850000D01*
G75*
G02*
X677700000Y917800000I-50000J0D01*
G01*
X676000000Y917800000D01*
G75*
G02*
X675950000Y917850000I0J50000D01*
G01*
X675950000Y919550000D01*
G75*
G02*
X676000000Y919600000I50000J0D01*
G01*
X677700000Y919600000D01*
G75*
G02*
X677750000Y919550000I0J-50000D01*
G01*
G37*
G36*
G01*
X655550000Y974300000D02*
X655550000Y973400000D01*
G75*
G02*
X655500000Y973350000I-50000J0D01*
G01*
X653500000Y973350000D01*
G75*
G02*
X653450000Y973400000I0J50000D01*
G01*
X653450000Y974300000D01*
G75*
G02*
X653500000Y974350000I50000J0D01*
G01*
X655500000Y974350000D01*
G75*
G02*
X655550000Y974300000I0J-50000D01*
G01*
G37*
G36*
G01*
X655550000Y973030000D02*
X655550000Y972130000D01*
G75*
G02*
X655500000Y972080000I-50000J0D01*
G01*
X653500000Y972080000D01*
G75*
G02*
X653450000Y972130000I0J50000D01*
G01*
X653450000Y973030000D01*
G75*
G02*
X653500000Y973080000I50000J0D01*
G01*
X655500000Y973080000D01*
G75*
G02*
X655550000Y973030000I0J-50000D01*
G01*
G37*
G36*
G01*
X655550000Y971760000D02*
X655550000Y970860000D01*
G75*
G02*
X655500000Y970810000I-50000J0D01*
G01*
X653500000Y970810000D01*
G75*
G02*
X653450000Y970860000I0J50000D01*
G01*
X653450000Y971760000D01*
G75*
G02*
X653500000Y971810000I50000J0D01*
G01*
X655500000Y971810000D01*
G75*
G02*
X655550000Y971760000I0J-50000D01*
G01*
G37*
G36*
G01*
X655550000Y970490000D02*
X655550000Y969590000D01*
G75*
G02*
X655500000Y969540000I-50000J0D01*
G01*
X653500000Y969540000D01*
G75*
G02*
X653450000Y969590000I0J50000D01*
G01*
X653450000Y970490000D01*
G75*
G02*
X653500000Y970540000I50000J0D01*
G01*
X655500000Y970540000D01*
G75*
G02*
X655550000Y970490000I0J-50000D01*
G01*
G37*
G36*
G01*
X655550000Y969220000D02*
X655550000Y968320000D01*
G75*
G02*
X655500000Y968270000I-50000J0D01*
G01*
X653500000Y968270000D01*
G75*
G02*
X653450000Y968320000I0J50000D01*
G01*
X653450000Y969220000D01*
G75*
G02*
X653500000Y969270000I50000J0D01*
G01*
X655500000Y969270000D01*
G75*
G02*
X655550000Y969220000I0J-50000D01*
G01*
G37*
G36*
G01*
X655550000Y967950000D02*
X655550000Y967050000D01*
G75*
G02*
X655500000Y967000000I-50000J0D01*
G01*
X653500000Y967000000D01*
G75*
G02*
X653450000Y967050000I0J50000D01*
G01*
X653450000Y967950000D01*
G75*
G02*
X653500000Y968000000I50000J0D01*
G01*
X655500000Y968000000D01*
G75*
G02*
X655550000Y967950000I0J-50000D01*
G01*
G37*
G36*
G01*
X655550000Y966680000D02*
X655550000Y965780000D01*
G75*
G02*
X655500000Y965730000I-50000J0D01*
G01*
X653500000Y965730000D01*
G75*
G02*
X653450000Y965780000I0J50000D01*
G01*
X653450000Y966680000D01*
G75*
G02*
X653500000Y966730000I50000J0D01*
G01*
X655500000Y966730000D01*
G75*
G02*
X655550000Y966680000I0J-50000D01*
G01*
G37*
G36*
G01*
X655550000Y965410000D02*
X655550000Y964510000D01*
G75*
G02*
X655500000Y964460000I-50000J0D01*
G01*
X653500000Y964460000D01*
G75*
G02*
X653450000Y964510000I0J50000D01*
G01*
X653450000Y965410000D01*
G75*
G02*
X653500000Y965460000I50000J0D01*
G01*
X655500000Y965460000D01*
G75*
G02*
X655550000Y965410000I0J-50000D01*
G01*
G37*
G36*
G01*
X655550000Y964140000D02*
X655550000Y963240000D01*
G75*
G02*
X655500000Y963190000I-50000J0D01*
G01*
X653500000Y963190000D01*
G75*
G02*
X653450000Y963240000I0J50000D01*
G01*
X653450000Y964140000D01*
G75*
G02*
X653500000Y964190000I50000J0D01*
G01*
X655500000Y964190000D01*
G75*
G02*
X655550000Y964140000I0J-50000D01*
G01*
G37*
G36*
G01*
X655550000Y962870000D02*
X655550000Y961970000D01*
G75*
G02*
X655500000Y961920000I-50000J0D01*
G01*
X653500000Y961920000D01*
G75*
G02*
X653450000Y961970000I0J50000D01*
G01*
X653450000Y962870000D01*
G75*
G02*
X653500000Y962920000I50000J0D01*
G01*
X655500000Y962920000D01*
G75*
G02*
X655550000Y962870000I0J-50000D01*
G01*
G37*
G36*
G01*
X655550000Y961600000D02*
X655550000Y960700000D01*
G75*
G02*
X655500000Y960650000I-50000J0D01*
G01*
X653500000Y960650000D01*
G75*
G02*
X653450000Y960700000I0J50000D01*
G01*
X653450000Y961600000D01*
G75*
G02*
X653500000Y961650000I50000J0D01*
G01*
X655500000Y961650000D01*
G75*
G02*
X655550000Y961600000I0J-50000D01*
G01*
G37*
G36*
G01*
X655550000Y960330000D02*
X655550000Y959430000D01*
G75*
G02*
X655500000Y959380000I-50000J0D01*
G01*
X653500000Y959380000D01*
G75*
G02*
X653450000Y959430000I0J50000D01*
G01*
X653450000Y960330000D01*
G75*
G02*
X653500000Y960380000I50000J0D01*
G01*
X655500000Y960380000D01*
G75*
G02*
X655550000Y960330000I0J-50000D01*
G01*
G37*
G36*
G01*
X655550000Y959060000D02*
X655550000Y958160000D01*
G75*
G02*
X655500000Y958110000I-50000J0D01*
G01*
X653500000Y958110000D01*
G75*
G02*
X653450000Y958160000I0J50000D01*
G01*
X653450000Y959060000D01*
G75*
G02*
X653500000Y959110000I50000J0D01*
G01*
X655500000Y959110000D01*
G75*
G02*
X655550000Y959060000I0J-50000D01*
G01*
G37*
G36*
G01*
X655550000Y957790000D02*
X655550000Y956890000D01*
G75*
G02*
X655500000Y956840000I-50000J0D01*
G01*
X653500000Y956840000D01*
G75*
G02*
X653450000Y956890000I0J50000D01*
G01*
X653450000Y957790000D01*
G75*
G02*
X653500000Y957840000I50000J0D01*
G01*
X655500000Y957840000D01*
G75*
G02*
X655550000Y957790000I0J-50000D01*
G01*
G37*
G36*
G01*
X657735000Y955290000D02*
X656835000Y955290000D01*
G75*
G02*
X656785000Y955340000I0J50000D01*
G01*
X656785000Y957340000D01*
G75*
G02*
X656835000Y957390000I50000J0D01*
G01*
X657735000Y957390000D01*
G75*
G02*
X657785000Y957340000I0J-50000D01*
G01*
X657785000Y955340000D01*
G75*
G02*
X657735000Y955290000I-50000J0D01*
G01*
G37*
G36*
G01*
X659005000Y955290000D02*
X658105000Y955290000D01*
G75*
G02*
X658055000Y955340000I0J50000D01*
G01*
X658055000Y957340000D01*
G75*
G02*
X658105000Y957390000I50000J0D01*
G01*
X659005000Y957390000D01*
G75*
G02*
X659055000Y957340000I0J-50000D01*
G01*
X659055000Y955340000D01*
G75*
G02*
X659005000Y955290000I-50000J0D01*
G01*
G37*
G36*
G01*
X660275000Y955290000D02*
X659375000Y955290000D01*
G75*
G02*
X659325000Y955340000I0J50000D01*
G01*
X659325000Y957340000D01*
G75*
G02*
X659375000Y957390000I50000J0D01*
G01*
X660275000Y957390000D01*
G75*
G02*
X660325000Y957340000I0J-50000D01*
G01*
X660325000Y955340000D01*
G75*
G02*
X660275000Y955290000I-50000J0D01*
G01*
G37*
G36*
G01*
X661545000Y955290000D02*
X660645000Y955290000D01*
G75*
G02*
X660595000Y955340000I0J50000D01*
G01*
X660595000Y957340000D01*
G75*
G02*
X660645000Y957390000I50000J0D01*
G01*
X661545000Y957390000D01*
G75*
G02*
X661595000Y957340000I0J-50000D01*
G01*
X661595000Y955340000D01*
G75*
G02*
X661545000Y955290000I-50000J0D01*
G01*
G37*
G36*
G01*
X662815000Y955290000D02*
X661915000Y955290000D01*
G75*
G02*
X661865000Y955340000I0J50000D01*
G01*
X661865000Y957340000D01*
G75*
G02*
X661915000Y957390000I50000J0D01*
G01*
X662815000Y957390000D01*
G75*
G02*
X662865000Y957340000I0J-50000D01*
G01*
X662865000Y955340000D01*
G75*
G02*
X662815000Y955290000I-50000J0D01*
G01*
G37*
G36*
G01*
X664085000Y955290000D02*
X663185000Y955290000D01*
G75*
G02*
X663135000Y955340000I0J50000D01*
G01*
X663135000Y957340000D01*
G75*
G02*
X663185000Y957390000I50000J0D01*
G01*
X664085000Y957390000D01*
G75*
G02*
X664135000Y957340000I0J-50000D01*
G01*
X664135000Y955340000D01*
G75*
G02*
X664085000Y955290000I-50000J0D01*
G01*
G37*
G36*
G01*
X665355000Y955290000D02*
X664455000Y955290000D01*
G75*
G02*
X664405000Y955340000I0J50000D01*
G01*
X664405000Y957340000D01*
G75*
G02*
X664455000Y957390000I50000J0D01*
G01*
X665355000Y957390000D01*
G75*
G02*
X665405000Y957340000I0J-50000D01*
G01*
X665405000Y955340000D01*
G75*
G02*
X665355000Y955290000I-50000J0D01*
G01*
G37*
G36*
G01*
X666625000Y955290000D02*
X665725000Y955290000D01*
G75*
G02*
X665675000Y955340000I0J50000D01*
G01*
X665675000Y957340000D01*
G75*
G02*
X665725000Y957390000I50000J0D01*
G01*
X666625000Y957390000D01*
G75*
G02*
X666675000Y957340000I0J-50000D01*
G01*
X666675000Y955340000D01*
G75*
G02*
X666625000Y955290000I-50000J0D01*
G01*
G37*
G36*
G01*
X667895000Y955290000D02*
X666995000Y955290000D01*
G75*
G02*
X666945000Y955340000I0J50000D01*
G01*
X666945000Y957340000D01*
G75*
G02*
X666995000Y957390000I50000J0D01*
G01*
X667895000Y957390000D01*
G75*
G02*
X667945000Y957340000I0J-50000D01*
G01*
X667945000Y955340000D01*
G75*
G02*
X667895000Y955290000I-50000J0D01*
G01*
G37*
G36*
G01*
X669165000Y955290000D02*
X668265000Y955290000D01*
G75*
G02*
X668215000Y955340000I0J50000D01*
G01*
X668215000Y957340000D01*
G75*
G02*
X668265000Y957390000I50000J0D01*
G01*
X669165000Y957390000D01*
G75*
G02*
X669215000Y957340000I0J-50000D01*
G01*
X669215000Y955340000D01*
G75*
G02*
X669165000Y955290000I-50000J0D01*
G01*
G37*
G36*
G01*
X672550000Y957790000D02*
X672550000Y956890000D01*
G75*
G02*
X672500000Y956840000I-50000J0D01*
G01*
X670500000Y956840000D01*
G75*
G02*
X670450000Y956890000I0J50000D01*
G01*
X670450000Y957790000D01*
G75*
G02*
X670500000Y957840000I50000J0D01*
G01*
X672500000Y957840000D01*
G75*
G02*
X672550000Y957790000I0J-50000D01*
G01*
G37*
G36*
G01*
X672550000Y959060000D02*
X672550000Y958160000D01*
G75*
G02*
X672500000Y958110000I-50000J0D01*
G01*
X670500000Y958110000D01*
G75*
G02*
X670450000Y958160000I0J50000D01*
G01*
X670450000Y959060000D01*
G75*
G02*
X670500000Y959110000I50000J0D01*
G01*
X672500000Y959110000D01*
G75*
G02*
X672550000Y959060000I0J-50000D01*
G01*
G37*
G36*
G01*
X672550000Y960330000D02*
X672550000Y959430000D01*
G75*
G02*
X672500000Y959380000I-50000J0D01*
G01*
X670500000Y959380000D01*
G75*
G02*
X670450000Y959430000I0J50000D01*
G01*
X670450000Y960330000D01*
G75*
G02*
X670500000Y960380000I50000J0D01*
G01*
X672500000Y960380000D01*
G75*
G02*
X672550000Y960330000I0J-50000D01*
G01*
G37*
G36*
G01*
X672550000Y961600000D02*
X672550000Y960700000D01*
G75*
G02*
X672500000Y960650000I-50000J0D01*
G01*
X670500000Y960650000D01*
G75*
G02*
X670450000Y960700000I0J50000D01*
G01*
X670450000Y961600000D01*
G75*
G02*
X670500000Y961650000I50000J0D01*
G01*
X672500000Y961650000D01*
G75*
G02*
X672550000Y961600000I0J-50000D01*
G01*
G37*
G36*
G01*
X672550000Y962870000D02*
X672550000Y961970000D01*
G75*
G02*
X672500000Y961920000I-50000J0D01*
G01*
X670500000Y961920000D01*
G75*
G02*
X670450000Y961970000I0J50000D01*
G01*
X670450000Y962870000D01*
G75*
G02*
X670500000Y962920000I50000J0D01*
G01*
X672500000Y962920000D01*
G75*
G02*
X672550000Y962870000I0J-50000D01*
G01*
G37*
G36*
G01*
X672550000Y964140000D02*
X672550000Y963240000D01*
G75*
G02*
X672500000Y963190000I-50000J0D01*
G01*
X670500000Y963190000D01*
G75*
G02*
X670450000Y963240000I0J50000D01*
G01*
X670450000Y964140000D01*
G75*
G02*
X670500000Y964190000I50000J0D01*
G01*
X672500000Y964190000D01*
G75*
G02*
X672550000Y964140000I0J-50000D01*
G01*
G37*
G36*
G01*
X672550000Y965410000D02*
X672550000Y964510000D01*
G75*
G02*
X672500000Y964460000I-50000J0D01*
G01*
X670500000Y964460000D01*
G75*
G02*
X670450000Y964510000I0J50000D01*
G01*
X670450000Y965410000D01*
G75*
G02*
X670500000Y965460000I50000J0D01*
G01*
X672500000Y965460000D01*
G75*
G02*
X672550000Y965410000I0J-50000D01*
G01*
G37*
G36*
G01*
X672550000Y966680000D02*
X672550000Y965780000D01*
G75*
G02*
X672500000Y965730000I-50000J0D01*
G01*
X670500000Y965730000D01*
G75*
G02*
X670450000Y965780000I0J50000D01*
G01*
X670450000Y966680000D01*
G75*
G02*
X670500000Y966730000I50000J0D01*
G01*
X672500000Y966730000D01*
G75*
G02*
X672550000Y966680000I0J-50000D01*
G01*
G37*
G36*
G01*
X672550000Y967950000D02*
X672550000Y967050000D01*
G75*
G02*
X672500000Y967000000I-50000J0D01*
G01*
X670500000Y967000000D01*
G75*
G02*
X670450000Y967050000I0J50000D01*
G01*
X670450000Y967950000D01*
G75*
G02*
X670500000Y968000000I50000J0D01*
G01*
X672500000Y968000000D01*
G75*
G02*
X672550000Y967950000I0J-50000D01*
G01*
G37*
G36*
G01*
X672550000Y969220000D02*
X672550000Y968320000D01*
G75*
G02*
X672500000Y968270000I-50000J0D01*
G01*
X670500000Y968270000D01*
G75*
G02*
X670450000Y968320000I0J50000D01*
G01*
X670450000Y969220000D01*
G75*
G02*
X670500000Y969270000I50000J0D01*
G01*
X672500000Y969270000D01*
G75*
G02*
X672550000Y969220000I0J-50000D01*
G01*
G37*
G36*
G01*
X672550000Y970490000D02*
X672550000Y969590000D01*
G75*
G02*
X672500000Y969540000I-50000J0D01*
G01*
X670500000Y969540000D01*
G75*
G02*
X670450000Y969590000I0J50000D01*
G01*
X670450000Y970490000D01*
G75*
G02*
X670500000Y970540000I50000J0D01*
G01*
X672500000Y970540000D01*
G75*
G02*
X672550000Y970490000I0J-50000D01*
G01*
G37*
G36*
G01*
X672550000Y971760000D02*
X672550000Y970860000D01*
G75*
G02*
X672500000Y970810000I-50000J0D01*
G01*
X670500000Y970810000D01*
G75*
G02*
X670450000Y970860000I0J50000D01*
G01*
X670450000Y971760000D01*
G75*
G02*
X670500000Y971810000I50000J0D01*
G01*
X672500000Y971810000D01*
G75*
G02*
X672550000Y971760000I0J-50000D01*
G01*
G37*
G36*
G01*
X672550000Y973030000D02*
X672550000Y972130000D01*
G75*
G02*
X672500000Y972080000I-50000J0D01*
G01*
X670500000Y972080000D01*
G75*
G02*
X670450000Y972130000I0J50000D01*
G01*
X670450000Y973030000D01*
G75*
G02*
X670500000Y973080000I50000J0D01*
G01*
X672500000Y973080000D01*
G75*
G02*
X672550000Y973030000I0J-50000D01*
G01*
G37*
G36*
G01*
X672550000Y974300000D02*
X672550000Y973400000D01*
G75*
G02*
X672500000Y973350000I-50000J0D01*
G01*
X670500000Y973350000D01*
G75*
G02*
X670450000Y973400000I0J50000D01*
G01*
X670450000Y974300000D01*
G75*
G02*
X670500000Y974350000I50000J0D01*
G01*
X672500000Y974350000D01*
G75*
G02*
X672550000Y974300000I0J-50000D01*
G01*
G37*
G36*
G01*
X666550000Y968850000D02*
X666550000Y963850000D01*
G75*
G02*
X666500000Y963800000I-50000J0D01*
G01*
X661500000Y963800000D01*
G75*
G02*
X661450000Y963850000I0J50000D01*
G01*
X661450000Y968850000D01*
G75*
G02*
X661500000Y968900000I50000J0D01*
G01*
X666500000Y968900000D01*
G75*
G02*
X666550000Y968850000I0J-50000D01*
G01*
G37*
M02*
