%FSLAX45Y45*%
G04 Gerber Fmt 4.5, Leading zero omitted, Abs format (unit mm)*
G04 Created by KiCad (PCBNEW 5.1.10-88a1d61d58~90~ubuntu20.04.1) date 2021-11-04 14:27:38*
%MOMM*%
%LPD*%
G01*
G04 APERTURE LIST*
%TA.AperFunction,Profile*%
%ADD10C,0.050000*%
%TD*%
%ADD11C,0.200000*%
%ADD12C,0.300000*%
G04 APERTURE END LIST*
D10*
X21850000Y-4445000D02*
X21850000Y-10750000D01*
X12305000Y-10750000D02*
X21850000Y-10750000D01*
X12305000Y-4445000D02*
X12305000Y-10750000D01*
X12305000Y-4445000D02*
X21850000Y-4445000D01*
D11*
X13135000Y-8321000D02*
X13225000Y-8411000D01*
X13225000Y-8321000D02*
X13135000Y-8411000D01*
X13135000Y-8525000D02*
X13225000Y-8615000D01*
X13225000Y-8525000D02*
X13135000Y-8615000D01*
X13155000Y-6681000D02*
X13245000Y-6771000D01*
X13245000Y-6681000D02*
X13155000Y-6771000D01*
X13155000Y-6885000D02*
X13245000Y-6975000D01*
X13245000Y-6885000D02*
X13155000Y-6975000D01*
X13389000Y-8219000D02*
X13479000Y-8309000D01*
X13479000Y-8219000D02*
X13389000Y-8309000D01*
X13389000Y-8423000D02*
X13479000Y-8513000D01*
X13479000Y-8423000D02*
X13389000Y-8513000D01*
X13409000Y-6579000D02*
X13499000Y-6669000D01*
X13499000Y-6579000D02*
X13409000Y-6669000D01*
X13409000Y-6783000D02*
X13499000Y-6873000D01*
X13499000Y-6783000D02*
X13409000Y-6873000D01*
X13531000Y-9529000D02*
X13621000Y-9619000D01*
X13621000Y-9529000D02*
X13531000Y-9619000D01*
X13535000Y-5355000D02*
X13625000Y-5445000D01*
X13625000Y-5355000D02*
X13535000Y-5445000D01*
X13633000Y-9783000D02*
X13723000Y-9873000D01*
X13723000Y-9783000D02*
X13633000Y-9873000D01*
X13637000Y-5609000D02*
X13727000Y-5699000D01*
X13727000Y-5609000D02*
X13637000Y-5699000D01*
X13735000Y-9529000D02*
X13825000Y-9619000D01*
X13825000Y-9529000D02*
X13735000Y-9619000D01*
X13739000Y-5355000D02*
X13829000Y-5445000D01*
X13829000Y-5355000D02*
X13739000Y-5445000D01*
X13837000Y-9783000D02*
X13927000Y-9873000D01*
X13927000Y-9783000D02*
X13837000Y-9873000D01*
X13841000Y-5609000D02*
X13931000Y-5699000D01*
X13931000Y-5609000D02*
X13841000Y-5699000D01*
X15135000Y-5355000D02*
X15225000Y-5445000D01*
X15225000Y-5355000D02*
X15135000Y-5445000D01*
X15140000Y-9527000D02*
X15230000Y-9617000D01*
X15230000Y-9527000D02*
X15140000Y-9617000D01*
X15237000Y-5609000D02*
X15327000Y-5699000D01*
X15327000Y-5609000D02*
X15237000Y-5699000D01*
X15242000Y-9781000D02*
X15332000Y-9871000D01*
X15332000Y-9781000D02*
X15242000Y-9871000D01*
X15339000Y-5355000D02*
X15429000Y-5445000D01*
X15429000Y-5355000D02*
X15339000Y-5445000D01*
X15344000Y-9527000D02*
X15434000Y-9617000D01*
X15434000Y-9527000D02*
X15344000Y-9617000D01*
X15441000Y-5609000D02*
X15531000Y-5699000D01*
X15531000Y-5609000D02*
X15441000Y-5699000D01*
X15446000Y-9781000D02*
X15536000Y-9871000D01*
X15536000Y-9781000D02*
X15446000Y-9871000D01*
X16735000Y-5355000D02*
X16825000Y-5445000D01*
X16825000Y-5355000D02*
X16735000Y-5445000D01*
X16743000Y-9529000D02*
X16833000Y-9619000D01*
X16833000Y-9529000D02*
X16743000Y-9619000D01*
X16837000Y-5609000D02*
X16927000Y-5699000D01*
X16927000Y-5609000D02*
X16837000Y-5699000D01*
X16845000Y-9783000D02*
X16935000Y-9873000D01*
X16935000Y-9783000D02*
X16845000Y-9873000D01*
X16939000Y-5355000D02*
X17029000Y-5445000D01*
X17029000Y-5355000D02*
X16939000Y-5445000D01*
X16947000Y-9529000D02*
X17037000Y-9619000D01*
X17037000Y-9529000D02*
X16947000Y-9619000D01*
X17041000Y-5609000D02*
X17131000Y-5699000D01*
X17131000Y-5609000D02*
X17041000Y-5699000D01*
X17049000Y-9783000D02*
X17139000Y-9873000D01*
X17139000Y-9783000D02*
X17049000Y-9873000D01*
X18335000Y-5355000D02*
X18425000Y-5445000D01*
X18425000Y-5355000D02*
X18335000Y-5445000D01*
X18339000Y-9527000D02*
X18429000Y-9617000D01*
X18429000Y-9527000D02*
X18339000Y-9617000D01*
X18437000Y-5609000D02*
X18527000Y-5699000D01*
X18527000Y-5609000D02*
X18437000Y-5699000D01*
X18441000Y-9781000D02*
X18531000Y-9871000D01*
X18531000Y-9781000D02*
X18441000Y-9871000D01*
X18539000Y-5355000D02*
X18629000Y-5445000D01*
X18629000Y-5355000D02*
X18539000Y-5445000D01*
X18543000Y-9527000D02*
X18633000Y-9617000D01*
X18633000Y-9527000D02*
X18543000Y-9617000D01*
X18641000Y-5609000D02*
X18731000Y-5699000D01*
X18731000Y-5609000D02*
X18641000Y-5699000D01*
X18645000Y-9781000D02*
X18735000Y-9871000D01*
X18735000Y-9781000D02*
X18645000Y-9871000D01*
X19969000Y-9528000D02*
X20059000Y-9618000D01*
X20059000Y-9528000D02*
X19969000Y-9618000D01*
X19975000Y-5360000D02*
X20065000Y-5450000D01*
X20065000Y-5360000D02*
X19975000Y-5450000D01*
X20071000Y-9782000D02*
X20161000Y-9872000D01*
X20161000Y-9782000D02*
X20071000Y-9872000D01*
X20077000Y-5614000D02*
X20167000Y-5704000D01*
X20167000Y-5614000D02*
X20077000Y-5704000D01*
X20173000Y-9528000D02*
X20263000Y-9618000D01*
X20263000Y-9528000D02*
X20173000Y-9618000D01*
X20179000Y-5360000D02*
X20269000Y-5450000D01*
X20269000Y-5360000D02*
X20179000Y-5450000D01*
X20275000Y-9782000D02*
X20365000Y-9872000D01*
X20365000Y-9782000D02*
X20275000Y-9872000D01*
X20281000Y-5614000D02*
X20371000Y-5704000D01*
X20371000Y-5614000D02*
X20281000Y-5704000D01*
X20641000Y-6677000D02*
X20731000Y-6767000D01*
X20731000Y-6677000D02*
X20641000Y-6767000D01*
X20641000Y-6881000D02*
X20731000Y-6971000D01*
X20731000Y-6881000D02*
X20641000Y-6971000D01*
X20641000Y-8317000D02*
X20731000Y-8407000D01*
X20731000Y-8317000D02*
X20641000Y-8407000D01*
X20641000Y-8521000D02*
X20731000Y-8611000D01*
X20731000Y-8521000D02*
X20641000Y-8611000D01*
X20895000Y-6575000D02*
X20985000Y-6665000D01*
X20985000Y-6575000D02*
X20895000Y-6665000D01*
X20895000Y-6779000D02*
X20985000Y-6869000D01*
X20985000Y-6779000D02*
X20895000Y-6869000D01*
X20895000Y-8215000D02*
X20985000Y-8305000D01*
X20985000Y-8215000D02*
X20895000Y-8305000D01*
X20895000Y-8419000D02*
X20985000Y-8509000D01*
X20985000Y-8419000D02*
X20895000Y-8509000D01*
D12*
X12588928Y-11218214D02*
X12588928Y-10918214D01*
X12660357Y-10918214D01*
X12703214Y-10932500D01*
X12731786Y-10961072D01*
X12746071Y-10989643D01*
X12760357Y-11046786D01*
X12760357Y-11089643D01*
X12746071Y-11146786D01*
X12731786Y-11175357D01*
X12703214Y-11203929D01*
X12660357Y-11218214D01*
X12588928Y-11218214D01*
X12888928Y-11218214D02*
X12888928Y-11018214D01*
X12888928Y-11075357D02*
X12903214Y-11046786D01*
X12917500Y-11032500D01*
X12946071Y-11018214D01*
X12974643Y-11018214D01*
X13074643Y-11218214D02*
X13074643Y-11018214D01*
X13074643Y-10918214D02*
X13060357Y-10932500D01*
X13074643Y-10946786D01*
X13088928Y-10932500D01*
X13074643Y-10918214D01*
X13074643Y-10946786D01*
X13260357Y-11218214D02*
X13231786Y-11203929D01*
X13217500Y-11175357D01*
X13217500Y-10918214D01*
X13417500Y-11218214D02*
X13388928Y-11203929D01*
X13374643Y-11175357D01*
X13374643Y-10918214D01*
X13760357Y-11218214D02*
X13760357Y-10918214D01*
X13860357Y-11132500D01*
X13960357Y-10918214D01*
X13960357Y-11218214D01*
X14231786Y-11218214D02*
X14231786Y-11061072D01*
X14217500Y-11032500D01*
X14188928Y-11018214D01*
X14131786Y-11018214D01*
X14103214Y-11032500D01*
X14231786Y-11203929D02*
X14203214Y-11218214D01*
X14131786Y-11218214D01*
X14103214Y-11203929D01*
X14088928Y-11175357D01*
X14088928Y-11146786D01*
X14103214Y-11118214D01*
X14131786Y-11103929D01*
X14203214Y-11103929D01*
X14231786Y-11089643D01*
X14374643Y-11018214D02*
X14374643Y-11318214D01*
X14374643Y-11032500D02*
X14403214Y-11018214D01*
X14460357Y-11018214D01*
X14488928Y-11032500D01*
X14503214Y-11046786D01*
X14517500Y-11075357D01*
X14517500Y-11161072D01*
X14503214Y-11189643D01*
X14488928Y-11203929D01*
X14460357Y-11218214D01*
X14403214Y-11218214D01*
X14374643Y-11203929D01*
X14646071Y-11189643D02*
X14660357Y-11203929D01*
X14646071Y-11218214D01*
X14631786Y-11203929D01*
X14646071Y-11189643D01*
X14646071Y-11218214D01*
X14646071Y-11032500D02*
X14660357Y-11046786D01*
X14646071Y-11061072D01*
X14631786Y-11046786D01*
X14646071Y-11032500D01*
X14646071Y-11061072D01*
X12212500Y-11667500D02*
X12302500Y-11757500D01*
X12302500Y-11667500D02*
X12212500Y-11757500D01*
X12646071Y-11548214D02*
X12674643Y-11548214D01*
X12703214Y-11562500D01*
X12717500Y-11576786D01*
X12731786Y-11605357D01*
X12746071Y-11662500D01*
X12746071Y-11733929D01*
X12731786Y-11791071D01*
X12717500Y-11819643D01*
X12703214Y-11833929D01*
X12674643Y-11848214D01*
X12646071Y-11848214D01*
X12617500Y-11833929D01*
X12603214Y-11819643D01*
X12588928Y-11791071D01*
X12574643Y-11733929D01*
X12574643Y-11662500D01*
X12588928Y-11605357D01*
X12603214Y-11576786D01*
X12617500Y-11562500D01*
X12646071Y-11548214D01*
X12874643Y-11819643D02*
X12888928Y-11833929D01*
X12874643Y-11848214D01*
X12860357Y-11833929D01*
X12874643Y-11819643D01*
X12874643Y-11848214D01*
X13031786Y-11848214D02*
X13088928Y-11848214D01*
X13117500Y-11833929D01*
X13131786Y-11819643D01*
X13160357Y-11776786D01*
X13174643Y-11719643D01*
X13174643Y-11605357D01*
X13160357Y-11576786D01*
X13146071Y-11562500D01*
X13117500Y-11548214D01*
X13060357Y-11548214D01*
X13031786Y-11562500D01*
X13017500Y-11576786D01*
X13003214Y-11605357D01*
X13003214Y-11676786D01*
X13017500Y-11705357D01*
X13031786Y-11719643D01*
X13060357Y-11733929D01*
X13117500Y-11733929D01*
X13146071Y-11719643D01*
X13160357Y-11705357D01*
X13174643Y-11676786D01*
X13360357Y-11548214D02*
X13388928Y-11548214D01*
X13417500Y-11562500D01*
X13431786Y-11576786D01*
X13446071Y-11605357D01*
X13460357Y-11662500D01*
X13460357Y-11733929D01*
X13446071Y-11791071D01*
X13431786Y-11819643D01*
X13417500Y-11833929D01*
X13388928Y-11848214D01*
X13360357Y-11848214D01*
X13331786Y-11833929D01*
X13317500Y-11819643D01*
X13303214Y-11791071D01*
X13288928Y-11733929D01*
X13288928Y-11662500D01*
X13303214Y-11605357D01*
X13317500Y-11576786D01*
X13331786Y-11562500D01*
X13360357Y-11548214D01*
X13646071Y-11548214D02*
X13674643Y-11548214D01*
X13703214Y-11562500D01*
X13717500Y-11576786D01*
X13731786Y-11605357D01*
X13746071Y-11662500D01*
X13746071Y-11733929D01*
X13731786Y-11791071D01*
X13717500Y-11819643D01*
X13703214Y-11833929D01*
X13674643Y-11848214D01*
X13646071Y-11848214D01*
X13617500Y-11833929D01*
X13603214Y-11819643D01*
X13588928Y-11791071D01*
X13574643Y-11733929D01*
X13574643Y-11662500D01*
X13588928Y-11605357D01*
X13603214Y-11576786D01*
X13617500Y-11562500D01*
X13646071Y-11548214D01*
X13874643Y-11848214D02*
X13874643Y-11648214D01*
X13874643Y-11676786D02*
X13888928Y-11662500D01*
X13917500Y-11648214D01*
X13960357Y-11648214D01*
X13988928Y-11662500D01*
X14003214Y-11691071D01*
X14003214Y-11848214D01*
X14003214Y-11691071D02*
X14017500Y-11662500D01*
X14046071Y-11648214D01*
X14088928Y-11648214D01*
X14117500Y-11662500D01*
X14131786Y-11691071D01*
X14131786Y-11848214D01*
X14274643Y-11848214D02*
X14274643Y-11648214D01*
X14274643Y-11676786D02*
X14288928Y-11662500D01*
X14317500Y-11648214D01*
X14360357Y-11648214D01*
X14388928Y-11662500D01*
X14403214Y-11691071D01*
X14403214Y-11848214D01*
X14403214Y-11691071D02*
X14417500Y-11662500D01*
X14446071Y-11648214D01*
X14488928Y-11648214D01*
X14517500Y-11662500D01*
X14531786Y-11691071D01*
X14531786Y-11848214D01*
X15117500Y-11533929D02*
X14860357Y-11919643D01*
X15503214Y-11548214D02*
X15531786Y-11548214D01*
X15560357Y-11562500D01*
X15574643Y-11576786D01*
X15588928Y-11605357D01*
X15603214Y-11662500D01*
X15603214Y-11733929D01*
X15588928Y-11791071D01*
X15574643Y-11819643D01*
X15560357Y-11833929D01*
X15531786Y-11848214D01*
X15503214Y-11848214D01*
X15474643Y-11833929D01*
X15460357Y-11819643D01*
X15446071Y-11791071D01*
X15431786Y-11733929D01*
X15431786Y-11662500D01*
X15446071Y-11605357D01*
X15460357Y-11576786D01*
X15474643Y-11562500D01*
X15503214Y-11548214D01*
X15731786Y-11819643D02*
X15746071Y-11833929D01*
X15731786Y-11848214D01*
X15717500Y-11833929D01*
X15731786Y-11819643D01*
X15731786Y-11848214D01*
X15931786Y-11548214D02*
X15960357Y-11548214D01*
X15988928Y-11562500D01*
X16003214Y-11576786D01*
X16017500Y-11605357D01*
X16031786Y-11662500D01*
X16031786Y-11733929D01*
X16017500Y-11791071D01*
X16003214Y-11819643D01*
X15988928Y-11833929D01*
X15960357Y-11848214D01*
X15931786Y-11848214D01*
X15903214Y-11833929D01*
X15888928Y-11819643D01*
X15874643Y-11791071D01*
X15860357Y-11733929D01*
X15860357Y-11662500D01*
X15874643Y-11605357D01*
X15888928Y-11576786D01*
X15903214Y-11562500D01*
X15931786Y-11548214D01*
X16131786Y-11548214D02*
X16317500Y-11548214D01*
X16217500Y-11662500D01*
X16260357Y-11662500D01*
X16288928Y-11676786D01*
X16303214Y-11691071D01*
X16317500Y-11719643D01*
X16317500Y-11791071D01*
X16303214Y-11819643D01*
X16288928Y-11833929D01*
X16260357Y-11848214D01*
X16174643Y-11848214D01*
X16146071Y-11833929D01*
X16131786Y-11819643D01*
X16588928Y-11548214D02*
X16446071Y-11548214D01*
X16431786Y-11691071D01*
X16446071Y-11676786D01*
X16474643Y-11662500D01*
X16546071Y-11662500D01*
X16574643Y-11676786D01*
X16588928Y-11691071D01*
X16603214Y-11719643D01*
X16603214Y-11791071D01*
X16588928Y-11819643D01*
X16574643Y-11833929D01*
X16546071Y-11848214D01*
X16474643Y-11848214D01*
X16446071Y-11833929D01*
X16431786Y-11819643D01*
X16860357Y-11648214D02*
X16860357Y-11848214D01*
X16788928Y-11533929D02*
X16717500Y-11748214D01*
X16903214Y-11748214D01*
X17003214Y-11548214D02*
X17003214Y-11605357D01*
X17117500Y-11548214D02*
X17117500Y-11605357D01*
X17560357Y-11962500D02*
X17546071Y-11948214D01*
X17517500Y-11905357D01*
X17503214Y-11876786D01*
X17488928Y-11833929D01*
X17474643Y-11762500D01*
X17474643Y-11705357D01*
X17488928Y-11633929D01*
X17503214Y-11591071D01*
X17517500Y-11562500D01*
X17546071Y-11519643D01*
X17560357Y-11505357D01*
X17817500Y-11548214D02*
X17674643Y-11548214D01*
X17660357Y-11691071D01*
X17674643Y-11676786D01*
X17703214Y-11662500D01*
X17774643Y-11662500D01*
X17803214Y-11676786D01*
X17817500Y-11691071D01*
X17831786Y-11719643D01*
X17831786Y-11791071D01*
X17817500Y-11819643D01*
X17803214Y-11833929D01*
X17774643Y-11848214D01*
X17703214Y-11848214D01*
X17674643Y-11833929D01*
X17660357Y-11819643D01*
X18088928Y-11548214D02*
X18031786Y-11548214D01*
X18003214Y-11562500D01*
X17988928Y-11576786D01*
X17960357Y-11619643D01*
X17946071Y-11676786D01*
X17946071Y-11791071D01*
X17960357Y-11819643D01*
X17974643Y-11833929D01*
X18003214Y-11848214D01*
X18060357Y-11848214D01*
X18088928Y-11833929D01*
X18103214Y-11819643D01*
X18117500Y-11791071D01*
X18117500Y-11719643D01*
X18103214Y-11691071D01*
X18088928Y-11676786D01*
X18060357Y-11662500D01*
X18003214Y-11662500D01*
X17974643Y-11676786D01*
X17960357Y-11691071D01*
X17946071Y-11719643D01*
X18474643Y-11848214D02*
X18474643Y-11548214D01*
X18603214Y-11848214D02*
X18603214Y-11691071D01*
X18588928Y-11662500D01*
X18560357Y-11648214D01*
X18517500Y-11648214D01*
X18488928Y-11662500D01*
X18474643Y-11676786D01*
X18788928Y-11848214D02*
X18760357Y-11833929D01*
X18746071Y-11819643D01*
X18731786Y-11791071D01*
X18731786Y-11705357D01*
X18746071Y-11676786D01*
X18760357Y-11662500D01*
X18788928Y-11648214D01*
X18831786Y-11648214D01*
X18860357Y-11662500D01*
X18874643Y-11676786D01*
X18888928Y-11705357D01*
X18888928Y-11791071D01*
X18874643Y-11819643D01*
X18860357Y-11833929D01*
X18831786Y-11848214D01*
X18788928Y-11848214D01*
X19060357Y-11848214D02*
X19031786Y-11833929D01*
X19017500Y-11805357D01*
X19017500Y-11548214D01*
X19288928Y-11833929D02*
X19260357Y-11848214D01*
X19203214Y-11848214D01*
X19174643Y-11833929D01*
X19160357Y-11805357D01*
X19160357Y-11691071D01*
X19174643Y-11662500D01*
X19203214Y-11648214D01*
X19260357Y-11648214D01*
X19288928Y-11662500D01*
X19303214Y-11691071D01*
X19303214Y-11719643D01*
X19160357Y-11748214D01*
X19417500Y-11833929D02*
X19446071Y-11848214D01*
X19503214Y-11848214D01*
X19531786Y-11833929D01*
X19546071Y-11805357D01*
X19546071Y-11791071D01*
X19531786Y-11762500D01*
X19503214Y-11748214D01*
X19460357Y-11748214D01*
X19431786Y-11733929D01*
X19417500Y-11705357D01*
X19417500Y-11691071D01*
X19431786Y-11662500D01*
X19460357Y-11648214D01*
X19503214Y-11648214D01*
X19531786Y-11662500D01*
X19646071Y-11962500D02*
X19660357Y-11948214D01*
X19688928Y-11905357D01*
X19703214Y-11876786D01*
X19717500Y-11833929D01*
X19731786Y-11762500D01*
X19731786Y-11705357D01*
X19717500Y-11633929D01*
X19703214Y-11591071D01*
X19688928Y-11562500D01*
X19660357Y-11519643D01*
X19646071Y-11505357D01*
M02*
