M48
; DRILL file {KiCad 5.1.10-88a1d61d58~90~ubuntu20.04.1} date Thu Nov  4 14:27:37 2021
; FORMAT={-:-/ absolute / metric / decimal}
; #@! TF.CreationDate,2021-11-04T14:27:37-04:00
; #@! TF.GenerationSoftware,Kicad,Pcbnew,5.1.10-88a1d61d58~90~ubuntu20.04.1
; #@! TF.FileFunction,Plated,1,2,PTH
FMAT,2
METRIC
T1C0.900
%
G90
G05
T1
X131.8Y-83.66
X131.8Y-85.7
X132.0Y-67.26
X132.0Y-69.3
X134.34Y-82.64
X134.34Y-84.68
X134.54Y-66.24
X134.54Y-68.28
X135.76Y-95.74
X135.8Y-54.0
X136.78Y-98.28
X136.82Y-56.54
X137.8Y-95.74
X137.84Y-54.0
X138.82Y-98.28
X138.86Y-56.54
X151.8Y-54.0
X151.85Y-95.72
X152.82Y-56.54
X152.87Y-98.26
X153.84Y-54.0
X153.89Y-95.72
X154.86Y-56.54
X154.91Y-98.26
X167.8Y-54.0
X167.88Y-95.74
X168.82Y-56.54
X168.9Y-98.28
X169.84Y-54.0
X169.92Y-95.74
X170.86Y-56.54
X170.94Y-98.28
X183.8Y-54.0
X183.84Y-95.72
X184.82Y-56.54
X184.86Y-98.26
X185.84Y-54.0
X185.88Y-95.72
X186.86Y-56.54
X186.9Y-98.26
X200.14Y-95.73
X200.2Y-54.05
X201.16Y-98.27
X201.22Y-56.59
X202.18Y-95.73
X202.24Y-54.05
X203.2Y-98.27
X203.26Y-56.59
X206.86Y-67.22
X206.86Y-69.26
X206.86Y-83.62
X206.86Y-85.66
X209.4Y-66.2
X209.4Y-68.24
X209.4Y-82.6
X209.4Y-84.64
T0
M30
