M48
; DRILL file {KiCad 5.1.10-88a1d61d58~90~ubuntu20.04.1} date Thu Nov  4 14:27:37 2021
; FORMAT={-:-/ absolute / metric / decimal}
; #@! TF.CreationDate,2021-11-04T14:27:37-04:00
; #@! TF.GenerationSoftware,Kicad,Pcbnew,5.1.10-88a1d61d58~90~ubuntu20.04.1
; #@! TF.FileFunction,NonPlated,1,2,NPTH
FMAT,2
METRIC
T1C2.300
T2C3.200
%
G90
G05
T1
X129.5Y-78.17
X129.5Y-90.17
X129.7Y-61.77
X129.7Y-73.77
X131.29Y-100.58
X131.33Y-51.7
X143.29Y-100.58
X143.33Y-51.7
X147.33Y-51.7
X147.38Y-100.56
X159.33Y-51.7
X159.38Y-100.56
X163.33Y-51.7
X163.41Y-100.58
X175.33Y-51.7
X175.41Y-100.58
X179.33Y-51.7
X179.37Y-100.56
X191.33Y-51.7
X191.37Y-100.56
X195.67Y-100.57
X195.73Y-51.75
X207.67Y-100.57
X207.73Y-51.75
X211.7Y-61.73
X211.7Y-73.73
X211.7Y-78.13
X211.7Y-90.13
T2
X124.8Y-46.15
X125.0Y-105.65
X216.65Y-46.5
X216.75Y-105.75
T0
M30
