%FSLAX45Y45*%
G04 Gerber Fmt 4.5, Leading zero omitted, Abs format (unit mm)*
G04 Created by KiCad (PCBNEW 5.1.10-88a1d61d58~90~ubuntu20.04.1) date 2021-11-04 14:27:38*
%MOMM*%
%LPD*%
G01*
G04 APERTURE LIST*
%TA.AperFunction,Profile*%
%ADD10C,0.050000*%
%TD*%
%ADD11C,0.200000*%
%ADD12C,0.300000*%
G04 APERTURE END LIST*
D10*
X21850000Y-4445000D02*
X21850000Y-10750000D01*
X12305000Y-10750000D02*
X21850000Y-10750000D01*
X12305000Y-4445000D02*
X12305000Y-10750000D01*
X12305000Y-4445000D02*
X21850000Y-4445000D01*
D11*
X12835000Y-7702000D02*
X13065000Y-7932000D01*
X13065000Y-7702000D02*
X12835000Y-7932000D01*
X12835000Y-8902000D02*
X13065000Y-9132000D01*
X13065000Y-8902000D02*
X12835000Y-9132000D01*
X12855000Y-6062000D02*
X13085000Y-6292000D01*
X13085000Y-6062000D02*
X12855000Y-6292000D01*
X12855000Y-7262000D02*
X13085000Y-7492000D01*
X13085000Y-7262000D02*
X12855000Y-7492000D01*
X13014000Y-9943000D02*
X13244000Y-10173000D01*
X13244000Y-9943000D02*
X13014000Y-10173000D01*
X13018000Y-5055000D02*
X13248000Y-5285000D01*
X13248000Y-5055000D02*
X13018000Y-5285000D01*
X14214000Y-9943000D02*
X14444000Y-10173000D01*
X14444000Y-9943000D02*
X14214000Y-10173000D01*
X14218000Y-5055000D02*
X14448000Y-5285000D01*
X14448000Y-5055000D02*
X14218000Y-5285000D01*
X14618000Y-5055000D02*
X14848000Y-5285000D01*
X14848000Y-5055000D02*
X14618000Y-5285000D01*
X14623000Y-9941000D02*
X14853000Y-10171000D01*
X14853000Y-9941000D02*
X14623000Y-10171000D01*
X15818000Y-5055000D02*
X16048000Y-5285000D01*
X16048000Y-5055000D02*
X15818000Y-5285000D01*
X15823000Y-9941000D02*
X16053000Y-10171000D01*
X16053000Y-9941000D02*
X15823000Y-10171000D01*
X16218000Y-5055000D02*
X16448000Y-5285000D01*
X16448000Y-5055000D02*
X16218000Y-5285000D01*
X16226000Y-9943000D02*
X16456000Y-10173000D01*
X16456000Y-9943000D02*
X16226000Y-10173000D01*
X17418000Y-5055000D02*
X17648000Y-5285000D01*
X17648000Y-5055000D02*
X17418000Y-5285000D01*
X17426000Y-9943000D02*
X17656000Y-10173000D01*
X17656000Y-9943000D02*
X17426000Y-10173000D01*
X17818000Y-5055000D02*
X18048000Y-5285000D01*
X18048000Y-5055000D02*
X17818000Y-5285000D01*
X17822000Y-9941000D02*
X18052000Y-10171000D01*
X18052000Y-9941000D02*
X17822000Y-10171000D01*
X19018000Y-5055000D02*
X19248000Y-5285000D01*
X19248000Y-5055000D02*
X19018000Y-5285000D01*
X19022000Y-9941000D02*
X19252000Y-10171000D01*
X19252000Y-9941000D02*
X19022000Y-10171000D01*
X19452000Y-9942000D02*
X19682000Y-10172000D01*
X19682000Y-9942000D02*
X19452000Y-10172000D01*
X19458000Y-5060000D02*
X19688000Y-5290000D01*
X19688000Y-5060000D02*
X19458000Y-5290000D01*
X20652000Y-9942000D02*
X20882000Y-10172000D01*
X20882000Y-9942000D02*
X20652000Y-10172000D01*
X20658000Y-5060000D02*
X20888000Y-5290000D01*
X20888000Y-5060000D02*
X20658000Y-5290000D01*
X21055000Y-6058000D02*
X21285000Y-6288000D01*
X21285000Y-6058000D02*
X21055000Y-6288000D01*
X21055000Y-7258000D02*
X21285000Y-7488000D01*
X21285000Y-7258000D02*
X21055000Y-7488000D01*
X21055000Y-7698000D02*
X21285000Y-7928000D01*
X21285000Y-7698000D02*
X21055000Y-7928000D01*
X21055000Y-8898000D02*
X21285000Y-9128000D01*
X21285000Y-8898000D02*
X21055000Y-9128000D01*
X12640000Y-4615000D02*
G75*
G03*
X12640000Y-4615000I-160000J0D01*
G01*
X12660000Y-10565000D02*
G75*
G03*
X12660000Y-10565000I-160000J0D01*
G01*
X21825000Y-4650000D02*
G75*
G03*
X21825000Y-4650000I-160000J0D01*
G01*
X21835000Y-10575000D02*
G75*
G03*
X21835000Y-10575000I-160000J0D01*
G01*
D12*
X12588928Y-11218214D02*
X12588928Y-10918214D01*
X12660357Y-10918214D01*
X12703214Y-10932500D01*
X12731786Y-10961072D01*
X12746071Y-10989643D01*
X12760357Y-11046786D01*
X12760357Y-11089643D01*
X12746071Y-11146786D01*
X12731786Y-11175357D01*
X12703214Y-11203929D01*
X12660357Y-11218214D01*
X12588928Y-11218214D01*
X12888928Y-11218214D02*
X12888928Y-11018214D01*
X12888928Y-11075357D02*
X12903214Y-11046786D01*
X12917500Y-11032500D01*
X12946071Y-11018214D01*
X12974643Y-11018214D01*
X13074643Y-11218214D02*
X13074643Y-11018214D01*
X13074643Y-10918214D02*
X13060357Y-10932500D01*
X13074643Y-10946786D01*
X13088928Y-10932500D01*
X13074643Y-10918214D01*
X13074643Y-10946786D01*
X13260357Y-11218214D02*
X13231786Y-11203929D01*
X13217500Y-11175357D01*
X13217500Y-10918214D01*
X13417500Y-11218214D02*
X13388928Y-11203929D01*
X13374643Y-11175357D01*
X13374643Y-10918214D01*
X13760357Y-11218214D02*
X13760357Y-10918214D01*
X13860357Y-11132500D01*
X13960357Y-10918214D01*
X13960357Y-11218214D01*
X14231786Y-11218214D02*
X14231786Y-11061072D01*
X14217500Y-11032500D01*
X14188928Y-11018214D01*
X14131786Y-11018214D01*
X14103214Y-11032500D01*
X14231786Y-11203929D02*
X14203214Y-11218214D01*
X14131786Y-11218214D01*
X14103214Y-11203929D01*
X14088928Y-11175357D01*
X14088928Y-11146786D01*
X14103214Y-11118214D01*
X14131786Y-11103929D01*
X14203214Y-11103929D01*
X14231786Y-11089643D01*
X14374643Y-11018214D02*
X14374643Y-11318214D01*
X14374643Y-11032500D02*
X14403214Y-11018214D01*
X14460357Y-11018214D01*
X14488928Y-11032500D01*
X14503214Y-11046786D01*
X14517500Y-11075357D01*
X14517500Y-11161072D01*
X14503214Y-11189643D01*
X14488928Y-11203929D01*
X14460357Y-11218214D01*
X14403214Y-11218214D01*
X14374643Y-11203929D01*
X14646071Y-11189643D02*
X14660357Y-11203929D01*
X14646071Y-11218214D01*
X14631786Y-11203929D01*
X14646071Y-11189643D01*
X14646071Y-11218214D01*
X14646071Y-11032500D02*
X14660357Y-11046786D01*
X14646071Y-11061072D01*
X14631786Y-11046786D01*
X14646071Y-11032500D01*
X14646071Y-11061072D01*
X12072500Y-11597500D02*
X12302500Y-11827500D01*
X12302500Y-11597500D02*
X12072500Y-11827500D01*
X12574643Y-11576786D02*
X12588928Y-11562500D01*
X12617500Y-11548214D01*
X12688928Y-11548214D01*
X12717500Y-11562500D01*
X12731786Y-11576786D01*
X12746071Y-11605357D01*
X12746071Y-11633929D01*
X12731786Y-11676786D01*
X12560357Y-11848214D01*
X12746071Y-11848214D01*
X12874643Y-11819643D02*
X12888928Y-11833929D01*
X12874643Y-11848214D01*
X12860357Y-11833929D01*
X12874643Y-11819643D01*
X12874643Y-11848214D01*
X12988928Y-11548214D02*
X13174643Y-11548214D01*
X13074643Y-11662500D01*
X13117500Y-11662500D01*
X13146071Y-11676786D01*
X13160357Y-11691071D01*
X13174643Y-11719643D01*
X13174643Y-11791071D01*
X13160357Y-11819643D01*
X13146071Y-11833929D01*
X13117500Y-11848214D01*
X13031786Y-11848214D01*
X13003214Y-11833929D01*
X12988928Y-11819643D01*
X13360357Y-11548214D02*
X13388928Y-11548214D01*
X13417500Y-11562500D01*
X13431786Y-11576786D01*
X13446071Y-11605357D01*
X13460357Y-11662500D01*
X13460357Y-11733929D01*
X13446071Y-11791071D01*
X13431786Y-11819643D01*
X13417500Y-11833929D01*
X13388928Y-11848214D01*
X13360357Y-11848214D01*
X13331786Y-11833929D01*
X13317500Y-11819643D01*
X13303214Y-11791071D01*
X13288928Y-11733929D01*
X13288928Y-11662500D01*
X13303214Y-11605357D01*
X13317500Y-11576786D01*
X13331786Y-11562500D01*
X13360357Y-11548214D01*
X13646071Y-11548214D02*
X13674643Y-11548214D01*
X13703214Y-11562500D01*
X13717500Y-11576786D01*
X13731786Y-11605357D01*
X13746071Y-11662500D01*
X13746071Y-11733929D01*
X13731786Y-11791071D01*
X13717500Y-11819643D01*
X13703214Y-11833929D01*
X13674643Y-11848214D01*
X13646071Y-11848214D01*
X13617500Y-11833929D01*
X13603214Y-11819643D01*
X13588928Y-11791071D01*
X13574643Y-11733929D01*
X13574643Y-11662500D01*
X13588928Y-11605357D01*
X13603214Y-11576786D01*
X13617500Y-11562500D01*
X13646071Y-11548214D01*
X13874643Y-11848214D02*
X13874643Y-11648214D01*
X13874643Y-11676786D02*
X13888928Y-11662500D01*
X13917500Y-11648214D01*
X13960357Y-11648214D01*
X13988928Y-11662500D01*
X14003214Y-11691071D01*
X14003214Y-11848214D01*
X14003214Y-11691071D02*
X14017500Y-11662500D01*
X14046071Y-11648214D01*
X14088928Y-11648214D01*
X14117500Y-11662500D01*
X14131786Y-11691071D01*
X14131786Y-11848214D01*
X14274643Y-11848214D02*
X14274643Y-11648214D01*
X14274643Y-11676786D02*
X14288928Y-11662500D01*
X14317500Y-11648214D01*
X14360357Y-11648214D01*
X14388928Y-11662500D01*
X14403214Y-11691071D01*
X14403214Y-11848214D01*
X14403214Y-11691071D02*
X14417500Y-11662500D01*
X14446071Y-11648214D01*
X14488928Y-11648214D01*
X14517500Y-11662500D01*
X14531786Y-11691071D01*
X14531786Y-11848214D01*
X15117500Y-11533929D02*
X14860357Y-11919643D01*
X15503214Y-11548214D02*
X15531786Y-11548214D01*
X15560357Y-11562500D01*
X15574643Y-11576786D01*
X15588928Y-11605357D01*
X15603214Y-11662500D01*
X15603214Y-11733929D01*
X15588928Y-11791071D01*
X15574643Y-11819643D01*
X15560357Y-11833929D01*
X15531786Y-11848214D01*
X15503214Y-11848214D01*
X15474643Y-11833929D01*
X15460357Y-11819643D01*
X15446071Y-11791071D01*
X15431786Y-11733929D01*
X15431786Y-11662500D01*
X15446071Y-11605357D01*
X15460357Y-11576786D01*
X15474643Y-11562500D01*
X15503214Y-11548214D01*
X15731786Y-11819643D02*
X15746071Y-11833929D01*
X15731786Y-11848214D01*
X15717500Y-11833929D01*
X15731786Y-11819643D01*
X15731786Y-11848214D01*
X15931786Y-11548214D02*
X15960357Y-11548214D01*
X15988928Y-11562500D01*
X16003214Y-11576786D01*
X16017500Y-11605357D01*
X16031786Y-11662500D01*
X16031786Y-11733929D01*
X16017500Y-11791071D01*
X16003214Y-11819643D01*
X15988928Y-11833929D01*
X15960357Y-11848214D01*
X15931786Y-11848214D01*
X15903214Y-11833929D01*
X15888928Y-11819643D01*
X15874643Y-11791071D01*
X15860357Y-11733929D01*
X15860357Y-11662500D01*
X15874643Y-11605357D01*
X15888928Y-11576786D01*
X15903214Y-11562500D01*
X15931786Y-11548214D01*
X16174643Y-11848214D02*
X16231786Y-11848214D01*
X16260357Y-11833929D01*
X16274643Y-11819643D01*
X16303214Y-11776786D01*
X16317500Y-11719643D01*
X16317500Y-11605357D01*
X16303214Y-11576786D01*
X16288928Y-11562500D01*
X16260357Y-11548214D01*
X16203214Y-11548214D01*
X16174643Y-11562500D01*
X16160357Y-11576786D01*
X16146071Y-11605357D01*
X16146071Y-11676786D01*
X16160357Y-11705357D01*
X16174643Y-11719643D01*
X16203214Y-11733929D01*
X16260357Y-11733929D01*
X16288928Y-11719643D01*
X16303214Y-11705357D01*
X16317500Y-11676786D01*
X16503214Y-11548214D02*
X16531786Y-11548214D01*
X16560357Y-11562500D01*
X16574643Y-11576786D01*
X16588928Y-11605357D01*
X16603214Y-11662500D01*
X16603214Y-11733929D01*
X16588928Y-11791071D01*
X16574643Y-11819643D01*
X16560357Y-11833929D01*
X16531786Y-11848214D01*
X16503214Y-11848214D01*
X16474643Y-11833929D01*
X16460357Y-11819643D01*
X16446071Y-11791071D01*
X16431786Y-11733929D01*
X16431786Y-11662500D01*
X16446071Y-11605357D01*
X16460357Y-11576786D01*
X16474643Y-11562500D01*
X16503214Y-11548214D01*
X16860357Y-11548214D02*
X16803214Y-11548214D01*
X16774643Y-11562500D01*
X16760357Y-11576786D01*
X16731786Y-11619643D01*
X16717500Y-11676786D01*
X16717500Y-11791071D01*
X16731786Y-11819643D01*
X16746071Y-11833929D01*
X16774643Y-11848214D01*
X16831786Y-11848214D01*
X16860357Y-11833929D01*
X16874643Y-11819643D01*
X16888928Y-11791071D01*
X16888928Y-11719643D01*
X16874643Y-11691071D01*
X16860357Y-11676786D01*
X16831786Y-11662500D01*
X16774643Y-11662500D01*
X16746071Y-11676786D01*
X16731786Y-11691071D01*
X16717500Y-11719643D01*
X17003214Y-11548214D02*
X17003214Y-11605357D01*
X17117500Y-11548214D02*
X17117500Y-11605357D01*
X17560357Y-11962500D02*
X17546071Y-11948214D01*
X17517500Y-11905357D01*
X17503214Y-11876786D01*
X17488928Y-11833929D01*
X17474643Y-11762500D01*
X17474643Y-11705357D01*
X17488928Y-11633929D01*
X17503214Y-11591071D01*
X17517500Y-11562500D01*
X17546071Y-11519643D01*
X17560357Y-11505357D01*
X17660357Y-11576786D02*
X17674643Y-11562500D01*
X17703214Y-11548214D01*
X17774643Y-11548214D01*
X17803214Y-11562500D01*
X17817500Y-11576786D01*
X17831786Y-11605357D01*
X17831786Y-11633929D01*
X17817500Y-11676786D01*
X17646071Y-11848214D01*
X17831786Y-11848214D01*
X18003214Y-11676786D02*
X17974643Y-11662500D01*
X17960357Y-11648214D01*
X17946071Y-11619643D01*
X17946071Y-11605357D01*
X17960357Y-11576786D01*
X17974643Y-11562500D01*
X18003214Y-11548214D01*
X18060357Y-11548214D01*
X18088928Y-11562500D01*
X18103214Y-11576786D01*
X18117500Y-11605357D01*
X18117500Y-11619643D01*
X18103214Y-11648214D01*
X18088928Y-11662500D01*
X18060357Y-11676786D01*
X18003214Y-11676786D01*
X17974643Y-11691071D01*
X17960357Y-11705357D01*
X17946071Y-11733929D01*
X17946071Y-11791071D01*
X17960357Y-11819643D01*
X17974643Y-11833929D01*
X18003214Y-11848214D01*
X18060357Y-11848214D01*
X18088928Y-11833929D01*
X18103214Y-11819643D01*
X18117500Y-11791071D01*
X18117500Y-11733929D01*
X18103214Y-11705357D01*
X18088928Y-11691071D01*
X18060357Y-11676786D01*
X18474643Y-11848214D02*
X18474643Y-11548214D01*
X18603214Y-11848214D02*
X18603214Y-11691071D01*
X18588928Y-11662500D01*
X18560357Y-11648214D01*
X18517500Y-11648214D01*
X18488928Y-11662500D01*
X18474643Y-11676786D01*
X18788928Y-11848214D02*
X18760357Y-11833929D01*
X18746071Y-11819643D01*
X18731786Y-11791071D01*
X18731786Y-11705357D01*
X18746071Y-11676786D01*
X18760357Y-11662500D01*
X18788928Y-11648214D01*
X18831786Y-11648214D01*
X18860357Y-11662500D01*
X18874643Y-11676786D01*
X18888928Y-11705357D01*
X18888928Y-11791071D01*
X18874643Y-11819643D01*
X18860357Y-11833929D01*
X18831786Y-11848214D01*
X18788928Y-11848214D01*
X19060357Y-11848214D02*
X19031786Y-11833929D01*
X19017500Y-11805357D01*
X19017500Y-11548214D01*
X19288928Y-11833929D02*
X19260357Y-11848214D01*
X19203214Y-11848214D01*
X19174643Y-11833929D01*
X19160357Y-11805357D01*
X19160357Y-11691071D01*
X19174643Y-11662500D01*
X19203214Y-11648214D01*
X19260357Y-11648214D01*
X19288928Y-11662500D01*
X19303214Y-11691071D01*
X19303214Y-11719643D01*
X19160357Y-11748214D01*
X19417500Y-11833929D02*
X19446071Y-11848214D01*
X19503214Y-11848214D01*
X19531786Y-11833929D01*
X19546071Y-11805357D01*
X19546071Y-11791071D01*
X19531786Y-11762500D01*
X19503214Y-11748214D01*
X19460357Y-11748214D01*
X19431786Y-11733929D01*
X19417500Y-11705357D01*
X19417500Y-11691071D01*
X19431786Y-11662500D01*
X19460357Y-11648214D01*
X19503214Y-11648214D01*
X19531786Y-11662500D01*
X19646071Y-11962500D02*
X19660357Y-11948214D01*
X19688928Y-11905357D01*
X19703214Y-11876786D01*
X19717500Y-11833929D01*
X19731786Y-11762500D01*
X19731786Y-11705357D01*
X19717500Y-11633929D01*
X19703214Y-11591071D01*
X19688928Y-11562500D01*
X19660357Y-11519643D01*
X19646071Y-11505357D01*
X20188928Y-11962500D02*
X20174643Y-11948214D01*
X20146071Y-11905357D01*
X20131786Y-11876786D01*
X20117500Y-11833929D01*
X20103214Y-11762500D01*
X20103214Y-11705357D01*
X20117500Y-11633929D01*
X20131786Y-11591071D01*
X20146071Y-11562500D01*
X20174643Y-11519643D01*
X20188928Y-11505357D01*
X20303214Y-11648214D02*
X20303214Y-11848214D01*
X20303214Y-11676786D02*
X20317500Y-11662500D01*
X20346071Y-11648214D01*
X20388928Y-11648214D01*
X20417500Y-11662500D01*
X20431786Y-11691071D01*
X20431786Y-11848214D01*
X20617500Y-11848214D02*
X20588928Y-11833929D01*
X20574643Y-11819643D01*
X20560357Y-11791071D01*
X20560357Y-11705357D01*
X20574643Y-11676786D01*
X20588928Y-11662500D01*
X20617500Y-11648214D01*
X20660357Y-11648214D01*
X20688928Y-11662500D01*
X20703214Y-11676786D01*
X20717500Y-11705357D01*
X20717500Y-11791071D01*
X20703214Y-11819643D01*
X20688928Y-11833929D01*
X20660357Y-11848214D01*
X20617500Y-11848214D01*
X20803214Y-11648214D02*
X20917500Y-11648214D01*
X20846071Y-11548214D02*
X20846071Y-11805357D01*
X20860357Y-11833929D01*
X20888928Y-11848214D01*
X20917500Y-11848214D01*
X21246071Y-11648214D02*
X21246071Y-11948214D01*
X21246071Y-11662500D02*
X21274643Y-11648214D01*
X21331786Y-11648214D01*
X21360357Y-11662500D01*
X21374643Y-11676786D01*
X21388928Y-11705357D01*
X21388928Y-11791071D01*
X21374643Y-11819643D01*
X21360357Y-11833929D01*
X21331786Y-11848214D01*
X21274643Y-11848214D01*
X21246071Y-11833929D01*
X21560357Y-11848214D02*
X21531786Y-11833929D01*
X21517500Y-11805357D01*
X21517500Y-11548214D01*
X21803214Y-11848214D02*
X21803214Y-11691071D01*
X21788928Y-11662500D01*
X21760357Y-11648214D01*
X21703214Y-11648214D01*
X21674643Y-11662500D01*
X21803214Y-11833929D02*
X21774643Y-11848214D01*
X21703214Y-11848214D01*
X21674643Y-11833929D01*
X21660357Y-11805357D01*
X21660357Y-11776786D01*
X21674643Y-11748214D01*
X21703214Y-11733929D01*
X21774643Y-11733929D01*
X21803214Y-11719643D01*
X21903214Y-11648214D02*
X22017500Y-11648214D01*
X21946071Y-11548214D02*
X21946071Y-11805357D01*
X21960357Y-11833929D01*
X21988928Y-11848214D01*
X22017500Y-11848214D01*
X22231786Y-11833929D02*
X22203214Y-11848214D01*
X22146071Y-11848214D01*
X22117500Y-11833929D01*
X22103214Y-11805357D01*
X22103214Y-11691071D01*
X22117500Y-11662500D01*
X22146071Y-11648214D01*
X22203214Y-11648214D01*
X22231786Y-11662500D01*
X22246071Y-11691071D01*
X22246071Y-11719643D01*
X22103214Y-11748214D01*
X22503214Y-11848214D02*
X22503214Y-11548214D01*
X22503214Y-11833929D02*
X22474643Y-11848214D01*
X22417500Y-11848214D01*
X22388928Y-11833929D01*
X22374643Y-11819643D01*
X22360357Y-11791071D01*
X22360357Y-11705357D01*
X22374643Y-11676786D01*
X22388928Y-11662500D01*
X22417500Y-11648214D01*
X22474643Y-11648214D01*
X22503214Y-11662500D01*
X22617500Y-11962500D02*
X22631786Y-11948214D01*
X22660357Y-11905357D01*
X22674643Y-11876786D01*
X22688928Y-11833929D01*
X22703214Y-11762500D01*
X22703214Y-11705357D01*
X22688928Y-11633929D01*
X22674643Y-11591071D01*
X22660357Y-11562500D01*
X22631786Y-11519643D01*
X22617500Y-11505357D01*
X12302500Y-12108500D02*
G75*
G03*
X12302500Y-12108500I-160000J0D01*
G01*
X12560357Y-11944214D02*
X12746071Y-11944214D01*
X12646071Y-12058500D01*
X12688928Y-12058500D01*
X12717500Y-12072786D01*
X12731786Y-12087071D01*
X12746071Y-12115643D01*
X12746071Y-12187071D01*
X12731786Y-12215643D01*
X12717500Y-12229929D01*
X12688928Y-12244214D01*
X12603214Y-12244214D01*
X12574643Y-12229929D01*
X12560357Y-12215643D01*
X12874643Y-12215643D02*
X12888928Y-12229929D01*
X12874643Y-12244214D01*
X12860357Y-12229929D01*
X12874643Y-12215643D01*
X12874643Y-12244214D01*
X13003214Y-11972786D02*
X13017500Y-11958500D01*
X13046071Y-11944214D01*
X13117500Y-11944214D01*
X13146071Y-11958500D01*
X13160357Y-11972786D01*
X13174643Y-12001357D01*
X13174643Y-12029929D01*
X13160357Y-12072786D01*
X12988928Y-12244214D01*
X13174643Y-12244214D01*
X13360357Y-11944214D02*
X13388928Y-11944214D01*
X13417500Y-11958500D01*
X13431786Y-11972786D01*
X13446071Y-12001357D01*
X13460357Y-12058500D01*
X13460357Y-12129929D01*
X13446071Y-12187071D01*
X13431786Y-12215643D01*
X13417500Y-12229929D01*
X13388928Y-12244214D01*
X13360357Y-12244214D01*
X13331786Y-12229929D01*
X13317500Y-12215643D01*
X13303214Y-12187071D01*
X13288928Y-12129929D01*
X13288928Y-12058500D01*
X13303214Y-12001357D01*
X13317500Y-11972786D01*
X13331786Y-11958500D01*
X13360357Y-11944214D01*
X13646071Y-11944214D02*
X13674643Y-11944214D01*
X13703214Y-11958500D01*
X13717500Y-11972786D01*
X13731786Y-12001357D01*
X13746071Y-12058500D01*
X13746071Y-12129929D01*
X13731786Y-12187071D01*
X13717500Y-12215643D01*
X13703214Y-12229929D01*
X13674643Y-12244214D01*
X13646071Y-12244214D01*
X13617500Y-12229929D01*
X13603214Y-12215643D01*
X13588928Y-12187071D01*
X13574643Y-12129929D01*
X13574643Y-12058500D01*
X13588928Y-12001357D01*
X13603214Y-11972786D01*
X13617500Y-11958500D01*
X13646071Y-11944214D01*
X13874643Y-12244214D02*
X13874643Y-12044214D01*
X13874643Y-12072786D02*
X13888928Y-12058500D01*
X13917500Y-12044214D01*
X13960357Y-12044214D01*
X13988928Y-12058500D01*
X14003214Y-12087071D01*
X14003214Y-12244214D01*
X14003214Y-12087071D02*
X14017500Y-12058500D01*
X14046071Y-12044214D01*
X14088928Y-12044214D01*
X14117500Y-12058500D01*
X14131786Y-12087071D01*
X14131786Y-12244214D01*
X14274643Y-12244214D02*
X14274643Y-12044214D01*
X14274643Y-12072786D02*
X14288928Y-12058500D01*
X14317500Y-12044214D01*
X14360357Y-12044214D01*
X14388928Y-12058500D01*
X14403214Y-12087071D01*
X14403214Y-12244214D01*
X14403214Y-12087071D02*
X14417500Y-12058500D01*
X14446071Y-12044214D01*
X14488928Y-12044214D01*
X14517500Y-12058500D01*
X14531786Y-12087071D01*
X14531786Y-12244214D01*
X15117500Y-11929929D02*
X14860357Y-12315643D01*
X15503214Y-11944214D02*
X15531786Y-11944214D01*
X15560357Y-11958500D01*
X15574643Y-11972786D01*
X15588928Y-12001357D01*
X15603214Y-12058500D01*
X15603214Y-12129929D01*
X15588928Y-12187071D01*
X15574643Y-12215643D01*
X15560357Y-12229929D01*
X15531786Y-12244214D01*
X15503214Y-12244214D01*
X15474643Y-12229929D01*
X15460357Y-12215643D01*
X15446071Y-12187071D01*
X15431786Y-12129929D01*
X15431786Y-12058500D01*
X15446071Y-12001357D01*
X15460357Y-11972786D01*
X15474643Y-11958500D01*
X15503214Y-11944214D01*
X15731786Y-12215643D02*
X15746071Y-12229929D01*
X15731786Y-12244214D01*
X15717500Y-12229929D01*
X15731786Y-12215643D01*
X15731786Y-12244214D01*
X16031786Y-12244214D02*
X15860357Y-12244214D01*
X15946071Y-12244214D02*
X15946071Y-11944214D01*
X15917500Y-11987071D01*
X15888928Y-12015643D01*
X15860357Y-12029929D01*
X16146071Y-11972786D02*
X16160357Y-11958500D01*
X16188928Y-11944214D01*
X16260357Y-11944214D01*
X16288928Y-11958500D01*
X16303214Y-11972786D01*
X16317500Y-12001357D01*
X16317500Y-12029929D01*
X16303214Y-12072786D01*
X16131786Y-12244214D01*
X16317500Y-12244214D01*
X16574643Y-11944214D02*
X16517500Y-11944214D01*
X16488928Y-11958500D01*
X16474643Y-11972786D01*
X16446071Y-12015643D01*
X16431786Y-12072786D01*
X16431786Y-12187071D01*
X16446071Y-12215643D01*
X16460357Y-12229929D01*
X16488928Y-12244214D01*
X16546071Y-12244214D01*
X16574643Y-12229929D01*
X16588928Y-12215643D01*
X16603214Y-12187071D01*
X16603214Y-12115643D01*
X16588928Y-12087071D01*
X16574643Y-12072786D01*
X16546071Y-12058500D01*
X16488928Y-12058500D01*
X16460357Y-12072786D01*
X16446071Y-12087071D01*
X16431786Y-12115643D01*
X16788928Y-11944214D02*
X16817500Y-11944214D01*
X16846071Y-11958500D01*
X16860357Y-11972786D01*
X16874643Y-12001357D01*
X16888928Y-12058500D01*
X16888928Y-12129929D01*
X16874643Y-12187071D01*
X16860357Y-12215643D01*
X16846071Y-12229929D01*
X16817500Y-12244214D01*
X16788928Y-12244214D01*
X16760357Y-12229929D01*
X16746071Y-12215643D01*
X16731786Y-12187071D01*
X16717500Y-12129929D01*
X16717500Y-12058500D01*
X16731786Y-12001357D01*
X16746071Y-11972786D01*
X16760357Y-11958500D01*
X16788928Y-11944214D01*
X17003214Y-11944214D02*
X17003214Y-12001357D01*
X17117500Y-11944214D02*
X17117500Y-12001357D01*
X17560357Y-12358500D02*
X17546071Y-12344214D01*
X17517500Y-12301357D01*
X17503214Y-12272786D01*
X17488928Y-12229929D01*
X17474643Y-12158500D01*
X17474643Y-12101357D01*
X17488928Y-12029929D01*
X17503214Y-11987071D01*
X17517500Y-11958500D01*
X17546071Y-11915643D01*
X17560357Y-11901357D01*
X17803214Y-12044214D02*
X17803214Y-12244214D01*
X17731786Y-11929929D02*
X17660357Y-12144214D01*
X17846071Y-12144214D01*
X18188928Y-12244214D02*
X18188928Y-11944214D01*
X18317500Y-12244214D02*
X18317500Y-12087071D01*
X18303214Y-12058500D01*
X18274643Y-12044214D01*
X18231786Y-12044214D01*
X18203214Y-12058500D01*
X18188928Y-12072786D01*
X18503214Y-12244214D02*
X18474643Y-12229929D01*
X18460357Y-12215643D01*
X18446071Y-12187071D01*
X18446071Y-12101357D01*
X18460357Y-12072786D01*
X18474643Y-12058500D01*
X18503214Y-12044214D01*
X18546071Y-12044214D01*
X18574643Y-12058500D01*
X18588928Y-12072786D01*
X18603214Y-12101357D01*
X18603214Y-12187071D01*
X18588928Y-12215643D01*
X18574643Y-12229929D01*
X18546071Y-12244214D01*
X18503214Y-12244214D01*
X18774643Y-12244214D02*
X18746071Y-12229929D01*
X18731786Y-12201357D01*
X18731786Y-11944214D01*
X19003214Y-12229929D02*
X18974643Y-12244214D01*
X18917500Y-12244214D01*
X18888928Y-12229929D01*
X18874643Y-12201357D01*
X18874643Y-12087071D01*
X18888928Y-12058500D01*
X18917500Y-12044214D01*
X18974643Y-12044214D01*
X19003214Y-12058500D01*
X19017500Y-12087071D01*
X19017500Y-12115643D01*
X18874643Y-12144214D01*
X19131786Y-12229929D02*
X19160357Y-12244214D01*
X19217500Y-12244214D01*
X19246071Y-12229929D01*
X19260357Y-12201357D01*
X19260357Y-12187071D01*
X19246071Y-12158500D01*
X19217500Y-12144214D01*
X19174643Y-12144214D01*
X19146071Y-12129929D01*
X19131786Y-12101357D01*
X19131786Y-12087071D01*
X19146071Y-12058500D01*
X19174643Y-12044214D01*
X19217500Y-12044214D01*
X19246071Y-12058500D01*
X19360357Y-12358500D02*
X19374643Y-12344214D01*
X19403214Y-12301357D01*
X19417500Y-12272786D01*
X19431786Y-12229929D01*
X19446071Y-12158500D01*
X19446071Y-12101357D01*
X19431786Y-12029929D01*
X19417500Y-11987071D01*
X19403214Y-11958500D01*
X19374643Y-11915643D01*
X19360357Y-11901357D01*
X19903214Y-12358500D02*
X19888928Y-12344214D01*
X19860357Y-12301357D01*
X19846071Y-12272786D01*
X19831786Y-12229929D01*
X19817500Y-12158500D01*
X19817500Y-12101357D01*
X19831786Y-12029929D01*
X19846071Y-11987071D01*
X19860357Y-11958500D01*
X19888928Y-11915643D01*
X19903214Y-11901357D01*
X20017500Y-12044214D02*
X20017500Y-12244214D01*
X20017500Y-12072786D02*
X20031786Y-12058500D01*
X20060357Y-12044214D01*
X20103214Y-12044214D01*
X20131786Y-12058500D01*
X20146071Y-12087071D01*
X20146071Y-12244214D01*
X20331786Y-12244214D02*
X20303214Y-12229929D01*
X20288928Y-12215643D01*
X20274643Y-12187071D01*
X20274643Y-12101357D01*
X20288928Y-12072786D01*
X20303214Y-12058500D01*
X20331786Y-12044214D01*
X20374643Y-12044214D01*
X20403214Y-12058500D01*
X20417500Y-12072786D01*
X20431786Y-12101357D01*
X20431786Y-12187071D01*
X20417500Y-12215643D01*
X20403214Y-12229929D01*
X20374643Y-12244214D01*
X20331786Y-12244214D01*
X20517500Y-12044214D02*
X20631786Y-12044214D01*
X20560357Y-11944214D02*
X20560357Y-12201357D01*
X20574643Y-12229929D01*
X20603214Y-12244214D01*
X20631786Y-12244214D01*
X20960357Y-12044214D02*
X20960357Y-12344214D01*
X20960357Y-12058500D02*
X20988928Y-12044214D01*
X21046071Y-12044214D01*
X21074643Y-12058500D01*
X21088928Y-12072786D01*
X21103214Y-12101357D01*
X21103214Y-12187071D01*
X21088928Y-12215643D01*
X21074643Y-12229929D01*
X21046071Y-12244214D01*
X20988928Y-12244214D01*
X20960357Y-12229929D01*
X21274643Y-12244214D02*
X21246071Y-12229929D01*
X21231786Y-12201357D01*
X21231786Y-11944214D01*
X21517500Y-12244214D02*
X21517500Y-12087071D01*
X21503214Y-12058500D01*
X21474643Y-12044214D01*
X21417500Y-12044214D01*
X21388928Y-12058500D01*
X21517500Y-12229929D02*
X21488928Y-12244214D01*
X21417500Y-12244214D01*
X21388928Y-12229929D01*
X21374643Y-12201357D01*
X21374643Y-12172786D01*
X21388928Y-12144214D01*
X21417500Y-12129929D01*
X21488928Y-12129929D01*
X21517500Y-12115643D01*
X21617500Y-12044214D02*
X21731786Y-12044214D01*
X21660357Y-11944214D02*
X21660357Y-12201357D01*
X21674643Y-12229929D01*
X21703214Y-12244214D01*
X21731786Y-12244214D01*
X21946071Y-12229929D02*
X21917500Y-12244214D01*
X21860357Y-12244214D01*
X21831786Y-12229929D01*
X21817500Y-12201357D01*
X21817500Y-12087071D01*
X21831786Y-12058500D01*
X21860357Y-12044214D01*
X21917500Y-12044214D01*
X21946071Y-12058500D01*
X21960357Y-12087071D01*
X21960357Y-12115643D01*
X21817500Y-12144214D01*
X22217500Y-12244214D02*
X22217500Y-11944214D01*
X22217500Y-12229929D02*
X22188928Y-12244214D01*
X22131786Y-12244214D01*
X22103214Y-12229929D01*
X22088928Y-12215643D01*
X22074643Y-12187071D01*
X22074643Y-12101357D01*
X22088928Y-12072786D01*
X22103214Y-12058500D01*
X22131786Y-12044214D01*
X22188928Y-12044214D01*
X22217500Y-12058500D01*
X22331786Y-12358500D02*
X22346071Y-12344214D01*
X22374643Y-12301357D01*
X22388928Y-12272786D01*
X22403214Y-12229929D01*
X22417500Y-12158500D01*
X22417500Y-12101357D01*
X22403214Y-12029929D01*
X22388928Y-11987071D01*
X22374643Y-11958500D01*
X22346071Y-11915643D01*
X22331786Y-11901357D01*
M02*
