G04 #@! TF.GenerationSoftware,KiCad,Pcbnew,5.1.10-88a1d61d58~90~ubuntu20.04.1*
G04 #@! TF.CreationDate,2021-11-04T14:27:27-04:00*
G04 #@! TF.ProjectId,OMC_CONNECTION_BOARD,4f4d435f-434f-44e4-9e45-4354494f4e5f,rev?*
G04 #@! TF.SameCoordinates,Original*
G04 #@! TF.FileFunction,Copper,L2,Bot*
G04 #@! TF.FilePolarity,Positive*
%FSLAX46Y46*%
G04 Gerber Fmt 4.6, Leading zero omitted, Abs format (unit mm)*
G04 Created by KiCad (PCBNEW 5.1.10-88a1d61d58~90~ubuntu20.04.1) date 2021-11-04 14:27:27*
%MOMM*%
%LPD*%
G01*
G04 APERTURE LIST*
G04 #@! TA.AperFunction,ComponentPad*
%ADD10C,1.500000*%
G04 #@! TD*
G04 #@! TA.AperFunction,ComponentPad*
%ADD11R,1.500000X1.500000*%
G04 #@! TD*
G04 #@! TA.AperFunction,Conductor*
%ADD12C,0.254000*%
G04 #@! TD*
G04 #@! TA.AperFunction,Conductor*
%ADD13C,0.100000*%
G04 #@! TD*
G04 APERTURE END LIST*
D10*
X154860000Y-56540000D03*
X153840000Y-54000000D03*
X152820000Y-56540000D03*
D11*
X151800000Y-54000000D03*
D10*
X206860000Y-85660000D03*
X209400000Y-84640000D03*
X206860000Y-83620000D03*
D11*
X209400000Y-82600000D03*
X138820000Y-98280000D03*
D10*
X137800000Y-95740000D03*
X136780000Y-98280000D03*
X135760000Y-95740000D03*
D11*
X200200000Y-54050000D03*
D10*
X201220000Y-56590000D03*
X202240000Y-54050000D03*
X203260000Y-56590000D03*
X186860000Y-56540000D03*
X185840000Y-54000000D03*
X184820000Y-56540000D03*
D11*
X183800000Y-54000000D03*
X167800000Y-54000000D03*
D10*
X168820000Y-56540000D03*
X169840000Y-54000000D03*
X170860000Y-56540000D03*
D11*
X135800000Y-54000000D03*
D10*
X136820000Y-56540000D03*
X137840000Y-54000000D03*
X138860000Y-56540000D03*
X134540000Y-66240000D03*
X132000000Y-67260000D03*
X134540000Y-68280000D03*
D11*
X132000000Y-69300000D03*
D10*
X134340000Y-82640000D03*
X131800000Y-83660000D03*
X134340000Y-84680000D03*
D11*
X131800000Y-85700000D03*
D10*
X151850000Y-95720000D03*
X152870000Y-98260000D03*
X153890000Y-95720000D03*
D11*
X154910000Y-98260000D03*
X170940000Y-98280000D03*
D10*
X169920000Y-95740000D03*
X168900000Y-98280000D03*
X167880000Y-95740000D03*
X183840000Y-95720000D03*
X184860000Y-98260000D03*
X185880000Y-95720000D03*
D11*
X186900000Y-98260000D03*
X203200000Y-98270000D03*
D10*
X202180000Y-95730000D03*
X201160000Y-98270000D03*
X200140000Y-95730000D03*
D11*
X209400000Y-66200000D03*
D10*
X206860000Y-67220000D03*
X209400000Y-68240000D03*
X206860000Y-69260000D03*
D12*
X214669369Y-45441331D02*
X214500890Y-45848075D01*
X214415000Y-46279872D01*
X214415000Y-46720128D01*
X214500890Y-47151925D01*
X214669369Y-47558669D01*
X214913962Y-47924729D01*
X215225271Y-48236038D01*
X215591331Y-48480631D01*
X215998075Y-48649110D01*
X216429872Y-48735000D01*
X216870128Y-48735000D01*
X217301925Y-48649110D01*
X217708669Y-48480631D01*
X217840000Y-48392879D01*
X217840001Y-103790304D01*
X217808669Y-103769369D01*
X217401925Y-103600890D01*
X216970128Y-103515000D01*
X216529872Y-103515000D01*
X216098075Y-103600890D01*
X215691331Y-103769369D01*
X215325271Y-104013962D01*
X215013962Y-104325271D01*
X214769369Y-104691331D01*
X214600890Y-105098075D01*
X214515000Y-105529872D01*
X214515000Y-105970128D01*
X214600890Y-106401925D01*
X214769369Y-106808669D01*
X214790304Y-106840000D01*
X126892879Y-106840000D01*
X126980631Y-106708669D01*
X127149110Y-106301925D01*
X127235000Y-105870128D01*
X127235000Y-105429872D01*
X127149110Y-104998075D01*
X126980631Y-104591331D01*
X126736038Y-104225271D01*
X126424729Y-103913962D01*
X126058669Y-103669369D01*
X125651925Y-103500890D01*
X125220128Y-103415000D01*
X124779872Y-103415000D01*
X124348075Y-103500890D01*
X123941331Y-103669369D01*
X123710000Y-103823939D01*
X123710000Y-100404193D01*
X129505000Y-100404193D01*
X129505000Y-100755807D01*
X129573596Y-101100665D01*
X129708153Y-101425515D01*
X129903500Y-101717871D01*
X130152129Y-101966500D01*
X130444485Y-102161847D01*
X130769335Y-102296404D01*
X131114193Y-102365000D01*
X131465807Y-102365000D01*
X131810665Y-102296404D01*
X132135515Y-102161847D01*
X132427871Y-101966500D01*
X132676500Y-101717871D01*
X132871847Y-101425515D01*
X133006404Y-101100665D01*
X133075000Y-100755807D01*
X133075000Y-100404193D01*
X141505000Y-100404193D01*
X141505000Y-100755807D01*
X141573596Y-101100665D01*
X141708153Y-101425515D01*
X141903500Y-101717871D01*
X142152129Y-101966500D01*
X142444485Y-102161847D01*
X142769335Y-102296404D01*
X143114193Y-102365000D01*
X143465807Y-102365000D01*
X143810665Y-102296404D01*
X144135515Y-102161847D01*
X144427871Y-101966500D01*
X144676500Y-101717871D01*
X144871847Y-101425515D01*
X145006404Y-101100665D01*
X145075000Y-100755807D01*
X145075000Y-100404193D01*
X145071022Y-100384193D01*
X145595000Y-100384193D01*
X145595000Y-100735807D01*
X145663596Y-101080665D01*
X145798153Y-101405515D01*
X145993500Y-101697871D01*
X146242129Y-101946500D01*
X146534485Y-102141847D01*
X146859335Y-102276404D01*
X147204193Y-102345000D01*
X147555807Y-102345000D01*
X147900665Y-102276404D01*
X148225515Y-102141847D01*
X148517871Y-101946500D01*
X148766500Y-101697871D01*
X148961847Y-101405515D01*
X149096404Y-101080665D01*
X149165000Y-100735807D01*
X149165000Y-100384193D01*
X157595000Y-100384193D01*
X157595000Y-100735807D01*
X157663596Y-101080665D01*
X157798153Y-101405515D01*
X157993500Y-101697871D01*
X158242129Y-101946500D01*
X158534485Y-102141847D01*
X158859335Y-102276404D01*
X159204193Y-102345000D01*
X159555807Y-102345000D01*
X159900665Y-102276404D01*
X160225515Y-102141847D01*
X160517871Y-101946500D01*
X160766500Y-101697871D01*
X160961847Y-101405515D01*
X161096404Y-101080665D01*
X161165000Y-100735807D01*
X161165000Y-100404193D01*
X161625000Y-100404193D01*
X161625000Y-100755807D01*
X161693596Y-101100665D01*
X161828153Y-101425515D01*
X162023500Y-101717871D01*
X162272129Y-101966500D01*
X162564485Y-102161847D01*
X162889335Y-102296404D01*
X163234193Y-102365000D01*
X163585807Y-102365000D01*
X163930665Y-102296404D01*
X164255515Y-102161847D01*
X164547871Y-101966500D01*
X164796500Y-101717871D01*
X164991847Y-101425515D01*
X165126404Y-101100665D01*
X165195000Y-100755807D01*
X165195000Y-100404193D01*
X173625000Y-100404193D01*
X173625000Y-100755807D01*
X173693596Y-101100665D01*
X173828153Y-101425515D01*
X174023500Y-101717871D01*
X174272129Y-101966500D01*
X174564485Y-102161847D01*
X174889335Y-102296404D01*
X175234193Y-102365000D01*
X175585807Y-102365000D01*
X175930665Y-102296404D01*
X176255515Y-102161847D01*
X176547871Y-101966500D01*
X176796500Y-101717871D01*
X176991847Y-101425515D01*
X177126404Y-101100665D01*
X177195000Y-100755807D01*
X177195000Y-100404193D01*
X177191022Y-100384193D01*
X177585000Y-100384193D01*
X177585000Y-100735807D01*
X177653596Y-101080665D01*
X177788153Y-101405515D01*
X177983500Y-101697871D01*
X178232129Y-101946500D01*
X178524485Y-102141847D01*
X178849335Y-102276404D01*
X179194193Y-102345000D01*
X179545807Y-102345000D01*
X179890665Y-102276404D01*
X180215515Y-102141847D01*
X180507871Y-101946500D01*
X180756500Y-101697871D01*
X180951847Y-101405515D01*
X181086404Y-101080665D01*
X181155000Y-100735807D01*
X181155000Y-100384193D01*
X189585000Y-100384193D01*
X189585000Y-100735807D01*
X189653596Y-101080665D01*
X189788153Y-101405515D01*
X189983500Y-101697871D01*
X190232129Y-101946500D01*
X190524485Y-102141847D01*
X190849335Y-102276404D01*
X191194193Y-102345000D01*
X191545807Y-102345000D01*
X191890665Y-102276404D01*
X192215515Y-102141847D01*
X192507871Y-101946500D01*
X192756500Y-101697871D01*
X192951847Y-101405515D01*
X193086404Y-101080665D01*
X193155000Y-100735807D01*
X193155000Y-100394193D01*
X193885000Y-100394193D01*
X193885000Y-100745807D01*
X193953596Y-101090665D01*
X194088153Y-101415515D01*
X194283500Y-101707871D01*
X194532129Y-101956500D01*
X194824485Y-102151847D01*
X195149335Y-102286404D01*
X195494193Y-102355000D01*
X195845807Y-102355000D01*
X196190665Y-102286404D01*
X196515515Y-102151847D01*
X196807871Y-101956500D01*
X197056500Y-101707871D01*
X197251847Y-101415515D01*
X197386404Y-101090665D01*
X197455000Y-100745807D01*
X197455000Y-100394193D01*
X205885000Y-100394193D01*
X205885000Y-100745807D01*
X205953596Y-101090665D01*
X206088153Y-101415515D01*
X206283500Y-101707871D01*
X206532129Y-101956500D01*
X206824485Y-102151847D01*
X207149335Y-102286404D01*
X207494193Y-102355000D01*
X207845807Y-102355000D01*
X208190665Y-102286404D01*
X208515515Y-102151847D01*
X208807871Y-101956500D01*
X209056500Y-101707871D01*
X209251847Y-101415515D01*
X209386404Y-101090665D01*
X209455000Y-100745807D01*
X209455000Y-100394193D01*
X209386404Y-100049335D01*
X209251847Y-99724485D01*
X209056500Y-99432129D01*
X208807871Y-99183500D01*
X208515515Y-98988153D01*
X208190665Y-98853596D01*
X207845807Y-98785000D01*
X207494193Y-98785000D01*
X207149335Y-98853596D01*
X206824485Y-98988153D01*
X206532129Y-99183500D01*
X206283500Y-99432129D01*
X206088153Y-99724485D01*
X205953596Y-100049335D01*
X205885000Y-100394193D01*
X197455000Y-100394193D01*
X197386404Y-100049335D01*
X197251847Y-99724485D01*
X197056500Y-99432129D01*
X196807871Y-99183500D01*
X196515515Y-98988153D01*
X196190665Y-98853596D01*
X195845807Y-98785000D01*
X195494193Y-98785000D01*
X195149335Y-98853596D01*
X194824485Y-98988153D01*
X194532129Y-99183500D01*
X194283500Y-99432129D01*
X194088153Y-99724485D01*
X193953596Y-100049335D01*
X193885000Y-100394193D01*
X193155000Y-100394193D01*
X193155000Y-100384193D01*
X193086404Y-100039335D01*
X192951847Y-99714485D01*
X192756500Y-99422129D01*
X192507871Y-99173500D01*
X192215515Y-98978153D01*
X191890665Y-98843596D01*
X191545807Y-98775000D01*
X191194193Y-98775000D01*
X190849335Y-98843596D01*
X190524485Y-98978153D01*
X190232129Y-99173500D01*
X189983500Y-99422129D01*
X189788153Y-99714485D01*
X189653596Y-100039335D01*
X189585000Y-100384193D01*
X181155000Y-100384193D01*
X181086404Y-100039335D01*
X180951847Y-99714485D01*
X180756500Y-99422129D01*
X180507871Y-99173500D01*
X180215515Y-98978153D01*
X179890665Y-98843596D01*
X179545807Y-98775000D01*
X179194193Y-98775000D01*
X178849335Y-98843596D01*
X178524485Y-98978153D01*
X178232129Y-99173500D01*
X177983500Y-99422129D01*
X177788153Y-99714485D01*
X177653596Y-100039335D01*
X177585000Y-100384193D01*
X177191022Y-100384193D01*
X177126404Y-100059335D01*
X176991847Y-99734485D01*
X176796500Y-99442129D01*
X176547871Y-99193500D01*
X176255515Y-98998153D01*
X175930665Y-98863596D01*
X175585807Y-98795000D01*
X175234193Y-98795000D01*
X174889335Y-98863596D01*
X174564485Y-98998153D01*
X174272129Y-99193500D01*
X174023500Y-99442129D01*
X173828153Y-99734485D01*
X173693596Y-100059335D01*
X173625000Y-100404193D01*
X165195000Y-100404193D01*
X165126404Y-100059335D01*
X164991847Y-99734485D01*
X164796500Y-99442129D01*
X164547871Y-99193500D01*
X164255515Y-98998153D01*
X163930665Y-98863596D01*
X163585807Y-98795000D01*
X163234193Y-98795000D01*
X162889335Y-98863596D01*
X162564485Y-98998153D01*
X162272129Y-99193500D01*
X162023500Y-99442129D01*
X161828153Y-99734485D01*
X161693596Y-100059335D01*
X161625000Y-100404193D01*
X161165000Y-100404193D01*
X161165000Y-100384193D01*
X161096404Y-100039335D01*
X160961847Y-99714485D01*
X160766500Y-99422129D01*
X160517871Y-99173500D01*
X160225515Y-98978153D01*
X159900665Y-98843596D01*
X159555807Y-98775000D01*
X159204193Y-98775000D01*
X158859335Y-98843596D01*
X158534485Y-98978153D01*
X158242129Y-99173500D01*
X157993500Y-99422129D01*
X157798153Y-99714485D01*
X157663596Y-100039335D01*
X157595000Y-100384193D01*
X149165000Y-100384193D01*
X149096404Y-100039335D01*
X148961847Y-99714485D01*
X148766500Y-99422129D01*
X148517871Y-99173500D01*
X148225515Y-98978153D01*
X147900665Y-98843596D01*
X147555807Y-98775000D01*
X147204193Y-98775000D01*
X146859335Y-98843596D01*
X146534485Y-98978153D01*
X146242129Y-99173500D01*
X145993500Y-99422129D01*
X145798153Y-99714485D01*
X145663596Y-100039335D01*
X145595000Y-100384193D01*
X145071022Y-100384193D01*
X145006404Y-100059335D01*
X144871847Y-99734485D01*
X144676500Y-99442129D01*
X144427871Y-99193500D01*
X144135515Y-98998153D01*
X143810665Y-98863596D01*
X143465807Y-98795000D01*
X143114193Y-98795000D01*
X142769335Y-98863596D01*
X142444485Y-98998153D01*
X142152129Y-99193500D01*
X141903500Y-99442129D01*
X141708153Y-99734485D01*
X141573596Y-100059335D01*
X141505000Y-100404193D01*
X133075000Y-100404193D01*
X133006404Y-100059335D01*
X132871847Y-99734485D01*
X132676500Y-99442129D01*
X132427871Y-99193500D01*
X132135515Y-98998153D01*
X131810665Y-98863596D01*
X131465807Y-98795000D01*
X131114193Y-98795000D01*
X130769335Y-98863596D01*
X130444485Y-98998153D01*
X130152129Y-99193500D01*
X129903500Y-99442129D01*
X129708153Y-99734485D01*
X129573596Y-100059335D01*
X129505000Y-100404193D01*
X123710000Y-100404193D01*
X123710000Y-98352492D01*
X135390188Y-98352492D01*
X135431035Y-98622238D01*
X135523723Y-98878832D01*
X135584140Y-98991863D01*
X135823007Y-99057388D01*
X136600395Y-98280000D01*
X135823007Y-97502612D01*
X135584140Y-97568137D01*
X135468240Y-97815116D01*
X135402750Y-98079960D01*
X135390188Y-98352492D01*
X123710000Y-98352492D01*
X123710000Y-95603589D01*
X134375000Y-95603589D01*
X134375000Y-95876411D01*
X134428225Y-96143989D01*
X134532629Y-96396043D01*
X134684201Y-96622886D01*
X134877114Y-96815799D01*
X135103957Y-96967371D01*
X135356011Y-97071775D01*
X135623589Y-97125000D01*
X135896411Y-97125000D01*
X136066193Y-97091228D01*
X136002612Y-97323007D01*
X136780000Y-98100395D01*
X136794143Y-98086253D01*
X136973748Y-98265858D01*
X136959605Y-98280000D01*
X136973748Y-98294143D01*
X136794143Y-98473748D01*
X136780000Y-98459605D01*
X136002612Y-99236993D01*
X136068137Y-99475860D01*
X136315116Y-99591760D01*
X136579960Y-99657250D01*
X136852492Y-99669812D01*
X137122238Y-99628965D01*
X137378832Y-99536277D01*
X137491863Y-99475860D01*
X137524569Y-99356631D01*
X137539463Y-99384494D01*
X137618815Y-99481185D01*
X137715506Y-99560537D01*
X137825820Y-99619502D01*
X137945518Y-99655812D01*
X138070000Y-99668072D01*
X139570000Y-99668072D01*
X139694482Y-99655812D01*
X139814180Y-99619502D01*
X139924494Y-99560537D01*
X140021185Y-99481185D01*
X140100537Y-99384494D01*
X140159502Y-99274180D01*
X140195812Y-99154482D01*
X140208072Y-99030000D01*
X140208072Y-98332492D01*
X151480188Y-98332492D01*
X151521035Y-98602238D01*
X151613723Y-98858832D01*
X151674140Y-98971863D01*
X151913007Y-99037388D01*
X152690395Y-98260000D01*
X151913007Y-97482612D01*
X151674140Y-97548137D01*
X151558240Y-97795116D01*
X151492750Y-98059960D01*
X151480188Y-98332492D01*
X140208072Y-98332492D01*
X140208072Y-97530000D01*
X140195812Y-97405518D01*
X140159502Y-97285820D01*
X140100537Y-97175506D01*
X140021185Y-97078815D01*
X139924494Y-96999463D01*
X139814180Y-96940498D01*
X139694482Y-96904188D01*
X139570000Y-96891928D01*
X138568951Y-96891928D01*
X138682886Y-96815799D01*
X138875799Y-96622886D01*
X139027371Y-96396043D01*
X139131775Y-96143989D01*
X139185000Y-95876411D01*
X139185000Y-95603589D01*
X139181022Y-95583589D01*
X150465000Y-95583589D01*
X150465000Y-95856411D01*
X150518225Y-96123989D01*
X150622629Y-96376043D01*
X150774201Y-96602886D01*
X150967114Y-96795799D01*
X151193957Y-96947371D01*
X151446011Y-97051775D01*
X151713589Y-97105000D01*
X151986411Y-97105000D01*
X152156193Y-97071228D01*
X152092612Y-97303007D01*
X152870000Y-98080395D01*
X152884143Y-98066253D01*
X153063748Y-98245858D01*
X153049605Y-98260000D01*
X153063748Y-98274143D01*
X152884143Y-98453748D01*
X152870000Y-98439605D01*
X152092612Y-99216993D01*
X152158137Y-99455860D01*
X152405116Y-99571760D01*
X152669960Y-99637250D01*
X152942492Y-99649812D01*
X153212238Y-99608965D01*
X153468832Y-99516277D01*
X153581863Y-99455860D01*
X153614569Y-99336631D01*
X153629463Y-99364494D01*
X153708815Y-99461185D01*
X153805506Y-99540537D01*
X153915820Y-99599502D01*
X154035518Y-99635812D01*
X154160000Y-99648072D01*
X155660000Y-99648072D01*
X155784482Y-99635812D01*
X155904180Y-99599502D01*
X156014494Y-99540537D01*
X156111185Y-99461185D01*
X156190537Y-99364494D01*
X156249502Y-99254180D01*
X156285812Y-99134482D01*
X156298072Y-99010000D01*
X156298072Y-98352492D01*
X167510188Y-98352492D01*
X167551035Y-98622238D01*
X167643723Y-98878832D01*
X167704140Y-98991863D01*
X167943007Y-99057388D01*
X168720395Y-98280000D01*
X167943007Y-97502612D01*
X167704140Y-97568137D01*
X167588240Y-97815116D01*
X167522750Y-98079960D01*
X167510188Y-98352492D01*
X156298072Y-98352492D01*
X156298072Y-97510000D01*
X156285812Y-97385518D01*
X156249502Y-97265820D01*
X156190537Y-97155506D01*
X156111185Y-97058815D01*
X156014494Y-96979463D01*
X155904180Y-96920498D01*
X155784482Y-96884188D01*
X155660000Y-96871928D01*
X154658951Y-96871928D01*
X154772886Y-96795799D01*
X154965799Y-96602886D01*
X155117371Y-96376043D01*
X155221775Y-96123989D01*
X155275000Y-95856411D01*
X155275000Y-95603589D01*
X166495000Y-95603589D01*
X166495000Y-95876411D01*
X166548225Y-96143989D01*
X166652629Y-96396043D01*
X166804201Y-96622886D01*
X166997114Y-96815799D01*
X167223957Y-96967371D01*
X167476011Y-97071775D01*
X167743589Y-97125000D01*
X168016411Y-97125000D01*
X168186193Y-97091228D01*
X168122612Y-97323007D01*
X168900000Y-98100395D01*
X168914143Y-98086253D01*
X169093748Y-98265858D01*
X169079605Y-98280000D01*
X169093748Y-98294143D01*
X168914143Y-98473748D01*
X168900000Y-98459605D01*
X168122612Y-99236993D01*
X168188137Y-99475860D01*
X168435116Y-99591760D01*
X168699960Y-99657250D01*
X168972492Y-99669812D01*
X169242238Y-99628965D01*
X169498832Y-99536277D01*
X169611863Y-99475860D01*
X169644569Y-99356631D01*
X169659463Y-99384494D01*
X169738815Y-99481185D01*
X169835506Y-99560537D01*
X169945820Y-99619502D01*
X170065518Y-99655812D01*
X170190000Y-99668072D01*
X171690000Y-99668072D01*
X171814482Y-99655812D01*
X171934180Y-99619502D01*
X172044494Y-99560537D01*
X172141185Y-99481185D01*
X172220537Y-99384494D01*
X172279502Y-99274180D01*
X172315812Y-99154482D01*
X172328072Y-99030000D01*
X172328072Y-98332492D01*
X183470188Y-98332492D01*
X183511035Y-98602238D01*
X183603723Y-98858832D01*
X183664140Y-98971863D01*
X183903007Y-99037388D01*
X184680395Y-98260000D01*
X183903007Y-97482612D01*
X183664140Y-97548137D01*
X183548240Y-97795116D01*
X183482750Y-98059960D01*
X183470188Y-98332492D01*
X172328072Y-98332492D01*
X172328072Y-97530000D01*
X172315812Y-97405518D01*
X172279502Y-97285820D01*
X172220537Y-97175506D01*
X172141185Y-97078815D01*
X172044494Y-96999463D01*
X171934180Y-96940498D01*
X171814482Y-96904188D01*
X171690000Y-96891928D01*
X170688951Y-96891928D01*
X170802886Y-96815799D01*
X170995799Y-96622886D01*
X171147371Y-96396043D01*
X171251775Y-96143989D01*
X171305000Y-95876411D01*
X171305000Y-95603589D01*
X171301022Y-95583589D01*
X182455000Y-95583589D01*
X182455000Y-95856411D01*
X182508225Y-96123989D01*
X182612629Y-96376043D01*
X182764201Y-96602886D01*
X182957114Y-96795799D01*
X183183957Y-96947371D01*
X183436011Y-97051775D01*
X183703589Y-97105000D01*
X183976411Y-97105000D01*
X184146193Y-97071228D01*
X184082612Y-97303007D01*
X184860000Y-98080395D01*
X184874143Y-98066253D01*
X185053748Y-98245858D01*
X185039605Y-98260000D01*
X185053748Y-98274143D01*
X184874143Y-98453748D01*
X184860000Y-98439605D01*
X184082612Y-99216993D01*
X184148137Y-99455860D01*
X184395116Y-99571760D01*
X184659960Y-99637250D01*
X184932492Y-99649812D01*
X185202238Y-99608965D01*
X185458832Y-99516277D01*
X185571863Y-99455860D01*
X185604569Y-99336631D01*
X185619463Y-99364494D01*
X185698815Y-99461185D01*
X185795506Y-99540537D01*
X185905820Y-99599502D01*
X186025518Y-99635812D01*
X186150000Y-99648072D01*
X187650000Y-99648072D01*
X187774482Y-99635812D01*
X187894180Y-99599502D01*
X188004494Y-99540537D01*
X188101185Y-99461185D01*
X188180537Y-99364494D01*
X188239502Y-99254180D01*
X188275812Y-99134482D01*
X188288072Y-99010000D01*
X188288072Y-98342492D01*
X199770188Y-98342492D01*
X199811035Y-98612238D01*
X199903723Y-98868832D01*
X199964140Y-98981863D01*
X200203007Y-99047388D01*
X200980395Y-98270000D01*
X200203007Y-97492612D01*
X199964140Y-97558137D01*
X199848240Y-97805116D01*
X199782750Y-98069960D01*
X199770188Y-98342492D01*
X188288072Y-98342492D01*
X188288072Y-97510000D01*
X188275812Y-97385518D01*
X188239502Y-97265820D01*
X188180537Y-97155506D01*
X188101185Y-97058815D01*
X188004494Y-96979463D01*
X187894180Y-96920498D01*
X187774482Y-96884188D01*
X187650000Y-96871928D01*
X186648951Y-96871928D01*
X186762886Y-96795799D01*
X186955799Y-96602886D01*
X187107371Y-96376043D01*
X187211775Y-96123989D01*
X187265000Y-95856411D01*
X187265000Y-95593589D01*
X198755000Y-95593589D01*
X198755000Y-95866411D01*
X198808225Y-96133989D01*
X198912629Y-96386043D01*
X199064201Y-96612886D01*
X199257114Y-96805799D01*
X199483957Y-96957371D01*
X199736011Y-97061775D01*
X200003589Y-97115000D01*
X200276411Y-97115000D01*
X200446193Y-97081228D01*
X200382612Y-97313007D01*
X201160000Y-98090395D01*
X201174143Y-98076253D01*
X201353748Y-98255858D01*
X201339605Y-98270000D01*
X201353748Y-98284143D01*
X201174143Y-98463748D01*
X201160000Y-98449605D01*
X200382612Y-99226993D01*
X200448137Y-99465860D01*
X200695116Y-99581760D01*
X200959960Y-99647250D01*
X201232492Y-99659812D01*
X201502238Y-99618965D01*
X201758832Y-99526277D01*
X201871863Y-99465860D01*
X201904569Y-99346631D01*
X201919463Y-99374494D01*
X201998815Y-99471185D01*
X202095506Y-99550537D01*
X202205820Y-99609502D01*
X202325518Y-99645812D01*
X202450000Y-99658072D01*
X203950000Y-99658072D01*
X204074482Y-99645812D01*
X204194180Y-99609502D01*
X204304494Y-99550537D01*
X204401185Y-99471185D01*
X204480537Y-99374494D01*
X204539502Y-99264180D01*
X204575812Y-99144482D01*
X204588072Y-99020000D01*
X204588072Y-97520000D01*
X204575812Y-97395518D01*
X204539502Y-97275820D01*
X204480537Y-97165506D01*
X204401185Y-97068815D01*
X204304494Y-96989463D01*
X204194180Y-96930498D01*
X204074482Y-96894188D01*
X203950000Y-96881928D01*
X202948951Y-96881928D01*
X203062886Y-96805799D01*
X203255799Y-96612886D01*
X203407371Y-96386043D01*
X203511775Y-96133989D01*
X203565000Y-95866411D01*
X203565000Y-95593589D01*
X203511775Y-95326011D01*
X203407371Y-95073957D01*
X203255799Y-94847114D01*
X203062886Y-94654201D01*
X202836043Y-94502629D01*
X202583989Y-94398225D01*
X202316411Y-94345000D01*
X202043589Y-94345000D01*
X201776011Y-94398225D01*
X201523957Y-94502629D01*
X201297114Y-94654201D01*
X201160000Y-94791315D01*
X201022886Y-94654201D01*
X200796043Y-94502629D01*
X200543989Y-94398225D01*
X200276411Y-94345000D01*
X200003589Y-94345000D01*
X199736011Y-94398225D01*
X199483957Y-94502629D01*
X199257114Y-94654201D01*
X199064201Y-94847114D01*
X198912629Y-95073957D01*
X198808225Y-95326011D01*
X198755000Y-95593589D01*
X187265000Y-95593589D01*
X187265000Y-95583589D01*
X187211775Y-95316011D01*
X187107371Y-95063957D01*
X186955799Y-94837114D01*
X186762886Y-94644201D01*
X186536043Y-94492629D01*
X186283989Y-94388225D01*
X186016411Y-94335000D01*
X185743589Y-94335000D01*
X185476011Y-94388225D01*
X185223957Y-94492629D01*
X184997114Y-94644201D01*
X184860000Y-94781315D01*
X184722886Y-94644201D01*
X184496043Y-94492629D01*
X184243989Y-94388225D01*
X183976411Y-94335000D01*
X183703589Y-94335000D01*
X183436011Y-94388225D01*
X183183957Y-94492629D01*
X182957114Y-94644201D01*
X182764201Y-94837114D01*
X182612629Y-95063957D01*
X182508225Y-95316011D01*
X182455000Y-95583589D01*
X171301022Y-95583589D01*
X171251775Y-95336011D01*
X171147371Y-95083957D01*
X170995799Y-94857114D01*
X170802886Y-94664201D01*
X170576043Y-94512629D01*
X170323989Y-94408225D01*
X170056411Y-94355000D01*
X169783589Y-94355000D01*
X169516011Y-94408225D01*
X169263957Y-94512629D01*
X169037114Y-94664201D01*
X168900000Y-94801315D01*
X168762886Y-94664201D01*
X168536043Y-94512629D01*
X168283989Y-94408225D01*
X168016411Y-94355000D01*
X167743589Y-94355000D01*
X167476011Y-94408225D01*
X167223957Y-94512629D01*
X166997114Y-94664201D01*
X166804201Y-94857114D01*
X166652629Y-95083957D01*
X166548225Y-95336011D01*
X166495000Y-95603589D01*
X155275000Y-95603589D01*
X155275000Y-95583589D01*
X155221775Y-95316011D01*
X155117371Y-95063957D01*
X154965799Y-94837114D01*
X154772886Y-94644201D01*
X154546043Y-94492629D01*
X154293989Y-94388225D01*
X154026411Y-94335000D01*
X153753589Y-94335000D01*
X153486011Y-94388225D01*
X153233957Y-94492629D01*
X153007114Y-94644201D01*
X152870000Y-94781315D01*
X152732886Y-94644201D01*
X152506043Y-94492629D01*
X152253989Y-94388225D01*
X151986411Y-94335000D01*
X151713589Y-94335000D01*
X151446011Y-94388225D01*
X151193957Y-94492629D01*
X150967114Y-94644201D01*
X150774201Y-94837114D01*
X150622629Y-95063957D01*
X150518225Y-95316011D01*
X150465000Y-95583589D01*
X139181022Y-95583589D01*
X139131775Y-95336011D01*
X139027371Y-95083957D01*
X138875799Y-94857114D01*
X138682886Y-94664201D01*
X138456043Y-94512629D01*
X138203989Y-94408225D01*
X137936411Y-94355000D01*
X137663589Y-94355000D01*
X137396011Y-94408225D01*
X137143957Y-94512629D01*
X136917114Y-94664201D01*
X136780000Y-94801315D01*
X136642886Y-94664201D01*
X136416043Y-94512629D01*
X136163989Y-94408225D01*
X135896411Y-94355000D01*
X135623589Y-94355000D01*
X135356011Y-94408225D01*
X135103957Y-94512629D01*
X134877114Y-94664201D01*
X134684201Y-94857114D01*
X134532629Y-95083957D01*
X134428225Y-95336011D01*
X134375000Y-95603589D01*
X123710000Y-95603589D01*
X123710000Y-89994193D01*
X127715000Y-89994193D01*
X127715000Y-90345807D01*
X127783596Y-90690665D01*
X127918153Y-91015515D01*
X128113500Y-91307871D01*
X128362129Y-91556500D01*
X128654485Y-91751847D01*
X128979335Y-91886404D01*
X129324193Y-91955000D01*
X129675807Y-91955000D01*
X130020665Y-91886404D01*
X130345515Y-91751847D01*
X130637871Y-91556500D01*
X130886500Y-91307871D01*
X131081847Y-91015515D01*
X131216404Y-90690665D01*
X131285000Y-90345807D01*
X131285000Y-89994193D01*
X131277044Y-89954193D01*
X209915000Y-89954193D01*
X209915000Y-90305807D01*
X209983596Y-90650665D01*
X210118153Y-90975515D01*
X210313500Y-91267871D01*
X210562129Y-91516500D01*
X210854485Y-91711847D01*
X211179335Y-91846404D01*
X211524193Y-91915000D01*
X211875807Y-91915000D01*
X212220665Y-91846404D01*
X212545515Y-91711847D01*
X212837871Y-91516500D01*
X213086500Y-91267871D01*
X213281847Y-90975515D01*
X213416404Y-90650665D01*
X213485000Y-90305807D01*
X213485000Y-89954193D01*
X213416404Y-89609335D01*
X213281847Y-89284485D01*
X213086500Y-88992129D01*
X212837871Y-88743500D01*
X212545515Y-88548153D01*
X212220665Y-88413596D01*
X211875807Y-88345000D01*
X211524193Y-88345000D01*
X211179335Y-88413596D01*
X210854485Y-88548153D01*
X210562129Y-88743500D01*
X210313500Y-88992129D01*
X210118153Y-89284485D01*
X209983596Y-89609335D01*
X209915000Y-89954193D01*
X131277044Y-89954193D01*
X131216404Y-89649335D01*
X131081847Y-89324485D01*
X130886500Y-89032129D01*
X130637871Y-88783500D01*
X130345515Y-88588153D01*
X130020665Y-88453596D01*
X129675807Y-88385000D01*
X129324193Y-88385000D01*
X128979335Y-88453596D01*
X128654485Y-88588153D01*
X128362129Y-88783500D01*
X128113500Y-89032129D01*
X127918153Y-89324485D01*
X127783596Y-89649335D01*
X127715000Y-89994193D01*
X123710000Y-89994193D01*
X123710000Y-83732492D01*
X130410188Y-83732492D01*
X130451035Y-84002238D01*
X130543723Y-84258832D01*
X130604140Y-84371863D01*
X130723369Y-84404569D01*
X130695506Y-84419463D01*
X130598815Y-84498815D01*
X130519463Y-84595506D01*
X130460498Y-84705820D01*
X130424188Y-84825518D01*
X130411928Y-84950000D01*
X130411928Y-86450000D01*
X130424188Y-86574482D01*
X130460498Y-86694180D01*
X130519463Y-86804494D01*
X130598815Y-86901185D01*
X130695506Y-86980537D01*
X130805820Y-87039502D01*
X130925518Y-87075812D01*
X131050000Y-87088072D01*
X132550000Y-87088072D01*
X132674482Y-87075812D01*
X132794180Y-87039502D01*
X132904494Y-86980537D01*
X133001185Y-86901185D01*
X133080537Y-86804494D01*
X133139502Y-86694180D01*
X133175812Y-86574482D01*
X133188072Y-86450000D01*
X133188072Y-85448951D01*
X133264201Y-85562886D01*
X133457114Y-85755799D01*
X133683957Y-85907371D01*
X133936011Y-86011775D01*
X134203589Y-86065000D01*
X134476411Y-86065000D01*
X134743989Y-86011775D01*
X134996043Y-85907371D01*
X135222886Y-85755799D01*
X135415799Y-85562886D01*
X135567371Y-85336043D01*
X135671775Y-85083989D01*
X135725000Y-84816411D01*
X135725000Y-84543589D01*
X135671775Y-84276011D01*
X135567371Y-84023957D01*
X135415799Y-83797114D01*
X135278685Y-83660000D01*
X135415799Y-83522886D01*
X135442056Y-83483589D01*
X205475000Y-83483589D01*
X205475000Y-83756411D01*
X205528225Y-84023989D01*
X205632629Y-84276043D01*
X205784201Y-84502886D01*
X205921315Y-84640000D01*
X205784201Y-84777114D01*
X205632629Y-85003957D01*
X205528225Y-85256011D01*
X205475000Y-85523589D01*
X205475000Y-85796411D01*
X205528225Y-86063989D01*
X205632629Y-86316043D01*
X205784201Y-86542886D01*
X205977114Y-86735799D01*
X206203957Y-86887371D01*
X206456011Y-86991775D01*
X206723589Y-87045000D01*
X206996411Y-87045000D01*
X207263989Y-86991775D01*
X207516043Y-86887371D01*
X207742886Y-86735799D01*
X207935799Y-86542886D01*
X208087371Y-86316043D01*
X208191775Y-86063989D01*
X208245000Y-85796411D01*
X208245000Y-85596993D01*
X208622612Y-85596993D01*
X208688137Y-85835860D01*
X208935116Y-85951760D01*
X209199960Y-86017250D01*
X209472492Y-86029812D01*
X209742238Y-85988965D01*
X209998832Y-85896277D01*
X210111863Y-85835860D01*
X210177388Y-85596993D01*
X209400000Y-84819605D01*
X208622612Y-85596993D01*
X208245000Y-85596993D01*
X208245000Y-85523589D01*
X208211228Y-85353807D01*
X208443007Y-85417388D01*
X209220395Y-84640000D01*
X209206253Y-84625858D01*
X209385858Y-84446253D01*
X209400000Y-84460395D01*
X209414143Y-84446253D01*
X209593748Y-84625858D01*
X209579605Y-84640000D01*
X210356993Y-85417388D01*
X210595860Y-85351863D01*
X210711760Y-85104884D01*
X210777250Y-84840040D01*
X210789812Y-84567508D01*
X210748965Y-84297762D01*
X210656277Y-84041168D01*
X210595860Y-83928137D01*
X210476631Y-83895431D01*
X210504494Y-83880537D01*
X210601185Y-83801185D01*
X210680537Y-83704494D01*
X210739502Y-83594180D01*
X210775812Y-83474482D01*
X210788072Y-83350000D01*
X210788072Y-81850000D01*
X210775812Y-81725518D01*
X210739502Y-81605820D01*
X210680537Y-81495506D01*
X210601185Y-81398815D01*
X210504494Y-81319463D01*
X210394180Y-81260498D01*
X210274482Y-81224188D01*
X210150000Y-81211928D01*
X208650000Y-81211928D01*
X208525518Y-81224188D01*
X208405820Y-81260498D01*
X208295506Y-81319463D01*
X208198815Y-81398815D01*
X208119463Y-81495506D01*
X208060498Y-81605820D01*
X208024188Y-81725518D01*
X208011928Y-81850000D01*
X208011928Y-82851049D01*
X207935799Y-82737114D01*
X207742886Y-82544201D01*
X207516043Y-82392629D01*
X207263989Y-82288225D01*
X206996411Y-82235000D01*
X206723589Y-82235000D01*
X206456011Y-82288225D01*
X206203957Y-82392629D01*
X205977114Y-82544201D01*
X205784201Y-82737114D01*
X205632629Y-82963957D01*
X205528225Y-83216011D01*
X205475000Y-83483589D01*
X135442056Y-83483589D01*
X135567371Y-83296043D01*
X135671775Y-83043989D01*
X135725000Y-82776411D01*
X135725000Y-82503589D01*
X135671775Y-82236011D01*
X135567371Y-81983957D01*
X135415799Y-81757114D01*
X135222886Y-81564201D01*
X134996043Y-81412629D01*
X134743989Y-81308225D01*
X134476411Y-81255000D01*
X134203589Y-81255000D01*
X133936011Y-81308225D01*
X133683957Y-81412629D01*
X133457114Y-81564201D01*
X133264201Y-81757114D01*
X133112629Y-81983957D01*
X133008225Y-82236011D01*
X132955000Y-82503589D01*
X132955000Y-82776411D01*
X132988772Y-82946193D01*
X132756993Y-82882612D01*
X131979605Y-83660000D01*
X131993748Y-83674143D01*
X131814143Y-83853748D01*
X131800000Y-83839605D01*
X131785858Y-83853748D01*
X131606253Y-83674143D01*
X131620395Y-83660000D01*
X130843007Y-82882612D01*
X130604140Y-82948137D01*
X130488240Y-83195116D01*
X130422750Y-83459960D01*
X130410188Y-83732492D01*
X123710000Y-83732492D01*
X123710000Y-82703007D01*
X131022612Y-82703007D01*
X131800000Y-83480395D01*
X132577388Y-82703007D01*
X132511863Y-82464140D01*
X132264884Y-82348240D01*
X132000040Y-82282750D01*
X131727508Y-82270188D01*
X131457762Y-82311035D01*
X131201168Y-82403723D01*
X131088137Y-82464140D01*
X131022612Y-82703007D01*
X123710000Y-82703007D01*
X123710000Y-77994193D01*
X127715000Y-77994193D01*
X127715000Y-78345807D01*
X127783596Y-78690665D01*
X127918153Y-79015515D01*
X128113500Y-79307871D01*
X128362129Y-79556500D01*
X128654485Y-79751847D01*
X128979335Y-79886404D01*
X129324193Y-79955000D01*
X129675807Y-79955000D01*
X130020665Y-79886404D01*
X130345515Y-79751847D01*
X130637871Y-79556500D01*
X130886500Y-79307871D01*
X131081847Y-79015515D01*
X131216404Y-78690665D01*
X131285000Y-78345807D01*
X131285000Y-77994193D01*
X131277044Y-77954193D01*
X209915000Y-77954193D01*
X209915000Y-78305807D01*
X209983596Y-78650665D01*
X210118153Y-78975515D01*
X210313500Y-79267871D01*
X210562129Y-79516500D01*
X210854485Y-79711847D01*
X211179335Y-79846404D01*
X211524193Y-79915000D01*
X211875807Y-79915000D01*
X212220665Y-79846404D01*
X212545515Y-79711847D01*
X212837871Y-79516500D01*
X213086500Y-79267871D01*
X213281847Y-78975515D01*
X213416404Y-78650665D01*
X213485000Y-78305807D01*
X213485000Y-77954193D01*
X213416404Y-77609335D01*
X213281847Y-77284485D01*
X213086500Y-76992129D01*
X212837871Y-76743500D01*
X212545515Y-76548153D01*
X212220665Y-76413596D01*
X211875807Y-76345000D01*
X211524193Y-76345000D01*
X211179335Y-76413596D01*
X210854485Y-76548153D01*
X210562129Y-76743500D01*
X210313500Y-76992129D01*
X210118153Y-77284485D01*
X209983596Y-77609335D01*
X209915000Y-77954193D01*
X131277044Y-77954193D01*
X131216404Y-77649335D01*
X131081847Y-77324485D01*
X130886500Y-77032129D01*
X130637871Y-76783500D01*
X130345515Y-76588153D01*
X130020665Y-76453596D01*
X129675807Y-76385000D01*
X129324193Y-76385000D01*
X128979335Y-76453596D01*
X128654485Y-76588153D01*
X128362129Y-76783500D01*
X128113500Y-77032129D01*
X127918153Y-77324485D01*
X127783596Y-77649335D01*
X127715000Y-77994193D01*
X123710000Y-77994193D01*
X123710000Y-73594193D01*
X127915000Y-73594193D01*
X127915000Y-73945807D01*
X127983596Y-74290665D01*
X128118153Y-74615515D01*
X128313500Y-74907871D01*
X128562129Y-75156500D01*
X128854485Y-75351847D01*
X129179335Y-75486404D01*
X129524193Y-75555000D01*
X129875807Y-75555000D01*
X130220665Y-75486404D01*
X130545515Y-75351847D01*
X130837871Y-75156500D01*
X131086500Y-74907871D01*
X131281847Y-74615515D01*
X131416404Y-74290665D01*
X131485000Y-73945807D01*
X131485000Y-73594193D01*
X131477044Y-73554193D01*
X209915000Y-73554193D01*
X209915000Y-73905807D01*
X209983596Y-74250665D01*
X210118153Y-74575515D01*
X210313500Y-74867871D01*
X210562129Y-75116500D01*
X210854485Y-75311847D01*
X211179335Y-75446404D01*
X211524193Y-75515000D01*
X211875807Y-75515000D01*
X212220665Y-75446404D01*
X212545515Y-75311847D01*
X212837871Y-75116500D01*
X213086500Y-74867871D01*
X213281847Y-74575515D01*
X213416404Y-74250665D01*
X213485000Y-73905807D01*
X213485000Y-73554193D01*
X213416404Y-73209335D01*
X213281847Y-72884485D01*
X213086500Y-72592129D01*
X212837871Y-72343500D01*
X212545515Y-72148153D01*
X212220665Y-72013596D01*
X211875807Y-71945000D01*
X211524193Y-71945000D01*
X211179335Y-72013596D01*
X210854485Y-72148153D01*
X210562129Y-72343500D01*
X210313500Y-72592129D01*
X210118153Y-72884485D01*
X209983596Y-73209335D01*
X209915000Y-73554193D01*
X131477044Y-73554193D01*
X131416404Y-73249335D01*
X131281847Y-72924485D01*
X131086500Y-72632129D01*
X130837871Y-72383500D01*
X130545515Y-72188153D01*
X130220665Y-72053596D01*
X129875807Y-71985000D01*
X129524193Y-71985000D01*
X129179335Y-72053596D01*
X128854485Y-72188153D01*
X128562129Y-72383500D01*
X128313500Y-72632129D01*
X128118153Y-72924485D01*
X127983596Y-73249335D01*
X127915000Y-73594193D01*
X123710000Y-73594193D01*
X123710000Y-67332492D01*
X130610188Y-67332492D01*
X130651035Y-67602238D01*
X130743723Y-67858832D01*
X130804140Y-67971863D01*
X130923369Y-68004569D01*
X130895506Y-68019463D01*
X130798815Y-68098815D01*
X130719463Y-68195506D01*
X130660498Y-68305820D01*
X130624188Y-68425518D01*
X130611928Y-68550000D01*
X130611928Y-70050000D01*
X130624188Y-70174482D01*
X130660498Y-70294180D01*
X130719463Y-70404494D01*
X130798815Y-70501185D01*
X130895506Y-70580537D01*
X131005820Y-70639502D01*
X131125518Y-70675812D01*
X131250000Y-70688072D01*
X132750000Y-70688072D01*
X132874482Y-70675812D01*
X132994180Y-70639502D01*
X133104494Y-70580537D01*
X133201185Y-70501185D01*
X133280537Y-70404494D01*
X133339502Y-70294180D01*
X133375812Y-70174482D01*
X133388072Y-70050000D01*
X133388072Y-69048951D01*
X133464201Y-69162886D01*
X133657114Y-69355799D01*
X133883957Y-69507371D01*
X134136011Y-69611775D01*
X134403589Y-69665000D01*
X134676411Y-69665000D01*
X134943989Y-69611775D01*
X135196043Y-69507371D01*
X135422886Y-69355799D01*
X135615799Y-69162886D01*
X135767371Y-68936043D01*
X135871775Y-68683989D01*
X135925000Y-68416411D01*
X135925000Y-68143589D01*
X135871775Y-67876011D01*
X135767371Y-67623957D01*
X135615799Y-67397114D01*
X135478685Y-67260000D01*
X135615799Y-67122886D01*
X135642056Y-67083589D01*
X205475000Y-67083589D01*
X205475000Y-67356411D01*
X205528225Y-67623989D01*
X205632629Y-67876043D01*
X205784201Y-68102886D01*
X205921315Y-68240000D01*
X205784201Y-68377114D01*
X205632629Y-68603957D01*
X205528225Y-68856011D01*
X205475000Y-69123589D01*
X205475000Y-69396411D01*
X205528225Y-69663989D01*
X205632629Y-69916043D01*
X205784201Y-70142886D01*
X205977114Y-70335799D01*
X206203957Y-70487371D01*
X206456011Y-70591775D01*
X206723589Y-70645000D01*
X206996411Y-70645000D01*
X207263989Y-70591775D01*
X207516043Y-70487371D01*
X207742886Y-70335799D01*
X207935799Y-70142886D01*
X208087371Y-69916043D01*
X208191775Y-69663989D01*
X208245000Y-69396411D01*
X208245000Y-69196993D01*
X208622612Y-69196993D01*
X208688137Y-69435860D01*
X208935116Y-69551760D01*
X209199960Y-69617250D01*
X209472492Y-69629812D01*
X209742238Y-69588965D01*
X209998832Y-69496277D01*
X210111863Y-69435860D01*
X210177388Y-69196993D01*
X209400000Y-68419605D01*
X208622612Y-69196993D01*
X208245000Y-69196993D01*
X208245000Y-69123589D01*
X208211228Y-68953807D01*
X208443007Y-69017388D01*
X209220395Y-68240000D01*
X209206253Y-68225858D01*
X209385858Y-68046253D01*
X209400000Y-68060395D01*
X209414143Y-68046253D01*
X209593748Y-68225858D01*
X209579605Y-68240000D01*
X210356993Y-69017388D01*
X210595860Y-68951863D01*
X210711760Y-68704884D01*
X210777250Y-68440040D01*
X210789812Y-68167508D01*
X210748965Y-67897762D01*
X210656277Y-67641168D01*
X210595860Y-67528137D01*
X210476631Y-67495431D01*
X210504494Y-67480537D01*
X210601185Y-67401185D01*
X210680537Y-67304494D01*
X210739502Y-67194180D01*
X210775812Y-67074482D01*
X210788072Y-66950000D01*
X210788072Y-65450000D01*
X210775812Y-65325518D01*
X210739502Y-65205820D01*
X210680537Y-65095506D01*
X210601185Y-64998815D01*
X210504494Y-64919463D01*
X210394180Y-64860498D01*
X210274482Y-64824188D01*
X210150000Y-64811928D01*
X208650000Y-64811928D01*
X208525518Y-64824188D01*
X208405820Y-64860498D01*
X208295506Y-64919463D01*
X208198815Y-64998815D01*
X208119463Y-65095506D01*
X208060498Y-65205820D01*
X208024188Y-65325518D01*
X208011928Y-65450000D01*
X208011928Y-66451049D01*
X207935799Y-66337114D01*
X207742886Y-66144201D01*
X207516043Y-65992629D01*
X207263989Y-65888225D01*
X206996411Y-65835000D01*
X206723589Y-65835000D01*
X206456011Y-65888225D01*
X206203957Y-65992629D01*
X205977114Y-66144201D01*
X205784201Y-66337114D01*
X205632629Y-66563957D01*
X205528225Y-66816011D01*
X205475000Y-67083589D01*
X135642056Y-67083589D01*
X135767371Y-66896043D01*
X135871775Y-66643989D01*
X135925000Y-66376411D01*
X135925000Y-66103589D01*
X135871775Y-65836011D01*
X135767371Y-65583957D01*
X135615799Y-65357114D01*
X135422886Y-65164201D01*
X135196043Y-65012629D01*
X134943989Y-64908225D01*
X134676411Y-64855000D01*
X134403589Y-64855000D01*
X134136011Y-64908225D01*
X133883957Y-65012629D01*
X133657114Y-65164201D01*
X133464201Y-65357114D01*
X133312629Y-65583957D01*
X133208225Y-65836011D01*
X133155000Y-66103589D01*
X133155000Y-66376411D01*
X133188772Y-66546193D01*
X132956993Y-66482612D01*
X132179605Y-67260000D01*
X132193748Y-67274143D01*
X132014143Y-67453748D01*
X132000000Y-67439605D01*
X131985858Y-67453748D01*
X131806253Y-67274143D01*
X131820395Y-67260000D01*
X131043007Y-66482612D01*
X130804140Y-66548137D01*
X130688240Y-66795116D01*
X130622750Y-67059960D01*
X130610188Y-67332492D01*
X123710000Y-67332492D01*
X123710000Y-66303007D01*
X131222612Y-66303007D01*
X132000000Y-67080395D01*
X132777388Y-66303007D01*
X132711863Y-66064140D01*
X132464884Y-65948240D01*
X132200040Y-65882750D01*
X131927508Y-65870188D01*
X131657762Y-65911035D01*
X131401168Y-66003723D01*
X131288137Y-66064140D01*
X131222612Y-66303007D01*
X123710000Y-66303007D01*
X123710000Y-61594193D01*
X127915000Y-61594193D01*
X127915000Y-61945807D01*
X127983596Y-62290665D01*
X128118153Y-62615515D01*
X128313500Y-62907871D01*
X128562129Y-63156500D01*
X128854485Y-63351847D01*
X129179335Y-63486404D01*
X129524193Y-63555000D01*
X129875807Y-63555000D01*
X130220665Y-63486404D01*
X130545515Y-63351847D01*
X130837871Y-63156500D01*
X131086500Y-62907871D01*
X131281847Y-62615515D01*
X131416404Y-62290665D01*
X131485000Y-61945807D01*
X131485000Y-61594193D01*
X131477044Y-61554193D01*
X209915000Y-61554193D01*
X209915000Y-61905807D01*
X209983596Y-62250665D01*
X210118153Y-62575515D01*
X210313500Y-62867871D01*
X210562129Y-63116500D01*
X210854485Y-63311847D01*
X211179335Y-63446404D01*
X211524193Y-63515000D01*
X211875807Y-63515000D01*
X212220665Y-63446404D01*
X212545515Y-63311847D01*
X212837871Y-63116500D01*
X213086500Y-62867871D01*
X213281847Y-62575515D01*
X213416404Y-62250665D01*
X213485000Y-61905807D01*
X213485000Y-61554193D01*
X213416404Y-61209335D01*
X213281847Y-60884485D01*
X213086500Y-60592129D01*
X212837871Y-60343500D01*
X212545515Y-60148153D01*
X212220665Y-60013596D01*
X211875807Y-59945000D01*
X211524193Y-59945000D01*
X211179335Y-60013596D01*
X210854485Y-60148153D01*
X210562129Y-60343500D01*
X210313500Y-60592129D01*
X210118153Y-60884485D01*
X209983596Y-61209335D01*
X209915000Y-61554193D01*
X131477044Y-61554193D01*
X131416404Y-61249335D01*
X131281847Y-60924485D01*
X131086500Y-60632129D01*
X130837871Y-60383500D01*
X130545515Y-60188153D01*
X130220665Y-60053596D01*
X129875807Y-59985000D01*
X129524193Y-59985000D01*
X129179335Y-60053596D01*
X128854485Y-60188153D01*
X128562129Y-60383500D01*
X128313500Y-60632129D01*
X128118153Y-60924485D01*
X127983596Y-61249335D01*
X127915000Y-61594193D01*
X123710000Y-61594193D01*
X123710000Y-51524193D01*
X129545000Y-51524193D01*
X129545000Y-51875807D01*
X129613596Y-52220665D01*
X129748153Y-52545515D01*
X129943500Y-52837871D01*
X130192129Y-53086500D01*
X130484485Y-53281847D01*
X130809335Y-53416404D01*
X131154193Y-53485000D01*
X131505807Y-53485000D01*
X131850665Y-53416404D01*
X132175515Y-53281847D01*
X132223177Y-53250000D01*
X134411928Y-53250000D01*
X134411928Y-54750000D01*
X134424188Y-54874482D01*
X134460498Y-54994180D01*
X134519463Y-55104494D01*
X134598815Y-55201185D01*
X134695506Y-55280537D01*
X134805820Y-55339502D01*
X134925518Y-55375812D01*
X135050000Y-55388072D01*
X136051049Y-55388072D01*
X135937114Y-55464201D01*
X135744201Y-55657114D01*
X135592629Y-55883957D01*
X135488225Y-56136011D01*
X135435000Y-56403589D01*
X135435000Y-56676411D01*
X135488225Y-56943989D01*
X135592629Y-57196043D01*
X135744201Y-57422886D01*
X135937114Y-57615799D01*
X136163957Y-57767371D01*
X136416011Y-57871775D01*
X136683589Y-57925000D01*
X136956411Y-57925000D01*
X137223989Y-57871775D01*
X137476043Y-57767371D01*
X137702886Y-57615799D01*
X137840000Y-57478685D01*
X137977114Y-57615799D01*
X138203957Y-57767371D01*
X138456011Y-57871775D01*
X138723589Y-57925000D01*
X138996411Y-57925000D01*
X139263989Y-57871775D01*
X139516043Y-57767371D01*
X139742886Y-57615799D01*
X139935799Y-57422886D01*
X140087371Y-57196043D01*
X140191775Y-56943989D01*
X140245000Y-56676411D01*
X140245000Y-56403589D01*
X140191775Y-56136011D01*
X140087371Y-55883957D01*
X139935799Y-55657114D01*
X139742886Y-55464201D01*
X139516043Y-55312629D01*
X139263989Y-55208225D01*
X138996411Y-55155000D01*
X138723589Y-55155000D01*
X138553807Y-55188772D01*
X138617388Y-54956993D01*
X137840000Y-54179605D01*
X137825858Y-54193748D01*
X137646253Y-54014143D01*
X137660395Y-54000000D01*
X138019605Y-54000000D01*
X138796993Y-54777388D01*
X139035860Y-54711863D01*
X139151760Y-54464884D01*
X139217250Y-54200040D01*
X139229812Y-53927508D01*
X139188965Y-53657762D01*
X139096277Y-53401168D01*
X139035860Y-53288137D01*
X138796993Y-53222612D01*
X138019605Y-54000000D01*
X137660395Y-54000000D01*
X137646253Y-53985858D01*
X137825858Y-53806253D01*
X137840000Y-53820395D01*
X138617388Y-53043007D01*
X138551863Y-52804140D01*
X138304884Y-52688240D01*
X138040040Y-52622750D01*
X137767508Y-52610188D01*
X137497762Y-52651035D01*
X137241168Y-52743723D01*
X137128137Y-52804140D01*
X137095431Y-52923369D01*
X137080537Y-52895506D01*
X137001185Y-52798815D01*
X136904494Y-52719463D01*
X136794180Y-52660498D01*
X136674482Y-52624188D01*
X136550000Y-52611928D01*
X135050000Y-52611928D01*
X134925518Y-52624188D01*
X134805820Y-52660498D01*
X134695506Y-52719463D01*
X134598815Y-52798815D01*
X134519463Y-52895506D01*
X134460498Y-53005820D01*
X134424188Y-53125518D01*
X134411928Y-53250000D01*
X132223177Y-53250000D01*
X132467871Y-53086500D01*
X132716500Y-52837871D01*
X132911847Y-52545515D01*
X133046404Y-52220665D01*
X133115000Y-51875807D01*
X133115000Y-51524193D01*
X141545000Y-51524193D01*
X141545000Y-51875807D01*
X141613596Y-52220665D01*
X141748153Y-52545515D01*
X141943500Y-52837871D01*
X142192129Y-53086500D01*
X142484485Y-53281847D01*
X142809335Y-53416404D01*
X143154193Y-53485000D01*
X143505807Y-53485000D01*
X143850665Y-53416404D01*
X144175515Y-53281847D01*
X144467871Y-53086500D01*
X144716500Y-52837871D01*
X144911847Y-52545515D01*
X145046404Y-52220665D01*
X145115000Y-51875807D01*
X145115000Y-51524193D01*
X145545000Y-51524193D01*
X145545000Y-51875807D01*
X145613596Y-52220665D01*
X145748153Y-52545515D01*
X145943500Y-52837871D01*
X146192129Y-53086500D01*
X146484485Y-53281847D01*
X146809335Y-53416404D01*
X147154193Y-53485000D01*
X147505807Y-53485000D01*
X147850665Y-53416404D01*
X148175515Y-53281847D01*
X148223177Y-53250000D01*
X150411928Y-53250000D01*
X150411928Y-54750000D01*
X150424188Y-54874482D01*
X150460498Y-54994180D01*
X150519463Y-55104494D01*
X150598815Y-55201185D01*
X150695506Y-55280537D01*
X150805820Y-55339502D01*
X150925518Y-55375812D01*
X151050000Y-55388072D01*
X152051049Y-55388072D01*
X151937114Y-55464201D01*
X151744201Y-55657114D01*
X151592629Y-55883957D01*
X151488225Y-56136011D01*
X151435000Y-56403589D01*
X151435000Y-56676411D01*
X151488225Y-56943989D01*
X151592629Y-57196043D01*
X151744201Y-57422886D01*
X151937114Y-57615799D01*
X152163957Y-57767371D01*
X152416011Y-57871775D01*
X152683589Y-57925000D01*
X152956411Y-57925000D01*
X153223989Y-57871775D01*
X153476043Y-57767371D01*
X153702886Y-57615799D01*
X153840000Y-57478685D01*
X153977114Y-57615799D01*
X154203957Y-57767371D01*
X154456011Y-57871775D01*
X154723589Y-57925000D01*
X154996411Y-57925000D01*
X155263989Y-57871775D01*
X155516043Y-57767371D01*
X155742886Y-57615799D01*
X155935799Y-57422886D01*
X156087371Y-57196043D01*
X156191775Y-56943989D01*
X156245000Y-56676411D01*
X156245000Y-56403589D01*
X156191775Y-56136011D01*
X156087371Y-55883957D01*
X155935799Y-55657114D01*
X155742886Y-55464201D01*
X155516043Y-55312629D01*
X155263989Y-55208225D01*
X154996411Y-55155000D01*
X154723589Y-55155000D01*
X154553807Y-55188772D01*
X154617388Y-54956993D01*
X153840000Y-54179605D01*
X153825858Y-54193748D01*
X153646253Y-54014143D01*
X153660395Y-54000000D01*
X154019605Y-54000000D01*
X154796993Y-54777388D01*
X155035860Y-54711863D01*
X155151760Y-54464884D01*
X155217250Y-54200040D01*
X155229812Y-53927508D01*
X155188965Y-53657762D01*
X155096277Y-53401168D01*
X155035860Y-53288137D01*
X154796993Y-53222612D01*
X154019605Y-54000000D01*
X153660395Y-54000000D01*
X153646253Y-53985858D01*
X153825858Y-53806253D01*
X153840000Y-53820395D01*
X154617388Y-53043007D01*
X154551863Y-52804140D01*
X154304884Y-52688240D01*
X154040040Y-52622750D01*
X153767508Y-52610188D01*
X153497762Y-52651035D01*
X153241168Y-52743723D01*
X153128137Y-52804140D01*
X153095431Y-52923369D01*
X153080537Y-52895506D01*
X153001185Y-52798815D01*
X152904494Y-52719463D01*
X152794180Y-52660498D01*
X152674482Y-52624188D01*
X152550000Y-52611928D01*
X151050000Y-52611928D01*
X150925518Y-52624188D01*
X150805820Y-52660498D01*
X150695506Y-52719463D01*
X150598815Y-52798815D01*
X150519463Y-52895506D01*
X150460498Y-53005820D01*
X150424188Y-53125518D01*
X150411928Y-53250000D01*
X148223177Y-53250000D01*
X148467871Y-53086500D01*
X148716500Y-52837871D01*
X148911847Y-52545515D01*
X149046404Y-52220665D01*
X149115000Y-51875807D01*
X149115000Y-51524193D01*
X157545000Y-51524193D01*
X157545000Y-51875807D01*
X157613596Y-52220665D01*
X157748153Y-52545515D01*
X157943500Y-52837871D01*
X158192129Y-53086500D01*
X158484485Y-53281847D01*
X158809335Y-53416404D01*
X159154193Y-53485000D01*
X159505807Y-53485000D01*
X159850665Y-53416404D01*
X160175515Y-53281847D01*
X160467871Y-53086500D01*
X160716500Y-52837871D01*
X160911847Y-52545515D01*
X161046404Y-52220665D01*
X161115000Y-51875807D01*
X161115000Y-51524193D01*
X161545000Y-51524193D01*
X161545000Y-51875807D01*
X161613596Y-52220665D01*
X161748153Y-52545515D01*
X161943500Y-52837871D01*
X162192129Y-53086500D01*
X162484485Y-53281847D01*
X162809335Y-53416404D01*
X163154193Y-53485000D01*
X163505807Y-53485000D01*
X163850665Y-53416404D01*
X164175515Y-53281847D01*
X164223177Y-53250000D01*
X166411928Y-53250000D01*
X166411928Y-54750000D01*
X166424188Y-54874482D01*
X166460498Y-54994180D01*
X166519463Y-55104494D01*
X166598815Y-55201185D01*
X166695506Y-55280537D01*
X166805820Y-55339502D01*
X166925518Y-55375812D01*
X167050000Y-55388072D01*
X168051049Y-55388072D01*
X167937114Y-55464201D01*
X167744201Y-55657114D01*
X167592629Y-55883957D01*
X167488225Y-56136011D01*
X167435000Y-56403589D01*
X167435000Y-56676411D01*
X167488225Y-56943989D01*
X167592629Y-57196043D01*
X167744201Y-57422886D01*
X167937114Y-57615799D01*
X168163957Y-57767371D01*
X168416011Y-57871775D01*
X168683589Y-57925000D01*
X168956411Y-57925000D01*
X169223989Y-57871775D01*
X169476043Y-57767371D01*
X169702886Y-57615799D01*
X169840000Y-57478685D01*
X169977114Y-57615799D01*
X170203957Y-57767371D01*
X170456011Y-57871775D01*
X170723589Y-57925000D01*
X170996411Y-57925000D01*
X171263989Y-57871775D01*
X171516043Y-57767371D01*
X171742886Y-57615799D01*
X171935799Y-57422886D01*
X172087371Y-57196043D01*
X172191775Y-56943989D01*
X172245000Y-56676411D01*
X172245000Y-56403589D01*
X172191775Y-56136011D01*
X172087371Y-55883957D01*
X171935799Y-55657114D01*
X171742886Y-55464201D01*
X171516043Y-55312629D01*
X171263989Y-55208225D01*
X170996411Y-55155000D01*
X170723589Y-55155000D01*
X170553807Y-55188772D01*
X170617388Y-54956993D01*
X169840000Y-54179605D01*
X169825858Y-54193748D01*
X169646253Y-54014143D01*
X169660395Y-54000000D01*
X170019605Y-54000000D01*
X170796993Y-54777388D01*
X171035860Y-54711863D01*
X171151760Y-54464884D01*
X171217250Y-54200040D01*
X171229812Y-53927508D01*
X171188965Y-53657762D01*
X171096277Y-53401168D01*
X171035860Y-53288137D01*
X170796993Y-53222612D01*
X170019605Y-54000000D01*
X169660395Y-54000000D01*
X169646253Y-53985858D01*
X169825858Y-53806253D01*
X169840000Y-53820395D01*
X170617388Y-53043007D01*
X170551863Y-52804140D01*
X170304884Y-52688240D01*
X170040040Y-52622750D01*
X169767508Y-52610188D01*
X169497762Y-52651035D01*
X169241168Y-52743723D01*
X169128137Y-52804140D01*
X169095431Y-52923369D01*
X169080537Y-52895506D01*
X169001185Y-52798815D01*
X168904494Y-52719463D01*
X168794180Y-52660498D01*
X168674482Y-52624188D01*
X168550000Y-52611928D01*
X167050000Y-52611928D01*
X166925518Y-52624188D01*
X166805820Y-52660498D01*
X166695506Y-52719463D01*
X166598815Y-52798815D01*
X166519463Y-52895506D01*
X166460498Y-53005820D01*
X166424188Y-53125518D01*
X166411928Y-53250000D01*
X164223177Y-53250000D01*
X164467871Y-53086500D01*
X164716500Y-52837871D01*
X164911847Y-52545515D01*
X165046404Y-52220665D01*
X165115000Y-51875807D01*
X165115000Y-51524193D01*
X173545000Y-51524193D01*
X173545000Y-51875807D01*
X173613596Y-52220665D01*
X173748153Y-52545515D01*
X173943500Y-52837871D01*
X174192129Y-53086500D01*
X174484485Y-53281847D01*
X174809335Y-53416404D01*
X175154193Y-53485000D01*
X175505807Y-53485000D01*
X175850665Y-53416404D01*
X176175515Y-53281847D01*
X176467871Y-53086500D01*
X176716500Y-52837871D01*
X176911847Y-52545515D01*
X177046404Y-52220665D01*
X177115000Y-51875807D01*
X177115000Y-51524193D01*
X177545000Y-51524193D01*
X177545000Y-51875807D01*
X177613596Y-52220665D01*
X177748153Y-52545515D01*
X177943500Y-52837871D01*
X178192129Y-53086500D01*
X178484485Y-53281847D01*
X178809335Y-53416404D01*
X179154193Y-53485000D01*
X179505807Y-53485000D01*
X179850665Y-53416404D01*
X180175515Y-53281847D01*
X180223177Y-53250000D01*
X182411928Y-53250000D01*
X182411928Y-54750000D01*
X182424188Y-54874482D01*
X182460498Y-54994180D01*
X182519463Y-55104494D01*
X182598815Y-55201185D01*
X182695506Y-55280537D01*
X182805820Y-55339502D01*
X182925518Y-55375812D01*
X183050000Y-55388072D01*
X184051049Y-55388072D01*
X183937114Y-55464201D01*
X183744201Y-55657114D01*
X183592629Y-55883957D01*
X183488225Y-56136011D01*
X183435000Y-56403589D01*
X183435000Y-56676411D01*
X183488225Y-56943989D01*
X183592629Y-57196043D01*
X183744201Y-57422886D01*
X183937114Y-57615799D01*
X184163957Y-57767371D01*
X184416011Y-57871775D01*
X184683589Y-57925000D01*
X184956411Y-57925000D01*
X185223989Y-57871775D01*
X185476043Y-57767371D01*
X185702886Y-57615799D01*
X185840000Y-57478685D01*
X185977114Y-57615799D01*
X186203957Y-57767371D01*
X186456011Y-57871775D01*
X186723589Y-57925000D01*
X186996411Y-57925000D01*
X187263989Y-57871775D01*
X187516043Y-57767371D01*
X187742886Y-57615799D01*
X187935799Y-57422886D01*
X188087371Y-57196043D01*
X188191775Y-56943989D01*
X188245000Y-56676411D01*
X188245000Y-56403589D01*
X188191775Y-56136011D01*
X188087371Y-55883957D01*
X187935799Y-55657114D01*
X187742886Y-55464201D01*
X187516043Y-55312629D01*
X187263989Y-55208225D01*
X186996411Y-55155000D01*
X186723589Y-55155000D01*
X186553807Y-55188772D01*
X186617388Y-54956993D01*
X185840000Y-54179605D01*
X185825858Y-54193748D01*
X185646253Y-54014143D01*
X185660395Y-54000000D01*
X186019605Y-54000000D01*
X186796993Y-54777388D01*
X187035860Y-54711863D01*
X187151760Y-54464884D01*
X187217250Y-54200040D01*
X187229812Y-53927508D01*
X187188965Y-53657762D01*
X187096277Y-53401168D01*
X187035860Y-53288137D01*
X186796993Y-53222612D01*
X186019605Y-54000000D01*
X185660395Y-54000000D01*
X185646253Y-53985858D01*
X185825858Y-53806253D01*
X185840000Y-53820395D01*
X186617388Y-53043007D01*
X186551863Y-52804140D01*
X186304884Y-52688240D01*
X186040040Y-52622750D01*
X185767508Y-52610188D01*
X185497762Y-52651035D01*
X185241168Y-52743723D01*
X185128137Y-52804140D01*
X185095431Y-52923369D01*
X185080537Y-52895506D01*
X185001185Y-52798815D01*
X184904494Y-52719463D01*
X184794180Y-52660498D01*
X184674482Y-52624188D01*
X184550000Y-52611928D01*
X183050000Y-52611928D01*
X182925518Y-52624188D01*
X182805820Y-52660498D01*
X182695506Y-52719463D01*
X182598815Y-52798815D01*
X182519463Y-52895506D01*
X182460498Y-53005820D01*
X182424188Y-53125518D01*
X182411928Y-53250000D01*
X180223177Y-53250000D01*
X180467871Y-53086500D01*
X180716500Y-52837871D01*
X180911847Y-52545515D01*
X181046404Y-52220665D01*
X181115000Y-51875807D01*
X181115000Y-51524193D01*
X189545000Y-51524193D01*
X189545000Y-51875807D01*
X189613596Y-52220665D01*
X189748153Y-52545515D01*
X189943500Y-52837871D01*
X190192129Y-53086500D01*
X190484485Y-53281847D01*
X190809335Y-53416404D01*
X191154193Y-53485000D01*
X191505807Y-53485000D01*
X191850665Y-53416404D01*
X192175515Y-53281847D01*
X192467871Y-53086500D01*
X192716500Y-52837871D01*
X192911847Y-52545515D01*
X193046404Y-52220665D01*
X193115000Y-51875807D01*
X193115000Y-51574193D01*
X193945000Y-51574193D01*
X193945000Y-51925807D01*
X194013596Y-52270665D01*
X194148153Y-52595515D01*
X194343500Y-52887871D01*
X194592129Y-53136500D01*
X194884485Y-53331847D01*
X195209335Y-53466404D01*
X195554193Y-53535000D01*
X195905807Y-53535000D01*
X196250665Y-53466404D01*
X196575515Y-53331847D01*
X196623177Y-53300000D01*
X198811928Y-53300000D01*
X198811928Y-54800000D01*
X198824188Y-54924482D01*
X198860498Y-55044180D01*
X198919463Y-55154494D01*
X198998815Y-55251185D01*
X199095506Y-55330537D01*
X199205820Y-55389502D01*
X199325518Y-55425812D01*
X199450000Y-55438072D01*
X200451049Y-55438072D01*
X200337114Y-55514201D01*
X200144201Y-55707114D01*
X199992629Y-55933957D01*
X199888225Y-56186011D01*
X199835000Y-56453589D01*
X199835000Y-56726411D01*
X199888225Y-56993989D01*
X199992629Y-57246043D01*
X200144201Y-57472886D01*
X200337114Y-57665799D01*
X200563957Y-57817371D01*
X200816011Y-57921775D01*
X201083589Y-57975000D01*
X201356411Y-57975000D01*
X201623989Y-57921775D01*
X201876043Y-57817371D01*
X202102886Y-57665799D01*
X202240000Y-57528685D01*
X202377114Y-57665799D01*
X202603957Y-57817371D01*
X202856011Y-57921775D01*
X203123589Y-57975000D01*
X203396411Y-57975000D01*
X203663989Y-57921775D01*
X203916043Y-57817371D01*
X204142886Y-57665799D01*
X204335799Y-57472886D01*
X204487371Y-57246043D01*
X204591775Y-56993989D01*
X204645000Y-56726411D01*
X204645000Y-56453589D01*
X204591775Y-56186011D01*
X204487371Y-55933957D01*
X204335799Y-55707114D01*
X204142886Y-55514201D01*
X203916043Y-55362629D01*
X203663989Y-55258225D01*
X203396411Y-55205000D01*
X203123589Y-55205000D01*
X202953807Y-55238772D01*
X203017388Y-55006993D01*
X202240000Y-54229605D01*
X202225858Y-54243748D01*
X202046253Y-54064143D01*
X202060395Y-54050000D01*
X202419605Y-54050000D01*
X203196993Y-54827388D01*
X203435860Y-54761863D01*
X203551760Y-54514884D01*
X203617250Y-54250040D01*
X203629812Y-53977508D01*
X203588965Y-53707762D01*
X203496277Y-53451168D01*
X203435860Y-53338137D01*
X203196993Y-53272612D01*
X202419605Y-54050000D01*
X202060395Y-54050000D01*
X202046253Y-54035858D01*
X202225858Y-53856253D01*
X202240000Y-53870395D01*
X203017388Y-53093007D01*
X202951863Y-52854140D01*
X202704884Y-52738240D01*
X202440040Y-52672750D01*
X202167508Y-52660188D01*
X201897762Y-52701035D01*
X201641168Y-52793723D01*
X201528137Y-52854140D01*
X201495431Y-52973369D01*
X201480537Y-52945506D01*
X201401185Y-52848815D01*
X201304494Y-52769463D01*
X201194180Y-52710498D01*
X201074482Y-52674188D01*
X200950000Y-52661928D01*
X199450000Y-52661928D01*
X199325518Y-52674188D01*
X199205820Y-52710498D01*
X199095506Y-52769463D01*
X198998815Y-52848815D01*
X198919463Y-52945506D01*
X198860498Y-53055820D01*
X198824188Y-53175518D01*
X198811928Y-53300000D01*
X196623177Y-53300000D01*
X196867871Y-53136500D01*
X197116500Y-52887871D01*
X197311847Y-52595515D01*
X197446404Y-52270665D01*
X197515000Y-51925807D01*
X197515000Y-51574193D01*
X205945000Y-51574193D01*
X205945000Y-51925807D01*
X206013596Y-52270665D01*
X206148153Y-52595515D01*
X206343500Y-52887871D01*
X206592129Y-53136500D01*
X206884485Y-53331847D01*
X207209335Y-53466404D01*
X207554193Y-53535000D01*
X207905807Y-53535000D01*
X208250665Y-53466404D01*
X208575515Y-53331847D01*
X208867871Y-53136500D01*
X209116500Y-52887871D01*
X209311847Y-52595515D01*
X209446404Y-52270665D01*
X209515000Y-51925807D01*
X209515000Y-51574193D01*
X209446404Y-51229335D01*
X209311847Y-50904485D01*
X209116500Y-50612129D01*
X208867871Y-50363500D01*
X208575515Y-50168153D01*
X208250665Y-50033596D01*
X207905807Y-49965000D01*
X207554193Y-49965000D01*
X207209335Y-50033596D01*
X206884485Y-50168153D01*
X206592129Y-50363500D01*
X206343500Y-50612129D01*
X206148153Y-50904485D01*
X206013596Y-51229335D01*
X205945000Y-51574193D01*
X197515000Y-51574193D01*
X197446404Y-51229335D01*
X197311847Y-50904485D01*
X197116500Y-50612129D01*
X196867871Y-50363500D01*
X196575515Y-50168153D01*
X196250665Y-50033596D01*
X195905807Y-49965000D01*
X195554193Y-49965000D01*
X195209335Y-50033596D01*
X194884485Y-50168153D01*
X194592129Y-50363500D01*
X194343500Y-50612129D01*
X194148153Y-50904485D01*
X194013596Y-51229335D01*
X193945000Y-51574193D01*
X193115000Y-51574193D01*
X193115000Y-51524193D01*
X193046404Y-51179335D01*
X192911847Y-50854485D01*
X192716500Y-50562129D01*
X192467871Y-50313500D01*
X192175515Y-50118153D01*
X191850665Y-49983596D01*
X191505807Y-49915000D01*
X191154193Y-49915000D01*
X190809335Y-49983596D01*
X190484485Y-50118153D01*
X190192129Y-50313500D01*
X189943500Y-50562129D01*
X189748153Y-50854485D01*
X189613596Y-51179335D01*
X189545000Y-51524193D01*
X181115000Y-51524193D01*
X181046404Y-51179335D01*
X180911847Y-50854485D01*
X180716500Y-50562129D01*
X180467871Y-50313500D01*
X180175515Y-50118153D01*
X179850665Y-49983596D01*
X179505807Y-49915000D01*
X179154193Y-49915000D01*
X178809335Y-49983596D01*
X178484485Y-50118153D01*
X178192129Y-50313500D01*
X177943500Y-50562129D01*
X177748153Y-50854485D01*
X177613596Y-51179335D01*
X177545000Y-51524193D01*
X177115000Y-51524193D01*
X177046404Y-51179335D01*
X176911847Y-50854485D01*
X176716500Y-50562129D01*
X176467871Y-50313500D01*
X176175515Y-50118153D01*
X175850665Y-49983596D01*
X175505807Y-49915000D01*
X175154193Y-49915000D01*
X174809335Y-49983596D01*
X174484485Y-50118153D01*
X174192129Y-50313500D01*
X173943500Y-50562129D01*
X173748153Y-50854485D01*
X173613596Y-51179335D01*
X173545000Y-51524193D01*
X165115000Y-51524193D01*
X165046404Y-51179335D01*
X164911847Y-50854485D01*
X164716500Y-50562129D01*
X164467871Y-50313500D01*
X164175515Y-50118153D01*
X163850665Y-49983596D01*
X163505807Y-49915000D01*
X163154193Y-49915000D01*
X162809335Y-49983596D01*
X162484485Y-50118153D01*
X162192129Y-50313500D01*
X161943500Y-50562129D01*
X161748153Y-50854485D01*
X161613596Y-51179335D01*
X161545000Y-51524193D01*
X161115000Y-51524193D01*
X161046404Y-51179335D01*
X160911847Y-50854485D01*
X160716500Y-50562129D01*
X160467871Y-50313500D01*
X160175515Y-50118153D01*
X159850665Y-49983596D01*
X159505807Y-49915000D01*
X159154193Y-49915000D01*
X158809335Y-49983596D01*
X158484485Y-50118153D01*
X158192129Y-50313500D01*
X157943500Y-50562129D01*
X157748153Y-50854485D01*
X157613596Y-51179335D01*
X157545000Y-51524193D01*
X149115000Y-51524193D01*
X149046404Y-51179335D01*
X148911847Y-50854485D01*
X148716500Y-50562129D01*
X148467871Y-50313500D01*
X148175515Y-50118153D01*
X147850665Y-49983596D01*
X147505807Y-49915000D01*
X147154193Y-49915000D01*
X146809335Y-49983596D01*
X146484485Y-50118153D01*
X146192129Y-50313500D01*
X145943500Y-50562129D01*
X145748153Y-50854485D01*
X145613596Y-51179335D01*
X145545000Y-51524193D01*
X145115000Y-51524193D01*
X145046404Y-51179335D01*
X144911847Y-50854485D01*
X144716500Y-50562129D01*
X144467871Y-50313500D01*
X144175515Y-50118153D01*
X143850665Y-49983596D01*
X143505807Y-49915000D01*
X143154193Y-49915000D01*
X142809335Y-49983596D01*
X142484485Y-50118153D01*
X142192129Y-50313500D01*
X141943500Y-50562129D01*
X141748153Y-50854485D01*
X141613596Y-51179335D01*
X141545000Y-51524193D01*
X133115000Y-51524193D01*
X133046404Y-51179335D01*
X132911847Y-50854485D01*
X132716500Y-50562129D01*
X132467871Y-50313500D01*
X132175515Y-50118153D01*
X131850665Y-49983596D01*
X131505807Y-49915000D01*
X131154193Y-49915000D01*
X130809335Y-49983596D01*
X130484485Y-50118153D01*
X130192129Y-50313500D01*
X129943500Y-50562129D01*
X129748153Y-50854485D01*
X129613596Y-51179335D01*
X129545000Y-51524193D01*
X123710000Y-51524193D01*
X123710000Y-48109696D01*
X123741331Y-48130631D01*
X124148075Y-48299110D01*
X124579872Y-48385000D01*
X125020128Y-48385000D01*
X125451925Y-48299110D01*
X125858669Y-48130631D01*
X126224729Y-47886038D01*
X126536038Y-47574729D01*
X126780631Y-47208669D01*
X126949110Y-46801925D01*
X127035000Y-46370128D01*
X127035000Y-45929872D01*
X126949110Y-45498075D01*
X126788364Y-45110000D01*
X214890757Y-45110000D01*
X214669369Y-45441331D01*
G04 #@! TA.AperFunction,Conductor*
D13*
G36*
X214669369Y-45441331D02*
G01*
X214500890Y-45848075D01*
X214415000Y-46279872D01*
X214415000Y-46720128D01*
X214500890Y-47151925D01*
X214669369Y-47558669D01*
X214913962Y-47924729D01*
X215225271Y-48236038D01*
X215591331Y-48480631D01*
X215998075Y-48649110D01*
X216429872Y-48735000D01*
X216870128Y-48735000D01*
X217301925Y-48649110D01*
X217708669Y-48480631D01*
X217840000Y-48392879D01*
X217840001Y-103790304D01*
X217808669Y-103769369D01*
X217401925Y-103600890D01*
X216970128Y-103515000D01*
X216529872Y-103515000D01*
X216098075Y-103600890D01*
X215691331Y-103769369D01*
X215325271Y-104013962D01*
X215013962Y-104325271D01*
X214769369Y-104691331D01*
X214600890Y-105098075D01*
X214515000Y-105529872D01*
X214515000Y-105970128D01*
X214600890Y-106401925D01*
X214769369Y-106808669D01*
X214790304Y-106840000D01*
X126892879Y-106840000D01*
X126980631Y-106708669D01*
X127149110Y-106301925D01*
X127235000Y-105870128D01*
X127235000Y-105429872D01*
X127149110Y-104998075D01*
X126980631Y-104591331D01*
X126736038Y-104225271D01*
X126424729Y-103913962D01*
X126058669Y-103669369D01*
X125651925Y-103500890D01*
X125220128Y-103415000D01*
X124779872Y-103415000D01*
X124348075Y-103500890D01*
X123941331Y-103669369D01*
X123710000Y-103823939D01*
X123710000Y-100404193D01*
X129505000Y-100404193D01*
X129505000Y-100755807D01*
X129573596Y-101100665D01*
X129708153Y-101425515D01*
X129903500Y-101717871D01*
X130152129Y-101966500D01*
X130444485Y-102161847D01*
X130769335Y-102296404D01*
X131114193Y-102365000D01*
X131465807Y-102365000D01*
X131810665Y-102296404D01*
X132135515Y-102161847D01*
X132427871Y-101966500D01*
X132676500Y-101717871D01*
X132871847Y-101425515D01*
X133006404Y-101100665D01*
X133075000Y-100755807D01*
X133075000Y-100404193D01*
X141505000Y-100404193D01*
X141505000Y-100755807D01*
X141573596Y-101100665D01*
X141708153Y-101425515D01*
X141903500Y-101717871D01*
X142152129Y-101966500D01*
X142444485Y-102161847D01*
X142769335Y-102296404D01*
X143114193Y-102365000D01*
X143465807Y-102365000D01*
X143810665Y-102296404D01*
X144135515Y-102161847D01*
X144427871Y-101966500D01*
X144676500Y-101717871D01*
X144871847Y-101425515D01*
X145006404Y-101100665D01*
X145075000Y-100755807D01*
X145075000Y-100404193D01*
X145071022Y-100384193D01*
X145595000Y-100384193D01*
X145595000Y-100735807D01*
X145663596Y-101080665D01*
X145798153Y-101405515D01*
X145993500Y-101697871D01*
X146242129Y-101946500D01*
X146534485Y-102141847D01*
X146859335Y-102276404D01*
X147204193Y-102345000D01*
X147555807Y-102345000D01*
X147900665Y-102276404D01*
X148225515Y-102141847D01*
X148517871Y-101946500D01*
X148766500Y-101697871D01*
X148961847Y-101405515D01*
X149096404Y-101080665D01*
X149165000Y-100735807D01*
X149165000Y-100384193D01*
X157595000Y-100384193D01*
X157595000Y-100735807D01*
X157663596Y-101080665D01*
X157798153Y-101405515D01*
X157993500Y-101697871D01*
X158242129Y-101946500D01*
X158534485Y-102141847D01*
X158859335Y-102276404D01*
X159204193Y-102345000D01*
X159555807Y-102345000D01*
X159900665Y-102276404D01*
X160225515Y-102141847D01*
X160517871Y-101946500D01*
X160766500Y-101697871D01*
X160961847Y-101405515D01*
X161096404Y-101080665D01*
X161165000Y-100735807D01*
X161165000Y-100404193D01*
X161625000Y-100404193D01*
X161625000Y-100755807D01*
X161693596Y-101100665D01*
X161828153Y-101425515D01*
X162023500Y-101717871D01*
X162272129Y-101966500D01*
X162564485Y-102161847D01*
X162889335Y-102296404D01*
X163234193Y-102365000D01*
X163585807Y-102365000D01*
X163930665Y-102296404D01*
X164255515Y-102161847D01*
X164547871Y-101966500D01*
X164796500Y-101717871D01*
X164991847Y-101425515D01*
X165126404Y-101100665D01*
X165195000Y-100755807D01*
X165195000Y-100404193D01*
X173625000Y-100404193D01*
X173625000Y-100755807D01*
X173693596Y-101100665D01*
X173828153Y-101425515D01*
X174023500Y-101717871D01*
X174272129Y-101966500D01*
X174564485Y-102161847D01*
X174889335Y-102296404D01*
X175234193Y-102365000D01*
X175585807Y-102365000D01*
X175930665Y-102296404D01*
X176255515Y-102161847D01*
X176547871Y-101966500D01*
X176796500Y-101717871D01*
X176991847Y-101425515D01*
X177126404Y-101100665D01*
X177195000Y-100755807D01*
X177195000Y-100404193D01*
X177191022Y-100384193D01*
X177585000Y-100384193D01*
X177585000Y-100735807D01*
X177653596Y-101080665D01*
X177788153Y-101405515D01*
X177983500Y-101697871D01*
X178232129Y-101946500D01*
X178524485Y-102141847D01*
X178849335Y-102276404D01*
X179194193Y-102345000D01*
X179545807Y-102345000D01*
X179890665Y-102276404D01*
X180215515Y-102141847D01*
X180507871Y-101946500D01*
X180756500Y-101697871D01*
X180951847Y-101405515D01*
X181086404Y-101080665D01*
X181155000Y-100735807D01*
X181155000Y-100384193D01*
X189585000Y-100384193D01*
X189585000Y-100735807D01*
X189653596Y-101080665D01*
X189788153Y-101405515D01*
X189983500Y-101697871D01*
X190232129Y-101946500D01*
X190524485Y-102141847D01*
X190849335Y-102276404D01*
X191194193Y-102345000D01*
X191545807Y-102345000D01*
X191890665Y-102276404D01*
X192215515Y-102141847D01*
X192507871Y-101946500D01*
X192756500Y-101697871D01*
X192951847Y-101405515D01*
X193086404Y-101080665D01*
X193155000Y-100735807D01*
X193155000Y-100394193D01*
X193885000Y-100394193D01*
X193885000Y-100745807D01*
X193953596Y-101090665D01*
X194088153Y-101415515D01*
X194283500Y-101707871D01*
X194532129Y-101956500D01*
X194824485Y-102151847D01*
X195149335Y-102286404D01*
X195494193Y-102355000D01*
X195845807Y-102355000D01*
X196190665Y-102286404D01*
X196515515Y-102151847D01*
X196807871Y-101956500D01*
X197056500Y-101707871D01*
X197251847Y-101415515D01*
X197386404Y-101090665D01*
X197455000Y-100745807D01*
X197455000Y-100394193D01*
X205885000Y-100394193D01*
X205885000Y-100745807D01*
X205953596Y-101090665D01*
X206088153Y-101415515D01*
X206283500Y-101707871D01*
X206532129Y-101956500D01*
X206824485Y-102151847D01*
X207149335Y-102286404D01*
X207494193Y-102355000D01*
X207845807Y-102355000D01*
X208190665Y-102286404D01*
X208515515Y-102151847D01*
X208807871Y-101956500D01*
X209056500Y-101707871D01*
X209251847Y-101415515D01*
X209386404Y-101090665D01*
X209455000Y-100745807D01*
X209455000Y-100394193D01*
X209386404Y-100049335D01*
X209251847Y-99724485D01*
X209056500Y-99432129D01*
X208807871Y-99183500D01*
X208515515Y-98988153D01*
X208190665Y-98853596D01*
X207845807Y-98785000D01*
X207494193Y-98785000D01*
X207149335Y-98853596D01*
X206824485Y-98988153D01*
X206532129Y-99183500D01*
X206283500Y-99432129D01*
X206088153Y-99724485D01*
X205953596Y-100049335D01*
X205885000Y-100394193D01*
X197455000Y-100394193D01*
X197386404Y-100049335D01*
X197251847Y-99724485D01*
X197056500Y-99432129D01*
X196807871Y-99183500D01*
X196515515Y-98988153D01*
X196190665Y-98853596D01*
X195845807Y-98785000D01*
X195494193Y-98785000D01*
X195149335Y-98853596D01*
X194824485Y-98988153D01*
X194532129Y-99183500D01*
X194283500Y-99432129D01*
X194088153Y-99724485D01*
X193953596Y-100049335D01*
X193885000Y-100394193D01*
X193155000Y-100394193D01*
X193155000Y-100384193D01*
X193086404Y-100039335D01*
X192951847Y-99714485D01*
X192756500Y-99422129D01*
X192507871Y-99173500D01*
X192215515Y-98978153D01*
X191890665Y-98843596D01*
X191545807Y-98775000D01*
X191194193Y-98775000D01*
X190849335Y-98843596D01*
X190524485Y-98978153D01*
X190232129Y-99173500D01*
X189983500Y-99422129D01*
X189788153Y-99714485D01*
X189653596Y-100039335D01*
X189585000Y-100384193D01*
X181155000Y-100384193D01*
X181086404Y-100039335D01*
X180951847Y-99714485D01*
X180756500Y-99422129D01*
X180507871Y-99173500D01*
X180215515Y-98978153D01*
X179890665Y-98843596D01*
X179545807Y-98775000D01*
X179194193Y-98775000D01*
X178849335Y-98843596D01*
X178524485Y-98978153D01*
X178232129Y-99173500D01*
X177983500Y-99422129D01*
X177788153Y-99714485D01*
X177653596Y-100039335D01*
X177585000Y-100384193D01*
X177191022Y-100384193D01*
X177126404Y-100059335D01*
X176991847Y-99734485D01*
X176796500Y-99442129D01*
X176547871Y-99193500D01*
X176255515Y-98998153D01*
X175930665Y-98863596D01*
X175585807Y-98795000D01*
X175234193Y-98795000D01*
X174889335Y-98863596D01*
X174564485Y-98998153D01*
X174272129Y-99193500D01*
X174023500Y-99442129D01*
X173828153Y-99734485D01*
X173693596Y-100059335D01*
X173625000Y-100404193D01*
X165195000Y-100404193D01*
X165126404Y-100059335D01*
X164991847Y-99734485D01*
X164796500Y-99442129D01*
X164547871Y-99193500D01*
X164255515Y-98998153D01*
X163930665Y-98863596D01*
X163585807Y-98795000D01*
X163234193Y-98795000D01*
X162889335Y-98863596D01*
X162564485Y-98998153D01*
X162272129Y-99193500D01*
X162023500Y-99442129D01*
X161828153Y-99734485D01*
X161693596Y-100059335D01*
X161625000Y-100404193D01*
X161165000Y-100404193D01*
X161165000Y-100384193D01*
X161096404Y-100039335D01*
X160961847Y-99714485D01*
X160766500Y-99422129D01*
X160517871Y-99173500D01*
X160225515Y-98978153D01*
X159900665Y-98843596D01*
X159555807Y-98775000D01*
X159204193Y-98775000D01*
X158859335Y-98843596D01*
X158534485Y-98978153D01*
X158242129Y-99173500D01*
X157993500Y-99422129D01*
X157798153Y-99714485D01*
X157663596Y-100039335D01*
X157595000Y-100384193D01*
X149165000Y-100384193D01*
X149096404Y-100039335D01*
X148961847Y-99714485D01*
X148766500Y-99422129D01*
X148517871Y-99173500D01*
X148225515Y-98978153D01*
X147900665Y-98843596D01*
X147555807Y-98775000D01*
X147204193Y-98775000D01*
X146859335Y-98843596D01*
X146534485Y-98978153D01*
X146242129Y-99173500D01*
X145993500Y-99422129D01*
X145798153Y-99714485D01*
X145663596Y-100039335D01*
X145595000Y-100384193D01*
X145071022Y-100384193D01*
X145006404Y-100059335D01*
X144871847Y-99734485D01*
X144676500Y-99442129D01*
X144427871Y-99193500D01*
X144135515Y-98998153D01*
X143810665Y-98863596D01*
X143465807Y-98795000D01*
X143114193Y-98795000D01*
X142769335Y-98863596D01*
X142444485Y-98998153D01*
X142152129Y-99193500D01*
X141903500Y-99442129D01*
X141708153Y-99734485D01*
X141573596Y-100059335D01*
X141505000Y-100404193D01*
X133075000Y-100404193D01*
X133006404Y-100059335D01*
X132871847Y-99734485D01*
X132676500Y-99442129D01*
X132427871Y-99193500D01*
X132135515Y-98998153D01*
X131810665Y-98863596D01*
X131465807Y-98795000D01*
X131114193Y-98795000D01*
X130769335Y-98863596D01*
X130444485Y-98998153D01*
X130152129Y-99193500D01*
X129903500Y-99442129D01*
X129708153Y-99734485D01*
X129573596Y-100059335D01*
X129505000Y-100404193D01*
X123710000Y-100404193D01*
X123710000Y-98352492D01*
X135390188Y-98352492D01*
X135431035Y-98622238D01*
X135523723Y-98878832D01*
X135584140Y-98991863D01*
X135823007Y-99057388D01*
X136600395Y-98280000D01*
X135823007Y-97502612D01*
X135584140Y-97568137D01*
X135468240Y-97815116D01*
X135402750Y-98079960D01*
X135390188Y-98352492D01*
X123710000Y-98352492D01*
X123710000Y-95603589D01*
X134375000Y-95603589D01*
X134375000Y-95876411D01*
X134428225Y-96143989D01*
X134532629Y-96396043D01*
X134684201Y-96622886D01*
X134877114Y-96815799D01*
X135103957Y-96967371D01*
X135356011Y-97071775D01*
X135623589Y-97125000D01*
X135896411Y-97125000D01*
X136066193Y-97091228D01*
X136002612Y-97323007D01*
X136780000Y-98100395D01*
X136794143Y-98086253D01*
X136973748Y-98265858D01*
X136959605Y-98280000D01*
X136973748Y-98294143D01*
X136794143Y-98473748D01*
X136780000Y-98459605D01*
X136002612Y-99236993D01*
X136068137Y-99475860D01*
X136315116Y-99591760D01*
X136579960Y-99657250D01*
X136852492Y-99669812D01*
X137122238Y-99628965D01*
X137378832Y-99536277D01*
X137491863Y-99475860D01*
X137524569Y-99356631D01*
X137539463Y-99384494D01*
X137618815Y-99481185D01*
X137715506Y-99560537D01*
X137825820Y-99619502D01*
X137945518Y-99655812D01*
X138070000Y-99668072D01*
X139570000Y-99668072D01*
X139694482Y-99655812D01*
X139814180Y-99619502D01*
X139924494Y-99560537D01*
X140021185Y-99481185D01*
X140100537Y-99384494D01*
X140159502Y-99274180D01*
X140195812Y-99154482D01*
X140208072Y-99030000D01*
X140208072Y-98332492D01*
X151480188Y-98332492D01*
X151521035Y-98602238D01*
X151613723Y-98858832D01*
X151674140Y-98971863D01*
X151913007Y-99037388D01*
X152690395Y-98260000D01*
X151913007Y-97482612D01*
X151674140Y-97548137D01*
X151558240Y-97795116D01*
X151492750Y-98059960D01*
X151480188Y-98332492D01*
X140208072Y-98332492D01*
X140208072Y-97530000D01*
X140195812Y-97405518D01*
X140159502Y-97285820D01*
X140100537Y-97175506D01*
X140021185Y-97078815D01*
X139924494Y-96999463D01*
X139814180Y-96940498D01*
X139694482Y-96904188D01*
X139570000Y-96891928D01*
X138568951Y-96891928D01*
X138682886Y-96815799D01*
X138875799Y-96622886D01*
X139027371Y-96396043D01*
X139131775Y-96143989D01*
X139185000Y-95876411D01*
X139185000Y-95603589D01*
X139181022Y-95583589D01*
X150465000Y-95583589D01*
X150465000Y-95856411D01*
X150518225Y-96123989D01*
X150622629Y-96376043D01*
X150774201Y-96602886D01*
X150967114Y-96795799D01*
X151193957Y-96947371D01*
X151446011Y-97051775D01*
X151713589Y-97105000D01*
X151986411Y-97105000D01*
X152156193Y-97071228D01*
X152092612Y-97303007D01*
X152870000Y-98080395D01*
X152884143Y-98066253D01*
X153063748Y-98245858D01*
X153049605Y-98260000D01*
X153063748Y-98274143D01*
X152884143Y-98453748D01*
X152870000Y-98439605D01*
X152092612Y-99216993D01*
X152158137Y-99455860D01*
X152405116Y-99571760D01*
X152669960Y-99637250D01*
X152942492Y-99649812D01*
X153212238Y-99608965D01*
X153468832Y-99516277D01*
X153581863Y-99455860D01*
X153614569Y-99336631D01*
X153629463Y-99364494D01*
X153708815Y-99461185D01*
X153805506Y-99540537D01*
X153915820Y-99599502D01*
X154035518Y-99635812D01*
X154160000Y-99648072D01*
X155660000Y-99648072D01*
X155784482Y-99635812D01*
X155904180Y-99599502D01*
X156014494Y-99540537D01*
X156111185Y-99461185D01*
X156190537Y-99364494D01*
X156249502Y-99254180D01*
X156285812Y-99134482D01*
X156298072Y-99010000D01*
X156298072Y-98352492D01*
X167510188Y-98352492D01*
X167551035Y-98622238D01*
X167643723Y-98878832D01*
X167704140Y-98991863D01*
X167943007Y-99057388D01*
X168720395Y-98280000D01*
X167943007Y-97502612D01*
X167704140Y-97568137D01*
X167588240Y-97815116D01*
X167522750Y-98079960D01*
X167510188Y-98352492D01*
X156298072Y-98352492D01*
X156298072Y-97510000D01*
X156285812Y-97385518D01*
X156249502Y-97265820D01*
X156190537Y-97155506D01*
X156111185Y-97058815D01*
X156014494Y-96979463D01*
X155904180Y-96920498D01*
X155784482Y-96884188D01*
X155660000Y-96871928D01*
X154658951Y-96871928D01*
X154772886Y-96795799D01*
X154965799Y-96602886D01*
X155117371Y-96376043D01*
X155221775Y-96123989D01*
X155275000Y-95856411D01*
X155275000Y-95603589D01*
X166495000Y-95603589D01*
X166495000Y-95876411D01*
X166548225Y-96143989D01*
X166652629Y-96396043D01*
X166804201Y-96622886D01*
X166997114Y-96815799D01*
X167223957Y-96967371D01*
X167476011Y-97071775D01*
X167743589Y-97125000D01*
X168016411Y-97125000D01*
X168186193Y-97091228D01*
X168122612Y-97323007D01*
X168900000Y-98100395D01*
X168914143Y-98086253D01*
X169093748Y-98265858D01*
X169079605Y-98280000D01*
X169093748Y-98294143D01*
X168914143Y-98473748D01*
X168900000Y-98459605D01*
X168122612Y-99236993D01*
X168188137Y-99475860D01*
X168435116Y-99591760D01*
X168699960Y-99657250D01*
X168972492Y-99669812D01*
X169242238Y-99628965D01*
X169498832Y-99536277D01*
X169611863Y-99475860D01*
X169644569Y-99356631D01*
X169659463Y-99384494D01*
X169738815Y-99481185D01*
X169835506Y-99560537D01*
X169945820Y-99619502D01*
X170065518Y-99655812D01*
X170190000Y-99668072D01*
X171690000Y-99668072D01*
X171814482Y-99655812D01*
X171934180Y-99619502D01*
X172044494Y-99560537D01*
X172141185Y-99481185D01*
X172220537Y-99384494D01*
X172279502Y-99274180D01*
X172315812Y-99154482D01*
X172328072Y-99030000D01*
X172328072Y-98332492D01*
X183470188Y-98332492D01*
X183511035Y-98602238D01*
X183603723Y-98858832D01*
X183664140Y-98971863D01*
X183903007Y-99037388D01*
X184680395Y-98260000D01*
X183903007Y-97482612D01*
X183664140Y-97548137D01*
X183548240Y-97795116D01*
X183482750Y-98059960D01*
X183470188Y-98332492D01*
X172328072Y-98332492D01*
X172328072Y-97530000D01*
X172315812Y-97405518D01*
X172279502Y-97285820D01*
X172220537Y-97175506D01*
X172141185Y-97078815D01*
X172044494Y-96999463D01*
X171934180Y-96940498D01*
X171814482Y-96904188D01*
X171690000Y-96891928D01*
X170688951Y-96891928D01*
X170802886Y-96815799D01*
X170995799Y-96622886D01*
X171147371Y-96396043D01*
X171251775Y-96143989D01*
X171305000Y-95876411D01*
X171305000Y-95603589D01*
X171301022Y-95583589D01*
X182455000Y-95583589D01*
X182455000Y-95856411D01*
X182508225Y-96123989D01*
X182612629Y-96376043D01*
X182764201Y-96602886D01*
X182957114Y-96795799D01*
X183183957Y-96947371D01*
X183436011Y-97051775D01*
X183703589Y-97105000D01*
X183976411Y-97105000D01*
X184146193Y-97071228D01*
X184082612Y-97303007D01*
X184860000Y-98080395D01*
X184874143Y-98066253D01*
X185053748Y-98245858D01*
X185039605Y-98260000D01*
X185053748Y-98274143D01*
X184874143Y-98453748D01*
X184860000Y-98439605D01*
X184082612Y-99216993D01*
X184148137Y-99455860D01*
X184395116Y-99571760D01*
X184659960Y-99637250D01*
X184932492Y-99649812D01*
X185202238Y-99608965D01*
X185458832Y-99516277D01*
X185571863Y-99455860D01*
X185604569Y-99336631D01*
X185619463Y-99364494D01*
X185698815Y-99461185D01*
X185795506Y-99540537D01*
X185905820Y-99599502D01*
X186025518Y-99635812D01*
X186150000Y-99648072D01*
X187650000Y-99648072D01*
X187774482Y-99635812D01*
X187894180Y-99599502D01*
X188004494Y-99540537D01*
X188101185Y-99461185D01*
X188180537Y-99364494D01*
X188239502Y-99254180D01*
X188275812Y-99134482D01*
X188288072Y-99010000D01*
X188288072Y-98342492D01*
X199770188Y-98342492D01*
X199811035Y-98612238D01*
X199903723Y-98868832D01*
X199964140Y-98981863D01*
X200203007Y-99047388D01*
X200980395Y-98270000D01*
X200203007Y-97492612D01*
X199964140Y-97558137D01*
X199848240Y-97805116D01*
X199782750Y-98069960D01*
X199770188Y-98342492D01*
X188288072Y-98342492D01*
X188288072Y-97510000D01*
X188275812Y-97385518D01*
X188239502Y-97265820D01*
X188180537Y-97155506D01*
X188101185Y-97058815D01*
X188004494Y-96979463D01*
X187894180Y-96920498D01*
X187774482Y-96884188D01*
X187650000Y-96871928D01*
X186648951Y-96871928D01*
X186762886Y-96795799D01*
X186955799Y-96602886D01*
X187107371Y-96376043D01*
X187211775Y-96123989D01*
X187265000Y-95856411D01*
X187265000Y-95593589D01*
X198755000Y-95593589D01*
X198755000Y-95866411D01*
X198808225Y-96133989D01*
X198912629Y-96386043D01*
X199064201Y-96612886D01*
X199257114Y-96805799D01*
X199483957Y-96957371D01*
X199736011Y-97061775D01*
X200003589Y-97115000D01*
X200276411Y-97115000D01*
X200446193Y-97081228D01*
X200382612Y-97313007D01*
X201160000Y-98090395D01*
X201174143Y-98076253D01*
X201353748Y-98255858D01*
X201339605Y-98270000D01*
X201353748Y-98284143D01*
X201174143Y-98463748D01*
X201160000Y-98449605D01*
X200382612Y-99226993D01*
X200448137Y-99465860D01*
X200695116Y-99581760D01*
X200959960Y-99647250D01*
X201232492Y-99659812D01*
X201502238Y-99618965D01*
X201758832Y-99526277D01*
X201871863Y-99465860D01*
X201904569Y-99346631D01*
X201919463Y-99374494D01*
X201998815Y-99471185D01*
X202095506Y-99550537D01*
X202205820Y-99609502D01*
X202325518Y-99645812D01*
X202450000Y-99658072D01*
X203950000Y-99658072D01*
X204074482Y-99645812D01*
X204194180Y-99609502D01*
X204304494Y-99550537D01*
X204401185Y-99471185D01*
X204480537Y-99374494D01*
X204539502Y-99264180D01*
X204575812Y-99144482D01*
X204588072Y-99020000D01*
X204588072Y-97520000D01*
X204575812Y-97395518D01*
X204539502Y-97275820D01*
X204480537Y-97165506D01*
X204401185Y-97068815D01*
X204304494Y-96989463D01*
X204194180Y-96930498D01*
X204074482Y-96894188D01*
X203950000Y-96881928D01*
X202948951Y-96881928D01*
X203062886Y-96805799D01*
X203255799Y-96612886D01*
X203407371Y-96386043D01*
X203511775Y-96133989D01*
X203565000Y-95866411D01*
X203565000Y-95593589D01*
X203511775Y-95326011D01*
X203407371Y-95073957D01*
X203255799Y-94847114D01*
X203062886Y-94654201D01*
X202836043Y-94502629D01*
X202583989Y-94398225D01*
X202316411Y-94345000D01*
X202043589Y-94345000D01*
X201776011Y-94398225D01*
X201523957Y-94502629D01*
X201297114Y-94654201D01*
X201160000Y-94791315D01*
X201022886Y-94654201D01*
X200796043Y-94502629D01*
X200543989Y-94398225D01*
X200276411Y-94345000D01*
X200003589Y-94345000D01*
X199736011Y-94398225D01*
X199483957Y-94502629D01*
X199257114Y-94654201D01*
X199064201Y-94847114D01*
X198912629Y-95073957D01*
X198808225Y-95326011D01*
X198755000Y-95593589D01*
X187265000Y-95593589D01*
X187265000Y-95583589D01*
X187211775Y-95316011D01*
X187107371Y-95063957D01*
X186955799Y-94837114D01*
X186762886Y-94644201D01*
X186536043Y-94492629D01*
X186283989Y-94388225D01*
X186016411Y-94335000D01*
X185743589Y-94335000D01*
X185476011Y-94388225D01*
X185223957Y-94492629D01*
X184997114Y-94644201D01*
X184860000Y-94781315D01*
X184722886Y-94644201D01*
X184496043Y-94492629D01*
X184243989Y-94388225D01*
X183976411Y-94335000D01*
X183703589Y-94335000D01*
X183436011Y-94388225D01*
X183183957Y-94492629D01*
X182957114Y-94644201D01*
X182764201Y-94837114D01*
X182612629Y-95063957D01*
X182508225Y-95316011D01*
X182455000Y-95583589D01*
X171301022Y-95583589D01*
X171251775Y-95336011D01*
X171147371Y-95083957D01*
X170995799Y-94857114D01*
X170802886Y-94664201D01*
X170576043Y-94512629D01*
X170323989Y-94408225D01*
X170056411Y-94355000D01*
X169783589Y-94355000D01*
X169516011Y-94408225D01*
X169263957Y-94512629D01*
X169037114Y-94664201D01*
X168900000Y-94801315D01*
X168762886Y-94664201D01*
X168536043Y-94512629D01*
X168283989Y-94408225D01*
X168016411Y-94355000D01*
X167743589Y-94355000D01*
X167476011Y-94408225D01*
X167223957Y-94512629D01*
X166997114Y-94664201D01*
X166804201Y-94857114D01*
X166652629Y-95083957D01*
X166548225Y-95336011D01*
X166495000Y-95603589D01*
X155275000Y-95603589D01*
X155275000Y-95583589D01*
X155221775Y-95316011D01*
X155117371Y-95063957D01*
X154965799Y-94837114D01*
X154772886Y-94644201D01*
X154546043Y-94492629D01*
X154293989Y-94388225D01*
X154026411Y-94335000D01*
X153753589Y-94335000D01*
X153486011Y-94388225D01*
X153233957Y-94492629D01*
X153007114Y-94644201D01*
X152870000Y-94781315D01*
X152732886Y-94644201D01*
X152506043Y-94492629D01*
X152253989Y-94388225D01*
X151986411Y-94335000D01*
X151713589Y-94335000D01*
X151446011Y-94388225D01*
X151193957Y-94492629D01*
X150967114Y-94644201D01*
X150774201Y-94837114D01*
X150622629Y-95063957D01*
X150518225Y-95316011D01*
X150465000Y-95583589D01*
X139181022Y-95583589D01*
X139131775Y-95336011D01*
X139027371Y-95083957D01*
X138875799Y-94857114D01*
X138682886Y-94664201D01*
X138456043Y-94512629D01*
X138203989Y-94408225D01*
X137936411Y-94355000D01*
X137663589Y-94355000D01*
X137396011Y-94408225D01*
X137143957Y-94512629D01*
X136917114Y-94664201D01*
X136780000Y-94801315D01*
X136642886Y-94664201D01*
X136416043Y-94512629D01*
X136163989Y-94408225D01*
X135896411Y-94355000D01*
X135623589Y-94355000D01*
X135356011Y-94408225D01*
X135103957Y-94512629D01*
X134877114Y-94664201D01*
X134684201Y-94857114D01*
X134532629Y-95083957D01*
X134428225Y-95336011D01*
X134375000Y-95603589D01*
X123710000Y-95603589D01*
X123710000Y-89994193D01*
X127715000Y-89994193D01*
X127715000Y-90345807D01*
X127783596Y-90690665D01*
X127918153Y-91015515D01*
X128113500Y-91307871D01*
X128362129Y-91556500D01*
X128654485Y-91751847D01*
X128979335Y-91886404D01*
X129324193Y-91955000D01*
X129675807Y-91955000D01*
X130020665Y-91886404D01*
X130345515Y-91751847D01*
X130637871Y-91556500D01*
X130886500Y-91307871D01*
X131081847Y-91015515D01*
X131216404Y-90690665D01*
X131285000Y-90345807D01*
X131285000Y-89994193D01*
X131277044Y-89954193D01*
X209915000Y-89954193D01*
X209915000Y-90305807D01*
X209983596Y-90650665D01*
X210118153Y-90975515D01*
X210313500Y-91267871D01*
X210562129Y-91516500D01*
X210854485Y-91711847D01*
X211179335Y-91846404D01*
X211524193Y-91915000D01*
X211875807Y-91915000D01*
X212220665Y-91846404D01*
X212545515Y-91711847D01*
X212837871Y-91516500D01*
X213086500Y-91267871D01*
X213281847Y-90975515D01*
X213416404Y-90650665D01*
X213485000Y-90305807D01*
X213485000Y-89954193D01*
X213416404Y-89609335D01*
X213281847Y-89284485D01*
X213086500Y-88992129D01*
X212837871Y-88743500D01*
X212545515Y-88548153D01*
X212220665Y-88413596D01*
X211875807Y-88345000D01*
X211524193Y-88345000D01*
X211179335Y-88413596D01*
X210854485Y-88548153D01*
X210562129Y-88743500D01*
X210313500Y-88992129D01*
X210118153Y-89284485D01*
X209983596Y-89609335D01*
X209915000Y-89954193D01*
X131277044Y-89954193D01*
X131216404Y-89649335D01*
X131081847Y-89324485D01*
X130886500Y-89032129D01*
X130637871Y-88783500D01*
X130345515Y-88588153D01*
X130020665Y-88453596D01*
X129675807Y-88385000D01*
X129324193Y-88385000D01*
X128979335Y-88453596D01*
X128654485Y-88588153D01*
X128362129Y-88783500D01*
X128113500Y-89032129D01*
X127918153Y-89324485D01*
X127783596Y-89649335D01*
X127715000Y-89994193D01*
X123710000Y-89994193D01*
X123710000Y-83732492D01*
X130410188Y-83732492D01*
X130451035Y-84002238D01*
X130543723Y-84258832D01*
X130604140Y-84371863D01*
X130723369Y-84404569D01*
X130695506Y-84419463D01*
X130598815Y-84498815D01*
X130519463Y-84595506D01*
X130460498Y-84705820D01*
X130424188Y-84825518D01*
X130411928Y-84950000D01*
X130411928Y-86450000D01*
X130424188Y-86574482D01*
X130460498Y-86694180D01*
X130519463Y-86804494D01*
X130598815Y-86901185D01*
X130695506Y-86980537D01*
X130805820Y-87039502D01*
X130925518Y-87075812D01*
X131050000Y-87088072D01*
X132550000Y-87088072D01*
X132674482Y-87075812D01*
X132794180Y-87039502D01*
X132904494Y-86980537D01*
X133001185Y-86901185D01*
X133080537Y-86804494D01*
X133139502Y-86694180D01*
X133175812Y-86574482D01*
X133188072Y-86450000D01*
X133188072Y-85448951D01*
X133264201Y-85562886D01*
X133457114Y-85755799D01*
X133683957Y-85907371D01*
X133936011Y-86011775D01*
X134203589Y-86065000D01*
X134476411Y-86065000D01*
X134743989Y-86011775D01*
X134996043Y-85907371D01*
X135222886Y-85755799D01*
X135415799Y-85562886D01*
X135567371Y-85336043D01*
X135671775Y-85083989D01*
X135725000Y-84816411D01*
X135725000Y-84543589D01*
X135671775Y-84276011D01*
X135567371Y-84023957D01*
X135415799Y-83797114D01*
X135278685Y-83660000D01*
X135415799Y-83522886D01*
X135442056Y-83483589D01*
X205475000Y-83483589D01*
X205475000Y-83756411D01*
X205528225Y-84023989D01*
X205632629Y-84276043D01*
X205784201Y-84502886D01*
X205921315Y-84640000D01*
X205784201Y-84777114D01*
X205632629Y-85003957D01*
X205528225Y-85256011D01*
X205475000Y-85523589D01*
X205475000Y-85796411D01*
X205528225Y-86063989D01*
X205632629Y-86316043D01*
X205784201Y-86542886D01*
X205977114Y-86735799D01*
X206203957Y-86887371D01*
X206456011Y-86991775D01*
X206723589Y-87045000D01*
X206996411Y-87045000D01*
X207263989Y-86991775D01*
X207516043Y-86887371D01*
X207742886Y-86735799D01*
X207935799Y-86542886D01*
X208087371Y-86316043D01*
X208191775Y-86063989D01*
X208245000Y-85796411D01*
X208245000Y-85596993D01*
X208622612Y-85596993D01*
X208688137Y-85835860D01*
X208935116Y-85951760D01*
X209199960Y-86017250D01*
X209472492Y-86029812D01*
X209742238Y-85988965D01*
X209998832Y-85896277D01*
X210111863Y-85835860D01*
X210177388Y-85596993D01*
X209400000Y-84819605D01*
X208622612Y-85596993D01*
X208245000Y-85596993D01*
X208245000Y-85523589D01*
X208211228Y-85353807D01*
X208443007Y-85417388D01*
X209220395Y-84640000D01*
X209206253Y-84625858D01*
X209385858Y-84446253D01*
X209400000Y-84460395D01*
X209414143Y-84446253D01*
X209593748Y-84625858D01*
X209579605Y-84640000D01*
X210356993Y-85417388D01*
X210595860Y-85351863D01*
X210711760Y-85104884D01*
X210777250Y-84840040D01*
X210789812Y-84567508D01*
X210748965Y-84297762D01*
X210656277Y-84041168D01*
X210595860Y-83928137D01*
X210476631Y-83895431D01*
X210504494Y-83880537D01*
X210601185Y-83801185D01*
X210680537Y-83704494D01*
X210739502Y-83594180D01*
X210775812Y-83474482D01*
X210788072Y-83350000D01*
X210788072Y-81850000D01*
X210775812Y-81725518D01*
X210739502Y-81605820D01*
X210680537Y-81495506D01*
X210601185Y-81398815D01*
X210504494Y-81319463D01*
X210394180Y-81260498D01*
X210274482Y-81224188D01*
X210150000Y-81211928D01*
X208650000Y-81211928D01*
X208525518Y-81224188D01*
X208405820Y-81260498D01*
X208295506Y-81319463D01*
X208198815Y-81398815D01*
X208119463Y-81495506D01*
X208060498Y-81605820D01*
X208024188Y-81725518D01*
X208011928Y-81850000D01*
X208011928Y-82851049D01*
X207935799Y-82737114D01*
X207742886Y-82544201D01*
X207516043Y-82392629D01*
X207263989Y-82288225D01*
X206996411Y-82235000D01*
X206723589Y-82235000D01*
X206456011Y-82288225D01*
X206203957Y-82392629D01*
X205977114Y-82544201D01*
X205784201Y-82737114D01*
X205632629Y-82963957D01*
X205528225Y-83216011D01*
X205475000Y-83483589D01*
X135442056Y-83483589D01*
X135567371Y-83296043D01*
X135671775Y-83043989D01*
X135725000Y-82776411D01*
X135725000Y-82503589D01*
X135671775Y-82236011D01*
X135567371Y-81983957D01*
X135415799Y-81757114D01*
X135222886Y-81564201D01*
X134996043Y-81412629D01*
X134743989Y-81308225D01*
X134476411Y-81255000D01*
X134203589Y-81255000D01*
X133936011Y-81308225D01*
X133683957Y-81412629D01*
X133457114Y-81564201D01*
X133264201Y-81757114D01*
X133112629Y-81983957D01*
X133008225Y-82236011D01*
X132955000Y-82503589D01*
X132955000Y-82776411D01*
X132988772Y-82946193D01*
X132756993Y-82882612D01*
X131979605Y-83660000D01*
X131993748Y-83674143D01*
X131814143Y-83853748D01*
X131800000Y-83839605D01*
X131785858Y-83853748D01*
X131606253Y-83674143D01*
X131620395Y-83660000D01*
X130843007Y-82882612D01*
X130604140Y-82948137D01*
X130488240Y-83195116D01*
X130422750Y-83459960D01*
X130410188Y-83732492D01*
X123710000Y-83732492D01*
X123710000Y-82703007D01*
X131022612Y-82703007D01*
X131800000Y-83480395D01*
X132577388Y-82703007D01*
X132511863Y-82464140D01*
X132264884Y-82348240D01*
X132000040Y-82282750D01*
X131727508Y-82270188D01*
X131457762Y-82311035D01*
X131201168Y-82403723D01*
X131088137Y-82464140D01*
X131022612Y-82703007D01*
X123710000Y-82703007D01*
X123710000Y-77994193D01*
X127715000Y-77994193D01*
X127715000Y-78345807D01*
X127783596Y-78690665D01*
X127918153Y-79015515D01*
X128113500Y-79307871D01*
X128362129Y-79556500D01*
X128654485Y-79751847D01*
X128979335Y-79886404D01*
X129324193Y-79955000D01*
X129675807Y-79955000D01*
X130020665Y-79886404D01*
X130345515Y-79751847D01*
X130637871Y-79556500D01*
X130886500Y-79307871D01*
X131081847Y-79015515D01*
X131216404Y-78690665D01*
X131285000Y-78345807D01*
X131285000Y-77994193D01*
X131277044Y-77954193D01*
X209915000Y-77954193D01*
X209915000Y-78305807D01*
X209983596Y-78650665D01*
X210118153Y-78975515D01*
X210313500Y-79267871D01*
X210562129Y-79516500D01*
X210854485Y-79711847D01*
X211179335Y-79846404D01*
X211524193Y-79915000D01*
X211875807Y-79915000D01*
X212220665Y-79846404D01*
X212545515Y-79711847D01*
X212837871Y-79516500D01*
X213086500Y-79267871D01*
X213281847Y-78975515D01*
X213416404Y-78650665D01*
X213485000Y-78305807D01*
X213485000Y-77954193D01*
X213416404Y-77609335D01*
X213281847Y-77284485D01*
X213086500Y-76992129D01*
X212837871Y-76743500D01*
X212545515Y-76548153D01*
X212220665Y-76413596D01*
X211875807Y-76345000D01*
X211524193Y-76345000D01*
X211179335Y-76413596D01*
X210854485Y-76548153D01*
X210562129Y-76743500D01*
X210313500Y-76992129D01*
X210118153Y-77284485D01*
X209983596Y-77609335D01*
X209915000Y-77954193D01*
X131277044Y-77954193D01*
X131216404Y-77649335D01*
X131081847Y-77324485D01*
X130886500Y-77032129D01*
X130637871Y-76783500D01*
X130345515Y-76588153D01*
X130020665Y-76453596D01*
X129675807Y-76385000D01*
X129324193Y-76385000D01*
X128979335Y-76453596D01*
X128654485Y-76588153D01*
X128362129Y-76783500D01*
X128113500Y-77032129D01*
X127918153Y-77324485D01*
X127783596Y-77649335D01*
X127715000Y-77994193D01*
X123710000Y-77994193D01*
X123710000Y-73594193D01*
X127915000Y-73594193D01*
X127915000Y-73945807D01*
X127983596Y-74290665D01*
X128118153Y-74615515D01*
X128313500Y-74907871D01*
X128562129Y-75156500D01*
X128854485Y-75351847D01*
X129179335Y-75486404D01*
X129524193Y-75555000D01*
X129875807Y-75555000D01*
X130220665Y-75486404D01*
X130545515Y-75351847D01*
X130837871Y-75156500D01*
X131086500Y-74907871D01*
X131281847Y-74615515D01*
X131416404Y-74290665D01*
X131485000Y-73945807D01*
X131485000Y-73594193D01*
X131477044Y-73554193D01*
X209915000Y-73554193D01*
X209915000Y-73905807D01*
X209983596Y-74250665D01*
X210118153Y-74575515D01*
X210313500Y-74867871D01*
X210562129Y-75116500D01*
X210854485Y-75311847D01*
X211179335Y-75446404D01*
X211524193Y-75515000D01*
X211875807Y-75515000D01*
X212220665Y-75446404D01*
X212545515Y-75311847D01*
X212837871Y-75116500D01*
X213086500Y-74867871D01*
X213281847Y-74575515D01*
X213416404Y-74250665D01*
X213485000Y-73905807D01*
X213485000Y-73554193D01*
X213416404Y-73209335D01*
X213281847Y-72884485D01*
X213086500Y-72592129D01*
X212837871Y-72343500D01*
X212545515Y-72148153D01*
X212220665Y-72013596D01*
X211875807Y-71945000D01*
X211524193Y-71945000D01*
X211179335Y-72013596D01*
X210854485Y-72148153D01*
X210562129Y-72343500D01*
X210313500Y-72592129D01*
X210118153Y-72884485D01*
X209983596Y-73209335D01*
X209915000Y-73554193D01*
X131477044Y-73554193D01*
X131416404Y-73249335D01*
X131281847Y-72924485D01*
X131086500Y-72632129D01*
X130837871Y-72383500D01*
X130545515Y-72188153D01*
X130220665Y-72053596D01*
X129875807Y-71985000D01*
X129524193Y-71985000D01*
X129179335Y-72053596D01*
X128854485Y-72188153D01*
X128562129Y-72383500D01*
X128313500Y-72632129D01*
X128118153Y-72924485D01*
X127983596Y-73249335D01*
X127915000Y-73594193D01*
X123710000Y-73594193D01*
X123710000Y-67332492D01*
X130610188Y-67332492D01*
X130651035Y-67602238D01*
X130743723Y-67858832D01*
X130804140Y-67971863D01*
X130923369Y-68004569D01*
X130895506Y-68019463D01*
X130798815Y-68098815D01*
X130719463Y-68195506D01*
X130660498Y-68305820D01*
X130624188Y-68425518D01*
X130611928Y-68550000D01*
X130611928Y-70050000D01*
X130624188Y-70174482D01*
X130660498Y-70294180D01*
X130719463Y-70404494D01*
X130798815Y-70501185D01*
X130895506Y-70580537D01*
X131005820Y-70639502D01*
X131125518Y-70675812D01*
X131250000Y-70688072D01*
X132750000Y-70688072D01*
X132874482Y-70675812D01*
X132994180Y-70639502D01*
X133104494Y-70580537D01*
X133201185Y-70501185D01*
X133280537Y-70404494D01*
X133339502Y-70294180D01*
X133375812Y-70174482D01*
X133388072Y-70050000D01*
X133388072Y-69048951D01*
X133464201Y-69162886D01*
X133657114Y-69355799D01*
X133883957Y-69507371D01*
X134136011Y-69611775D01*
X134403589Y-69665000D01*
X134676411Y-69665000D01*
X134943989Y-69611775D01*
X135196043Y-69507371D01*
X135422886Y-69355799D01*
X135615799Y-69162886D01*
X135767371Y-68936043D01*
X135871775Y-68683989D01*
X135925000Y-68416411D01*
X135925000Y-68143589D01*
X135871775Y-67876011D01*
X135767371Y-67623957D01*
X135615799Y-67397114D01*
X135478685Y-67260000D01*
X135615799Y-67122886D01*
X135642056Y-67083589D01*
X205475000Y-67083589D01*
X205475000Y-67356411D01*
X205528225Y-67623989D01*
X205632629Y-67876043D01*
X205784201Y-68102886D01*
X205921315Y-68240000D01*
X205784201Y-68377114D01*
X205632629Y-68603957D01*
X205528225Y-68856011D01*
X205475000Y-69123589D01*
X205475000Y-69396411D01*
X205528225Y-69663989D01*
X205632629Y-69916043D01*
X205784201Y-70142886D01*
X205977114Y-70335799D01*
X206203957Y-70487371D01*
X206456011Y-70591775D01*
X206723589Y-70645000D01*
X206996411Y-70645000D01*
X207263989Y-70591775D01*
X207516043Y-70487371D01*
X207742886Y-70335799D01*
X207935799Y-70142886D01*
X208087371Y-69916043D01*
X208191775Y-69663989D01*
X208245000Y-69396411D01*
X208245000Y-69196993D01*
X208622612Y-69196993D01*
X208688137Y-69435860D01*
X208935116Y-69551760D01*
X209199960Y-69617250D01*
X209472492Y-69629812D01*
X209742238Y-69588965D01*
X209998832Y-69496277D01*
X210111863Y-69435860D01*
X210177388Y-69196993D01*
X209400000Y-68419605D01*
X208622612Y-69196993D01*
X208245000Y-69196993D01*
X208245000Y-69123589D01*
X208211228Y-68953807D01*
X208443007Y-69017388D01*
X209220395Y-68240000D01*
X209206253Y-68225858D01*
X209385858Y-68046253D01*
X209400000Y-68060395D01*
X209414143Y-68046253D01*
X209593748Y-68225858D01*
X209579605Y-68240000D01*
X210356993Y-69017388D01*
X210595860Y-68951863D01*
X210711760Y-68704884D01*
X210777250Y-68440040D01*
X210789812Y-68167508D01*
X210748965Y-67897762D01*
X210656277Y-67641168D01*
X210595860Y-67528137D01*
X210476631Y-67495431D01*
X210504494Y-67480537D01*
X210601185Y-67401185D01*
X210680537Y-67304494D01*
X210739502Y-67194180D01*
X210775812Y-67074482D01*
X210788072Y-66950000D01*
X210788072Y-65450000D01*
X210775812Y-65325518D01*
X210739502Y-65205820D01*
X210680537Y-65095506D01*
X210601185Y-64998815D01*
X210504494Y-64919463D01*
X210394180Y-64860498D01*
X210274482Y-64824188D01*
X210150000Y-64811928D01*
X208650000Y-64811928D01*
X208525518Y-64824188D01*
X208405820Y-64860498D01*
X208295506Y-64919463D01*
X208198815Y-64998815D01*
X208119463Y-65095506D01*
X208060498Y-65205820D01*
X208024188Y-65325518D01*
X208011928Y-65450000D01*
X208011928Y-66451049D01*
X207935799Y-66337114D01*
X207742886Y-66144201D01*
X207516043Y-65992629D01*
X207263989Y-65888225D01*
X206996411Y-65835000D01*
X206723589Y-65835000D01*
X206456011Y-65888225D01*
X206203957Y-65992629D01*
X205977114Y-66144201D01*
X205784201Y-66337114D01*
X205632629Y-66563957D01*
X205528225Y-66816011D01*
X205475000Y-67083589D01*
X135642056Y-67083589D01*
X135767371Y-66896043D01*
X135871775Y-66643989D01*
X135925000Y-66376411D01*
X135925000Y-66103589D01*
X135871775Y-65836011D01*
X135767371Y-65583957D01*
X135615799Y-65357114D01*
X135422886Y-65164201D01*
X135196043Y-65012629D01*
X134943989Y-64908225D01*
X134676411Y-64855000D01*
X134403589Y-64855000D01*
X134136011Y-64908225D01*
X133883957Y-65012629D01*
X133657114Y-65164201D01*
X133464201Y-65357114D01*
X133312629Y-65583957D01*
X133208225Y-65836011D01*
X133155000Y-66103589D01*
X133155000Y-66376411D01*
X133188772Y-66546193D01*
X132956993Y-66482612D01*
X132179605Y-67260000D01*
X132193748Y-67274143D01*
X132014143Y-67453748D01*
X132000000Y-67439605D01*
X131985858Y-67453748D01*
X131806253Y-67274143D01*
X131820395Y-67260000D01*
X131043007Y-66482612D01*
X130804140Y-66548137D01*
X130688240Y-66795116D01*
X130622750Y-67059960D01*
X130610188Y-67332492D01*
X123710000Y-67332492D01*
X123710000Y-66303007D01*
X131222612Y-66303007D01*
X132000000Y-67080395D01*
X132777388Y-66303007D01*
X132711863Y-66064140D01*
X132464884Y-65948240D01*
X132200040Y-65882750D01*
X131927508Y-65870188D01*
X131657762Y-65911035D01*
X131401168Y-66003723D01*
X131288137Y-66064140D01*
X131222612Y-66303007D01*
X123710000Y-66303007D01*
X123710000Y-61594193D01*
X127915000Y-61594193D01*
X127915000Y-61945807D01*
X127983596Y-62290665D01*
X128118153Y-62615515D01*
X128313500Y-62907871D01*
X128562129Y-63156500D01*
X128854485Y-63351847D01*
X129179335Y-63486404D01*
X129524193Y-63555000D01*
X129875807Y-63555000D01*
X130220665Y-63486404D01*
X130545515Y-63351847D01*
X130837871Y-63156500D01*
X131086500Y-62907871D01*
X131281847Y-62615515D01*
X131416404Y-62290665D01*
X131485000Y-61945807D01*
X131485000Y-61594193D01*
X131477044Y-61554193D01*
X209915000Y-61554193D01*
X209915000Y-61905807D01*
X209983596Y-62250665D01*
X210118153Y-62575515D01*
X210313500Y-62867871D01*
X210562129Y-63116500D01*
X210854485Y-63311847D01*
X211179335Y-63446404D01*
X211524193Y-63515000D01*
X211875807Y-63515000D01*
X212220665Y-63446404D01*
X212545515Y-63311847D01*
X212837871Y-63116500D01*
X213086500Y-62867871D01*
X213281847Y-62575515D01*
X213416404Y-62250665D01*
X213485000Y-61905807D01*
X213485000Y-61554193D01*
X213416404Y-61209335D01*
X213281847Y-60884485D01*
X213086500Y-60592129D01*
X212837871Y-60343500D01*
X212545515Y-60148153D01*
X212220665Y-60013596D01*
X211875807Y-59945000D01*
X211524193Y-59945000D01*
X211179335Y-60013596D01*
X210854485Y-60148153D01*
X210562129Y-60343500D01*
X210313500Y-60592129D01*
X210118153Y-60884485D01*
X209983596Y-61209335D01*
X209915000Y-61554193D01*
X131477044Y-61554193D01*
X131416404Y-61249335D01*
X131281847Y-60924485D01*
X131086500Y-60632129D01*
X130837871Y-60383500D01*
X130545515Y-60188153D01*
X130220665Y-60053596D01*
X129875807Y-59985000D01*
X129524193Y-59985000D01*
X129179335Y-60053596D01*
X128854485Y-60188153D01*
X128562129Y-60383500D01*
X128313500Y-60632129D01*
X128118153Y-60924485D01*
X127983596Y-61249335D01*
X127915000Y-61594193D01*
X123710000Y-61594193D01*
X123710000Y-51524193D01*
X129545000Y-51524193D01*
X129545000Y-51875807D01*
X129613596Y-52220665D01*
X129748153Y-52545515D01*
X129943500Y-52837871D01*
X130192129Y-53086500D01*
X130484485Y-53281847D01*
X130809335Y-53416404D01*
X131154193Y-53485000D01*
X131505807Y-53485000D01*
X131850665Y-53416404D01*
X132175515Y-53281847D01*
X132223177Y-53250000D01*
X134411928Y-53250000D01*
X134411928Y-54750000D01*
X134424188Y-54874482D01*
X134460498Y-54994180D01*
X134519463Y-55104494D01*
X134598815Y-55201185D01*
X134695506Y-55280537D01*
X134805820Y-55339502D01*
X134925518Y-55375812D01*
X135050000Y-55388072D01*
X136051049Y-55388072D01*
X135937114Y-55464201D01*
X135744201Y-55657114D01*
X135592629Y-55883957D01*
X135488225Y-56136011D01*
X135435000Y-56403589D01*
X135435000Y-56676411D01*
X135488225Y-56943989D01*
X135592629Y-57196043D01*
X135744201Y-57422886D01*
X135937114Y-57615799D01*
X136163957Y-57767371D01*
X136416011Y-57871775D01*
X136683589Y-57925000D01*
X136956411Y-57925000D01*
X137223989Y-57871775D01*
X137476043Y-57767371D01*
X137702886Y-57615799D01*
X137840000Y-57478685D01*
X137977114Y-57615799D01*
X138203957Y-57767371D01*
X138456011Y-57871775D01*
X138723589Y-57925000D01*
X138996411Y-57925000D01*
X139263989Y-57871775D01*
X139516043Y-57767371D01*
X139742886Y-57615799D01*
X139935799Y-57422886D01*
X140087371Y-57196043D01*
X140191775Y-56943989D01*
X140245000Y-56676411D01*
X140245000Y-56403589D01*
X140191775Y-56136011D01*
X140087371Y-55883957D01*
X139935799Y-55657114D01*
X139742886Y-55464201D01*
X139516043Y-55312629D01*
X139263989Y-55208225D01*
X138996411Y-55155000D01*
X138723589Y-55155000D01*
X138553807Y-55188772D01*
X138617388Y-54956993D01*
X137840000Y-54179605D01*
X137825858Y-54193748D01*
X137646253Y-54014143D01*
X137660395Y-54000000D01*
X138019605Y-54000000D01*
X138796993Y-54777388D01*
X139035860Y-54711863D01*
X139151760Y-54464884D01*
X139217250Y-54200040D01*
X139229812Y-53927508D01*
X139188965Y-53657762D01*
X139096277Y-53401168D01*
X139035860Y-53288137D01*
X138796993Y-53222612D01*
X138019605Y-54000000D01*
X137660395Y-54000000D01*
X137646253Y-53985858D01*
X137825858Y-53806253D01*
X137840000Y-53820395D01*
X138617388Y-53043007D01*
X138551863Y-52804140D01*
X138304884Y-52688240D01*
X138040040Y-52622750D01*
X137767508Y-52610188D01*
X137497762Y-52651035D01*
X137241168Y-52743723D01*
X137128137Y-52804140D01*
X137095431Y-52923369D01*
X137080537Y-52895506D01*
X137001185Y-52798815D01*
X136904494Y-52719463D01*
X136794180Y-52660498D01*
X136674482Y-52624188D01*
X136550000Y-52611928D01*
X135050000Y-52611928D01*
X134925518Y-52624188D01*
X134805820Y-52660498D01*
X134695506Y-52719463D01*
X134598815Y-52798815D01*
X134519463Y-52895506D01*
X134460498Y-53005820D01*
X134424188Y-53125518D01*
X134411928Y-53250000D01*
X132223177Y-53250000D01*
X132467871Y-53086500D01*
X132716500Y-52837871D01*
X132911847Y-52545515D01*
X133046404Y-52220665D01*
X133115000Y-51875807D01*
X133115000Y-51524193D01*
X141545000Y-51524193D01*
X141545000Y-51875807D01*
X141613596Y-52220665D01*
X141748153Y-52545515D01*
X141943500Y-52837871D01*
X142192129Y-53086500D01*
X142484485Y-53281847D01*
X142809335Y-53416404D01*
X143154193Y-53485000D01*
X143505807Y-53485000D01*
X143850665Y-53416404D01*
X144175515Y-53281847D01*
X144467871Y-53086500D01*
X144716500Y-52837871D01*
X144911847Y-52545515D01*
X145046404Y-52220665D01*
X145115000Y-51875807D01*
X145115000Y-51524193D01*
X145545000Y-51524193D01*
X145545000Y-51875807D01*
X145613596Y-52220665D01*
X145748153Y-52545515D01*
X145943500Y-52837871D01*
X146192129Y-53086500D01*
X146484485Y-53281847D01*
X146809335Y-53416404D01*
X147154193Y-53485000D01*
X147505807Y-53485000D01*
X147850665Y-53416404D01*
X148175515Y-53281847D01*
X148223177Y-53250000D01*
X150411928Y-53250000D01*
X150411928Y-54750000D01*
X150424188Y-54874482D01*
X150460498Y-54994180D01*
X150519463Y-55104494D01*
X150598815Y-55201185D01*
X150695506Y-55280537D01*
X150805820Y-55339502D01*
X150925518Y-55375812D01*
X151050000Y-55388072D01*
X152051049Y-55388072D01*
X151937114Y-55464201D01*
X151744201Y-55657114D01*
X151592629Y-55883957D01*
X151488225Y-56136011D01*
X151435000Y-56403589D01*
X151435000Y-56676411D01*
X151488225Y-56943989D01*
X151592629Y-57196043D01*
X151744201Y-57422886D01*
X151937114Y-57615799D01*
X152163957Y-57767371D01*
X152416011Y-57871775D01*
X152683589Y-57925000D01*
X152956411Y-57925000D01*
X153223989Y-57871775D01*
X153476043Y-57767371D01*
X153702886Y-57615799D01*
X153840000Y-57478685D01*
X153977114Y-57615799D01*
X154203957Y-57767371D01*
X154456011Y-57871775D01*
X154723589Y-57925000D01*
X154996411Y-57925000D01*
X155263989Y-57871775D01*
X155516043Y-57767371D01*
X155742886Y-57615799D01*
X155935799Y-57422886D01*
X156087371Y-57196043D01*
X156191775Y-56943989D01*
X156245000Y-56676411D01*
X156245000Y-56403589D01*
X156191775Y-56136011D01*
X156087371Y-55883957D01*
X155935799Y-55657114D01*
X155742886Y-55464201D01*
X155516043Y-55312629D01*
X155263989Y-55208225D01*
X154996411Y-55155000D01*
X154723589Y-55155000D01*
X154553807Y-55188772D01*
X154617388Y-54956993D01*
X153840000Y-54179605D01*
X153825858Y-54193748D01*
X153646253Y-54014143D01*
X153660395Y-54000000D01*
X154019605Y-54000000D01*
X154796993Y-54777388D01*
X155035860Y-54711863D01*
X155151760Y-54464884D01*
X155217250Y-54200040D01*
X155229812Y-53927508D01*
X155188965Y-53657762D01*
X155096277Y-53401168D01*
X155035860Y-53288137D01*
X154796993Y-53222612D01*
X154019605Y-54000000D01*
X153660395Y-54000000D01*
X153646253Y-53985858D01*
X153825858Y-53806253D01*
X153840000Y-53820395D01*
X154617388Y-53043007D01*
X154551863Y-52804140D01*
X154304884Y-52688240D01*
X154040040Y-52622750D01*
X153767508Y-52610188D01*
X153497762Y-52651035D01*
X153241168Y-52743723D01*
X153128137Y-52804140D01*
X153095431Y-52923369D01*
X153080537Y-52895506D01*
X153001185Y-52798815D01*
X152904494Y-52719463D01*
X152794180Y-52660498D01*
X152674482Y-52624188D01*
X152550000Y-52611928D01*
X151050000Y-52611928D01*
X150925518Y-52624188D01*
X150805820Y-52660498D01*
X150695506Y-52719463D01*
X150598815Y-52798815D01*
X150519463Y-52895506D01*
X150460498Y-53005820D01*
X150424188Y-53125518D01*
X150411928Y-53250000D01*
X148223177Y-53250000D01*
X148467871Y-53086500D01*
X148716500Y-52837871D01*
X148911847Y-52545515D01*
X149046404Y-52220665D01*
X149115000Y-51875807D01*
X149115000Y-51524193D01*
X157545000Y-51524193D01*
X157545000Y-51875807D01*
X157613596Y-52220665D01*
X157748153Y-52545515D01*
X157943500Y-52837871D01*
X158192129Y-53086500D01*
X158484485Y-53281847D01*
X158809335Y-53416404D01*
X159154193Y-53485000D01*
X159505807Y-53485000D01*
X159850665Y-53416404D01*
X160175515Y-53281847D01*
X160467871Y-53086500D01*
X160716500Y-52837871D01*
X160911847Y-52545515D01*
X161046404Y-52220665D01*
X161115000Y-51875807D01*
X161115000Y-51524193D01*
X161545000Y-51524193D01*
X161545000Y-51875807D01*
X161613596Y-52220665D01*
X161748153Y-52545515D01*
X161943500Y-52837871D01*
X162192129Y-53086500D01*
X162484485Y-53281847D01*
X162809335Y-53416404D01*
X163154193Y-53485000D01*
X163505807Y-53485000D01*
X163850665Y-53416404D01*
X164175515Y-53281847D01*
X164223177Y-53250000D01*
X166411928Y-53250000D01*
X166411928Y-54750000D01*
X166424188Y-54874482D01*
X166460498Y-54994180D01*
X166519463Y-55104494D01*
X166598815Y-55201185D01*
X166695506Y-55280537D01*
X166805820Y-55339502D01*
X166925518Y-55375812D01*
X167050000Y-55388072D01*
X168051049Y-55388072D01*
X167937114Y-55464201D01*
X167744201Y-55657114D01*
X167592629Y-55883957D01*
X167488225Y-56136011D01*
X167435000Y-56403589D01*
X167435000Y-56676411D01*
X167488225Y-56943989D01*
X167592629Y-57196043D01*
X167744201Y-57422886D01*
X167937114Y-57615799D01*
X168163957Y-57767371D01*
X168416011Y-57871775D01*
X168683589Y-57925000D01*
X168956411Y-57925000D01*
X169223989Y-57871775D01*
X169476043Y-57767371D01*
X169702886Y-57615799D01*
X169840000Y-57478685D01*
X169977114Y-57615799D01*
X170203957Y-57767371D01*
X170456011Y-57871775D01*
X170723589Y-57925000D01*
X170996411Y-57925000D01*
X171263989Y-57871775D01*
X171516043Y-57767371D01*
X171742886Y-57615799D01*
X171935799Y-57422886D01*
X172087371Y-57196043D01*
X172191775Y-56943989D01*
X172245000Y-56676411D01*
X172245000Y-56403589D01*
X172191775Y-56136011D01*
X172087371Y-55883957D01*
X171935799Y-55657114D01*
X171742886Y-55464201D01*
X171516043Y-55312629D01*
X171263989Y-55208225D01*
X170996411Y-55155000D01*
X170723589Y-55155000D01*
X170553807Y-55188772D01*
X170617388Y-54956993D01*
X169840000Y-54179605D01*
X169825858Y-54193748D01*
X169646253Y-54014143D01*
X169660395Y-54000000D01*
X170019605Y-54000000D01*
X170796993Y-54777388D01*
X171035860Y-54711863D01*
X171151760Y-54464884D01*
X171217250Y-54200040D01*
X171229812Y-53927508D01*
X171188965Y-53657762D01*
X171096277Y-53401168D01*
X171035860Y-53288137D01*
X170796993Y-53222612D01*
X170019605Y-54000000D01*
X169660395Y-54000000D01*
X169646253Y-53985858D01*
X169825858Y-53806253D01*
X169840000Y-53820395D01*
X170617388Y-53043007D01*
X170551863Y-52804140D01*
X170304884Y-52688240D01*
X170040040Y-52622750D01*
X169767508Y-52610188D01*
X169497762Y-52651035D01*
X169241168Y-52743723D01*
X169128137Y-52804140D01*
X169095431Y-52923369D01*
X169080537Y-52895506D01*
X169001185Y-52798815D01*
X168904494Y-52719463D01*
X168794180Y-52660498D01*
X168674482Y-52624188D01*
X168550000Y-52611928D01*
X167050000Y-52611928D01*
X166925518Y-52624188D01*
X166805820Y-52660498D01*
X166695506Y-52719463D01*
X166598815Y-52798815D01*
X166519463Y-52895506D01*
X166460498Y-53005820D01*
X166424188Y-53125518D01*
X166411928Y-53250000D01*
X164223177Y-53250000D01*
X164467871Y-53086500D01*
X164716500Y-52837871D01*
X164911847Y-52545515D01*
X165046404Y-52220665D01*
X165115000Y-51875807D01*
X165115000Y-51524193D01*
X173545000Y-51524193D01*
X173545000Y-51875807D01*
X173613596Y-52220665D01*
X173748153Y-52545515D01*
X173943500Y-52837871D01*
X174192129Y-53086500D01*
X174484485Y-53281847D01*
X174809335Y-53416404D01*
X175154193Y-53485000D01*
X175505807Y-53485000D01*
X175850665Y-53416404D01*
X176175515Y-53281847D01*
X176467871Y-53086500D01*
X176716500Y-52837871D01*
X176911847Y-52545515D01*
X177046404Y-52220665D01*
X177115000Y-51875807D01*
X177115000Y-51524193D01*
X177545000Y-51524193D01*
X177545000Y-51875807D01*
X177613596Y-52220665D01*
X177748153Y-52545515D01*
X177943500Y-52837871D01*
X178192129Y-53086500D01*
X178484485Y-53281847D01*
X178809335Y-53416404D01*
X179154193Y-53485000D01*
X179505807Y-53485000D01*
X179850665Y-53416404D01*
X180175515Y-53281847D01*
X180223177Y-53250000D01*
X182411928Y-53250000D01*
X182411928Y-54750000D01*
X182424188Y-54874482D01*
X182460498Y-54994180D01*
X182519463Y-55104494D01*
X182598815Y-55201185D01*
X182695506Y-55280537D01*
X182805820Y-55339502D01*
X182925518Y-55375812D01*
X183050000Y-55388072D01*
X184051049Y-55388072D01*
X183937114Y-55464201D01*
X183744201Y-55657114D01*
X183592629Y-55883957D01*
X183488225Y-56136011D01*
X183435000Y-56403589D01*
X183435000Y-56676411D01*
X183488225Y-56943989D01*
X183592629Y-57196043D01*
X183744201Y-57422886D01*
X183937114Y-57615799D01*
X184163957Y-57767371D01*
X184416011Y-57871775D01*
X184683589Y-57925000D01*
X184956411Y-57925000D01*
X185223989Y-57871775D01*
X185476043Y-57767371D01*
X185702886Y-57615799D01*
X185840000Y-57478685D01*
X185977114Y-57615799D01*
X186203957Y-57767371D01*
X186456011Y-57871775D01*
X186723589Y-57925000D01*
X186996411Y-57925000D01*
X187263989Y-57871775D01*
X187516043Y-57767371D01*
X187742886Y-57615799D01*
X187935799Y-57422886D01*
X188087371Y-57196043D01*
X188191775Y-56943989D01*
X188245000Y-56676411D01*
X188245000Y-56403589D01*
X188191775Y-56136011D01*
X188087371Y-55883957D01*
X187935799Y-55657114D01*
X187742886Y-55464201D01*
X187516043Y-55312629D01*
X187263989Y-55208225D01*
X186996411Y-55155000D01*
X186723589Y-55155000D01*
X186553807Y-55188772D01*
X186617388Y-54956993D01*
X185840000Y-54179605D01*
X185825858Y-54193748D01*
X185646253Y-54014143D01*
X185660395Y-54000000D01*
X186019605Y-54000000D01*
X186796993Y-54777388D01*
X187035860Y-54711863D01*
X187151760Y-54464884D01*
X187217250Y-54200040D01*
X187229812Y-53927508D01*
X187188965Y-53657762D01*
X187096277Y-53401168D01*
X187035860Y-53288137D01*
X186796993Y-53222612D01*
X186019605Y-54000000D01*
X185660395Y-54000000D01*
X185646253Y-53985858D01*
X185825858Y-53806253D01*
X185840000Y-53820395D01*
X186617388Y-53043007D01*
X186551863Y-52804140D01*
X186304884Y-52688240D01*
X186040040Y-52622750D01*
X185767508Y-52610188D01*
X185497762Y-52651035D01*
X185241168Y-52743723D01*
X185128137Y-52804140D01*
X185095431Y-52923369D01*
X185080537Y-52895506D01*
X185001185Y-52798815D01*
X184904494Y-52719463D01*
X184794180Y-52660498D01*
X184674482Y-52624188D01*
X184550000Y-52611928D01*
X183050000Y-52611928D01*
X182925518Y-52624188D01*
X182805820Y-52660498D01*
X182695506Y-52719463D01*
X182598815Y-52798815D01*
X182519463Y-52895506D01*
X182460498Y-53005820D01*
X182424188Y-53125518D01*
X182411928Y-53250000D01*
X180223177Y-53250000D01*
X180467871Y-53086500D01*
X180716500Y-52837871D01*
X180911847Y-52545515D01*
X181046404Y-52220665D01*
X181115000Y-51875807D01*
X181115000Y-51524193D01*
X189545000Y-51524193D01*
X189545000Y-51875807D01*
X189613596Y-52220665D01*
X189748153Y-52545515D01*
X189943500Y-52837871D01*
X190192129Y-53086500D01*
X190484485Y-53281847D01*
X190809335Y-53416404D01*
X191154193Y-53485000D01*
X191505807Y-53485000D01*
X191850665Y-53416404D01*
X192175515Y-53281847D01*
X192467871Y-53086500D01*
X192716500Y-52837871D01*
X192911847Y-52545515D01*
X193046404Y-52220665D01*
X193115000Y-51875807D01*
X193115000Y-51574193D01*
X193945000Y-51574193D01*
X193945000Y-51925807D01*
X194013596Y-52270665D01*
X194148153Y-52595515D01*
X194343500Y-52887871D01*
X194592129Y-53136500D01*
X194884485Y-53331847D01*
X195209335Y-53466404D01*
X195554193Y-53535000D01*
X195905807Y-53535000D01*
X196250665Y-53466404D01*
X196575515Y-53331847D01*
X196623177Y-53300000D01*
X198811928Y-53300000D01*
X198811928Y-54800000D01*
X198824188Y-54924482D01*
X198860498Y-55044180D01*
X198919463Y-55154494D01*
X198998815Y-55251185D01*
X199095506Y-55330537D01*
X199205820Y-55389502D01*
X199325518Y-55425812D01*
X199450000Y-55438072D01*
X200451049Y-55438072D01*
X200337114Y-55514201D01*
X200144201Y-55707114D01*
X199992629Y-55933957D01*
X199888225Y-56186011D01*
X199835000Y-56453589D01*
X199835000Y-56726411D01*
X199888225Y-56993989D01*
X199992629Y-57246043D01*
X200144201Y-57472886D01*
X200337114Y-57665799D01*
X200563957Y-57817371D01*
X200816011Y-57921775D01*
X201083589Y-57975000D01*
X201356411Y-57975000D01*
X201623989Y-57921775D01*
X201876043Y-57817371D01*
X202102886Y-57665799D01*
X202240000Y-57528685D01*
X202377114Y-57665799D01*
X202603957Y-57817371D01*
X202856011Y-57921775D01*
X203123589Y-57975000D01*
X203396411Y-57975000D01*
X203663989Y-57921775D01*
X203916043Y-57817371D01*
X204142886Y-57665799D01*
X204335799Y-57472886D01*
X204487371Y-57246043D01*
X204591775Y-56993989D01*
X204645000Y-56726411D01*
X204645000Y-56453589D01*
X204591775Y-56186011D01*
X204487371Y-55933957D01*
X204335799Y-55707114D01*
X204142886Y-55514201D01*
X203916043Y-55362629D01*
X203663989Y-55258225D01*
X203396411Y-55205000D01*
X203123589Y-55205000D01*
X202953807Y-55238772D01*
X203017388Y-55006993D01*
X202240000Y-54229605D01*
X202225858Y-54243748D01*
X202046253Y-54064143D01*
X202060395Y-54050000D01*
X202419605Y-54050000D01*
X203196993Y-54827388D01*
X203435860Y-54761863D01*
X203551760Y-54514884D01*
X203617250Y-54250040D01*
X203629812Y-53977508D01*
X203588965Y-53707762D01*
X203496277Y-53451168D01*
X203435860Y-53338137D01*
X203196993Y-53272612D01*
X202419605Y-54050000D01*
X202060395Y-54050000D01*
X202046253Y-54035858D01*
X202225858Y-53856253D01*
X202240000Y-53870395D01*
X203017388Y-53093007D01*
X202951863Y-52854140D01*
X202704884Y-52738240D01*
X202440040Y-52672750D01*
X202167508Y-52660188D01*
X201897762Y-52701035D01*
X201641168Y-52793723D01*
X201528137Y-52854140D01*
X201495431Y-52973369D01*
X201480537Y-52945506D01*
X201401185Y-52848815D01*
X201304494Y-52769463D01*
X201194180Y-52710498D01*
X201074482Y-52674188D01*
X200950000Y-52661928D01*
X199450000Y-52661928D01*
X199325518Y-52674188D01*
X199205820Y-52710498D01*
X199095506Y-52769463D01*
X198998815Y-52848815D01*
X198919463Y-52945506D01*
X198860498Y-53055820D01*
X198824188Y-53175518D01*
X198811928Y-53300000D01*
X196623177Y-53300000D01*
X196867871Y-53136500D01*
X197116500Y-52887871D01*
X197311847Y-52595515D01*
X197446404Y-52270665D01*
X197515000Y-51925807D01*
X197515000Y-51574193D01*
X205945000Y-51574193D01*
X205945000Y-51925807D01*
X206013596Y-52270665D01*
X206148153Y-52595515D01*
X206343500Y-52887871D01*
X206592129Y-53136500D01*
X206884485Y-53331847D01*
X207209335Y-53466404D01*
X207554193Y-53535000D01*
X207905807Y-53535000D01*
X208250665Y-53466404D01*
X208575515Y-53331847D01*
X208867871Y-53136500D01*
X209116500Y-52887871D01*
X209311847Y-52595515D01*
X209446404Y-52270665D01*
X209515000Y-51925807D01*
X209515000Y-51574193D01*
X209446404Y-51229335D01*
X209311847Y-50904485D01*
X209116500Y-50612129D01*
X208867871Y-50363500D01*
X208575515Y-50168153D01*
X208250665Y-50033596D01*
X207905807Y-49965000D01*
X207554193Y-49965000D01*
X207209335Y-50033596D01*
X206884485Y-50168153D01*
X206592129Y-50363500D01*
X206343500Y-50612129D01*
X206148153Y-50904485D01*
X206013596Y-51229335D01*
X205945000Y-51574193D01*
X197515000Y-51574193D01*
X197446404Y-51229335D01*
X197311847Y-50904485D01*
X197116500Y-50612129D01*
X196867871Y-50363500D01*
X196575515Y-50168153D01*
X196250665Y-50033596D01*
X195905807Y-49965000D01*
X195554193Y-49965000D01*
X195209335Y-50033596D01*
X194884485Y-50168153D01*
X194592129Y-50363500D01*
X194343500Y-50612129D01*
X194148153Y-50904485D01*
X194013596Y-51229335D01*
X193945000Y-51574193D01*
X193115000Y-51574193D01*
X193115000Y-51524193D01*
X193046404Y-51179335D01*
X192911847Y-50854485D01*
X192716500Y-50562129D01*
X192467871Y-50313500D01*
X192175515Y-50118153D01*
X191850665Y-49983596D01*
X191505807Y-49915000D01*
X191154193Y-49915000D01*
X190809335Y-49983596D01*
X190484485Y-50118153D01*
X190192129Y-50313500D01*
X189943500Y-50562129D01*
X189748153Y-50854485D01*
X189613596Y-51179335D01*
X189545000Y-51524193D01*
X181115000Y-51524193D01*
X181046404Y-51179335D01*
X180911847Y-50854485D01*
X180716500Y-50562129D01*
X180467871Y-50313500D01*
X180175515Y-50118153D01*
X179850665Y-49983596D01*
X179505807Y-49915000D01*
X179154193Y-49915000D01*
X178809335Y-49983596D01*
X178484485Y-50118153D01*
X178192129Y-50313500D01*
X177943500Y-50562129D01*
X177748153Y-50854485D01*
X177613596Y-51179335D01*
X177545000Y-51524193D01*
X177115000Y-51524193D01*
X177046404Y-51179335D01*
X176911847Y-50854485D01*
X176716500Y-50562129D01*
X176467871Y-50313500D01*
X176175515Y-50118153D01*
X175850665Y-49983596D01*
X175505807Y-49915000D01*
X175154193Y-49915000D01*
X174809335Y-49983596D01*
X174484485Y-50118153D01*
X174192129Y-50313500D01*
X173943500Y-50562129D01*
X173748153Y-50854485D01*
X173613596Y-51179335D01*
X173545000Y-51524193D01*
X165115000Y-51524193D01*
X165046404Y-51179335D01*
X164911847Y-50854485D01*
X164716500Y-50562129D01*
X164467871Y-50313500D01*
X164175515Y-50118153D01*
X163850665Y-49983596D01*
X163505807Y-49915000D01*
X163154193Y-49915000D01*
X162809335Y-49983596D01*
X162484485Y-50118153D01*
X162192129Y-50313500D01*
X161943500Y-50562129D01*
X161748153Y-50854485D01*
X161613596Y-51179335D01*
X161545000Y-51524193D01*
X161115000Y-51524193D01*
X161046404Y-51179335D01*
X160911847Y-50854485D01*
X160716500Y-50562129D01*
X160467871Y-50313500D01*
X160175515Y-50118153D01*
X159850665Y-49983596D01*
X159505807Y-49915000D01*
X159154193Y-49915000D01*
X158809335Y-49983596D01*
X158484485Y-50118153D01*
X158192129Y-50313500D01*
X157943500Y-50562129D01*
X157748153Y-50854485D01*
X157613596Y-51179335D01*
X157545000Y-51524193D01*
X149115000Y-51524193D01*
X149046404Y-51179335D01*
X148911847Y-50854485D01*
X148716500Y-50562129D01*
X148467871Y-50313500D01*
X148175515Y-50118153D01*
X147850665Y-49983596D01*
X147505807Y-49915000D01*
X147154193Y-49915000D01*
X146809335Y-49983596D01*
X146484485Y-50118153D01*
X146192129Y-50313500D01*
X145943500Y-50562129D01*
X145748153Y-50854485D01*
X145613596Y-51179335D01*
X145545000Y-51524193D01*
X145115000Y-51524193D01*
X145046404Y-51179335D01*
X144911847Y-50854485D01*
X144716500Y-50562129D01*
X144467871Y-50313500D01*
X144175515Y-50118153D01*
X143850665Y-49983596D01*
X143505807Y-49915000D01*
X143154193Y-49915000D01*
X142809335Y-49983596D01*
X142484485Y-50118153D01*
X142192129Y-50313500D01*
X141943500Y-50562129D01*
X141748153Y-50854485D01*
X141613596Y-51179335D01*
X141545000Y-51524193D01*
X133115000Y-51524193D01*
X133046404Y-51179335D01*
X132911847Y-50854485D01*
X132716500Y-50562129D01*
X132467871Y-50313500D01*
X132175515Y-50118153D01*
X131850665Y-49983596D01*
X131505807Y-49915000D01*
X131154193Y-49915000D01*
X130809335Y-49983596D01*
X130484485Y-50118153D01*
X130192129Y-50313500D01*
X129943500Y-50562129D01*
X129748153Y-50854485D01*
X129613596Y-51179335D01*
X129545000Y-51524193D01*
X123710000Y-51524193D01*
X123710000Y-48109696D01*
X123741331Y-48130631D01*
X124148075Y-48299110D01*
X124579872Y-48385000D01*
X125020128Y-48385000D01*
X125451925Y-48299110D01*
X125858669Y-48130631D01*
X126224729Y-47886038D01*
X126536038Y-47574729D01*
X126780631Y-47208669D01*
X126949110Y-46801925D01*
X127035000Y-46370128D01*
X127035000Y-45929872D01*
X126949110Y-45498075D01*
X126788364Y-45110000D01*
X214890757Y-45110000D01*
X214669369Y-45441331D01*
G37*
G04 #@! TD.AperFunction*
M02*
