G04 #@! TF.GenerationSoftware,KiCad,Pcbnew,5.1.10-88a1d61d58~90~ubuntu20.04.1*
G04 #@! TF.CreationDate,2021-11-04T14:27:27-04:00*
G04 #@! TF.ProjectId,OMC_CONNECTION_BOARD,4f4d435f-434f-44e4-9e45-4354494f4e5f,rev?*
G04 #@! TF.SameCoordinates,Original*
G04 #@! TF.FileFunction,Soldermask,Top*
G04 #@! TF.FilePolarity,Negative*
%FSLAX46Y46*%
G04 Gerber Fmt 4.6, Leading zero omitted, Abs format (unit mm)*
G04 Created by KiCad (PCBNEW 5.1.10-88a1d61d58~90~ubuntu20.04.1) date 2021-11-04 14:27:27*
%MOMM*%
%LPD*%
G01*
G04 APERTURE LIST*
%ADD10C,1.500000*%
%ADD11C,2.300000*%
%ADD12R,1.500000X1.500000*%
%ADD13C,3.200000*%
G04 APERTURE END LIST*
D10*
X154860000Y-56540000D03*
D11*
X159330000Y-51700000D03*
D10*
X153840000Y-54000000D03*
X152820000Y-56540000D03*
D12*
X151800000Y-54000000D03*
D11*
X147330000Y-51700000D03*
D10*
X206860000Y-85660000D03*
D11*
X211700000Y-90130000D03*
D10*
X209400000Y-84640000D03*
X206860000Y-83620000D03*
D12*
X209400000Y-82600000D03*
D11*
X211700000Y-78130000D03*
D13*
X216750000Y-105750000D03*
X125000000Y-105650000D03*
X124800000Y-46150000D03*
X216650000Y-46500000D03*
D11*
X143290000Y-100580000D03*
D12*
X138820000Y-98280000D03*
D10*
X137800000Y-95740000D03*
X136780000Y-98280000D03*
D11*
X131290000Y-100580000D03*
D10*
X135760000Y-95740000D03*
D11*
X195730000Y-51750000D03*
D12*
X200200000Y-54050000D03*
D10*
X201220000Y-56590000D03*
X202240000Y-54050000D03*
D11*
X207730000Y-51750000D03*
D10*
X203260000Y-56590000D03*
X186860000Y-56540000D03*
D11*
X191330000Y-51700000D03*
D10*
X185840000Y-54000000D03*
X184820000Y-56540000D03*
D12*
X183800000Y-54000000D03*
D11*
X179330000Y-51700000D03*
X163330000Y-51700000D03*
D12*
X167800000Y-54000000D03*
D10*
X168820000Y-56540000D03*
X169840000Y-54000000D03*
D11*
X175330000Y-51700000D03*
D10*
X170860000Y-56540000D03*
D11*
X131330000Y-51700000D03*
D12*
X135800000Y-54000000D03*
D10*
X136820000Y-56540000D03*
X137840000Y-54000000D03*
D11*
X143330000Y-51700000D03*
D10*
X138860000Y-56540000D03*
X134540000Y-66240000D03*
D11*
X129700000Y-61770000D03*
D10*
X132000000Y-67260000D03*
X134540000Y-68280000D03*
D12*
X132000000Y-69300000D03*
D11*
X129700000Y-73770000D03*
D10*
X134340000Y-82640000D03*
D11*
X129500000Y-78170000D03*
D10*
X131800000Y-83660000D03*
X134340000Y-84680000D03*
D12*
X131800000Y-85700000D03*
D11*
X129500000Y-90170000D03*
D10*
X151850000Y-95720000D03*
D11*
X147380000Y-100560000D03*
D10*
X152870000Y-98260000D03*
X153890000Y-95720000D03*
D12*
X154910000Y-98260000D03*
D11*
X159380000Y-100560000D03*
X175410000Y-100580000D03*
D12*
X170940000Y-98280000D03*
D10*
X169920000Y-95740000D03*
X168900000Y-98280000D03*
D11*
X163410000Y-100580000D03*
D10*
X167880000Y-95740000D03*
X183840000Y-95720000D03*
D11*
X179370000Y-100560000D03*
D10*
X184860000Y-98260000D03*
X185880000Y-95720000D03*
D12*
X186900000Y-98260000D03*
D11*
X191370000Y-100560000D03*
X207670000Y-100570000D03*
D12*
X203200000Y-98270000D03*
D10*
X202180000Y-95730000D03*
X201160000Y-98270000D03*
D11*
X195670000Y-100570000D03*
D10*
X200140000Y-95730000D03*
D11*
X211700000Y-61730000D03*
D12*
X209400000Y-66200000D03*
D10*
X206860000Y-67220000D03*
X209400000Y-68240000D03*
D11*
X211700000Y-73730000D03*
D10*
X206860000Y-69260000D03*
M02*
