M48
; DRILL file {KiCad 5.1.12-84ad8e8a86~92~ubuntu18.04.1} date lun 21 feb 2022 10:52:49 -04
; FORMAT={-:-/ absolute / metric / decimal}
; #@! TF.CreationDate,2022-02-21T10:52:49-04:00
; #@! TF.GenerationSoftware,Kicad,Pcbnew,5.1.12-84ad8e8a86~92~ubuntu18.04.1
; #@! TF.FileFunction,Plated,1,2,PTH
FMAT,2
METRIC
T1C0.900
T2C1.000
T3C1.520
T4C1.550
T5C1.854
%
G90
G05
T1
X623.045Y901.615
X625.585Y901.615
T2
X578.68Y937.91
X578.68Y935.37
X578.68Y932.83
X578.68Y930.29
X578.68Y927.75
X578.68Y925.21
X578.68Y922.67
X578.68Y920.13
X578.68Y917.59
X578.68Y915.05
X578.68Y912.51
X578.68Y909.97
X578.68Y907.43
X578.68Y904.89
X578.68Y902.35
X580.125Y964.295
X580.125Y961.755
X580.125Y959.215
X580.125Y956.675
X606.55Y937.835
X606.55Y935.295
X606.55Y932.755
X606.55Y930.215
X606.55Y927.675
X606.55Y925.135
X606.55Y922.595
X606.55Y920.055
X606.55Y917.515
X606.55Y914.975
X606.55Y912.435
X606.55Y909.895
X606.55Y907.355
X606.55Y904.815
X606.55Y902.275
X614.425Y915.15
X619.625Y944.55
X624.625Y944.55
X629.825Y915.15
X631.97Y904.73
X634.51Y904.73
X634.61Y962.17
X637.05Y904.73
X637.38Y918.53
X639.59Y904.73
X639.69Y962.16
X639.92Y918.53
X639.93Y913.84
X639.93Y911.3
X642.13Y904.73
X642.46Y918.53
X644.67Y904.73
X649.49Y962.19
X654.57Y962.18
T3
X624.7Y964.105
X624.7Y959.025
X637.17Y942.9
X642.25Y942.9
X658.06Y907.06
X662.86Y942.9
X663.14Y907.06
X667.94Y942.9
X668.22Y907.06
X673.02Y942.9
T4
X617.46Y910.17
X622.26Y910.17
X627.06Y910.17
T5
X665.9Y975.97
X665.9Y966.44
X665.9Y956.91
T0
M30
