G04 #@! TF.GenerationSoftware,KiCad,Pcbnew,5.1.12-84ad8e8a86~92~ubuntu18.04.1*
G04 #@! TF.CreationDate,2022-03-31T10:50:17-04:00*
G04 #@! TF.ProjectId,OMC_WIFI_PCB,4f4d435f-5749-4464-995f-5043422e6b69,rev?*
G04 #@! TF.SameCoordinates,Original*
G04 #@! TF.FileFunction,Legend,Top*
G04 #@! TF.FilePolarity,Positive*
%FSLAX46Y46*%
G04 Gerber Fmt 4.6, Leading zero omitted, Abs format (unit mm)*
G04 Created by KiCad (PCBNEW 5.1.12-84ad8e8a86~92~ubuntu18.04.1) date 2022-03-31 10:50:17*
%MOMM*%
%LPD*%
G01*
G04 APERTURE LIST*
%ADD10C,0.150000*%
%ADD11C,0.120000*%
%ADD12C,0.437500*%
%ADD13C,0.430000*%
%ADD14C,0.800000*%
%ADD15C,0.200000*%
%ADD16C,0.127000*%
%ADD17O,1.800000X1.800000*%
%ADD18C,2.100000*%
%ADD19C,3.100000*%
%ADD20C,1.900000*%
%ADD21C,2.400000*%
%ADD22C,2.650000*%
G04 APERTURE END LIST*
D10*
X609417142Y904087619D02*
X608845714Y904087619D01*
X609131428Y904087619D02*
X609131428Y905087619D01*
X609036190Y904944761D01*
X608940952Y904849523D01*
X608845714Y904801904D01*
X610036190Y905087619D02*
X610131428Y905087619D01*
X610226666Y905040000D01*
X610274285Y904992380D01*
X610321904Y904897142D01*
X610369523Y904706666D01*
X610369523Y904468571D01*
X610321904Y904278095D01*
X610274285Y904182857D01*
X610226666Y904135238D01*
X610131428Y904087619D01*
X610036190Y904087619D01*
X609940952Y904135238D01*
X609893333Y904182857D01*
X609845714Y904278095D01*
X609798095Y904468571D01*
X609798095Y904706666D01*
X609845714Y904897142D01*
X609893333Y904992380D01*
X609940952Y905040000D01*
X610036190Y905087619D01*
X610798095Y904087619D02*
X610798095Y905087619D01*
X611369523Y904087619D02*
X610940952Y904659047D01*
X611369523Y905087619D02*
X610798095Y904516190D01*
X612512380Y904087619D02*
X612750476Y904087619D01*
X612750476Y904278095D01*
X612655238Y904325714D01*
X612560000Y904420952D01*
X612512380Y904563809D01*
X612512380Y904801904D01*
X612560000Y904944761D01*
X612655238Y905040000D01*
X612798095Y905087619D01*
X612988571Y905087619D01*
X613131428Y905040000D01*
X613226666Y904944761D01*
X613274285Y904801904D01*
X613274285Y904563809D01*
X613226666Y904420952D01*
X613131428Y904325714D01*
X613036190Y904278095D01*
X613036190Y904087619D01*
X613274285Y904087619D01*
X641060000Y913267619D02*
X641679047Y913267619D01*
X641345714Y912886666D01*
X641488571Y912886666D01*
X641583809Y912839047D01*
X641631428Y912791428D01*
X641679047Y912696190D01*
X641679047Y912458095D01*
X641631428Y912362857D01*
X641583809Y912315238D01*
X641488571Y912267619D01*
X641202857Y912267619D01*
X641107619Y912315238D01*
X641060000Y912362857D01*
X642107619Y912362857D02*
X642155238Y912315238D01*
X642107619Y912267619D01*
X642060000Y912315238D01*
X642107619Y912362857D01*
X642107619Y912267619D01*
X642488571Y913267619D02*
X643107619Y913267619D01*
X642774285Y912886666D01*
X642917142Y912886666D01*
X643012380Y912839047D01*
X643060000Y912791428D01*
X643107619Y912696190D01*
X643107619Y912458095D01*
X643060000Y912362857D01*
X643012380Y912315238D01*
X642917142Y912267619D01*
X642631428Y912267619D01*
X642536190Y912315238D01*
X642488571Y912362857D01*
X643536190Y912267619D02*
X643536190Y913267619D01*
X644107619Y912267619D02*
X643679047Y912839047D01*
X644107619Y913267619D02*
X643536190Y912696190D01*
X645250476Y912267619D02*
X645488571Y912267619D01*
X645488571Y912458095D01*
X645393333Y912505714D01*
X645298095Y912600952D01*
X645250476Y912743809D01*
X645250476Y912981904D01*
X645298095Y913124761D01*
X645393333Y913220000D01*
X645536190Y913267619D01*
X645726666Y913267619D01*
X645869523Y913220000D01*
X645964761Y913124761D01*
X646012380Y912981904D01*
X646012380Y912743809D01*
X645964761Y912600952D01*
X645869523Y912505714D01*
X645774285Y912458095D01*
X645774285Y912267619D01*
X646012380Y912267619D01*
X578076071Y980207619D02*
X578266547Y980207619D01*
X578361785Y980160000D01*
X578457023Y980064761D01*
X578504642Y979874285D01*
X578504642Y979540952D01*
X578457023Y979350476D01*
X578361785Y979255238D01*
X578266547Y979207619D01*
X578076071Y979207619D01*
X577980833Y979255238D01*
X577885595Y979350476D01*
X577837976Y979540952D01*
X577837976Y979874285D01*
X577885595Y980064761D01*
X577980833Y980160000D01*
X578076071Y980207619D01*
X578933214Y979207619D02*
X578933214Y980207619D01*
X579266547Y979493333D01*
X579599880Y980207619D01*
X579599880Y979207619D01*
X580647500Y979302857D02*
X580599880Y979255238D01*
X580457023Y979207619D01*
X580361785Y979207619D01*
X580218928Y979255238D01*
X580123690Y979350476D01*
X580076071Y979445714D01*
X580028452Y979636190D01*
X580028452Y979779047D01*
X580076071Y979969523D01*
X580123690Y980064761D01*
X580218928Y980160000D01*
X580361785Y980207619D01*
X580457023Y980207619D01*
X580599880Y980160000D01*
X580647500Y980112380D01*
X581742738Y980207619D02*
X581980833Y979207619D01*
X582171309Y979921904D01*
X582361785Y979207619D01*
X582599880Y980207619D01*
X582980833Y979207619D02*
X582980833Y980207619D01*
X583790357Y979731428D02*
X583457023Y979731428D01*
X583457023Y979207619D02*
X583457023Y980207619D01*
X583933214Y980207619D01*
X584314166Y979207619D02*
X584314166Y980207619D01*
X585552261Y979588571D02*
X586314166Y979588571D01*
X587552261Y979207619D02*
X587552261Y980207619D01*
X587933214Y980207619D01*
X588028452Y980160000D01*
X588076071Y980112380D01*
X588123690Y980017142D01*
X588123690Y979874285D01*
X588076071Y979779047D01*
X588028452Y979731428D01*
X587933214Y979683809D01*
X587552261Y979683809D01*
X589123690Y979302857D02*
X589076071Y979255238D01*
X588933214Y979207619D01*
X588837976Y979207619D01*
X588695119Y979255238D01*
X588599880Y979350476D01*
X588552261Y979445714D01*
X588504642Y979636190D01*
X588504642Y979779047D01*
X588552261Y979969523D01*
X588599880Y980064761D01*
X588695119Y980160000D01*
X588837976Y980207619D01*
X588933214Y980207619D01*
X589076071Y980160000D01*
X589123690Y980112380D01*
X589885595Y979731428D02*
X590028452Y979683809D01*
X590076071Y979636190D01*
X590123690Y979540952D01*
X590123690Y979398095D01*
X590076071Y979302857D01*
X590028452Y979255238D01*
X589933214Y979207619D01*
X589552261Y979207619D01*
X589552261Y980207619D01*
X589885595Y980207619D01*
X589980833Y980160000D01*
X590028452Y980112380D01*
X590076071Y980017142D01*
X590076071Y979921904D01*
X590028452Y979826666D01*
X589980833Y979779047D01*
X589885595Y979731428D01*
X589552261Y979731428D01*
X591171309Y980207619D02*
X591504642Y979207619D01*
X591837976Y980207619D01*
X592695119Y979207619D02*
X592123690Y979207619D01*
X592409404Y979207619D02*
X592409404Y980207619D01*
X592314166Y980064761D01*
X592218928Y979969523D01*
X592123690Y979921904D01*
X593123690Y979302857D02*
X593171309Y979255238D01*
X593123690Y979207619D01*
X593076071Y979255238D01*
X593123690Y979302857D01*
X593123690Y979207619D01*
X593790357Y980207619D02*
X593885595Y980207619D01*
X593980833Y980160000D01*
X594028452Y980112380D01*
X594076071Y980017142D01*
X594123690Y979826666D01*
X594123690Y979588571D01*
X594076071Y979398095D01*
X594028452Y979302857D01*
X593980833Y979255238D01*
X593885595Y979207619D01*
X593790357Y979207619D01*
X593695119Y979255238D01*
X593647500Y979302857D01*
X593599880Y979398095D01*
X593552261Y979588571D01*
X593552261Y979826666D01*
X593599880Y980017142D01*
X593647500Y980112380D01*
X593695119Y980160000D01*
X593790357Y980207619D01*
X578457023Y977652857D02*
X578409404Y977605238D01*
X578266547Y977557619D01*
X578171309Y977557619D01*
X578028452Y977605238D01*
X577933214Y977700476D01*
X577885595Y977795714D01*
X577837976Y977986190D01*
X577837976Y978129047D01*
X577885595Y978319523D01*
X577933214Y978414761D01*
X578028452Y978510000D01*
X578171309Y978557619D01*
X578266547Y978557619D01*
X578409404Y978510000D01*
X578457023Y978462380D01*
X579409404Y978510000D02*
X579314166Y978557619D01*
X579171309Y978557619D01*
X579028452Y978510000D01*
X578933214Y978414761D01*
X578885595Y978319523D01*
X578837976Y978129047D01*
X578837976Y977986190D01*
X578885595Y977795714D01*
X578933214Y977700476D01*
X579028452Y977605238D01*
X579171309Y977557619D01*
X579266547Y977557619D01*
X579409404Y977605238D01*
X579457023Y977652857D01*
X579457023Y977986190D01*
X579266547Y977986190D01*
X581457023Y977557619D02*
X581409404Y977557619D01*
X581314166Y977605238D01*
X581171309Y977748095D01*
X580933214Y978033809D01*
X580837976Y978176666D01*
X580790357Y978319523D01*
X580790357Y978414761D01*
X580837976Y978510000D01*
X580933214Y978557619D01*
X580980833Y978557619D01*
X581076071Y978510000D01*
X581123690Y978414761D01*
X581123690Y978367142D01*
X581076071Y978271904D01*
X581028452Y978224285D01*
X580742738Y978033809D01*
X580695119Y977986190D01*
X580647500Y977890952D01*
X580647500Y977748095D01*
X580695119Y977652857D01*
X580742738Y977605238D01*
X580837976Y977557619D01*
X580980833Y977557619D01*
X581076071Y977605238D01*
X581123690Y977652857D01*
X581266547Y977843333D01*
X581314166Y977986190D01*
X581314166Y978081428D01*
X582647500Y977557619D02*
X582647500Y978557619D01*
X582885595Y978557619D01*
X583028452Y978510000D01*
X583123690Y978414761D01*
X583171309Y978319523D01*
X583218928Y978129047D01*
X583218928Y977986190D01*
X583171309Y977795714D01*
X583123690Y977700476D01*
X583028452Y977605238D01*
X582885595Y977557619D01*
X582647500Y977557619D01*
X583647500Y977557619D02*
X583647500Y978557619D01*
X583647500Y978081428D02*
X584218928Y978081428D01*
X584218928Y977557619D02*
X584218928Y978557619D01*
X577837976Y976812380D02*
X577885595Y976860000D01*
X577980833Y976907619D01*
X578218928Y976907619D01*
X578314166Y976860000D01*
X578361785Y976812380D01*
X578409404Y976717142D01*
X578409404Y976621904D01*
X578361785Y976479047D01*
X577790357Y975907619D01*
X578409404Y975907619D01*
X579028452Y976907619D02*
X579123690Y976907619D01*
X579218928Y976860000D01*
X579266547Y976812380D01*
X579314166Y976717142D01*
X579361785Y976526666D01*
X579361785Y976288571D01*
X579314166Y976098095D01*
X579266547Y976002857D01*
X579218928Y975955238D01*
X579123690Y975907619D01*
X579028452Y975907619D01*
X578933214Y975955238D01*
X578885595Y976002857D01*
X578837976Y976098095D01*
X578790357Y976288571D01*
X578790357Y976526666D01*
X578837976Y976717142D01*
X578885595Y976812380D01*
X578933214Y976860000D01*
X579028452Y976907619D01*
X579742738Y976812380D02*
X579790357Y976860000D01*
X579885595Y976907619D01*
X580123690Y976907619D01*
X580218928Y976860000D01*
X580266547Y976812380D01*
X580314166Y976717142D01*
X580314166Y976621904D01*
X580266547Y976479047D01*
X579695119Y975907619D01*
X580314166Y975907619D01*
X580695119Y976812380D02*
X580742738Y976860000D01*
X580837976Y976907619D01*
X581076071Y976907619D01*
X581171309Y976860000D01*
X581218928Y976812380D01*
X581266547Y976717142D01*
X581266547Y976621904D01*
X581218928Y976479047D01*
X580647500Y975907619D01*
X581266547Y975907619D01*
X581695119Y976288571D02*
X582457023Y976288571D01*
X583123690Y976907619D02*
X583218928Y976907619D01*
X583314166Y976860000D01*
X583361785Y976812380D01*
X583409404Y976717142D01*
X583457023Y976526666D01*
X583457023Y976288571D01*
X583409404Y976098095D01*
X583361785Y976002857D01*
X583314166Y975955238D01*
X583218928Y975907619D01*
X583123690Y975907619D01*
X583028452Y975955238D01*
X582980833Y976002857D01*
X582933214Y976098095D01*
X582885595Y976288571D01*
X582885595Y976526666D01*
X582933214Y976717142D01*
X582980833Y976812380D01*
X583028452Y976860000D01*
X583123690Y976907619D01*
X583837976Y976812380D02*
X583885595Y976860000D01*
X583980833Y976907619D01*
X584218928Y976907619D01*
X584314166Y976860000D01*
X584361785Y976812380D01*
X584409404Y976717142D01*
X584409404Y976621904D01*
X584361785Y976479047D01*
X583790357Y975907619D01*
X584409404Y975907619D01*
D11*
X632000000Y959600000D02*
X632000000Y962400000D01*
X658000000Y959600000D02*
X632000000Y959600000D01*
X658000000Y970000000D02*
X658000000Y959600000D01*
X632000000Y970000000D02*
X658000000Y970000000D01*
X632000000Y962400000D02*
X632000000Y970000000D01*
D12*
X639638333Y966795238D02*
X638638333Y966795238D01*
X639138333Y966795238D02*
X639138333Y968795238D01*
X638971666Y968509523D01*
X638805000Y968319047D01*
X638638333Y968223809D01*
X641221666Y968795238D02*
X640388333Y968795238D01*
X640305000Y967842857D01*
X640388333Y967938095D01*
X640555000Y968033333D01*
X640971666Y968033333D01*
X641138333Y967938095D01*
X641221666Y967842857D01*
X641305000Y967652380D01*
X641305000Y967176190D01*
X641221666Y966985714D01*
X641138333Y966890476D01*
X640971666Y966795238D01*
X640555000Y966795238D01*
X640388333Y966890476D01*
X640305000Y966985714D01*
X641971666Y967366666D02*
X642805000Y967366666D01*
X641805000Y966795238D02*
X642388333Y968795238D01*
X642971666Y966795238D01*
X645471666Y967842857D02*
X644888333Y967842857D01*
X644888333Y966795238D02*
X644888333Y968795238D01*
X645721666Y968795238D01*
X646388333Y968795238D02*
X646388333Y967176190D01*
X646471666Y966985714D01*
X646555000Y966890476D01*
X646721666Y966795238D01*
X647055000Y966795238D01*
X647221666Y966890476D01*
X647305000Y966985714D01*
X647388333Y967176190D01*
X647388333Y968795238D01*
X648138333Y966890476D02*
X648388333Y966795238D01*
X648805000Y966795238D01*
X648971666Y966890476D01*
X649055000Y966985714D01*
X649138333Y967176190D01*
X649138333Y967366666D01*
X649055000Y967557142D01*
X648971666Y967652380D01*
X648805000Y967747619D01*
X648471666Y967842857D01*
X648305000Y967938095D01*
X648221666Y968033333D01*
X648138333Y968223809D01*
X648138333Y968414285D01*
X648221666Y968604761D01*
X648305000Y968700000D01*
X648471666Y968795238D01*
X648888333Y968795238D01*
X649138333Y968700000D01*
X649888333Y967842857D02*
X650471666Y967842857D01*
X650721666Y966795238D02*
X649888333Y966795238D01*
X649888333Y968795238D01*
X650721666Y968795238D01*
D10*
X613521428Y899890714D02*
X613985714Y899890714D01*
X613735714Y899605000D01*
X613842857Y899605000D01*
X613914285Y899569285D01*
X613950000Y899533571D01*
X613985714Y899462142D01*
X613985714Y899283571D01*
X613950000Y899212142D01*
X613914285Y899176428D01*
X613842857Y899140714D01*
X613628571Y899140714D01*
X613557142Y899176428D01*
X613521428Y899212142D01*
X614235714Y899890714D02*
X614700000Y899890714D01*
X614450000Y899605000D01*
X614557142Y899605000D01*
X614628571Y899569285D01*
X614664285Y899533571D01*
X614700000Y899462142D01*
X614700000Y899283571D01*
X614664285Y899212142D01*
X614628571Y899176428D01*
X614557142Y899140714D01*
X614342857Y899140714D01*
X614271428Y899176428D01*
X614235714Y899212142D01*
X615164285Y899890714D02*
X615235714Y899890714D01*
X615307142Y899855000D01*
X615342857Y899819285D01*
X615378571Y899747857D01*
X615414285Y899605000D01*
X615414285Y899426428D01*
X615378571Y899283571D01*
X615342857Y899212142D01*
X615307142Y899176428D01*
X615235714Y899140714D01*
X615164285Y899140714D01*
X615092857Y899176428D01*
X615057142Y899212142D01*
X615021428Y899283571D01*
X614985714Y899426428D01*
X614985714Y899605000D01*
X615021428Y899747857D01*
X615057142Y899819285D01*
X615092857Y899855000D01*
X615164285Y899890714D01*
X616271428Y899140714D02*
X616450000Y899140714D01*
X616450000Y899283571D01*
X616378571Y899319285D01*
X616307142Y899390714D01*
X616271428Y899497857D01*
X616271428Y899676428D01*
X616307142Y899783571D01*
X616378571Y899855000D01*
X616485714Y899890714D01*
X616628571Y899890714D01*
X616735714Y899855000D01*
X616807142Y899783571D01*
X616842857Y899676428D01*
X616842857Y899497857D01*
X616807142Y899390714D01*
X616735714Y899319285D01*
X616664285Y899283571D01*
X616664285Y899140714D01*
X616842857Y899140714D01*
X659437619Y960235714D02*
X659437619Y960711904D01*
X660437619Y960711904D01*
X660437619Y959711904D02*
X660437619Y959521428D01*
X660390000Y959426190D01*
X660294761Y959330952D01*
X660104285Y959283333D01*
X659770952Y959283333D01*
X659580476Y959330952D01*
X659485238Y959426190D01*
X659437619Y959521428D01*
X659437619Y959711904D01*
X659485238Y959807142D01*
X659580476Y959902380D01*
X659770952Y959950000D01*
X660104285Y959950000D01*
X660294761Y959902380D01*
X660390000Y959807142D01*
X660437619Y959711904D01*
X659723333Y958902380D02*
X659723333Y958426190D01*
X659437619Y958997619D02*
X660437619Y958664285D01*
X659437619Y958330952D01*
X659437619Y957997619D02*
X660437619Y957997619D01*
X660437619Y957759523D01*
X660390000Y957616666D01*
X660294761Y957521428D01*
X660199523Y957473809D01*
X660009047Y957426190D01*
X659866190Y957426190D01*
X659675714Y957473809D01*
X659580476Y957521428D01*
X659485238Y957616666D01*
X659437619Y957759523D01*
X659437619Y957997619D01*
X660485238Y956283333D02*
X659199523Y957140476D01*
X659437619Y955473809D02*
X659437619Y955950000D01*
X660437619Y955950000D01*
X659437619Y955140476D02*
X660437619Y955140476D01*
X659437619Y954664285D02*
X660437619Y954664285D01*
X659437619Y954092857D01*
X660437619Y954092857D01*
X659961428Y953616666D02*
X659961428Y953283333D01*
X659437619Y953140476D02*
X659437619Y953616666D01*
X660437619Y953616666D01*
X660437619Y953140476D01*
X659437619Y967344761D02*
X659437619Y967820952D01*
X660437619Y967820952D01*
X659437619Y967011428D02*
X660437619Y967011428D01*
X659437619Y966535238D02*
X660437619Y966535238D01*
X659437619Y965963809D01*
X660437619Y965963809D01*
X659961428Y965487619D02*
X659961428Y965154285D01*
X659437619Y965011428D02*
X659437619Y965487619D01*
X660437619Y965487619D01*
X660437619Y965011428D01*
X659437619Y978996190D02*
X660437619Y978996190D01*
X659437619Y978424761D01*
X660437619Y978424761D01*
X659961428Y977948571D02*
X659961428Y977615238D01*
X659437619Y977472380D02*
X659437619Y977948571D01*
X660437619Y977948571D01*
X660437619Y977472380D01*
X660437619Y977043809D02*
X659628095Y977043809D01*
X659532857Y976996190D01*
X659485238Y976948571D01*
X659437619Y976853333D01*
X659437619Y976662857D01*
X659485238Y976567619D01*
X659532857Y976520000D01*
X659628095Y976472380D01*
X660437619Y976472380D01*
X660437619Y976139047D02*
X660437619Y975567619D01*
X659437619Y975853333D02*
X660437619Y975853333D01*
X659437619Y974662857D02*
X659913809Y974996190D01*
X659437619Y975234285D02*
X660437619Y975234285D01*
X660437619Y974853333D01*
X660390000Y974758095D01*
X660342380Y974710476D01*
X660247142Y974662857D01*
X660104285Y974662857D01*
X660009047Y974710476D01*
X659961428Y974758095D01*
X659913809Y974853333D01*
X659913809Y975234285D01*
X659723333Y974281904D02*
X659723333Y973805714D01*
X659437619Y974377142D02*
X660437619Y974043809D01*
X659437619Y973710476D01*
X659437619Y972900952D02*
X659437619Y973377142D01*
X660437619Y973377142D01*
D12*
X618375000Y905830476D02*
X618625000Y905735238D01*
X619041666Y905735238D01*
X619208333Y905830476D01*
X619291666Y905925714D01*
X619375000Y906116190D01*
X619375000Y906306666D01*
X619291666Y906497142D01*
X619208333Y906592380D01*
X619041666Y906687619D01*
X618708333Y906782857D01*
X618541666Y906878095D01*
X618458333Y906973333D01*
X618375000Y907163809D01*
X618375000Y907354285D01*
X618458333Y907544761D01*
X618541666Y907640000D01*
X618708333Y907735238D01*
X619125000Y907735238D01*
X619375000Y907640000D01*
X619958333Y907068571D02*
X620291666Y905735238D01*
X620625000Y906687619D01*
X620958333Y905735238D01*
X621291666Y907068571D01*
X621958333Y905735238D02*
X621958333Y907068571D01*
X621958333Y907735238D02*
X621875000Y907640000D01*
X621958333Y907544761D01*
X622041666Y907640000D01*
X621958333Y907735238D01*
X621958333Y907544761D01*
X622541666Y907068571D02*
X623208333Y907068571D01*
X622791666Y907735238D02*
X622791666Y906020952D01*
X622875000Y905830476D01*
X623041666Y905735238D01*
X623208333Y905735238D01*
X624541666Y905830476D02*
X624375000Y905735238D01*
X624041666Y905735238D01*
X623875000Y905830476D01*
X623791666Y905925714D01*
X623708333Y906116190D01*
X623708333Y906687619D01*
X623791666Y906878095D01*
X623875000Y906973333D01*
X624041666Y907068571D01*
X624375000Y907068571D01*
X624541666Y906973333D01*
X625291666Y905735238D02*
X625291666Y907735238D01*
X626041666Y905735238D02*
X626041666Y906782857D01*
X625958333Y906973333D01*
X625791666Y907068571D01*
X625541666Y907068571D01*
X625375000Y906973333D01*
X625291666Y906878095D01*
D10*
X634353333Y901677619D02*
X634020000Y902153809D01*
X633781904Y901677619D02*
X633781904Y902677619D01*
X634162857Y902677619D01*
X634258095Y902630000D01*
X634305714Y902582380D01*
X634353333Y902487142D01*
X634353333Y902344285D01*
X634305714Y902249047D01*
X634258095Y902201428D01*
X634162857Y902153809D01*
X633781904Y902153809D01*
X634686666Y902677619D02*
X635353333Y901677619D01*
X635353333Y902677619D02*
X634686666Y901677619D01*
X636188095Y902677619D02*
X636759523Y902677619D01*
X636473809Y901677619D02*
X636473809Y902677619D01*
X636997619Y902677619D02*
X637664285Y901677619D01*
X637664285Y902677619D02*
X636997619Y901677619D01*
X576775714Y901687619D02*
X576775714Y902687619D01*
X577013809Y902687619D01*
X577156666Y902640000D01*
X577251904Y902544761D01*
X577299523Y902449523D01*
X577347142Y902259047D01*
X577347142Y902116190D01*
X577299523Y901925714D01*
X577251904Y901830476D01*
X577156666Y901735238D01*
X577013809Y901687619D01*
X576775714Y901687619D01*
X577728095Y902592380D02*
X577775714Y902640000D01*
X577870952Y902687619D01*
X578109047Y902687619D01*
X578204285Y902640000D01*
X578251904Y902592380D01*
X578299523Y902497142D01*
X578299523Y902401904D01*
X578251904Y902259047D01*
X577680476Y901687619D01*
X578299523Y901687619D01*
X578632857Y902687619D02*
X579251904Y902687619D01*
X578918571Y902306666D01*
X579061428Y902306666D01*
X579156666Y902259047D01*
X579204285Y902211428D01*
X579251904Y902116190D01*
X579251904Y901878095D01*
X579204285Y901782857D01*
X579156666Y901735238D01*
X579061428Y901687619D01*
X578775714Y901687619D01*
X578680476Y901735238D01*
X578632857Y901782857D01*
X576811904Y938497619D02*
X577430952Y938497619D01*
X577097619Y938116666D01*
X577240476Y938116666D01*
X577335714Y938069047D01*
X577383333Y938021428D01*
X577430952Y937926190D01*
X577430952Y937688095D01*
X577383333Y937592857D01*
X577335714Y937545238D01*
X577240476Y937497619D01*
X576954761Y937497619D01*
X576859523Y937545238D01*
X576811904Y937592857D01*
X577716666Y938497619D02*
X578050000Y937497619D01*
X578383333Y938497619D01*
X578621428Y938497619D02*
X579240476Y938497619D01*
X578907142Y938116666D01*
X579050000Y938116666D01*
X579145238Y938069047D01*
X579192857Y938021428D01*
X579240476Y937926190D01*
X579240476Y937688095D01*
X579192857Y937592857D01*
X579145238Y937545238D01*
X579050000Y937497619D01*
X578764285Y937497619D01*
X578669047Y937545238D01*
X578621428Y937592857D01*
X608534285Y937818571D02*
X609296190Y937818571D01*
X608915238Y937437619D02*
X608915238Y938199523D01*
X610248571Y938437619D02*
X609772380Y938437619D01*
X609724761Y937961428D01*
X609772380Y938009047D01*
X609867619Y938056666D01*
X610105714Y938056666D01*
X610200952Y938009047D01*
X610248571Y937961428D01*
X610296190Y937866190D01*
X610296190Y937628095D01*
X610248571Y937532857D01*
X610200952Y937485238D01*
X610105714Y937437619D01*
X609867619Y937437619D01*
X609772380Y937485238D01*
X609724761Y937532857D01*
X610581904Y938437619D02*
X610915238Y937437619D01*
X611248571Y938437619D01*
X608691904Y902281428D02*
X609025238Y902281428D01*
X609168095Y901757619D02*
X608691904Y901757619D01*
X608691904Y902757619D01*
X609168095Y902757619D01*
X609596666Y901757619D02*
X609596666Y902757619D01*
X610168095Y901757619D01*
X610168095Y902757619D01*
D13*
X590240000Y920152857D02*
X590823333Y920152857D01*
X591073333Y919105238D02*
X590240000Y919105238D01*
X590240000Y921105238D01*
X591073333Y921105238D01*
X591740000Y919200476D02*
X591990000Y919105238D01*
X592406666Y919105238D01*
X592573333Y919200476D01*
X592656666Y919295714D01*
X592740000Y919486190D01*
X592740000Y919676666D01*
X592656666Y919867142D01*
X592573333Y919962380D01*
X592406666Y920057619D01*
X592073333Y920152857D01*
X591906666Y920248095D01*
X591823333Y920343333D01*
X591740000Y920533809D01*
X591740000Y920724285D01*
X591823333Y920914761D01*
X591906666Y921010000D01*
X592073333Y921105238D01*
X592490000Y921105238D01*
X592740000Y921010000D01*
X593490000Y919105238D02*
X593490000Y921105238D01*
X594156666Y921105238D01*
X594323333Y921010000D01*
X594406666Y920914761D01*
X594490000Y920724285D01*
X594490000Y920438571D01*
X594406666Y920248095D01*
X594323333Y920152857D01*
X594156666Y920057619D01*
X593490000Y920057619D01*
X595073333Y921105238D02*
X596156666Y921105238D01*
X595573333Y920343333D01*
X595823333Y920343333D01*
X595990000Y920248095D01*
X596073333Y920152857D01*
X596156666Y919962380D01*
X596156666Y919486190D01*
X596073333Y919295714D01*
X595990000Y919200476D01*
X595823333Y919105238D01*
X595323333Y919105238D01*
X595156666Y919200476D01*
X595073333Y919295714D01*
X596823333Y920914761D02*
X596906666Y921010000D01*
X597073333Y921105238D01*
X597490000Y921105238D01*
X597656666Y921010000D01*
X597740000Y920914761D01*
X597823333Y920724285D01*
X597823333Y920533809D01*
X597740000Y920248095D01*
X596740000Y919105238D01*
X597823333Y919105238D01*
D12*
X634298333Y908292857D02*
X633715000Y908292857D01*
X633715000Y907245238D02*
X633715000Y909245238D01*
X634548333Y909245238D01*
X634965000Y909245238D02*
X635965000Y909245238D01*
X635465000Y907245238D02*
X635465000Y909245238D01*
X636465000Y909054761D02*
X636548333Y909150000D01*
X636715000Y909245238D01*
X637131666Y909245238D01*
X637298333Y909150000D01*
X637381666Y909054761D01*
X637465000Y908864285D01*
X637465000Y908673809D01*
X637381666Y908388095D01*
X636381666Y907245238D01*
X637465000Y907245238D01*
X638048333Y909245238D02*
X639131666Y909245238D01*
X638548333Y908483333D01*
X638798333Y908483333D01*
X638965000Y908388095D01*
X639048333Y908292857D01*
X639131666Y908102380D01*
X639131666Y907626190D01*
X639048333Y907435714D01*
X638965000Y907340476D01*
X638798333Y907245238D01*
X638298333Y907245238D01*
X638131666Y907340476D01*
X638048333Y907435714D01*
X639798333Y909054761D02*
X639881666Y909150000D01*
X640048333Y909245238D01*
X640465000Y909245238D01*
X640631666Y909150000D01*
X640715000Y909054761D01*
X640798333Y908864285D01*
X640798333Y908673809D01*
X640715000Y908388095D01*
X639715000Y907245238D01*
X640798333Y907245238D01*
X642548333Y907245238D02*
X641965000Y908197619D01*
X641548333Y907245238D02*
X641548333Y909245238D01*
X642215000Y909245238D01*
X642381666Y909150000D01*
X642465000Y909054761D01*
X642548333Y908864285D01*
X642548333Y908578571D01*
X642465000Y908388095D01*
X642381666Y908292857D01*
X642215000Y908197619D01*
X641548333Y908197619D01*
D14*
X671730476Y974144761D02*
X675730476Y974144761D01*
X675730476Y972620952D01*
X675540000Y972240000D01*
X675349523Y972049523D01*
X674968571Y971859047D01*
X674397142Y971859047D01*
X674016190Y972049523D01*
X673825714Y972240000D01*
X673635238Y972620952D01*
X673635238Y974144761D01*
X671730476Y969573333D02*
X671920952Y969954285D01*
X672111428Y970144761D01*
X672492380Y970335238D01*
X673635238Y970335238D01*
X674016190Y970144761D01*
X674206666Y969954285D01*
X674397142Y969573333D01*
X674397142Y969001904D01*
X674206666Y968620952D01*
X674016190Y968430476D01*
X673635238Y968240000D01*
X672492380Y968240000D01*
X672111428Y968430476D01*
X671920952Y968620952D01*
X671730476Y969001904D01*
X671730476Y969573333D01*
X674397142Y966906666D02*
X671730476Y966144761D01*
X673635238Y965382857D01*
X671730476Y964620952D01*
X674397142Y963859047D01*
X671920952Y960811428D02*
X671730476Y961192380D01*
X671730476Y961954285D01*
X671920952Y962335238D01*
X672301904Y962525714D01*
X673825714Y962525714D01*
X674206666Y962335238D01*
X674397142Y961954285D01*
X674397142Y961192380D01*
X674206666Y960811428D01*
X673825714Y960620952D01*
X673444761Y960620952D01*
X673063809Y962525714D01*
X671730476Y958906666D02*
X674397142Y958906666D01*
X673635238Y958906666D02*
X674016190Y958716190D01*
X674206666Y958525714D01*
X674397142Y958144761D01*
X674397142Y957763809D01*
D12*
X621495238Y937908333D02*
X623495238Y937908333D01*
X622542857Y937908333D02*
X622542857Y936908333D01*
X621495238Y936908333D02*
X623495238Y936908333D01*
X621495238Y935241666D02*
X621495238Y936075000D01*
X623495238Y936075000D01*
X621495238Y934658333D02*
X623495238Y934658333D01*
X621495238Y933658333D02*
X622638095Y934408333D01*
X623495238Y933658333D02*
X622352380Y934658333D01*
X622257142Y932908333D02*
X622257142Y931575000D01*
X621495238Y930741666D02*
X623495238Y930741666D01*
X623495238Y930075000D01*
X623400000Y929908333D01*
X623304761Y929825000D01*
X623114285Y929741666D01*
X622828571Y929741666D01*
X622638095Y929825000D01*
X622542857Y929908333D01*
X622447619Y930075000D01*
X622447619Y930741666D01*
X621495238Y928991666D02*
X623495238Y928991666D01*
X622066666Y928408333D01*
X623495238Y927825000D01*
X621495238Y927825000D01*
X623495238Y926658333D02*
X623495238Y926491666D01*
X623400000Y926325000D01*
X623304761Y926241666D01*
X623114285Y926158333D01*
X622733333Y926075000D01*
X622257142Y926075000D01*
X621876190Y926158333D01*
X621685714Y926241666D01*
X621590476Y926325000D01*
X621495238Y926491666D01*
X621495238Y926658333D01*
X621590476Y926825000D01*
X621685714Y926908333D01*
X621876190Y926991666D01*
X622257142Y927075000D01*
X622733333Y927075000D01*
X623114285Y926991666D01*
X623304761Y926908333D01*
X623400000Y926825000D01*
X623495238Y926658333D01*
X621495238Y924408333D02*
X621495238Y925408333D01*
X621495238Y924908333D02*
X623495238Y924908333D01*
X623209523Y925075000D01*
X623019047Y925241666D01*
X622923809Y925408333D01*
X639471666Y934260000D02*
X639471666Y933426666D01*
X638900238Y934426666D02*
X640900238Y933843333D01*
X638900238Y933260000D01*
X639090714Y931676666D02*
X638995476Y931760000D01*
X638900238Y932010000D01*
X638900238Y932176666D01*
X638995476Y932426666D01*
X639185952Y932593333D01*
X639376428Y932676666D01*
X639757380Y932760000D01*
X640043095Y932760000D01*
X640424047Y932676666D01*
X640614523Y932593333D01*
X640805000Y932426666D01*
X640900238Y932176666D01*
X640900238Y932010000D01*
X640805000Y931760000D01*
X640709761Y931676666D01*
X638995476Y931010000D02*
X638900238Y930760000D01*
X638900238Y930343333D01*
X638995476Y930176666D01*
X639090714Y930093333D01*
X639281190Y930010000D01*
X639471666Y930010000D01*
X639662142Y930093333D01*
X639757380Y930176666D01*
X639852619Y930343333D01*
X639947857Y930676666D01*
X640043095Y930843333D01*
X640138333Y930926666D01*
X640328809Y931010000D01*
X640519285Y931010000D01*
X640709761Y930926666D01*
X640805000Y930843333D01*
X640900238Y930676666D01*
X640900238Y930260000D01*
X640805000Y930010000D01*
X640900238Y929426666D02*
X640900238Y928260000D01*
X638900238Y929010000D01*
X638900238Y926676666D02*
X638900238Y927676666D01*
X638900238Y927176666D02*
X640900238Y927176666D01*
X640614523Y927343333D01*
X640424047Y927510000D01*
X640328809Y927676666D01*
X640709761Y926010000D02*
X640805000Y925926666D01*
X640900238Y925760000D01*
X640900238Y925343333D01*
X640805000Y925176666D01*
X640709761Y925093333D01*
X640519285Y925010000D01*
X640328809Y925010000D01*
X640043095Y925093333D01*
X638900238Y926093333D01*
X638900238Y925010000D01*
X662600476Y937111666D02*
X662505238Y936861666D01*
X662505238Y936445000D01*
X662600476Y936278333D01*
X662695714Y936195000D01*
X662886190Y936111666D01*
X663076666Y936111666D01*
X663267142Y936195000D01*
X663362380Y936278333D01*
X663457619Y936445000D01*
X663552857Y936778333D01*
X663648095Y936945000D01*
X663743333Y937028333D01*
X663933809Y937111666D01*
X664124285Y937111666D01*
X664314761Y937028333D01*
X664410000Y936945000D01*
X664505238Y936778333D01*
X664505238Y936361666D01*
X664410000Y936111666D01*
X662505238Y934528333D02*
X662505238Y935361666D01*
X664505238Y935361666D01*
X663076666Y934028333D02*
X663076666Y933195000D01*
X662505238Y934195000D02*
X664505238Y933611666D01*
X662505238Y933028333D01*
X663267142Y932445000D02*
X663267142Y931111666D01*
X664505238Y929945000D02*
X664505238Y929778333D01*
X664410000Y929611666D01*
X664314761Y929528333D01*
X664124285Y929445000D01*
X663743333Y929361666D01*
X663267142Y929361666D01*
X662886190Y929445000D01*
X662695714Y929528333D01*
X662600476Y929611666D01*
X662505238Y929778333D01*
X662505238Y929945000D01*
X662600476Y930111666D01*
X662695714Y930195000D01*
X662886190Y930278333D01*
X663267142Y930361666D01*
X663743333Y930361666D01*
X664124285Y930278333D01*
X664314761Y930195000D01*
X664410000Y930111666D01*
X664505238Y929945000D01*
X664505238Y927778333D02*
X664505238Y928611666D01*
X663552857Y928695000D01*
X663648095Y928611666D01*
X663743333Y928445000D01*
X663743333Y928028333D01*
X663648095Y927861666D01*
X663552857Y927778333D01*
X663362380Y927695000D01*
X662886190Y927695000D01*
X662695714Y927778333D01*
X662600476Y927861666D01*
X662505238Y928028333D01*
X662505238Y928445000D01*
X662600476Y928611666D01*
X662695714Y928695000D01*
X664505238Y927195000D02*
X662505238Y926611666D01*
X664505238Y926028333D01*
X662505238Y925445000D02*
X664505238Y925445000D01*
X664505238Y925028333D01*
X664410000Y924778333D01*
X664219523Y924611666D01*
X664029047Y924528333D01*
X663648095Y924445000D01*
X663362380Y924445000D01*
X662981428Y924528333D01*
X662790952Y924611666D01*
X662600476Y924778333D01*
X662505238Y925028333D01*
X662505238Y925445000D01*
X662695714Y922695000D02*
X662600476Y922778333D01*
X662505238Y923028333D01*
X662505238Y923195000D01*
X662600476Y923445000D01*
X662790952Y923611666D01*
X662981428Y923695000D01*
X663362380Y923778333D01*
X663648095Y923778333D01*
X664029047Y923695000D01*
X664219523Y923611666D01*
X664410000Y923445000D01*
X664505238Y923195000D01*
X664505238Y923028333D01*
X664410000Y922778333D01*
X664314761Y922695000D01*
X663267142Y921945000D02*
X663267142Y920611666D01*
X662600476Y919861666D02*
X662505238Y919611666D01*
X662505238Y919195000D01*
X662600476Y919028333D01*
X662695714Y918945000D01*
X662886190Y918861666D01*
X663076666Y918861666D01*
X663267142Y918945000D01*
X663362380Y919028333D01*
X663457619Y919195000D01*
X663552857Y919528333D01*
X663648095Y919695000D01*
X663743333Y919778333D01*
X663933809Y919861666D01*
X664124285Y919861666D01*
X664314761Y919778333D01*
X664410000Y919695000D01*
X664505238Y919528333D01*
X664505238Y919111666D01*
X664410000Y918861666D01*
X662505238Y917278333D02*
X662505238Y918111666D01*
X664505238Y918111666D01*
X663267142Y916695000D02*
X663267142Y915361666D01*
X662695714Y913528333D02*
X662600476Y913611666D01*
X662505238Y913861666D01*
X662505238Y914028333D01*
X662600476Y914278333D01*
X662790952Y914445000D01*
X662981428Y914528333D01*
X663362380Y914611666D01*
X663648095Y914611666D01*
X664029047Y914528333D01*
X664219523Y914445000D01*
X664410000Y914278333D01*
X664505238Y914028333D01*
X664505238Y913861666D01*
X664410000Y913611666D01*
X664314761Y913528333D01*
D11*
X633035000Y947030000D02*
X646335000Y947030000D01*
X633035000Y915505000D02*
X633035000Y947005000D01*
X646335000Y915505000D02*
X633035000Y915505000D01*
X646335000Y947005000D02*
X646335000Y915505000D01*
X679520000Y900560000D02*
X679520000Y950560000D01*
X646720000Y900560000D02*
X679520000Y900560000D01*
X646720000Y950560000D02*
X646720000Y900560000D01*
X679520000Y950560000D02*
X646720000Y950560000D01*
D12*
X595965000Y962625238D02*
X597131666Y962625238D01*
X595965000Y960625238D01*
X597131666Y960625238D01*
X597798333Y960625238D02*
X597798333Y962625238D01*
X598381666Y961196666D01*
X598965000Y962625238D01*
X598965000Y960625238D01*
X599798333Y960625238D02*
X599798333Y962625238D01*
X600465000Y962625238D01*
X600631666Y962530000D01*
X600715000Y962434761D01*
X600798333Y962244285D01*
X600798333Y961958571D01*
X600715000Y961768095D01*
X600631666Y961672857D01*
X600465000Y961577619D01*
X599798333Y961577619D01*
X601298333Y962625238D02*
X602298333Y962625238D01*
X601798333Y960625238D02*
X601798333Y962625238D01*
X603798333Y960625238D02*
X602798333Y960625238D01*
X603298333Y960625238D02*
X603298333Y962625238D01*
X603131666Y962339523D01*
X602965000Y962149047D01*
X602798333Y962053809D01*
X604881666Y962625238D02*
X605048333Y962625238D01*
X605215000Y962530000D01*
X605298333Y962434761D01*
X605381666Y962244285D01*
X605465000Y961863333D01*
X605465000Y961387142D01*
X605381666Y961006190D01*
X605298333Y960815714D01*
X605215000Y960720476D01*
X605048333Y960625238D01*
X604881666Y960625238D01*
X604715000Y960720476D01*
X604631666Y960815714D01*
X604548333Y961006190D01*
X604465000Y961387142D01*
X604465000Y961863333D01*
X604548333Y962244285D01*
X604631666Y962434761D01*
X604715000Y962530000D01*
X604881666Y962625238D01*
X607131666Y960625238D02*
X606131666Y960625238D01*
X606631666Y960625238D02*
X606631666Y962625238D01*
X606465000Y962339523D01*
X606298333Y962149047D01*
X606131666Y962053809D01*
X608465000Y961672857D02*
X608715000Y961577619D01*
X608798333Y961482380D01*
X608881666Y961291904D01*
X608881666Y961006190D01*
X608798333Y960815714D01*
X608715000Y960720476D01*
X608548333Y960625238D01*
X607881666Y960625238D01*
X607881666Y962625238D01*
X608465000Y962625238D01*
X608631666Y962530000D01*
X608715000Y962434761D01*
X608798333Y962244285D01*
X608798333Y962053809D01*
X608715000Y961863333D01*
X608631666Y961768095D01*
X608465000Y961672857D01*
X607881666Y961672857D01*
D11*
X629535000Y950490000D02*
X629535000Y972490000D01*
X577535000Y950490000D02*
X629535000Y950490000D01*
D10*
X577535000Y972490000D02*
X577535000Y950490000D01*
D11*
X577535000Y972490000D02*
X629535000Y972490000D01*
X609740000Y907152936D02*
X609740000Y910207064D01*
X612460000Y907152936D02*
X612460000Y910207064D01*
X638877064Y911500000D02*
X635822936Y911500000D01*
X638877064Y914220000D02*
X635822936Y914220000D01*
X633240000Y903400000D02*
X633240000Y906060000D01*
X633240000Y903400000D02*
X646000000Y903400000D01*
X646000000Y903400000D02*
X646000000Y906060000D01*
X633240000Y906060000D02*
X646000000Y906060000D01*
X630640000Y906060000D02*
X631970000Y906060000D01*
X630640000Y904730000D02*
X630640000Y906060000D01*
X641520000Y960050000D02*
X632780000Y960050000D01*
X641520000Y960050000D02*
X641520000Y964290000D01*
X632780000Y964290000D02*
X632780000Y960050000D01*
X632780000Y964290000D02*
X641520000Y964290000D01*
X656400000Y960070000D02*
X647660000Y960070000D01*
X656400000Y960070000D02*
X656400000Y964310000D01*
X647660000Y964310000D02*
X647660000Y960070000D01*
X647660000Y964310000D02*
X656400000Y964310000D01*
X628510000Y956485000D02*
X628510000Y966645000D01*
X620890000Y956485000D02*
X628510000Y956485000D01*
X620890000Y966645000D02*
X620890000Y956485000D01*
X628510000Y966645000D02*
X620890000Y966645000D01*
X627240000Y966645000D02*
X627240000Y956485000D01*
X670660000Y910820000D02*
X670660000Y903200000D01*
X655420000Y910820000D02*
X655420000Y903200000D01*
X670660000Y909550000D02*
X655420000Y909550000D01*
X670660000Y903200000D02*
X655420000Y903200000D01*
X670660000Y910820000D02*
X655420000Y910820000D01*
X644790000Y946710000D02*
X634630000Y946710000D01*
X644790000Y939090000D02*
X644790000Y946710000D01*
X634630000Y939090000D02*
X644790000Y939090000D01*
X634630000Y946710000D02*
X634630000Y939090000D01*
X634630000Y945440000D02*
X644790000Y945440000D01*
X675560000Y946890000D02*
X675560000Y939270000D01*
X660320000Y946890000D02*
X660320000Y939270000D01*
X675560000Y945620000D02*
X660320000Y945620000D01*
X675560000Y939270000D02*
X660320000Y939270000D01*
X675560000Y946890000D02*
X660320000Y946890000D01*
X625875000Y900379000D02*
X625875000Y900535000D01*
X625875000Y902695000D02*
X625875000Y902851000D01*
X622642665Y900536392D02*
G75*
G03*
X625875000Y900379484I1672335J1078608D01*
G01*
X622642665Y902693608D02*
G75*
G02*
X625875000Y902850516I1672335J-1078608D01*
G01*
X623273870Y900535163D02*
G75*
G03*
X625355961Y900535000I1041130J1079837D01*
G01*
X623273870Y902694837D02*
G75*
G02*
X625355961Y902695000I1041130J-1079837D01*
G01*
X607870000Y903570000D02*
X605210000Y903570000D01*
X607870000Y903570000D02*
X607870000Y939190000D01*
X607870000Y939190000D02*
X605210000Y939190000D01*
X605210000Y903570000D02*
X605210000Y939190000D01*
X605210000Y900970000D02*
X605210000Y902300000D01*
X606540000Y900970000D02*
X605210000Y900970000D01*
X582470000Y903570000D02*
X579810000Y903570000D01*
X582470000Y903570000D02*
X582470000Y939190000D01*
X582470000Y939190000D02*
X579810000Y939190000D01*
X579810000Y903570000D02*
X579810000Y939190000D01*
X579810000Y900970000D02*
X579810000Y902300000D01*
X581140000Y900970000D02*
X579810000Y900970000D01*
D15*
X666000000Y950672000D02*
G75*
G03*
X666000000Y950672000I-100000J0D01*
G01*
D16*
X679108000Y981558000D02*
X679108000Y951322000D01*
X661328000Y981558000D02*
X661328000Y951322000D01*
X661328000Y981558000D02*
X679108000Y981558000D01*
X679108000Y951322000D02*
X661328000Y951322000D01*
D11*
X643730000Y919870000D02*
X643730000Y918540000D01*
X642400000Y919870000D02*
X643730000Y919870000D01*
X641130000Y919870000D02*
X641130000Y917210000D01*
X641130000Y917210000D02*
X635990000Y917210000D01*
X641130000Y919870000D02*
X635990000Y919870000D01*
X635990000Y919870000D02*
X635990000Y917210000D01*
X581455000Y955345000D02*
X580125000Y955345000D01*
X581455000Y956675000D02*
X581455000Y955345000D01*
X581455000Y957945000D02*
X578795000Y957945000D01*
X578795000Y957945000D02*
X578795000Y965625000D01*
X581455000Y957945000D02*
X581455000Y965625000D01*
X581455000Y965625000D02*
X578795000Y965625000D01*
X632225000Y946950000D02*
X612025000Y946950000D01*
X612025000Y946950000D02*
X612025000Y912750000D01*
X612025000Y912750000D02*
X632225000Y912750000D01*
X632225000Y912750000D02*
X632225000Y946950000D01*
X625625000Y947340000D02*
X623615000Y947340000D01*
X613832936Y903025000D02*
X616887064Y903025000D01*
X613832936Y900305000D02*
X616887064Y900305000D01*
D10*
X609272380Y908513333D02*
X608796190Y908180000D01*
X609272380Y907941904D02*
X608272380Y907941904D01*
X608272380Y908322857D01*
X608320000Y908418095D01*
X608367619Y908465714D01*
X608462857Y908513333D01*
X608605714Y908513333D01*
X608700952Y908465714D01*
X608748571Y908418095D01*
X608796190Y908322857D01*
X608796190Y907941904D01*
X608272380Y908846666D02*
X608272380Y909465714D01*
X608653333Y909132380D01*
X608653333Y909275238D01*
X608700952Y909370476D01*
X608748571Y909418095D01*
X608843809Y909465714D01*
X609081904Y909465714D01*
X609177142Y909418095D01*
X609224761Y909370476D01*
X609272380Y909275238D01*
X609272380Y908989523D01*
X609224761Y908894285D01*
X609177142Y908846666D01*
X637183333Y910127619D02*
X636850000Y910603809D01*
X636611904Y910127619D02*
X636611904Y911127619D01*
X636992857Y911127619D01*
X637088095Y911080000D01*
X637135714Y911032380D01*
X637183333Y910937142D01*
X637183333Y910794285D01*
X637135714Y910699047D01*
X637088095Y910651428D01*
X636992857Y910603809D01*
X636611904Y910603809D01*
X637564285Y911032380D02*
X637611904Y911080000D01*
X637707142Y911127619D01*
X637945238Y911127619D01*
X638040476Y911080000D01*
X638088095Y911032380D01*
X638135714Y910937142D01*
X638135714Y910841904D01*
X638088095Y910699047D01*
X637516666Y910127619D01*
X638135714Y910127619D01*
X628652380Y904396666D02*
X629366666Y904396666D01*
X629509523Y904349047D01*
X629604761Y904253809D01*
X629652380Y904110952D01*
X629652380Y904015714D01*
X628652380Y905349047D02*
X628652380Y904872857D01*
X629128571Y904825238D01*
X629080952Y904872857D01*
X629033333Y904968095D01*
X629033333Y905206190D01*
X629080952Y905301428D01*
X629128571Y905349047D01*
X629223809Y905396666D01*
X629461904Y905396666D01*
X629557142Y905349047D01*
X629604761Y905301428D01*
X629652380Y905206190D01*
X629652380Y904968095D01*
X629604761Y904872857D01*
X629557142Y904825238D01*
X636926666Y965191428D02*
X636593333Y965191428D01*
X636593333Y964667619D02*
X636593333Y965667619D01*
X637069523Y965667619D01*
X637402857Y965572380D02*
X637450476Y965620000D01*
X637545714Y965667619D01*
X637783809Y965667619D01*
X637879047Y965620000D01*
X637926666Y965572380D01*
X637974285Y965477142D01*
X637974285Y965381904D01*
X637926666Y965239047D01*
X637355238Y964667619D01*
X637974285Y964667619D01*
X651806666Y965211428D02*
X651473333Y965211428D01*
X651473333Y964687619D02*
X651473333Y965687619D01*
X651949523Y965687619D01*
X652854285Y964687619D02*
X652282857Y964687619D01*
X652568571Y964687619D02*
X652568571Y965687619D01*
X652473333Y965544761D01*
X652378095Y965449523D01*
X652282857Y965401904D01*
X619072380Y961231666D02*
X619786666Y961231666D01*
X619929523Y961184047D01*
X620024761Y961088809D01*
X620072380Y960945952D01*
X620072380Y960850714D01*
X620072380Y961755476D02*
X620072380Y961945952D01*
X620024761Y962041190D01*
X619977142Y962088809D01*
X619834285Y962184047D01*
X619643809Y962231666D01*
X619262857Y962231666D01*
X619167619Y962184047D01*
X619120000Y962136428D01*
X619072380Y962041190D01*
X619072380Y961850714D01*
X619120000Y961755476D01*
X619167619Y961707857D01*
X619262857Y961660238D01*
X619500952Y961660238D01*
X619596190Y961707857D01*
X619643809Y961755476D01*
X619691428Y961850714D01*
X619691428Y962041190D01*
X619643809Y962136428D01*
X619596190Y962184047D01*
X619500952Y962231666D01*
X662736666Y902907619D02*
X662736666Y902193333D01*
X662689047Y902050476D01*
X662593809Y901955238D01*
X662450952Y901907619D01*
X662355714Y901907619D01*
X663117619Y902907619D02*
X663784285Y902907619D01*
X663355714Y901907619D01*
X639376666Y938367619D02*
X639376666Y937653333D01*
X639329047Y937510476D01*
X639233809Y937415238D01*
X639090952Y937367619D01*
X638995714Y937367619D01*
X639995714Y937939047D02*
X639900476Y937986666D01*
X639852857Y938034285D01*
X639805238Y938129523D01*
X639805238Y938177142D01*
X639852857Y938272380D01*
X639900476Y938320000D01*
X639995714Y938367619D01*
X640186190Y938367619D01*
X640281428Y938320000D01*
X640329047Y938272380D01*
X640376666Y938177142D01*
X640376666Y938129523D01*
X640329047Y938034285D01*
X640281428Y937986666D01*
X640186190Y937939047D01*
X639995714Y937939047D01*
X639900476Y937891428D01*
X639852857Y937843809D01*
X639805238Y937748571D01*
X639805238Y937558095D01*
X639852857Y937462857D01*
X639900476Y937415238D01*
X639995714Y937367619D01*
X640186190Y937367619D01*
X640281428Y937415238D01*
X640329047Y937462857D01*
X640376666Y937558095D01*
X640376666Y937748571D01*
X640329047Y937843809D01*
X640281428Y937891428D01*
X640186190Y937939047D01*
X667636666Y938977619D02*
X667636666Y938263333D01*
X667589047Y938120476D01*
X667493809Y938025238D01*
X667350952Y937977619D01*
X667255714Y937977619D01*
X668541428Y938977619D02*
X668350952Y938977619D01*
X668255714Y938930000D01*
X668208095Y938882380D01*
X668112857Y938739523D01*
X668065238Y938549047D01*
X668065238Y938168095D01*
X668112857Y938072857D01*
X668160476Y938025238D01*
X668255714Y937977619D01*
X668446190Y937977619D01*
X668541428Y938025238D01*
X668589047Y938072857D01*
X668636666Y938168095D01*
X668636666Y938406190D01*
X668589047Y938501428D01*
X668541428Y938549047D01*
X668446190Y938596666D01*
X668255714Y938596666D01*
X668160476Y938549047D01*
X668112857Y938501428D01*
X668065238Y938406190D01*
X627291904Y901227619D02*
X627291904Y902227619D01*
X627530000Y902227619D01*
X627672857Y902180000D01*
X627768095Y902084761D01*
X627815714Y901989523D01*
X627863333Y901799047D01*
X627863333Y901656190D01*
X627815714Y901465714D01*
X627768095Y901370476D01*
X627672857Y901275238D01*
X627530000Y901227619D01*
X627291904Y901227619D01*
X628815714Y901227619D02*
X628244285Y901227619D01*
X628530000Y901227619D02*
X628530000Y902227619D01*
X628434761Y902084761D01*
X628339523Y901989523D01*
X628244285Y901941904D01*
X606206666Y900077619D02*
X606206666Y899363333D01*
X606159047Y899220476D01*
X606063809Y899125238D01*
X605920952Y899077619D01*
X605825714Y899077619D01*
X607206666Y899077619D02*
X606635238Y899077619D01*
X606920952Y899077619D02*
X606920952Y900077619D01*
X606825714Y899934761D01*
X606730476Y899839523D01*
X606635238Y899791904D01*
X580806666Y900077619D02*
X580806666Y899363333D01*
X580759047Y899220476D01*
X580663809Y899125238D01*
X580520952Y899077619D01*
X580425714Y899077619D01*
X581235238Y899982380D02*
X581282857Y900030000D01*
X581378095Y900077619D01*
X581616190Y900077619D01*
X581711428Y900030000D01*
X581759047Y899982380D01*
X581806666Y899887142D01*
X581806666Y899791904D01*
X581759047Y899649047D01*
X581187619Y899077619D01*
X581806666Y899077619D01*
X665322380Y983546666D02*
X666036666Y983546666D01*
X666179523Y983499047D01*
X666274761Y983403809D01*
X666322380Y983260952D01*
X666322380Y983165714D01*
X665322380Y983927619D02*
X665322380Y984546666D01*
X665703333Y984213333D01*
X665703333Y984356190D01*
X665750952Y984451428D01*
X665798571Y984499047D01*
X665893809Y984546666D01*
X666131904Y984546666D01*
X666227142Y984499047D01*
X666274761Y984451428D01*
X666322380Y984356190D01*
X666322380Y984070476D01*
X666274761Y983975238D01*
X666227142Y983927619D01*
X644182380Y917730476D02*
X644896666Y917730476D01*
X645039523Y917682857D01*
X645134761Y917587619D01*
X645182380Y917444761D01*
X645182380Y917349523D01*
X645182380Y918730476D02*
X645182380Y918159047D01*
X645182380Y918444761D02*
X644182380Y918444761D01*
X644325238Y918349523D01*
X644420476Y918254285D01*
X644468095Y918159047D01*
X644182380Y919349523D02*
X644182380Y919444761D01*
X644230000Y919540000D01*
X644277619Y919587619D01*
X644372857Y919635238D01*
X644563333Y919682857D01*
X644801428Y919682857D01*
X644991904Y919635238D01*
X645087142Y919587619D01*
X645134761Y919540000D01*
X645182380Y919444761D01*
X645182380Y919349523D01*
X645134761Y919254285D01*
X645087142Y919206666D01*
X644991904Y919159047D01*
X644801428Y919111428D01*
X644563333Y919111428D01*
X644372857Y919159047D01*
X644277619Y919206666D01*
X644230000Y919254285D01*
X644182380Y919349523D01*
X579315476Y954892619D02*
X579315476Y954178333D01*
X579267857Y954035476D01*
X579172619Y953940238D01*
X579029761Y953892619D01*
X578934523Y953892619D01*
X580315476Y953892619D02*
X579744047Y953892619D01*
X580029761Y953892619D02*
X580029761Y954892619D01*
X579934523Y954749761D01*
X579839285Y954654523D01*
X579744047Y954606904D01*
X581267857Y953892619D02*
X580696428Y953892619D01*
X580982142Y953892619D02*
X580982142Y954892619D01*
X580886904Y954749761D01*
X580791666Y954654523D01*
X580696428Y954606904D01*
X623960714Y948037619D02*
X623960714Y949037619D01*
X624341666Y949037619D01*
X624436904Y948990000D01*
X624484523Y948942380D01*
X624532142Y948847142D01*
X624532142Y948704285D01*
X624484523Y948609047D01*
X624436904Y948561428D01*
X624341666Y948513809D01*
X623960714Y948513809D01*
X624913095Y948085238D02*
X625055952Y948037619D01*
X625294047Y948037619D01*
X625389285Y948085238D01*
X625436904Y948132857D01*
X625484523Y948228095D01*
X625484523Y948323333D01*
X625436904Y948418571D01*
X625389285Y948466190D01*
X625294047Y948513809D01*
X625103571Y948561428D01*
X625008333Y948609047D01*
X624960714Y948656666D01*
X624913095Y948751904D01*
X624913095Y948847142D01*
X624960714Y948942380D01*
X625008333Y948990000D01*
X625103571Y949037619D01*
X625341666Y949037619D01*
X625484523Y948990000D01*
X626436904Y948037619D02*
X625865476Y948037619D01*
X626151190Y948037619D02*
X626151190Y949037619D01*
X626055952Y948894761D01*
X625960714Y948799523D01*
X625865476Y948751904D01*
X615193333Y903492619D02*
X614860000Y903968809D01*
X614621904Y903492619D02*
X614621904Y904492619D01*
X615002857Y904492619D01*
X615098095Y904445000D01*
X615145714Y904397380D01*
X615193333Y904302142D01*
X615193333Y904159285D01*
X615145714Y904064047D01*
X615098095Y904016428D01*
X615002857Y903968809D01*
X614621904Y903968809D01*
X616145714Y903492619D02*
X615574285Y903492619D01*
X615860000Y903492619D02*
X615860000Y904492619D01*
X615764761Y904349761D01*
X615669523Y904254523D01*
X615574285Y904206904D01*
X613476666Y910627619D02*
X613476666Y909913333D01*
X613429047Y909770476D01*
X613333809Y909675238D01*
X613190952Y909627619D01*
X613095714Y909627619D01*
X614381428Y910294285D02*
X614381428Y909627619D01*
X614143333Y910675238D02*
X613905238Y909960952D01*
X614524285Y909960952D01*
%LPC*%
G36*
G01*
X612207144Y910330000D02*
X609992856Y910330000D01*
G75*
G02*
X609725000Y910597856I0J267856D01*
G01*
X609725000Y911562144D01*
G75*
G02*
X609992856Y911830000I267856J0D01*
G01*
X612207144Y911830000D01*
G75*
G02*
X612475000Y911562144I0J-267856D01*
G01*
X612475000Y910597856D01*
G75*
G02*
X612207144Y910330000I-267856J0D01*
G01*
G37*
G36*
G01*
X612207144Y905530000D02*
X609992856Y905530000D01*
G75*
G02*
X609725000Y905797856I0J267856D01*
G01*
X609725000Y906762144D01*
G75*
G02*
X609992856Y907030000I267856J0D01*
G01*
X612207144Y907030000D01*
G75*
G02*
X612475000Y906762144I0J-267856D01*
G01*
X612475000Y905797856D01*
G75*
G02*
X612207144Y905530000I-267856J0D01*
G01*
G37*
G36*
G01*
X635700000Y913967144D02*
X635700000Y911752856D01*
G75*
G02*
X635432144Y911485000I-267856J0D01*
G01*
X634467856Y911485000D01*
G75*
G02*
X634200000Y911752856I0J267856D01*
G01*
X634200000Y913967144D01*
G75*
G02*
X634467856Y914235000I267856J0D01*
G01*
X635432144Y914235000D01*
G75*
G02*
X635700000Y913967144I0J-267856D01*
G01*
G37*
G36*
G01*
X640500000Y913967144D02*
X640500000Y911752856D01*
G75*
G02*
X640232144Y911485000I-267856J0D01*
G01*
X639267856Y911485000D01*
G75*
G02*
X639000000Y911752856I0J267856D01*
G01*
X639000000Y913967144D01*
G75*
G02*
X639267856Y914235000I267856J0D01*
G01*
X640232144Y914235000D01*
G75*
G02*
X640500000Y913967144I0J-267856D01*
G01*
G37*
G36*
G01*
X632820000Y903830000D02*
X631120000Y903830000D01*
G75*
G02*
X631070000Y903880000I0J50000D01*
G01*
X631070000Y905580000D01*
G75*
G02*
X631120000Y905630000I50000J0D01*
G01*
X632820000Y905630000D01*
G75*
G02*
X632870000Y905580000I0J-50000D01*
G01*
X632870000Y903880000D01*
G75*
G02*
X632820000Y903830000I-50000J0D01*
G01*
G37*
D17*
X634510000Y904730000D03*
X637050000Y904730000D03*
X639590000Y904730000D03*
X642130000Y904730000D03*
X644670000Y904730000D03*
D18*
X639690000Y962160000D03*
X634610000Y962170000D03*
X654570000Y962180000D03*
X649490000Y962190000D03*
G36*
G01*
X626200000Y957475000D02*
X623200000Y957475000D01*
G75*
G02*
X623150000Y957525000I0J50000D01*
G01*
X623150000Y960525000D01*
G75*
G02*
X623200000Y960575000I50000J0D01*
G01*
X626200000Y960575000D01*
G75*
G02*
X626250000Y960525000I0J-50000D01*
G01*
X626250000Y957525000D01*
G75*
G02*
X626200000Y957475000I-50000J0D01*
G01*
G37*
D19*
X624700000Y964105000D03*
X657960000Y907010000D03*
X663040000Y907010000D03*
G36*
G01*
X669670000Y908510000D02*
X669670000Y905510000D01*
G75*
G02*
X669620000Y905460000I-50000J0D01*
G01*
X666620000Y905460000D01*
G75*
G02*
X666570000Y905510000I0J50000D01*
G01*
X666570000Y908510000D01*
G75*
G02*
X666620000Y908560000I50000J0D01*
G01*
X669620000Y908560000D01*
G75*
G02*
X669670000Y908510000I0J-50000D01*
G01*
G37*
G36*
G01*
X643800000Y944400000D02*
X643800000Y941400000D01*
G75*
G02*
X643750000Y941350000I-50000J0D01*
G01*
X640750000Y941350000D01*
G75*
G02*
X640700000Y941400000I0J50000D01*
G01*
X640700000Y944400000D01*
G75*
G02*
X640750000Y944450000I50000J0D01*
G01*
X643750000Y944450000D01*
G75*
G02*
X643800000Y944400000I0J-50000D01*
G01*
G37*
X637170000Y942900000D03*
X662860000Y943080000D03*
X667940000Y943080000D03*
G36*
G01*
X674570000Y944580000D02*
X674570000Y941580000D01*
G75*
G02*
X674520000Y941530000I-50000J0D01*
G01*
X671520000Y941530000D01*
G75*
G02*
X671470000Y941580000I0J50000D01*
G01*
X671470000Y944580000D01*
G75*
G02*
X671520000Y944630000I50000J0D01*
G01*
X674520000Y944630000D01*
G75*
G02*
X674570000Y944580000I0J-50000D01*
G01*
G37*
G36*
G01*
X626535000Y902515000D02*
X626535000Y900715000D01*
G75*
G02*
X626485000Y900665000I-50000J0D01*
G01*
X624685000Y900665000D01*
G75*
G02*
X624635000Y900715000I0J50000D01*
G01*
X624635000Y902515000D01*
G75*
G02*
X624685000Y902565000I50000J0D01*
G01*
X626485000Y902565000D01*
G75*
G02*
X626535000Y902515000I0J-50000D01*
G01*
G37*
D20*
X623045000Y901615000D03*
G36*
G01*
X607440000Y903150000D02*
X607440000Y901450000D01*
G75*
G02*
X607390000Y901400000I-50000J0D01*
G01*
X605690000Y901400000D01*
G75*
G02*
X605640000Y901450000I0J50000D01*
G01*
X605640000Y903150000D01*
G75*
G02*
X605690000Y903200000I50000J0D01*
G01*
X607390000Y903200000D01*
G75*
G02*
X607440000Y903150000I0J-50000D01*
G01*
G37*
D17*
X606540000Y904840000D03*
X606540000Y907380000D03*
X606540000Y909920000D03*
X606540000Y912460000D03*
X606540000Y915000000D03*
X606540000Y917540000D03*
X606540000Y920080000D03*
X606540000Y922620000D03*
X606540000Y925160000D03*
X606540000Y927700000D03*
X606540000Y930240000D03*
X606540000Y932780000D03*
X606540000Y935320000D03*
X606540000Y937860000D03*
G36*
G01*
X582040000Y903150000D02*
X582040000Y901450000D01*
G75*
G02*
X581990000Y901400000I-50000J0D01*
G01*
X580290000Y901400000D01*
G75*
G02*
X580240000Y901450000I0J50000D01*
G01*
X580240000Y903150000D01*
G75*
G02*
X580290000Y903200000I50000J0D01*
G01*
X581990000Y903200000D01*
G75*
G02*
X582040000Y903150000I0J-50000D01*
G01*
G37*
X581140000Y904840000D03*
X581140000Y907380000D03*
X581140000Y909920000D03*
X581140000Y912460000D03*
X581140000Y915000000D03*
X581140000Y917540000D03*
X581140000Y920080000D03*
X581140000Y922620000D03*
X581140000Y925160000D03*
X581140000Y927700000D03*
X581140000Y930240000D03*
X581140000Y932780000D03*
X581140000Y935320000D03*
X581140000Y937860000D03*
D19*
X665900000Y975970000D03*
X665900000Y966440000D03*
G36*
G01*
X667400000Y955360000D02*
X664400000Y955360000D01*
G75*
G02*
X664350000Y955410000I0J50000D01*
G01*
X664350000Y958410000D01*
G75*
G02*
X664400000Y958460000I50000J0D01*
G01*
X667400000Y958460000D01*
G75*
G02*
X667450000Y958410000I0J-50000D01*
G01*
X667450000Y955410000D01*
G75*
G02*
X667400000Y955360000I-50000J0D01*
G01*
G37*
D17*
X637320000Y918540000D03*
X639860000Y918540000D03*
G36*
G01*
X641550000Y919440000D02*
X643250000Y919440000D01*
G75*
G02*
X643300000Y919390000I0J-50000D01*
G01*
X643300000Y917690000D01*
G75*
G02*
X643250000Y917640000I-50000J0D01*
G01*
X641550000Y917640000D01*
G75*
G02*
X641500000Y917690000I0J50000D01*
G01*
X641500000Y919390000D01*
G75*
G02*
X641550000Y919440000I50000J0D01*
G01*
G37*
X580125000Y964295000D03*
X580125000Y961755000D03*
X580125000Y959215000D03*
G36*
G01*
X581025000Y957525000D02*
X581025000Y955825000D01*
G75*
G02*
X580975000Y955775000I-50000J0D01*
G01*
X579275000Y955775000D01*
G75*
G02*
X579225000Y955825000I0J50000D01*
G01*
X579225000Y957525000D01*
G75*
G02*
X579275000Y957575000I50000J0D01*
G01*
X580975000Y957575000D01*
G75*
G02*
X581025000Y957525000I0J-50000D01*
G01*
G37*
D21*
X629825000Y915150000D03*
G36*
G01*
X623125000Y946100000D02*
X626125000Y946100000D01*
G75*
G02*
X626175000Y946050000I0J-50000D01*
G01*
X626175000Y943050000D01*
G75*
G02*
X626125000Y943000000I-50000J0D01*
G01*
X623125000Y943000000D01*
G75*
G02*
X623075000Y943050000I0J50000D01*
G01*
X623075000Y946050000D01*
G75*
G02*
X623125000Y946100000I50000J0D01*
G01*
G37*
D19*
X619625000Y944550000D03*
D21*
X614425000Y915150000D03*
G36*
G01*
X612210000Y900557856D02*
X612210000Y902772144D01*
G75*
G02*
X612477856Y903040000I267856J0D01*
G01*
X613442144Y903040000D01*
G75*
G02*
X613710000Y902772144I0J-267856D01*
G01*
X613710000Y900557856D01*
G75*
G02*
X613442144Y900290000I-267856J0D01*
G01*
X612477856Y900290000D01*
G75*
G02*
X612210000Y900557856I0J267856D01*
G01*
G37*
G36*
G01*
X617010000Y900557856D02*
X617010000Y902772144D01*
G75*
G02*
X617277856Y903040000I267856J0D01*
G01*
X618242144Y903040000D01*
G75*
G02*
X618510000Y902772144I0J-267856D01*
G01*
X618510000Y900557856D01*
G75*
G02*
X618242144Y900290000I-267856J0D01*
G01*
X617277856Y900290000D01*
G75*
G02*
X617010000Y900557856I0J267856D01*
G01*
G37*
D22*
X627060000Y910170000D03*
X622260000Y910170000D03*
G36*
G01*
X616135000Y909104802D02*
X616135000Y911235198D01*
G75*
G02*
X616394802Y911495000I259802J0D01*
G01*
X618525198Y911495000D01*
G75*
G02*
X618785000Y911235198I0J-259802D01*
G01*
X618785000Y909104802D01*
G75*
G02*
X618525198Y908845000I-259802J0D01*
G01*
X616394802Y908845000D01*
G75*
G02*
X616135000Y909104802I0J259802D01*
G01*
G37*
M02*
