%FSLAX45Y45*%
G04 Gerber Fmt 4.5, Leading zero omitted, Abs format (unit mm)*
G04 Created by KiCad (PCBNEW 5.1.12-84ad8e8a86~92~ubuntu18.04.1) date 2022-02-21 10:52:48*
%MOMM*%
%LPD*%
G01*
G04 APERTURE LIST*
%TA.AperFunction,Profile*%
%ADD10C,0.050000*%
%TD*%
%ADD11C,0.200000*%
%ADD12C,0.300000*%
G04 APERTURE END LIST*
D10*
X57329500Y89885000D02*
X57329500Y98193000D01*
X57329500Y98193000D02*
X67976000Y98193000D01*
X67976000Y89885000D02*
X67976000Y98193000D01*
X57329500Y89885000D02*
X67976000Y89885000D01*
D11*
X62259500Y90206500D02*
X62349500Y90116500D01*
X62349500Y90206500D02*
X62259500Y90116500D01*
X62513500Y90206500D02*
X62603500Y90116500D01*
X62603500Y90206500D02*
X62513500Y90116500D01*
X57918000Y93791000D02*
G75*
G03*
X57918000Y93791000I-50000J0D01*
G01*
X57918000Y93537000D02*
G75*
G03*
X57918000Y93537000I-50000J0D01*
G01*
X57918000Y93283000D02*
G75*
G03*
X57918000Y93283000I-50000J0D01*
G01*
X57918000Y93029000D02*
G75*
G03*
X57918000Y93029000I-50000J0D01*
G01*
X57918000Y92775000D02*
G75*
G03*
X57918000Y92775000I-50000J0D01*
G01*
X57918000Y92521000D02*
G75*
G03*
X57918000Y92521000I-50000J0D01*
G01*
X57918000Y92267000D02*
G75*
G03*
X57918000Y92267000I-50000J0D01*
G01*
X57918000Y92013000D02*
G75*
G03*
X57918000Y92013000I-50000J0D01*
G01*
X57918000Y91759000D02*
G75*
G03*
X57918000Y91759000I-50000J0D01*
G01*
X57918000Y91505000D02*
G75*
G03*
X57918000Y91505000I-50000J0D01*
G01*
X57918000Y91251000D02*
G75*
G03*
X57918000Y91251000I-50000J0D01*
G01*
X57918000Y90997000D02*
G75*
G03*
X57918000Y90997000I-50000J0D01*
G01*
X57918000Y90743000D02*
G75*
G03*
X57918000Y90743000I-50000J0D01*
G01*
X57918000Y90489000D02*
G75*
G03*
X57918000Y90489000I-50000J0D01*
G01*
X57918000Y90235000D02*
G75*
G03*
X57918000Y90235000I-50000J0D01*
G01*
X58062500Y96429500D02*
G75*
G03*
X58062500Y96429500I-50000J0D01*
G01*
X58062500Y96175500D02*
G75*
G03*
X58062500Y96175500I-50000J0D01*
G01*
X58062500Y95921500D02*
G75*
G03*
X58062500Y95921500I-50000J0D01*
G01*
X58062500Y95667500D02*
G75*
G03*
X58062500Y95667500I-50000J0D01*
G01*
X60705000Y93783500D02*
G75*
G03*
X60705000Y93783500I-50000J0D01*
G01*
X60705000Y93529500D02*
G75*
G03*
X60705000Y93529500I-50000J0D01*
G01*
X60705000Y93275500D02*
G75*
G03*
X60705000Y93275500I-50000J0D01*
G01*
X60705000Y93021500D02*
G75*
G03*
X60705000Y93021500I-50000J0D01*
G01*
X60705000Y92767500D02*
G75*
G03*
X60705000Y92767500I-50000J0D01*
G01*
X60705000Y92513500D02*
G75*
G03*
X60705000Y92513500I-50000J0D01*
G01*
X60705000Y92259500D02*
G75*
G03*
X60705000Y92259500I-50000J0D01*
G01*
X60705000Y92005500D02*
G75*
G03*
X60705000Y92005500I-50000J0D01*
G01*
X60705000Y91751500D02*
G75*
G03*
X60705000Y91751500I-50000J0D01*
G01*
X60705000Y91497500D02*
G75*
G03*
X60705000Y91497500I-50000J0D01*
G01*
X60705000Y91243500D02*
G75*
G03*
X60705000Y91243500I-50000J0D01*
G01*
X60705000Y90989500D02*
G75*
G03*
X60705000Y90989500I-50000J0D01*
G01*
X60705000Y90735500D02*
G75*
G03*
X60705000Y90735500I-50000J0D01*
G01*
X60705000Y90481500D02*
G75*
G03*
X60705000Y90481500I-50000J0D01*
G01*
X60705000Y90227500D02*
G75*
G03*
X60705000Y90227500I-50000J0D01*
G01*
X61492500Y91515000D02*
G75*
G03*
X61492500Y91515000I-50000J0D01*
G01*
X62012500Y94455000D02*
G75*
G03*
X62012500Y94455000I-50000J0D01*
G01*
X62512500Y94455000D02*
G75*
G03*
X62512500Y94455000I-50000J0D01*
G01*
X63032500Y91515000D02*
G75*
G03*
X63032500Y91515000I-50000J0D01*
G01*
X63247000Y90473000D02*
G75*
G03*
X63247000Y90473000I-50000J0D01*
G01*
X63501000Y90473000D02*
G75*
G03*
X63501000Y90473000I-50000J0D01*
G01*
X63511000Y96217000D02*
G75*
G03*
X63511000Y96217000I-50000J0D01*
G01*
X63755000Y90473000D02*
G75*
G03*
X63755000Y90473000I-50000J0D01*
G01*
X63788000Y91853000D02*
G75*
G03*
X63788000Y91853000I-50000J0D01*
G01*
X64009000Y90473000D02*
G75*
G03*
X64009000Y90473000I-50000J0D01*
G01*
X64019000Y96216000D02*
G75*
G03*
X64019000Y96216000I-50000J0D01*
G01*
X64042000Y91853000D02*
G75*
G03*
X64042000Y91853000I-50000J0D01*
G01*
X64043000Y91384000D02*
G75*
G03*
X64043000Y91384000I-50000J0D01*
G01*
X64043000Y91130000D02*
G75*
G03*
X64043000Y91130000I-50000J0D01*
G01*
X64263000Y90473000D02*
G75*
G03*
X64263000Y90473000I-50000J0D01*
G01*
X64296000Y91853000D02*
G75*
G03*
X64296000Y91853000I-50000J0D01*
G01*
X64517000Y90473000D02*
G75*
G03*
X64517000Y90473000I-50000J0D01*
G01*
X64999000Y96219000D02*
G75*
G03*
X64999000Y96219000I-50000J0D01*
G01*
X65507000Y96218000D02*
G75*
G03*
X65507000Y96218000I-50000J0D01*
G01*
X62470000Y96486500D02*
X62470000Y96334500D01*
X62394000Y96410500D02*
X62546000Y96410500D01*
X62470000Y95978500D02*
X62470000Y95826500D01*
X62394000Y95902500D02*
X62546000Y95902500D01*
X63717000Y94366000D02*
X63717000Y94214000D01*
X63641000Y94290000D02*
X63793000Y94290000D01*
X64225000Y94366000D02*
X64225000Y94214000D01*
X64149000Y94290000D02*
X64301000Y94290000D01*
X65806000Y90782000D02*
X65806000Y90630000D01*
X65730000Y90706000D02*
X65882000Y90706000D01*
X66286000Y94366000D02*
X66286000Y94214000D01*
X66210000Y94290000D02*
X66362000Y94290000D01*
X66314000Y90782000D02*
X66314000Y90630000D01*
X66238000Y90706000D02*
X66390000Y90706000D01*
X66794000Y94366000D02*
X66794000Y94214000D01*
X66718000Y94290000D02*
X66870000Y94290000D01*
X66822000Y90782000D02*
X66822000Y90630000D01*
X66746000Y90706000D02*
X66898000Y90706000D01*
X67302000Y94366000D02*
X67302000Y94214000D01*
X67226000Y94290000D02*
X67378000Y94290000D01*
X61800801Y90962199D02*
X61800801Y91071801D01*
X61691199Y91071801D01*
X61691199Y90962199D01*
X61800801Y90962199D01*
X62280801Y90962199D02*
X62280801Y91071801D01*
X62171199Y91071801D01*
X62171199Y90962199D01*
X62280801Y90962199D01*
X62760801Y90962199D02*
X62760801Y91071801D01*
X62651199Y91071801D01*
X62651199Y90962199D01*
X62760801Y90962199D01*
X66590000Y97504300D02*
X66682700Y97597000D01*
X66590000Y97689700D01*
X66497300Y97597000D01*
X66590000Y97504300D01*
X66590000Y96551300D02*
X66682700Y96644000D01*
X66590000Y96736700D01*
X66497300Y96644000D01*
X66590000Y96551300D01*
X66590000Y95598300D02*
X66682700Y95691000D01*
X66590000Y95783700D01*
X66497300Y95691000D01*
X66590000Y95598300D01*
D12*
X57613428Y89416786D02*
X57613428Y89716786D01*
X57684857Y89716786D01*
X57727714Y89702500D01*
X57756286Y89673928D01*
X57770571Y89645357D01*
X57784857Y89588214D01*
X57784857Y89545357D01*
X57770571Y89488214D01*
X57756286Y89459643D01*
X57727714Y89431071D01*
X57684857Y89416786D01*
X57613428Y89416786D01*
X57913428Y89416786D02*
X57913428Y89616786D01*
X57913428Y89559643D02*
X57927714Y89588214D01*
X57942000Y89602500D01*
X57970571Y89616786D01*
X57999143Y89616786D01*
X58099143Y89416786D02*
X58099143Y89616786D01*
X58099143Y89716786D02*
X58084857Y89702500D01*
X58099143Y89688214D01*
X58113428Y89702500D01*
X58099143Y89716786D01*
X58099143Y89688214D01*
X58284857Y89416786D02*
X58256286Y89431071D01*
X58242000Y89459643D01*
X58242000Y89716786D01*
X58442000Y89416786D02*
X58413428Y89431071D01*
X58399143Y89459643D01*
X58399143Y89716786D01*
X58784857Y89416786D02*
X58784857Y89716786D01*
X58884857Y89502500D01*
X58984857Y89716786D01*
X58984857Y89416786D01*
X59256286Y89416786D02*
X59256286Y89573928D01*
X59242000Y89602500D01*
X59213428Y89616786D01*
X59156286Y89616786D01*
X59127714Y89602500D01*
X59256286Y89431071D02*
X59227714Y89416786D01*
X59156286Y89416786D01*
X59127714Y89431071D01*
X59113428Y89459643D01*
X59113428Y89488214D01*
X59127714Y89516786D01*
X59156286Y89531071D01*
X59227714Y89531071D01*
X59256286Y89545357D01*
X59399143Y89616786D02*
X59399143Y89316786D01*
X59399143Y89602500D02*
X59427714Y89616786D01*
X59484857Y89616786D01*
X59513428Y89602500D01*
X59527714Y89588214D01*
X59542000Y89559643D01*
X59542000Y89473928D01*
X59527714Y89445357D01*
X59513428Y89431071D01*
X59484857Y89416786D01*
X59427714Y89416786D01*
X59399143Y89431071D01*
X59670571Y89445357D02*
X59684857Y89431071D01*
X59670571Y89416786D01*
X59656286Y89431071D01*
X59670571Y89445357D01*
X59670571Y89416786D01*
X59670571Y89602500D02*
X59684857Y89588214D01*
X59670571Y89573928D01*
X59656286Y89588214D01*
X59670571Y89602500D01*
X59670571Y89573928D01*
X57237000Y88967500D02*
X57327000Y88877500D01*
X57327000Y88967500D02*
X57237000Y88877500D01*
X57670571Y89086786D02*
X57699143Y89086786D01*
X57727714Y89072500D01*
X57742000Y89058214D01*
X57756286Y89029643D01*
X57770571Y88972500D01*
X57770571Y88901071D01*
X57756286Y88843928D01*
X57742000Y88815357D01*
X57727714Y88801071D01*
X57699143Y88786786D01*
X57670571Y88786786D01*
X57642000Y88801071D01*
X57627714Y88815357D01*
X57613428Y88843928D01*
X57599143Y88901071D01*
X57599143Y88972500D01*
X57613428Y89029643D01*
X57627714Y89058214D01*
X57642000Y89072500D01*
X57670571Y89086786D01*
X57899143Y88815357D02*
X57913428Y88801071D01*
X57899143Y88786786D01*
X57884857Y88801071D01*
X57899143Y88815357D01*
X57899143Y88786786D01*
X58056286Y88786786D02*
X58113428Y88786786D01*
X58142000Y88801071D01*
X58156286Y88815357D01*
X58184857Y88858214D01*
X58199143Y88915357D01*
X58199143Y89029643D01*
X58184857Y89058214D01*
X58170571Y89072500D01*
X58142000Y89086786D01*
X58084857Y89086786D01*
X58056286Y89072500D01*
X58042000Y89058214D01*
X58027714Y89029643D01*
X58027714Y88958214D01*
X58042000Y88929643D01*
X58056286Y88915357D01*
X58084857Y88901071D01*
X58142000Y88901071D01*
X58170571Y88915357D01*
X58184857Y88929643D01*
X58199143Y88958214D01*
X58384857Y89086786D02*
X58413428Y89086786D01*
X58442000Y89072500D01*
X58456286Y89058214D01*
X58470571Y89029643D01*
X58484857Y88972500D01*
X58484857Y88901071D01*
X58470571Y88843928D01*
X58456286Y88815357D01*
X58442000Y88801071D01*
X58413428Y88786786D01*
X58384857Y88786786D01*
X58356286Y88801071D01*
X58342000Y88815357D01*
X58327714Y88843928D01*
X58313428Y88901071D01*
X58313428Y88972500D01*
X58327714Y89029643D01*
X58342000Y89058214D01*
X58356286Y89072500D01*
X58384857Y89086786D01*
X58670571Y89086786D02*
X58699143Y89086786D01*
X58727714Y89072500D01*
X58742000Y89058214D01*
X58756286Y89029643D01*
X58770571Y88972500D01*
X58770571Y88901071D01*
X58756286Y88843928D01*
X58742000Y88815357D01*
X58727714Y88801071D01*
X58699143Y88786786D01*
X58670571Y88786786D01*
X58642000Y88801071D01*
X58627714Y88815357D01*
X58613428Y88843928D01*
X58599143Y88901071D01*
X58599143Y88972500D01*
X58613428Y89029643D01*
X58627714Y89058214D01*
X58642000Y89072500D01*
X58670571Y89086786D01*
X58899143Y88786786D02*
X58899143Y88986786D01*
X58899143Y88958214D02*
X58913428Y88972500D01*
X58942000Y88986786D01*
X58984857Y88986786D01*
X59013428Y88972500D01*
X59027714Y88943928D01*
X59027714Y88786786D01*
X59027714Y88943928D02*
X59042000Y88972500D01*
X59070571Y88986786D01*
X59113428Y88986786D01*
X59142000Y88972500D01*
X59156286Y88943928D01*
X59156286Y88786786D01*
X59299143Y88786786D02*
X59299143Y88986786D01*
X59299143Y88958214D02*
X59313428Y88972500D01*
X59342000Y88986786D01*
X59384857Y88986786D01*
X59413428Y88972500D01*
X59427714Y88943928D01*
X59427714Y88786786D01*
X59427714Y88943928D02*
X59442000Y88972500D01*
X59470571Y88986786D01*
X59513428Y88986786D01*
X59542000Y88972500D01*
X59556286Y88943928D01*
X59556286Y88786786D01*
X60142000Y89101071D02*
X59884857Y88715357D01*
X60527714Y89086786D02*
X60556286Y89086786D01*
X60584857Y89072500D01*
X60599143Y89058214D01*
X60613428Y89029643D01*
X60627714Y88972500D01*
X60627714Y88901071D01*
X60613428Y88843928D01*
X60599143Y88815357D01*
X60584857Y88801071D01*
X60556286Y88786786D01*
X60527714Y88786786D01*
X60499143Y88801071D01*
X60484857Y88815357D01*
X60470571Y88843928D01*
X60456286Y88901071D01*
X60456286Y88972500D01*
X60470571Y89029643D01*
X60484857Y89058214D01*
X60499143Y89072500D01*
X60527714Y89086786D01*
X60756286Y88815357D02*
X60770571Y88801071D01*
X60756286Y88786786D01*
X60742000Y88801071D01*
X60756286Y88815357D01*
X60756286Y88786786D01*
X60956286Y89086786D02*
X60984857Y89086786D01*
X61013428Y89072500D01*
X61027714Y89058214D01*
X61042000Y89029643D01*
X61056286Y88972500D01*
X61056286Y88901071D01*
X61042000Y88843928D01*
X61027714Y88815357D01*
X61013428Y88801071D01*
X60984857Y88786786D01*
X60956286Y88786786D01*
X60927714Y88801071D01*
X60913428Y88815357D01*
X60899143Y88843928D01*
X60884857Y88901071D01*
X60884857Y88972500D01*
X60899143Y89029643D01*
X60913428Y89058214D01*
X60927714Y89072500D01*
X60956286Y89086786D01*
X61156286Y89086786D02*
X61342000Y89086786D01*
X61242000Y88972500D01*
X61284857Y88972500D01*
X61313428Y88958214D01*
X61327714Y88943928D01*
X61342000Y88915357D01*
X61342000Y88843928D01*
X61327714Y88815357D01*
X61313428Y88801071D01*
X61284857Y88786786D01*
X61199143Y88786786D01*
X61170571Y88801071D01*
X61156286Y88815357D01*
X61613428Y89086786D02*
X61470571Y89086786D01*
X61456286Y88943928D01*
X61470571Y88958214D01*
X61499143Y88972500D01*
X61570571Y88972500D01*
X61599143Y88958214D01*
X61613428Y88943928D01*
X61627714Y88915357D01*
X61627714Y88843928D01*
X61613428Y88815357D01*
X61599143Y88801071D01*
X61570571Y88786786D01*
X61499143Y88786786D01*
X61470571Y88801071D01*
X61456286Y88815357D01*
X61884857Y88986786D02*
X61884857Y88786786D01*
X61813428Y89101071D02*
X61742000Y88886786D01*
X61927714Y88886786D01*
X62027714Y89086786D02*
X62027714Y89029643D01*
X62142000Y89086786D02*
X62142000Y89029643D01*
X62584857Y88672500D02*
X62570571Y88686786D01*
X62542000Y88729643D01*
X62527714Y88758214D01*
X62513428Y88801071D01*
X62499143Y88872500D01*
X62499143Y88929643D01*
X62513428Y89001071D01*
X62527714Y89043928D01*
X62542000Y89072500D01*
X62570571Y89115357D01*
X62584857Y89129643D01*
X62684857Y89058214D02*
X62699143Y89072500D01*
X62727714Y89086786D01*
X62799143Y89086786D01*
X62827714Y89072500D01*
X62842000Y89058214D01*
X62856286Y89029643D01*
X62856286Y89001071D01*
X62842000Y88958214D01*
X62670571Y88786786D01*
X62856286Y88786786D01*
X63213428Y88786786D02*
X63213428Y89086786D01*
X63342000Y88786786D02*
X63342000Y88943928D01*
X63327714Y88972500D01*
X63299143Y88986786D01*
X63256286Y88986786D01*
X63227714Y88972500D01*
X63213428Y88958214D01*
X63527714Y88786786D02*
X63499143Y88801071D01*
X63484857Y88815357D01*
X63470571Y88843928D01*
X63470571Y88929643D01*
X63484857Y88958214D01*
X63499143Y88972500D01*
X63527714Y88986786D01*
X63570571Y88986786D01*
X63599143Y88972500D01*
X63613428Y88958214D01*
X63627714Y88929643D01*
X63627714Y88843928D01*
X63613428Y88815357D01*
X63599143Y88801071D01*
X63570571Y88786786D01*
X63527714Y88786786D01*
X63799143Y88786786D02*
X63770571Y88801071D01*
X63756286Y88829643D01*
X63756286Y89086786D01*
X64027714Y88801071D02*
X63999143Y88786786D01*
X63942000Y88786786D01*
X63913428Y88801071D01*
X63899143Y88829643D01*
X63899143Y88943928D01*
X63913428Y88972500D01*
X63942000Y88986786D01*
X63999143Y88986786D01*
X64027714Y88972500D01*
X64042000Y88943928D01*
X64042000Y88915357D01*
X63899143Y88886786D01*
X64156286Y88801071D02*
X64184857Y88786786D01*
X64242000Y88786786D01*
X64270571Y88801071D01*
X64284857Y88829643D01*
X64284857Y88843928D01*
X64270571Y88872500D01*
X64242000Y88886786D01*
X64199143Y88886786D01*
X64170571Y88901071D01*
X64156286Y88929643D01*
X64156286Y88943928D01*
X64170571Y88972500D01*
X64199143Y88986786D01*
X64242000Y88986786D01*
X64270571Y88972500D01*
X64384857Y88672500D02*
X64399143Y88686786D01*
X64427714Y88729643D01*
X64442000Y88758214D01*
X64456286Y88801071D01*
X64470571Y88872500D01*
X64470571Y88929643D01*
X64456286Y89001071D01*
X64442000Y89043928D01*
X64427714Y89072500D01*
X64399143Y89115357D01*
X64384857Y89129643D01*
X57327000Y88526500D02*
G75*
G03*
X57327000Y88526500I-50000J0D01*
G01*
X57770571Y88390786D02*
X57599143Y88390786D01*
X57684857Y88390786D02*
X57684857Y88690786D01*
X57656286Y88647928D01*
X57627714Y88619357D01*
X57599143Y88605071D01*
X57899143Y88419357D02*
X57913428Y88405071D01*
X57899143Y88390786D01*
X57884857Y88405071D01*
X57899143Y88419357D01*
X57899143Y88390786D01*
X58099143Y88690786D02*
X58127714Y88690786D01*
X58156286Y88676500D01*
X58170571Y88662214D01*
X58184857Y88633643D01*
X58199143Y88576500D01*
X58199143Y88505071D01*
X58184857Y88447928D01*
X58170571Y88419357D01*
X58156286Y88405071D01*
X58127714Y88390786D01*
X58099143Y88390786D01*
X58070571Y88405071D01*
X58056286Y88419357D01*
X58042000Y88447928D01*
X58027714Y88505071D01*
X58027714Y88576500D01*
X58042000Y88633643D01*
X58056286Y88662214D01*
X58070571Y88676500D01*
X58099143Y88690786D01*
X58384857Y88690786D02*
X58413428Y88690786D01*
X58442000Y88676500D01*
X58456286Y88662214D01*
X58470571Y88633643D01*
X58484857Y88576500D01*
X58484857Y88505071D01*
X58470571Y88447928D01*
X58456286Y88419357D01*
X58442000Y88405071D01*
X58413428Y88390786D01*
X58384857Y88390786D01*
X58356286Y88405071D01*
X58342000Y88419357D01*
X58327714Y88447928D01*
X58313428Y88505071D01*
X58313428Y88576500D01*
X58327714Y88633643D01*
X58342000Y88662214D01*
X58356286Y88676500D01*
X58384857Y88690786D01*
X58670571Y88690786D02*
X58699143Y88690786D01*
X58727714Y88676500D01*
X58742000Y88662214D01*
X58756286Y88633643D01*
X58770571Y88576500D01*
X58770571Y88505071D01*
X58756286Y88447928D01*
X58742000Y88419357D01*
X58727714Y88405071D01*
X58699143Y88390786D01*
X58670571Y88390786D01*
X58642000Y88405071D01*
X58627714Y88419357D01*
X58613428Y88447928D01*
X58599143Y88505071D01*
X58599143Y88576500D01*
X58613428Y88633643D01*
X58627714Y88662214D01*
X58642000Y88676500D01*
X58670571Y88690786D01*
X58899143Y88390786D02*
X58899143Y88590786D01*
X58899143Y88562214D02*
X58913428Y88576500D01*
X58942000Y88590786D01*
X58984857Y88590786D01*
X59013428Y88576500D01*
X59027714Y88547928D01*
X59027714Y88390786D01*
X59027714Y88547928D02*
X59042000Y88576500D01*
X59070571Y88590786D01*
X59113428Y88590786D01*
X59142000Y88576500D01*
X59156286Y88547928D01*
X59156286Y88390786D01*
X59299143Y88390786D02*
X59299143Y88590786D01*
X59299143Y88562214D02*
X59313428Y88576500D01*
X59342000Y88590786D01*
X59384857Y88590786D01*
X59413428Y88576500D01*
X59427714Y88547928D01*
X59427714Y88390786D01*
X59427714Y88547928D02*
X59442000Y88576500D01*
X59470571Y88590786D01*
X59513428Y88590786D01*
X59542000Y88576500D01*
X59556286Y88547928D01*
X59556286Y88390786D01*
X60142000Y88705071D02*
X59884857Y88319357D01*
X60527714Y88690786D02*
X60556286Y88690786D01*
X60584857Y88676500D01*
X60599143Y88662214D01*
X60613428Y88633643D01*
X60627714Y88576500D01*
X60627714Y88505071D01*
X60613428Y88447928D01*
X60599143Y88419357D01*
X60584857Y88405071D01*
X60556286Y88390786D01*
X60527714Y88390786D01*
X60499143Y88405071D01*
X60484857Y88419357D01*
X60470571Y88447928D01*
X60456286Y88505071D01*
X60456286Y88576500D01*
X60470571Y88633643D01*
X60484857Y88662214D01*
X60499143Y88676500D01*
X60527714Y88690786D01*
X60756286Y88419357D02*
X60770571Y88405071D01*
X60756286Y88390786D01*
X60742000Y88405071D01*
X60756286Y88419357D01*
X60756286Y88390786D01*
X60956286Y88690786D02*
X60984857Y88690786D01*
X61013428Y88676500D01*
X61027714Y88662214D01*
X61042000Y88633643D01*
X61056286Y88576500D01*
X61056286Y88505071D01*
X61042000Y88447928D01*
X61027714Y88419357D01*
X61013428Y88405071D01*
X60984857Y88390786D01*
X60956286Y88390786D01*
X60927714Y88405071D01*
X60913428Y88419357D01*
X60899143Y88447928D01*
X60884857Y88505071D01*
X60884857Y88576500D01*
X60899143Y88633643D01*
X60913428Y88662214D01*
X60927714Y88676500D01*
X60956286Y88690786D01*
X61156286Y88690786D02*
X61342000Y88690786D01*
X61242000Y88576500D01*
X61284857Y88576500D01*
X61313428Y88562214D01*
X61327714Y88547928D01*
X61342000Y88519357D01*
X61342000Y88447928D01*
X61327714Y88419357D01*
X61313428Y88405071D01*
X61284857Y88390786D01*
X61199143Y88390786D01*
X61170571Y88405071D01*
X61156286Y88419357D01*
X61484857Y88390786D02*
X61542000Y88390786D01*
X61570571Y88405071D01*
X61584857Y88419357D01*
X61613428Y88462214D01*
X61627714Y88519357D01*
X61627714Y88633643D01*
X61613428Y88662214D01*
X61599143Y88676500D01*
X61570571Y88690786D01*
X61513428Y88690786D01*
X61484857Y88676500D01*
X61470571Y88662214D01*
X61456286Y88633643D01*
X61456286Y88562214D01*
X61470571Y88533643D01*
X61484857Y88519357D01*
X61513428Y88505071D01*
X61570571Y88505071D01*
X61599143Y88519357D01*
X61613428Y88533643D01*
X61627714Y88562214D01*
X61884857Y88590786D02*
X61884857Y88390786D01*
X61813428Y88705071D02*
X61742000Y88490786D01*
X61927714Y88490786D01*
X62027714Y88690786D02*
X62027714Y88633643D01*
X62142000Y88690786D02*
X62142000Y88633643D01*
X62584857Y88276500D02*
X62570571Y88290786D01*
X62542000Y88333643D01*
X62527714Y88362214D01*
X62513428Y88405071D01*
X62499143Y88476500D01*
X62499143Y88533643D01*
X62513428Y88605071D01*
X62527714Y88647928D01*
X62542000Y88676500D01*
X62570571Y88719357D01*
X62584857Y88733643D01*
X62842000Y88690786D02*
X62699143Y88690786D01*
X62684857Y88547928D01*
X62699143Y88562214D01*
X62727714Y88576500D01*
X62799143Y88576500D01*
X62827714Y88562214D01*
X62842000Y88547928D01*
X62856286Y88519357D01*
X62856286Y88447928D01*
X62842000Y88419357D01*
X62827714Y88405071D01*
X62799143Y88390786D01*
X62727714Y88390786D01*
X62699143Y88405071D01*
X62684857Y88419357D01*
X62956286Y88690786D02*
X63142000Y88690786D01*
X63042000Y88576500D01*
X63084857Y88576500D01*
X63113428Y88562214D01*
X63127714Y88547928D01*
X63142000Y88519357D01*
X63142000Y88447928D01*
X63127714Y88419357D01*
X63113428Y88405071D01*
X63084857Y88390786D01*
X62999143Y88390786D01*
X62970571Y88405071D01*
X62956286Y88419357D01*
X63499143Y88390786D02*
X63499143Y88690786D01*
X63627714Y88390786D02*
X63627714Y88547928D01*
X63613428Y88576500D01*
X63584857Y88590786D01*
X63542000Y88590786D01*
X63513428Y88576500D01*
X63499143Y88562214D01*
X63813428Y88390786D02*
X63784857Y88405071D01*
X63770571Y88419357D01*
X63756286Y88447928D01*
X63756286Y88533643D01*
X63770571Y88562214D01*
X63784857Y88576500D01*
X63813428Y88590786D01*
X63856286Y88590786D01*
X63884857Y88576500D01*
X63899143Y88562214D01*
X63913428Y88533643D01*
X63913428Y88447928D01*
X63899143Y88419357D01*
X63884857Y88405071D01*
X63856286Y88390786D01*
X63813428Y88390786D01*
X64084857Y88390786D02*
X64056286Y88405071D01*
X64042000Y88433643D01*
X64042000Y88690786D01*
X64313428Y88405071D02*
X64284857Y88390786D01*
X64227714Y88390786D01*
X64199143Y88405071D01*
X64184857Y88433643D01*
X64184857Y88547928D01*
X64199143Y88576500D01*
X64227714Y88590786D01*
X64284857Y88590786D01*
X64313428Y88576500D01*
X64327714Y88547928D01*
X64327714Y88519357D01*
X64184857Y88490786D01*
X64442000Y88405071D02*
X64470571Y88390786D01*
X64527714Y88390786D01*
X64556286Y88405071D01*
X64570571Y88433643D01*
X64570571Y88447928D01*
X64556286Y88476500D01*
X64527714Y88490786D01*
X64484857Y88490786D01*
X64456286Y88505071D01*
X64442000Y88533643D01*
X64442000Y88547928D01*
X64456286Y88576500D01*
X64484857Y88590786D01*
X64527714Y88590786D01*
X64556286Y88576500D01*
X64670571Y88276500D02*
X64684857Y88290786D01*
X64713428Y88333643D01*
X64727714Y88362214D01*
X64742000Y88405071D01*
X64756286Y88476500D01*
X64756286Y88533643D01*
X64742000Y88605071D01*
X64727714Y88647928D01*
X64713428Y88676500D01*
X64684857Y88719357D01*
X64670571Y88733643D01*
X57251000Y88206500D02*
X57251000Y88054500D01*
X57175000Y88130500D02*
X57327000Y88130500D01*
X57770571Y87994786D02*
X57599143Y87994786D01*
X57684857Y87994786D02*
X57684857Y88294786D01*
X57656286Y88251928D01*
X57627714Y88223357D01*
X57599143Y88209071D01*
X57899143Y88023357D02*
X57913428Y88009071D01*
X57899143Y87994786D01*
X57884857Y88009071D01*
X57899143Y88023357D01*
X57899143Y87994786D01*
X58184857Y88294786D02*
X58042000Y88294786D01*
X58027714Y88151928D01*
X58042000Y88166214D01*
X58070571Y88180500D01*
X58142000Y88180500D01*
X58170571Y88166214D01*
X58184857Y88151928D01*
X58199143Y88123357D01*
X58199143Y88051928D01*
X58184857Y88023357D01*
X58170571Y88009071D01*
X58142000Y87994786D01*
X58070571Y87994786D01*
X58042000Y88009071D01*
X58027714Y88023357D01*
X58313428Y88266214D02*
X58327714Y88280500D01*
X58356286Y88294786D01*
X58427714Y88294786D01*
X58456286Y88280500D01*
X58470571Y88266214D01*
X58484857Y88237643D01*
X58484857Y88209071D01*
X58470571Y88166214D01*
X58299143Y87994786D01*
X58484857Y87994786D01*
X58670571Y88294786D02*
X58699143Y88294786D01*
X58727714Y88280500D01*
X58742000Y88266214D01*
X58756286Y88237643D01*
X58770571Y88180500D01*
X58770571Y88109071D01*
X58756286Y88051928D01*
X58742000Y88023357D01*
X58727714Y88009071D01*
X58699143Y87994786D01*
X58670571Y87994786D01*
X58642000Y88009071D01*
X58627714Y88023357D01*
X58613428Y88051928D01*
X58599143Y88109071D01*
X58599143Y88180500D01*
X58613428Y88237643D01*
X58627714Y88266214D01*
X58642000Y88280500D01*
X58670571Y88294786D01*
X58899143Y87994786D02*
X58899143Y88194786D01*
X58899143Y88166214D02*
X58913428Y88180500D01*
X58942000Y88194786D01*
X58984857Y88194786D01*
X59013428Y88180500D01*
X59027714Y88151928D01*
X59027714Y87994786D01*
X59027714Y88151928D02*
X59042000Y88180500D01*
X59070571Y88194786D01*
X59113428Y88194786D01*
X59142000Y88180500D01*
X59156286Y88151928D01*
X59156286Y87994786D01*
X59299143Y87994786D02*
X59299143Y88194786D01*
X59299143Y88166214D02*
X59313428Y88180500D01*
X59342000Y88194786D01*
X59384857Y88194786D01*
X59413428Y88180500D01*
X59427714Y88151928D01*
X59427714Y87994786D01*
X59427714Y88151928D02*
X59442000Y88180500D01*
X59470571Y88194786D01*
X59513428Y88194786D01*
X59542000Y88180500D01*
X59556286Y88151928D01*
X59556286Y87994786D01*
X60142000Y88309071D02*
X59884857Y87923357D01*
X60527714Y88294786D02*
X60556286Y88294786D01*
X60584857Y88280500D01*
X60599143Y88266214D01*
X60613428Y88237643D01*
X60627714Y88180500D01*
X60627714Y88109071D01*
X60613428Y88051928D01*
X60599143Y88023357D01*
X60584857Y88009071D01*
X60556286Y87994786D01*
X60527714Y87994786D01*
X60499143Y88009071D01*
X60484857Y88023357D01*
X60470571Y88051928D01*
X60456286Y88109071D01*
X60456286Y88180500D01*
X60470571Y88237643D01*
X60484857Y88266214D01*
X60499143Y88280500D01*
X60527714Y88294786D01*
X60756286Y88023357D02*
X60770571Y88009071D01*
X60756286Y87994786D01*
X60742000Y88009071D01*
X60756286Y88023357D01*
X60756286Y87994786D01*
X60956286Y88294786D02*
X60984857Y88294786D01*
X61013428Y88280500D01*
X61027714Y88266214D01*
X61042000Y88237643D01*
X61056286Y88180500D01*
X61056286Y88109071D01*
X61042000Y88051928D01*
X61027714Y88023357D01*
X61013428Y88009071D01*
X60984857Y87994786D01*
X60956286Y87994786D01*
X60927714Y88009071D01*
X60913428Y88023357D01*
X60899143Y88051928D01*
X60884857Y88109071D01*
X60884857Y88180500D01*
X60899143Y88237643D01*
X60913428Y88266214D01*
X60927714Y88280500D01*
X60956286Y88294786D01*
X61327714Y88294786D02*
X61184857Y88294786D01*
X61170571Y88151928D01*
X61184857Y88166214D01*
X61213428Y88180500D01*
X61284857Y88180500D01*
X61313428Y88166214D01*
X61327714Y88151928D01*
X61342000Y88123357D01*
X61342000Y88051928D01*
X61327714Y88023357D01*
X61313428Y88009071D01*
X61284857Y87994786D01*
X61213428Y87994786D01*
X61184857Y88009071D01*
X61170571Y88023357D01*
X61484857Y87994786D02*
X61542000Y87994786D01*
X61570571Y88009071D01*
X61584857Y88023357D01*
X61613428Y88066214D01*
X61627714Y88123357D01*
X61627714Y88237643D01*
X61613428Y88266214D01*
X61599143Y88280500D01*
X61570571Y88294786D01*
X61513428Y88294786D01*
X61484857Y88280500D01*
X61470571Y88266214D01*
X61456286Y88237643D01*
X61456286Y88166214D01*
X61470571Y88137643D01*
X61484857Y88123357D01*
X61513428Y88109071D01*
X61570571Y88109071D01*
X61599143Y88123357D01*
X61613428Y88137643D01*
X61627714Y88166214D01*
X61799143Y88166214D02*
X61770571Y88180500D01*
X61756286Y88194786D01*
X61742000Y88223357D01*
X61742000Y88237643D01*
X61756286Y88266214D01*
X61770571Y88280500D01*
X61799143Y88294786D01*
X61856286Y88294786D01*
X61884857Y88280500D01*
X61899143Y88266214D01*
X61913428Y88237643D01*
X61913428Y88223357D01*
X61899143Y88194786D01*
X61884857Y88180500D01*
X61856286Y88166214D01*
X61799143Y88166214D01*
X61770571Y88151928D01*
X61756286Y88137643D01*
X61742000Y88109071D01*
X61742000Y88051928D01*
X61756286Y88023357D01*
X61770571Y88009071D01*
X61799143Y87994786D01*
X61856286Y87994786D01*
X61884857Y88009071D01*
X61899143Y88023357D01*
X61913428Y88051928D01*
X61913428Y88109071D01*
X61899143Y88137643D01*
X61884857Y88151928D01*
X61856286Y88166214D01*
X62027714Y88294786D02*
X62027714Y88237643D01*
X62142000Y88294786D02*
X62142000Y88237643D01*
X62584857Y87880500D02*
X62570571Y87894786D01*
X62542000Y87937643D01*
X62527714Y87966214D01*
X62513428Y88009071D01*
X62499143Y88080500D01*
X62499143Y88137643D01*
X62513428Y88209071D01*
X62527714Y88251928D01*
X62542000Y88280500D01*
X62570571Y88323357D01*
X62584857Y88337643D01*
X62856286Y87994786D02*
X62684857Y87994786D01*
X62770571Y87994786D02*
X62770571Y88294786D01*
X62742000Y88251928D01*
X62713428Y88223357D01*
X62684857Y88209071D01*
X63042000Y88294786D02*
X63070571Y88294786D01*
X63099143Y88280500D01*
X63113428Y88266214D01*
X63127714Y88237643D01*
X63142000Y88180500D01*
X63142000Y88109071D01*
X63127714Y88051928D01*
X63113428Y88023357D01*
X63099143Y88009071D01*
X63070571Y87994786D01*
X63042000Y87994786D01*
X63013428Y88009071D01*
X62999143Y88023357D01*
X62984857Y88051928D01*
X62970571Y88109071D01*
X62970571Y88180500D01*
X62984857Y88237643D01*
X62999143Y88266214D01*
X63013428Y88280500D01*
X63042000Y88294786D01*
X63499143Y87994786D02*
X63499143Y88294786D01*
X63627714Y87994786D02*
X63627714Y88151928D01*
X63613428Y88180500D01*
X63584857Y88194786D01*
X63542000Y88194786D01*
X63513428Y88180500D01*
X63499143Y88166214D01*
X63813428Y87994786D02*
X63784857Y88009071D01*
X63770571Y88023357D01*
X63756286Y88051928D01*
X63756286Y88137643D01*
X63770571Y88166214D01*
X63784857Y88180500D01*
X63813428Y88194786D01*
X63856286Y88194786D01*
X63884857Y88180500D01*
X63899143Y88166214D01*
X63913428Y88137643D01*
X63913428Y88051928D01*
X63899143Y88023357D01*
X63884857Y88009071D01*
X63856286Y87994786D01*
X63813428Y87994786D01*
X64084857Y87994786D02*
X64056286Y88009071D01*
X64042000Y88037643D01*
X64042000Y88294786D01*
X64313428Y88009071D02*
X64284857Y87994786D01*
X64227714Y87994786D01*
X64199143Y88009071D01*
X64184857Y88037643D01*
X64184857Y88151928D01*
X64199143Y88180500D01*
X64227714Y88194786D01*
X64284857Y88194786D01*
X64313428Y88180500D01*
X64327714Y88151928D01*
X64327714Y88123357D01*
X64184857Y88094786D01*
X64442000Y88009071D02*
X64470571Y87994786D01*
X64527714Y87994786D01*
X64556286Y88009071D01*
X64570571Y88037643D01*
X64570571Y88051928D01*
X64556286Y88080500D01*
X64527714Y88094786D01*
X64484857Y88094786D01*
X64456286Y88109071D01*
X64442000Y88137643D01*
X64442000Y88151928D01*
X64456286Y88180500D01*
X64484857Y88194786D01*
X64527714Y88194786D01*
X64556286Y88180500D01*
X64670571Y87880500D02*
X64684857Y87894786D01*
X64713428Y87937643D01*
X64727714Y87966214D01*
X64742000Y88009071D01*
X64756286Y88080500D01*
X64756286Y88137643D01*
X64742000Y88209071D01*
X64727714Y88251928D01*
X64713428Y88280500D01*
X64684857Y88323357D01*
X64670571Y88337643D01*
X57304301Y87679699D02*
X57304301Y87789301D01*
X57194699Y87789301D01*
X57194699Y87679699D01*
X57304301Y87679699D01*
X57770571Y87598786D02*
X57599143Y87598786D01*
X57684857Y87598786D02*
X57684857Y87898786D01*
X57656286Y87855928D01*
X57627714Y87827357D01*
X57599143Y87813071D01*
X57899143Y87627357D02*
X57913428Y87613071D01*
X57899143Y87598786D01*
X57884857Y87613071D01*
X57899143Y87627357D01*
X57899143Y87598786D01*
X58184857Y87898786D02*
X58042000Y87898786D01*
X58027714Y87755928D01*
X58042000Y87770214D01*
X58070571Y87784500D01*
X58142000Y87784500D01*
X58170571Y87770214D01*
X58184857Y87755928D01*
X58199143Y87727357D01*
X58199143Y87655928D01*
X58184857Y87627357D01*
X58170571Y87613071D01*
X58142000Y87598786D01*
X58070571Y87598786D01*
X58042000Y87613071D01*
X58027714Y87627357D01*
X58470571Y87898786D02*
X58327714Y87898786D01*
X58313428Y87755928D01*
X58327714Y87770214D01*
X58356286Y87784500D01*
X58427714Y87784500D01*
X58456286Y87770214D01*
X58470571Y87755928D01*
X58484857Y87727357D01*
X58484857Y87655928D01*
X58470571Y87627357D01*
X58456286Y87613071D01*
X58427714Y87598786D01*
X58356286Y87598786D01*
X58327714Y87613071D01*
X58313428Y87627357D01*
X58670571Y87898786D02*
X58699143Y87898786D01*
X58727714Y87884500D01*
X58742000Y87870214D01*
X58756286Y87841643D01*
X58770571Y87784500D01*
X58770571Y87713071D01*
X58756286Y87655928D01*
X58742000Y87627357D01*
X58727714Y87613071D01*
X58699143Y87598786D01*
X58670571Y87598786D01*
X58642000Y87613071D01*
X58627714Y87627357D01*
X58613428Y87655928D01*
X58599143Y87713071D01*
X58599143Y87784500D01*
X58613428Y87841643D01*
X58627714Y87870214D01*
X58642000Y87884500D01*
X58670571Y87898786D01*
X58899143Y87598786D02*
X58899143Y87798786D01*
X58899143Y87770214D02*
X58913428Y87784500D01*
X58942000Y87798786D01*
X58984857Y87798786D01*
X59013428Y87784500D01*
X59027714Y87755928D01*
X59027714Y87598786D01*
X59027714Y87755928D02*
X59042000Y87784500D01*
X59070571Y87798786D01*
X59113428Y87798786D01*
X59142000Y87784500D01*
X59156286Y87755928D01*
X59156286Y87598786D01*
X59299143Y87598786D02*
X59299143Y87798786D01*
X59299143Y87770214D02*
X59313428Y87784500D01*
X59342000Y87798786D01*
X59384857Y87798786D01*
X59413428Y87784500D01*
X59427714Y87755928D01*
X59427714Y87598786D01*
X59427714Y87755928D02*
X59442000Y87784500D01*
X59470571Y87798786D01*
X59513428Y87798786D01*
X59542000Y87784500D01*
X59556286Y87755928D01*
X59556286Y87598786D01*
X60142000Y87913071D02*
X59884857Y87527357D01*
X60527714Y87898786D02*
X60556286Y87898786D01*
X60584857Y87884500D01*
X60599143Y87870214D01*
X60613428Y87841643D01*
X60627714Y87784500D01*
X60627714Y87713071D01*
X60613428Y87655928D01*
X60599143Y87627357D01*
X60584857Y87613071D01*
X60556286Y87598786D01*
X60527714Y87598786D01*
X60499143Y87613071D01*
X60484857Y87627357D01*
X60470571Y87655928D01*
X60456286Y87713071D01*
X60456286Y87784500D01*
X60470571Y87841643D01*
X60484857Y87870214D01*
X60499143Y87884500D01*
X60527714Y87898786D01*
X60756286Y87627357D02*
X60770571Y87613071D01*
X60756286Y87598786D01*
X60742000Y87613071D01*
X60756286Y87627357D01*
X60756286Y87598786D01*
X60956286Y87898786D02*
X60984857Y87898786D01*
X61013428Y87884500D01*
X61027714Y87870214D01*
X61042000Y87841643D01*
X61056286Y87784500D01*
X61056286Y87713071D01*
X61042000Y87655928D01*
X61027714Y87627357D01*
X61013428Y87613071D01*
X60984857Y87598786D01*
X60956286Y87598786D01*
X60927714Y87613071D01*
X60913428Y87627357D01*
X60899143Y87655928D01*
X60884857Y87713071D01*
X60884857Y87784500D01*
X60899143Y87841643D01*
X60913428Y87870214D01*
X60927714Y87884500D01*
X60956286Y87898786D01*
X61313428Y87898786D02*
X61256286Y87898786D01*
X61227714Y87884500D01*
X61213428Y87870214D01*
X61184857Y87827357D01*
X61170571Y87770214D01*
X61170571Y87655928D01*
X61184857Y87627357D01*
X61199143Y87613071D01*
X61227714Y87598786D01*
X61284857Y87598786D01*
X61313428Y87613071D01*
X61327714Y87627357D01*
X61342000Y87655928D01*
X61342000Y87727357D01*
X61327714Y87755928D01*
X61313428Y87770214D01*
X61284857Y87784500D01*
X61227714Y87784500D01*
X61199143Y87770214D01*
X61184857Y87755928D01*
X61170571Y87727357D01*
X61627714Y87598786D02*
X61456286Y87598786D01*
X61542000Y87598786D02*
X61542000Y87898786D01*
X61513428Y87855928D01*
X61484857Y87827357D01*
X61456286Y87813071D01*
X61813428Y87898786D02*
X61842000Y87898786D01*
X61870571Y87884500D01*
X61884857Y87870214D01*
X61899143Y87841643D01*
X61913428Y87784500D01*
X61913428Y87713071D01*
X61899143Y87655928D01*
X61884857Y87627357D01*
X61870571Y87613071D01*
X61842000Y87598786D01*
X61813428Y87598786D01*
X61784857Y87613071D01*
X61770571Y87627357D01*
X61756286Y87655928D01*
X61742000Y87713071D01*
X61742000Y87784500D01*
X61756286Y87841643D01*
X61770571Y87870214D01*
X61784857Y87884500D01*
X61813428Y87898786D01*
X62027714Y87898786D02*
X62027714Y87841643D01*
X62142000Y87898786D02*
X62142000Y87841643D01*
X62584857Y87484500D02*
X62570571Y87498786D01*
X62542000Y87541643D01*
X62527714Y87570214D01*
X62513428Y87613071D01*
X62499143Y87684500D01*
X62499143Y87741643D01*
X62513428Y87813071D01*
X62527714Y87855928D01*
X62542000Y87884500D01*
X62570571Y87927357D01*
X62584857Y87941643D01*
X62670571Y87898786D02*
X62856286Y87898786D01*
X62756286Y87784500D01*
X62799143Y87784500D01*
X62827714Y87770214D01*
X62842000Y87755928D01*
X62856286Y87727357D01*
X62856286Y87655928D01*
X62842000Y87627357D01*
X62827714Y87613071D01*
X62799143Y87598786D01*
X62713428Y87598786D01*
X62684857Y87613071D01*
X62670571Y87627357D01*
X63213428Y87598786D02*
X63213428Y87898786D01*
X63342000Y87598786D02*
X63342000Y87755928D01*
X63327714Y87784500D01*
X63299143Y87798786D01*
X63256286Y87798786D01*
X63227714Y87784500D01*
X63213428Y87770214D01*
X63527714Y87598786D02*
X63499143Y87613071D01*
X63484857Y87627357D01*
X63470571Y87655928D01*
X63470571Y87741643D01*
X63484857Y87770214D01*
X63499143Y87784500D01*
X63527714Y87798786D01*
X63570571Y87798786D01*
X63599143Y87784500D01*
X63613428Y87770214D01*
X63627714Y87741643D01*
X63627714Y87655928D01*
X63613428Y87627357D01*
X63599143Y87613071D01*
X63570571Y87598786D01*
X63527714Y87598786D01*
X63799143Y87598786D02*
X63770571Y87613071D01*
X63756286Y87641643D01*
X63756286Y87898786D01*
X64027714Y87613071D02*
X63999143Y87598786D01*
X63942000Y87598786D01*
X63913428Y87613071D01*
X63899143Y87641643D01*
X63899143Y87755928D01*
X63913428Y87784500D01*
X63942000Y87798786D01*
X63999143Y87798786D01*
X64027714Y87784500D01*
X64042000Y87755928D01*
X64042000Y87727357D01*
X63899143Y87698786D01*
X64156286Y87613071D02*
X64184857Y87598786D01*
X64242000Y87598786D01*
X64270571Y87613071D01*
X64284857Y87641643D01*
X64284857Y87655928D01*
X64270571Y87684500D01*
X64242000Y87698786D01*
X64199143Y87698786D01*
X64170571Y87713071D01*
X64156286Y87741643D01*
X64156286Y87755928D01*
X64170571Y87784500D01*
X64199143Y87798786D01*
X64242000Y87798786D01*
X64270571Y87784500D01*
X64384857Y87484500D02*
X64399143Y87498786D01*
X64427714Y87541643D01*
X64442000Y87570214D01*
X64456286Y87613071D01*
X64470571Y87684500D01*
X64470571Y87741643D01*
X64456286Y87813071D01*
X64442000Y87855928D01*
X64427714Y87884500D01*
X64399143Y87927357D01*
X64384857Y87941643D01*
X57234300Y87245800D02*
X57327000Y87338500D01*
X57234300Y87431200D01*
X57141600Y87338500D01*
X57234300Y87245800D01*
X57770571Y87202786D02*
X57599143Y87202786D01*
X57684857Y87202786D02*
X57684857Y87502786D01*
X57656286Y87459928D01*
X57627714Y87431357D01*
X57599143Y87417071D01*
X57899143Y87231357D02*
X57913428Y87217071D01*
X57899143Y87202786D01*
X57884857Y87217071D01*
X57899143Y87231357D01*
X57899143Y87202786D01*
X58084857Y87374214D02*
X58056286Y87388500D01*
X58042000Y87402786D01*
X58027714Y87431357D01*
X58027714Y87445643D01*
X58042000Y87474214D01*
X58056286Y87488500D01*
X58084857Y87502786D01*
X58142000Y87502786D01*
X58170571Y87488500D01*
X58184857Y87474214D01*
X58199143Y87445643D01*
X58199143Y87431357D01*
X58184857Y87402786D01*
X58170571Y87388500D01*
X58142000Y87374214D01*
X58084857Y87374214D01*
X58056286Y87359928D01*
X58042000Y87345643D01*
X58027714Y87317071D01*
X58027714Y87259928D01*
X58042000Y87231357D01*
X58056286Y87217071D01*
X58084857Y87202786D01*
X58142000Y87202786D01*
X58170571Y87217071D01*
X58184857Y87231357D01*
X58199143Y87259928D01*
X58199143Y87317071D01*
X58184857Y87345643D01*
X58170571Y87359928D01*
X58142000Y87374214D01*
X58470571Y87502786D02*
X58327714Y87502786D01*
X58313428Y87359928D01*
X58327714Y87374214D01*
X58356286Y87388500D01*
X58427714Y87388500D01*
X58456286Y87374214D01*
X58470571Y87359928D01*
X58484857Y87331357D01*
X58484857Y87259928D01*
X58470571Y87231357D01*
X58456286Y87217071D01*
X58427714Y87202786D01*
X58356286Y87202786D01*
X58327714Y87217071D01*
X58313428Y87231357D01*
X58742000Y87402786D02*
X58742000Y87202786D01*
X58670571Y87517071D02*
X58599143Y87302786D01*
X58784857Y87302786D01*
X58899143Y87202786D02*
X58899143Y87402786D01*
X58899143Y87374214D02*
X58913428Y87388500D01*
X58942000Y87402786D01*
X58984857Y87402786D01*
X59013428Y87388500D01*
X59027714Y87359928D01*
X59027714Y87202786D01*
X59027714Y87359928D02*
X59042000Y87388500D01*
X59070571Y87402786D01*
X59113428Y87402786D01*
X59142000Y87388500D01*
X59156286Y87359928D01*
X59156286Y87202786D01*
X59299143Y87202786D02*
X59299143Y87402786D01*
X59299143Y87374214D02*
X59313428Y87388500D01*
X59342000Y87402786D01*
X59384857Y87402786D01*
X59413428Y87388500D01*
X59427714Y87359928D01*
X59427714Y87202786D01*
X59427714Y87359928D02*
X59442000Y87388500D01*
X59470571Y87402786D01*
X59513428Y87402786D01*
X59542000Y87388500D01*
X59556286Y87359928D01*
X59556286Y87202786D01*
X60142000Y87517071D02*
X59884857Y87131357D01*
X60527714Y87502786D02*
X60556286Y87502786D01*
X60584857Y87488500D01*
X60599143Y87474214D01*
X60613428Y87445643D01*
X60627714Y87388500D01*
X60627714Y87317071D01*
X60613428Y87259928D01*
X60599143Y87231357D01*
X60584857Y87217071D01*
X60556286Y87202786D01*
X60527714Y87202786D01*
X60499143Y87217071D01*
X60484857Y87231357D01*
X60470571Y87259928D01*
X60456286Y87317071D01*
X60456286Y87388500D01*
X60470571Y87445643D01*
X60484857Y87474214D01*
X60499143Y87488500D01*
X60527714Y87502786D01*
X60756286Y87231357D02*
X60770571Y87217071D01*
X60756286Y87202786D01*
X60742000Y87217071D01*
X60756286Y87231357D01*
X60756286Y87202786D01*
X60956286Y87502786D02*
X60984857Y87502786D01*
X61013428Y87488500D01*
X61027714Y87474214D01*
X61042000Y87445643D01*
X61056286Y87388500D01*
X61056286Y87317071D01*
X61042000Y87259928D01*
X61027714Y87231357D01*
X61013428Y87217071D01*
X60984857Y87202786D01*
X60956286Y87202786D01*
X60927714Y87217071D01*
X60913428Y87231357D01*
X60899143Y87259928D01*
X60884857Y87317071D01*
X60884857Y87388500D01*
X60899143Y87445643D01*
X60913428Y87474214D01*
X60927714Y87488500D01*
X60956286Y87502786D01*
X61156286Y87502786D02*
X61356286Y87502786D01*
X61227714Y87202786D01*
X61442000Y87502786D02*
X61627714Y87502786D01*
X61527714Y87388500D01*
X61570571Y87388500D01*
X61599143Y87374214D01*
X61613428Y87359928D01*
X61627714Y87331357D01*
X61627714Y87259928D01*
X61613428Y87231357D01*
X61599143Y87217071D01*
X61570571Y87202786D01*
X61484857Y87202786D01*
X61456286Y87217071D01*
X61442000Y87231357D01*
X61813428Y87502786D02*
X61842000Y87502786D01*
X61870571Y87488500D01*
X61884857Y87474214D01*
X61899143Y87445643D01*
X61913428Y87388500D01*
X61913428Y87317071D01*
X61899143Y87259928D01*
X61884857Y87231357D01*
X61870571Y87217071D01*
X61842000Y87202786D01*
X61813428Y87202786D01*
X61784857Y87217071D01*
X61770571Y87231357D01*
X61756286Y87259928D01*
X61742000Y87317071D01*
X61742000Y87388500D01*
X61756286Y87445643D01*
X61770571Y87474214D01*
X61784857Y87488500D01*
X61813428Y87502786D01*
X62027714Y87502786D02*
X62027714Y87445643D01*
X62142000Y87502786D02*
X62142000Y87445643D01*
X62584857Y87088500D02*
X62570571Y87102786D01*
X62542000Y87145643D01*
X62527714Y87174214D01*
X62513428Y87217071D01*
X62499143Y87288500D01*
X62499143Y87345643D01*
X62513428Y87417071D01*
X62527714Y87459928D01*
X62542000Y87488500D01*
X62570571Y87531357D01*
X62584857Y87545643D01*
X62670571Y87502786D02*
X62856286Y87502786D01*
X62756286Y87388500D01*
X62799143Y87388500D01*
X62827714Y87374214D01*
X62842000Y87359928D01*
X62856286Y87331357D01*
X62856286Y87259928D01*
X62842000Y87231357D01*
X62827714Y87217071D01*
X62799143Y87202786D01*
X62713428Y87202786D01*
X62684857Y87217071D01*
X62670571Y87231357D01*
X63213428Y87202786D02*
X63213428Y87502786D01*
X63342000Y87202786D02*
X63342000Y87359928D01*
X63327714Y87388500D01*
X63299143Y87402786D01*
X63256286Y87402786D01*
X63227714Y87388500D01*
X63213428Y87374214D01*
X63527714Y87202786D02*
X63499143Y87217071D01*
X63484857Y87231357D01*
X63470571Y87259928D01*
X63470571Y87345643D01*
X63484857Y87374214D01*
X63499143Y87388500D01*
X63527714Y87402786D01*
X63570571Y87402786D01*
X63599143Y87388500D01*
X63613428Y87374214D01*
X63627714Y87345643D01*
X63627714Y87259928D01*
X63613428Y87231357D01*
X63599143Y87217071D01*
X63570571Y87202786D01*
X63527714Y87202786D01*
X63799143Y87202786D02*
X63770571Y87217071D01*
X63756286Y87245643D01*
X63756286Y87502786D01*
X64027714Y87217071D02*
X63999143Y87202786D01*
X63942000Y87202786D01*
X63913428Y87217071D01*
X63899143Y87245643D01*
X63899143Y87359928D01*
X63913428Y87388500D01*
X63942000Y87402786D01*
X63999143Y87402786D01*
X64027714Y87388500D01*
X64042000Y87359928D01*
X64042000Y87331357D01*
X63899143Y87302786D01*
X64156286Y87217071D02*
X64184857Y87202786D01*
X64242000Y87202786D01*
X64270571Y87217071D01*
X64284857Y87245643D01*
X64284857Y87259928D01*
X64270571Y87288500D01*
X64242000Y87302786D01*
X64199143Y87302786D01*
X64170571Y87317071D01*
X64156286Y87345643D01*
X64156286Y87359928D01*
X64170571Y87388500D01*
X64199143Y87402786D01*
X64242000Y87402786D01*
X64270571Y87388500D01*
X64384857Y87088500D02*
X64399143Y87102786D01*
X64427714Y87145643D01*
X64442000Y87174214D01*
X64456286Y87217071D01*
X64470571Y87288500D01*
X64470571Y87345643D01*
X64456286Y87417071D01*
X64442000Y87459928D01*
X64427714Y87488500D01*
X64399143Y87531357D01*
X64384857Y87545643D01*
M02*
