G04 #@! TF.GenerationSoftware,KiCad,Pcbnew,5.1.12-84ad8e8a86~92~ubuntu18.04.1*
G04 #@! TF.CreationDate,2022-02-21T10:52:46-04:00*
G04 #@! TF.ProjectId,OMC_WIFI_PCB,4f4d435f-5749-4464-995f-5043422e6b69,rev?*
G04 #@! TF.SameCoordinates,Original*
G04 #@! TF.FileFunction,Legend,Top*
G04 #@! TF.FilePolarity,Positive*
%FSLAX46Y46*%
G04 Gerber Fmt 4.6, Leading zero omitted, Abs format (unit mm)*
G04 Created by KiCad (PCBNEW 5.1.12-84ad8e8a86~92~ubuntu18.04.1) date 2022-02-21 10:52:46*
%MOMM*%
%LPD*%
G01*
G04 APERTURE LIST*
%ADD10C,0.120000*%
%ADD11C,0.437500*%
%ADD12C,0.150000*%
%ADD13C,0.600000*%
%ADD14C,0.200000*%
%ADD15C,0.127000*%
%ADD16O,1.800000X1.800000*%
%ADD17C,2.100000*%
%ADD18C,3.100000*%
%ADD19C,1.900000*%
%ADD20C,2.400000*%
%ADD21C,2.650000*%
G04 APERTURE END LIST*
D10*
X632000000Y959600000D02*
X632000000Y962400000D01*
X658000000Y959600000D02*
X632000000Y959600000D01*
X658000000Y970000000D02*
X658000000Y959600000D01*
X632000000Y970000000D02*
X658000000Y970000000D01*
X632000000Y962400000D02*
X632000000Y970000000D01*
D11*
X639638333Y966795238D02*
X638638333Y966795238D01*
X639138333Y966795238D02*
X639138333Y968795238D01*
X638971666Y968509523D01*
X638805000Y968319047D01*
X638638333Y968223809D01*
X641221666Y968795238D02*
X640388333Y968795238D01*
X640305000Y967842857D01*
X640388333Y967938095D01*
X640555000Y968033333D01*
X640971666Y968033333D01*
X641138333Y967938095D01*
X641221666Y967842857D01*
X641305000Y967652380D01*
X641305000Y967176190D01*
X641221666Y966985714D01*
X641138333Y966890476D01*
X640971666Y966795238D01*
X640555000Y966795238D01*
X640388333Y966890476D01*
X640305000Y966985714D01*
X641971666Y967366666D02*
X642805000Y967366666D01*
X641805000Y966795238D02*
X642388333Y968795238D01*
X642971666Y966795238D01*
X645471666Y967842857D02*
X644888333Y967842857D01*
X644888333Y966795238D02*
X644888333Y968795238D01*
X645721666Y968795238D01*
X646388333Y968795238D02*
X646388333Y967176190D01*
X646471666Y966985714D01*
X646555000Y966890476D01*
X646721666Y966795238D01*
X647055000Y966795238D01*
X647221666Y966890476D01*
X647305000Y966985714D01*
X647388333Y967176190D01*
X647388333Y968795238D01*
X648138333Y966890476D02*
X648388333Y966795238D01*
X648805000Y966795238D01*
X648971666Y966890476D01*
X649055000Y966985714D01*
X649138333Y967176190D01*
X649138333Y967366666D01*
X649055000Y967557142D01*
X648971666Y967652380D01*
X648805000Y967747619D01*
X648471666Y967842857D01*
X648305000Y967938095D01*
X648221666Y968033333D01*
X648138333Y968223809D01*
X648138333Y968414285D01*
X648221666Y968604761D01*
X648305000Y968700000D01*
X648471666Y968795238D01*
X648888333Y968795238D01*
X649138333Y968700000D01*
X649888333Y967842857D02*
X650471666Y967842857D01*
X650721666Y966795238D02*
X649888333Y966795238D01*
X649888333Y968795238D01*
X650721666Y968795238D01*
D12*
X614235714Y899890714D02*
X614700000Y899890714D01*
X614450000Y899605000D01*
X614557142Y899605000D01*
X614628571Y899569285D01*
X614664285Y899533571D01*
X614700000Y899462142D01*
X614700000Y899283571D01*
X614664285Y899212142D01*
X614628571Y899176428D01*
X614557142Y899140714D01*
X614342857Y899140714D01*
X614271428Y899176428D01*
X614235714Y899212142D01*
X614950000Y899890714D02*
X615414285Y899890714D01*
X615164285Y899605000D01*
X615271428Y899605000D01*
X615342857Y899569285D01*
X615378571Y899533571D01*
X615414285Y899462142D01*
X615414285Y899283571D01*
X615378571Y899212142D01*
X615342857Y899176428D01*
X615271428Y899140714D01*
X615057142Y899140714D01*
X614985714Y899176428D01*
X614950000Y899212142D01*
X615878571Y899890714D02*
X615950000Y899890714D01*
X616021428Y899855000D01*
X616057142Y899819285D01*
X616092857Y899747857D01*
X616128571Y899605000D01*
X616128571Y899426428D01*
X616092857Y899283571D01*
X616057142Y899212142D01*
X616021428Y899176428D01*
X615950000Y899140714D01*
X615878571Y899140714D01*
X615807142Y899176428D01*
X615771428Y899212142D01*
X615735714Y899283571D01*
X615700000Y899426428D01*
X615700000Y899605000D01*
X615735714Y899747857D01*
X615771428Y899819285D01*
X615807142Y899855000D01*
X615878571Y899890714D01*
X659437619Y960235714D02*
X659437619Y960711904D01*
X660437619Y960711904D01*
X660437619Y959711904D02*
X660437619Y959521428D01*
X660390000Y959426190D01*
X660294761Y959330952D01*
X660104285Y959283333D01*
X659770952Y959283333D01*
X659580476Y959330952D01*
X659485238Y959426190D01*
X659437619Y959521428D01*
X659437619Y959711904D01*
X659485238Y959807142D01*
X659580476Y959902380D01*
X659770952Y959950000D01*
X660104285Y959950000D01*
X660294761Y959902380D01*
X660390000Y959807142D01*
X660437619Y959711904D01*
X659723333Y958902380D02*
X659723333Y958426190D01*
X659437619Y958997619D02*
X660437619Y958664285D01*
X659437619Y958330952D01*
X659437619Y957997619D02*
X660437619Y957997619D01*
X660437619Y957759523D01*
X660390000Y957616666D01*
X660294761Y957521428D01*
X660199523Y957473809D01*
X660009047Y957426190D01*
X659866190Y957426190D01*
X659675714Y957473809D01*
X659580476Y957521428D01*
X659485238Y957616666D01*
X659437619Y957759523D01*
X659437619Y957997619D01*
X660485238Y956283333D02*
X659199523Y957140476D01*
X659437619Y955473809D02*
X659437619Y955950000D01*
X660437619Y955950000D01*
X659437619Y955140476D02*
X660437619Y955140476D01*
X659437619Y954664285D02*
X660437619Y954664285D01*
X659437619Y954092857D01*
X660437619Y954092857D01*
X659961428Y953616666D02*
X659961428Y953283333D01*
X659437619Y953140476D02*
X659437619Y953616666D01*
X660437619Y953616666D01*
X660437619Y953140476D01*
X659437619Y967344761D02*
X659437619Y967820952D01*
X660437619Y967820952D01*
X659437619Y967011428D02*
X660437619Y967011428D01*
X659437619Y966535238D02*
X660437619Y966535238D01*
X659437619Y965963809D01*
X660437619Y965963809D01*
X659961428Y965487619D02*
X659961428Y965154285D01*
X659437619Y965011428D02*
X659437619Y965487619D01*
X660437619Y965487619D01*
X660437619Y965011428D01*
X659437619Y978996190D02*
X660437619Y978996190D01*
X659437619Y978424761D01*
X660437619Y978424761D01*
X659961428Y977948571D02*
X659961428Y977615238D01*
X659437619Y977472380D02*
X659437619Y977948571D01*
X660437619Y977948571D01*
X660437619Y977472380D01*
X660437619Y977043809D02*
X659628095Y977043809D01*
X659532857Y976996190D01*
X659485238Y976948571D01*
X659437619Y976853333D01*
X659437619Y976662857D01*
X659485238Y976567619D01*
X659532857Y976520000D01*
X659628095Y976472380D01*
X660437619Y976472380D01*
X660437619Y976139047D02*
X660437619Y975567619D01*
X659437619Y975853333D02*
X660437619Y975853333D01*
X659437619Y974662857D02*
X659913809Y974996190D01*
X659437619Y975234285D02*
X660437619Y975234285D01*
X660437619Y974853333D01*
X660390000Y974758095D01*
X660342380Y974710476D01*
X660247142Y974662857D01*
X660104285Y974662857D01*
X660009047Y974710476D01*
X659961428Y974758095D01*
X659913809Y974853333D01*
X659913809Y975234285D01*
X659723333Y974281904D02*
X659723333Y973805714D01*
X659437619Y974377142D02*
X660437619Y974043809D01*
X659437619Y973710476D01*
X659437619Y972900952D02*
X659437619Y973377142D01*
X660437619Y973377142D01*
D11*
X618375000Y905830476D02*
X618625000Y905735238D01*
X619041666Y905735238D01*
X619208333Y905830476D01*
X619291666Y905925714D01*
X619375000Y906116190D01*
X619375000Y906306666D01*
X619291666Y906497142D01*
X619208333Y906592380D01*
X619041666Y906687619D01*
X618708333Y906782857D01*
X618541666Y906878095D01*
X618458333Y906973333D01*
X618375000Y907163809D01*
X618375000Y907354285D01*
X618458333Y907544761D01*
X618541666Y907640000D01*
X618708333Y907735238D01*
X619125000Y907735238D01*
X619375000Y907640000D01*
X619958333Y907068571D02*
X620291666Y905735238D01*
X620625000Y906687619D01*
X620958333Y905735238D01*
X621291666Y907068571D01*
X621958333Y905735238D02*
X621958333Y907068571D01*
X621958333Y907735238D02*
X621875000Y907640000D01*
X621958333Y907544761D01*
X622041666Y907640000D01*
X621958333Y907735238D01*
X621958333Y907544761D01*
X622541666Y907068571D02*
X623208333Y907068571D01*
X622791666Y907735238D02*
X622791666Y906020952D01*
X622875000Y905830476D01*
X623041666Y905735238D01*
X623208333Y905735238D01*
X624541666Y905830476D02*
X624375000Y905735238D01*
X624041666Y905735238D01*
X623875000Y905830476D01*
X623791666Y905925714D01*
X623708333Y906116190D01*
X623708333Y906687619D01*
X623791666Y906878095D01*
X623875000Y906973333D01*
X624041666Y907068571D01*
X624375000Y907068571D01*
X624541666Y906973333D01*
X625291666Y905735238D02*
X625291666Y907735238D01*
X626041666Y905735238D02*
X626041666Y906782857D01*
X625958333Y906973333D01*
X625791666Y907068571D01*
X625541666Y907068571D01*
X625375000Y906973333D01*
X625291666Y906878095D01*
D12*
X634353333Y901677619D02*
X634020000Y902153809D01*
X633781904Y901677619D02*
X633781904Y902677619D01*
X634162857Y902677619D01*
X634258095Y902630000D01*
X634305714Y902582380D01*
X634353333Y902487142D01*
X634353333Y902344285D01*
X634305714Y902249047D01*
X634258095Y902201428D01*
X634162857Y902153809D01*
X633781904Y902153809D01*
X634686666Y902677619D02*
X635353333Y901677619D01*
X635353333Y902677619D02*
X634686666Y901677619D01*
X636188095Y902677619D02*
X636759523Y902677619D01*
X636473809Y901677619D02*
X636473809Y902677619D01*
X636997619Y902677619D02*
X637664285Y901677619D01*
X637664285Y902677619D02*
X636997619Y901677619D01*
X573895714Y901627619D02*
X573895714Y902627619D01*
X574133809Y902627619D01*
X574276666Y902580000D01*
X574371904Y902484761D01*
X574419523Y902389523D01*
X574467142Y902199047D01*
X574467142Y902056190D01*
X574419523Y901865714D01*
X574371904Y901770476D01*
X574276666Y901675238D01*
X574133809Y901627619D01*
X573895714Y901627619D01*
X574848095Y902532380D02*
X574895714Y902580000D01*
X574990952Y902627619D01*
X575229047Y902627619D01*
X575324285Y902580000D01*
X575371904Y902532380D01*
X575419523Y902437142D01*
X575419523Y902341904D01*
X575371904Y902199047D01*
X574800476Y901627619D01*
X575419523Y901627619D01*
X575752857Y902627619D02*
X576371904Y902627619D01*
X576038571Y902246666D01*
X576181428Y902246666D01*
X576276666Y902199047D01*
X576324285Y902151428D01*
X576371904Y902056190D01*
X576371904Y901818095D01*
X576324285Y901722857D01*
X576276666Y901675238D01*
X576181428Y901627619D01*
X575895714Y901627619D01*
X575800476Y901675238D01*
X575752857Y901722857D01*
X573891904Y938432619D02*
X574510952Y938432619D01*
X574177619Y938051666D01*
X574320476Y938051666D01*
X574415714Y938004047D01*
X574463333Y937956428D01*
X574510952Y937861190D01*
X574510952Y937623095D01*
X574463333Y937527857D01*
X574415714Y937480238D01*
X574320476Y937432619D01*
X574034761Y937432619D01*
X573939523Y937480238D01*
X573891904Y937527857D01*
X574796666Y938432619D02*
X575130000Y937432619D01*
X575463333Y938432619D01*
X575701428Y938432619D02*
X576320476Y938432619D01*
X575987142Y938051666D01*
X576130000Y938051666D01*
X576225238Y938004047D01*
X576272857Y937956428D01*
X576320476Y937861190D01*
X576320476Y937623095D01*
X576272857Y937527857D01*
X576225238Y937480238D01*
X576130000Y937432619D01*
X575844285Y937432619D01*
X575749047Y937480238D01*
X575701428Y937527857D01*
X608644285Y937738571D02*
X609406190Y937738571D01*
X609025238Y937357619D02*
X609025238Y938119523D01*
X610358571Y938357619D02*
X609882380Y938357619D01*
X609834761Y937881428D01*
X609882380Y937929047D01*
X609977619Y937976666D01*
X610215714Y937976666D01*
X610310952Y937929047D01*
X610358571Y937881428D01*
X610406190Y937786190D01*
X610406190Y937548095D01*
X610358571Y937452857D01*
X610310952Y937405238D01*
X610215714Y937357619D01*
X609977619Y937357619D01*
X609882380Y937405238D01*
X609834761Y937452857D01*
X610691904Y938357619D02*
X611025238Y937357619D01*
X611358571Y938357619D01*
X608741904Y902286428D02*
X609075238Y902286428D01*
X609218095Y901762619D02*
X608741904Y901762619D01*
X608741904Y902762619D01*
X609218095Y902762619D01*
X609646666Y901762619D02*
X609646666Y902762619D01*
X610218095Y901762619D01*
X610218095Y902762619D01*
D13*
X584308571Y920600714D02*
X585641904Y920600714D01*
X586213333Y918505476D02*
X584308571Y918505476D01*
X584308571Y922505476D01*
X586213333Y922505476D01*
X587737142Y918695952D02*
X588308571Y918505476D01*
X589260952Y918505476D01*
X589641904Y918695952D01*
X589832380Y918886428D01*
X590022857Y919267380D01*
X590022857Y919648333D01*
X589832380Y920029285D01*
X589641904Y920219761D01*
X589260952Y920410238D01*
X588499047Y920600714D01*
X588118095Y920791190D01*
X587927619Y920981666D01*
X587737142Y921362619D01*
X587737142Y921743571D01*
X587927619Y922124523D01*
X588118095Y922315000D01*
X588499047Y922505476D01*
X589451428Y922505476D01*
X590022857Y922315000D01*
X591737142Y918505476D02*
X591737142Y922505476D01*
X593260952Y922505476D01*
X593641904Y922315000D01*
X593832380Y922124523D01*
X594022857Y921743571D01*
X594022857Y921172142D01*
X593832380Y920791190D01*
X593641904Y920600714D01*
X593260952Y920410238D01*
X591737142Y920410238D01*
X595356190Y922505476D02*
X597832380Y922505476D01*
X596499047Y920981666D01*
X597070476Y920981666D01*
X597451428Y920791190D01*
X597641904Y920600714D01*
X597832380Y920219761D01*
X597832380Y919267380D01*
X597641904Y918886428D01*
X597451428Y918695952D01*
X597070476Y918505476D01*
X595927619Y918505476D01*
X595546666Y918695952D01*
X595356190Y918886428D01*
X599356190Y922124523D02*
X599546666Y922315000D01*
X599927619Y922505476D01*
X600880000Y922505476D01*
X601260952Y922315000D01*
X601451428Y922124523D01*
X601641904Y921743571D01*
X601641904Y921362619D01*
X601451428Y920791190D01*
X599165714Y918505476D01*
X601641904Y918505476D01*
D11*
X634298333Y908292857D02*
X633715000Y908292857D01*
X633715000Y907245238D02*
X633715000Y909245238D01*
X634548333Y909245238D01*
X634965000Y909245238D02*
X635965000Y909245238D01*
X635465000Y907245238D02*
X635465000Y909245238D01*
X636465000Y909054761D02*
X636548333Y909150000D01*
X636715000Y909245238D01*
X637131666Y909245238D01*
X637298333Y909150000D01*
X637381666Y909054761D01*
X637465000Y908864285D01*
X637465000Y908673809D01*
X637381666Y908388095D01*
X636381666Y907245238D01*
X637465000Y907245238D01*
X638048333Y909245238D02*
X639131666Y909245238D01*
X638548333Y908483333D01*
X638798333Y908483333D01*
X638965000Y908388095D01*
X639048333Y908292857D01*
X639131666Y908102380D01*
X639131666Y907626190D01*
X639048333Y907435714D01*
X638965000Y907340476D01*
X638798333Y907245238D01*
X638298333Y907245238D01*
X638131666Y907340476D01*
X638048333Y907435714D01*
X639798333Y909054761D02*
X639881666Y909150000D01*
X640048333Y909245238D01*
X640465000Y909245238D01*
X640631666Y909150000D01*
X640715000Y909054761D01*
X640798333Y908864285D01*
X640798333Y908673809D01*
X640715000Y908388095D01*
X639715000Y907245238D01*
X640798333Y907245238D01*
X642548333Y907245238D02*
X641965000Y908197619D01*
X641548333Y907245238D02*
X641548333Y909245238D01*
X642215000Y909245238D01*
X642381666Y909150000D01*
X642465000Y909054761D01*
X642548333Y908864285D01*
X642548333Y908578571D01*
X642465000Y908388095D01*
X642381666Y908292857D01*
X642215000Y908197619D01*
X641548333Y908197619D01*
D13*
X673280476Y969114761D02*
X677280476Y969114761D01*
X677280476Y967590952D01*
X677090000Y967210000D01*
X676899523Y967019523D01*
X676518571Y966829047D01*
X675947142Y966829047D01*
X675566190Y967019523D01*
X675375714Y967210000D01*
X675185238Y967590952D01*
X675185238Y969114761D01*
X673280476Y964543333D02*
X673470952Y964924285D01*
X673661428Y965114761D01*
X674042380Y965305238D01*
X675185238Y965305238D01*
X675566190Y965114761D01*
X675756666Y964924285D01*
X675947142Y964543333D01*
X675947142Y963971904D01*
X675756666Y963590952D01*
X675566190Y963400476D01*
X675185238Y963210000D01*
X674042380Y963210000D01*
X673661428Y963400476D01*
X673470952Y963590952D01*
X673280476Y963971904D01*
X673280476Y964543333D01*
X675947142Y961876666D02*
X673280476Y961114761D01*
X675185238Y960352857D01*
X673280476Y959590952D01*
X675947142Y958829047D01*
X673470952Y955781428D02*
X673280476Y956162380D01*
X673280476Y956924285D01*
X673470952Y957305238D01*
X673851904Y957495714D01*
X675375714Y957495714D01*
X675756666Y957305238D01*
X675947142Y956924285D01*
X675947142Y956162380D01*
X675756666Y955781428D01*
X675375714Y955590952D01*
X674994761Y955590952D01*
X674613809Y957495714D01*
X673280476Y953876666D02*
X675947142Y953876666D01*
X675185238Y953876666D02*
X675566190Y953686190D01*
X675756666Y953495714D01*
X675947142Y953114761D01*
X675947142Y952733809D01*
D11*
X621495238Y937908333D02*
X623495238Y937908333D01*
X622542857Y937908333D02*
X622542857Y936908333D01*
X621495238Y936908333D02*
X623495238Y936908333D01*
X621495238Y935241666D02*
X621495238Y936075000D01*
X623495238Y936075000D01*
X621495238Y934658333D02*
X623495238Y934658333D01*
X621495238Y933658333D02*
X622638095Y934408333D01*
X623495238Y933658333D02*
X622352380Y934658333D01*
X622257142Y932908333D02*
X622257142Y931575000D01*
X621495238Y930741666D02*
X623495238Y930741666D01*
X623495238Y930075000D01*
X623400000Y929908333D01*
X623304761Y929825000D01*
X623114285Y929741666D01*
X622828571Y929741666D01*
X622638095Y929825000D01*
X622542857Y929908333D01*
X622447619Y930075000D01*
X622447619Y930741666D01*
X621495238Y928991666D02*
X623495238Y928991666D01*
X622066666Y928408333D01*
X623495238Y927825000D01*
X621495238Y927825000D01*
X623495238Y926658333D02*
X623495238Y926491666D01*
X623400000Y926325000D01*
X623304761Y926241666D01*
X623114285Y926158333D01*
X622733333Y926075000D01*
X622257142Y926075000D01*
X621876190Y926158333D01*
X621685714Y926241666D01*
X621590476Y926325000D01*
X621495238Y926491666D01*
X621495238Y926658333D01*
X621590476Y926825000D01*
X621685714Y926908333D01*
X621876190Y926991666D01*
X622257142Y927075000D01*
X622733333Y927075000D01*
X623114285Y926991666D01*
X623304761Y926908333D01*
X623400000Y926825000D01*
X623495238Y926658333D01*
X621495238Y924408333D02*
X621495238Y925408333D01*
X621495238Y924908333D02*
X623495238Y924908333D01*
X623209523Y925075000D01*
X623019047Y925241666D01*
X622923809Y925408333D01*
X639471666Y934260000D02*
X639471666Y933426666D01*
X638900238Y934426666D02*
X640900238Y933843333D01*
X638900238Y933260000D01*
X639090714Y931676666D02*
X638995476Y931760000D01*
X638900238Y932010000D01*
X638900238Y932176666D01*
X638995476Y932426666D01*
X639185952Y932593333D01*
X639376428Y932676666D01*
X639757380Y932760000D01*
X640043095Y932760000D01*
X640424047Y932676666D01*
X640614523Y932593333D01*
X640805000Y932426666D01*
X640900238Y932176666D01*
X640900238Y932010000D01*
X640805000Y931760000D01*
X640709761Y931676666D01*
X638995476Y931010000D02*
X638900238Y930760000D01*
X638900238Y930343333D01*
X638995476Y930176666D01*
X639090714Y930093333D01*
X639281190Y930010000D01*
X639471666Y930010000D01*
X639662142Y930093333D01*
X639757380Y930176666D01*
X639852619Y930343333D01*
X639947857Y930676666D01*
X640043095Y930843333D01*
X640138333Y930926666D01*
X640328809Y931010000D01*
X640519285Y931010000D01*
X640709761Y930926666D01*
X640805000Y930843333D01*
X640900238Y930676666D01*
X640900238Y930260000D01*
X640805000Y930010000D01*
X640900238Y929426666D02*
X640900238Y928260000D01*
X638900238Y929010000D01*
X638900238Y926676666D02*
X638900238Y927676666D01*
X638900238Y927176666D02*
X640900238Y927176666D01*
X640614523Y927343333D01*
X640424047Y927510000D01*
X640328809Y927676666D01*
X640709761Y926010000D02*
X640805000Y925926666D01*
X640900238Y925760000D01*
X640900238Y925343333D01*
X640805000Y925176666D01*
X640709761Y925093333D01*
X640519285Y925010000D01*
X640328809Y925010000D01*
X640043095Y925093333D01*
X638900238Y926093333D01*
X638900238Y925010000D01*
X662600476Y937111666D02*
X662505238Y936861666D01*
X662505238Y936445000D01*
X662600476Y936278333D01*
X662695714Y936195000D01*
X662886190Y936111666D01*
X663076666Y936111666D01*
X663267142Y936195000D01*
X663362380Y936278333D01*
X663457619Y936445000D01*
X663552857Y936778333D01*
X663648095Y936945000D01*
X663743333Y937028333D01*
X663933809Y937111666D01*
X664124285Y937111666D01*
X664314761Y937028333D01*
X664410000Y936945000D01*
X664505238Y936778333D01*
X664505238Y936361666D01*
X664410000Y936111666D01*
X662505238Y934528333D02*
X662505238Y935361666D01*
X664505238Y935361666D01*
X663076666Y934028333D02*
X663076666Y933195000D01*
X662505238Y934195000D02*
X664505238Y933611666D01*
X662505238Y933028333D01*
X663267142Y932445000D02*
X663267142Y931111666D01*
X664505238Y929945000D02*
X664505238Y929778333D01*
X664410000Y929611666D01*
X664314761Y929528333D01*
X664124285Y929445000D01*
X663743333Y929361666D01*
X663267142Y929361666D01*
X662886190Y929445000D01*
X662695714Y929528333D01*
X662600476Y929611666D01*
X662505238Y929778333D01*
X662505238Y929945000D01*
X662600476Y930111666D01*
X662695714Y930195000D01*
X662886190Y930278333D01*
X663267142Y930361666D01*
X663743333Y930361666D01*
X664124285Y930278333D01*
X664314761Y930195000D01*
X664410000Y930111666D01*
X664505238Y929945000D01*
X664505238Y927778333D02*
X664505238Y928611666D01*
X663552857Y928695000D01*
X663648095Y928611666D01*
X663743333Y928445000D01*
X663743333Y928028333D01*
X663648095Y927861666D01*
X663552857Y927778333D01*
X663362380Y927695000D01*
X662886190Y927695000D01*
X662695714Y927778333D01*
X662600476Y927861666D01*
X662505238Y928028333D01*
X662505238Y928445000D01*
X662600476Y928611666D01*
X662695714Y928695000D01*
X664505238Y927195000D02*
X662505238Y926611666D01*
X664505238Y926028333D01*
X662505238Y925445000D02*
X664505238Y925445000D01*
X664505238Y925028333D01*
X664410000Y924778333D01*
X664219523Y924611666D01*
X664029047Y924528333D01*
X663648095Y924445000D01*
X663362380Y924445000D01*
X662981428Y924528333D01*
X662790952Y924611666D01*
X662600476Y924778333D01*
X662505238Y925028333D01*
X662505238Y925445000D01*
X662695714Y922695000D02*
X662600476Y922778333D01*
X662505238Y923028333D01*
X662505238Y923195000D01*
X662600476Y923445000D01*
X662790952Y923611666D01*
X662981428Y923695000D01*
X663362380Y923778333D01*
X663648095Y923778333D01*
X664029047Y923695000D01*
X664219523Y923611666D01*
X664410000Y923445000D01*
X664505238Y923195000D01*
X664505238Y923028333D01*
X664410000Y922778333D01*
X664314761Y922695000D01*
X663267142Y921945000D02*
X663267142Y920611666D01*
X662600476Y919861666D02*
X662505238Y919611666D01*
X662505238Y919195000D01*
X662600476Y919028333D01*
X662695714Y918945000D01*
X662886190Y918861666D01*
X663076666Y918861666D01*
X663267142Y918945000D01*
X663362380Y919028333D01*
X663457619Y919195000D01*
X663552857Y919528333D01*
X663648095Y919695000D01*
X663743333Y919778333D01*
X663933809Y919861666D01*
X664124285Y919861666D01*
X664314761Y919778333D01*
X664410000Y919695000D01*
X664505238Y919528333D01*
X664505238Y919111666D01*
X664410000Y918861666D01*
X662505238Y917278333D02*
X662505238Y918111666D01*
X664505238Y918111666D01*
X663267142Y916695000D02*
X663267142Y915361666D01*
X662695714Y913528333D02*
X662600476Y913611666D01*
X662505238Y913861666D01*
X662505238Y914028333D01*
X662600476Y914278333D01*
X662790952Y914445000D01*
X662981428Y914528333D01*
X663362380Y914611666D01*
X663648095Y914611666D01*
X664029047Y914528333D01*
X664219523Y914445000D01*
X664410000Y914278333D01*
X664505238Y914028333D01*
X664505238Y913861666D01*
X664410000Y913611666D01*
X664314761Y913528333D01*
D10*
X633035000Y947030000D02*
X646335000Y947030000D01*
X633035000Y915505000D02*
X633035000Y947005000D01*
X646335000Y915505000D02*
X633035000Y915505000D01*
X646335000Y947005000D02*
X646335000Y915505000D01*
X679520000Y900560000D02*
X679520000Y950560000D01*
X646720000Y900560000D02*
X679520000Y900560000D01*
X646720000Y950560000D02*
X646720000Y900560000D01*
X679520000Y950560000D02*
X646720000Y950560000D01*
D11*
X595965000Y962625238D02*
X597131666Y962625238D01*
X595965000Y960625238D01*
X597131666Y960625238D01*
X597798333Y960625238D02*
X597798333Y962625238D01*
X598381666Y961196666D01*
X598965000Y962625238D01*
X598965000Y960625238D01*
X599798333Y960625238D02*
X599798333Y962625238D01*
X600465000Y962625238D01*
X600631666Y962530000D01*
X600715000Y962434761D01*
X600798333Y962244285D01*
X600798333Y961958571D01*
X600715000Y961768095D01*
X600631666Y961672857D01*
X600465000Y961577619D01*
X599798333Y961577619D01*
X601298333Y962625238D02*
X602298333Y962625238D01*
X601798333Y960625238D02*
X601798333Y962625238D01*
X603798333Y960625238D02*
X602798333Y960625238D01*
X603298333Y960625238D02*
X603298333Y962625238D01*
X603131666Y962339523D01*
X602965000Y962149047D01*
X602798333Y962053809D01*
X604881666Y962625238D02*
X605048333Y962625238D01*
X605215000Y962530000D01*
X605298333Y962434761D01*
X605381666Y962244285D01*
X605465000Y961863333D01*
X605465000Y961387142D01*
X605381666Y961006190D01*
X605298333Y960815714D01*
X605215000Y960720476D01*
X605048333Y960625238D01*
X604881666Y960625238D01*
X604715000Y960720476D01*
X604631666Y960815714D01*
X604548333Y961006190D01*
X604465000Y961387142D01*
X604465000Y961863333D01*
X604548333Y962244285D01*
X604631666Y962434761D01*
X604715000Y962530000D01*
X604881666Y962625238D01*
X607131666Y960625238D02*
X606131666Y960625238D01*
X606631666Y960625238D02*
X606631666Y962625238D01*
X606465000Y962339523D01*
X606298333Y962149047D01*
X606131666Y962053809D01*
X608465000Y961672857D02*
X608715000Y961577619D01*
X608798333Y961482380D01*
X608881666Y961291904D01*
X608881666Y961006190D01*
X608798333Y960815714D01*
X608715000Y960720476D01*
X608548333Y960625238D01*
X607881666Y960625238D01*
X607881666Y962625238D01*
X608465000Y962625238D01*
X608631666Y962530000D01*
X608715000Y962434761D01*
X608798333Y962244285D01*
X608798333Y962053809D01*
X608715000Y961863333D01*
X608631666Y961768095D01*
X608465000Y961672857D01*
X607881666Y961672857D01*
D10*
X629535000Y950490000D02*
X629535000Y972490000D01*
X577535000Y950490000D02*
X629535000Y950490000D01*
D12*
X577535000Y972490000D02*
X577535000Y950490000D01*
D10*
X577535000Y972490000D02*
X629535000Y972490000D01*
X638600000Y909970000D02*
X641260000Y909970000D01*
X638600000Y912570000D02*
X638600000Y909970000D01*
X641260000Y912570000D02*
X641260000Y909970000D01*
X638600000Y912570000D02*
X641260000Y912570000D01*
X638600000Y913840000D02*
X638600000Y915170000D01*
X638600000Y915170000D02*
X639930000Y915170000D01*
X641520000Y960050000D02*
X632780000Y960050000D01*
X641520000Y960050000D02*
X641520000Y964290000D01*
X632780000Y964290000D02*
X632780000Y960050000D01*
X632780000Y964290000D02*
X641520000Y964290000D01*
X656400000Y960070000D02*
X647660000Y960070000D01*
X656400000Y960070000D02*
X656400000Y964310000D01*
X647660000Y964310000D02*
X647660000Y960070000D01*
X647660000Y964310000D02*
X656400000Y964310000D01*
X628510000Y956485000D02*
X628510000Y966645000D01*
X620890000Y956485000D02*
X628510000Y956485000D01*
X620890000Y966645000D02*
X620890000Y956485000D01*
X628510000Y966645000D02*
X620890000Y966645000D01*
X627240000Y966645000D02*
X627240000Y956485000D01*
X670760000Y910870000D02*
X670760000Y903250000D01*
X655520000Y910870000D02*
X655520000Y903250000D01*
X670760000Y909600000D02*
X655520000Y909600000D01*
X670760000Y903250000D02*
X655520000Y903250000D01*
X670760000Y910870000D02*
X655520000Y910870000D01*
X644790000Y946710000D02*
X634630000Y946710000D01*
X644790000Y939090000D02*
X644790000Y946710000D01*
X634630000Y939090000D02*
X644790000Y939090000D01*
X634630000Y946710000D02*
X634630000Y939090000D01*
X634630000Y945440000D02*
X644790000Y945440000D01*
X675560000Y946710000D02*
X675560000Y939090000D01*
X660320000Y946710000D02*
X660320000Y939090000D01*
X675560000Y945440000D02*
X660320000Y945440000D01*
X675560000Y939090000D02*
X660320000Y939090000D01*
X675560000Y946710000D02*
X660320000Y946710000D01*
X625875000Y900379000D02*
X625875000Y900535000D01*
X625875000Y902695000D02*
X625875000Y902851000D01*
X622642665Y900536392D02*
G75*
G03*
X625875000Y900379484I1672335J1078608D01*
G01*
X622642665Y902693608D02*
G75*
G02*
X625875000Y902850516I1672335J-1078608D01*
G01*
X623273870Y900535163D02*
G75*
G03*
X625355961Y900535000I1041130J1079837D01*
G01*
X623273870Y902694837D02*
G75*
G02*
X625355961Y902695000I1041130J-1079837D01*
G01*
X607879999Y903545001D02*
X605219999Y903545001D01*
X607879999Y903545001D02*
X607879999Y939165001D01*
X607879999Y939165001D02*
X605219999Y939165001D01*
X605219999Y903545001D02*
X605219999Y939165001D01*
X605219999Y900945001D02*
X605219999Y902275001D01*
X606549999Y900945001D02*
X605219999Y900945001D01*
X578680000Y901020000D02*
X577350000Y901020000D01*
X577350000Y901020000D02*
X577350000Y902350000D01*
X577350000Y903620000D02*
X577350000Y939240000D01*
X580010000Y939240000D02*
X577350000Y939240000D01*
X580010000Y903620000D02*
X580010000Y939240000D01*
X580010000Y903620000D02*
X577350000Y903620000D01*
D14*
X666000000Y950672000D02*
G75*
G03*
X666000000Y950672000I-100000J0D01*
G01*
D15*
X679108000Y981558000D02*
X679108000Y951322000D01*
X661328000Y981558000D02*
X661328000Y951322000D01*
X661328000Y981558000D02*
X679108000Y981558000D01*
X679108000Y951322000D02*
X661328000Y951322000D01*
D10*
X633240000Y903400000D02*
X633240000Y906060000D01*
X633240000Y903400000D02*
X646000000Y903400000D01*
X646000000Y903400000D02*
X646000000Y906060000D01*
X633240000Y906060000D02*
X646000000Y906060000D01*
X630640000Y906060000D02*
X631970000Y906060000D01*
X630640000Y904730000D02*
X630640000Y906060000D01*
X643790000Y919860000D02*
X643790000Y918530000D01*
X642460000Y919860000D02*
X643790000Y919860000D01*
X641190000Y919860000D02*
X641190000Y917200000D01*
X641190000Y917200000D02*
X636050000Y917200000D01*
X641190000Y919860000D02*
X636050000Y919860000D01*
X636050000Y919860000D02*
X636050000Y917200000D01*
X581455000Y955345000D02*
X580125000Y955345000D01*
X581455000Y956675000D02*
X581455000Y955345000D01*
X581455000Y957945000D02*
X578795000Y957945000D01*
X578795000Y957945000D02*
X578795000Y965625000D01*
X581455000Y957945000D02*
X581455000Y965625000D01*
X581455000Y965625000D02*
X578795000Y965625000D01*
X632225000Y946950000D02*
X612025000Y946950000D01*
X612025000Y946950000D02*
X612025000Y912750000D01*
X612025000Y912750000D02*
X632225000Y912750000D01*
X632225000Y912750000D02*
X632225000Y946950000D01*
X625625000Y947340000D02*
X623615000Y947340000D01*
X613832936Y903025000D02*
X616887064Y903025000D01*
X613832936Y900305000D02*
X616887064Y900305000D01*
D12*
X644316666Y983177619D02*
X643983333Y983653809D01*
X643745238Y983177619D02*
X643745238Y984177619D01*
X644126190Y984177619D01*
X644221428Y984130000D01*
X644269047Y984082380D01*
X644316666Y983987142D01*
X644316666Y983844285D01*
X644269047Y983749047D01*
X644221428Y983701428D01*
X644126190Y983653809D01*
X643745238Y983653809D01*
X644745238Y983701428D02*
X645078571Y983701428D01*
X645221428Y983177619D02*
X644745238Y983177619D01*
X644745238Y984177619D01*
X645221428Y984177619D01*
X645983333Y983701428D02*
X645650000Y983701428D01*
X645650000Y983177619D02*
X645650000Y984177619D01*
X646126190Y984177619D01*
X646650000Y984177619D02*
X646650000Y983939523D01*
X646411904Y984034761D02*
X646650000Y983939523D01*
X646888095Y984034761D01*
X646507142Y983749047D02*
X646650000Y983939523D01*
X646792857Y983749047D01*
X647411904Y984177619D02*
X647411904Y983939523D01*
X647173809Y984034761D02*
X647411904Y983939523D01*
X647650000Y984034761D01*
X647269047Y983749047D02*
X647411904Y983939523D01*
X647554761Y983749047D01*
X639096666Y916717619D02*
X639096666Y916003333D01*
X639049047Y915860476D01*
X638953809Y915765238D01*
X638810952Y915717619D01*
X638715714Y915717619D01*
X639572857Y915717619D02*
X639572857Y916717619D01*
X639953809Y916717619D01*
X640049047Y916670000D01*
X640096666Y916622380D01*
X640144285Y916527142D01*
X640144285Y916384285D01*
X640096666Y916289047D01*
X640049047Y916241428D01*
X639953809Y916193809D01*
X639572857Y916193809D01*
X641096666Y915717619D02*
X640525238Y915717619D01*
X640810952Y915717619D02*
X640810952Y916717619D01*
X640715714Y916574761D01*
X640620476Y916479523D01*
X640525238Y916431904D01*
X636926666Y965191428D02*
X636593333Y965191428D01*
X636593333Y964667619D02*
X636593333Y965667619D01*
X637069523Y965667619D01*
X637402857Y965572380D02*
X637450476Y965620000D01*
X637545714Y965667619D01*
X637783809Y965667619D01*
X637879047Y965620000D01*
X637926666Y965572380D01*
X637974285Y965477142D01*
X637974285Y965381904D01*
X637926666Y965239047D01*
X637355238Y964667619D01*
X637974285Y964667619D01*
X651806666Y965211428D02*
X651473333Y965211428D01*
X651473333Y964687619D02*
X651473333Y965687619D01*
X651949523Y965687619D01*
X652854285Y964687619D02*
X652282857Y964687619D01*
X652568571Y964687619D02*
X652568571Y965687619D01*
X652473333Y965544761D01*
X652378095Y965449523D01*
X652282857Y965401904D01*
X619072380Y961231666D02*
X619786666Y961231666D01*
X619929523Y961184047D01*
X620024761Y961088809D01*
X620072380Y960945952D01*
X620072380Y960850714D01*
X620072380Y961755476D02*
X620072380Y961945952D01*
X620024761Y962041190D01*
X619977142Y962088809D01*
X619834285Y962184047D01*
X619643809Y962231666D01*
X619262857Y962231666D01*
X619167619Y962184047D01*
X619120000Y962136428D01*
X619072380Y962041190D01*
X619072380Y961850714D01*
X619120000Y961755476D01*
X619167619Y961707857D01*
X619262857Y961660238D01*
X619500952Y961660238D01*
X619596190Y961707857D01*
X619643809Y961755476D01*
X619691428Y961850714D01*
X619691428Y962041190D01*
X619643809Y962136428D01*
X619596190Y962184047D01*
X619500952Y962231666D01*
X662836666Y902957619D02*
X662836666Y902243333D01*
X662789047Y902100476D01*
X662693809Y902005238D01*
X662550952Y901957619D01*
X662455714Y901957619D01*
X663217619Y902957619D02*
X663884285Y902957619D01*
X663455714Y901957619D01*
X639376666Y938367619D02*
X639376666Y937653333D01*
X639329047Y937510476D01*
X639233809Y937415238D01*
X639090952Y937367619D01*
X638995714Y937367619D01*
X639995714Y937939047D02*
X639900476Y937986666D01*
X639852857Y938034285D01*
X639805238Y938129523D01*
X639805238Y938177142D01*
X639852857Y938272380D01*
X639900476Y938320000D01*
X639995714Y938367619D01*
X640186190Y938367619D01*
X640281428Y938320000D01*
X640329047Y938272380D01*
X640376666Y938177142D01*
X640376666Y938129523D01*
X640329047Y938034285D01*
X640281428Y937986666D01*
X640186190Y937939047D01*
X639995714Y937939047D01*
X639900476Y937891428D01*
X639852857Y937843809D01*
X639805238Y937748571D01*
X639805238Y937558095D01*
X639852857Y937462857D01*
X639900476Y937415238D01*
X639995714Y937367619D01*
X640186190Y937367619D01*
X640281428Y937415238D01*
X640329047Y937462857D01*
X640376666Y937558095D01*
X640376666Y937748571D01*
X640329047Y937843809D01*
X640281428Y937891428D01*
X640186190Y937939047D01*
X667636666Y938797619D02*
X667636666Y938083333D01*
X667589047Y937940476D01*
X667493809Y937845238D01*
X667350952Y937797619D01*
X667255714Y937797619D01*
X668541428Y938797619D02*
X668350952Y938797619D01*
X668255714Y938750000D01*
X668208095Y938702380D01*
X668112857Y938559523D01*
X668065238Y938369047D01*
X668065238Y937988095D01*
X668112857Y937892857D01*
X668160476Y937845238D01*
X668255714Y937797619D01*
X668446190Y937797619D01*
X668541428Y937845238D01*
X668589047Y937892857D01*
X668636666Y937988095D01*
X668636666Y938226190D01*
X668589047Y938321428D01*
X668541428Y938369047D01*
X668446190Y938416666D01*
X668255714Y938416666D01*
X668160476Y938369047D01*
X668112857Y938321428D01*
X668065238Y938226190D01*
X627291904Y901227619D02*
X627291904Y902227619D01*
X627530000Y902227619D01*
X627672857Y902180000D01*
X627768095Y902084761D01*
X627815714Y901989523D01*
X627863333Y901799047D01*
X627863333Y901656190D01*
X627815714Y901465714D01*
X627768095Y901370476D01*
X627672857Y901275238D01*
X627530000Y901227619D01*
X627291904Y901227619D01*
X628815714Y901227619D02*
X628244285Y901227619D01*
X628530000Y901227619D02*
X628530000Y902227619D01*
X628434761Y902084761D01*
X628339523Y901989523D01*
X628244285Y901941904D01*
X606216665Y900052620D02*
X606216665Y899338334D01*
X606169046Y899195477D01*
X606073808Y899100239D01*
X605930951Y899052620D01*
X605835713Y899052620D01*
X607216665Y899052620D02*
X606645237Y899052620D01*
X606930951Y899052620D02*
X606930951Y900052620D01*
X606835713Y899909762D01*
X606740475Y899814524D01*
X606645237Y899766905D01*
X578346666Y900127619D02*
X578346666Y899413333D01*
X578299047Y899270476D01*
X578203809Y899175238D01*
X578060952Y899127619D01*
X577965714Y899127619D01*
X578775238Y900032380D02*
X578822857Y900080000D01*
X578918095Y900127619D01*
X579156190Y900127619D01*
X579251428Y900080000D01*
X579299047Y900032380D01*
X579346666Y899937142D01*
X579346666Y899841904D01*
X579299047Y899699047D01*
X578727619Y899127619D01*
X579346666Y899127619D01*
X665322380Y983546666D02*
X666036666Y983546666D01*
X666179523Y983499047D01*
X666274761Y983403809D01*
X666322380Y983260952D01*
X666322380Y983165714D01*
X665322380Y983927619D02*
X665322380Y984546666D01*
X665703333Y984213333D01*
X665703333Y984356190D01*
X665750952Y984451428D01*
X665798571Y984499047D01*
X665893809Y984546666D01*
X666131904Y984546666D01*
X666227142Y984499047D01*
X666274761Y984451428D01*
X666322380Y984356190D01*
X666322380Y984070476D01*
X666274761Y983975238D01*
X666227142Y983927619D01*
X628652380Y904396666D02*
X629366666Y904396666D01*
X629509523Y904349047D01*
X629604761Y904253809D01*
X629652380Y904110952D01*
X629652380Y904015714D01*
X628652380Y905349047D02*
X628652380Y904872857D01*
X629128571Y904825238D01*
X629080952Y904872857D01*
X629033333Y904968095D01*
X629033333Y905206190D01*
X629080952Y905301428D01*
X629128571Y905349047D01*
X629223809Y905396666D01*
X629461904Y905396666D01*
X629557142Y905349047D01*
X629604761Y905301428D01*
X629652380Y905206190D01*
X629652380Y904968095D01*
X629604761Y904872857D01*
X629557142Y904825238D01*
X644242380Y917720476D02*
X644956666Y917720476D01*
X645099523Y917672857D01*
X645194761Y917577619D01*
X645242380Y917434761D01*
X645242380Y917339523D01*
X645242380Y918720476D02*
X645242380Y918149047D01*
X645242380Y918434761D02*
X644242380Y918434761D01*
X644385238Y918339523D01*
X644480476Y918244285D01*
X644528095Y918149047D01*
X644242380Y919339523D02*
X644242380Y919434761D01*
X644290000Y919530000D01*
X644337619Y919577619D01*
X644432857Y919625238D01*
X644623333Y919672857D01*
X644861428Y919672857D01*
X645051904Y919625238D01*
X645147142Y919577619D01*
X645194761Y919530000D01*
X645242380Y919434761D01*
X645242380Y919339523D01*
X645194761Y919244285D01*
X645147142Y919196666D01*
X645051904Y919149047D01*
X644861428Y919101428D01*
X644623333Y919101428D01*
X644432857Y919149047D01*
X644337619Y919196666D01*
X644290000Y919244285D01*
X644242380Y919339523D01*
X579315476Y954892619D02*
X579315476Y954178333D01*
X579267857Y954035476D01*
X579172619Y953940238D01*
X579029761Y953892619D01*
X578934523Y953892619D01*
X580315476Y953892619D02*
X579744047Y953892619D01*
X580029761Y953892619D02*
X580029761Y954892619D01*
X579934523Y954749761D01*
X579839285Y954654523D01*
X579744047Y954606904D01*
X581267857Y953892619D02*
X580696428Y953892619D01*
X580982142Y953892619D02*
X580982142Y954892619D01*
X580886904Y954749761D01*
X580791666Y954654523D01*
X580696428Y954606904D01*
X623960714Y948037619D02*
X623960714Y949037619D01*
X624341666Y949037619D01*
X624436904Y948990000D01*
X624484523Y948942380D01*
X624532142Y948847142D01*
X624532142Y948704285D01*
X624484523Y948609047D01*
X624436904Y948561428D01*
X624341666Y948513809D01*
X623960714Y948513809D01*
X624913095Y948085238D02*
X625055952Y948037619D01*
X625294047Y948037619D01*
X625389285Y948085238D01*
X625436904Y948132857D01*
X625484523Y948228095D01*
X625484523Y948323333D01*
X625436904Y948418571D01*
X625389285Y948466190D01*
X625294047Y948513809D01*
X625103571Y948561428D01*
X625008333Y948609047D01*
X624960714Y948656666D01*
X624913095Y948751904D01*
X624913095Y948847142D01*
X624960714Y948942380D01*
X625008333Y948990000D01*
X625103571Y949037619D01*
X625341666Y949037619D01*
X625484523Y948990000D01*
X626436904Y948037619D02*
X625865476Y948037619D01*
X626151190Y948037619D02*
X626151190Y949037619D01*
X626055952Y948894761D01*
X625960714Y948799523D01*
X625865476Y948751904D01*
X615193333Y903492619D02*
X614860000Y903968809D01*
X614621904Y903492619D02*
X614621904Y904492619D01*
X615002857Y904492619D01*
X615098095Y904445000D01*
X615145714Y904397380D01*
X615193333Y904302142D01*
X615193333Y904159285D01*
X615145714Y904064047D01*
X615098095Y904016428D01*
X615002857Y903968809D01*
X614621904Y903968809D01*
X616145714Y903492619D02*
X615574285Y903492619D01*
X615860000Y903492619D02*
X615860000Y904492619D01*
X615764761Y904349761D01*
X615669523Y904254523D01*
X615574285Y904206904D01*
X613476666Y910627619D02*
X613476666Y909913333D01*
X613429047Y909770476D01*
X613333809Y909675238D01*
X613190952Y909627619D01*
X613095714Y909627619D01*
X614381428Y910294285D02*
X614381428Y909627619D01*
X614143333Y910675238D02*
X613905238Y909960952D01*
X614524285Y909960952D01*
%LPC*%
D16*
X639930000Y911300000D03*
G36*
G01*
X639030000Y912990000D02*
X639030000Y914690000D01*
G75*
G02*
X639080000Y914740000I50000J0D01*
G01*
X640780000Y914740000D01*
G75*
G02*
X640830000Y914690000I0J-50000D01*
G01*
X640830000Y912990000D01*
G75*
G02*
X640780000Y912940000I-50000J0D01*
G01*
X639080000Y912940000D01*
G75*
G02*
X639030000Y912990000I0J50000D01*
G01*
G37*
D17*
X639690000Y962160000D03*
X634610000Y962170000D03*
X654570000Y962180000D03*
X649490000Y962190000D03*
G36*
G01*
X626200000Y957475000D02*
X623200000Y957475000D01*
G75*
G02*
X623150000Y957525000I0J50000D01*
G01*
X623150000Y960525000D01*
G75*
G02*
X623200000Y960575000I50000J0D01*
G01*
X626200000Y960575000D01*
G75*
G02*
X626250000Y960525000I0J-50000D01*
G01*
X626250000Y957525000D01*
G75*
G02*
X626200000Y957475000I-50000J0D01*
G01*
G37*
D18*
X624700000Y964105000D03*
X658060000Y907060000D03*
X663140000Y907060000D03*
G36*
G01*
X669770000Y908560000D02*
X669770000Y905560000D01*
G75*
G02*
X669720000Y905510000I-50000J0D01*
G01*
X666720000Y905510000D01*
G75*
G02*
X666670000Y905560000I0J50000D01*
G01*
X666670000Y908560000D01*
G75*
G02*
X666720000Y908610000I50000J0D01*
G01*
X669720000Y908610000D01*
G75*
G02*
X669770000Y908560000I0J-50000D01*
G01*
G37*
G36*
G01*
X643800000Y944400000D02*
X643800000Y941400000D01*
G75*
G02*
X643750000Y941350000I-50000J0D01*
G01*
X640750000Y941350000D01*
G75*
G02*
X640700000Y941400000I0J50000D01*
G01*
X640700000Y944400000D01*
G75*
G02*
X640750000Y944450000I50000J0D01*
G01*
X643750000Y944450000D01*
G75*
G02*
X643800000Y944400000I0J-50000D01*
G01*
G37*
X637170000Y942900000D03*
X662860000Y942900000D03*
X667940000Y942900000D03*
G36*
G01*
X674570000Y944400000D02*
X674570000Y941400000D01*
G75*
G02*
X674520000Y941350000I-50000J0D01*
G01*
X671520000Y941350000D01*
G75*
G02*
X671470000Y941400000I0J50000D01*
G01*
X671470000Y944400000D01*
G75*
G02*
X671520000Y944450000I50000J0D01*
G01*
X674520000Y944450000D01*
G75*
G02*
X674570000Y944400000I0J-50000D01*
G01*
G37*
G36*
G01*
X626535000Y902515000D02*
X626535000Y900715000D01*
G75*
G02*
X626485000Y900665000I-50000J0D01*
G01*
X624685000Y900665000D01*
G75*
G02*
X624635000Y900715000I0J50000D01*
G01*
X624635000Y902515000D01*
G75*
G02*
X624685000Y902565000I50000J0D01*
G01*
X626485000Y902565000D01*
G75*
G02*
X626535000Y902515000I0J-50000D01*
G01*
G37*
D19*
X623045000Y901615000D03*
G36*
G01*
X607449999Y903125001D02*
X607449999Y901425001D01*
G75*
G02*
X607399999Y901375001I-50000J0D01*
G01*
X605699999Y901375001D01*
G75*
G02*
X605649999Y901425001I0J50000D01*
G01*
X605649999Y903125001D01*
G75*
G02*
X605699999Y903175001I50000J0D01*
G01*
X607399999Y903175001D01*
G75*
G02*
X607449999Y903125001I0J-50000D01*
G01*
G37*
D16*
X606549999Y904815001D03*
X606549999Y907355001D03*
X606549999Y909895001D03*
X606549999Y912435001D03*
X606549999Y914975001D03*
X606549999Y917515001D03*
X606549999Y920055001D03*
X606549999Y922595001D03*
X606549999Y925135001D03*
X606549999Y927675001D03*
X606549999Y930215001D03*
X606549999Y932755001D03*
X606549999Y935295001D03*
X606549999Y937835001D03*
X578680000Y937910000D03*
X578680000Y935370000D03*
X578680000Y932830000D03*
X578680000Y930290000D03*
X578680000Y927750000D03*
X578680000Y925210000D03*
X578680000Y922670000D03*
X578680000Y920130000D03*
X578680000Y917590000D03*
X578680000Y915050000D03*
X578680000Y912510000D03*
X578680000Y909970000D03*
X578680000Y907430000D03*
X578680000Y904890000D03*
G36*
G01*
X579580000Y903200000D02*
X579580000Y901500000D01*
G75*
G02*
X579530000Y901450000I-50000J0D01*
G01*
X577830000Y901450000D01*
G75*
G02*
X577780000Y901500000I0J50000D01*
G01*
X577780000Y903200000D01*
G75*
G02*
X577830000Y903250000I50000J0D01*
G01*
X579530000Y903250000D01*
G75*
G02*
X579580000Y903200000I0J-50000D01*
G01*
G37*
D18*
X665900000Y975970000D03*
X665900000Y966440000D03*
G36*
G01*
X667400000Y955360000D02*
X664400000Y955360000D01*
G75*
G02*
X664350000Y955410000I0J50000D01*
G01*
X664350000Y958410000D01*
G75*
G02*
X664400000Y958460000I50000J0D01*
G01*
X667400000Y958460000D01*
G75*
G02*
X667450000Y958410000I0J-50000D01*
G01*
X667450000Y955410000D01*
G75*
G02*
X667400000Y955360000I-50000J0D01*
G01*
G37*
G36*
G01*
X632820000Y903830000D02*
X631120000Y903830000D01*
G75*
G02*
X631070000Y903880000I0J50000D01*
G01*
X631070000Y905580000D01*
G75*
G02*
X631120000Y905630000I50000J0D01*
G01*
X632820000Y905630000D01*
G75*
G02*
X632870000Y905580000I0J-50000D01*
G01*
X632870000Y903880000D01*
G75*
G02*
X632820000Y903830000I-50000J0D01*
G01*
G37*
D16*
X634510000Y904730000D03*
X637050000Y904730000D03*
X639590000Y904730000D03*
X642130000Y904730000D03*
X644670000Y904730000D03*
X637380000Y918530000D03*
X639920000Y918530000D03*
G36*
G01*
X641610000Y919430000D02*
X643310000Y919430000D01*
G75*
G02*
X643360000Y919380000I0J-50000D01*
G01*
X643360000Y917680000D01*
G75*
G02*
X643310000Y917630000I-50000J0D01*
G01*
X641610000Y917630000D01*
G75*
G02*
X641560000Y917680000I0J50000D01*
G01*
X641560000Y919380000D01*
G75*
G02*
X641610000Y919430000I50000J0D01*
G01*
G37*
X580125000Y964295000D03*
X580125000Y961755000D03*
X580125000Y959215000D03*
G36*
G01*
X581025000Y957525000D02*
X581025000Y955825000D01*
G75*
G02*
X580975000Y955775000I-50000J0D01*
G01*
X579275000Y955775000D01*
G75*
G02*
X579225000Y955825000I0J50000D01*
G01*
X579225000Y957525000D01*
G75*
G02*
X579275000Y957575000I50000J0D01*
G01*
X580975000Y957575000D01*
G75*
G02*
X581025000Y957525000I0J-50000D01*
G01*
G37*
D20*
X629825000Y915150000D03*
G36*
G01*
X623125000Y946100000D02*
X626125000Y946100000D01*
G75*
G02*
X626175000Y946050000I0J-50000D01*
G01*
X626175000Y943050000D01*
G75*
G02*
X626125000Y943000000I-50000J0D01*
G01*
X623125000Y943000000D01*
G75*
G02*
X623075000Y943050000I0J50000D01*
G01*
X623075000Y946050000D01*
G75*
G02*
X623125000Y946100000I50000J0D01*
G01*
G37*
D18*
X619625000Y944550000D03*
D20*
X614425000Y915150000D03*
G36*
G01*
X612210000Y900557856D02*
X612210000Y902772144D01*
G75*
G02*
X612477856Y903040000I267856J0D01*
G01*
X613442144Y903040000D01*
G75*
G02*
X613710000Y902772144I0J-267856D01*
G01*
X613710000Y900557856D01*
G75*
G02*
X613442144Y900290000I-267856J0D01*
G01*
X612477856Y900290000D01*
G75*
G02*
X612210000Y900557856I0J267856D01*
G01*
G37*
G36*
G01*
X617010000Y900557856D02*
X617010000Y902772144D01*
G75*
G02*
X617277856Y903040000I267856J0D01*
G01*
X618242144Y903040000D01*
G75*
G02*
X618510000Y902772144I0J-267856D01*
G01*
X618510000Y900557856D01*
G75*
G02*
X618242144Y900290000I-267856J0D01*
G01*
X617277856Y900290000D01*
G75*
G02*
X617010000Y900557856I0J267856D01*
G01*
G37*
D21*
X627060000Y910170000D03*
X622260000Y910170000D03*
G36*
G01*
X616135000Y909104802D02*
X616135000Y911235198D01*
G75*
G02*
X616394802Y911495000I259802J0D01*
G01*
X618525198Y911495000D01*
G75*
G02*
X618785000Y911235198I0J-259802D01*
G01*
X618785000Y909104802D01*
G75*
G02*
X618525198Y908845000I-259802J0D01*
G01*
X616394802Y908845000D01*
G75*
G02*
X616135000Y909104802I0J259802D01*
G01*
G37*
M02*
