%FSLAX45Y45*%
G04 Gerber Fmt 4.5, Leading zero omitted, Abs format (unit mm)*
G04 Created by KiCad (PCBNEW (5.1.12)-1) date 2022-02-21 20:11:02*
%MOMM*%
%LPD*%
G01*
G04 APERTURE LIST*
%TA.AperFunction,Profile*%
%ADD10C,0.050000*%
%TD*%
%ADD11C,0.200000*%
%ADD12C,0.300000*%
G04 APERTURE END LIST*
D10*
X57658000Y89885000D02*
X57658000Y98193000D01*
X57658000Y98193000D02*
X67976000Y98193000D01*
X67976000Y89885000D02*
X67976000Y98193000D01*
X57658000Y89885000D02*
X67976000Y89885000D01*
D11*
D12*
X57941928Y89416786D02*
X57941928Y89716786D01*
X58013357Y89716786D01*
X58056214Y89702500D01*
X58084786Y89673928D01*
X58099071Y89645357D01*
X58113357Y89588214D01*
X58113357Y89545357D01*
X58099071Y89488214D01*
X58084786Y89459643D01*
X58056214Y89431071D01*
X58013357Y89416786D01*
X57941928Y89416786D01*
X58241928Y89416786D02*
X58241928Y89616786D01*
X58241928Y89559643D02*
X58256214Y89588214D01*
X58270500Y89602500D01*
X58299071Y89616786D01*
X58327643Y89616786D01*
X58427643Y89416786D02*
X58427643Y89616786D01*
X58427643Y89716786D02*
X58413357Y89702500D01*
X58427643Y89688214D01*
X58441928Y89702500D01*
X58427643Y89716786D01*
X58427643Y89688214D01*
X58613357Y89416786D02*
X58584786Y89431071D01*
X58570500Y89459643D01*
X58570500Y89716786D01*
X58770500Y89416786D02*
X58741928Y89431071D01*
X58727643Y89459643D01*
X58727643Y89716786D01*
X59113357Y89416786D02*
X59113357Y89716786D01*
X59213357Y89502500D01*
X59313357Y89716786D01*
X59313357Y89416786D01*
X59584786Y89416786D02*
X59584786Y89573928D01*
X59570500Y89602500D01*
X59541928Y89616786D01*
X59484786Y89616786D01*
X59456214Y89602500D01*
X59584786Y89431071D02*
X59556214Y89416786D01*
X59484786Y89416786D01*
X59456214Y89431071D01*
X59441928Y89459643D01*
X59441928Y89488214D01*
X59456214Y89516786D01*
X59484786Y89531071D01*
X59556214Y89531071D01*
X59584786Y89545357D01*
X59727643Y89616786D02*
X59727643Y89316786D01*
X59727643Y89602500D02*
X59756214Y89616786D01*
X59813357Y89616786D01*
X59841928Y89602500D01*
X59856214Y89588214D01*
X59870500Y89559643D01*
X59870500Y89473928D01*
X59856214Y89445357D01*
X59841928Y89431071D01*
X59813357Y89416786D01*
X59756214Y89416786D01*
X59727643Y89431071D01*
X59999071Y89445357D02*
X60013357Y89431071D01*
X59999071Y89416786D01*
X59984786Y89431071D01*
X59999071Y89445357D01*
X59999071Y89416786D01*
X59999071Y89602500D02*
X60013357Y89588214D01*
X59999071Y89573928D01*
X59984786Y89588214D01*
X59999071Y89602500D01*
X59999071Y89573928D01*
M02*
