G04 #@! TF.GenerationSoftware,KiCad,Pcbnew,5.1.12-84ad8e8a86~92~ubuntu18.04.1*
G04 #@! TF.CreationDate,2022-02-22T10:12:46-04:00*
G04 #@! TF.ProjectId,OMC_WIFI_PCB,4f4d435f-5749-4464-995f-5043422e6b69,rev?*
G04 #@! TF.SameCoordinates,Original*
G04 #@! TF.FileFunction,Copper,L1,Top*
G04 #@! TF.FilePolarity,Positive*
%FSLAX46Y46*%
G04 Gerber Fmt 4.6, Leading zero omitted, Abs format (unit mm)*
G04 Created by KiCad (PCBNEW 5.1.12-84ad8e8a86~92~ubuntu18.04.1) date 2022-02-22 10:12:46*
%MOMM*%
%LPD*%
G01*
G04 APERTURE LIST*
G04 #@! TA.AperFunction,NonConductor*
%ADD10C,0.800000*%
G04 #@! TD*
G04 #@! TA.AperFunction,EtchedComponent*
%ADD11C,0.381000*%
G04 #@! TD*
G04 #@! TA.AperFunction,ComponentPad*
%ADD12R,1.700000X1.700000*%
G04 #@! TD*
G04 #@! TA.AperFunction,ComponentPad*
%ADD13O,1.700000X1.700000*%
G04 #@! TD*
G04 #@! TA.AperFunction,ComponentPad*
%ADD14C,2.000000*%
G04 #@! TD*
G04 #@! TA.AperFunction,ComponentPad*
%ADD15R,3.000000X3.000000*%
G04 #@! TD*
G04 #@! TA.AperFunction,ComponentPad*
%ADD16C,3.000000*%
G04 #@! TD*
G04 #@! TA.AperFunction,ComponentPad*
%ADD17R,1.800000X1.800000*%
G04 #@! TD*
G04 #@! TA.AperFunction,ComponentPad*
%ADD18C,1.800000*%
G04 #@! TD*
G04 #@! TA.AperFunction,ComponentPad*
%ADD19C,2.300000*%
G04 #@! TD*
G04 #@! TA.AperFunction,ComponentPad*
%ADD20C,2.550000*%
G04 #@! TD*
G04 #@! TA.AperFunction,Conductor*
%ADD21C,0.300000*%
G04 #@! TD*
G04 #@! TA.AperFunction,Conductor*
%ADD22C,0.254000*%
G04 #@! TD*
G04 #@! TA.AperFunction,Conductor*
%ADD23C,0.100000*%
G04 #@! TD*
G04 APERTURE END LIST*
D10*
X631086190Y957780476D02*
X632038571Y953780476D01*
X632800476Y956637619D01*
X633562380Y953780476D01*
X634514761Y957780476D01*
X635848095Y954923333D02*
X637752857Y954923333D01*
X635467142Y953780476D02*
X636800476Y957780476D01*
X638133809Y953780476D01*
X641752857Y953780476D02*
X640419523Y955685238D01*
X639467142Y953780476D02*
X639467142Y957780476D01*
X640990952Y957780476D01*
X641371904Y957590000D01*
X641562380Y957399523D01*
X641752857Y957018571D01*
X641752857Y956447142D01*
X641562380Y956066190D01*
X641371904Y955875714D01*
X640990952Y955685238D01*
X639467142Y955685238D01*
X643467142Y953780476D02*
X643467142Y957780476D01*
X645752857Y953780476D01*
X645752857Y957780476D01*
X647657619Y953780476D02*
X647657619Y957780476D01*
X649562380Y953780476D02*
X649562380Y957780476D01*
X651848095Y953780476D01*
X651848095Y957780476D01*
X655848095Y957590000D02*
X655467142Y957780476D01*
X654895714Y957780476D01*
X654324285Y957590000D01*
X653943333Y957209047D01*
X653752857Y956828095D01*
X653562380Y956066190D01*
X653562380Y955494761D01*
X653752857Y954732857D01*
X653943333Y954351904D01*
X654324285Y953970952D01*
X654895714Y953780476D01*
X655276666Y953780476D01*
X655848095Y953970952D01*
X656038571Y954161428D01*
X656038571Y955494761D01*
X655276666Y955494761D01*
X657752857Y954161428D02*
X657943333Y953970952D01*
X657752857Y953780476D01*
X657562380Y953970952D01*
X657752857Y954161428D01*
X657752857Y953780476D01*
X657752857Y955304285D02*
X657562380Y957590000D01*
X657752857Y957780476D01*
X657943333Y957590000D01*
X657752857Y955304285D01*
X657752857Y957780476D01*
D11*
X644422160Y973260360D02*
X645621040Y976359160D01*
X645621040Y976359160D02*
X645021600Y975960380D01*
X644020840Y975259340D02*
X645321320Y978060960D01*
X644422160Y973260360D02*
X645021600Y973958860D01*
X644820940Y978259080D02*
X644020840Y975259340D01*
X644020840Y975259340D02*
X645219720Y976059440D01*
X645219720Y976059440D02*
X644422160Y973260360D01*
X644422160Y973260360D02*
X644320560Y974159520D01*
X644920000Y979651000D02*
X649619000Y972666000D01*
X649619000Y972666000D02*
X640221000Y972666000D01*
X640221000Y972666000D02*
X644920000Y979651000D01*
D12*
X631970000Y904730000D03*
D13*
X634510000Y904730000D03*
X637050000Y904730000D03*
X639590000Y904730000D03*
X642130000Y904730000D03*
X644670000Y904730000D03*
X639930000Y911300000D03*
D12*
X639930000Y913840000D03*
D14*
X639690000Y962160000D03*
X634610000Y962170000D03*
X654570000Y962180000D03*
X649490000Y962190000D03*
D15*
X624700000Y959025000D03*
D16*
X624700000Y964105000D03*
X657960000Y907010000D03*
X663040000Y907010000D03*
D15*
X668120000Y907010000D03*
X642250000Y942900000D03*
D16*
X637170000Y942900000D03*
X662860000Y943080000D03*
X667940000Y943080000D03*
D15*
X673020000Y943080000D03*
D17*
X625585000Y901615000D03*
D18*
X623045000Y901615000D03*
D12*
X606540000Y902300000D03*
D13*
X606540000Y904840000D03*
X606540000Y907380000D03*
X606540000Y909920000D03*
X606540000Y912460000D03*
X606540000Y915000000D03*
X606540000Y917540000D03*
X606540000Y920080000D03*
X606540000Y922620000D03*
X606540000Y925160000D03*
X606540000Y927700000D03*
X606540000Y930240000D03*
X606540000Y932780000D03*
X606540000Y935320000D03*
X606540000Y937860000D03*
D12*
X581140000Y902300000D03*
D13*
X581140000Y904840000D03*
X581140000Y907380000D03*
X581140000Y909920000D03*
X581140000Y912460000D03*
X581140000Y915000000D03*
X581140000Y917540000D03*
X581140000Y920080000D03*
X581140000Y922620000D03*
X581140000Y925160000D03*
X581140000Y927700000D03*
X581140000Y930240000D03*
X581140000Y932780000D03*
X581140000Y935320000D03*
X581140000Y937860000D03*
D16*
X665900000Y975970000D03*
X665900000Y966440000D03*
D15*
X665900000Y956910000D03*
D13*
X637320000Y918540000D03*
X639860000Y918540000D03*
D12*
X642400000Y918540000D03*
D13*
X580125000Y964295000D03*
X580125000Y961755000D03*
X580125000Y959215000D03*
D12*
X580125000Y956675000D03*
D19*
X629825000Y915150000D03*
D15*
X624625000Y944550000D03*
D16*
X619625000Y944550000D03*
D19*
X614425000Y915150000D03*
G04 #@! TA.AperFunction,SMDPad,CuDef*
G36*
G01*
X612260000Y900589999D02*
X612260000Y902740001D01*
G75*
G02*
X612509999Y902990000I249999J0D01*
G01*
X613410001Y902990000D01*
G75*
G02*
X613660000Y902740001I0J-249999D01*
G01*
X613660000Y900589999D01*
G75*
G02*
X613410001Y900340000I-249999J0D01*
G01*
X612509999Y900340000D01*
G75*
G02*
X612260000Y900589999I0J249999D01*
G01*
G37*
G04 #@! TD.AperFunction*
G04 #@! TA.AperFunction,SMDPad,CuDef*
G36*
G01*
X617060000Y900589999D02*
X617060000Y902740001D01*
G75*
G02*
X617309999Y902990000I249999J0D01*
G01*
X618210001Y902990000D01*
G75*
G02*
X618460000Y902740001I0J-249999D01*
G01*
X618460000Y900589999D01*
G75*
G02*
X618210001Y900340000I-249999J0D01*
G01*
X617309999Y900340000D01*
G75*
G02*
X617060000Y900589999I0J249999D01*
G01*
G37*
G04 #@! TD.AperFunction*
D20*
X627060000Y910170000D03*
X622260000Y910170000D03*
G04 #@! TA.AperFunction,ComponentPad*
G36*
G01*
X616185000Y909144999D02*
X616185000Y911195001D01*
G75*
G02*
X616434999Y911445000I249999J0D01*
G01*
X618485001Y911445000D01*
G75*
G02*
X618735000Y911195001I0J-249999D01*
G01*
X618735000Y909144999D01*
G75*
G02*
X618485001Y908895000I-249999J0D01*
G01*
X616434999Y908895000D01*
G75*
G02*
X616185000Y909144999I0J249999D01*
G01*
G37*
G04 #@! TD.AperFunction*
D21*
X622995000Y901665000D02*
X623045000Y901615000D01*
X617810000Y901615000D02*
X617760000Y901665000D01*
X623045000Y901615000D02*
X617810000Y901615000D01*
X587710000Y956675000D02*
X606549999Y937835001D01*
X580125000Y956675000D02*
X587710000Y956675000D01*
X622260000Y910170000D02*
X622260000Y922125000D01*
X621577500Y922807500D02*
X606549999Y937835001D01*
X622260000Y922125000D02*
X621577500Y922807500D01*
X625855000Y918530000D02*
X622260000Y922125000D01*
X637380000Y918530000D02*
X625855000Y918530000D01*
X637380000Y918530000D02*
X638910000Y920060000D01*
X638910000Y920060000D02*
X645060000Y920060000D01*
X645060000Y920060000D02*
X658060000Y907060000D01*
X614425000Y915150000D02*
X614425000Y911725000D01*
X615980000Y910170000D02*
X614425000Y911725000D01*
X617460000Y910170000D02*
X615980000Y910170000D01*
X578824999Y957914999D02*
X580125000Y959215000D01*
X578824999Y955464999D02*
X578824999Y957914999D01*
X584450000Y949839998D02*
X578824999Y955464999D01*
X584450000Y930070998D02*
X584450000Y949839998D01*
X606549999Y907970999D02*
X584450000Y930070998D01*
X606549999Y907355001D02*
X606549999Y907970999D01*
X627575001Y904815001D02*
X606549999Y904815001D01*
X634060000Y911300000D02*
X627575001Y904815001D01*
X639930000Y911300000D02*
X634060000Y911300000D01*
X612270000Y900975000D02*
X612960000Y901665000D01*
X582475000Y900965000D02*
X581140000Y902300000D01*
X612260000Y900965000D02*
X582475000Y900965000D01*
X612960000Y901665000D02*
X612260000Y900965000D01*
X639920000Y913850000D02*
X639930000Y913840000D01*
X639920000Y918530000D02*
X639920000Y913850000D01*
D22*
X615843000Y938600000D02*
X615845440Y938575224D01*
X615852667Y938551399D01*
X615864403Y938529443D01*
X615880197Y938510197D01*
X615899443Y938494403D01*
X615921399Y938482667D01*
X615945224Y938475440D01*
X615970000Y938473000D01*
X679100000Y938473000D01*
X679100000Y899510000D01*
X577240000Y899510000D01*
X577240000Y938006260D01*
X579655000Y938006260D01*
X579655000Y937713740D01*
X579712068Y937426842D01*
X579824010Y937156589D01*
X579986525Y936913368D01*
X580193368Y936706525D01*
X580375534Y936584805D01*
X580258645Y936515178D01*
X580042412Y936320269D01*
X579868359Y936086920D01*
X579743175Y935824099D01*
X579698524Y935676890D01*
X579819845Y935447000D01*
X581013000Y935447000D01*
X581013000Y935467000D01*
X581267000Y935467000D01*
X581267000Y935447000D01*
X582460155Y935447000D01*
X582581476Y935676890D01*
X582536825Y935824099D01*
X582411641Y936086920D01*
X582237588Y936320269D01*
X582021355Y936515178D01*
X581904466Y936584805D01*
X582086632Y936706525D01*
X582293475Y936913368D01*
X582455990Y937156589D01*
X582567932Y937426842D01*
X582625000Y937713740D01*
X582625000Y938006260D01*
X582567932Y938293158D01*
X582455990Y938563411D01*
X582293475Y938806632D01*
X582086632Y939013475D01*
X581843411Y939175990D01*
X581573158Y939287932D01*
X581286260Y939345000D01*
X580993740Y939345000D01*
X580706842Y939287932D01*
X580436589Y939175990D01*
X580193368Y939013475D01*
X579986525Y938806632D01*
X579824010Y938563411D01*
X579712068Y938293158D01*
X579655000Y938006260D01*
X577240000Y938006260D01*
X577240000Y957914999D01*
X578036202Y957914999D01*
X578040000Y957876436D01*
X578039999Y955503552D01*
X578036202Y955464999D01*
X578039999Y955426446D01*
X578039999Y955426439D01*
X578051358Y955311113D01*
X578096245Y955163140D01*
X578169137Y955026767D01*
X578267235Y954907235D01*
X578297189Y954882652D01*
X583665001Y949514840D01*
X583665000Y930109551D01*
X583661203Y930070998D01*
X583665000Y930032445D01*
X583665000Y930032438D01*
X583676359Y929917112D01*
X583721246Y929769139D01*
X583794138Y929632766D01*
X583892236Y929513234D01*
X583922190Y929488651D01*
X605265434Y908145406D01*
X605224010Y908083411D01*
X605112068Y907813158D01*
X605055000Y907526260D01*
X605055000Y907233740D01*
X605112068Y906946842D01*
X605224010Y906676589D01*
X605386525Y906433368D01*
X605593368Y906226525D01*
X605767760Y906110000D01*
X605593368Y905993475D01*
X605386525Y905786632D01*
X605224010Y905543411D01*
X605112068Y905273158D01*
X605055000Y904986260D01*
X605055000Y904693740D01*
X605112068Y904406842D01*
X605224010Y904136589D01*
X605386525Y903893368D01*
X605518380Y903761513D01*
X605445820Y903739502D01*
X605335506Y903680537D01*
X605238815Y903601185D01*
X605159463Y903504494D01*
X605100498Y903394180D01*
X605064188Y903274482D01*
X605051928Y903150000D01*
X605051928Y901750000D01*
X582800158Y901750000D01*
X582628072Y901922086D01*
X582628072Y903150000D01*
X582615812Y903274482D01*
X582579502Y903394180D01*
X582520537Y903504494D01*
X582441185Y903601185D01*
X582344494Y903680537D01*
X582234180Y903739502D01*
X582161620Y903761513D01*
X582293475Y903893368D01*
X582455990Y904136589D01*
X582567932Y904406842D01*
X582625000Y904693740D01*
X582625000Y904986260D01*
X582567932Y905273158D01*
X582455990Y905543411D01*
X582293475Y905786632D01*
X582086632Y905993475D01*
X581912240Y906110000D01*
X582086632Y906226525D01*
X582293475Y906433368D01*
X582455990Y906676589D01*
X582567932Y906946842D01*
X582625000Y907233740D01*
X582625000Y907526260D01*
X582567932Y907813158D01*
X582455990Y908083411D01*
X582293475Y908326632D01*
X582086632Y908533475D01*
X581912240Y908650000D01*
X582086632Y908766525D01*
X582293475Y908973368D01*
X582455990Y909216589D01*
X582567932Y909486842D01*
X582625000Y909773740D01*
X582625000Y910066260D01*
X582567932Y910353158D01*
X582455990Y910623411D01*
X582293475Y910866632D01*
X582086632Y911073475D01*
X581912240Y911190000D01*
X582086632Y911306525D01*
X582293475Y911513368D01*
X582455990Y911756589D01*
X582567932Y912026842D01*
X582625000Y912313740D01*
X582625000Y912606260D01*
X582567932Y912893158D01*
X582455990Y913163411D01*
X582293475Y913406632D01*
X582086632Y913613475D01*
X581912240Y913730000D01*
X582086632Y913846525D01*
X582293475Y914053368D01*
X582455990Y914296589D01*
X582567932Y914566842D01*
X582625000Y914853740D01*
X582625000Y915146260D01*
X582567932Y915433158D01*
X582455990Y915703411D01*
X582293475Y915946632D01*
X582086632Y916153475D01*
X581912240Y916270000D01*
X582086632Y916386525D01*
X582293475Y916593368D01*
X582455990Y916836589D01*
X582567932Y917106842D01*
X582625000Y917393740D01*
X582625000Y917686260D01*
X582567932Y917973158D01*
X582455990Y918243411D01*
X582293475Y918486632D01*
X582086632Y918693475D01*
X581912240Y918810000D01*
X582086632Y918926525D01*
X582293475Y919133368D01*
X582455990Y919376589D01*
X582567932Y919646842D01*
X582625000Y919933740D01*
X582625000Y920226260D01*
X582567932Y920513158D01*
X582455990Y920783411D01*
X582293475Y921026632D01*
X582086632Y921233475D01*
X581912240Y921350000D01*
X582086632Y921466525D01*
X582293475Y921673368D01*
X582455990Y921916589D01*
X582567932Y922186842D01*
X582625000Y922473740D01*
X582625000Y922766260D01*
X582567932Y923053158D01*
X582455990Y923323411D01*
X582293475Y923566632D01*
X582086632Y923773475D01*
X581912240Y923890000D01*
X582086632Y924006525D01*
X582293475Y924213368D01*
X582455990Y924456589D01*
X582567932Y924726842D01*
X582625000Y925013740D01*
X582625000Y925306260D01*
X582567932Y925593158D01*
X582455990Y925863411D01*
X582293475Y926106632D01*
X582086632Y926313475D01*
X581912240Y926430000D01*
X582086632Y926546525D01*
X582293475Y926753368D01*
X582455990Y926996589D01*
X582567932Y927266842D01*
X582625000Y927553740D01*
X582625000Y927846260D01*
X582567932Y928133158D01*
X582455990Y928403411D01*
X582293475Y928646632D01*
X582086632Y928853475D01*
X581912240Y928970000D01*
X582086632Y929086525D01*
X582293475Y929293368D01*
X582455990Y929536589D01*
X582567932Y929806842D01*
X582625000Y930093740D01*
X582625000Y930386260D01*
X582567932Y930673158D01*
X582455990Y930943411D01*
X582293475Y931186632D01*
X582086632Y931393475D01*
X581912240Y931510000D01*
X582086632Y931626525D01*
X582293475Y931833368D01*
X582455990Y932076589D01*
X582567932Y932346842D01*
X582625000Y932633740D01*
X582625000Y932926260D01*
X582567932Y933213158D01*
X582455990Y933483411D01*
X582293475Y933726632D01*
X582086632Y933933475D01*
X581904466Y934055195D01*
X582021355Y934124822D01*
X582237588Y934319731D01*
X582411641Y934553080D01*
X582536825Y934815901D01*
X582581476Y934963110D01*
X582460155Y935193000D01*
X581267000Y935193000D01*
X581267000Y935173000D01*
X581013000Y935173000D01*
X581013000Y935193000D01*
X579819845Y935193000D01*
X579698524Y934963110D01*
X579743175Y934815901D01*
X579868359Y934553080D01*
X580042412Y934319731D01*
X580258645Y934124822D01*
X580375534Y934055195D01*
X580193368Y933933475D01*
X579986525Y933726632D01*
X579824010Y933483411D01*
X579712068Y933213158D01*
X579655000Y932926260D01*
X579655000Y932633740D01*
X579712068Y932346842D01*
X579824010Y932076589D01*
X579986525Y931833368D01*
X580193368Y931626525D01*
X580367760Y931510000D01*
X580193368Y931393475D01*
X579986525Y931186632D01*
X579824010Y930943411D01*
X579712068Y930673158D01*
X579655000Y930386260D01*
X579655000Y930093740D01*
X579712068Y929806842D01*
X579824010Y929536589D01*
X579986525Y929293368D01*
X580193368Y929086525D01*
X580367760Y928970000D01*
X580193368Y928853475D01*
X579986525Y928646632D01*
X579824010Y928403411D01*
X579712068Y928133158D01*
X579655000Y927846260D01*
X579655000Y927553740D01*
X579712068Y927266842D01*
X579824010Y926996589D01*
X579986525Y926753368D01*
X580193368Y926546525D01*
X580367760Y926430000D01*
X580193368Y926313475D01*
X579986525Y926106632D01*
X579824010Y925863411D01*
X579712068Y925593158D01*
X579655000Y925306260D01*
X579655000Y925013740D01*
X579712068Y924726842D01*
X579824010Y924456589D01*
X579986525Y924213368D01*
X580193368Y924006525D01*
X580367760Y923890000D01*
X580193368Y923773475D01*
X579986525Y923566632D01*
X579824010Y923323411D01*
X579712068Y923053158D01*
X579655000Y922766260D01*
X579655000Y922473740D01*
X579712068Y922186842D01*
X579824010Y921916589D01*
X579986525Y921673368D01*
X580193368Y921466525D01*
X580367760Y921350000D01*
X580193368Y921233475D01*
X579986525Y921026632D01*
X579824010Y920783411D01*
X579712068Y920513158D01*
X579655000Y920226260D01*
X579655000Y919933740D01*
X579712068Y919646842D01*
X579824010Y919376589D01*
X579986525Y919133368D01*
X580193368Y918926525D01*
X580367760Y918810000D01*
X580193368Y918693475D01*
X579986525Y918486632D01*
X579824010Y918243411D01*
X579712068Y917973158D01*
X579655000Y917686260D01*
X579655000Y917393740D01*
X579712068Y917106842D01*
X579824010Y916836589D01*
X579986525Y916593368D01*
X580193368Y916386525D01*
X580367760Y916270000D01*
X580193368Y916153475D01*
X579986525Y915946632D01*
X579824010Y915703411D01*
X579712068Y915433158D01*
X579655000Y915146260D01*
X579655000Y914853740D01*
X579712068Y914566842D01*
X579824010Y914296589D01*
X579986525Y914053368D01*
X580193368Y913846525D01*
X580367760Y913730000D01*
X580193368Y913613475D01*
X579986525Y913406632D01*
X579824010Y913163411D01*
X579712068Y912893158D01*
X579655000Y912606260D01*
X579655000Y912313740D01*
X579712068Y912026842D01*
X579824010Y911756589D01*
X579986525Y911513368D01*
X580193368Y911306525D01*
X580367760Y911190000D01*
X580193368Y911073475D01*
X579986525Y910866632D01*
X579824010Y910623411D01*
X579712068Y910353158D01*
X579655000Y910066260D01*
X579655000Y909773740D01*
X579712068Y909486842D01*
X579824010Y909216589D01*
X579986525Y908973368D01*
X580193368Y908766525D01*
X580367760Y908650000D01*
X580193368Y908533475D01*
X579986525Y908326632D01*
X579824010Y908083411D01*
X579712068Y907813158D01*
X579655000Y907526260D01*
X579655000Y907233740D01*
X579712068Y906946842D01*
X579824010Y906676589D01*
X579986525Y906433368D01*
X580193368Y906226525D01*
X580367760Y906110000D01*
X580193368Y905993475D01*
X579986525Y905786632D01*
X579824010Y905543411D01*
X579712068Y905273158D01*
X579655000Y904986260D01*
X579655000Y904693740D01*
X579712068Y904406842D01*
X579824010Y904136589D01*
X579986525Y903893368D01*
X580118380Y903761513D01*
X580045820Y903739502D01*
X579935506Y903680537D01*
X579838815Y903601185D01*
X579759463Y903504494D01*
X579700498Y903394180D01*
X579664188Y903274482D01*
X579651928Y903150000D01*
X579651928Y901450000D01*
X579664188Y901325518D01*
X579700498Y901205820D01*
X579759463Y901095506D01*
X579838815Y900998815D01*
X579935506Y900919463D01*
X580045820Y900860498D01*
X580165518Y900824188D01*
X580290000Y900811928D01*
X581517914Y900811928D01*
X581892658Y900437184D01*
X581917236Y900407236D01*
X581947184Y900382658D01*
X581947187Y900382655D01*
X581974176Y900360506D01*
X582036767Y900309138D01*
X582138613Y900254701D01*
X582173140Y900236246D01*
X582321112Y900191359D01*
X582335490Y900189943D01*
X582436439Y900180000D01*
X582436446Y900180000D01*
X582474999Y900176203D01*
X582513552Y900180000D01*
X611727024Y900180000D01*
X611771595Y900096613D01*
X611882038Y899962038D01*
X612016613Y899851595D01*
X612170149Y899769528D01*
X612336745Y899718992D01*
X612509999Y899701928D01*
X613410001Y899701928D01*
X613583255Y899718992D01*
X613749851Y899769528D01*
X613903387Y899851595D01*
X614037962Y899962038D01*
X614148405Y900096613D01*
X614230472Y900250149D01*
X614281008Y900416745D01*
X614298072Y900589999D01*
X614298072Y902740001D01*
X616421928Y902740001D01*
X616421928Y900589999D01*
X616438992Y900416745D01*
X616489528Y900250149D01*
X616571595Y900096613D01*
X616682038Y899962038D01*
X616816613Y899851595D01*
X616970149Y899769528D01*
X617136745Y899718992D01*
X617309999Y899701928D01*
X618210001Y899701928D01*
X618383255Y899718992D01*
X618549851Y899769528D01*
X618703387Y899851595D01*
X618837962Y899962038D01*
X618948405Y900096613D01*
X619030472Y900250149D01*
X619081008Y900416745D01*
X619098072Y900589999D01*
X619098072Y900830000D01*
X621723392Y900830000D01*
X621852688Y900636495D01*
X622066495Y900422688D01*
X622317905Y900254701D01*
X622597257Y900138989D01*
X622893816Y900080000D01*
X623196184Y900080000D01*
X623492743Y900138989D01*
X623772095Y900254701D01*
X624023505Y900422688D01*
X624089944Y900489127D01*
X624095498Y900470820D01*
X624154463Y900360506D01*
X624233815Y900263815D01*
X624330506Y900184463D01*
X624440820Y900125498D01*
X624560518Y900089188D01*
X624685000Y900076928D01*
X625299250Y900080000D01*
X625458000Y900238750D01*
X625458000Y901488000D01*
X625712000Y901488000D01*
X625712000Y900238750D01*
X625870750Y900080000D01*
X626485000Y900076928D01*
X626609482Y900089188D01*
X626729180Y900125498D01*
X626839494Y900184463D01*
X626936185Y900263815D01*
X627015537Y900360506D01*
X627074502Y900470820D01*
X627110812Y900590518D01*
X627123072Y900715000D01*
X627120000Y901329250D01*
X626961250Y901488000D01*
X625712000Y901488000D01*
X625458000Y901488000D01*
X625438000Y901488000D01*
X625438000Y901742000D01*
X625458000Y901742000D01*
X625458000Y902991250D01*
X625712000Y902991250D01*
X625712000Y901742000D01*
X626961250Y901742000D01*
X627120000Y901900750D01*
X627123072Y902515000D01*
X627110812Y902639482D01*
X627074502Y902759180D01*
X627015537Y902869494D01*
X626936185Y902966185D01*
X626839494Y903045537D01*
X626729180Y903104502D01*
X626609482Y903140812D01*
X626485000Y903153072D01*
X625870750Y903150000D01*
X625712000Y902991250D01*
X625458000Y902991250D01*
X625299250Y903150000D01*
X624685000Y903153072D01*
X624560518Y903140812D01*
X624440820Y903104502D01*
X624330506Y903045537D01*
X624233815Y902966185D01*
X624154463Y902869494D01*
X624095498Y902759180D01*
X624089944Y902740873D01*
X624023505Y902807312D01*
X623772095Y902975299D01*
X623492743Y903091011D01*
X623196184Y903150000D01*
X622893816Y903150000D01*
X622597257Y903091011D01*
X622317905Y902975299D01*
X622066495Y902807312D01*
X621852688Y902593505D01*
X621723392Y902400000D01*
X619098072Y902400000D01*
X619098072Y902740001D01*
X619081008Y902913255D01*
X619030472Y903079851D01*
X618948405Y903233387D01*
X618837962Y903367962D01*
X618703387Y903478405D01*
X618549851Y903560472D01*
X618383255Y903611008D01*
X618210001Y903628072D01*
X617309999Y903628072D01*
X617136745Y903611008D01*
X616970149Y903560472D01*
X616816613Y903478405D01*
X616682038Y903367962D01*
X616571595Y903233387D01*
X616489528Y903079851D01*
X616438992Y902913255D01*
X616421928Y902740001D01*
X614298072Y902740001D01*
X614281008Y902913255D01*
X614230472Y903079851D01*
X614148405Y903233387D01*
X614037962Y903367962D01*
X613903387Y903478405D01*
X613749851Y903560472D01*
X613583255Y903611008D01*
X613410001Y903628072D01*
X612509999Y903628072D01*
X612336745Y903611008D01*
X612170149Y903560472D01*
X612016613Y903478405D01*
X611882038Y903367962D01*
X611771595Y903233387D01*
X611689528Y903079851D01*
X611638992Y902913255D01*
X611621928Y902740001D01*
X611621928Y901750000D01*
X608028072Y901750000D01*
X608028072Y903150000D01*
X608015812Y903274482D01*
X607979502Y903394180D01*
X607920537Y903504494D01*
X607841185Y903601185D01*
X607744494Y903680537D01*
X607634180Y903739502D01*
X607561620Y903761513D01*
X607693475Y903893368D01*
X607784770Y904030001D01*
X627536448Y904030001D01*
X627575001Y904026204D01*
X627613554Y904030001D01*
X627613562Y904030001D01*
X627728888Y904041360D01*
X627876861Y904086247D01*
X628013234Y904159139D01*
X628132765Y904257237D01*
X628157348Y904287191D01*
X629450157Y905580000D01*
X630481928Y905580000D01*
X630481928Y903880000D01*
X630494188Y903755518D01*
X630530498Y903635820D01*
X630589463Y903525506D01*
X630668815Y903428815D01*
X630765506Y903349463D01*
X630875820Y903290498D01*
X630995518Y903254188D01*
X631120000Y903241928D01*
X632820000Y903241928D01*
X632944482Y903254188D01*
X633064180Y903290498D01*
X633174494Y903349463D01*
X633271185Y903428815D01*
X633350537Y903525506D01*
X633409502Y903635820D01*
X633431513Y903708380D01*
X633563368Y903576525D01*
X633806589Y903414010D01*
X634076842Y903302068D01*
X634363740Y903245000D01*
X634656260Y903245000D01*
X634943158Y903302068D01*
X635213411Y903414010D01*
X635456632Y903576525D01*
X635663475Y903783368D01*
X635780000Y903957760D01*
X635896525Y903783368D01*
X636103368Y903576525D01*
X636346589Y903414010D01*
X636616842Y903302068D01*
X636903740Y903245000D01*
X637196260Y903245000D01*
X637483158Y903302068D01*
X637753411Y903414010D01*
X637996632Y903576525D01*
X638203475Y903783368D01*
X638320000Y903957760D01*
X638436525Y903783368D01*
X638643368Y903576525D01*
X638886589Y903414010D01*
X639156842Y903302068D01*
X639443740Y903245000D01*
X639736260Y903245000D01*
X640023158Y903302068D01*
X640293411Y903414010D01*
X640536632Y903576525D01*
X640743475Y903783368D01*
X640860000Y903957760D01*
X640976525Y903783368D01*
X641183368Y903576525D01*
X641426589Y903414010D01*
X641696842Y903302068D01*
X641983740Y903245000D01*
X642276260Y903245000D01*
X642563158Y903302068D01*
X642833411Y903414010D01*
X643076632Y903576525D01*
X643283475Y903783368D01*
X643405195Y903965534D01*
X643474822Y903848645D01*
X643669731Y903632412D01*
X643903080Y903458359D01*
X644165901Y903333175D01*
X644313110Y903288524D01*
X644543000Y903409845D01*
X644543000Y904603000D01*
X644797000Y904603000D01*
X644797000Y903409845D01*
X645026890Y903288524D01*
X645174099Y903333175D01*
X645436920Y903458359D01*
X645670269Y903632412D01*
X645865178Y903848645D01*
X646014157Y904098748D01*
X646111481Y904373109D01*
X645990814Y904603000D01*
X644797000Y904603000D01*
X644543000Y904603000D01*
X644523000Y904603000D01*
X644523000Y904857000D01*
X644543000Y904857000D01*
X644543000Y906050155D01*
X644797000Y906050155D01*
X644797000Y904857000D01*
X645990814Y904857000D01*
X646111481Y905086891D01*
X646014157Y905361252D01*
X645865178Y905611355D01*
X645670269Y905827588D01*
X645436920Y906001641D01*
X645174099Y906126825D01*
X645026890Y906171476D01*
X644797000Y906050155D01*
X644543000Y906050155D01*
X644313110Y906171476D01*
X644165901Y906126825D01*
X643903080Y906001641D01*
X643669731Y905827588D01*
X643474822Y905611355D01*
X643405195Y905494466D01*
X643283475Y905676632D01*
X643076632Y905883475D01*
X642833411Y906045990D01*
X642563158Y906157932D01*
X642276260Y906215000D01*
X641983740Y906215000D01*
X641696842Y906157932D01*
X641426589Y906045990D01*
X641183368Y905883475D01*
X640976525Y905676632D01*
X640860000Y905502240D01*
X640743475Y905676632D01*
X640536632Y905883475D01*
X640293411Y906045990D01*
X640023158Y906157932D01*
X639736260Y906215000D01*
X639443740Y906215000D01*
X639156842Y906157932D01*
X638886589Y906045990D01*
X638643368Y905883475D01*
X638436525Y905676632D01*
X638320000Y905502240D01*
X638203475Y905676632D01*
X637996632Y905883475D01*
X637753411Y906045990D01*
X637483158Y906157932D01*
X637196260Y906215000D01*
X636903740Y906215000D01*
X636616842Y906157932D01*
X636346589Y906045990D01*
X636103368Y905883475D01*
X635896525Y905676632D01*
X635780000Y905502240D01*
X635663475Y905676632D01*
X635456632Y905883475D01*
X635213411Y906045990D01*
X634943158Y906157932D01*
X634656260Y906215000D01*
X634363740Y906215000D01*
X634076842Y906157932D01*
X633806589Y906045990D01*
X633563368Y905883475D01*
X633431513Y905751620D01*
X633409502Y905824180D01*
X633350537Y905934494D01*
X633271185Y906031185D01*
X633174494Y906110537D01*
X633064180Y906169502D01*
X632944482Y906205812D01*
X632820000Y906218072D01*
X631120000Y906218072D01*
X630995518Y906205812D01*
X630875820Y906169502D01*
X630765506Y906110537D01*
X630668815Y906031185D01*
X630589463Y905934494D01*
X630530498Y905824180D01*
X630494188Y905704482D01*
X630481928Y905580000D01*
X629450157Y905580000D01*
X634385157Y910515000D01*
X638668526Y910515000D01*
X638776525Y910353368D01*
X638983368Y910146525D01*
X639226589Y909984010D01*
X639496842Y909872068D01*
X639783740Y909815000D01*
X640076260Y909815000D01*
X640363158Y909872068D01*
X640633411Y909984010D01*
X640876632Y910146525D01*
X641083475Y910353368D01*
X641245990Y910596589D01*
X641357932Y910866842D01*
X641415000Y911153740D01*
X641415000Y911446260D01*
X641357932Y911733158D01*
X641245990Y912003411D01*
X641083475Y912246632D01*
X640951620Y912378487D01*
X641024180Y912400498D01*
X641134494Y912459463D01*
X641231185Y912538815D01*
X641310537Y912635506D01*
X641369502Y912745820D01*
X641405812Y912865518D01*
X641418072Y912990000D01*
X641418072Y914690000D01*
X641405812Y914814482D01*
X641369502Y914934180D01*
X641310537Y915044494D01*
X641231185Y915141185D01*
X641134494Y915220537D01*
X641024180Y915279502D01*
X640904482Y915315812D01*
X640780000Y915328072D01*
X640705000Y915328072D01*
X640705000Y917318617D01*
X640806632Y917386525D01*
X640938487Y917518380D01*
X640960498Y917445820D01*
X641019463Y917335506D01*
X641098815Y917238815D01*
X641195506Y917159463D01*
X641305820Y917100498D01*
X641425518Y917064188D01*
X641550000Y917051928D01*
X642114250Y917055000D01*
X642273000Y917213750D01*
X642273000Y918413000D01*
X642527000Y918413000D01*
X642527000Y917213750D01*
X642685750Y917055000D01*
X643250000Y917051928D01*
X643374482Y917064188D01*
X643494180Y917100498D01*
X643604494Y917159463D01*
X643701185Y917238815D01*
X643780537Y917335506D01*
X643839502Y917445820D01*
X643875812Y917565518D01*
X643888072Y917690000D01*
X643885000Y918254250D01*
X643726250Y918413000D01*
X642527000Y918413000D01*
X642273000Y918413000D01*
X642253000Y918413000D01*
X642253000Y918667000D01*
X642273000Y918667000D01*
X642273000Y918687000D01*
X642527000Y918687000D01*
X642527000Y918667000D01*
X643726250Y918667000D01*
X643885000Y918825750D01*
X643887446Y919275000D01*
X644734843Y919275000D01*
X656044718Y907965124D01*
X655907047Y907632756D01*
X655825000Y907220279D01*
X655825000Y906799721D01*
X655907047Y906387244D01*
X656067988Y905998698D01*
X656301637Y905649017D01*
X656599017Y905351637D01*
X656948698Y905117988D01*
X657337244Y904957047D01*
X657749721Y904875000D01*
X658170279Y904875000D01*
X658582756Y904957047D01*
X658971302Y905117988D01*
X659320983Y905351637D01*
X659487693Y905518347D01*
X661727952Y905518347D01*
X661883962Y905202786D01*
X662258745Y905011980D01*
X662663551Y904897956D01*
X663082824Y904865098D01*
X663500451Y904914666D01*
X663900383Y905044757D01*
X664196038Y905202786D01*
X664352048Y905518347D01*
X663040000Y906830395D01*
X661727952Y905518347D01*
X659487693Y905518347D01*
X659618363Y905649017D01*
X659852012Y905998698D01*
X660012953Y906387244D01*
X660095000Y906799721D01*
X660095000Y906967176D01*
X660895098Y906967176D01*
X660944666Y906549549D01*
X661074757Y906149617D01*
X661232786Y905853962D01*
X661548347Y905697952D01*
X662860395Y907010000D01*
X663219605Y907010000D01*
X664531653Y905697952D01*
X664847214Y905853962D01*
X665038020Y906228745D01*
X665152044Y906633551D01*
X665184902Y907052824D01*
X665135334Y907470451D01*
X665005243Y907870383D01*
X664847214Y908166038D01*
X664531653Y908322048D01*
X663219605Y907010000D01*
X662860395Y907010000D01*
X661548347Y908322048D01*
X661232786Y908166038D01*
X661041980Y907791255D01*
X660927956Y907386449D01*
X660895098Y906967176D01*
X660095000Y906967176D01*
X660095000Y907220279D01*
X660012953Y907632756D01*
X659852012Y908021302D01*
X659618363Y908370983D01*
X659487693Y908501653D01*
X661727952Y908501653D01*
X663040000Y907189605D01*
X664352048Y908501653D01*
X664347922Y908510000D01*
X665981928Y908510000D01*
X665981928Y905510000D01*
X665994188Y905385518D01*
X666030498Y905265820D01*
X666089463Y905155506D01*
X666168815Y905058815D01*
X666265506Y904979463D01*
X666375820Y904920498D01*
X666495518Y904884188D01*
X666620000Y904871928D01*
X669620000Y904871928D01*
X669744482Y904884188D01*
X669864180Y904920498D01*
X669974494Y904979463D01*
X670071185Y905058815D01*
X670150537Y905155506D01*
X670209502Y905265820D01*
X670245812Y905385518D01*
X670258072Y905510000D01*
X670258072Y908510000D01*
X670245812Y908634482D01*
X670209502Y908754180D01*
X670150537Y908864494D01*
X670071185Y908961185D01*
X669974494Y909040537D01*
X669864180Y909099502D01*
X669744482Y909135812D01*
X669620000Y909148072D01*
X666620000Y909148072D01*
X666495518Y909135812D01*
X666375820Y909099502D01*
X666265506Y909040537D01*
X666168815Y908961185D01*
X666089463Y908864494D01*
X666030498Y908754180D01*
X665994188Y908634482D01*
X665981928Y908510000D01*
X664347922Y908510000D01*
X664196038Y908817214D01*
X663821255Y909008020D01*
X663416449Y909122044D01*
X662997176Y909154902D01*
X662579549Y909105334D01*
X662179617Y908975243D01*
X661883962Y908817214D01*
X661727952Y908501653D01*
X659487693Y908501653D01*
X659320983Y908668363D01*
X658971302Y908902012D01*
X658582756Y909062953D01*
X658170279Y909145000D01*
X657749721Y909145000D01*
X657337244Y909062953D01*
X657217008Y909013150D01*
X645642347Y920587810D01*
X645617764Y920617764D01*
X645498233Y920715862D01*
X645361860Y920788754D01*
X645213887Y920833641D01*
X645098561Y920845000D01*
X645098553Y920845000D01*
X645060000Y920848797D01*
X645021447Y920845000D01*
X638948556Y920845000D01*
X638910000Y920848797D01*
X638871444Y920845000D01*
X638871439Y920845000D01*
X638831026Y920841020D01*
X638756113Y920833642D01*
X638608140Y920788754D01*
X638471767Y920715862D01*
X638352236Y920617764D01*
X638327653Y920587810D01*
X637715305Y919975462D01*
X637466260Y920025000D01*
X637173740Y920025000D01*
X636886842Y919967932D01*
X636616589Y919855990D01*
X636373368Y919693475D01*
X636166525Y919486632D01*
X636051844Y919315000D01*
X626180157Y919315000D01*
X622842345Y922652812D01*
X622817764Y922682764D01*
X622787810Y922707347D01*
X607984587Y937510570D01*
X608025000Y937713740D01*
X608025000Y938006260D01*
X607967932Y938293158D01*
X607855990Y938563411D01*
X607693475Y938806632D01*
X607486632Y939013475D01*
X607243411Y939175990D01*
X606973158Y939287932D01*
X606686260Y939345000D01*
X606393740Y939345000D01*
X606190571Y939304587D01*
X588292347Y957202810D01*
X588267764Y957232764D01*
X588148233Y957330862D01*
X588011860Y957403754D01*
X587863887Y957448641D01*
X587748561Y957460000D01*
X587748553Y957460000D01*
X587710000Y957463797D01*
X587671447Y957460000D01*
X581613072Y957460000D01*
X581613072Y957525000D01*
X581600812Y957649482D01*
X581564502Y957769180D01*
X581505537Y957879494D01*
X581426185Y957976185D01*
X581329494Y958055537D01*
X581219180Y958114502D01*
X581146620Y958136513D01*
X581278475Y958268368D01*
X581440990Y958511589D01*
X581552932Y958781842D01*
X581610000Y959068740D01*
X581610000Y959361260D01*
X581552932Y959648158D01*
X581440990Y959918411D01*
X581278475Y960161632D01*
X581071632Y960368475D01*
X580889466Y960490195D01*
X581006355Y960559822D01*
X581222588Y960754731D01*
X581396641Y960988080D01*
X581521825Y961250901D01*
X581566476Y961398110D01*
X581445155Y961628000D01*
X580252000Y961628000D01*
X580252000Y961608000D01*
X579998000Y961608000D01*
X579998000Y961628000D01*
X578804845Y961628000D01*
X578683524Y961398110D01*
X578728175Y961250901D01*
X578853359Y960988080D01*
X579027412Y960754731D01*
X579243645Y960559822D01*
X579360534Y960490195D01*
X579178368Y960368475D01*
X578971525Y960161632D01*
X578809010Y959918411D01*
X578697068Y959648158D01*
X578640000Y959361260D01*
X578640000Y959068740D01*
X578677925Y958878082D01*
X578297184Y958497341D01*
X578267236Y958472763D01*
X578242658Y958442815D01*
X578242654Y958442811D01*
X578215727Y958410000D01*
X578169138Y958353232D01*
X578130176Y958280339D01*
X578096245Y958216858D01*
X578051358Y958068885D01*
X578036202Y957914999D01*
X577240000Y957914999D01*
X577240000Y963938110D01*
X578683524Y963938110D01*
X578728175Y963790901D01*
X578853359Y963528080D01*
X579027412Y963294731D01*
X579243645Y963099822D01*
X579369255Y963025000D01*
X579243645Y962950178D01*
X579027412Y962755269D01*
X578853359Y962521920D01*
X578728175Y962259099D01*
X578683524Y962111890D01*
X578804845Y961882000D01*
X579998000Y961882000D01*
X579998000Y964168000D01*
X580252000Y964168000D01*
X580252000Y961882000D01*
X581445155Y961882000D01*
X581566476Y962111890D01*
X581521825Y962259099D01*
X581396641Y962521920D01*
X581222588Y962755269D01*
X581006355Y962950178D01*
X580880745Y963025000D01*
X581006355Y963099822D01*
X581222588Y963294731D01*
X581396641Y963528080D01*
X581521825Y963790901D01*
X581566476Y963938110D01*
X581445155Y964168000D01*
X580252000Y964168000D01*
X579998000Y964168000D01*
X578804845Y964168000D01*
X578683524Y963938110D01*
X577240000Y963938110D01*
X577240000Y964651890D01*
X578683524Y964651890D01*
X578804845Y964422000D01*
X579998000Y964422000D01*
X579998000Y965615814D01*
X580252000Y965615814D01*
X580252000Y964422000D01*
X581445155Y964422000D01*
X581566476Y964651890D01*
X581521825Y964799099D01*
X581396641Y965061920D01*
X581222588Y965295269D01*
X581006355Y965490178D01*
X580756252Y965639157D01*
X580481891Y965736481D01*
X580252000Y965615814D01*
X579998000Y965615814D01*
X579768109Y965736481D01*
X579493748Y965639157D01*
X579243645Y965490178D01*
X579027412Y965295269D01*
X578853359Y965061920D01*
X578728175Y964799099D01*
X578683524Y964651890D01*
X577240000Y964651890D01*
X577240000Y981270000D01*
X615843000Y981270000D01*
X615843000Y938600000D01*
G04 #@! TA.AperFunction,Conductor*
D23*
G36*
X615843000Y938600000D02*
G01*
X615845440Y938575224D01*
X615852667Y938551399D01*
X615864403Y938529443D01*
X615880197Y938510197D01*
X615899443Y938494403D01*
X615921399Y938482667D01*
X615945224Y938475440D01*
X615970000Y938473000D01*
X679100000Y938473000D01*
X679100000Y899510000D01*
X577240000Y899510000D01*
X577240000Y938006260D01*
X579655000Y938006260D01*
X579655000Y937713740D01*
X579712068Y937426842D01*
X579824010Y937156589D01*
X579986525Y936913368D01*
X580193368Y936706525D01*
X580375534Y936584805D01*
X580258645Y936515178D01*
X580042412Y936320269D01*
X579868359Y936086920D01*
X579743175Y935824099D01*
X579698524Y935676890D01*
X579819845Y935447000D01*
X581013000Y935447000D01*
X581013000Y935467000D01*
X581267000Y935467000D01*
X581267000Y935447000D01*
X582460155Y935447000D01*
X582581476Y935676890D01*
X582536825Y935824099D01*
X582411641Y936086920D01*
X582237588Y936320269D01*
X582021355Y936515178D01*
X581904466Y936584805D01*
X582086632Y936706525D01*
X582293475Y936913368D01*
X582455990Y937156589D01*
X582567932Y937426842D01*
X582625000Y937713740D01*
X582625000Y938006260D01*
X582567932Y938293158D01*
X582455990Y938563411D01*
X582293475Y938806632D01*
X582086632Y939013475D01*
X581843411Y939175990D01*
X581573158Y939287932D01*
X581286260Y939345000D01*
X580993740Y939345000D01*
X580706842Y939287932D01*
X580436589Y939175990D01*
X580193368Y939013475D01*
X579986525Y938806632D01*
X579824010Y938563411D01*
X579712068Y938293158D01*
X579655000Y938006260D01*
X577240000Y938006260D01*
X577240000Y957914999D01*
X578036202Y957914999D01*
X578040000Y957876436D01*
X578039999Y955503552D01*
X578036202Y955464999D01*
X578039999Y955426446D01*
X578039999Y955426439D01*
X578051358Y955311113D01*
X578096245Y955163140D01*
X578169137Y955026767D01*
X578267235Y954907235D01*
X578297189Y954882652D01*
X583665001Y949514840D01*
X583665000Y930109551D01*
X583661203Y930070998D01*
X583665000Y930032445D01*
X583665000Y930032438D01*
X583676359Y929917112D01*
X583721246Y929769139D01*
X583794138Y929632766D01*
X583892236Y929513234D01*
X583922190Y929488651D01*
X605265434Y908145406D01*
X605224010Y908083411D01*
X605112068Y907813158D01*
X605055000Y907526260D01*
X605055000Y907233740D01*
X605112068Y906946842D01*
X605224010Y906676589D01*
X605386525Y906433368D01*
X605593368Y906226525D01*
X605767760Y906110000D01*
X605593368Y905993475D01*
X605386525Y905786632D01*
X605224010Y905543411D01*
X605112068Y905273158D01*
X605055000Y904986260D01*
X605055000Y904693740D01*
X605112068Y904406842D01*
X605224010Y904136589D01*
X605386525Y903893368D01*
X605518380Y903761513D01*
X605445820Y903739502D01*
X605335506Y903680537D01*
X605238815Y903601185D01*
X605159463Y903504494D01*
X605100498Y903394180D01*
X605064188Y903274482D01*
X605051928Y903150000D01*
X605051928Y901750000D01*
X582800158Y901750000D01*
X582628072Y901922086D01*
X582628072Y903150000D01*
X582615812Y903274482D01*
X582579502Y903394180D01*
X582520537Y903504494D01*
X582441185Y903601185D01*
X582344494Y903680537D01*
X582234180Y903739502D01*
X582161620Y903761513D01*
X582293475Y903893368D01*
X582455990Y904136589D01*
X582567932Y904406842D01*
X582625000Y904693740D01*
X582625000Y904986260D01*
X582567932Y905273158D01*
X582455990Y905543411D01*
X582293475Y905786632D01*
X582086632Y905993475D01*
X581912240Y906110000D01*
X582086632Y906226525D01*
X582293475Y906433368D01*
X582455990Y906676589D01*
X582567932Y906946842D01*
X582625000Y907233740D01*
X582625000Y907526260D01*
X582567932Y907813158D01*
X582455990Y908083411D01*
X582293475Y908326632D01*
X582086632Y908533475D01*
X581912240Y908650000D01*
X582086632Y908766525D01*
X582293475Y908973368D01*
X582455990Y909216589D01*
X582567932Y909486842D01*
X582625000Y909773740D01*
X582625000Y910066260D01*
X582567932Y910353158D01*
X582455990Y910623411D01*
X582293475Y910866632D01*
X582086632Y911073475D01*
X581912240Y911190000D01*
X582086632Y911306525D01*
X582293475Y911513368D01*
X582455990Y911756589D01*
X582567932Y912026842D01*
X582625000Y912313740D01*
X582625000Y912606260D01*
X582567932Y912893158D01*
X582455990Y913163411D01*
X582293475Y913406632D01*
X582086632Y913613475D01*
X581912240Y913730000D01*
X582086632Y913846525D01*
X582293475Y914053368D01*
X582455990Y914296589D01*
X582567932Y914566842D01*
X582625000Y914853740D01*
X582625000Y915146260D01*
X582567932Y915433158D01*
X582455990Y915703411D01*
X582293475Y915946632D01*
X582086632Y916153475D01*
X581912240Y916270000D01*
X582086632Y916386525D01*
X582293475Y916593368D01*
X582455990Y916836589D01*
X582567932Y917106842D01*
X582625000Y917393740D01*
X582625000Y917686260D01*
X582567932Y917973158D01*
X582455990Y918243411D01*
X582293475Y918486632D01*
X582086632Y918693475D01*
X581912240Y918810000D01*
X582086632Y918926525D01*
X582293475Y919133368D01*
X582455990Y919376589D01*
X582567932Y919646842D01*
X582625000Y919933740D01*
X582625000Y920226260D01*
X582567932Y920513158D01*
X582455990Y920783411D01*
X582293475Y921026632D01*
X582086632Y921233475D01*
X581912240Y921350000D01*
X582086632Y921466525D01*
X582293475Y921673368D01*
X582455990Y921916589D01*
X582567932Y922186842D01*
X582625000Y922473740D01*
X582625000Y922766260D01*
X582567932Y923053158D01*
X582455990Y923323411D01*
X582293475Y923566632D01*
X582086632Y923773475D01*
X581912240Y923890000D01*
X582086632Y924006525D01*
X582293475Y924213368D01*
X582455990Y924456589D01*
X582567932Y924726842D01*
X582625000Y925013740D01*
X582625000Y925306260D01*
X582567932Y925593158D01*
X582455990Y925863411D01*
X582293475Y926106632D01*
X582086632Y926313475D01*
X581912240Y926430000D01*
X582086632Y926546525D01*
X582293475Y926753368D01*
X582455990Y926996589D01*
X582567932Y927266842D01*
X582625000Y927553740D01*
X582625000Y927846260D01*
X582567932Y928133158D01*
X582455990Y928403411D01*
X582293475Y928646632D01*
X582086632Y928853475D01*
X581912240Y928970000D01*
X582086632Y929086525D01*
X582293475Y929293368D01*
X582455990Y929536589D01*
X582567932Y929806842D01*
X582625000Y930093740D01*
X582625000Y930386260D01*
X582567932Y930673158D01*
X582455990Y930943411D01*
X582293475Y931186632D01*
X582086632Y931393475D01*
X581912240Y931510000D01*
X582086632Y931626525D01*
X582293475Y931833368D01*
X582455990Y932076589D01*
X582567932Y932346842D01*
X582625000Y932633740D01*
X582625000Y932926260D01*
X582567932Y933213158D01*
X582455990Y933483411D01*
X582293475Y933726632D01*
X582086632Y933933475D01*
X581904466Y934055195D01*
X582021355Y934124822D01*
X582237588Y934319731D01*
X582411641Y934553080D01*
X582536825Y934815901D01*
X582581476Y934963110D01*
X582460155Y935193000D01*
X581267000Y935193000D01*
X581267000Y935173000D01*
X581013000Y935173000D01*
X581013000Y935193000D01*
X579819845Y935193000D01*
X579698524Y934963110D01*
X579743175Y934815901D01*
X579868359Y934553080D01*
X580042412Y934319731D01*
X580258645Y934124822D01*
X580375534Y934055195D01*
X580193368Y933933475D01*
X579986525Y933726632D01*
X579824010Y933483411D01*
X579712068Y933213158D01*
X579655000Y932926260D01*
X579655000Y932633740D01*
X579712068Y932346842D01*
X579824010Y932076589D01*
X579986525Y931833368D01*
X580193368Y931626525D01*
X580367760Y931510000D01*
X580193368Y931393475D01*
X579986525Y931186632D01*
X579824010Y930943411D01*
X579712068Y930673158D01*
X579655000Y930386260D01*
X579655000Y930093740D01*
X579712068Y929806842D01*
X579824010Y929536589D01*
X579986525Y929293368D01*
X580193368Y929086525D01*
X580367760Y928970000D01*
X580193368Y928853475D01*
X579986525Y928646632D01*
X579824010Y928403411D01*
X579712068Y928133158D01*
X579655000Y927846260D01*
X579655000Y927553740D01*
X579712068Y927266842D01*
X579824010Y926996589D01*
X579986525Y926753368D01*
X580193368Y926546525D01*
X580367760Y926430000D01*
X580193368Y926313475D01*
X579986525Y926106632D01*
X579824010Y925863411D01*
X579712068Y925593158D01*
X579655000Y925306260D01*
X579655000Y925013740D01*
X579712068Y924726842D01*
X579824010Y924456589D01*
X579986525Y924213368D01*
X580193368Y924006525D01*
X580367760Y923890000D01*
X580193368Y923773475D01*
X579986525Y923566632D01*
X579824010Y923323411D01*
X579712068Y923053158D01*
X579655000Y922766260D01*
X579655000Y922473740D01*
X579712068Y922186842D01*
X579824010Y921916589D01*
X579986525Y921673368D01*
X580193368Y921466525D01*
X580367760Y921350000D01*
X580193368Y921233475D01*
X579986525Y921026632D01*
X579824010Y920783411D01*
X579712068Y920513158D01*
X579655000Y920226260D01*
X579655000Y919933740D01*
X579712068Y919646842D01*
X579824010Y919376589D01*
X579986525Y919133368D01*
X580193368Y918926525D01*
X580367760Y918810000D01*
X580193368Y918693475D01*
X579986525Y918486632D01*
X579824010Y918243411D01*
X579712068Y917973158D01*
X579655000Y917686260D01*
X579655000Y917393740D01*
X579712068Y917106842D01*
X579824010Y916836589D01*
X579986525Y916593368D01*
X580193368Y916386525D01*
X580367760Y916270000D01*
X580193368Y916153475D01*
X579986525Y915946632D01*
X579824010Y915703411D01*
X579712068Y915433158D01*
X579655000Y915146260D01*
X579655000Y914853740D01*
X579712068Y914566842D01*
X579824010Y914296589D01*
X579986525Y914053368D01*
X580193368Y913846525D01*
X580367760Y913730000D01*
X580193368Y913613475D01*
X579986525Y913406632D01*
X579824010Y913163411D01*
X579712068Y912893158D01*
X579655000Y912606260D01*
X579655000Y912313740D01*
X579712068Y912026842D01*
X579824010Y911756589D01*
X579986525Y911513368D01*
X580193368Y911306525D01*
X580367760Y911190000D01*
X580193368Y911073475D01*
X579986525Y910866632D01*
X579824010Y910623411D01*
X579712068Y910353158D01*
X579655000Y910066260D01*
X579655000Y909773740D01*
X579712068Y909486842D01*
X579824010Y909216589D01*
X579986525Y908973368D01*
X580193368Y908766525D01*
X580367760Y908650000D01*
X580193368Y908533475D01*
X579986525Y908326632D01*
X579824010Y908083411D01*
X579712068Y907813158D01*
X579655000Y907526260D01*
X579655000Y907233740D01*
X579712068Y906946842D01*
X579824010Y906676589D01*
X579986525Y906433368D01*
X580193368Y906226525D01*
X580367760Y906110000D01*
X580193368Y905993475D01*
X579986525Y905786632D01*
X579824010Y905543411D01*
X579712068Y905273158D01*
X579655000Y904986260D01*
X579655000Y904693740D01*
X579712068Y904406842D01*
X579824010Y904136589D01*
X579986525Y903893368D01*
X580118380Y903761513D01*
X580045820Y903739502D01*
X579935506Y903680537D01*
X579838815Y903601185D01*
X579759463Y903504494D01*
X579700498Y903394180D01*
X579664188Y903274482D01*
X579651928Y903150000D01*
X579651928Y901450000D01*
X579664188Y901325518D01*
X579700498Y901205820D01*
X579759463Y901095506D01*
X579838815Y900998815D01*
X579935506Y900919463D01*
X580045820Y900860498D01*
X580165518Y900824188D01*
X580290000Y900811928D01*
X581517914Y900811928D01*
X581892658Y900437184D01*
X581917236Y900407236D01*
X581947184Y900382658D01*
X581947187Y900382655D01*
X581974176Y900360506D01*
X582036767Y900309138D01*
X582138613Y900254701D01*
X582173140Y900236246D01*
X582321112Y900191359D01*
X582335490Y900189943D01*
X582436439Y900180000D01*
X582436446Y900180000D01*
X582474999Y900176203D01*
X582513552Y900180000D01*
X611727024Y900180000D01*
X611771595Y900096613D01*
X611882038Y899962038D01*
X612016613Y899851595D01*
X612170149Y899769528D01*
X612336745Y899718992D01*
X612509999Y899701928D01*
X613410001Y899701928D01*
X613583255Y899718992D01*
X613749851Y899769528D01*
X613903387Y899851595D01*
X614037962Y899962038D01*
X614148405Y900096613D01*
X614230472Y900250149D01*
X614281008Y900416745D01*
X614298072Y900589999D01*
X614298072Y902740001D01*
X616421928Y902740001D01*
X616421928Y900589999D01*
X616438992Y900416745D01*
X616489528Y900250149D01*
X616571595Y900096613D01*
X616682038Y899962038D01*
X616816613Y899851595D01*
X616970149Y899769528D01*
X617136745Y899718992D01*
X617309999Y899701928D01*
X618210001Y899701928D01*
X618383255Y899718992D01*
X618549851Y899769528D01*
X618703387Y899851595D01*
X618837962Y899962038D01*
X618948405Y900096613D01*
X619030472Y900250149D01*
X619081008Y900416745D01*
X619098072Y900589999D01*
X619098072Y900830000D01*
X621723392Y900830000D01*
X621852688Y900636495D01*
X622066495Y900422688D01*
X622317905Y900254701D01*
X622597257Y900138989D01*
X622893816Y900080000D01*
X623196184Y900080000D01*
X623492743Y900138989D01*
X623772095Y900254701D01*
X624023505Y900422688D01*
X624089944Y900489127D01*
X624095498Y900470820D01*
X624154463Y900360506D01*
X624233815Y900263815D01*
X624330506Y900184463D01*
X624440820Y900125498D01*
X624560518Y900089188D01*
X624685000Y900076928D01*
X625299250Y900080000D01*
X625458000Y900238750D01*
X625458000Y901488000D01*
X625712000Y901488000D01*
X625712000Y900238750D01*
X625870750Y900080000D01*
X626485000Y900076928D01*
X626609482Y900089188D01*
X626729180Y900125498D01*
X626839494Y900184463D01*
X626936185Y900263815D01*
X627015537Y900360506D01*
X627074502Y900470820D01*
X627110812Y900590518D01*
X627123072Y900715000D01*
X627120000Y901329250D01*
X626961250Y901488000D01*
X625712000Y901488000D01*
X625458000Y901488000D01*
X625438000Y901488000D01*
X625438000Y901742000D01*
X625458000Y901742000D01*
X625458000Y902991250D01*
X625712000Y902991250D01*
X625712000Y901742000D01*
X626961250Y901742000D01*
X627120000Y901900750D01*
X627123072Y902515000D01*
X627110812Y902639482D01*
X627074502Y902759180D01*
X627015537Y902869494D01*
X626936185Y902966185D01*
X626839494Y903045537D01*
X626729180Y903104502D01*
X626609482Y903140812D01*
X626485000Y903153072D01*
X625870750Y903150000D01*
X625712000Y902991250D01*
X625458000Y902991250D01*
X625299250Y903150000D01*
X624685000Y903153072D01*
X624560518Y903140812D01*
X624440820Y903104502D01*
X624330506Y903045537D01*
X624233815Y902966185D01*
X624154463Y902869494D01*
X624095498Y902759180D01*
X624089944Y902740873D01*
X624023505Y902807312D01*
X623772095Y902975299D01*
X623492743Y903091011D01*
X623196184Y903150000D01*
X622893816Y903150000D01*
X622597257Y903091011D01*
X622317905Y902975299D01*
X622066495Y902807312D01*
X621852688Y902593505D01*
X621723392Y902400000D01*
X619098072Y902400000D01*
X619098072Y902740001D01*
X619081008Y902913255D01*
X619030472Y903079851D01*
X618948405Y903233387D01*
X618837962Y903367962D01*
X618703387Y903478405D01*
X618549851Y903560472D01*
X618383255Y903611008D01*
X618210001Y903628072D01*
X617309999Y903628072D01*
X617136745Y903611008D01*
X616970149Y903560472D01*
X616816613Y903478405D01*
X616682038Y903367962D01*
X616571595Y903233387D01*
X616489528Y903079851D01*
X616438992Y902913255D01*
X616421928Y902740001D01*
X614298072Y902740001D01*
X614281008Y902913255D01*
X614230472Y903079851D01*
X614148405Y903233387D01*
X614037962Y903367962D01*
X613903387Y903478405D01*
X613749851Y903560472D01*
X613583255Y903611008D01*
X613410001Y903628072D01*
X612509999Y903628072D01*
X612336745Y903611008D01*
X612170149Y903560472D01*
X612016613Y903478405D01*
X611882038Y903367962D01*
X611771595Y903233387D01*
X611689528Y903079851D01*
X611638992Y902913255D01*
X611621928Y902740001D01*
X611621928Y901750000D01*
X608028072Y901750000D01*
X608028072Y903150000D01*
X608015812Y903274482D01*
X607979502Y903394180D01*
X607920537Y903504494D01*
X607841185Y903601185D01*
X607744494Y903680537D01*
X607634180Y903739502D01*
X607561620Y903761513D01*
X607693475Y903893368D01*
X607784770Y904030001D01*
X627536448Y904030001D01*
X627575001Y904026204D01*
X627613554Y904030001D01*
X627613562Y904030001D01*
X627728888Y904041360D01*
X627876861Y904086247D01*
X628013234Y904159139D01*
X628132765Y904257237D01*
X628157348Y904287191D01*
X629450157Y905580000D01*
X630481928Y905580000D01*
X630481928Y903880000D01*
X630494188Y903755518D01*
X630530498Y903635820D01*
X630589463Y903525506D01*
X630668815Y903428815D01*
X630765506Y903349463D01*
X630875820Y903290498D01*
X630995518Y903254188D01*
X631120000Y903241928D01*
X632820000Y903241928D01*
X632944482Y903254188D01*
X633064180Y903290498D01*
X633174494Y903349463D01*
X633271185Y903428815D01*
X633350537Y903525506D01*
X633409502Y903635820D01*
X633431513Y903708380D01*
X633563368Y903576525D01*
X633806589Y903414010D01*
X634076842Y903302068D01*
X634363740Y903245000D01*
X634656260Y903245000D01*
X634943158Y903302068D01*
X635213411Y903414010D01*
X635456632Y903576525D01*
X635663475Y903783368D01*
X635780000Y903957760D01*
X635896525Y903783368D01*
X636103368Y903576525D01*
X636346589Y903414010D01*
X636616842Y903302068D01*
X636903740Y903245000D01*
X637196260Y903245000D01*
X637483158Y903302068D01*
X637753411Y903414010D01*
X637996632Y903576525D01*
X638203475Y903783368D01*
X638320000Y903957760D01*
X638436525Y903783368D01*
X638643368Y903576525D01*
X638886589Y903414010D01*
X639156842Y903302068D01*
X639443740Y903245000D01*
X639736260Y903245000D01*
X640023158Y903302068D01*
X640293411Y903414010D01*
X640536632Y903576525D01*
X640743475Y903783368D01*
X640860000Y903957760D01*
X640976525Y903783368D01*
X641183368Y903576525D01*
X641426589Y903414010D01*
X641696842Y903302068D01*
X641983740Y903245000D01*
X642276260Y903245000D01*
X642563158Y903302068D01*
X642833411Y903414010D01*
X643076632Y903576525D01*
X643283475Y903783368D01*
X643405195Y903965534D01*
X643474822Y903848645D01*
X643669731Y903632412D01*
X643903080Y903458359D01*
X644165901Y903333175D01*
X644313110Y903288524D01*
X644543000Y903409845D01*
X644543000Y904603000D01*
X644797000Y904603000D01*
X644797000Y903409845D01*
X645026890Y903288524D01*
X645174099Y903333175D01*
X645436920Y903458359D01*
X645670269Y903632412D01*
X645865178Y903848645D01*
X646014157Y904098748D01*
X646111481Y904373109D01*
X645990814Y904603000D01*
X644797000Y904603000D01*
X644543000Y904603000D01*
X644523000Y904603000D01*
X644523000Y904857000D01*
X644543000Y904857000D01*
X644543000Y906050155D01*
X644797000Y906050155D01*
X644797000Y904857000D01*
X645990814Y904857000D01*
X646111481Y905086891D01*
X646014157Y905361252D01*
X645865178Y905611355D01*
X645670269Y905827588D01*
X645436920Y906001641D01*
X645174099Y906126825D01*
X645026890Y906171476D01*
X644797000Y906050155D01*
X644543000Y906050155D01*
X644313110Y906171476D01*
X644165901Y906126825D01*
X643903080Y906001641D01*
X643669731Y905827588D01*
X643474822Y905611355D01*
X643405195Y905494466D01*
X643283475Y905676632D01*
X643076632Y905883475D01*
X642833411Y906045990D01*
X642563158Y906157932D01*
X642276260Y906215000D01*
X641983740Y906215000D01*
X641696842Y906157932D01*
X641426589Y906045990D01*
X641183368Y905883475D01*
X640976525Y905676632D01*
X640860000Y905502240D01*
X640743475Y905676632D01*
X640536632Y905883475D01*
X640293411Y906045990D01*
X640023158Y906157932D01*
X639736260Y906215000D01*
X639443740Y906215000D01*
X639156842Y906157932D01*
X638886589Y906045990D01*
X638643368Y905883475D01*
X638436525Y905676632D01*
X638320000Y905502240D01*
X638203475Y905676632D01*
X637996632Y905883475D01*
X637753411Y906045990D01*
X637483158Y906157932D01*
X637196260Y906215000D01*
X636903740Y906215000D01*
X636616842Y906157932D01*
X636346589Y906045990D01*
X636103368Y905883475D01*
X635896525Y905676632D01*
X635780000Y905502240D01*
X635663475Y905676632D01*
X635456632Y905883475D01*
X635213411Y906045990D01*
X634943158Y906157932D01*
X634656260Y906215000D01*
X634363740Y906215000D01*
X634076842Y906157932D01*
X633806589Y906045990D01*
X633563368Y905883475D01*
X633431513Y905751620D01*
X633409502Y905824180D01*
X633350537Y905934494D01*
X633271185Y906031185D01*
X633174494Y906110537D01*
X633064180Y906169502D01*
X632944482Y906205812D01*
X632820000Y906218072D01*
X631120000Y906218072D01*
X630995518Y906205812D01*
X630875820Y906169502D01*
X630765506Y906110537D01*
X630668815Y906031185D01*
X630589463Y905934494D01*
X630530498Y905824180D01*
X630494188Y905704482D01*
X630481928Y905580000D01*
X629450157Y905580000D01*
X634385157Y910515000D01*
X638668526Y910515000D01*
X638776525Y910353368D01*
X638983368Y910146525D01*
X639226589Y909984010D01*
X639496842Y909872068D01*
X639783740Y909815000D01*
X640076260Y909815000D01*
X640363158Y909872068D01*
X640633411Y909984010D01*
X640876632Y910146525D01*
X641083475Y910353368D01*
X641245990Y910596589D01*
X641357932Y910866842D01*
X641415000Y911153740D01*
X641415000Y911446260D01*
X641357932Y911733158D01*
X641245990Y912003411D01*
X641083475Y912246632D01*
X640951620Y912378487D01*
X641024180Y912400498D01*
X641134494Y912459463D01*
X641231185Y912538815D01*
X641310537Y912635506D01*
X641369502Y912745820D01*
X641405812Y912865518D01*
X641418072Y912990000D01*
X641418072Y914690000D01*
X641405812Y914814482D01*
X641369502Y914934180D01*
X641310537Y915044494D01*
X641231185Y915141185D01*
X641134494Y915220537D01*
X641024180Y915279502D01*
X640904482Y915315812D01*
X640780000Y915328072D01*
X640705000Y915328072D01*
X640705000Y917318617D01*
X640806632Y917386525D01*
X640938487Y917518380D01*
X640960498Y917445820D01*
X641019463Y917335506D01*
X641098815Y917238815D01*
X641195506Y917159463D01*
X641305820Y917100498D01*
X641425518Y917064188D01*
X641550000Y917051928D01*
X642114250Y917055000D01*
X642273000Y917213750D01*
X642273000Y918413000D01*
X642527000Y918413000D01*
X642527000Y917213750D01*
X642685750Y917055000D01*
X643250000Y917051928D01*
X643374482Y917064188D01*
X643494180Y917100498D01*
X643604494Y917159463D01*
X643701185Y917238815D01*
X643780537Y917335506D01*
X643839502Y917445820D01*
X643875812Y917565518D01*
X643888072Y917690000D01*
X643885000Y918254250D01*
X643726250Y918413000D01*
X642527000Y918413000D01*
X642273000Y918413000D01*
X642253000Y918413000D01*
X642253000Y918667000D01*
X642273000Y918667000D01*
X642273000Y918687000D01*
X642527000Y918687000D01*
X642527000Y918667000D01*
X643726250Y918667000D01*
X643885000Y918825750D01*
X643887446Y919275000D01*
X644734843Y919275000D01*
X656044718Y907965124D01*
X655907047Y907632756D01*
X655825000Y907220279D01*
X655825000Y906799721D01*
X655907047Y906387244D01*
X656067988Y905998698D01*
X656301637Y905649017D01*
X656599017Y905351637D01*
X656948698Y905117988D01*
X657337244Y904957047D01*
X657749721Y904875000D01*
X658170279Y904875000D01*
X658582756Y904957047D01*
X658971302Y905117988D01*
X659320983Y905351637D01*
X659487693Y905518347D01*
X661727952Y905518347D01*
X661883962Y905202786D01*
X662258745Y905011980D01*
X662663551Y904897956D01*
X663082824Y904865098D01*
X663500451Y904914666D01*
X663900383Y905044757D01*
X664196038Y905202786D01*
X664352048Y905518347D01*
X663040000Y906830395D01*
X661727952Y905518347D01*
X659487693Y905518347D01*
X659618363Y905649017D01*
X659852012Y905998698D01*
X660012953Y906387244D01*
X660095000Y906799721D01*
X660095000Y906967176D01*
X660895098Y906967176D01*
X660944666Y906549549D01*
X661074757Y906149617D01*
X661232786Y905853962D01*
X661548347Y905697952D01*
X662860395Y907010000D01*
X663219605Y907010000D01*
X664531653Y905697952D01*
X664847214Y905853962D01*
X665038020Y906228745D01*
X665152044Y906633551D01*
X665184902Y907052824D01*
X665135334Y907470451D01*
X665005243Y907870383D01*
X664847214Y908166038D01*
X664531653Y908322048D01*
X663219605Y907010000D01*
X662860395Y907010000D01*
X661548347Y908322048D01*
X661232786Y908166038D01*
X661041980Y907791255D01*
X660927956Y907386449D01*
X660895098Y906967176D01*
X660095000Y906967176D01*
X660095000Y907220279D01*
X660012953Y907632756D01*
X659852012Y908021302D01*
X659618363Y908370983D01*
X659487693Y908501653D01*
X661727952Y908501653D01*
X663040000Y907189605D01*
X664352048Y908501653D01*
X664347922Y908510000D01*
X665981928Y908510000D01*
X665981928Y905510000D01*
X665994188Y905385518D01*
X666030498Y905265820D01*
X666089463Y905155506D01*
X666168815Y905058815D01*
X666265506Y904979463D01*
X666375820Y904920498D01*
X666495518Y904884188D01*
X666620000Y904871928D01*
X669620000Y904871928D01*
X669744482Y904884188D01*
X669864180Y904920498D01*
X669974494Y904979463D01*
X670071185Y905058815D01*
X670150537Y905155506D01*
X670209502Y905265820D01*
X670245812Y905385518D01*
X670258072Y905510000D01*
X670258072Y908510000D01*
X670245812Y908634482D01*
X670209502Y908754180D01*
X670150537Y908864494D01*
X670071185Y908961185D01*
X669974494Y909040537D01*
X669864180Y909099502D01*
X669744482Y909135812D01*
X669620000Y909148072D01*
X666620000Y909148072D01*
X666495518Y909135812D01*
X666375820Y909099502D01*
X666265506Y909040537D01*
X666168815Y908961185D01*
X666089463Y908864494D01*
X666030498Y908754180D01*
X665994188Y908634482D01*
X665981928Y908510000D01*
X664347922Y908510000D01*
X664196038Y908817214D01*
X663821255Y909008020D01*
X663416449Y909122044D01*
X662997176Y909154902D01*
X662579549Y909105334D01*
X662179617Y908975243D01*
X661883962Y908817214D01*
X661727952Y908501653D01*
X659487693Y908501653D01*
X659320983Y908668363D01*
X658971302Y908902012D01*
X658582756Y909062953D01*
X658170279Y909145000D01*
X657749721Y909145000D01*
X657337244Y909062953D01*
X657217008Y909013150D01*
X645642347Y920587810D01*
X645617764Y920617764D01*
X645498233Y920715862D01*
X645361860Y920788754D01*
X645213887Y920833641D01*
X645098561Y920845000D01*
X645098553Y920845000D01*
X645060000Y920848797D01*
X645021447Y920845000D01*
X638948556Y920845000D01*
X638910000Y920848797D01*
X638871444Y920845000D01*
X638871439Y920845000D01*
X638831026Y920841020D01*
X638756113Y920833642D01*
X638608140Y920788754D01*
X638471767Y920715862D01*
X638352236Y920617764D01*
X638327653Y920587810D01*
X637715305Y919975462D01*
X637466260Y920025000D01*
X637173740Y920025000D01*
X636886842Y919967932D01*
X636616589Y919855990D01*
X636373368Y919693475D01*
X636166525Y919486632D01*
X636051844Y919315000D01*
X626180157Y919315000D01*
X622842345Y922652812D01*
X622817764Y922682764D01*
X622787810Y922707347D01*
X607984587Y937510570D01*
X608025000Y937713740D01*
X608025000Y938006260D01*
X607967932Y938293158D01*
X607855990Y938563411D01*
X607693475Y938806632D01*
X607486632Y939013475D01*
X607243411Y939175990D01*
X606973158Y939287932D01*
X606686260Y939345000D01*
X606393740Y939345000D01*
X606190571Y939304587D01*
X588292347Y957202810D01*
X588267764Y957232764D01*
X588148233Y957330862D01*
X588011860Y957403754D01*
X587863887Y957448641D01*
X587748561Y957460000D01*
X587748553Y957460000D01*
X587710000Y957463797D01*
X587671447Y957460000D01*
X581613072Y957460000D01*
X581613072Y957525000D01*
X581600812Y957649482D01*
X581564502Y957769180D01*
X581505537Y957879494D01*
X581426185Y957976185D01*
X581329494Y958055537D01*
X581219180Y958114502D01*
X581146620Y958136513D01*
X581278475Y958268368D01*
X581440990Y958511589D01*
X581552932Y958781842D01*
X581610000Y959068740D01*
X581610000Y959361260D01*
X581552932Y959648158D01*
X581440990Y959918411D01*
X581278475Y960161632D01*
X581071632Y960368475D01*
X580889466Y960490195D01*
X581006355Y960559822D01*
X581222588Y960754731D01*
X581396641Y960988080D01*
X581521825Y961250901D01*
X581566476Y961398110D01*
X581445155Y961628000D01*
X580252000Y961628000D01*
X580252000Y961608000D01*
X579998000Y961608000D01*
X579998000Y961628000D01*
X578804845Y961628000D01*
X578683524Y961398110D01*
X578728175Y961250901D01*
X578853359Y960988080D01*
X579027412Y960754731D01*
X579243645Y960559822D01*
X579360534Y960490195D01*
X579178368Y960368475D01*
X578971525Y960161632D01*
X578809010Y959918411D01*
X578697068Y959648158D01*
X578640000Y959361260D01*
X578640000Y959068740D01*
X578677925Y958878082D01*
X578297184Y958497341D01*
X578267236Y958472763D01*
X578242658Y958442815D01*
X578242654Y958442811D01*
X578215727Y958410000D01*
X578169138Y958353232D01*
X578130176Y958280339D01*
X578096245Y958216858D01*
X578051358Y958068885D01*
X578036202Y957914999D01*
X577240000Y957914999D01*
X577240000Y963938110D01*
X578683524Y963938110D01*
X578728175Y963790901D01*
X578853359Y963528080D01*
X579027412Y963294731D01*
X579243645Y963099822D01*
X579369255Y963025000D01*
X579243645Y962950178D01*
X579027412Y962755269D01*
X578853359Y962521920D01*
X578728175Y962259099D01*
X578683524Y962111890D01*
X578804845Y961882000D01*
X579998000Y961882000D01*
X579998000Y964168000D01*
X580252000Y964168000D01*
X580252000Y961882000D01*
X581445155Y961882000D01*
X581566476Y962111890D01*
X581521825Y962259099D01*
X581396641Y962521920D01*
X581222588Y962755269D01*
X581006355Y962950178D01*
X580880745Y963025000D01*
X581006355Y963099822D01*
X581222588Y963294731D01*
X581396641Y963528080D01*
X581521825Y963790901D01*
X581566476Y963938110D01*
X581445155Y964168000D01*
X580252000Y964168000D01*
X579998000Y964168000D01*
X578804845Y964168000D01*
X578683524Y963938110D01*
X577240000Y963938110D01*
X577240000Y964651890D01*
X578683524Y964651890D01*
X578804845Y964422000D01*
X579998000Y964422000D01*
X579998000Y965615814D01*
X580252000Y965615814D01*
X580252000Y964422000D01*
X581445155Y964422000D01*
X581566476Y964651890D01*
X581521825Y964799099D01*
X581396641Y965061920D01*
X581222588Y965295269D01*
X581006355Y965490178D01*
X580756252Y965639157D01*
X580481891Y965736481D01*
X580252000Y965615814D01*
X579998000Y965615814D01*
X579768109Y965736481D01*
X579493748Y965639157D01*
X579243645Y965490178D01*
X579027412Y965295269D01*
X578853359Y965061920D01*
X578728175Y964799099D01*
X578683524Y964651890D01*
X577240000Y964651890D01*
X577240000Y981270000D01*
X615843000Y981270000D01*
X615843000Y938600000D01*
G37*
G04 #@! TD.AperFunction*
D22*
X621475001Y921799842D02*
X621475000Y911912212D01*
X621355276Y911862620D01*
X621042446Y911653594D01*
X620776406Y911387554D01*
X620567380Y911074724D01*
X620423400Y910727127D01*
X620350000Y910358119D01*
X620350000Y909981881D01*
X620423400Y909612873D01*
X620567380Y909265276D01*
X620776406Y908952446D01*
X621042446Y908686406D01*
X621355276Y908477380D01*
X621702873Y908333400D01*
X622071881Y908260000D01*
X622448119Y908260000D01*
X622817127Y908333400D01*
X623164724Y908477380D01*
X623477554Y908686406D01*
X623629733Y908838585D01*
X625908190Y908838585D01*
X626037116Y908546055D01*
X626373586Y908377704D01*
X626736435Y908278229D01*
X627111718Y908251455D01*
X627485015Y908298409D01*
X627841978Y908417287D01*
X628082884Y908546055D01*
X628211810Y908838585D01*
X627060000Y909990395D01*
X625908190Y908838585D01*
X623629733Y908838585D01*
X623743594Y908952446D01*
X623952620Y909265276D01*
X624096600Y909612873D01*
X624170000Y909981881D01*
X624170000Y910118282D01*
X625141455Y910118282D01*
X625188409Y909744985D01*
X625307287Y909388022D01*
X625436055Y909147116D01*
X625728585Y909018190D01*
X626880395Y910170000D01*
X627239605Y910170000D01*
X628391415Y909018190D01*
X628683945Y909147116D01*
X628852296Y909483586D01*
X628951771Y909846435D01*
X628978545Y910221718D01*
X628931591Y910595015D01*
X628812713Y910951978D01*
X628683945Y911192884D01*
X628391415Y911321810D01*
X627239605Y910170000D01*
X626880395Y910170000D01*
X625728585Y911321810D01*
X625436055Y911192884D01*
X625267704Y910856414D01*
X625168229Y910493565D01*
X625141455Y910118282D01*
X624170000Y910118282D01*
X624170000Y910358119D01*
X624096600Y910727127D01*
X623952620Y911074724D01*
X623743594Y911387554D01*
X623629733Y911501415D01*
X625908190Y911501415D01*
X627060000Y910349605D01*
X628211810Y911501415D01*
X628082884Y911793945D01*
X627746414Y911962296D01*
X627383565Y912061771D01*
X627008282Y912088545D01*
X626634985Y912041591D01*
X626278022Y911922713D01*
X626037116Y911793945D01*
X625908190Y911501415D01*
X623629733Y911501415D01*
X623477554Y911653594D01*
X623164724Y911862620D01*
X623045000Y911912212D01*
X623045000Y913907651D01*
X628762256Y913907651D01*
X628876118Y913627910D01*
X629191296Y913472039D01*
X629530826Y913380651D01*
X629881661Y913357259D01*
X630230319Y913402760D01*
X630563400Y913515406D01*
X630773882Y913627910D01*
X630887744Y913907651D01*
X629825000Y914970395D01*
X628762256Y913907651D01*
X623045000Y913907651D01*
X623045000Y915093339D01*
X628032259Y915093339D01*
X628077760Y914744681D01*
X628190406Y914411600D01*
X628302910Y914201118D01*
X628582651Y914087256D01*
X629645395Y915150000D01*
X630004605Y915150000D01*
X631067349Y914087256D01*
X631347090Y914201118D01*
X631502961Y914516296D01*
X631594349Y914855826D01*
X631617741Y915206661D01*
X631572240Y915555319D01*
X631459594Y915888400D01*
X631347090Y916098882D01*
X631067349Y916212744D01*
X630004605Y915150000D01*
X629645395Y915150000D01*
X628582651Y916212744D01*
X628302910Y916098882D01*
X628147039Y915783704D01*
X628055651Y915444174D01*
X628032259Y915093339D01*
X623045000Y915093339D01*
X623045000Y916392349D01*
X628762256Y916392349D01*
X629825000Y915329605D01*
X630887744Y916392349D01*
X630773882Y916672090D01*
X630458704Y916827961D01*
X630119174Y916919349D01*
X629768339Y916942741D01*
X629419681Y916897240D01*
X629086600Y916784594D01*
X628876118Y916672090D01*
X628762256Y916392349D01*
X623045000Y916392349D01*
X623045000Y920229843D01*
X625272653Y918002190D01*
X625297236Y917972236D01*
X625416767Y917874138D01*
X625553140Y917801246D01*
X625701113Y917756358D01*
X625776026Y917748980D01*
X625816439Y917745000D01*
X625816444Y917745000D01*
X625855000Y917741203D01*
X625893556Y917745000D01*
X636065208Y917745000D01*
X636166525Y917593368D01*
X636373368Y917386525D01*
X636616589Y917224010D01*
X636886842Y917112068D01*
X637173740Y917055000D01*
X637466260Y917055000D01*
X637753158Y917112068D01*
X638023411Y917224010D01*
X638266632Y917386525D01*
X638473475Y917593368D01*
X638590000Y917767760D01*
X638706525Y917593368D01*
X638913368Y917386525D01*
X639135000Y917238435D01*
X639135001Y915328072D01*
X639080000Y915328072D01*
X638955518Y915315812D01*
X638835820Y915279502D01*
X638725506Y915220537D01*
X638628815Y915141185D01*
X638549463Y915044494D01*
X638490498Y914934180D01*
X638454188Y914814482D01*
X638441928Y914690000D01*
X638441928Y912990000D01*
X638454188Y912865518D01*
X638490498Y912745820D01*
X638549463Y912635506D01*
X638628815Y912538815D01*
X638725506Y912459463D01*
X638835820Y912400498D01*
X638908380Y912378487D01*
X638776525Y912246632D01*
X638668526Y912085000D01*
X634098556Y912085000D01*
X634060000Y912088797D01*
X634021444Y912085000D01*
X634021439Y912085000D01*
X633981026Y912081020D01*
X633906113Y912073642D01*
X633758140Y912028754D01*
X633621767Y911955862D01*
X633502236Y911857764D01*
X633477653Y911827810D01*
X627249844Y905600001D01*
X607818178Y905600001D01*
X607693475Y905786632D01*
X607486632Y905993475D01*
X607312240Y906110000D01*
X607486632Y906226525D01*
X607693475Y906433368D01*
X607855990Y906676589D01*
X607967932Y906946842D01*
X608025000Y907233740D01*
X608025000Y907526260D01*
X607967932Y907813158D01*
X607855990Y908083411D01*
X607693475Y908326632D01*
X607486632Y908533475D01*
X607312240Y908650000D01*
X607486632Y908766525D01*
X607693475Y908973368D01*
X607855990Y909216589D01*
X607967932Y909486842D01*
X608025000Y909773740D01*
X608025000Y910066260D01*
X607967932Y910353158D01*
X607855990Y910623411D01*
X607693475Y910866632D01*
X607486632Y911073475D01*
X607312240Y911190000D01*
X607486632Y911306525D01*
X607693475Y911513368D01*
X607855990Y911756589D01*
X607967932Y912026842D01*
X608025000Y912313740D01*
X608025000Y912606260D01*
X607967932Y912893158D01*
X607855990Y913163411D01*
X607693475Y913406632D01*
X607486632Y913613475D01*
X607312240Y913730000D01*
X607486632Y913846525D01*
X607693475Y914053368D01*
X607855990Y914296589D01*
X607967932Y914566842D01*
X608025000Y914853740D01*
X608025000Y915146260D01*
X607989286Y915325807D01*
X612640000Y915325807D01*
X612640000Y914974193D01*
X612708596Y914629335D01*
X612843153Y914304485D01*
X613038500Y914012129D01*
X613287129Y913763500D01*
X613579485Y913568153D01*
X613640000Y913543087D01*
X613640001Y911763563D01*
X613636203Y911725000D01*
X613651359Y911571114D01*
X613696246Y911423141D01*
X613696247Y911423140D01*
X613769139Y911286767D01*
X613809690Y911237356D01*
X613842655Y911197188D01*
X613842659Y911197184D01*
X613867237Y911167236D01*
X613897185Y911142658D01*
X615397658Y909642184D01*
X615422236Y909612236D01*
X615452184Y909587658D01*
X615452187Y909587655D01*
X615481559Y909563550D01*
X615541767Y909514138D01*
X615546928Y909511379D01*
X615546928Y909144999D01*
X615563992Y908971745D01*
X615614528Y908805149D01*
X615696595Y908651613D01*
X615807038Y908517038D01*
X615941613Y908406595D01*
X616095149Y908324528D01*
X616261745Y908273992D01*
X616434999Y908256928D01*
X618485001Y908256928D01*
X618658255Y908273992D01*
X618824851Y908324528D01*
X618978387Y908406595D01*
X619112962Y908517038D01*
X619223405Y908651613D01*
X619305472Y908805149D01*
X619356008Y908971745D01*
X619373072Y909144999D01*
X619373072Y911195001D01*
X619356008Y911368255D01*
X619305472Y911534851D01*
X619223405Y911688387D01*
X619112962Y911822962D01*
X618978387Y911933405D01*
X618824851Y912015472D01*
X618658255Y912066008D01*
X618485001Y912083072D01*
X616434999Y912083072D01*
X616261745Y912066008D01*
X616095149Y912015472D01*
X615941613Y911933405D01*
X615807038Y911822962D01*
X615696595Y911688387D01*
X615653115Y911607042D01*
X615210000Y912050157D01*
X615210000Y913543087D01*
X615270515Y913568153D01*
X615562871Y913763500D01*
X615811500Y914012129D01*
X616006847Y914304485D01*
X616141404Y914629335D01*
X616210000Y914974193D01*
X616210000Y915325807D01*
X616141404Y915670665D01*
X616006847Y915995515D01*
X615811500Y916287871D01*
X615562871Y916536500D01*
X615270515Y916731847D01*
X614945665Y916866404D01*
X614600807Y916935000D01*
X614249193Y916935000D01*
X613904335Y916866404D01*
X613579485Y916731847D01*
X613287129Y916536500D01*
X613038500Y916287871D01*
X612843153Y915995515D01*
X612708596Y915670665D01*
X612640000Y915325807D01*
X607989286Y915325807D01*
X607967932Y915433158D01*
X607855990Y915703411D01*
X607693475Y915946632D01*
X607486632Y916153475D01*
X607312240Y916270000D01*
X607486632Y916386525D01*
X607693475Y916593368D01*
X607855990Y916836589D01*
X607967932Y917106842D01*
X608025000Y917393740D01*
X608025000Y917686260D01*
X607967932Y917973158D01*
X607855990Y918243411D01*
X607693475Y918486632D01*
X607486632Y918693475D01*
X607312240Y918810000D01*
X607486632Y918926525D01*
X607693475Y919133368D01*
X607855990Y919376589D01*
X607967932Y919646842D01*
X608025000Y919933740D01*
X608025000Y920226260D01*
X607967932Y920513158D01*
X607855990Y920783411D01*
X607693475Y921026632D01*
X607486632Y921233475D01*
X607312240Y921350000D01*
X607486632Y921466525D01*
X607693475Y921673368D01*
X607855990Y921916589D01*
X607967932Y922186842D01*
X608025000Y922473740D01*
X608025000Y922766260D01*
X607967932Y923053158D01*
X607855990Y923323411D01*
X607693475Y923566632D01*
X607486632Y923773475D01*
X607312240Y923890000D01*
X607486632Y924006525D01*
X607693475Y924213368D01*
X607855990Y924456589D01*
X607967932Y924726842D01*
X608025000Y925013740D01*
X608025000Y925306260D01*
X607967932Y925593158D01*
X607855990Y925863411D01*
X607693475Y926106632D01*
X607486632Y926313475D01*
X607312240Y926430000D01*
X607486632Y926546525D01*
X607693475Y926753368D01*
X607855990Y926996589D01*
X607967932Y927266842D01*
X608025000Y927553740D01*
X608025000Y927846260D01*
X607967932Y928133158D01*
X607855990Y928403411D01*
X607693475Y928646632D01*
X607486632Y928853475D01*
X607312240Y928970000D01*
X607486632Y929086525D01*
X607693475Y929293368D01*
X607855990Y929536589D01*
X607967932Y929806842D01*
X608025000Y930093740D01*
X608025000Y930386260D01*
X607967932Y930673158D01*
X607855990Y930943411D01*
X607693475Y931186632D01*
X607486632Y931393475D01*
X607312240Y931510000D01*
X607486632Y931626525D01*
X607693475Y931833368D01*
X607855990Y932076589D01*
X607967932Y932346842D01*
X608025000Y932633740D01*
X608025000Y932926260D01*
X607967932Y933213158D01*
X607855990Y933483411D01*
X607693475Y933726632D01*
X607486632Y933933475D01*
X607304466Y934055195D01*
X607421355Y934124822D01*
X607637588Y934319731D01*
X607811641Y934553080D01*
X607936825Y934815901D01*
X607981476Y934963110D01*
X607860156Y935192998D01*
X608025000Y935192998D01*
X608025000Y935249843D01*
X621475001Y921799842D01*
G04 #@! TA.AperFunction,Conductor*
D23*
G36*
X621475001Y921799842D02*
G01*
X621475000Y911912212D01*
X621355276Y911862620D01*
X621042446Y911653594D01*
X620776406Y911387554D01*
X620567380Y911074724D01*
X620423400Y910727127D01*
X620350000Y910358119D01*
X620350000Y909981881D01*
X620423400Y909612873D01*
X620567380Y909265276D01*
X620776406Y908952446D01*
X621042446Y908686406D01*
X621355276Y908477380D01*
X621702873Y908333400D01*
X622071881Y908260000D01*
X622448119Y908260000D01*
X622817127Y908333400D01*
X623164724Y908477380D01*
X623477554Y908686406D01*
X623629733Y908838585D01*
X625908190Y908838585D01*
X626037116Y908546055D01*
X626373586Y908377704D01*
X626736435Y908278229D01*
X627111718Y908251455D01*
X627485015Y908298409D01*
X627841978Y908417287D01*
X628082884Y908546055D01*
X628211810Y908838585D01*
X627060000Y909990395D01*
X625908190Y908838585D01*
X623629733Y908838585D01*
X623743594Y908952446D01*
X623952620Y909265276D01*
X624096600Y909612873D01*
X624170000Y909981881D01*
X624170000Y910118282D01*
X625141455Y910118282D01*
X625188409Y909744985D01*
X625307287Y909388022D01*
X625436055Y909147116D01*
X625728585Y909018190D01*
X626880395Y910170000D01*
X627239605Y910170000D01*
X628391415Y909018190D01*
X628683945Y909147116D01*
X628852296Y909483586D01*
X628951771Y909846435D01*
X628978545Y910221718D01*
X628931591Y910595015D01*
X628812713Y910951978D01*
X628683945Y911192884D01*
X628391415Y911321810D01*
X627239605Y910170000D01*
X626880395Y910170000D01*
X625728585Y911321810D01*
X625436055Y911192884D01*
X625267704Y910856414D01*
X625168229Y910493565D01*
X625141455Y910118282D01*
X624170000Y910118282D01*
X624170000Y910358119D01*
X624096600Y910727127D01*
X623952620Y911074724D01*
X623743594Y911387554D01*
X623629733Y911501415D01*
X625908190Y911501415D01*
X627060000Y910349605D01*
X628211810Y911501415D01*
X628082884Y911793945D01*
X627746414Y911962296D01*
X627383565Y912061771D01*
X627008282Y912088545D01*
X626634985Y912041591D01*
X626278022Y911922713D01*
X626037116Y911793945D01*
X625908190Y911501415D01*
X623629733Y911501415D01*
X623477554Y911653594D01*
X623164724Y911862620D01*
X623045000Y911912212D01*
X623045000Y913907651D01*
X628762256Y913907651D01*
X628876118Y913627910D01*
X629191296Y913472039D01*
X629530826Y913380651D01*
X629881661Y913357259D01*
X630230319Y913402760D01*
X630563400Y913515406D01*
X630773882Y913627910D01*
X630887744Y913907651D01*
X629825000Y914970395D01*
X628762256Y913907651D01*
X623045000Y913907651D01*
X623045000Y915093339D01*
X628032259Y915093339D01*
X628077760Y914744681D01*
X628190406Y914411600D01*
X628302910Y914201118D01*
X628582651Y914087256D01*
X629645395Y915150000D01*
X630004605Y915150000D01*
X631067349Y914087256D01*
X631347090Y914201118D01*
X631502961Y914516296D01*
X631594349Y914855826D01*
X631617741Y915206661D01*
X631572240Y915555319D01*
X631459594Y915888400D01*
X631347090Y916098882D01*
X631067349Y916212744D01*
X630004605Y915150000D01*
X629645395Y915150000D01*
X628582651Y916212744D01*
X628302910Y916098882D01*
X628147039Y915783704D01*
X628055651Y915444174D01*
X628032259Y915093339D01*
X623045000Y915093339D01*
X623045000Y916392349D01*
X628762256Y916392349D01*
X629825000Y915329605D01*
X630887744Y916392349D01*
X630773882Y916672090D01*
X630458704Y916827961D01*
X630119174Y916919349D01*
X629768339Y916942741D01*
X629419681Y916897240D01*
X629086600Y916784594D01*
X628876118Y916672090D01*
X628762256Y916392349D01*
X623045000Y916392349D01*
X623045000Y920229843D01*
X625272653Y918002190D01*
X625297236Y917972236D01*
X625416767Y917874138D01*
X625553140Y917801246D01*
X625701113Y917756358D01*
X625776026Y917748980D01*
X625816439Y917745000D01*
X625816444Y917745000D01*
X625855000Y917741203D01*
X625893556Y917745000D01*
X636065208Y917745000D01*
X636166525Y917593368D01*
X636373368Y917386525D01*
X636616589Y917224010D01*
X636886842Y917112068D01*
X637173740Y917055000D01*
X637466260Y917055000D01*
X637753158Y917112068D01*
X638023411Y917224010D01*
X638266632Y917386525D01*
X638473475Y917593368D01*
X638590000Y917767760D01*
X638706525Y917593368D01*
X638913368Y917386525D01*
X639135000Y917238435D01*
X639135001Y915328072D01*
X639080000Y915328072D01*
X638955518Y915315812D01*
X638835820Y915279502D01*
X638725506Y915220537D01*
X638628815Y915141185D01*
X638549463Y915044494D01*
X638490498Y914934180D01*
X638454188Y914814482D01*
X638441928Y914690000D01*
X638441928Y912990000D01*
X638454188Y912865518D01*
X638490498Y912745820D01*
X638549463Y912635506D01*
X638628815Y912538815D01*
X638725506Y912459463D01*
X638835820Y912400498D01*
X638908380Y912378487D01*
X638776525Y912246632D01*
X638668526Y912085000D01*
X634098556Y912085000D01*
X634060000Y912088797D01*
X634021444Y912085000D01*
X634021439Y912085000D01*
X633981026Y912081020D01*
X633906113Y912073642D01*
X633758140Y912028754D01*
X633621767Y911955862D01*
X633502236Y911857764D01*
X633477653Y911827810D01*
X627249844Y905600001D01*
X607818178Y905600001D01*
X607693475Y905786632D01*
X607486632Y905993475D01*
X607312240Y906110000D01*
X607486632Y906226525D01*
X607693475Y906433368D01*
X607855990Y906676589D01*
X607967932Y906946842D01*
X608025000Y907233740D01*
X608025000Y907526260D01*
X607967932Y907813158D01*
X607855990Y908083411D01*
X607693475Y908326632D01*
X607486632Y908533475D01*
X607312240Y908650000D01*
X607486632Y908766525D01*
X607693475Y908973368D01*
X607855990Y909216589D01*
X607967932Y909486842D01*
X608025000Y909773740D01*
X608025000Y910066260D01*
X607967932Y910353158D01*
X607855990Y910623411D01*
X607693475Y910866632D01*
X607486632Y911073475D01*
X607312240Y911190000D01*
X607486632Y911306525D01*
X607693475Y911513368D01*
X607855990Y911756589D01*
X607967932Y912026842D01*
X608025000Y912313740D01*
X608025000Y912606260D01*
X607967932Y912893158D01*
X607855990Y913163411D01*
X607693475Y913406632D01*
X607486632Y913613475D01*
X607312240Y913730000D01*
X607486632Y913846525D01*
X607693475Y914053368D01*
X607855990Y914296589D01*
X607967932Y914566842D01*
X608025000Y914853740D01*
X608025000Y915146260D01*
X607989286Y915325807D01*
X612640000Y915325807D01*
X612640000Y914974193D01*
X612708596Y914629335D01*
X612843153Y914304485D01*
X613038500Y914012129D01*
X613287129Y913763500D01*
X613579485Y913568153D01*
X613640000Y913543087D01*
X613640001Y911763563D01*
X613636203Y911725000D01*
X613651359Y911571114D01*
X613696246Y911423141D01*
X613696247Y911423140D01*
X613769139Y911286767D01*
X613809690Y911237356D01*
X613842655Y911197188D01*
X613842659Y911197184D01*
X613867237Y911167236D01*
X613897185Y911142658D01*
X615397658Y909642184D01*
X615422236Y909612236D01*
X615452184Y909587658D01*
X615452187Y909587655D01*
X615481559Y909563550D01*
X615541767Y909514138D01*
X615546928Y909511379D01*
X615546928Y909144999D01*
X615563992Y908971745D01*
X615614528Y908805149D01*
X615696595Y908651613D01*
X615807038Y908517038D01*
X615941613Y908406595D01*
X616095149Y908324528D01*
X616261745Y908273992D01*
X616434999Y908256928D01*
X618485001Y908256928D01*
X618658255Y908273992D01*
X618824851Y908324528D01*
X618978387Y908406595D01*
X619112962Y908517038D01*
X619223405Y908651613D01*
X619305472Y908805149D01*
X619356008Y908971745D01*
X619373072Y909144999D01*
X619373072Y911195001D01*
X619356008Y911368255D01*
X619305472Y911534851D01*
X619223405Y911688387D01*
X619112962Y911822962D01*
X618978387Y911933405D01*
X618824851Y912015472D01*
X618658255Y912066008D01*
X618485001Y912083072D01*
X616434999Y912083072D01*
X616261745Y912066008D01*
X616095149Y912015472D01*
X615941613Y911933405D01*
X615807038Y911822962D01*
X615696595Y911688387D01*
X615653115Y911607042D01*
X615210000Y912050157D01*
X615210000Y913543087D01*
X615270515Y913568153D01*
X615562871Y913763500D01*
X615811500Y914012129D01*
X616006847Y914304485D01*
X616141404Y914629335D01*
X616210000Y914974193D01*
X616210000Y915325807D01*
X616141404Y915670665D01*
X616006847Y915995515D01*
X615811500Y916287871D01*
X615562871Y916536500D01*
X615270515Y916731847D01*
X614945665Y916866404D01*
X614600807Y916935000D01*
X614249193Y916935000D01*
X613904335Y916866404D01*
X613579485Y916731847D01*
X613287129Y916536500D01*
X613038500Y916287871D01*
X612843153Y915995515D01*
X612708596Y915670665D01*
X612640000Y915325807D01*
X607989286Y915325807D01*
X607967932Y915433158D01*
X607855990Y915703411D01*
X607693475Y915946632D01*
X607486632Y916153475D01*
X607312240Y916270000D01*
X607486632Y916386525D01*
X607693475Y916593368D01*
X607855990Y916836589D01*
X607967932Y917106842D01*
X608025000Y917393740D01*
X608025000Y917686260D01*
X607967932Y917973158D01*
X607855990Y918243411D01*
X607693475Y918486632D01*
X607486632Y918693475D01*
X607312240Y918810000D01*
X607486632Y918926525D01*
X607693475Y919133368D01*
X607855990Y919376589D01*
X607967932Y919646842D01*
X608025000Y919933740D01*
X608025000Y920226260D01*
X607967932Y920513158D01*
X607855990Y920783411D01*
X607693475Y921026632D01*
X607486632Y921233475D01*
X607312240Y921350000D01*
X607486632Y921466525D01*
X607693475Y921673368D01*
X607855990Y921916589D01*
X607967932Y922186842D01*
X608025000Y922473740D01*
X608025000Y922766260D01*
X607967932Y923053158D01*
X607855990Y923323411D01*
X607693475Y923566632D01*
X607486632Y923773475D01*
X607312240Y923890000D01*
X607486632Y924006525D01*
X607693475Y924213368D01*
X607855990Y924456589D01*
X607967932Y924726842D01*
X608025000Y925013740D01*
X608025000Y925306260D01*
X607967932Y925593158D01*
X607855990Y925863411D01*
X607693475Y926106632D01*
X607486632Y926313475D01*
X607312240Y926430000D01*
X607486632Y926546525D01*
X607693475Y926753368D01*
X607855990Y926996589D01*
X607967932Y927266842D01*
X608025000Y927553740D01*
X608025000Y927846260D01*
X607967932Y928133158D01*
X607855990Y928403411D01*
X607693475Y928646632D01*
X607486632Y928853475D01*
X607312240Y928970000D01*
X607486632Y929086525D01*
X607693475Y929293368D01*
X607855990Y929536589D01*
X607967932Y929806842D01*
X608025000Y930093740D01*
X608025000Y930386260D01*
X607967932Y930673158D01*
X607855990Y930943411D01*
X607693475Y931186632D01*
X607486632Y931393475D01*
X607312240Y931510000D01*
X607486632Y931626525D01*
X607693475Y931833368D01*
X607855990Y932076589D01*
X607967932Y932346842D01*
X608025000Y932633740D01*
X608025000Y932926260D01*
X607967932Y933213158D01*
X607855990Y933483411D01*
X607693475Y933726632D01*
X607486632Y933933475D01*
X607304466Y934055195D01*
X607421355Y934124822D01*
X607637588Y934319731D01*
X607811641Y934553080D01*
X607936825Y934815901D01*
X607981476Y934963110D01*
X607860156Y935192998D01*
X608025000Y935192998D01*
X608025000Y935249843D01*
X621475001Y921799842D01*
G37*
G04 #@! TD.AperFunction*
D22*
X605090436Y938184406D02*
X605055000Y938006260D01*
X605055000Y937713740D01*
X605112068Y937426842D01*
X605224010Y937156589D01*
X605386525Y936913368D01*
X605593368Y936706525D01*
X605775534Y936584805D01*
X605658645Y936515178D01*
X605442412Y936320269D01*
X605268359Y936086920D01*
X605143175Y935824099D01*
X605098524Y935676890D01*
X605219845Y935447000D01*
X606413000Y935447000D01*
X606413000Y935467000D01*
X606667000Y935467000D01*
X606667000Y935447000D01*
X606687000Y935447000D01*
X606687000Y935193000D01*
X606667000Y935193000D01*
X606667000Y935173000D01*
X606413000Y935173000D01*
X606413000Y935193000D01*
X605219845Y935193000D01*
X605098524Y934963110D01*
X605143175Y934815901D01*
X605268359Y934553080D01*
X605442412Y934319731D01*
X605658645Y934124822D01*
X605775534Y934055195D01*
X605593368Y933933475D01*
X605386525Y933726632D01*
X605224010Y933483411D01*
X605112068Y933213158D01*
X605055000Y932926260D01*
X605055000Y932633740D01*
X605112068Y932346842D01*
X605224010Y932076589D01*
X605386525Y931833368D01*
X605593368Y931626525D01*
X605767760Y931510000D01*
X605593368Y931393475D01*
X605386525Y931186632D01*
X605224010Y930943411D01*
X605112068Y930673158D01*
X605055000Y930386260D01*
X605055000Y930093740D01*
X605112068Y929806842D01*
X605224010Y929536589D01*
X605386525Y929293368D01*
X605593368Y929086525D01*
X605767760Y928970000D01*
X605593368Y928853475D01*
X605386525Y928646632D01*
X605224010Y928403411D01*
X605112068Y928133158D01*
X605055000Y927846260D01*
X605055000Y927553740D01*
X605112068Y927266842D01*
X605224010Y926996589D01*
X605386525Y926753368D01*
X605593368Y926546525D01*
X605767760Y926430000D01*
X605593368Y926313475D01*
X605386525Y926106632D01*
X605224010Y925863411D01*
X605112068Y925593158D01*
X605055000Y925306260D01*
X605055000Y925013740D01*
X605112068Y924726842D01*
X605224010Y924456589D01*
X605386525Y924213368D01*
X605593368Y924006525D01*
X605767760Y923890000D01*
X605593368Y923773475D01*
X605386525Y923566632D01*
X605224010Y923323411D01*
X605112068Y923053158D01*
X605055000Y922766260D01*
X605055000Y922473740D01*
X605112068Y922186842D01*
X605224010Y921916589D01*
X605386525Y921673368D01*
X605593368Y921466525D01*
X605767760Y921350000D01*
X605593368Y921233475D01*
X605386525Y921026632D01*
X605224010Y920783411D01*
X605112068Y920513158D01*
X605055000Y920226260D01*
X605055000Y919933740D01*
X605112068Y919646842D01*
X605224010Y919376589D01*
X605386525Y919133368D01*
X605593368Y918926525D01*
X605767760Y918810000D01*
X605593368Y918693475D01*
X605386525Y918486632D01*
X605224010Y918243411D01*
X605112068Y917973158D01*
X605055000Y917686260D01*
X605055000Y917393740D01*
X605112068Y917106842D01*
X605224010Y916836589D01*
X605386525Y916593368D01*
X605593368Y916386525D01*
X605767760Y916270000D01*
X605593368Y916153475D01*
X605386525Y915946632D01*
X605224010Y915703411D01*
X605112068Y915433158D01*
X605055000Y915146260D01*
X605055000Y914853740D01*
X605112068Y914566842D01*
X605224010Y914296589D01*
X605386525Y914053368D01*
X605593368Y913846525D01*
X605767760Y913730000D01*
X605593368Y913613475D01*
X605386525Y913406632D01*
X605224010Y913163411D01*
X605112068Y912893158D01*
X605055000Y912606260D01*
X605055000Y912313740D01*
X605112068Y912026842D01*
X605224010Y911756589D01*
X605386525Y911513368D01*
X605593368Y911306525D01*
X605767760Y911190000D01*
X605593368Y911073475D01*
X605386525Y910866632D01*
X605224010Y910623411D01*
X605160668Y910470488D01*
X585235000Y930396155D01*
X585235000Y949801442D01*
X585238797Y949839998D01*
X585235000Y949878554D01*
X585235000Y949878559D01*
X585231020Y949918972D01*
X585223642Y949993885D01*
X585178754Y950141858D01*
X585105862Y950278231D01*
X585007764Y950397762D01*
X584977810Y950422345D01*
X580213227Y955186928D01*
X580975000Y955186928D01*
X581099482Y955199188D01*
X581219180Y955235498D01*
X581329494Y955294463D01*
X581426185Y955373815D01*
X581505537Y955470506D01*
X581564502Y955580820D01*
X581600812Y955700518D01*
X581613072Y955825000D01*
X581613072Y955890000D01*
X587384843Y955890000D01*
X605090436Y938184406D01*
G04 #@! TA.AperFunction,Conductor*
D23*
G36*
X605090436Y938184406D02*
G01*
X605055000Y938006260D01*
X605055000Y937713740D01*
X605112068Y937426842D01*
X605224010Y937156589D01*
X605386525Y936913368D01*
X605593368Y936706525D01*
X605775534Y936584805D01*
X605658645Y936515178D01*
X605442412Y936320269D01*
X605268359Y936086920D01*
X605143175Y935824099D01*
X605098524Y935676890D01*
X605219845Y935447000D01*
X606413000Y935447000D01*
X606413000Y935467000D01*
X606667000Y935467000D01*
X606667000Y935447000D01*
X606687000Y935447000D01*
X606687000Y935193000D01*
X606667000Y935193000D01*
X606667000Y935173000D01*
X606413000Y935173000D01*
X606413000Y935193000D01*
X605219845Y935193000D01*
X605098524Y934963110D01*
X605143175Y934815901D01*
X605268359Y934553080D01*
X605442412Y934319731D01*
X605658645Y934124822D01*
X605775534Y934055195D01*
X605593368Y933933475D01*
X605386525Y933726632D01*
X605224010Y933483411D01*
X605112068Y933213158D01*
X605055000Y932926260D01*
X605055000Y932633740D01*
X605112068Y932346842D01*
X605224010Y932076589D01*
X605386525Y931833368D01*
X605593368Y931626525D01*
X605767760Y931510000D01*
X605593368Y931393475D01*
X605386525Y931186632D01*
X605224010Y930943411D01*
X605112068Y930673158D01*
X605055000Y930386260D01*
X605055000Y930093740D01*
X605112068Y929806842D01*
X605224010Y929536589D01*
X605386525Y929293368D01*
X605593368Y929086525D01*
X605767760Y928970000D01*
X605593368Y928853475D01*
X605386525Y928646632D01*
X605224010Y928403411D01*
X605112068Y928133158D01*
X605055000Y927846260D01*
X605055000Y927553740D01*
X605112068Y927266842D01*
X605224010Y926996589D01*
X605386525Y926753368D01*
X605593368Y926546525D01*
X605767760Y926430000D01*
X605593368Y926313475D01*
X605386525Y926106632D01*
X605224010Y925863411D01*
X605112068Y925593158D01*
X605055000Y925306260D01*
X605055000Y925013740D01*
X605112068Y924726842D01*
X605224010Y924456589D01*
X605386525Y924213368D01*
X605593368Y924006525D01*
X605767760Y923890000D01*
X605593368Y923773475D01*
X605386525Y923566632D01*
X605224010Y923323411D01*
X605112068Y923053158D01*
X605055000Y922766260D01*
X605055000Y922473740D01*
X605112068Y922186842D01*
X605224010Y921916589D01*
X605386525Y921673368D01*
X605593368Y921466525D01*
X605767760Y921350000D01*
X605593368Y921233475D01*
X605386525Y921026632D01*
X605224010Y920783411D01*
X605112068Y920513158D01*
X605055000Y920226260D01*
X605055000Y919933740D01*
X605112068Y919646842D01*
X605224010Y919376589D01*
X605386525Y919133368D01*
X605593368Y918926525D01*
X605767760Y918810000D01*
X605593368Y918693475D01*
X605386525Y918486632D01*
X605224010Y918243411D01*
X605112068Y917973158D01*
X605055000Y917686260D01*
X605055000Y917393740D01*
X605112068Y917106842D01*
X605224010Y916836589D01*
X605386525Y916593368D01*
X605593368Y916386525D01*
X605767760Y916270000D01*
X605593368Y916153475D01*
X605386525Y915946632D01*
X605224010Y915703411D01*
X605112068Y915433158D01*
X605055000Y915146260D01*
X605055000Y914853740D01*
X605112068Y914566842D01*
X605224010Y914296589D01*
X605386525Y914053368D01*
X605593368Y913846525D01*
X605767760Y913730000D01*
X605593368Y913613475D01*
X605386525Y913406632D01*
X605224010Y913163411D01*
X605112068Y912893158D01*
X605055000Y912606260D01*
X605055000Y912313740D01*
X605112068Y912026842D01*
X605224010Y911756589D01*
X605386525Y911513368D01*
X605593368Y911306525D01*
X605767760Y911190000D01*
X605593368Y911073475D01*
X605386525Y910866632D01*
X605224010Y910623411D01*
X605160668Y910470488D01*
X585235000Y930396155D01*
X585235000Y949801442D01*
X585238797Y949839998D01*
X585235000Y949878554D01*
X585235000Y949878559D01*
X585231020Y949918972D01*
X585223642Y949993885D01*
X585178754Y950141858D01*
X585105862Y950278231D01*
X585007764Y950397762D01*
X584977810Y950422345D01*
X580213227Y955186928D01*
X580975000Y955186928D01*
X581099482Y955199188D01*
X581219180Y955235498D01*
X581329494Y955294463D01*
X581426185Y955373815D01*
X581505537Y955470506D01*
X581564502Y955580820D01*
X581600812Y955700518D01*
X581613072Y955825000D01*
X581613072Y955890000D01*
X587384843Y955890000D01*
X605090436Y938184406D01*
G37*
G04 #@! TD.AperFunction*
M02*
