M48
; DRILL file {KiCad 5.1.12-84ad8e8a86~92~ubuntu18.04.1} date mar 22 feb 2022 10:12:48 -04
; FORMAT={-:-/ absolute / metric / decimal}
; #@! TF.CreationDate,2022-02-22T10:12:48-04:00
; #@! TF.GenerationSoftware,Kicad,Pcbnew,5.1.12-84ad8e8a86~92~ubuntu18.04.1
; #@! TF.FileFunction,Plated,1,2,PTH
FMAT,2
METRIC
T1C0.900
T2C1.000
T3C1.520
T4C1.550
T5C1.854
%
G90
G05
T1
X623.045Y901.615
X625.585Y901.615
T2
X580.125Y964.295
X580.125Y961.755
X580.125Y959.215
X580.125Y956.675
X581.14Y937.86
X581.14Y935.32
X581.14Y932.78
X581.14Y930.24
X581.14Y927.7
X581.14Y925.16
X581.14Y922.62
X581.14Y920.08
X581.14Y917.54
X581.14Y915.0
X581.14Y912.46
X581.14Y909.92
X581.14Y907.38
X581.14Y904.84
X581.14Y902.3
X606.54Y937.86
X606.54Y935.32
X606.54Y932.78
X606.54Y930.24
X606.54Y927.7
X606.54Y925.16
X606.54Y922.62
X606.54Y920.08
X606.54Y917.54
X606.54Y915.0
X606.54Y912.46
X606.54Y909.92
X606.54Y907.38
X606.54Y904.84
X606.54Y902.3
X614.425Y915.15
X619.625Y944.55
X624.625Y944.55
X629.825Y915.15
X631.97Y904.73
X634.51Y904.73
X634.61Y962.17
X637.05Y904.73
X637.32Y918.54
X639.59Y904.73
X639.69Y962.16
X639.86Y918.54
X639.93Y913.84
X639.93Y911.3
X642.13Y904.73
X642.4Y918.54
X644.67Y904.73
X649.49Y962.19
X654.57Y962.18
T3
X624.7Y964.105
X624.7Y959.025
X637.17Y942.9
X642.25Y942.9
X657.96Y907.01
X662.86Y943.08
X663.04Y907.01
X667.94Y943.08
X668.12Y907.01
X673.02Y943.08
T4
X617.46Y910.17
X622.26Y910.17
X627.06Y910.17
T5
X665.9Y975.97
X665.9Y966.44
X665.9Y956.91
T0
M30
