G04 #@! TF.GenerationSoftware,KiCad,Pcbnew,5.1.12-84ad8e8a86~92~ubuntu18.04.1*
G04 #@! TF.CreationDate,2022-02-22T10:12:46-04:00*
G04 #@! TF.ProjectId,OMC_WIFI_PCB,4f4d435f-5749-4464-995f-5043422e6b69,rev?*
G04 #@! TF.SameCoordinates,Original*
G04 #@! TF.FileFunction,Copper,L2,Bot*
G04 #@! TF.FilePolarity,Positive*
%FSLAX46Y46*%
G04 Gerber Fmt 4.6, Leading zero omitted, Abs format (unit mm)*
G04 Created by KiCad (PCBNEW 5.1.12-84ad8e8a86~92~ubuntu18.04.1) date 2022-02-22 10:12:46*
%MOMM*%
%LPD*%
G01*
G04 APERTURE LIST*
G04 #@! TA.AperFunction,NonConductor*
%ADD10C,0.800000*%
G04 #@! TD*
G04 #@! TA.AperFunction,ComponentPad*
%ADD11R,1.700000X1.700000*%
G04 #@! TD*
G04 #@! TA.AperFunction,ComponentPad*
%ADD12O,1.700000X1.700000*%
G04 #@! TD*
G04 #@! TA.AperFunction,ComponentPad*
%ADD13C,2.000000*%
G04 #@! TD*
G04 #@! TA.AperFunction,ComponentPad*
%ADD14R,3.000000X3.000000*%
G04 #@! TD*
G04 #@! TA.AperFunction,ComponentPad*
%ADD15C,3.000000*%
G04 #@! TD*
G04 #@! TA.AperFunction,ComponentPad*
%ADD16R,1.800000X1.800000*%
G04 #@! TD*
G04 #@! TA.AperFunction,ComponentPad*
%ADD17C,1.800000*%
G04 #@! TD*
G04 #@! TA.AperFunction,ComponentPad*
%ADD18C,2.300000*%
G04 #@! TD*
G04 #@! TA.AperFunction,ComponentPad*
%ADD19C,2.550000*%
G04 #@! TD*
G04 #@! TA.AperFunction,Conductor*
%ADD20C,0.300000*%
G04 #@! TD*
G04 #@! TA.AperFunction,Conductor*
%ADD21C,4.000000*%
G04 #@! TD*
G04 #@! TA.AperFunction,Conductor*
%ADD22C,0.254000*%
G04 #@! TD*
G04 #@! TA.AperFunction,Conductor*
%ADD23C,0.100000*%
G04 #@! TD*
G04 APERTURE END LIST*
D10*
X655893333Y953006666D02*
X655060000Y949506666D01*
X654393333Y952006666D01*
X653726666Y949506666D01*
X652893333Y953006666D01*
X651726666Y950506666D02*
X650060000Y950506666D01*
X652060000Y949506666D02*
X650893333Y953006666D01*
X649726666Y949506666D01*
X646560000Y949506666D02*
X647726666Y951173333D01*
X648560000Y949506666D02*
X648560000Y953006666D01*
X647226666Y953006666D01*
X646893333Y952840000D01*
X646726666Y952673333D01*
X646560000Y952340000D01*
X646560000Y951840000D01*
X646726666Y951506666D01*
X646893333Y951340000D01*
X647226666Y951173333D01*
X648560000Y951173333D01*
X645060000Y949506666D02*
X645060000Y953006666D01*
X643060000Y949506666D01*
X643060000Y953006666D01*
X641393333Y949506666D02*
X641393333Y953006666D01*
X639726666Y949506666D02*
X639726666Y953006666D01*
X637726666Y949506666D01*
X637726666Y953006666D01*
X634226666Y952840000D02*
X634560000Y953006666D01*
X635060000Y953006666D01*
X635560000Y952840000D01*
X635893333Y952506666D01*
X636060000Y952173333D01*
X636226666Y951506666D01*
X636226666Y951006666D01*
X636060000Y950340000D01*
X635893333Y950006666D01*
X635560000Y949673333D01*
X635060000Y949506666D01*
X634726666Y949506666D01*
X634226666Y949673333D01*
X634060000Y949840000D01*
X634060000Y951006666D01*
X634726666Y951006666D01*
X632560000Y949840000D02*
X632393333Y949673333D01*
X632560000Y949506666D01*
X632726666Y949673333D01*
X632560000Y949840000D01*
X632560000Y949506666D01*
X632560000Y950840000D02*
X632726666Y952840000D01*
X632560000Y953006666D01*
X632393333Y952840000D01*
X632560000Y950840000D01*
X632560000Y953006666D01*
D11*
X631970000Y904730000D03*
D12*
X634510000Y904730000D03*
X637050000Y904730000D03*
X639590000Y904730000D03*
X642130000Y904730000D03*
X644670000Y904730000D03*
X639930000Y911300000D03*
D11*
X639930000Y913840000D03*
D13*
X639690000Y962160000D03*
X634610000Y962170000D03*
X654570000Y962180000D03*
X649490000Y962190000D03*
D14*
X624700000Y959025000D03*
D15*
X624700000Y964105000D03*
X657960000Y907010000D03*
X663040000Y907010000D03*
D14*
X668120000Y907010000D03*
X642250000Y942900000D03*
D15*
X637170000Y942900000D03*
X662860000Y943080000D03*
X667940000Y943080000D03*
D14*
X673020000Y943080000D03*
D16*
X625585000Y901615000D03*
D17*
X623045000Y901615000D03*
D11*
X606540000Y902300000D03*
D12*
X606540000Y904840000D03*
X606540000Y907380000D03*
X606540000Y909920000D03*
X606540000Y912460000D03*
X606540000Y915000000D03*
X606540000Y917540000D03*
X606540000Y920080000D03*
X606540000Y922620000D03*
X606540000Y925160000D03*
X606540000Y927700000D03*
X606540000Y930240000D03*
X606540000Y932780000D03*
X606540000Y935320000D03*
X606540000Y937860000D03*
D11*
X581140000Y902300000D03*
D12*
X581140000Y904840000D03*
X581140000Y907380000D03*
X581140000Y909920000D03*
X581140000Y912460000D03*
X581140000Y915000000D03*
X581140000Y917540000D03*
X581140000Y920080000D03*
X581140000Y922620000D03*
X581140000Y925160000D03*
X581140000Y927700000D03*
X581140000Y930240000D03*
X581140000Y932780000D03*
X581140000Y935320000D03*
X581140000Y937860000D03*
D15*
X665900000Y975970000D03*
X665900000Y966440000D03*
D14*
X665900000Y956910000D03*
D12*
X637320000Y918540000D03*
X639860000Y918540000D03*
D11*
X642400000Y918540000D03*
D12*
X580125000Y964295000D03*
X580125000Y961755000D03*
X580125000Y959215000D03*
D11*
X580125000Y956675000D03*
D18*
X629825000Y915150000D03*
D14*
X624625000Y944550000D03*
D15*
X619625000Y944550000D03*
D18*
X614425000Y915150000D03*
D19*
X627060000Y910170000D03*
X622260000Y910170000D03*
G04 #@! TA.AperFunction,ComponentPad*
G36*
G01*
X616185000Y909144999D02*
X616185000Y911195001D01*
G75*
G02*
X616434999Y911445000I249999J0D01*
G01*
X618485001Y911445000D01*
G75*
G02*
X618735000Y911195001I0J-249999D01*
G01*
X618735000Y909144999D01*
G75*
G02*
X618485001Y908895000I-249999J0D01*
G01*
X616434999Y908895000D01*
G75*
G02*
X616185000Y909144999I0J249999D01*
G01*
G37*
G04 #@! TD.AperFunction*
D20*
X607789998Y916215000D02*
X606549999Y914975001D01*
X608324999Y916750001D02*
X607789998Y916215000D01*
X658529999Y916750001D02*
X608324999Y916750001D01*
X668220000Y907060000D02*
X658529999Y916750001D01*
X588120011Y900399989D02*
X581140000Y907380000D01*
X607998533Y900399989D02*
X588120011Y900399989D01*
X611028543Y903429999D02*
X607998533Y900399989D01*
X633209999Y903429999D02*
X611028543Y903429999D01*
X634510000Y904730000D02*
X633209999Y903429999D01*
X607750001Y900999999D02*
X590060001Y900999999D01*
X590060001Y900999999D02*
X581140000Y909920000D01*
X612780003Y906030001D02*
X607750001Y900999999D01*
X635134001Y906030001D02*
X612780003Y906030001D01*
X636434002Y904730000D02*
X635134001Y906030001D01*
X637050000Y904730000D02*
X636434002Y904730000D01*
D21*
X631465000Y959025000D02*
X624700000Y959025000D01*
X634610000Y962170000D02*
X631465000Y959025000D01*
X624625000Y958950000D02*
X624700000Y959025000D01*
X624625000Y944550000D02*
X624625000Y958950000D01*
X626275000Y942900000D02*
X624625000Y944550000D01*
X637170000Y942900000D02*
X626275000Y942900000D01*
X634620000Y962160000D02*
X634610000Y962170000D01*
X639690000Y962160000D02*
X634620000Y962160000D01*
X667940000Y954870000D02*
X665900000Y956910000D01*
X667940000Y943080000D02*
X667940000Y954870000D01*
X662680000Y942900000D02*
X662860000Y943080000D01*
X642250000Y942900000D02*
X662680000Y942900000D01*
X636565000Y975970000D02*
X624700000Y964105000D01*
X665900000Y975970000D02*
X636565000Y975970000D01*
X621379998Y964105000D02*
X624700000Y964105000D01*
X619625000Y962350002D02*
X621379998Y964105000D01*
X619625000Y944550000D02*
X619625000Y962350002D01*
X658830000Y966440000D02*
X654570000Y962180000D01*
X665900000Y966440000D02*
X658830000Y966440000D01*
X654560000Y962190000D02*
X654570000Y962180000D01*
X649490000Y962190000D02*
X654560000Y962190000D01*
D22*
X615843000Y938600000D02*
X615845440Y938575224D01*
X615852667Y938551399D01*
X615864403Y938529443D01*
X615880197Y938510197D01*
X615899443Y938494403D01*
X615921399Y938482667D01*
X615945224Y938475440D01*
X615970000Y938473000D01*
X679100000Y938473000D01*
X679100000Y899510000D01*
X577240000Y899510000D01*
X577240000Y903150000D01*
X579651928Y903150000D01*
X579651928Y901450000D01*
X579664188Y901325518D01*
X579700498Y901205820D01*
X579759463Y901095506D01*
X579838815Y900998815D01*
X579935506Y900919463D01*
X580045820Y900860498D01*
X580165518Y900824188D01*
X580290000Y900811928D01*
X581990000Y900811928D01*
X582114482Y900824188D01*
X582234180Y900860498D01*
X582344494Y900919463D01*
X582441185Y900998815D01*
X582520537Y901095506D01*
X582579502Y901205820D01*
X582615812Y901325518D01*
X582628072Y901450000D01*
X582628072Y903150000D01*
X582615812Y903274482D01*
X582579502Y903394180D01*
X582520537Y903504494D01*
X582441185Y903601185D01*
X582344494Y903680537D01*
X582234180Y903739502D01*
X582161620Y903761513D01*
X582293475Y903893368D01*
X582455990Y904136589D01*
X582567932Y904406842D01*
X582625000Y904693740D01*
X582625000Y904784843D01*
X587537669Y899872173D01*
X587562247Y899842225D01*
X587592195Y899817647D01*
X587592198Y899817644D01*
X587621570Y899793539D01*
X587681778Y899744127D01*
X587818151Y899671235D01*
X587931683Y899636795D01*
X587966123Y899626348D01*
X587980501Y899624932D01*
X588081450Y899614989D01*
X588081457Y899614989D01*
X588120010Y899611192D01*
X588158563Y899614989D01*
X607959980Y899614989D01*
X607998533Y899611192D01*
X608037086Y899614989D01*
X608037094Y899614989D01*
X608152420Y899626348D01*
X608300393Y899671235D01*
X608436766Y899744127D01*
X608556297Y899842225D01*
X608580880Y899872179D01*
X611353701Y902644999D01*
X621904182Y902644999D01*
X621852688Y902593505D01*
X621684701Y902342095D01*
X621568989Y902062743D01*
X621510000Y901766184D01*
X621510000Y901463816D01*
X621568989Y901167257D01*
X621684701Y900887905D01*
X621852688Y900636495D01*
X622066495Y900422688D01*
X622317905Y900254701D01*
X622597257Y900138989D01*
X622893816Y900080000D01*
X623196184Y900080000D01*
X623492743Y900138989D01*
X623772095Y900254701D01*
X624023505Y900422688D01*
X624089944Y900489127D01*
X624095498Y900470820D01*
X624154463Y900360506D01*
X624233815Y900263815D01*
X624330506Y900184463D01*
X624440820Y900125498D01*
X624560518Y900089188D01*
X624685000Y900076928D01*
X625299250Y900080000D01*
X625458000Y900238750D01*
X625458000Y901488000D01*
X625712000Y901488000D01*
X625712000Y900238750D01*
X625870750Y900080000D01*
X626485000Y900076928D01*
X626609482Y900089188D01*
X626729180Y900125498D01*
X626839494Y900184463D01*
X626936185Y900263815D01*
X627015537Y900360506D01*
X627074502Y900470820D01*
X627110812Y900590518D01*
X627123072Y900715000D01*
X627120000Y901329250D01*
X626961250Y901488000D01*
X625712000Y901488000D01*
X625458000Y901488000D01*
X625438000Y901488000D01*
X625438000Y901742000D01*
X625458000Y901742000D01*
X625458000Y901762000D01*
X625712000Y901762000D01*
X625712000Y901742000D01*
X626961250Y901742000D01*
X627120000Y901900750D01*
X627123072Y902515000D01*
X627110812Y902639482D01*
X627109138Y902644999D01*
X633171446Y902644999D01*
X633209999Y902641202D01*
X633248552Y902644999D01*
X633248560Y902644999D01*
X633363886Y902656358D01*
X633511859Y902701245D01*
X633648232Y902774137D01*
X633767763Y902872235D01*
X633792346Y902902189D01*
X634173082Y903282925D01*
X634363740Y903245000D01*
X634656260Y903245000D01*
X634943158Y903302068D01*
X635213411Y903414010D01*
X635456632Y903576525D01*
X635663475Y903783368D01*
X635780000Y903957760D01*
X635896525Y903783368D01*
X636103368Y903576525D01*
X636346589Y903414010D01*
X636616842Y903302068D01*
X636903740Y903245000D01*
X637196260Y903245000D01*
X637483158Y903302068D01*
X637753411Y903414010D01*
X637996632Y903576525D01*
X638203475Y903783368D01*
X638320000Y903957760D01*
X638436525Y903783368D01*
X638643368Y903576525D01*
X638886589Y903414010D01*
X639156842Y903302068D01*
X639443740Y903245000D01*
X639736260Y903245000D01*
X640023158Y903302068D01*
X640293411Y903414010D01*
X640536632Y903576525D01*
X640743475Y903783368D01*
X640860000Y903957760D01*
X640976525Y903783368D01*
X641183368Y903576525D01*
X641426589Y903414010D01*
X641696842Y903302068D01*
X641983740Y903245000D01*
X642276260Y903245000D01*
X642563158Y903302068D01*
X642833411Y903414010D01*
X643076632Y903576525D01*
X643283475Y903783368D01*
X643405195Y903965534D01*
X643474822Y903848645D01*
X643669731Y903632412D01*
X643903080Y903458359D01*
X644165901Y903333175D01*
X644313110Y903288524D01*
X644543000Y903409845D01*
X644543000Y904603000D01*
X644797000Y904603000D01*
X644797000Y903409845D01*
X645026890Y903288524D01*
X645174099Y903333175D01*
X645436920Y903458359D01*
X645670269Y903632412D01*
X645865178Y903848645D01*
X646014157Y904098748D01*
X646111481Y904373109D01*
X645990814Y904603000D01*
X644797000Y904603000D01*
X644543000Y904603000D01*
X644523000Y904603000D01*
X644523000Y904857000D01*
X644543000Y904857000D01*
X644543000Y906050155D01*
X644797000Y906050155D01*
X644797000Y904857000D01*
X645990814Y904857000D01*
X646111481Y905086891D01*
X646014157Y905361252D01*
X645865178Y905611355D01*
X645670269Y905827588D01*
X645436920Y906001641D01*
X645174099Y906126825D01*
X645026890Y906171476D01*
X644797000Y906050155D01*
X644543000Y906050155D01*
X644313110Y906171476D01*
X644165901Y906126825D01*
X643903080Y906001641D01*
X643669731Y905827588D01*
X643474822Y905611355D01*
X643405195Y905494466D01*
X643283475Y905676632D01*
X643076632Y905883475D01*
X642833411Y906045990D01*
X642563158Y906157932D01*
X642276260Y906215000D01*
X641983740Y906215000D01*
X641696842Y906157932D01*
X641426589Y906045990D01*
X641183368Y905883475D01*
X640976525Y905676632D01*
X640860000Y905502240D01*
X640743475Y905676632D01*
X640536632Y905883475D01*
X640293411Y906045990D01*
X640023158Y906157932D01*
X639736260Y906215000D01*
X639443740Y906215000D01*
X639156842Y906157932D01*
X638886589Y906045990D01*
X638643368Y905883475D01*
X638436525Y905676632D01*
X638320000Y905502240D01*
X638203475Y905676632D01*
X637996632Y905883475D01*
X637753411Y906045990D01*
X637483158Y906157932D01*
X637196260Y906215000D01*
X636903740Y906215000D01*
X636616842Y906157932D01*
X636346589Y906045990D01*
X636275602Y905998558D01*
X635716348Y906557811D01*
X635691765Y906587765D01*
X635572234Y906685863D01*
X635435861Y906758755D01*
X635287888Y906803642D01*
X635172562Y906815001D01*
X635172554Y906815001D01*
X635134001Y906818798D01*
X635095448Y906815001D01*
X612818555Y906815001D01*
X612780002Y906818798D01*
X612741449Y906815001D01*
X612741442Y906815001D01*
X612626116Y906803642D01*
X612478143Y906758755D01*
X612341770Y906685863D01*
X612281562Y906636451D01*
X612252190Y906612346D01*
X612252187Y906612343D01*
X612222239Y906587765D01*
X612197661Y906557817D01*
X608028072Y902388227D01*
X608028072Y903150000D01*
X608015812Y903274482D01*
X607979502Y903394180D01*
X607920537Y903504494D01*
X607841185Y903601185D01*
X607744494Y903680537D01*
X607634180Y903739502D01*
X607561620Y903761513D01*
X607693475Y903893368D01*
X607855990Y904136589D01*
X607967932Y904406842D01*
X608025000Y904693740D01*
X608025000Y904986260D01*
X607967932Y905273158D01*
X607855990Y905543411D01*
X607693475Y905786632D01*
X607486632Y905993475D01*
X607312240Y906110000D01*
X607486632Y906226525D01*
X607693475Y906433368D01*
X607855990Y906676589D01*
X607967932Y906946842D01*
X608022322Y907220279D01*
X655825000Y907220279D01*
X655825000Y906799721D01*
X655907047Y906387244D01*
X656067988Y905998698D01*
X656301637Y905649017D01*
X656599017Y905351637D01*
X656948698Y905117988D01*
X657337244Y904957047D01*
X657749721Y904875000D01*
X658170279Y904875000D01*
X658582756Y904957047D01*
X658971302Y905117988D01*
X659320983Y905351637D01*
X659487693Y905518347D01*
X661727952Y905518347D01*
X661883962Y905202786D01*
X662258745Y905011980D01*
X662663551Y904897956D01*
X663082824Y904865098D01*
X663500451Y904914666D01*
X663900383Y905044757D01*
X664196038Y905202786D01*
X664352048Y905518347D01*
X663040000Y906830395D01*
X661727952Y905518347D01*
X659487693Y905518347D01*
X659618363Y905649017D01*
X659852012Y905998698D01*
X660012953Y906387244D01*
X660095000Y906799721D01*
X660095000Y906967176D01*
X660895098Y906967176D01*
X660944666Y906549549D01*
X661074757Y906149617D01*
X661232786Y905853962D01*
X661548347Y905697952D01*
X662860395Y907010000D01*
X663219605Y907010000D01*
X664531653Y905697952D01*
X664847214Y905853962D01*
X665038020Y906228745D01*
X665152044Y906633551D01*
X665184902Y907052824D01*
X665135334Y907470451D01*
X665005243Y907870383D01*
X664847214Y908166038D01*
X664531653Y908322048D01*
X663219605Y907010000D01*
X662860395Y907010000D01*
X661548347Y908322048D01*
X661232786Y908166038D01*
X661041980Y907791255D01*
X660927956Y907386449D01*
X660895098Y906967176D01*
X660095000Y906967176D01*
X660095000Y907220279D01*
X660012953Y907632756D01*
X659852012Y908021302D01*
X659618363Y908370983D01*
X659487693Y908501653D01*
X661727952Y908501653D01*
X663040000Y907189605D01*
X664352048Y908501653D01*
X664196038Y908817214D01*
X663821255Y909008020D01*
X663416449Y909122044D01*
X662997176Y909154902D01*
X662579549Y909105334D01*
X662179617Y908975243D01*
X661883962Y908817214D01*
X661727952Y908501653D01*
X659487693Y908501653D01*
X659320983Y908668363D01*
X658971302Y908902012D01*
X658582756Y909062953D01*
X658170279Y909145000D01*
X657749721Y909145000D01*
X657337244Y909062953D01*
X656948698Y908902012D01*
X656599017Y908668363D01*
X656301637Y908370983D01*
X656067988Y908021302D01*
X655907047Y907632756D01*
X655825000Y907220279D01*
X608022322Y907220279D01*
X608025000Y907233740D01*
X608025000Y907526260D01*
X607967932Y907813158D01*
X607855990Y908083411D01*
X607693475Y908326632D01*
X607486632Y908533475D01*
X607312240Y908650000D01*
X607486632Y908766525D01*
X607693475Y908973368D01*
X607855990Y909216589D01*
X607967932Y909486842D01*
X608025000Y909773740D01*
X608025000Y910066260D01*
X607967932Y910353158D01*
X607855990Y910623411D01*
X607693475Y910866632D01*
X607486632Y911073475D01*
X607312240Y911190000D01*
X607319724Y911195001D01*
X615546928Y911195001D01*
X615546928Y909144999D01*
X615563992Y908971745D01*
X615614528Y908805149D01*
X615696595Y908651613D01*
X615807038Y908517038D01*
X615941613Y908406595D01*
X616095149Y908324528D01*
X616261745Y908273992D01*
X616434999Y908256928D01*
X618485001Y908256928D01*
X618658255Y908273992D01*
X618824851Y908324528D01*
X618978387Y908406595D01*
X619112962Y908517038D01*
X619223405Y908651613D01*
X619305472Y908805149D01*
X619356008Y908971745D01*
X619373072Y909144999D01*
X619373072Y910358119D01*
X620350000Y910358119D01*
X620350000Y909981881D01*
X620423400Y909612873D01*
X620567380Y909265276D01*
X620776406Y908952446D01*
X621042446Y908686406D01*
X621355276Y908477380D01*
X621702873Y908333400D01*
X622071881Y908260000D01*
X622448119Y908260000D01*
X622817127Y908333400D01*
X623164724Y908477380D01*
X623477554Y908686406D01*
X623629733Y908838585D01*
X625908190Y908838585D01*
X626037116Y908546055D01*
X626373586Y908377704D01*
X626736435Y908278229D01*
X627111718Y908251455D01*
X627485015Y908298409D01*
X627841978Y908417287D01*
X628082884Y908546055D01*
X628211810Y908838585D01*
X627060000Y909990395D01*
X625908190Y908838585D01*
X623629733Y908838585D01*
X623743594Y908952446D01*
X623952620Y909265276D01*
X624096600Y909612873D01*
X624170000Y909981881D01*
X624170000Y910118282D01*
X625141455Y910118282D01*
X625188409Y909744985D01*
X625307287Y909388022D01*
X625436055Y909147116D01*
X625728585Y909018190D01*
X626880395Y910170000D01*
X627239605Y910170000D01*
X628391415Y909018190D01*
X628683945Y909147116D01*
X628852296Y909483586D01*
X628951771Y909846435D01*
X628978545Y910221718D01*
X628931591Y910595015D01*
X628812713Y910951978D01*
X628683945Y911192884D01*
X628391415Y911321810D01*
X627239605Y910170000D01*
X626880395Y910170000D01*
X625728585Y911321810D01*
X625436055Y911192884D01*
X625267704Y910856414D01*
X625168229Y910493565D01*
X625141455Y910118282D01*
X624170000Y910118282D01*
X624170000Y910358119D01*
X624096600Y910727127D01*
X623952620Y911074724D01*
X623743594Y911387554D01*
X623629733Y911501415D01*
X625908190Y911501415D01*
X627060000Y910349605D01*
X628211810Y911501415D01*
X628082884Y911793945D01*
X627746414Y911962296D01*
X627383565Y912061771D01*
X627008282Y912088545D01*
X626634985Y912041591D01*
X626278022Y911922713D01*
X626037116Y911793945D01*
X625908190Y911501415D01*
X623629733Y911501415D01*
X623477554Y911653594D01*
X623164724Y911862620D01*
X622817127Y912006600D01*
X622448119Y912080000D01*
X622071881Y912080000D01*
X621702873Y912006600D01*
X621355276Y911862620D01*
X621042446Y911653594D01*
X620776406Y911387554D01*
X620567380Y911074724D01*
X620423400Y910727127D01*
X620350000Y910358119D01*
X619373072Y910358119D01*
X619373072Y911195001D01*
X619356008Y911368255D01*
X619305472Y911534851D01*
X619223405Y911688387D01*
X619112962Y911822962D01*
X618978387Y911933405D01*
X618824851Y912015472D01*
X618658255Y912066008D01*
X618485001Y912083072D01*
X616434999Y912083072D01*
X616261745Y912066008D01*
X616095149Y912015472D01*
X615941613Y911933405D01*
X615807038Y911822962D01*
X615696595Y911688387D01*
X615614528Y911534851D01*
X615563992Y911368255D01*
X615546928Y911195001D01*
X607319724Y911195001D01*
X607486632Y911306525D01*
X607693475Y911513368D01*
X607855990Y911756589D01*
X607967932Y912026842D01*
X608025000Y912313740D01*
X608025000Y912606260D01*
X607967932Y912893158D01*
X607855990Y913163411D01*
X607693475Y913406632D01*
X607486632Y913613475D01*
X607312240Y913730000D01*
X607486632Y913846525D01*
X607693475Y914053368D01*
X607855990Y914296589D01*
X607967932Y914566842D01*
X608025000Y914853740D01*
X608025000Y915146260D01*
X607992882Y915307726D01*
X608372343Y915687187D01*
X608372348Y915687193D01*
X608650156Y915965001D01*
X612830514Y915965001D01*
X612708596Y915670665D01*
X612640000Y915325807D01*
X612640000Y914974193D01*
X612708596Y914629335D01*
X612843153Y914304485D01*
X613038500Y914012129D01*
X613287129Y913763500D01*
X613579485Y913568153D01*
X613904335Y913433596D01*
X614249193Y913365000D01*
X614600807Y913365000D01*
X614945665Y913433596D01*
X615270515Y913568153D01*
X615562871Y913763500D01*
X615707022Y913907651D01*
X628762256Y913907651D01*
X628876118Y913627910D01*
X629191296Y913472039D01*
X629530826Y913380651D01*
X629881661Y913357259D01*
X630230319Y913402760D01*
X630563400Y913515406D01*
X630773882Y913627910D01*
X630887744Y913907651D01*
X629825000Y914970395D01*
X628762256Y913907651D01*
X615707022Y913907651D01*
X615811500Y914012129D01*
X616006847Y914304485D01*
X616141404Y914629335D01*
X616210000Y914974193D01*
X616210000Y915325807D01*
X616141404Y915670665D01*
X616019486Y915965001D01*
X628236699Y915965001D01*
X628147039Y915783704D01*
X628055651Y915444174D01*
X628032259Y915093339D01*
X628077760Y914744681D01*
X628190406Y914411600D01*
X628302910Y914201118D01*
X628582651Y914087256D01*
X629645395Y915150000D01*
X629631253Y915164143D01*
X629810858Y915343748D01*
X629825000Y915329605D01*
X629839143Y915343748D01*
X630018748Y915164143D01*
X630004605Y915150000D01*
X631067349Y914087256D01*
X631347090Y914201118D01*
X631502961Y914516296D01*
X631549715Y914690000D01*
X638441928Y914690000D01*
X638441928Y912990000D01*
X638454188Y912865518D01*
X638490498Y912745820D01*
X638549463Y912635506D01*
X638628815Y912538815D01*
X638725506Y912459463D01*
X638835820Y912400498D01*
X638908380Y912378487D01*
X638776525Y912246632D01*
X638614010Y912003411D01*
X638502068Y911733158D01*
X638445000Y911446260D01*
X638445000Y911153740D01*
X638502068Y910866842D01*
X638614010Y910596589D01*
X638776525Y910353368D01*
X638983368Y910146525D01*
X639226589Y909984010D01*
X639496842Y909872068D01*
X639783740Y909815000D01*
X640076260Y909815000D01*
X640363158Y909872068D01*
X640633411Y909984010D01*
X640876632Y910146525D01*
X641083475Y910353368D01*
X641245990Y910596589D01*
X641357932Y910866842D01*
X641415000Y911153740D01*
X641415000Y911446260D01*
X641357932Y911733158D01*
X641245990Y912003411D01*
X641083475Y912246632D01*
X640951620Y912378487D01*
X641024180Y912400498D01*
X641134494Y912459463D01*
X641231185Y912538815D01*
X641310537Y912635506D01*
X641369502Y912745820D01*
X641405812Y912865518D01*
X641418072Y912990000D01*
X641418072Y914690000D01*
X641405812Y914814482D01*
X641369502Y914934180D01*
X641310537Y915044494D01*
X641231185Y915141185D01*
X641134494Y915220537D01*
X641024180Y915279502D01*
X640904482Y915315812D01*
X640780000Y915328072D01*
X639080000Y915328072D01*
X638955518Y915315812D01*
X638835820Y915279502D01*
X638725506Y915220537D01*
X638628815Y915141185D01*
X638549463Y915044494D01*
X638490498Y914934180D01*
X638454188Y914814482D01*
X638441928Y914690000D01*
X631549715Y914690000D01*
X631594349Y914855826D01*
X631617741Y915206661D01*
X631572240Y915555319D01*
X631459594Y915888400D01*
X631418650Y915965001D01*
X658204842Y915965001D01*
X665981928Y908187915D01*
X665981928Y905510000D01*
X665994188Y905385518D01*
X666030498Y905265820D01*
X666089463Y905155506D01*
X666168815Y905058815D01*
X666265506Y904979463D01*
X666375820Y904920498D01*
X666495518Y904884188D01*
X666620000Y904871928D01*
X669620000Y904871928D01*
X669744482Y904884188D01*
X669864180Y904920498D01*
X669974494Y904979463D01*
X670071185Y905058815D01*
X670150537Y905155506D01*
X670209502Y905265820D01*
X670245812Y905385518D01*
X670258072Y905510000D01*
X670258072Y908510000D01*
X670245812Y908634482D01*
X670209502Y908754180D01*
X670150537Y908864494D01*
X670071185Y908961185D01*
X669974494Y909040537D01*
X669864180Y909099502D01*
X669744482Y909135812D01*
X669620000Y909148072D01*
X667242085Y909148072D01*
X659112346Y917277811D01*
X659087763Y917307765D01*
X658968232Y917405863D01*
X658831859Y917478755D01*
X658683886Y917523642D01*
X658568560Y917535001D01*
X658568552Y917535001D01*
X658529999Y917538798D01*
X658491446Y917535001D01*
X643866555Y917535001D01*
X643875812Y917565518D01*
X643888072Y917690000D01*
X643885000Y918254250D01*
X643726250Y918413000D01*
X642527000Y918413000D01*
X642527000Y918393000D01*
X642273000Y918393000D01*
X642273000Y918413000D01*
X642253000Y918413000D01*
X642253000Y918667000D01*
X642273000Y918667000D01*
X642273000Y919866250D01*
X642527000Y919866250D01*
X642527000Y918667000D01*
X643726250Y918667000D01*
X643885000Y918825750D01*
X643888072Y919390000D01*
X643875812Y919514482D01*
X643839502Y919634180D01*
X643780537Y919744494D01*
X643701185Y919841185D01*
X643604494Y919920537D01*
X643494180Y919979502D01*
X643374482Y920015812D01*
X643250000Y920028072D01*
X642685750Y920025000D01*
X642527000Y919866250D01*
X642273000Y919866250D01*
X642114250Y920025000D01*
X641550000Y920028072D01*
X641425518Y920015812D01*
X641305820Y919979502D01*
X641195506Y919920537D01*
X641098815Y919841185D01*
X641019463Y919744494D01*
X640960498Y919634180D01*
X640938487Y919561620D01*
X640806632Y919693475D01*
X640563411Y919855990D01*
X640293158Y919967932D01*
X640006260Y920025000D01*
X639713740Y920025000D01*
X639426842Y919967932D01*
X639156589Y919855990D01*
X638913368Y919693475D01*
X638706525Y919486632D01*
X638590000Y919312240D01*
X638473475Y919486632D01*
X638266632Y919693475D01*
X638023411Y919855990D01*
X637753158Y919967932D01*
X637466260Y920025000D01*
X637173740Y920025000D01*
X636886842Y919967932D01*
X636616589Y919855990D01*
X636373368Y919693475D01*
X636166525Y919486632D01*
X636004010Y919243411D01*
X635892068Y918973158D01*
X635835000Y918686260D01*
X635835000Y918393740D01*
X635892068Y918106842D01*
X636004010Y917836589D01*
X636166525Y917593368D01*
X636224892Y917535001D01*
X608363555Y917535001D01*
X608324999Y917538798D01*
X608286443Y917535001D01*
X608286438Y917535001D01*
X608246025Y917531021D01*
X608171112Y917523643D01*
X608025000Y917479320D01*
X608025000Y917686260D01*
X607967932Y917973158D01*
X607855990Y918243411D01*
X607693475Y918486632D01*
X607486632Y918693475D01*
X607312240Y918810000D01*
X607486632Y918926525D01*
X607693475Y919133368D01*
X607855990Y919376589D01*
X607967932Y919646842D01*
X608025000Y919933740D01*
X608025000Y920226260D01*
X607967932Y920513158D01*
X607855990Y920783411D01*
X607693475Y921026632D01*
X607486632Y921233475D01*
X607312240Y921350000D01*
X607486632Y921466525D01*
X607693475Y921673368D01*
X607855990Y921916589D01*
X607967932Y922186842D01*
X608025000Y922473740D01*
X608025000Y922766260D01*
X607967932Y923053158D01*
X607855990Y923323411D01*
X607693475Y923566632D01*
X607486632Y923773475D01*
X607312240Y923890000D01*
X607486632Y924006525D01*
X607693475Y924213368D01*
X607855990Y924456589D01*
X607967932Y924726842D01*
X608025000Y925013740D01*
X608025000Y925306260D01*
X607967932Y925593158D01*
X607855990Y925863411D01*
X607693475Y926106632D01*
X607486632Y926313475D01*
X607312240Y926430000D01*
X607486632Y926546525D01*
X607693475Y926753368D01*
X607855990Y926996589D01*
X607967932Y927266842D01*
X608025000Y927553740D01*
X608025000Y927846260D01*
X607967932Y928133158D01*
X607855990Y928403411D01*
X607693475Y928646632D01*
X607486632Y928853475D01*
X607312240Y928970000D01*
X607486632Y929086525D01*
X607693475Y929293368D01*
X607855990Y929536589D01*
X607967932Y929806842D01*
X608025000Y930093740D01*
X608025000Y930386260D01*
X607967932Y930673158D01*
X607855990Y930943411D01*
X607693475Y931186632D01*
X607486632Y931393475D01*
X607312240Y931510000D01*
X607486632Y931626525D01*
X607693475Y931833368D01*
X607855990Y932076589D01*
X607967932Y932346842D01*
X608025000Y932633740D01*
X608025000Y932926260D01*
X607967932Y933213158D01*
X607855990Y933483411D01*
X607693475Y933726632D01*
X607486632Y933933475D01*
X607304466Y934055195D01*
X607421355Y934124822D01*
X607637588Y934319731D01*
X607811641Y934553080D01*
X607936825Y934815901D01*
X607981476Y934963110D01*
X607860155Y935193000D01*
X606667000Y935193000D01*
X606667000Y935173000D01*
X606413000Y935173000D01*
X606413000Y935193000D01*
X605219845Y935193000D01*
X605098524Y934963110D01*
X605143175Y934815901D01*
X605268359Y934553080D01*
X605442412Y934319731D01*
X605658645Y934124822D01*
X605775534Y934055195D01*
X605593368Y933933475D01*
X605386525Y933726632D01*
X605224010Y933483411D01*
X605112068Y933213158D01*
X605055000Y932926260D01*
X605055000Y932633740D01*
X605112068Y932346842D01*
X605224010Y932076589D01*
X605386525Y931833368D01*
X605593368Y931626525D01*
X605767760Y931510000D01*
X605593368Y931393475D01*
X605386525Y931186632D01*
X605224010Y930943411D01*
X605112068Y930673158D01*
X605055000Y930386260D01*
X605055000Y930093740D01*
X605112068Y929806842D01*
X605224010Y929536589D01*
X605386525Y929293368D01*
X605593368Y929086525D01*
X605767760Y928970000D01*
X605593368Y928853475D01*
X605386525Y928646632D01*
X605224010Y928403411D01*
X605112068Y928133158D01*
X605055000Y927846260D01*
X605055000Y927553740D01*
X605112068Y927266842D01*
X605224010Y926996589D01*
X605386525Y926753368D01*
X605593368Y926546525D01*
X605767760Y926430000D01*
X605593368Y926313475D01*
X605386525Y926106632D01*
X605224010Y925863411D01*
X605112068Y925593158D01*
X605055000Y925306260D01*
X605055000Y925013740D01*
X605112068Y924726842D01*
X605224010Y924456589D01*
X605386525Y924213368D01*
X605593368Y924006525D01*
X605767760Y923890000D01*
X605593368Y923773475D01*
X605386525Y923566632D01*
X605224010Y923323411D01*
X605112068Y923053158D01*
X605055000Y922766260D01*
X605055000Y922473740D01*
X605112068Y922186842D01*
X605224010Y921916589D01*
X605386525Y921673368D01*
X605593368Y921466525D01*
X605767760Y921350000D01*
X605593368Y921233475D01*
X605386525Y921026632D01*
X605224010Y920783411D01*
X605112068Y920513158D01*
X605055000Y920226260D01*
X605055000Y919933740D01*
X605112068Y919646842D01*
X605224010Y919376589D01*
X605386525Y919133368D01*
X605593368Y918926525D01*
X605767760Y918810000D01*
X605593368Y918693475D01*
X605386525Y918486632D01*
X605224010Y918243411D01*
X605112068Y917973158D01*
X605055000Y917686260D01*
X605055000Y917393740D01*
X605112068Y917106842D01*
X605224010Y916836589D01*
X605386525Y916593368D01*
X605593368Y916386525D01*
X605767760Y916270000D01*
X605593368Y916153475D01*
X605386525Y915946632D01*
X605224010Y915703411D01*
X605112068Y915433158D01*
X605055000Y915146260D01*
X605055000Y914853740D01*
X605112068Y914566842D01*
X605224010Y914296589D01*
X605386525Y914053368D01*
X605593368Y913846525D01*
X605767760Y913730000D01*
X605593368Y913613475D01*
X605386525Y913406632D01*
X605224010Y913163411D01*
X605112068Y912893158D01*
X605055000Y912606260D01*
X605055000Y912313740D01*
X605112068Y912026842D01*
X605224010Y911756589D01*
X605386525Y911513368D01*
X605593368Y911306525D01*
X605767760Y911190000D01*
X605593368Y911073475D01*
X605386525Y910866632D01*
X605224010Y910623411D01*
X605112068Y910353158D01*
X605055000Y910066260D01*
X605055000Y909773740D01*
X605112068Y909486842D01*
X605224010Y909216589D01*
X605386525Y908973368D01*
X605593368Y908766525D01*
X605767760Y908650000D01*
X605593368Y908533475D01*
X605386525Y908326632D01*
X605224010Y908083411D01*
X605112068Y907813158D01*
X605055000Y907526260D01*
X605055000Y907233740D01*
X605112068Y906946842D01*
X605224010Y906676589D01*
X605386525Y906433368D01*
X605593368Y906226525D01*
X605767760Y906110000D01*
X605593368Y905993475D01*
X605386525Y905786632D01*
X605224010Y905543411D01*
X605112068Y905273158D01*
X605055000Y904986260D01*
X605055000Y904693740D01*
X605112068Y904406842D01*
X605224010Y904136589D01*
X605386525Y903893368D01*
X605518380Y903761513D01*
X605445820Y903739502D01*
X605335506Y903680537D01*
X605238815Y903601185D01*
X605159463Y903504494D01*
X605100498Y903394180D01*
X605064188Y903274482D01*
X605051928Y903150000D01*
X605051928Y901784999D01*
X590385159Y901784999D01*
X582587075Y909583082D01*
X582625000Y909773740D01*
X582625000Y910066260D01*
X582567932Y910353158D01*
X582455990Y910623411D01*
X582293475Y910866632D01*
X582086632Y911073475D01*
X581912240Y911190000D01*
X582086632Y911306525D01*
X582293475Y911513368D01*
X582455990Y911756589D01*
X582567932Y912026842D01*
X582625000Y912313740D01*
X582625000Y912606260D01*
X582567932Y912893158D01*
X582455990Y913163411D01*
X582293475Y913406632D01*
X582086632Y913613475D01*
X581912240Y913730000D01*
X582086632Y913846525D01*
X582293475Y914053368D01*
X582455990Y914296589D01*
X582567932Y914566842D01*
X582625000Y914853740D01*
X582625000Y915146260D01*
X582567932Y915433158D01*
X582455990Y915703411D01*
X582293475Y915946632D01*
X582086632Y916153475D01*
X581912240Y916270000D01*
X582086632Y916386525D01*
X582293475Y916593368D01*
X582455990Y916836589D01*
X582567932Y917106842D01*
X582625000Y917393740D01*
X582625000Y917686260D01*
X582567932Y917973158D01*
X582455990Y918243411D01*
X582293475Y918486632D01*
X582086632Y918693475D01*
X581912240Y918810000D01*
X582086632Y918926525D01*
X582293475Y919133368D01*
X582455990Y919376589D01*
X582567932Y919646842D01*
X582625000Y919933740D01*
X582625000Y920226260D01*
X582567932Y920513158D01*
X582455990Y920783411D01*
X582293475Y921026632D01*
X582086632Y921233475D01*
X581912240Y921350000D01*
X582086632Y921466525D01*
X582293475Y921673368D01*
X582455990Y921916589D01*
X582567932Y922186842D01*
X582625000Y922473740D01*
X582625000Y922766260D01*
X582567932Y923053158D01*
X582455990Y923323411D01*
X582293475Y923566632D01*
X582086632Y923773475D01*
X581912240Y923890000D01*
X582086632Y924006525D01*
X582293475Y924213368D01*
X582455990Y924456589D01*
X582567932Y924726842D01*
X582625000Y925013740D01*
X582625000Y925306260D01*
X582567932Y925593158D01*
X582455990Y925863411D01*
X582293475Y926106632D01*
X582086632Y926313475D01*
X581912240Y926430000D01*
X582086632Y926546525D01*
X582293475Y926753368D01*
X582455990Y926996589D01*
X582567932Y927266842D01*
X582625000Y927553740D01*
X582625000Y927846260D01*
X582567932Y928133158D01*
X582455990Y928403411D01*
X582293475Y928646632D01*
X582086632Y928853475D01*
X581912240Y928970000D01*
X582086632Y929086525D01*
X582293475Y929293368D01*
X582455990Y929536589D01*
X582567932Y929806842D01*
X582625000Y930093740D01*
X582625000Y930386260D01*
X582567932Y930673158D01*
X582455990Y930943411D01*
X582293475Y931186632D01*
X582086632Y931393475D01*
X581912240Y931510000D01*
X582086632Y931626525D01*
X582293475Y931833368D01*
X582455990Y932076589D01*
X582567932Y932346842D01*
X582625000Y932633740D01*
X582625000Y932926260D01*
X582567932Y933213158D01*
X582455990Y933483411D01*
X582293475Y933726632D01*
X582086632Y933933475D01*
X581904466Y934055195D01*
X582021355Y934124822D01*
X582237588Y934319731D01*
X582411641Y934553080D01*
X582536825Y934815901D01*
X582581476Y934963110D01*
X582460155Y935193000D01*
X581267000Y935193000D01*
X581267000Y935173000D01*
X581013000Y935173000D01*
X581013000Y935193000D01*
X579819845Y935193000D01*
X579698524Y934963110D01*
X579743175Y934815901D01*
X579868359Y934553080D01*
X580042412Y934319731D01*
X580258645Y934124822D01*
X580375534Y934055195D01*
X580193368Y933933475D01*
X579986525Y933726632D01*
X579824010Y933483411D01*
X579712068Y933213158D01*
X579655000Y932926260D01*
X579655000Y932633740D01*
X579712068Y932346842D01*
X579824010Y932076589D01*
X579986525Y931833368D01*
X580193368Y931626525D01*
X580367760Y931510000D01*
X580193368Y931393475D01*
X579986525Y931186632D01*
X579824010Y930943411D01*
X579712068Y930673158D01*
X579655000Y930386260D01*
X579655000Y930093740D01*
X579712068Y929806842D01*
X579824010Y929536589D01*
X579986525Y929293368D01*
X580193368Y929086525D01*
X580367760Y928970000D01*
X580193368Y928853475D01*
X579986525Y928646632D01*
X579824010Y928403411D01*
X579712068Y928133158D01*
X579655000Y927846260D01*
X579655000Y927553740D01*
X579712068Y927266842D01*
X579824010Y926996589D01*
X579986525Y926753368D01*
X580193368Y926546525D01*
X580367760Y926430000D01*
X580193368Y926313475D01*
X579986525Y926106632D01*
X579824010Y925863411D01*
X579712068Y925593158D01*
X579655000Y925306260D01*
X579655000Y925013740D01*
X579712068Y924726842D01*
X579824010Y924456589D01*
X579986525Y924213368D01*
X580193368Y924006525D01*
X580367760Y923890000D01*
X580193368Y923773475D01*
X579986525Y923566632D01*
X579824010Y923323411D01*
X579712068Y923053158D01*
X579655000Y922766260D01*
X579655000Y922473740D01*
X579712068Y922186842D01*
X579824010Y921916589D01*
X579986525Y921673368D01*
X580193368Y921466525D01*
X580367760Y921350000D01*
X580193368Y921233475D01*
X579986525Y921026632D01*
X579824010Y920783411D01*
X579712068Y920513158D01*
X579655000Y920226260D01*
X579655000Y919933740D01*
X579712068Y919646842D01*
X579824010Y919376589D01*
X579986525Y919133368D01*
X580193368Y918926525D01*
X580367760Y918810000D01*
X580193368Y918693475D01*
X579986525Y918486632D01*
X579824010Y918243411D01*
X579712068Y917973158D01*
X579655000Y917686260D01*
X579655000Y917393740D01*
X579712068Y917106842D01*
X579824010Y916836589D01*
X579986525Y916593368D01*
X580193368Y916386525D01*
X580367760Y916270000D01*
X580193368Y916153475D01*
X579986525Y915946632D01*
X579824010Y915703411D01*
X579712068Y915433158D01*
X579655000Y915146260D01*
X579655000Y914853740D01*
X579712068Y914566842D01*
X579824010Y914296589D01*
X579986525Y914053368D01*
X580193368Y913846525D01*
X580367760Y913730000D01*
X580193368Y913613475D01*
X579986525Y913406632D01*
X579824010Y913163411D01*
X579712068Y912893158D01*
X579655000Y912606260D01*
X579655000Y912313740D01*
X579712068Y912026842D01*
X579824010Y911756589D01*
X579986525Y911513368D01*
X580193368Y911306525D01*
X580367760Y911190000D01*
X580193368Y911073475D01*
X579986525Y910866632D01*
X579824010Y910623411D01*
X579712068Y910353158D01*
X579655000Y910066260D01*
X579655000Y909773740D01*
X579712068Y909486842D01*
X579824010Y909216589D01*
X579986525Y908973368D01*
X580193368Y908766525D01*
X580367760Y908650000D01*
X580193368Y908533475D01*
X579986525Y908326632D01*
X579824010Y908083411D01*
X579712068Y907813158D01*
X579655000Y907526260D01*
X579655000Y907233740D01*
X579712068Y906946842D01*
X579824010Y906676589D01*
X579986525Y906433368D01*
X580193368Y906226525D01*
X580367760Y906110000D01*
X580193368Y905993475D01*
X579986525Y905786632D01*
X579824010Y905543411D01*
X579712068Y905273158D01*
X579655000Y904986260D01*
X579655000Y904693740D01*
X579712068Y904406842D01*
X579824010Y904136589D01*
X579986525Y903893368D01*
X580118380Y903761513D01*
X580045820Y903739502D01*
X579935506Y903680537D01*
X579838815Y903601185D01*
X579759463Y903504494D01*
X579700498Y903394180D01*
X579664188Y903274482D01*
X579651928Y903150000D01*
X577240000Y903150000D01*
X577240000Y938006260D01*
X579655000Y938006260D01*
X579655000Y937713740D01*
X579712068Y937426842D01*
X579824010Y937156589D01*
X579986525Y936913368D01*
X580193368Y936706525D01*
X580375534Y936584805D01*
X580258645Y936515178D01*
X580042412Y936320269D01*
X579868359Y936086920D01*
X579743175Y935824099D01*
X579698524Y935676890D01*
X579819845Y935447000D01*
X581013000Y935447000D01*
X581013000Y935467000D01*
X581267000Y935467000D01*
X581267000Y935447000D01*
X582460155Y935447000D01*
X582581476Y935676890D01*
X582536825Y935824099D01*
X582411641Y936086920D01*
X582237588Y936320269D01*
X582021355Y936515178D01*
X581904466Y936584805D01*
X582086632Y936706525D01*
X582293475Y936913368D01*
X582455990Y937156589D01*
X582567932Y937426842D01*
X582625000Y937713740D01*
X582625000Y938006260D01*
X605055000Y938006260D01*
X605055000Y937713740D01*
X605112068Y937426842D01*
X605224010Y937156589D01*
X605386525Y936913368D01*
X605593368Y936706525D01*
X605775534Y936584805D01*
X605658645Y936515178D01*
X605442412Y936320269D01*
X605268359Y936086920D01*
X605143175Y935824099D01*
X605098524Y935676890D01*
X605219845Y935447000D01*
X606413000Y935447000D01*
X606413000Y935467000D01*
X606667000Y935467000D01*
X606667000Y935447000D01*
X607860155Y935447000D01*
X607981476Y935676890D01*
X607936825Y935824099D01*
X607811641Y936086920D01*
X607637588Y936320269D01*
X607421355Y936515178D01*
X607304466Y936584805D01*
X607486632Y936706525D01*
X607693475Y936913368D01*
X607855990Y937156589D01*
X607967932Y937426842D01*
X608025000Y937713740D01*
X608025000Y938006260D01*
X607967932Y938293158D01*
X607855990Y938563411D01*
X607693475Y938806632D01*
X607486632Y939013475D01*
X607243411Y939175990D01*
X606973158Y939287932D01*
X606686260Y939345000D01*
X606393740Y939345000D01*
X606106842Y939287932D01*
X605836589Y939175990D01*
X605593368Y939013475D01*
X605386525Y938806632D01*
X605224010Y938563411D01*
X605112068Y938293158D01*
X605055000Y938006260D01*
X582625000Y938006260D01*
X582567932Y938293158D01*
X582455990Y938563411D01*
X582293475Y938806632D01*
X582086632Y939013475D01*
X581843411Y939175990D01*
X581573158Y939287932D01*
X581286260Y939345000D01*
X580993740Y939345000D01*
X580706842Y939287932D01*
X580436589Y939175990D01*
X580193368Y939013475D01*
X579986525Y938806632D01*
X579824010Y938563411D01*
X579712068Y938293158D01*
X579655000Y938006260D01*
X577240000Y938006260D01*
X577240000Y957525000D01*
X578636928Y957525000D01*
X578636928Y955825000D01*
X578649188Y955700518D01*
X578685498Y955580820D01*
X578744463Y955470506D01*
X578823815Y955373815D01*
X578920506Y955294463D01*
X579030820Y955235498D01*
X579150518Y955199188D01*
X579275000Y955186928D01*
X580975000Y955186928D01*
X581099482Y955199188D01*
X581219180Y955235498D01*
X581329494Y955294463D01*
X581426185Y955373815D01*
X581505537Y955470506D01*
X581564502Y955580820D01*
X581600812Y955700518D01*
X581613072Y955825000D01*
X581613072Y957525000D01*
X581600812Y957649482D01*
X581564502Y957769180D01*
X581505537Y957879494D01*
X581426185Y957976185D01*
X581329494Y958055537D01*
X581219180Y958114502D01*
X581146620Y958136513D01*
X581278475Y958268368D01*
X581440990Y958511589D01*
X581552932Y958781842D01*
X581610000Y959068740D01*
X581610000Y959361260D01*
X581552932Y959648158D01*
X581440990Y959918411D01*
X581278475Y960161632D01*
X581071632Y960368475D01*
X580889466Y960490195D01*
X581006355Y960559822D01*
X581222588Y960754731D01*
X581396641Y960988080D01*
X581521825Y961250901D01*
X581566476Y961398110D01*
X581445155Y961628000D01*
X580252000Y961628000D01*
X580252000Y961608000D01*
X579998000Y961608000D01*
X579998000Y961628000D01*
X578804845Y961628000D01*
X578683524Y961398110D01*
X578728175Y961250901D01*
X578853359Y960988080D01*
X579027412Y960754731D01*
X579243645Y960559822D01*
X579360534Y960490195D01*
X579178368Y960368475D01*
X578971525Y960161632D01*
X578809010Y959918411D01*
X578697068Y959648158D01*
X578640000Y959361260D01*
X578640000Y959068740D01*
X578697068Y958781842D01*
X578809010Y958511589D01*
X578971525Y958268368D01*
X579103380Y958136513D01*
X579030820Y958114502D01*
X578920506Y958055537D01*
X578823815Y957976185D01*
X578744463Y957879494D01*
X578685498Y957769180D01*
X578649188Y957649482D01*
X578636928Y957525000D01*
X577240000Y957525000D01*
X577240000Y963938110D01*
X578683524Y963938110D01*
X578728175Y963790901D01*
X578853359Y963528080D01*
X579027412Y963294731D01*
X579243645Y963099822D01*
X579369255Y963025000D01*
X579243645Y962950178D01*
X579027412Y962755269D01*
X578853359Y962521920D01*
X578728175Y962259099D01*
X578683524Y962111890D01*
X578804845Y961882000D01*
X579998000Y961882000D01*
X579998000Y964168000D01*
X580252000Y964168000D01*
X580252000Y961882000D01*
X581445155Y961882000D01*
X581566476Y962111890D01*
X581521825Y962259099D01*
X581396641Y962521920D01*
X581222588Y962755269D01*
X581006355Y962950178D01*
X580880745Y963025000D01*
X581006355Y963099822D01*
X581222588Y963294731D01*
X581396641Y963528080D01*
X581521825Y963790901D01*
X581566476Y963938110D01*
X581445155Y964168000D01*
X580252000Y964168000D01*
X579998000Y964168000D01*
X578804845Y964168000D01*
X578683524Y963938110D01*
X577240000Y963938110D01*
X577240000Y964651890D01*
X578683524Y964651890D01*
X578804845Y964422000D01*
X579998000Y964422000D01*
X579998000Y965615814D01*
X580252000Y965615814D01*
X580252000Y964422000D01*
X581445155Y964422000D01*
X581566476Y964651890D01*
X581521825Y964799099D01*
X581396641Y965061920D01*
X581222588Y965295269D01*
X581006355Y965490178D01*
X580756252Y965639157D01*
X580481891Y965736481D01*
X580252000Y965615814D01*
X579998000Y965615814D01*
X579768109Y965736481D01*
X579493748Y965639157D01*
X579243645Y965490178D01*
X579027412Y965295269D01*
X578853359Y965061920D01*
X578728175Y964799099D01*
X578683524Y964651890D01*
X577240000Y964651890D01*
X577240000Y981270000D01*
X615843000Y981270000D01*
X615843000Y938600000D01*
G04 #@! TA.AperFunction,Conductor*
D23*
G36*
X615843000Y938600000D02*
G01*
X615845440Y938575224D01*
X615852667Y938551399D01*
X615864403Y938529443D01*
X615880197Y938510197D01*
X615899443Y938494403D01*
X615921399Y938482667D01*
X615945224Y938475440D01*
X615970000Y938473000D01*
X679100000Y938473000D01*
X679100000Y899510000D01*
X577240000Y899510000D01*
X577240000Y903150000D01*
X579651928Y903150000D01*
X579651928Y901450000D01*
X579664188Y901325518D01*
X579700498Y901205820D01*
X579759463Y901095506D01*
X579838815Y900998815D01*
X579935506Y900919463D01*
X580045820Y900860498D01*
X580165518Y900824188D01*
X580290000Y900811928D01*
X581990000Y900811928D01*
X582114482Y900824188D01*
X582234180Y900860498D01*
X582344494Y900919463D01*
X582441185Y900998815D01*
X582520537Y901095506D01*
X582579502Y901205820D01*
X582615812Y901325518D01*
X582628072Y901450000D01*
X582628072Y903150000D01*
X582615812Y903274482D01*
X582579502Y903394180D01*
X582520537Y903504494D01*
X582441185Y903601185D01*
X582344494Y903680537D01*
X582234180Y903739502D01*
X582161620Y903761513D01*
X582293475Y903893368D01*
X582455990Y904136589D01*
X582567932Y904406842D01*
X582625000Y904693740D01*
X582625000Y904784843D01*
X587537669Y899872173D01*
X587562247Y899842225D01*
X587592195Y899817647D01*
X587592198Y899817644D01*
X587621570Y899793539D01*
X587681778Y899744127D01*
X587818151Y899671235D01*
X587931683Y899636795D01*
X587966123Y899626348D01*
X587980501Y899624932D01*
X588081450Y899614989D01*
X588081457Y899614989D01*
X588120010Y899611192D01*
X588158563Y899614989D01*
X607959980Y899614989D01*
X607998533Y899611192D01*
X608037086Y899614989D01*
X608037094Y899614989D01*
X608152420Y899626348D01*
X608300393Y899671235D01*
X608436766Y899744127D01*
X608556297Y899842225D01*
X608580880Y899872179D01*
X611353701Y902644999D01*
X621904182Y902644999D01*
X621852688Y902593505D01*
X621684701Y902342095D01*
X621568989Y902062743D01*
X621510000Y901766184D01*
X621510000Y901463816D01*
X621568989Y901167257D01*
X621684701Y900887905D01*
X621852688Y900636495D01*
X622066495Y900422688D01*
X622317905Y900254701D01*
X622597257Y900138989D01*
X622893816Y900080000D01*
X623196184Y900080000D01*
X623492743Y900138989D01*
X623772095Y900254701D01*
X624023505Y900422688D01*
X624089944Y900489127D01*
X624095498Y900470820D01*
X624154463Y900360506D01*
X624233815Y900263815D01*
X624330506Y900184463D01*
X624440820Y900125498D01*
X624560518Y900089188D01*
X624685000Y900076928D01*
X625299250Y900080000D01*
X625458000Y900238750D01*
X625458000Y901488000D01*
X625712000Y901488000D01*
X625712000Y900238750D01*
X625870750Y900080000D01*
X626485000Y900076928D01*
X626609482Y900089188D01*
X626729180Y900125498D01*
X626839494Y900184463D01*
X626936185Y900263815D01*
X627015537Y900360506D01*
X627074502Y900470820D01*
X627110812Y900590518D01*
X627123072Y900715000D01*
X627120000Y901329250D01*
X626961250Y901488000D01*
X625712000Y901488000D01*
X625458000Y901488000D01*
X625438000Y901488000D01*
X625438000Y901742000D01*
X625458000Y901742000D01*
X625458000Y901762000D01*
X625712000Y901762000D01*
X625712000Y901742000D01*
X626961250Y901742000D01*
X627120000Y901900750D01*
X627123072Y902515000D01*
X627110812Y902639482D01*
X627109138Y902644999D01*
X633171446Y902644999D01*
X633209999Y902641202D01*
X633248552Y902644999D01*
X633248560Y902644999D01*
X633363886Y902656358D01*
X633511859Y902701245D01*
X633648232Y902774137D01*
X633767763Y902872235D01*
X633792346Y902902189D01*
X634173082Y903282925D01*
X634363740Y903245000D01*
X634656260Y903245000D01*
X634943158Y903302068D01*
X635213411Y903414010D01*
X635456632Y903576525D01*
X635663475Y903783368D01*
X635780000Y903957760D01*
X635896525Y903783368D01*
X636103368Y903576525D01*
X636346589Y903414010D01*
X636616842Y903302068D01*
X636903740Y903245000D01*
X637196260Y903245000D01*
X637483158Y903302068D01*
X637753411Y903414010D01*
X637996632Y903576525D01*
X638203475Y903783368D01*
X638320000Y903957760D01*
X638436525Y903783368D01*
X638643368Y903576525D01*
X638886589Y903414010D01*
X639156842Y903302068D01*
X639443740Y903245000D01*
X639736260Y903245000D01*
X640023158Y903302068D01*
X640293411Y903414010D01*
X640536632Y903576525D01*
X640743475Y903783368D01*
X640860000Y903957760D01*
X640976525Y903783368D01*
X641183368Y903576525D01*
X641426589Y903414010D01*
X641696842Y903302068D01*
X641983740Y903245000D01*
X642276260Y903245000D01*
X642563158Y903302068D01*
X642833411Y903414010D01*
X643076632Y903576525D01*
X643283475Y903783368D01*
X643405195Y903965534D01*
X643474822Y903848645D01*
X643669731Y903632412D01*
X643903080Y903458359D01*
X644165901Y903333175D01*
X644313110Y903288524D01*
X644543000Y903409845D01*
X644543000Y904603000D01*
X644797000Y904603000D01*
X644797000Y903409845D01*
X645026890Y903288524D01*
X645174099Y903333175D01*
X645436920Y903458359D01*
X645670269Y903632412D01*
X645865178Y903848645D01*
X646014157Y904098748D01*
X646111481Y904373109D01*
X645990814Y904603000D01*
X644797000Y904603000D01*
X644543000Y904603000D01*
X644523000Y904603000D01*
X644523000Y904857000D01*
X644543000Y904857000D01*
X644543000Y906050155D01*
X644797000Y906050155D01*
X644797000Y904857000D01*
X645990814Y904857000D01*
X646111481Y905086891D01*
X646014157Y905361252D01*
X645865178Y905611355D01*
X645670269Y905827588D01*
X645436920Y906001641D01*
X645174099Y906126825D01*
X645026890Y906171476D01*
X644797000Y906050155D01*
X644543000Y906050155D01*
X644313110Y906171476D01*
X644165901Y906126825D01*
X643903080Y906001641D01*
X643669731Y905827588D01*
X643474822Y905611355D01*
X643405195Y905494466D01*
X643283475Y905676632D01*
X643076632Y905883475D01*
X642833411Y906045990D01*
X642563158Y906157932D01*
X642276260Y906215000D01*
X641983740Y906215000D01*
X641696842Y906157932D01*
X641426589Y906045990D01*
X641183368Y905883475D01*
X640976525Y905676632D01*
X640860000Y905502240D01*
X640743475Y905676632D01*
X640536632Y905883475D01*
X640293411Y906045990D01*
X640023158Y906157932D01*
X639736260Y906215000D01*
X639443740Y906215000D01*
X639156842Y906157932D01*
X638886589Y906045990D01*
X638643368Y905883475D01*
X638436525Y905676632D01*
X638320000Y905502240D01*
X638203475Y905676632D01*
X637996632Y905883475D01*
X637753411Y906045990D01*
X637483158Y906157932D01*
X637196260Y906215000D01*
X636903740Y906215000D01*
X636616842Y906157932D01*
X636346589Y906045990D01*
X636275602Y905998558D01*
X635716348Y906557811D01*
X635691765Y906587765D01*
X635572234Y906685863D01*
X635435861Y906758755D01*
X635287888Y906803642D01*
X635172562Y906815001D01*
X635172554Y906815001D01*
X635134001Y906818798D01*
X635095448Y906815001D01*
X612818555Y906815001D01*
X612780002Y906818798D01*
X612741449Y906815001D01*
X612741442Y906815001D01*
X612626116Y906803642D01*
X612478143Y906758755D01*
X612341770Y906685863D01*
X612281562Y906636451D01*
X612252190Y906612346D01*
X612252187Y906612343D01*
X612222239Y906587765D01*
X612197661Y906557817D01*
X608028072Y902388227D01*
X608028072Y903150000D01*
X608015812Y903274482D01*
X607979502Y903394180D01*
X607920537Y903504494D01*
X607841185Y903601185D01*
X607744494Y903680537D01*
X607634180Y903739502D01*
X607561620Y903761513D01*
X607693475Y903893368D01*
X607855990Y904136589D01*
X607967932Y904406842D01*
X608025000Y904693740D01*
X608025000Y904986260D01*
X607967932Y905273158D01*
X607855990Y905543411D01*
X607693475Y905786632D01*
X607486632Y905993475D01*
X607312240Y906110000D01*
X607486632Y906226525D01*
X607693475Y906433368D01*
X607855990Y906676589D01*
X607967932Y906946842D01*
X608022322Y907220279D01*
X655825000Y907220279D01*
X655825000Y906799721D01*
X655907047Y906387244D01*
X656067988Y905998698D01*
X656301637Y905649017D01*
X656599017Y905351637D01*
X656948698Y905117988D01*
X657337244Y904957047D01*
X657749721Y904875000D01*
X658170279Y904875000D01*
X658582756Y904957047D01*
X658971302Y905117988D01*
X659320983Y905351637D01*
X659487693Y905518347D01*
X661727952Y905518347D01*
X661883962Y905202786D01*
X662258745Y905011980D01*
X662663551Y904897956D01*
X663082824Y904865098D01*
X663500451Y904914666D01*
X663900383Y905044757D01*
X664196038Y905202786D01*
X664352048Y905518347D01*
X663040000Y906830395D01*
X661727952Y905518347D01*
X659487693Y905518347D01*
X659618363Y905649017D01*
X659852012Y905998698D01*
X660012953Y906387244D01*
X660095000Y906799721D01*
X660095000Y906967176D01*
X660895098Y906967176D01*
X660944666Y906549549D01*
X661074757Y906149617D01*
X661232786Y905853962D01*
X661548347Y905697952D01*
X662860395Y907010000D01*
X663219605Y907010000D01*
X664531653Y905697952D01*
X664847214Y905853962D01*
X665038020Y906228745D01*
X665152044Y906633551D01*
X665184902Y907052824D01*
X665135334Y907470451D01*
X665005243Y907870383D01*
X664847214Y908166038D01*
X664531653Y908322048D01*
X663219605Y907010000D01*
X662860395Y907010000D01*
X661548347Y908322048D01*
X661232786Y908166038D01*
X661041980Y907791255D01*
X660927956Y907386449D01*
X660895098Y906967176D01*
X660095000Y906967176D01*
X660095000Y907220279D01*
X660012953Y907632756D01*
X659852012Y908021302D01*
X659618363Y908370983D01*
X659487693Y908501653D01*
X661727952Y908501653D01*
X663040000Y907189605D01*
X664352048Y908501653D01*
X664196038Y908817214D01*
X663821255Y909008020D01*
X663416449Y909122044D01*
X662997176Y909154902D01*
X662579549Y909105334D01*
X662179617Y908975243D01*
X661883962Y908817214D01*
X661727952Y908501653D01*
X659487693Y908501653D01*
X659320983Y908668363D01*
X658971302Y908902012D01*
X658582756Y909062953D01*
X658170279Y909145000D01*
X657749721Y909145000D01*
X657337244Y909062953D01*
X656948698Y908902012D01*
X656599017Y908668363D01*
X656301637Y908370983D01*
X656067988Y908021302D01*
X655907047Y907632756D01*
X655825000Y907220279D01*
X608022322Y907220279D01*
X608025000Y907233740D01*
X608025000Y907526260D01*
X607967932Y907813158D01*
X607855990Y908083411D01*
X607693475Y908326632D01*
X607486632Y908533475D01*
X607312240Y908650000D01*
X607486632Y908766525D01*
X607693475Y908973368D01*
X607855990Y909216589D01*
X607967932Y909486842D01*
X608025000Y909773740D01*
X608025000Y910066260D01*
X607967932Y910353158D01*
X607855990Y910623411D01*
X607693475Y910866632D01*
X607486632Y911073475D01*
X607312240Y911190000D01*
X607319724Y911195001D01*
X615546928Y911195001D01*
X615546928Y909144999D01*
X615563992Y908971745D01*
X615614528Y908805149D01*
X615696595Y908651613D01*
X615807038Y908517038D01*
X615941613Y908406595D01*
X616095149Y908324528D01*
X616261745Y908273992D01*
X616434999Y908256928D01*
X618485001Y908256928D01*
X618658255Y908273992D01*
X618824851Y908324528D01*
X618978387Y908406595D01*
X619112962Y908517038D01*
X619223405Y908651613D01*
X619305472Y908805149D01*
X619356008Y908971745D01*
X619373072Y909144999D01*
X619373072Y910358119D01*
X620350000Y910358119D01*
X620350000Y909981881D01*
X620423400Y909612873D01*
X620567380Y909265276D01*
X620776406Y908952446D01*
X621042446Y908686406D01*
X621355276Y908477380D01*
X621702873Y908333400D01*
X622071881Y908260000D01*
X622448119Y908260000D01*
X622817127Y908333400D01*
X623164724Y908477380D01*
X623477554Y908686406D01*
X623629733Y908838585D01*
X625908190Y908838585D01*
X626037116Y908546055D01*
X626373586Y908377704D01*
X626736435Y908278229D01*
X627111718Y908251455D01*
X627485015Y908298409D01*
X627841978Y908417287D01*
X628082884Y908546055D01*
X628211810Y908838585D01*
X627060000Y909990395D01*
X625908190Y908838585D01*
X623629733Y908838585D01*
X623743594Y908952446D01*
X623952620Y909265276D01*
X624096600Y909612873D01*
X624170000Y909981881D01*
X624170000Y910118282D01*
X625141455Y910118282D01*
X625188409Y909744985D01*
X625307287Y909388022D01*
X625436055Y909147116D01*
X625728585Y909018190D01*
X626880395Y910170000D01*
X627239605Y910170000D01*
X628391415Y909018190D01*
X628683945Y909147116D01*
X628852296Y909483586D01*
X628951771Y909846435D01*
X628978545Y910221718D01*
X628931591Y910595015D01*
X628812713Y910951978D01*
X628683945Y911192884D01*
X628391415Y911321810D01*
X627239605Y910170000D01*
X626880395Y910170000D01*
X625728585Y911321810D01*
X625436055Y911192884D01*
X625267704Y910856414D01*
X625168229Y910493565D01*
X625141455Y910118282D01*
X624170000Y910118282D01*
X624170000Y910358119D01*
X624096600Y910727127D01*
X623952620Y911074724D01*
X623743594Y911387554D01*
X623629733Y911501415D01*
X625908190Y911501415D01*
X627060000Y910349605D01*
X628211810Y911501415D01*
X628082884Y911793945D01*
X627746414Y911962296D01*
X627383565Y912061771D01*
X627008282Y912088545D01*
X626634985Y912041591D01*
X626278022Y911922713D01*
X626037116Y911793945D01*
X625908190Y911501415D01*
X623629733Y911501415D01*
X623477554Y911653594D01*
X623164724Y911862620D01*
X622817127Y912006600D01*
X622448119Y912080000D01*
X622071881Y912080000D01*
X621702873Y912006600D01*
X621355276Y911862620D01*
X621042446Y911653594D01*
X620776406Y911387554D01*
X620567380Y911074724D01*
X620423400Y910727127D01*
X620350000Y910358119D01*
X619373072Y910358119D01*
X619373072Y911195001D01*
X619356008Y911368255D01*
X619305472Y911534851D01*
X619223405Y911688387D01*
X619112962Y911822962D01*
X618978387Y911933405D01*
X618824851Y912015472D01*
X618658255Y912066008D01*
X618485001Y912083072D01*
X616434999Y912083072D01*
X616261745Y912066008D01*
X616095149Y912015472D01*
X615941613Y911933405D01*
X615807038Y911822962D01*
X615696595Y911688387D01*
X615614528Y911534851D01*
X615563992Y911368255D01*
X615546928Y911195001D01*
X607319724Y911195001D01*
X607486632Y911306525D01*
X607693475Y911513368D01*
X607855990Y911756589D01*
X607967932Y912026842D01*
X608025000Y912313740D01*
X608025000Y912606260D01*
X607967932Y912893158D01*
X607855990Y913163411D01*
X607693475Y913406632D01*
X607486632Y913613475D01*
X607312240Y913730000D01*
X607486632Y913846525D01*
X607693475Y914053368D01*
X607855990Y914296589D01*
X607967932Y914566842D01*
X608025000Y914853740D01*
X608025000Y915146260D01*
X607992882Y915307726D01*
X608372343Y915687187D01*
X608372348Y915687193D01*
X608650156Y915965001D01*
X612830514Y915965001D01*
X612708596Y915670665D01*
X612640000Y915325807D01*
X612640000Y914974193D01*
X612708596Y914629335D01*
X612843153Y914304485D01*
X613038500Y914012129D01*
X613287129Y913763500D01*
X613579485Y913568153D01*
X613904335Y913433596D01*
X614249193Y913365000D01*
X614600807Y913365000D01*
X614945665Y913433596D01*
X615270515Y913568153D01*
X615562871Y913763500D01*
X615707022Y913907651D01*
X628762256Y913907651D01*
X628876118Y913627910D01*
X629191296Y913472039D01*
X629530826Y913380651D01*
X629881661Y913357259D01*
X630230319Y913402760D01*
X630563400Y913515406D01*
X630773882Y913627910D01*
X630887744Y913907651D01*
X629825000Y914970395D01*
X628762256Y913907651D01*
X615707022Y913907651D01*
X615811500Y914012129D01*
X616006847Y914304485D01*
X616141404Y914629335D01*
X616210000Y914974193D01*
X616210000Y915325807D01*
X616141404Y915670665D01*
X616019486Y915965001D01*
X628236699Y915965001D01*
X628147039Y915783704D01*
X628055651Y915444174D01*
X628032259Y915093339D01*
X628077760Y914744681D01*
X628190406Y914411600D01*
X628302910Y914201118D01*
X628582651Y914087256D01*
X629645395Y915150000D01*
X629631253Y915164143D01*
X629810858Y915343748D01*
X629825000Y915329605D01*
X629839143Y915343748D01*
X630018748Y915164143D01*
X630004605Y915150000D01*
X631067349Y914087256D01*
X631347090Y914201118D01*
X631502961Y914516296D01*
X631549715Y914690000D01*
X638441928Y914690000D01*
X638441928Y912990000D01*
X638454188Y912865518D01*
X638490498Y912745820D01*
X638549463Y912635506D01*
X638628815Y912538815D01*
X638725506Y912459463D01*
X638835820Y912400498D01*
X638908380Y912378487D01*
X638776525Y912246632D01*
X638614010Y912003411D01*
X638502068Y911733158D01*
X638445000Y911446260D01*
X638445000Y911153740D01*
X638502068Y910866842D01*
X638614010Y910596589D01*
X638776525Y910353368D01*
X638983368Y910146525D01*
X639226589Y909984010D01*
X639496842Y909872068D01*
X639783740Y909815000D01*
X640076260Y909815000D01*
X640363158Y909872068D01*
X640633411Y909984010D01*
X640876632Y910146525D01*
X641083475Y910353368D01*
X641245990Y910596589D01*
X641357932Y910866842D01*
X641415000Y911153740D01*
X641415000Y911446260D01*
X641357932Y911733158D01*
X641245990Y912003411D01*
X641083475Y912246632D01*
X640951620Y912378487D01*
X641024180Y912400498D01*
X641134494Y912459463D01*
X641231185Y912538815D01*
X641310537Y912635506D01*
X641369502Y912745820D01*
X641405812Y912865518D01*
X641418072Y912990000D01*
X641418072Y914690000D01*
X641405812Y914814482D01*
X641369502Y914934180D01*
X641310537Y915044494D01*
X641231185Y915141185D01*
X641134494Y915220537D01*
X641024180Y915279502D01*
X640904482Y915315812D01*
X640780000Y915328072D01*
X639080000Y915328072D01*
X638955518Y915315812D01*
X638835820Y915279502D01*
X638725506Y915220537D01*
X638628815Y915141185D01*
X638549463Y915044494D01*
X638490498Y914934180D01*
X638454188Y914814482D01*
X638441928Y914690000D01*
X631549715Y914690000D01*
X631594349Y914855826D01*
X631617741Y915206661D01*
X631572240Y915555319D01*
X631459594Y915888400D01*
X631418650Y915965001D01*
X658204842Y915965001D01*
X665981928Y908187915D01*
X665981928Y905510000D01*
X665994188Y905385518D01*
X666030498Y905265820D01*
X666089463Y905155506D01*
X666168815Y905058815D01*
X666265506Y904979463D01*
X666375820Y904920498D01*
X666495518Y904884188D01*
X666620000Y904871928D01*
X669620000Y904871928D01*
X669744482Y904884188D01*
X669864180Y904920498D01*
X669974494Y904979463D01*
X670071185Y905058815D01*
X670150537Y905155506D01*
X670209502Y905265820D01*
X670245812Y905385518D01*
X670258072Y905510000D01*
X670258072Y908510000D01*
X670245812Y908634482D01*
X670209502Y908754180D01*
X670150537Y908864494D01*
X670071185Y908961185D01*
X669974494Y909040537D01*
X669864180Y909099502D01*
X669744482Y909135812D01*
X669620000Y909148072D01*
X667242085Y909148072D01*
X659112346Y917277811D01*
X659087763Y917307765D01*
X658968232Y917405863D01*
X658831859Y917478755D01*
X658683886Y917523642D01*
X658568560Y917535001D01*
X658568552Y917535001D01*
X658529999Y917538798D01*
X658491446Y917535001D01*
X643866555Y917535001D01*
X643875812Y917565518D01*
X643888072Y917690000D01*
X643885000Y918254250D01*
X643726250Y918413000D01*
X642527000Y918413000D01*
X642527000Y918393000D01*
X642273000Y918393000D01*
X642273000Y918413000D01*
X642253000Y918413000D01*
X642253000Y918667000D01*
X642273000Y918667000D01*
X642273000Y919866250D01*
X642527000Y919866250D01*
X642527000Y918667000D01*
X643726250Y918667000D01*
X643885000Y918825750D01*
X643888072Y919390000D01*
X643875812Y919514482D01*
X643839502Y919634180D01*
X643780537Y919744494D01*
X643701185Y919841185D01*
X643604494Y919920537D01*
X643494180Y919979502D01*
X643374482Y920015812D01*
X643250000Y920028072D01*
X642685750Y920025000D01*
X642527000Y919866250D01*
X642273000Y919866250D01*
X642114250Y920025000D01*
X641550000Y920028072D01*
X641425518Y920015812D01*
X641305820Y919979502D01*
X641195506Y919920537D01*
X641098815Y919841185D01*
X641019463Y919744494D01*
X640960498Y919634180D01*
X640938487Y919561620D01*
X640806632Y919693475D01*
X640563411Y919855990D01*
X640293158Y919967932D01*
X640006260Y920025000D01*
X639713740Y920025000D01*
X639426842Y919967932D01*
X639156589Y919855990D01*
X638913368Y919693475D01*
X638706525Y919486632D01*
X638590000Y919312240D01*
X638473475Y919486632D01*
X638266632Y919693475D01*
X638023411Y919855990D01*
X637753158Y919967932D01*
X637466260Y920025000D01*
X637173740Y920025000D01*
X636886842Y919967932D01*
X636616589Y919855990D01*
X636373368Y919693475D01*
X636166525Y919486632D01*
X636004010Y919243411D01*
X635892068Y918973158D01*
X635835000Y918686260D01*
X635835000Y918393740D01*
X635892068Y918106842D01*
X636004010Y917836589D01*
X636166525Y917593368D01*
X636224892Y917535001D01*
X608363555Y917535001D01*
X608324999Y917538798D01*
X608286443Y917535001D01*
X608286438Y917535001D01*
X608246025Y917531021D01*
X608171112Y917523643D01*
X608025000Y917479320D01*
X608025000Y917686260D01*
X607967932Y917973158D01*
X607855990Y918243411D01*
X607693475Y918486632D01*
X607486632Y918693475D01*
X607312240Y918810000D01*
X607486632Y918926525D01*
X607693475Y919133368D01*
X607855990Y919376589D01*
X607967932Y919646842D01*
X608025000Y919933740D01*
X608025000Y920226260D01*
X607967932Y920513158D01*
X607855990Y920783411D01*
X607693475Y921026632D01*
X607486632Y921233475D01*
X607312240Y921350000D01*
X607486632Y921466525D01*
X607693475Y921673368D01*
X607855990Y921916589D01*
X607967932Y922186842D01*
X608025000Y922473740D01*
X608025000Y922766260D01*
X607967932Y923053158D01*
X607855990Y923323411D01*
X607693475Y923566632D01*
X607486632Y923773475D01*
X607312240Y923890000D01*
X607486632Y924006525D01*
X607693475Y924213368D01*
X607855990Y924456589D01*
X607967932Y924726842D01*
X608025000Y925013740D01*
X608025000Y925306260D01*
X607967932Y925593158D01*
X607855990Y925863411D01*
X607693475Y926106632D01*
X607486632Y926313475D01*
X607312240Y926430000D01*
X607486632Y926546525D01*
X607693475Y926753368D01*
X607855990Y926996589D01*
X607967932Y927266842D01*
X608025000Y927553740D01*
X608025000Y927846260D01*
X607967932Y928133158D01*
X607855990Y928403411D01*
X607693475Y928646632D01*
X607486632Y928853475D01*
X607312240Y928970000D01*
X607486632Y929086525D01*
X607693475Y929293368D01*
X607855990Y929536589D01*
X607967932Y929806842D01*
X608025000Y930093740D01*
X608025000Y930386260D01*
X607967932Y930673158D01*
X607855990Y930943411D01*
X607693475Y931186632D01*
X607486632Y931393475D01*
X607312240Y931510000D01*
X607486632Y931626525D01*
X607693475Y931833368D01*
X607855990Y932076589D01*
X607967932Y932346842D01*
X608025000Y932633740D01*
X608025000Y932926260D01*
X607967932Y933213158D01*
X607855990Y933483411D01*
X607693475Y933726632D01*
X607486632Y933933475D01*
X607304466Y934055195D01*
X607421355Y934124822D01*
X607637588Y934319731D01*
X607811641Y934553080D01*
X607936825Y934815901D01*
X607981476Y934963110D01*
X607860155Y935193000D01*
X606667000Y935193000D01*
X606667000Y935173000D01*
X606413000Y935173000D01*
X606413000Y935193000D01*
X605219845Y935193000D01*
X605098524Y934963110D01*
X605143175Y934815901D01*
X605268359Y934553080D01*
X605442412Y934319731D01*
X605658645Y934124822D01*
X605775534Y934055195D01*
X605593368Y933933475D01*
X605386525Y933726632D01*
X605224010Y933483411D01*
X605112068Y933213158D01*
X605055000Y932926260D01*
X605055000Y932633740D01*
X605112068Y932346842D01*
X605224010Y932076589D01*
X605386525Y931833368D01*
X605593368Y931626525D01*
X605767760Y931510000D01*
X605593368Y931393475D01*
X605386525Y931186632D01*
X605224010Y930943411D01*
X605112068Y930673158D01*
X605055000Y930386260D01*
X605055000Y930093740D01*
X605112068Y929806842D01*
X605224010Y929536589D01*
X605386525Y929293368D01*
X605593368Y929086525D01*
X605767760Y928970000D01*
X605593368Y928853475D01*
X605386525Y928646632D01*
X605224010Y928403411D01*
X605112068Y928133158D01*
X605055000Y927846260D01*
X605055000Y927553740D01*
X605112068Y927266842D01*
X605224010Y926996589D01*
X605386525Y926753368D01*
X605593368Y926546525D01*
X605767760Y926430000D01*
X605593368Y926313475D01*
X605386525Y926106632D01*
X605224010Y925863411D01*
X605112068Y925593158D01*
X605055000Y925306260D01*
X605055000Y925013740D01*
X605112068Y924726842D01*
X605224010Y924456589D01*
X605386525Y924213368D01*
X605593368Y924006525D01*
X605767760Y923890000D01*
X605593368Y923773475D01*
X605386525Y923566632D01*
X605224010Y923323411D01*
X605112068Y923053158D01*
X605055000Y922766260D01*
X605055000Y922473740D01*
X605112068Y922186842D01*
X605224010Y921916589D01*
X605386525Y921673368D01*
X605593368Y921466525D01*
X605767760Y921350000D01*
X605593368Y921233475D01*
X605386525Y921026632D01*
X605224010Y920783411D01*
X605112068Y920513158D01*
X605055000Y920226260D01*
X605055000Y919933740D01*
X605112068Y919646842D01*
X605224010Y919376589D01*
X605386525Y919133368D01*
X605593368Y918926525D01*
X605767760Y918810000D01*
X605593368Y918693475D01*
X605386525Y918486632D01*
X605224010Y918243411D01*
X605112068Y917973158D01*
X605055000Y917686260D01*
X605055000Y917393740D01*
X605112068Y917106842D01*
X605224010Y916836589D01*
X605386525Y916593368D01*
X605593368Y916386525D01*
X605767760Y916270000D01*
X605593368Y916153475D01*
X605386525Y915946632D01*
X605224010Y915703411D01*
X605112068Y915433158D01*
X605055000Y915146260D01*
X605055000Y914853740D01*
X605112068Y914566842D01*
X605224010Y914296589D01*
X605386525Y914053368D01*
X605593368Y913846525D01*
X605767760Y913730000D01*
X605593368Y913613475D01*
X605386525Y913406632D01*
X605224010Y913163411D01*
X605112068Y912893158D01*
X605055000Y912606260D01*
X605055000Y912313740D01*
X605112068Y912026842D01*
X605224010Y911756589D01*
X605386525Y911513368D01*
X605593368Y911306525D01*
X605767760Y911190000D01*
X605593368Y911073475D01*
X605386525Y910866632D01*
X605224010Y910623411D01*
X605112068Y910353158D01*
X605055000Y910066260D01*
X605055000Y909773740D01*
X605112068Y909486842D01*
X605224010Y909216589D01*
X605386525Y908973368D01*
X605593368Y908766525D01*
X605767760Y908650000D01*
X605593368Y908533475D01*
X605386525Y908326632D01*
X605224010Y908083411D01*
X605112068Y907813158D01*
X605055000Y907526260D01*
X605055000Y907233740D01*
X605112068Y906946842D01*
X605224010Y906676589D01*
X605386525Y906433368D01*
X605593368Y906226525D01*
X605767760Y906110000D01*
X605593368Y905993475D01*
X605386525Y905786632D01*
X605224010Y905543411D01*
X605112068Y905273158D01*
X605055000Y904986260D01*
X605055000Y904693740D01*
X605112068Y904406842D01*
X605224010Y904136589D01*
X605386525Y903893368D01*
X605518380Y903761513D01*
X605445820Y903739502D01*
X605335506Y903680537D01*
X605238815Y903601185D01*
X605159463Y903504494D01*
X605100498Y903394180D01*
X605064188Y903274482D01*
X605051928Y903150000D01*
X605051928Y901784999D01*
X590385159Y901784999D01*
X582587075Y909583082D01*
X582625000Y909773740D01*
X582625000Y910066260D01*
X582567932Y910353158D01*
X582455990Y910623411D01*
X582293475Y910866632D01*
X582086632Y911073475D01*
X581912240Y911190000D01*
X582086632Y911306525D01*
X582293475Y911513368D01*
X582455990Y911756589D01*
X582567932Y912026842D01*
X582625000Y912313740D01*
X582625000Y912606260D01*
X582567932Y912893158D01*
X582455990Y913163411D01*
X582293475Y913406632D01*
X582086632Y913613475D01*
X581912240Y913730000D01*
X582086632Y913846525D01*
X582293475Y914053368D01*
X582455990Y914296589D01*
X582567932Y914566842D01*
X582625000Y914853740D01*
X582625000Y915146260D01*
X582567932Y915433158D01*
X582455990Y915703411D01*
X582293475Y915946632D01*
X582086632Y916153475D01*
X581912240Y916270000D01*
X582086632Y916386525D01*
X582293475Y916593368D01*
X582455990Y916836589D01*
X582567932Y917106842D01*
X582625000Y917393740D01*
X582625000Y917686260D01*
X582567932Y917973158D01*
X582455990Y918243411D01*
X582293475Y918486632D01*
X582086632Y918693475D01*
X581912240Y918810000D01*
X582086632Y918926525D01*
X582293475Y919133368D01*
X582455990Y919376589D01*
X582567932Y919646842D01*
X582625000Y919933740D01*
X582625000Y920226260D01*
X582567932Y920513158D01*
X582455990Y920783411D01*
X582293475Y921026632D01*
X582086632Y921233475D01*
X581912240Y921350000D01*
X582086632Y921466525D01*
X582293475Y921673368D01*
X582455990Y921916589D01*
X582567932Y922186842D01*
X582625000Y922473740D01*
X582625000Y922766260D01*
X582567932Y923053158D01*
X582455990Y923323411D01*
X582293475Y923566632D01*
X582086632Y923773475D01*
X581912240Y923890000D01*
X582086632Y924006525D01*
X582293475Y924213368D01*
X582455990Y924456589D01*
X582567932Y924726842D01*
X582625000Y925013740D01*
X582625000Y925306260D01*
X582567932Y925593158D01*
X582455990Y925863411D01*
X582293475Y926106632D01*
X582086632Y926313475D01*
X581912240Y926430000D01*
X582086632Y926546525D01*
X582293475Y926753368D01*
X582455990Y926996589D01*
X582567932Y927266842D01*
X582625000Y927553740D01*
X582625000Y927846260D01*
X582567932Y928133158D01*
X582455990Y928403411D01*
X582293475Y928646632D01*
X582086632Y928853475D01*
X581912240Y928970000D01*
X582086632Y929086525D01*
X582293475Y929293368D01*
X582455990Y929536589D01*
X582567932Y929806842D01*
X582625000Y930093740D01*
X582625000Y930386260D01*
X582567932Y930673158D01*
X582455990Y930943411D01*
X582293475Y931186632D01*
X582086632Y931393475D01*
X581912240Y931510000D01*
X582086632Y931626525D01*
X582293475Y931833368D01*
X582455990Y932076589D01*
X582567932Y932346842D01*
X582625000Y932633740D01*
X582625000Y932926260D01*
X582567932Y933213158D01*
X582455990Y933483411D01*
X582293475Y933726632D01*
X582086632Y933933475D01*
X581904466Y934055195D01*
X582021355Y934124822D01*
X582237588Y934319731D01*
X582411641Y934553080D01*
X582536825Y934815901D01*
X582581476Y934963110D01*
X582460155Y935193000D01*
X581267000Y935193000D01*
X581267000Y935173000D01*
X581013000Y935173000D01*
X581013000Y935193000D01*
X579819845Y935193000D01*
X579698524Y934963110D01*
X579743175Y934815901D01*
X579868359Y934553080D01*
X580042412Y934319731D01*
X580258645Y934124822D01*
X580375534Y934055195D01*
X580193368Y933933475D01*
X579986525Y933726632D01*
X579824010Y933483411D01*
X579712068Y933213158D01*
X579655000Y932926260D01*
X579655000Y932633740D01*
X579712068Y932346842D01*
X579824010Y932076589D01*
X579986525Y931833368D01*
X580193368Y931626525D01*
X580367760Y931510000D01*
X580193368Y931393475D01*
X579986525Y931186632D01*
X579824010Y930943411D01*
X579712068Y930673158D01*
X579655000Y930386260D01*
X579655000Y930093740D01*
X579712068Y929806842D01*
X579824010Y929536589D01*
X579986525Y929293368D01*
X580193368Y929086525D01*
X580367760Y928970000D01*
X580193368Y928853475D01*
X579986525Y928646632D01*
X579824010Y928403411D01*
X579712068Y928133158D01*
X579655000Y927846260D01*
X579655000Y927553740D01*
X579712068Y927266842D01*
X579824010Y926996589D01*
X579986525Y926753368D01*
X580193368Y926546525D01*
X580367760Y926430000D01*
X580193368Y926313475D01*
X579986525Y926106632D01*
X579824010Y925863411D01*
X579712068Y925593158D01*
X579655000Y925306260D01*
X579655000Y925013740D01*
X579712068Y924726842D01*
X579824010Y924456589D01*
X579986525Y924213368D01*
X580193368Y924006525D01*
X580367760Y923890000D01*
X580193368Y923773475D01*
X579986525Y923566632D01*
X579824010Y923323411D01*
X579712068Y923053158D01*
X579655000Y922766260D01*
X579655000Y922473740D01*
X579712068Y922186842D01*
X579824010Y921916589D01*
X579986525Y921673368D01*
X580193368Y921466525D01*
X580367760Y921350000D01*
X580193368Y921233475D01*
X579986525Y921026632D01*
X579824010Y920783411D01*
X579712068Y920513158D01*
X579655000Y920226260D01*
X579655000Y919933740D01*
X579712068Y919646842D01*
X579824010Y919376589D01*
X579986525Y919133368D01*
X580193368Y918926525D01*
X580367760Y918810000D01*
X580193368Y918693475D01*
X579986525Y918486632D01*
X579824010Y918243411D01*
X579712068Y917973158D01*
X579655000Y917686260D01*
X579655000Y917393740D01*
X579712068Y917106842D01*
X579824010Y916836589D01*
X579986525Y916593368D01*
X580193368Y916386525D01*
X580367760Y916270000D01*
X580193368Y916153475D01*
X579986525Y915946632D01*
X579824010Y915703411D01*
X579712068Y915433158D01*
X579655000Y915146260D01*
X579655000Y914853740D01*
X579712068Y914566842D01*
X579824010Y914296589D01*
X579986525Y914053368D01*
X580193368Y913846525D01*
X580367760Y913730000D01*
X580193368Y913613475D01*
X579986525Y913406632D01*
X579824010Y913163411D01*
X579712068Y912893158D01*
X579655000Y912606260D01*
X579655000Y912313740D01*
X579712068Y912026842D01*
X579824010Y911756589D01*
X579986525Y911513368D01*
X580193368Y911306525D01*
X580367760Y911190000D01*
X580193368Y911073475D01*
X579986525Y910866632D01*
X579824010Y910623411D01*
X579712068Y910353158D01*
X579655000Y910066260D01*
X579655000Y909773740D01*
X579712068Y909486842D01*
X579824010Y909216589D01*
X579986525Y908973368D01*
X580193368Y908766525D01*
X580367760Y908650000D01*
X580193368Y908533475D01*
X579986525Y908326632D01*
X579824010Y908083411D01*
X579712068Y907813158D01*
X579655000Y907526260D01*
X579655000Y907233740D01*
X579712068Y906946842D01*
X579824010Y906676589D01*
X579986525Y906433368D01*
X580193368Y906226525D01*
X580367760Y906110000D01*
X580193368Y905993475D01*
X579986525Y905786632D01*
X579824010Y905543411D01*
X579712068Y905273158D01*
X579655000Y904986260D01*
X579655000Y904693740D01*
X579712068Y904406842D01*
X579824010Y904136589D01*
X579986525Y903893368D01*
X580118380Y903761513D01*
X580045820Y903739502D01*
X579935506Y903680537D01*
X579838815Y903601185D01*
X579759463Y903504494D01*
X579700498Y903394180D01*
X579664188Y903274482D01*
X579651928Y903150000D01*
X577240000Y903150000D01*
X577240000Y938006260D01*
X579655000Y938006260D01*
X579655000Y937713740D01*
X579712068Y937426842D01*
X579824010Y937156589D01*
X579986525Y936913368D01*
X580193368Y936706525D01*
X580375534Y936584805D01*
X580258645Y936515178D01*
X580042412Y936320269D01*
X579868359Y936086920D01*
X579743175Y935824099D01*
X579698524Y935676890D01*
X579819845Y935447000D01*
X581013000Y935447000D01*
X581013000Y935467000D01*
X581267000Y935467000D01*
X581267000Y935447000D01*
X582460155Y935447000D01*
X582581476Y935676890D01*
X582536825Y935824099D01*
X582411641Y936086920D01*
X582237588Y936320269D01*
X582021355Y936515178D01*
X581904466Y936584805D01*
X582086632Y936706525D01*
X582293475Y936913368D01*
X582455990Y937156589D01*
X582567932Y937426842D01*
X582625000Y937713740D01*
X582625000Y938006260D01*
X605055000Y938006260D01*
X605055000Y937713740D01*
X605112068Y937426842D01*
X605224010Y937156589D01*
X605386525Y936913368D01*
X605593368Y936706525D01*
X605775534Y936584805D01*
X605658645Y936515178D01*
X605442412Y936320269D01*
X605268359Y936086920D01*
X605143175Y935824099D01*
X605098524Y935676890D01*
X605219845Y935447000D01*
X606413000Y935447000D01*
X606413000Y935467000D01*
X606667000Y935467000D01*
X606667000Y935447000D01*
X607860155Y935447000D01*
X607981476Y935676890D01*
X607936825Y935824099D01*
X607811641Y936086920D01*
X607637588Y936320269D01*
X607421355Y936515178D01*
X607304466Y936584805D01*
X607486632Y936706525D01*
X607693475Y936913368D01*
X607855990Y937156589D01*
X607967932Y937426842D01*
X608025000Y937713740D01*
X608025000Y938006260D01*
X607967932Y938293158D01*
X607855990Y938563411D01*
X607693475Y938806632D01*
X607486632Y939013475D01*
X607243411Y939175990D01*
X606973158Y939287932D01*
X606686260Y939345000D01*
X606393740Y939345000D01*
X606106842Y939287932D01*
X605836589Y939175990D01*
X605593368Y939013475D01*
X605386525Y938806632D01*
X605224010Y938563411D01*
X605112068Y938293158D01*
X605055000Y938006260D01*
X582625000Y938006260D01*
X582567932Y938293158D01*
X582455990Y938563411D01*
X582293475Y938806632D01*
X582086632Y939013475D01*
X581843411Y939175990D01*
X581573158Y939287932D01*
X581286260Y939345000D01*
X580993740Y939345000D01*
X580706842Y939287932D01*
X580436589Y939175990D01*
X580193368Y939013475D01*
X579986525Y938806632D01*
X579824010Y938563411D01*
X579712068Y938293158D01*
X579655000Y938006260D01*
X577240000Y938006260D01*
X577240000Y957525000D01*
X578636928Y957525000D01*
X578636928Y955825000D01*
X578649188Y955700518D01*
X578685498Y955580820D01*
X578744463Y955470506D01*
X578823815Y955373815D01*
X578920506Y955294463D01*
X579030820Y955235498D01*
X579150518Y955199188D01*
X579275000Y955186928D01*
X580975000Y955186928D01*
X581099482Y955199188D01*
X581219180Y955235498D01*
X581329494Y955294463D01*
X581426185Y955373815D01*
X581505537Y955470506D01*
X581564502Y955580820D01*
X581600812Y955700518D01*
X581613072Y955825000D01*
X581613072Y957525000D01*
X581600812Y957649482D01*
X581564502Y957769180D01*
X581505537Y957879494D01*
X581426185Y957976185D01*
X581329494Y958055537D01*
X581219180Y958114502D01*
X581146620Y958136513D01*
X581278475Y958268368D01*
X581440990Y958511589D01*
X581552932Y958781842D01*
X581610000Y959068740D01*
X581610000Y959361260D01*
X581552932Y959648158D01*
X581440990Y959918411D01*
X581278475Y960161632D01*
X581071632Y960368475D01*
X580889466Y960490195D01*
X581006355Y960559822D01*
X581222588Y960754731D01*
X581396641Y960988080D01*
X581521825Y961250901D01*
X581566476Y961398110D01*
X581445155Y961628000D01*
X580252000Y961628000D01*
X580252000Y961608000D01*
X579998000Y961608000D01*
X579998000Y961628000D01*
X578804845Y961628000D01*
X578683524Y961398110D01*
X578728175Y961250901D01*
X578853359Y960988080D01*
X579027412Y960754731D01*
X579243645Y960559822D01*
X579360534Y960490195D01*
X579178368Y960368475D01*
X578971525Y960161632D01*
X578809010Y959918411D01*
X578697068Y959648158D01*
X578640000Y959361260D01*
X578640000Y959068740D01*
X578697068Y958781842D01*
X578809010Y958511589D01*
X578971525Y958268368D01*
X579103380Y958136513D01*
X579030820Y958114502D01*
X578920506Y958055537D01*
X578823815Y957976185D01*
X578744463Y957879494D01*
X578685498Y957769180D01*
X578649188Y957649482D01*
X578636928Y957525000D01*
X577240000Y957525000D01*
X577240000Y963938110D01*
X578683524Y963938110D01*
X578728175Y963790901D01*
X578853359Y963528080D01*
X579027412Y963294731D01*
X579243645Y963099822D01*
X579369255Y963025000D01*
X579243645Y962950178D01*
X579027412Y962755269D01*
X578853359Y962521920D01*
X578728175Y962259099D01*
X578683524Y962111890D01*
X578804845Y961882000D01*
X579998000Y961882000D01*
X579998000Y964168000D01*
X580252000Y964168000D01*
X580252000Y961882000D01*
X581445155Y961882000D01*
X581566476Y962111890D01*
X581521825Y962259099D01*
X581396641Y962521920D01*
X581222588Y962755269D01*
X581006355Y962950178D01*
X580880745Y963025000D01*
X581006355Y963099822D01*
X581222588Y963294731D01*
X581396641Y963528080D01*
X581521825Y963790901D01*
X581566476Y963938110D01*
X581445155Y964168000D01*
X580252000Y964168000D01*
X579998000Y964168000D01*
X578804845Y964168000D01*
X578683524Y963938110D01*
X577240000Y963938110D01*
X577240000Y964651890D01*
X578683524Y964651890D01*
X578804845Y964422000D01*
X579998000Y964422000D01*
X579998000Y965615814D01*
X580252000Y965615814D01*
X580252000Y964422000D01*
X581445155Y964422000D01*
X581566476Y964651890D01*
X581521825Y964799099D01*
X581396641Y965061920D01*
X581222588Y965295269D01*
X581006355Y965490178D01*
X580756252Y965639157D01*
X580481891Y965736481D01*
X580252000Y965615814D01*
X579998000Y965615814D01*
X579768109Y965736481D01*
X579493748Y965639157D01*
X579243645Y965490178D01*
X579027412Y965295269D01*
X578853359Y965061920D01*
X578728175Y964799099D01*
X578683524Y964651890D01*
X577240000Y964651890D01*
X577240000Y981270000D01*
X615843000Y981270000D01*
X615843000Y938600000D01*
G37*
G04 #@! TD.AperFunction*
M02*
