G04 #@! TF.GenerationSoftware,KiCad,Pcbnew,5.1.12-84ad8e8a86~92~ubuntu18.04.1*
G04 #@! TF.CreationDate,2022-02-22T10:12:46-04:00*
G04 #@! TF.ProjectId,OMC_WIFI_PCB,4f4d435f-5749-4464-995f-5043422e6b69,rev?*
G04 #@! TF.SameCoordinates,Original*
G04 #@! TF.FileFunction,Legend,Bot*
G04 #@! TF.FilePolarity,Positive*
%FSLAX46Y46*%
G04 Gerber Fmt 4.6, Leading zero omitted, Abs format (unit mm)*
G04 Created by KiCad (PCBNEW 5.1.12-84ad8e8a86~92~ubuntu18.04.1) date 2022-02-22 10:12:46*
%MOMM*%
%LPD*%
G01*
G04 APERTURE LIST*
%ADD10C,0.150000*%
%ADD11C,0.500000*%
%ADD12C,0.100000*%
%ADD13O,1.800000X1.800000*%
%ADD14C,2.100000*%
%ADD15C,3.100000*%
%ADD16C,1.900000*%
%ADD17C,2.400000*%
%ADD18C,2.650000*%
%ADD19C,0.254000*%
G04 APERTURE END LIST*
%LPC*%
D10*
X632356343Y954380324D02*
X631880154Y954379381D01*
X631833478Y953903097D01*
X631881002Y953950810D01*
X631976146Y953998618D01*
X632214241Y953999089D01*
X632309573Y953951659D01*
X632357286Y953904134D01*
X632405094Y953808991D01*
X632405565Y953570896D01*
X632358135Y953475564D01*
X632310610Y953427851D01*
X632215466Y953380043D01*
X631977372Y953379572D01*
X631882039Y953427002D01*
X631834326Y953474527D01*
X632882038Y953428982D02*
X632882132Y953381363D01*
X632834701Y953286031D01*
X632787177Y953238318D01*
X633499198Y954382587D02*
X633594436Y954382776D01*
X633689768Y954335345D01*
X633737481Y954287821D01*
X633785289Y954192677D01*
X633833285Y954002296D01*
X633833757Y953764201D01*
X633786515Y953573631D01*
X633739084Y953478298D01*
X633691560Y953430585D01*
X633596416Y953382778D01*
X633501178Y953382589D01*
X633405846Y953430019D01*
X633358133Y953477544D01*
X633310325Y953572688D01*
X633262329Y953763069D01*
X633261858Y954001164D01*
X633309099Y954191734D01*
X633356530Y954287066D01*
X633404054Y954334780D01*
X633499198Y954382587D01*
X634737291Y954385039D02*
X634261101Y954384096D01*
X634214425Y953907812D01*
X634261950Y953955525D01*
X634357094Y954003333D01*
X634595188Y954003804D01*
X634690521Y953956374D01*
X634738234Y953908849D01*
X634786041Y953813706D01*
X634786513Y953575611D01*
X634739082Y953480279D01*
X634691558Y953432565D01*
X634596414Y953384758D01*
X634358319Y953384286D01*
X634262987Y953431717D01*
X634215274Y953479241D01*
X635403956Y954386359D02*
X635499194Y954386547D01*
X635594526Y954339117D01*
X635642240Y954291592D01*
X635690047Y954196449D01*
X635738043Y954006067D01*
X635738515Y953767973D01*
X635691273Y953577402D01*
X635643843Y953482070D01*
X635596318Y953434357D01*
X635501174Y953386549D01*
X635405936Y953386361D01*
X635310604Y953433791D01*
X635262891Y953481316D01*
X635215083Y953576459D01*
X635167087Y953766841D01*
X635166616Y954004936D01*
X635213858Y954195506D01*
X635261288Y954290838D01*
X635308813Y954338551D01*
X635403956Y954386359D01*
X636929743Y953389378D02*
X636928423Y954056044D01*
X636928611Y953960806D02*
X636976136Y954008519D01*
X637071280Y954056327D01*
X637214137Y954056609D01*
X637309469Y954009179D01*
X637357276Y953914035D01*
X637358314Y953390227D01*
X637357276Y953914035D02*
X637404707Y954009368D01*
X637499850Y954057175D01*
X637642707Y954057458D01*
X637738039Y954010028D01*
X637785847Y953914884D01*
X637786884Y953391076D01*
X638263074Y953392019D02*
X638261754Y954058684D01*
X638261942Y953963446D02*
X638309467Y954011159D01*
X638404610Y954058967D01*
X638547467Y954059250D01*
X638642799Y954011819D01*
X638690607Y953916676D01*
X638691644Y953392867D01*
X638690607Y953916676D02*
X638738037Y954012008D01*
X638833181Y954059815D01*
X638976038Y954060098D01*
X639071370Y954012668D01*
X639119178Y953917524D01*
X639120215Y953393716D01*
X632972705Y955133927D02*
X638022705Y955143927D01*
X632970000Y956500000D02*
X632973866Y954547507D01*
X638020000Y956510000D02*
X638023866Y954557507D01*
X638022705Y955143927D02*
X636897365Y954555277D01*
X638022705Y955143927D02*
X636895042Y955728116D01*
X632972705Y955133927D02*
X634100368Y954549738D01*
X632972705Y955133927D02*
X634098045Y955722577D01*
D11*
X669701391Y942890000D02*
G75*
G03*
X669701391Y942890000I-1761391J0D01*
G01*
D12*
G36*
X617700000Y961680000D02*
G01*
X617670000Y961650000D01*
X617670000Y961730000D01*
X617700000Y961680000D01*
G37*
X617700000Y961680000D02*
X617670000Y961650000D01*
X617670000Y961730000D01*
X617700000Y961680000D01*
G36*
G01*
X632820000Y903830000D02*
X631120000Y903830000D01*
G75*
G02*
X631070000Y903880000I0J50000D01*
G01*
X631070000Y905580000D01*
G75*
G02*
X631120000Y905630000I50000J0D01*
G01*
X632820000Y905630000D01*
G75*
G02*
X632870000Y905580000I0J-50000D01*
G01*
X632870000Y903880000D01*
G75*
G02*
X632820000Y903830000I-50000J0D01*
G01*
G37*
D13*
X634510000Y904730000D03*
X637050000Y904730000D03*
X639590000Y904730000D03*
X642130000Y904730000D03*
X644670000Y904730000D03*
X639930000Y911300000D03*
G36*
G01*
X639030000Y912990000D02*
X639030000Y914690000D01*
G75*
G02*
X639080000Y914740000I50000J0D01*
G01*
X640780000Y914740000D01*
G75*
G02*
X640830000Y914690000I0J-50000D01*
G01*
X640830000Y912990000D01*
G75*
G02*
X640780000Y912940000I-50000J0D01*
G01*
X639080000Y912940000D01*
G75*
G02*
X639030000Y912990000I0J50000D01*
G01*
G37*
D14*
X639690000Y962160000D03*
X634610000Y962170000D03*
X654570000Y962180000D03*
X649490000Y962190000D03*
G36*
G01*
X626200000Y957475000D02*
X623200000Y957475000D01*
G75*
G02*
X623150000Y957525000I0J50000D01*
G01*
X623150000Y960525000D01*
G75*
G02*
X623200000Y960575000I50000J0D01*
G01*
X626200000Y960575000D01*
G75*
G02*
X626250000Y960525000I0J-50000D01*
G01*
X626250000Y957525000D01*
G75*
G02*
X626200000Y957475000I-50000J0D01*
G01*
G37*
D15*
X624700000Y964105000D03*
X657960000Y907010000D03*
X663040000Y907010000D03*
G36*
G01*
X669670000Y908510000D02*
X669670000Y905510000D01*
G75*
G02*
X669620000Y905460000I-50000J0D01*
G01*
X666620000Y905460000D01*
G75*
G02*
X666570000Y905510000I0J50000D01*
G01*
X666570000Y908510000D01*
G75*
G02*
X666620000Y908560000I50000J0D01*
G01*
X669620000Y908560000D01*
G75*
G02*
X669670000Y908510000I0J-50000D01*
G01*
G37*
G36*
G01*
X643800000Y944400000D02*
X643800000Y941400000D01*
G75*
G02*
X643750000Y941350000I-50000J0D01*
G01*
X640750000Y941350000D01*
G75*
G02*
X640700000Y941400000I0J50000D01*
G01*
X640700000Y944400000D01*
G75*
G02*
X640750000Y944450000I50000J0D01*
G01*
X643750000Y944450000D01*
G75*
G02*
X643800000Y944400000I0J-50000D01*
G01*
G37*
X637170000Y942900000D03*
X662860000Y943080000D03*
X667940000Y943080000D03*
G36*
G01*
X674570000Y944580000D02*
X674570000Y941580000D01*
G75*
G02*
X674520000Y941530000I-50000J0D01*
G01*
X671520000Y941530000D01*
G75*
G02*
X671470000Y941580000I0J50000D01*
G01*
X671470000Y944580000D01*
G75*
G02*
X671520000Y944630000I50000J0D01*
G01*
X674520000Y944630000D01*
G75*
G02*
X674570000Y944580000I0J-50000D01*
G01*
G37*
G36*
G01*
X626535000Y902515000D02*
X626535000Y900715000D01*
G75*
G02*
X626485000Y900665000I-50000J0D01*
G01*
X624685000Y900665000D01*
G75*
G02*
X624635000Y900715000I0J50000D01*
G01*
X624635000Y902515000D01*
G75*
G02*
X624685000Y902565000I50000J0D01*
G01*
X626485000Y902565000D01*
G75*
G02*
X626535000Y902515000I0J-50000D01*
G01*
G37*
D16*
X623045000Y901615000D03*
G36*
G01*
X607440000Y903150000D02*
X607440000Y901450000D01*
G75*
G02*
X607390000Y901400000I-50000J0D01*
G01*
X605690000Y901400000D01*
G75*
G02*
X605640000Y901450000I0J50000D01*
G01*
X605640000Y903150000D01*
G75*
G02*
X605690000Y903200000I50000J0D01*
G01*
X607390000Y903200000D01*
G75*
G02*
X607440000Y903150000I0J-50000D01*
G01*
G37*
D13*
X606540000Y904840000D03*
X606540000Y907380000D03*
X606540000Y909920000D03*
X606540000Y912460000D03*
X606540000Y915000000D03*
X606540000Y917540000D03*
X606540000Y920080000D03*
X606540000Y922620000D03*
X606540000Y925160000D03*
X606540000Y927700000D03*
X606540000Y930240000D03*
X606540000Y932780000D03*
X606540000Y935320000D03*
X606540000Y937860000D03*
G36*
G01*
X582040000Y903150000D02*
X582040000Y901450000D01*
G75*
G02*
X581990000Y901400000I-50000J0D01*
G01*
X580290000Y901400000D01*
G75*
G02*
X580240000Y901450000I0J50000D01*
G01*
X580240000Y903150000D01*
G75*
G02*
X580290000Y903200000I50000J0D01*
G01*
X581990000Y903200000D01*
G75*
G02*
X582040000Y903150000I0J-50000D01*
G01*
G37*
X581140000Y904840000D03*
X581140000Y907380000D03*
X581140000Y909920000D03*
X581140000Y912460000D03*
X581140000Y915000000D03*
X581140000Y917540000D03*
X581140000Y920080000D03*
X581140000Y922620000D03*
X581140000Y925160000D03*
X581140000Y927700000D03*
X581140000Y930240000D03*
X581140000Y932780000D03*
X581140000Y935320000D03*
X581140000Y937860000D03*
D15*
X665900000Y975970000D03*
X665900000Y966440000D03*
G36*
G01*
X667400000Y955360000D02*
X664400000Y955360000D01*
G75*
G02*
X664350000Y955410000I0J50000D01*
G01*
X664350000Y958410000D01*
G75*
G02*
X664400000Y958460000I50000J0D01*
G01*
X667400000Y958460000D01*
G75*
G02*
X667450000Y958410000I0J-50000D01*
G01*
X667450000Y955410000D01*
G75*
G02*
X667400000Y955360000I-50000J0D01*
G01*
G37*
D13*
X637320000Y918540000D03*
X639860000Y918540000D03*
G36*
G01*
X641550000Y919440000D02*
X643250000Y919440000D01*
G75*
G02*
X643300000Y919390000I0J-50000D01*
G01*
X643300000Y917690000D01*
G75*
G02*
X643250000Y917640000I-50000J0D01*
G01*
X641550000Y917640000D01*
G75*
G02*
X641500000Y917690000I0J50000D01*
G01*
X641500000Y919390000D01*
G75*
G02*
X641550000Y919440000I50000J0D01*
G01*
G37*
X580125000Y964295000D03*
X580125000Y961755000D03*
X580125000Y959215000D03*
G36*
G01*
X581025000Y957525000D02*
X581025000Y955825000D01*
G75*
G02*
X580975000Y955775000I-50000J0D01*
G01*
X579275000Y955775000D01*
G75*
G02*
X579225000Y955825000I0J50000D01*
G01*
X579225000Y957525000D01*
G75*
G02*
X579275000Y957575000I50000J0D01*
G01*
X580975000Y957575000D01*
G75*
G02*
X581025000Y957525000I0J-50000D01*
G01*
G37*
D17*
X629825000Y915150000D03*
G36*
G01*
X623125000Y946100000D02*
X626125000Y946100000D01*
G75*
G02*
X626175000Y946050000I0J-50000D01*
G01*
X626175000Y943050000D01*
G75*
G02*
X626125000Y943000000I-50000J0D01*
G01*
X623125000Y943000000D01*
G75*
G02*
X623075000Y943050000I0J50000D01*
G01*
X623075000Y946050000D01*
G75*
G02*
X623125000Y946100000I50000J0D01*
G01*
G37*
D15*
X619625000Y944550000D03*
D17*
X614425000Y915150000D03*
D18*
X627060000Y910170000D03*
X622260000Y910170000D03*
G36*
G01*
X616135000Y909104802D02*
X616135000Y911235198D01*
G75*
G02*
X616394802Y911495000I259802J0D01*
G01*
X618525198Y911495000D01*
G75*
G02*
X618785000Y911235198I0J-259802D01*
G01*
X618785000Y909104802D01*
G75*
G02*
X618525198Y908845000I-259802J0D01*
G01*
X616394802Y908845000D01*
G75*
G02*
X616135000Y909104802I0J259802D01*
G01*
G37*
D19*
X679633000Y939107000D02*
X616607000Y939107000D01*
X616607000Y981803000D01*
X679633000Y981803000D01*
X679633000Y939107000D01*
D12*
G36*
X679633000Y939107000D02*
G01*
X616607000Y939107000D01*
X616607000Y981803000D01*
X679633000Y981803000D01*
X679633000Y939107000D01*
G37*
M02*
