%FSLAX45Y45*%
G04 Gerber Fmt 4.5, Leading zero omitted, Abs format (unit mm)*
G04 Created by KiCad (PCBNEW (5.1.12)-1) date 2022-02-21 20:11:02*
%MOMM*%
%LPD*%
G01*
G04 APERTURE LIST*
%TA.AperFunction,Profile*%
%ADD10C,0.050000*%
%TD*%
%ADD11C,0.200000*%
%ADD12C,0.300000*%
G04 APERTURE END LIST*
D10*
X57658000Y89885000D02*
X57658000Y98193000D01*
X57658000Y98193000D02*
X67976000Y98193000D01*
X67976000Y89885000D02*
X67976000Y98193000D01*
X57658000Y89885000D02*
X67976000Y89885000D01*
D11*
X62259500Y90206500D02*
X62349500Y90116500D01*
X62349500Y90206500D02*
X62259500Y90116500D01*
X62513500Y90206500D02*
X62603500Y90116500D01*
X62603500Y90206500D02*
X62513500Y90116500D01*
X58062500Y96429500D02*
G75*
G03*
X58062500Y96429500I-50000J0D01*
G01*
X58062500Y96175500D02*
G75*
G03*
X58062500Y96175500I-50000J0D01*
G01*
X58062500Y95921500D02*
G75*
G03*
X58062500Y95921500I-50000J0D01*
G01*
X58062500Y95667500D02*
G75*
G03*
X58062500Y95667500I-50000J0D01*
G01*
X58164000Y93786000D02*
G75*
G03*
X58164000Y93786000I-50000J0D01*
G01*
X58164000Y93532000D02*
G75*
G03*
X58164000Y93532000I-50000J0D01*
G01*
X58164000Y93278000D02*
G75*
G03*
X58164000Y93278000I-50000J0D01*
G01*
X58164000Y93024000D02*
G75*
G03*
X58164000Y93024000I-50000J0D01*
G01*
X58164000Y92770000D02*
G75*
G03*
X58164000Y92770000I-50000J0D01*
G01*
X58164000Y92516000D02*
G75*
G03*
X58164000Y92516000I-50000J0D01*
G01*
X58164000Y92262000D02*
G75*
G03*
X58164000Y92262000I-50000J0D01*
G01*
X58164000Y92008000D02*
G75*
G03*
X58164000Y92008000I-50000J0D01*
G01*
X58164000Y91754000D02*
G75*
G03*
X58164000Y91754000I-50000J0D01*
G01*
X58164000Y91500000D02*
G75*
G03*
X58164000Y91500000I-50000J0D01*
G01*
X58164000Y91246000D02*
G75*
G03*
X58164000Y91246000I-50000J0D01*
G01*
X58164000Y90992000D02*
G75*
G03*
X58164000Y90992000I-50000J0D01*
G01*
X58164000Y90738000D02*
G75*
G03*
X58164000Y90738000I-50000J0D01*
G01*
X58164000Y90484000D02*
G75*
G03*
X58164000Y90484000I-50000J0D01*
G01*
X58164000Y90230000D02*
G75*
G03*
X58164000Y90230000I-50000J0D01*
G01*
X60704000Y93786000D02*
G75*
G03*
X60704000Y93786000I-50000J0D01*
G01*
X60704000Y93532000D02*
G75*
G03*
X60704000Y93532000I-50000J0D01*
G01*
X60704000Y93278000D02*
G75*
G03*
X60704000Y93278000I-50000J0D01*
G01*
X60704000Y93024000D02*
G75*
G03*
X60704000Y93024000I-50000J0D01*
G01*
X60704000Y92770000D02*
G75*
G03*
X60704000Y92770000I-50000J0D01*
G01*
X60704000Y92516000D02*
G75*
G03*
X60704000Y92516000I-50000J0D01*
G01*
X60704000Y92262000D02*
G75*
G03*
X60704000Y92262000I-50000J0D01*
G01*
X60704000Y92008000D02*
G75*
G03*
X60704000Y92008000I-50000J0D01*
G01*
X60704000Y91754000D02*
G75*
G03*
X60704000Y91754000I-50000J0D01*
G01*
X60704000Y91500000D02*
G75*
G03*
X60704000Y91500000I-50000J0D01*
G01*
X60704000Y91246000D02*
G75*
G03*
X60704000Y91246000I-50000J0D01*
G01*
X60704000Y90992000D02*
G75*
G03*
X60704000Y90992000I-50000J0D01*
G01*
X60704000Y90738000D02*
G75*
G03*
X60704000Y90738000I-50000J0D01*
G01*
X60704000Y90484000D02*
G75*
G03*
X60704000Y90484000I-50000J0D01*
G01*
X60704000Y90230000D02*
G75*
G03*
X60704000Y90230000I-50000J0D01*
G01*
X61492500Y91515000D02*
G75*
G03*
X61492500Y91515000I-50000J0D01*
G01*
X62012500Y94455000D02*
G75*
G03*
X62012500Y94455000I-50000J0D01*
G01*
X62512500Y94455000D02*
G75*
G03*
X62512500Y94455000I-50000J0D01*
G01*
X63032500Y91515000D02*
G75*
G03*
X63032500Y91515000I-50000J0D01*
G01*
X63247000Y90473000D02*
G75*
G03*
X63247000Y90473000I-50000J0D01*
G01*
X63501000Y90473000D02*
G75*
G03*
X63501000Y90473000I-50000J0D01*
G01*
X63511000Y96217000D02*
G75*
G03*
X63511000Y96217000I-50000J0D01*
G01*
X63755000Y90473000D02*
G75*
G03*
X63755000Y90473000I-50000J0D01*
G01*
X63788000Y91853000D02*
G75*
G03*
X63788000Y91853000I-50000J0D01*
G01*
X64009000Y90473000D02*
G75*
G03*
X64009000Y90473000I-50000J0D01*
G01*
X64019000Y96216000D02*
G75*
G03*
X64019000Y96216000I-50000J0D01*
G01*
X64042000Y91853000D02*
G75*
G03*
X64042000Y91853000I-50000J0D01*
G01*
X64043000Y91384000D02*
G75*
G03*
X64043000Y91384000I-50000J0D01*
G01*
X64043000Y91130000D02*
G75*
G03*
X64043000Y91130000I-50000J0D01*
G01*
X64263000Y90473000D02*
G75*
G03*
X64263000Y90473000I-50000J0D01*
G01*
X64296000Y91853000D02*
G75*
G03*
X64296000Y91853000I-50000J0D01*
G01*
X64517000Y90473000D02*
G75*
G03*
X64517000Y90473000I-50000J0D01*
G01*
X64999000Y96219000D02*
G75*
G03*
X64999000Y96219000I-50000J0D01*
G01*
X65507000Y96218000D02*
G75*
G03*
X65507000Y96218000I-50000J0D01*
G01*
X62470000Y96486500D02*
X62470000Y96334500D01*
X62394000Y96410500D02*
X62546000Y96410500D01*
X62470000Y95978500D02*
X62470000Y95826500D01*
X62394000Y95902500D02*
X62546000Y95902500D01*
X63717000Y94366000D02*
X63717000Y94214000D01*
X63641000Y94290000D02*
X63793000Y94290000D01*
X64225000Y94366000D02*
X64225000Y94214000D01*
X64149000Y94290000D02*
X64301000Y94290000D01*
X65806000Y90782000D02*
X65806000Y90630000D01*
X65730000Y90706000D02*
X65882000Y90706000D01*
X66286000Y94366000D02*
X66286000Y94214000D01*
X66210000Y94290000D02*
X66362000Y94290000D01*
X66314000Y90782000D02*
X66314000Y90630000D01*
X66238000Y90706000D02*
X66390000Y90706000D01*
X66794000Y94366000D02*
X66794000Y94214000D01*
X66718000Y94290000D02*
X66870000Y94290000D01*
X66822000Y90782000D02*
X66822000Y90630000D01*
X66746000Y90706000D02*
X66898000Y90706000D01*
X67302000Y94366000D02*
X67302000Y94214000D01*
X67226000Y94290000D02*
X67378000Y94290000D01*
X61800801Y90962199D02*
X61800801Y91071801D01*
X61691199Y91071801D01*
X61691199Y90962199D01*
X61800801Y90962199D01*
X62280801Y90962199D02*
X62280801Y91071801D01*
X62171199Y91071801D01*
X62171199Y90962199D01*
X62280801Y90962199D01*
X62760801Y90962199D02*
X62760801Y91071801D01*
X62651199Y91071801D01*
X62651199Y90962199D01*
X62760801Y90962199D01*
X66590000Y97504300D02*
X66682700Y97597000D01*
X66590000Y97689700D01*
X66497300Y97597000D01*
X66590000Y97504300D01*
X66590000Y96551300D02*
X66682700Y96644000D01*
X66590000Y96736700D01*
X66497300Y96644000D01*
X66590000Y96551300D01*
X66590000Y95598300D02*
X66682700Y95691000D01*
X66590000Y95783700D01*
X66497300Y95691000D01*
X66590000Y95598300D01*
D12*
X57941928Y89416786D02*
X57941928Y89716786D01*
X58013357Y89716786D01*
X58056214Y89702500D01*
X58084786Y89673928D01*
X58099071Y89645357D01*
X58113357Y89588214D01*
X58113357Y89545357D01*
X58099071Y89488214D01*
X58084786Y89459643D01*
X58056214Y89431071D01*
X58013357Y89416786D01*
X57941928Y89416786D01*
X58241928Y89416786D02*
X58241928Y89616786D01*
X58241928Y89559643D02*
X58256214Y89588214D01*
X58270500Y89602500D01*
X58299071Y89616786D01*
X58327643Y89616786D01*
X58427643Y89416786D02*
X58427643Y89616786D01*
X58427643Y89716786D02*
X58413357Y89702500D01*
X58427643Y89688214D01*
X58441928Y89702500D01*
X58427643Y89716786D01*
X58427643Y89688214D01*
X58613357Y89416786D02*
X58584786Y89431071D01*
X58570500Y89459643D01*
X58570500Y89716786D01*
X58770500Y89416786D02*
X58741928Y89431071D01*
X58727643Y89459643D01*
X58727643Y89716786D01*
X59113357Y89416786D02*
X59113357Y89716786D01*
X59213357Y89502500D01*
X59313357Y89716786D01*
X59313357Y89416786D01*
X59584786Y89416786D02*
X59584786Y89573928D01*
X59570500Y89602500D01*
X59541928Y89616786D01*
X59484786Y89616786D01*
X59456214Y89602500D01*
X59584786Y89431071D02*
X59556214Y89416786D01*
X59484786Y89416786D01*
X59456214Y89431071D01*
X59441928Y89459643D01*
X59441928Y89488214D01*
X59456214Y89516786D01*
X59484786Y89531071D01*
X59556214Y89531071D01*
X59584786Y89545357D01*
X59727643Y89616786D02*
X59727643Y89316786D01*
X59727643Y89602500D02*
X59756214Y89616786D01*
X59813357Y89616786D01*
X59841928Y89602500D01*
X59856214Y89588214D01*
X59870500Y89559643D01*
X59870500Y89473928D01*
X59856214Y89445357D01*
X59841928Y89431071D01*
X59813357Y89416786D01*
X59756214Y89416786D01*
X59727643Y89431071D01*
X59999071Y89445357D02*
X60013357Y89431071D01*
X59999071Y89416786D01*
X59984786Y89431071D01*
X59999071Y89445357D01*
X59999071Y89416786D01*
X59999071Y89602500D02*
X60013357Y89588214D01*
X59999071Y89573928D01*
X59984786Y89588214D01*
X59999071Y89602500D01*
X59999071Y89573928D01*
X57565500Y88967500D02*
X57655500Y88877500D01*
X57655500Y88967500D02*
X57565500Y88877500D01*
X57999071Y89086786D02*
X58027643Y89086786D01*
X58056214Y89072500D01*
X58070500Y89058214D01*
X58084786Y89029643D01*
X58099071Y88972500D01*
X58099071Y88901071D01*
X58084786Y88843928D01*
X58070500Y88815357D01*
X58056214Y88801071D01*
X58027643Y88786786D01*
X57999071Y88786786D01*
X57970500Y88801071D01*
X57956214Y88815357D01*
X57941928Y88843928D01*
X57927643Y88901071D01*
X57927643Y88972500D01*
X57941928Y89029643D01*
X57956214Y89058214D01*
X57970500Y89072500D01*
X57999071Y89086786D01*
X58227643Y88815357D02*
X58241928Y88801071D01*
X58227643Y88786786D01*
X58213357Y88801071D01*
X58227643Y88815357D01*
X58227643Y88786786D01*
X58384786Y88786786D02*
X58441928Y88786786D01*
X58470500Y88801071D01*
X58484786Y88815357D01*
X58513357Y88858214D01*
X58527643Y88915357D01*
X58527643Y89029643D01*
X58513357Y89058214D01*
X58499071Y89072500D01*
X58470500Y89086786D01*
X58413357Y89086786D01*
X58384786Y89072500D01*
X58370500Y89058214D01*
X58356214Y89029643D01*
X58356214Y88958214D01*
X58370500Y88929643D01*
X58384786Y88915357D01*
X58413357Y88901071D01*
X58470500Y88901071D01*
X58499071Y88915357D01*
X58513357Y88929643D01*
X58527643Y88958214D01*
X58713357Y89086786D02*
X58741928Y89086786D01*
X58770500Y89072500D01*
X58784786Y89058214D01*
X58799071Y89029643D01*
X58813357Y88972500D01*
X58813357Y88901071D01*
X58799071Y88843928D01*
X58784786Y88815357D01*
X58770500Y88801071D01*
X58741928Y88786786D01*
X58713357Y88786786D01*
X58684786Y88801071D01*
X58670500Y88815357D01*
X58656214Y88843928D01*
X58641928Y88901071D01*
X58641928Y88972500D01*
X58656214Y89029643D01*
X58670500Y89058214D01*
X58684786Y89072500D01*
X58713357Y89086786D01*
X58999071Y89086786D02*
X59027643Y89086786D01*
X59056214Y89072500D01*
X59070500Y89058214D01*
X59084786Y89029643D01*
X59099071Y88972500D01*
X59099071Y88901071D01*
X59084786Y88843928D01*
X59070500Y88815357D01*
X59056214Y88801071D01*
X59027643Y88786786D01*
X58999071Y88786786D01*
X58970500Y88801071D01*
X58956214Y88815357D01*
X58941928Y88843928D01*
X58927643Y88901071D01*
X58927643Y88972500D01*
X58941928Y89029643D01*
X58956214Y89058214D01*
X58970500Y89072500D01*
X58999071Y89086786D01*
X59227643Y88786786D02*
X59227643Y88986786D01*
X59227643Y88958214D02*
X59241928Y88972500D01*
X59270500Y88986786D01*
X59313357Y88986786D01*
X59341928Y88972500D01*
X59356214Y88943928D01*
X59356214Y88786786D01*
X59356214Y88943928D02*
X59370500Y88972500D01*
X59399071Y88986786D01*
X59441928Y88986786D01*
X59470500Y88972500D01*
X59484786Y88943928D01*
X59484786Y88786786D01*
X59627643Y88786786D02*
X59627643Y88986786D01*
X59627643Y88958214D02*
X59641928Y88972500D01*
X59670500Y88986786D01*
X59713357Y88986786D01*
X59741928Y88972500D01*
X59756214Y88943928D01*
X59756214Y88786786D01*
X59756214Y88943928D02*
X59770500Y88972500D01*
X59799071Y88986786D01*
X59841928Y88986786D01*
X59870500Y88972500D01*
X59884786Y88943928D01*
X59884786Y88786786D01*
X60470500Y89101071D02*
X60213357Y88715357D01*
X60856214Y89086786D02*
X60884786Y89086786D01*
X60913357Y89072500D01*
X60927643Y89058214D01*
X60941928Y89029643D01*
X60956214Y88972500D01*
X60956214Y88901071D01*
X60941928Y88843928D01*
X60927643Y88815357D01*
X60913357Y88801071D01*
X60884786Y88786786D01*
X60856214Y88786786D01*
X60827643Y88801071D01*
X60813357Y88815357D01*
X60799071Y88843928D01*
X60784786Y88901071D01*
X60784786Y88972500D01*
X60799071Y89029643D01*
X60813357Y89058214D01*
X60827643Y89072500D01*
X60856214Y89086786D01*
X61084786Y88815357D02*
X61099071Y88801071D01*
X61084786Y88786786D01*
X61070500Y88801071D01*
X61084786Y88815357D01*
X61084786Y88786786D01*
X61284786Y89086786D02*
X61313357Y89086786D01*
X61341928Y89072500D01*
X61356214Y89058214D01*
X61370500Y89029643D01*
X61384786Y88972500D01*
X61384786Y88901071D01*
X61370500Y88843928D01*
X61356214Y88815357D01*
X61341928Y88801071D01*
X61313357Y88786786D01*
X61284786Y88786786D01*
X61256214Y88801071D01*
X61241928Y88815357D01*
X61227643Y88843928D01*
X61213357Y88901071D01*
X61213357Y88972500D01*
X61227643Y89029643D01*
X61241928Y89058214D01*
X61256214Y89072500D01*
X61284786Y89086786D01*
X61484786Y89086786D02*
X61670500Y89086786D01*
X61570500Y88972500D01*
X61613357Y88972500D01*
X61641928Y88958214D01*
X61656214Y88943928D01*
X61670500Y88915357D01*
X61670500Y88843928D01*
X61656214Y88815357D01*
X61641928Y88801071D01*
X61613357Y88786786D01*
X61527643Y88786786D01*
X61499071Y88801071D01*
X61484786Y88815357D01*
X61941928Y89086786D02*
X61799071Y89086786D01*
X61784786Y88943928D01*
X61799071Y88958214D01*
X61827643Y88972500D01*
X61899071Y88972500D01*
X61927643Y88958214D01*
X61941928Y88943928D01*
X61956214Y88915357D01*
X61956214Y88843928D01*
X61941928Y88815357D01*
X61927643Y88801071D01*
X61899071Y88786786D01*
X61827643Y88786786D01*
X61799071Y88801071D01*
X61784786Y88815357D01*
X62213357Y88986786D02*
X62213357Y88786786D01*
X62141928Y89101071D02*
X62070500Y88886786D01*
X62256214Y88886786D01*
X62356214Y89086786D02*
X62356214Y89029643D01*
X62470500Y89086786D02*
X62470500Y89029643D01*
X62913357Y88672500D02*
X62899071Y88686786D01*
X62870500Y88729643D01*
X62856214Y88758214D01*
X62841928Y88801071D01*
X62827643Y88872500D01*
X62827643Y88929643D01*
X62841928Y89001071D01*
X62856214Y89043928D01*
X62870500Y89072500D01*
X62899071Y89115357D01*
X62913357Y89129643D01*
X63013357Y89058214D02*
X63027643Y89072500D01*
X63056214Y89086786D01*
X63127643Y89086786D01*
X63156214Y89072500D01*
X63170500Y89058214D01*
X63184786Y89029643D01*
X63184786Y89001071D01*
X63170500Y88958214D01*
X62999071Y88786786D01*
X63184786Y88786786D01*
X63541928Y88786786D02*
X63541928Y89086786D01*
X63670500Y88786786D02*
X63670500Y88943928D01*
X63656214Y88972500D01*
X63627643Y88986786D01*
X63584786Y88986786D01*
X63556214Y88972500D01*
X63541928Y88958214D01*
X63856214Y88786786D02*
X63827643Y88801071D01*
X63813357Y88815357D01*
X63799071Y88843928D01*
X63799071Y88929643D01*
X63813357Y88958214D01*
X63827643Y88972500D01*
X63856214Y88986786D01*
X63899071Y88986786D01*
X63927643Y88972500D01*
X63941928Y88958214D01*
X63956214Y88929643D01*
X63956214Y88843928D01*
X63941928Y88815357D01*
X63927643Y88801071D01*
X63899071Y88786786D01*
X63856214Y88786786D01*
X64127643Y88786786D02*
X64099071Y88801071D01*
X64084786Y88829643D01*
X64084786Y89086786D01*
X64356214Y88801071D02*
X64327643Y88786786D01*
X64270500Y88786786D01*
X64241928Y88801071D01*
X64227643Y88829643D01*
X64227643Y88943928D01*
X64241928Y88972500D01*
X64270500Y88986786D01*
X64327643Y88986786D01*
X64356214Y88972500D01*
X64370500Y88943928D01*
X64370500Y88915357D01*
X64227643Y88886786D01*
X64484786Y88801071D02*
X64513357Y88786786D01*
X64570500Y88786786D01*
X64599071Y88801071D01*
X64613357Y88829643D01*
X64613357Y88843928D01*
X64599071Y88872500D01*
X64570500Y88886786D01*
X64527643Y88886786D01*
X64499071Y88901071D01*
X64484786Y88929643D01*
X64484786Y88943928D01*
X64499071Y88972500D01*
X64527643Y88986786D01*
X64570500Y88986786D01*
X64599071Y88972500D01*
X64713357Y88672500D02*
X64727643Y88686786D01*
X64756214Y88729643D01*
X64770500Y88758214D01*
X64784786Y88801071D01*
X64799071Y88872500D01*
X64799071Y88929643D01*
X64784786Y89001071D01*
X64770500Y89043928D01*
X64756214Y89072500D01*
X64727643Y89115357D01*
X64713357Y89129643D01*
X57655500Y88526500D02*
G75*
G03*
X57655500Y88526500I-50000J0D01*
G01*
X58099071Y88390786D02*
X57927643Y88390786D01*
X58013357Y88390786D02*
X58013357Y88690786D01*
X57984786Y88647928D01*
X57956214Y88619357D01*
X57927643Y88605071D01*
X58227643Y88419357D02*
X58241928Y88405071D01*
X58227643Y88390786D01*
X58213357Y88405071D01*
X58227643Y88419357D01*
X58227643Y88390786D01*
X58427643Y88690786D02*
X58456214Y88690786D01*
X58484786Y88676500D01*
X58499071Y88662214D01*
X58513357Y88633643D01*
X58527643Y88576500D01*
X58527643Y88505071D01*
X58513357Y88447928D01*
X58499071Y88419357D01*
X58484786Y88405071D01*
X58456214Y88390786D01*
X58427643Y88390786D01*
X58399071Y88405071D01*
X58384786Y88419357D01*
X58370500Y88447928D01*
X58356214Y88505071D01*
X58356214Y88576500D01*
X58370500Y88633643D01*
X58384786Y88662214D01*
X58399071Y88676500D01*
X58427643Y88690786D01*
X58713357Y88690786D02*
X58741928Y88690786D01*
X58770500Y88676500D01*
X58784786Y88662214D01*
X58799071Y88633643D01*
X58813357Y88576500D01*
X58813357Y88505071D01*
X58799071Y88447928D01*
X58784786Y88419357D01*
X58770500Y88405071D01*
X58741928Y88390786D01*
X58713357Y88390786D01*
X58684786Y88405071D01*
X58670500Y88419357D01*
X58656214Y88447928D01*
X58641928Y88505071D01*
X58641928Y88576500D01*
X58656214Y88633643D01*
X58670500Y88662214D01*
X58684786Y88676500D01*
X58713357Y88690786D01*
X58999071Y88690786D02*
X59027643Y88690786D01*
X59056214Y88676500D01*
X59070500Y88662214D01*
X59084786Y88633643D01*
X59099071Y88576500D01*
X59099071Y88505071D01*
X59084786Y88447928D01*
X59070500Y88419357D01*
X59056214Y88405071D01*
X59027643Y88390786D01*
X58999071Y88390786D01*
X58970500Y88405071D01*
X58956214Y88419357D01*
X58941928Y88447928D01*
X58927643Y88505071D01*
X58927643Y88576500D01*
X58941928Y88633643D01*
X58956214Y88662214D01*
X58970500Y88676500D01*
X58999071Y88690786D01*
X59227643Y88390786D02*
X59227643Y88590786D01*
X59227643Y88562214D02*
X59241928Y88576500D01*
X59270500Y88590786D01*
X59313357Y88590786D01*
X59341928Y88576500D01*
X59356214Y88547928D01*
X59356214Y88390786D01*
X59356214Y88547928D02*
X59370500Y88576500D01*
X59399071Y88590786D01*
X59441928Y88590786D01*
X59470500Y88576500D01*
X59484786Y88547928D01*
X59484786Y88390786D01*
X59627643Y88390786D02*
X59627643Y88590786D01*
X59627643Y88562214D02*
X59641928Y88576500D01*
X59670500Y88590786D01*
X59713357Y88590786D01*
X59741928Y88576500D01*
X59756214Y88547928D01*
X59756214Y88390786D01*
X59756214Y88547928D02*
X59770500Y88576500D01*
X59799071Y88590786D01*
X59841928Y88590786D01*
X59870500Y88576500D01*
X59884786Y88547928D01*
X59884786Y88390786D01*
X60470500Y88705071D02*
X60213357Y88319357D01*
X60856214Y88690786D02*
X60884786Y88690786D01*
X60913357Y88676500D01*
X60927643Y88662214D01*
X60941928Y88633643D01*
X60956214Y88576500D01*
X60956214Y88505071D01*
X60941928Y88447928D01*
X60927643Y88419357D01*
X60913357Y88405071D01*
X60884786Y88390786D01*
X60856214Y88390786D01*
X60827643Y88405071D01*
X60813357Y88419357D01*
X60799071Y88447928D01*
X60784786Y88505071D01*
X60784786Y88576500D01*
X60799071Y88633643D01*
X60813357Y88662214D01*
X60827643Y88676500D01*
X60856214Y88690786D01*
X61084786Y88419357D02*
X61099071Y88405071D01*
X61084786Y88390786D01*
X61070500Y88405071D01*
X61084786Y88419357D01*
X61084786Y88390786D01*
X61284786Y88690786D02*
X61313357Y88690786D01*
X61341928Y88676500D01*
X61356214Y88662214D01*
X61370500Y88633643D01*
X61384786Y88576500D01*
X61384786Y88505071D01*
X61370500Y88447928D01*
X61356214Y88419357D01*
X61341928Y88405071D01*
X61313357Y88390786D01*
X61284786Y88390786D01*
X61256214Y88405071D01*
X61241928Y88419357D01*
X61227643Y88447928D01*
X61213357Y88505071D01*
X61213357Y88576500D01*
X61227643Y88633643D01*
X61241928Y88662214D01*
X61256214Y88676500D01*
X61284786Y88690786D01*
X61484786Y88690786D02*
X61670500Y88690786D01*
X61570500Y88576500D01*
X61613357Y88576500D01*
X61641928Y88562214D01*
X61656214Y88547928D01*
X61670500Y88519357D01*
X61670500Y88447928D01*
X61656214Y88419357D01*
X61641928Y88405071D01*
X61613357Y88390786D01*
X61527643Y88390786D01*
X61499071Y88405071D01*
X61484786Y88419357D01*
X61813357Y88390786D02*
X61870500Y88390786D01*
X61899071Y88405071D01*
X61913357Y88419357D01*
X61941928Y88462214D01*
X61956214Y88519357D01*
X61956214Y88633643D01*
X61941928Y88662214D01*
X61927643Y88676500D01*
X61899071Y88690786D01*
X61841928Y88690786D01*
X61813357Y88676500D01*
X61799071Y88662214D01*
X61784786Y88633643D01*
X61784786Y88562214D01*
X61799071Y88533643D01*
X61813357Y88519357D01*
X61841928Y88505071D01*
X61899071Y88505071D01*
X61927643Y88519357D01*
X61941928Y88533643D01*
X61956214Y88562214D01*
X62213357Y88590786D02*
X62213357Y88390786D01*
X62141928Y88705071D02*
X62070500Y88490786D01*
X62256214Y88490786D01*
X62356214Y88690786D02*
X62356214Y88633643D01*
X62470500Y88690786D02*
X62470500Y88633643D01*
X62913357Y88276500D02*
X62899071Y88290786D01*
X62870500Y88333643D01*
X62856214Y88362214D01*
X62841928Y88405071D01*
X62827643Y88476500D01*
X62827643Y88533643D01*
X62841928Y88605071D01*
X62856214Y88647928D01*
X62870500Y88676500D01*
X62899071Y88719357D01*
X62913357Y88733643D01*
X63170500Y88690786D02*
X63027643Y88690786D01*
X63013357Y88547928D01*
X63027643Y88562214D01*
X63056214Y88576500D01*
X63127643Y88576500D01*
X63156214Y88562214D01*
X63170500Y88547928D01*
X63184786Y88519357D01*
X63184786Y88447928D01*
X63170500Y88419357D01*
X63156214Y88405071D01*
X63127643Y88390786D01*
X63056214Y88390786D01*
X63027643Y88405071D01*
X63013357Y88419357D01*
X63284786Y88690786D02*
X63470500Y88690786D01*
X63370500Y88576500D01*
X63413357Y88576500D01*
X63441928Y88562214D01*
X63456214Y88547928D01*
X63470500Y88519357D01*
X63470500Y88447928D01*
X63456214Y88419357D01*
X63441928Y88405071D01*
X63413357Y88390786D01*
X63327643Y88390786D01*
X63299071Y88405071D01*
X63284786Y88419357D01*
X63827643Y88390786D02*
X63827643Y88690786D01*
X63956214Y88390786D02*
X63956214Y88547928D01*
X63941928Y88576500D01*
X63913357Y88590786D01*
X63870500Y88590786D01*
X63841928Y88576500D01*
X63827643Y88562214D01*
X64141928Y88390786D02*
X64113357Y88405071D01*
X64099071Y88419357D01*
X64084786Y88447928D01*
X64084786Y88533643D01*
X64099071Y88562214D01*
X64113357Y88576500D01*
X64141928Y88590786D01*
X64184786Y88590786D01*
X64213357Y88576500D01*
X64227643Y88562214D01*
X64241928Y88533643D01*
X64241928Y88447928D01*
X64227643Y88419357D01*
X64213357Y88405071D01*
X64184786Y88390786D01*
X64141928Y88390786D01*
X64413357Y88390786D02*
X64384786Y88405071D01*
X64370500Y88433643D01*
X64370500Y88690786D01*
X64641928Y88405071D02*
X64613357Y88390786D01*
X64556214Y88390786D01*
X64527643Y88405071D01*
X64513357Y88433643D01*
X64513357Y88547928D01*
X64527643Y88576500D01*
X64556214Y88590786D01*
X64613357Y88590786D01*
X64641928Y88576500D01*
X64656214Y88547928D01*
X64656214Y88519357D01*
X64513357Y88490786D01*
X64770500Y88405071D02*
X64799071Y88390786D01*
X64856214Y88390786D01*
X64884786Y88405071D01*
X64899071Y88433643D01*
X64899071Y88447928D01*
X64884786Y88476500D01*
X64856214Y88490786D01*
X64813357Y88490786D01*
X64784786Y88505071D01*
X64770500Y88533643D01*
X64770500Y88547928D01*
X64784786Y88576500D01*
X64813357Y88590786D01*
X64856214Y88590786D01*
X64884786Y88576500D01*
X64999071Y88276500D02*
X65013357Y88290786D01*
X65041928Y88333643D01*
X65056214Y88362214D01*
X65070500Y88405071D01*
X65084786Y88476500D01*
X65084786Y88533643D01*
X65070500Y88605071D01*
X65056214Y88647928D01*
X65041928Y88676500D01*
X65013357Y88719357D01*
X64999071Y88733643D01*
X57579500Y88206500D02*
X57579500Y88054500D01*
X57503500Y88130500D02*
X57655500Y88130500D01*
X58099071Y87994786D02*
X57927643Y87994786D01*
X58013357Y87994786D02*
X58013357Y88294786D01*
X57984786Y88251928D01*
X57956214Y88223357D01*
X57927643Y88209071D01*
X58227643Y88023357D02*
X58241928Y88009071D01*
X58227643Y87994786D01*
X58213357Y88009071D01*
X58227643Y88023357D01*
X58227643Y87994786D01*
X58513357Y88294786D02*
X58370500Y88294786D01*
X58356214Y88151928D01*
X58370500Y88166214D01*
X58399071Y88180500D01*
X58470500Y88180500D01*
X58499071Y88166214D01*
X58513357Y88151928D01*
X58527643Y88123357D01*
X58527643Y88051928D01*
X58513357Y88023357D01*
X58499071Y88009071D01*
X58470500Y87994786D01*
X58399071Y87994786D01*
X58370500Y88009071D01*
X58356214Y88023357D01*
X58641928Y88266214D02*
X58656214Y88280500D01*
X58684786Y88294786D01*
X58756214Y88294786D01*
X58784786Y88280500D01*
X58799071Y88266214D01*
X58813357Y88237643D01*
X58813357Y88209071D01*
X58799071Y88166214D01*
X58627643Y87994786D01*
X58813357Y87994786D01*
X58999071Y88294786D02*
X59027643Y88294786D01*
X59056214Y88280500D01*
X59070500Y88266214D01*
X59084786Y88237643D01*
X59099071Y88180500D01*
X59099071Y88109071D01*
X59084786Y88051928D01*
X59070500Y88023357D01*
X59056214Y88009071D01*
X59027643Y87994786D01*
X58999071Y87994786D01*
X58970500Y88009071D01*
X58956214Y88023357D01*
X58941928Y88051928D01*
X58927643Y88109071D01*
X58927643Y88180500D01*
X58941928Y88237643D01*
X58956214Y88266214D01*
X58970500Y88280500D01*
X58999071Y88294786D01*
X59227643Y87994786D02*
X59227643Y88194786D01*
X59227643Y88166214D02*
X59241928Y88180500D01*
X59270500Y88194786D01*
X59313357Y88194786D01*
X59341928Y88180500D01*
X59356214Y88151928D01*
X59356214Y87994786D01*
X59356214Y88151928D02*
X59370500Y88180500D01*
X59399071Y88194786D01*
X59441928Y88194786D01*
X59470500Y88180500D01*
X59484786Y88151928D01*
X59484786Y87994786D01*
X59627643Y87994786D02*
X59627643Y88194786D01*
X59627643Y88166214D02*
X59641928Y88180500D01*
X59670500Y88194786D01*
X59713357Y88194786D01*
X59741928Y88180500D01*
X59756214Y88151928D01*
X59756214Y87994786D01*
X59756214Y88151928D02*
X59770500Y88180500D01*
X59799071Y88194786D01*
X59841928Y88194786D01*
X59870500Y88180500D01*
X59884786Y88151928D01*
X59884786Y87994786D01*
X60470500Y88309071D02*
X60213357Y87923357D01*
X60856214Y88294786D02*
X60884786Y88294786D01*
X60913357Y88280500D01*
X60927643Y88266214D01*
X60941928Y88237643D01*
X60956214Y88180500D01*
X60956214Y88109071D01*
X60941928Y88051928D01*
X60927643Y88023357D01*
X60913357Y88009071D01*
X60884786Y87994786D01*
X60856214Y87994786D01*
X60827643Y88009071D01*
X60813357Y88023357D01*
X60799071Y88051928D01*
X60784786Y88109071D01*
X60784786Y88180500D01*
X60799071Y88237643D01*
X60813357Y88266214D01*
X60827643Y88280500D01*
X60856214Y88294786D01*
X61084786Y88023357D02*
X61099071Y88009071D01*
X61084786Y87994786D01*
X61070500Y88009071D01*
X61084786Y88023357D01*
X61084786Y87994786D01*
X61284786Y88294786D02*
X61313357Y88294786D01*
X61341928Y88280500D01*
X61356214Y88266214D01*
X61370500Y88237643D01*
X61384786Y88180500D01*
X61384786Y88109071D01*
X61370500Y88051928D01*
X61356214Y88023357D01*
X61341928Y88009071D01*
X61313357Y87994786D01*
X61284786Y87994786D01*
X61256214Y88009071D01*
X61241928Y88023357D01*
X61227643Y88051928D01*
X61213357Y88109071D01*
X61213357Y88180500D01*
X61227643Y88237643D01*
X61241928Y88266214D01*
X61256214Y88280500D01*
X61284786Y88294786D01*
X61656214Y88294786D02*
X61513357Y88294786D01*
X61499071Y88151928D01*
X61513357Y88166214D01*
X61541928Y88180500D01*
X61613357Y88180500D01*
X61641928Y88166214D01*
X61656214Y88151928D01*
X61670500Y88123357D01*
X61670500Y88051928D01*
X61656214Y88023357D01*
X61641928Y88009071D01*
X61613357Y87994786D01*
X61541928Y87994786D01*
X61513357Y88009071D01*
X61499071Y88023357D01*
X61813357Y87994786D02*
X61870500Y87994786D01*
X61899071Y88009071D01*
X61913357Y88023357D01*
X61941928Y88066214D01*
X61956214Y88123357D01*
X61956214Y88237643D01*
X61941928Y88266214D01*
X61927643Y88280500D01*
X61899071Y88294786D01*
X61841928Y88294786D01*
X61813357Y88280500D01*
X61799071Y88266214D01*
X61784786Y88237643D01*
X61784786Y88166214D01*
X61799071Y88137643D01*
X61813357Y88123357D01*
X61841928Y88109071D01*
X61899071Y88109071D01*
X61927643Y88123357D01*
X61941928Y88137643D01*
X61956214Y88166214D01*
X62127643Y88166214D02*
X62099071Y88180500D01*
X62084786Y88194786D01*
X62070500Y88223357D01*
X62070500Y88237643D01*
X62084786Y88266214D01*
X62099071Y88280500D01*
X62127643Y88294786D01*
X62184786Y88294786D01*
X62213357Y88280500D01*
X62227643Y88266214D01*
X62241928Y88237643D01*
X62241928Y88223357D01*
X62227643Y88194786D01*
X62213357Y88180500D01*
X62184786Y88166214D01*
X62127643Y88166214D01*
X62099071Y88151928D01*
X62084786Y88137643D01*
X62070500Y88109071D01*
X62070500Y88051928D01*
X62084786Y88023357D01*
X62099071Y88009071D01*
X62127643Y87994786D01*
X62184786Y87994786D01*
X62213357Y88009071D01*
X62227643Y88023357D01*
X62241928Y88051928D01*
X62241928Y88109071D01*
X62227643Y88137643D01*
X62213357Y88151928D01*
X62184786Y88166214D01*
X62356214Y88294786D02*
X62356214Y88237643D01*
X62470500Y88294786D02*
X62470500Y88237643D01*
X62913357Y87880500D02*
X62899071Y87894786D01*
X62870500Y87937643D01*
X62856214Y87966214D01*
X62841928Y88009071D01*
X62827643Y88080500D01*
X62827643Y88137643D01*
X62841928Y88209071D01*
X62856214Y88251928D01*
X62870500Y88280500D01*
X62899071Y88323357D01*
X62913357Y88337643D01*
X63184786Y87994786D02*
X63013357Y87994786D01*
X63099071Y87994786D02*
X63099071Y88294786D01*
X63070500Y88251928D01*
X63041928Y88223357D01*
X63013357Y88209071D01*
X63370500Y88294786D02*
X63399071Y88294786D01*
X63427643Y88280500D01*
X63441928Y88266214D01*
X63456214Y88237643D01*
X63470500Y88180500D01*
X63470500Y88109071D01*
X63456214Y88051928D01*
X63441928Y88023357D01*
X63427643Y88009071D01*
X63399071Y87994786D01*
X63370500Y87994786D01*
X63341928Y88009071D01*
X63327643Y88023357D01*
X63313357Y88051928D01*
X63299071Y88109071D01*
X63299071Y88180500D01*
X63313357Y88237643D01*
X63327643Y88266214D01*
X63341928Y88280500D01*
X63370500Y88294786D01*
X63827643Y87994786D02*
X63827643Y88294786D01*
X63956214Y87994786D02*
X63956214Y88151928D01*
X63941928Y88180500D01*
X63913357Y88194786D01*
X63870500Y88194786D01*
X63841928Y88180500D01*
X63827643Y88166214D01*
X64141928Y87994786D02*
X64113357Y88009071D01*
X64099071Y88023357D01*
X64084786Y88051928D01*
X64084786Y88137643D01*
X64099071Y88166214D01*
X64113357Y88180500D01*
X64141928Y88194786D01*
X64184786Y88194786D01*
X64213357Y88180500D01*
X64227643Y88166214D01*
X64241928Y88137643D01*
X64241928Y88051928D01*
X64227643Y88023357D01*
X64213357Y88009071D01*
X64184786Y87994786D01*
X64141928Y87994786D01*
X64413357Y87994786D02*
X64384786Y88009071D01*
X64370500Y88037643D01*
X64370500Y88294786D01*
X64641928Y88009071D02*
X64613357Y87994786D01*
X64556214Y87994786D01*
X64527643Y88009071D01*
X64513357Y88037643D01*
X64513357Y88151928D01*
X64527643Y88180500D01*
X64556214Y88194786D01*
X64613357Y88194786D01*
X64641928Y88180500D01*
X64656214Y88151928D01*
X64656214Y88123357D01*
X64513357Y88094786D01*
X64770500Y88009071D02*
X64799071Y87994786D01*
X64856214Y87994786D01*
X64884786Y88009071D01*
X64899071Y88037643D01*
X64899071Y88051928D01*
X64884786Y88080500D01*
X64856214Y88094786D01*
X64813357Y88094786D01*
X64784786Y88109071D01*
X64770500Y88137643D01*
X64770500Y88151928D01*
X64784786Y88180500D01*
X64813357Y88194786D01*
X64856214Y88194786D01*
X64884786Y88180500D01*
X64999071Y87880500D02*
X65013357Y87894786D01*
X65041928Y87937643D01*
X65056214Y87966214D01*
X65070500Y88009071D01*
X65084786Y88080500D01*
X65084786Y88137643D01*
X65070500Y88209071D01*
X65056214Y88251928D01*
X65041928Y88280500D01*
X65013357Y88323357D01*
X64999071Y88337643D01*
X57632801Y87679699D02*
X57632801Y87789301D01*
X57523199Y87789301D01*
X57523199Y87679699D01*
X57632801Y87679699D01*
X58099071Y87598786D02*
X57927643Y87598786D01*
X58013357Y87598786D02*
X58013357Y87898786D01*
X57984786Y87855928D01*
X57956214Y87827357D01*
X57927643Y87813071D01*
X58227643Y87627357D02*
X58241928Y87613071D01*
X58227643Y87598786D01*
X58213357Y87613071D01*
X58227643Y87627357D01*
X58227643Y87598786D01*
X58513357Y87898786D02*
X58370500Y87898786D01*
X58356214Y87755928D01*
X58370500Y87770214D01*
X58399071Y87784500D01*
X58470500Y87784500D01*
X58499071Y87770214D01*
X58513357Y87755928D01*
X58527643Y87727357D01*
X58527643Y87655928D01*
X58513357Y87627357D01*
X58499071Y87613071D01*
X58470500Y87598786D01*
X58399071Y87598786D01*
X58370500Y87613071D01*
X58356214Y87627357D01*
X58799071Y87898786D02*
X58656214Y87898786D01*
X58641928Y87755928D01*
X58656214Y87770214D01*
X58684786Y87784500D01*
X58756214Y87784500D01*
X58784786Y87770214D01*
X58799071Y87755928D01*
X58813357Y87727357D01*
X58813357Y87655928D01*
X58799071Y87627357D01*
X58784786Y87613071D01*
X58756214Y87598786D01*
X58684786Y87598786D01*
X58656214Y87613071D01*
X58641928Y87627357D01*
X58999071Y87898786D02*
X59027643Y87898786D01*
X59056214Y87884500D01*
X59070500Y87870214D01*
X59084786Y87841643D01*
X59099071Y87784500D01*
X59099071Y87713071D01*
X59084786Y87655928D01*
X59070500Y87627357D01*
X59056214Y87613071D01*
X59027643Y87598786D01*
X58999071Y87598786D01*
X58970500Y87613071D01*
X58956214Y87627357D01*
X58941928Y87655928D01*
X58927643Y87713071D01*
X58927643Y87784500D01*
X58941928Y87841643D01*
X58956214Y87870214D01*
X58970500Y87884500D01*
X58999071Y87898786D01*
X59227643Y87598786D02*
X59227643Y87798786D01*
X59227643Y87770214D02*
X59241928Y87784500D01*
X59270500Y87798786D01*
X59313357Y87798786D01*
X59341928Y87784500D01*
X59356214Y87755928D01*
X59356214Y87598786D01*
X59356214Y87755928D02*
X59370500Y87784500D01*
X59399071Y87798786D01*
X59441928Y87798786D01*
X59470500Y87784500D01*
X59484786Y87755928D01*
X59484786Y87598786D01*
X59627643Y87598786D02*
X59627643Y87798786D01*
X59627643Y87770214D02*
X59641928Y87784500D01*
X59670500Y87798786D01*
X59713357Y87798786D01*
X59741928Y87784500D01*
X59756214Y87755928D01*
X59756214Y87598786D01*
X59756214Y87755928D02*
X59770500Y87784500D01*
X59799071Y87798786D01*
X59841928Y87798786D01*
X59870500Y87784500D01*
X59884786Y87755928D01*
X59884786Y87598786D01*
X60470500Y87913071D02*
X60213357Y87527357D01*
X60856214Y87898786D02*
X60884786Y87898786D01*
X60913357Y87884500D01*
X60927643Y87870214D01*
X60941928Y87841643D01*
X60956214Y87784500D01*
X60956214Y87713071D01*
X60941928Y87655928D01*
X60927643Y87627357D01*
X60913357Y87613071D01*
X60884786Y87598786D01*
X60856214Y87598786D01*
X60827643Y87613071D01*
X60813357Y87627357D01*
X60799071Y87655928D01*
X60784786Y87713071D01*
X60784786Y87784500D01*
X60799071Y87841643D01*
X60813357Y87870214D01*
X60827643Y87884500D01*
X60856214Y87898786D01*
X61084786Y87627357D02*
X61099071Y87613071D01*
X61084786Y87598786D01*
X61070500Y87613071D01*
X61084786Y87627357D01*
X61084786Y87598786D01*
X61284786Y87898786D02*
X61313357Y87898786D01*
X61341928Y87884500D01*
X61356214Y87870214D01*
X61370500Y87841643D01*
X61384786Y87784500D01*
X61384786Y87713071D01*
X61370500Y87655928D01*
X61356214Y87627357D01*
X61341928Y87613071D01*
X61313357Y87598786D01*
X61284786Y87598786D01*
X61256214Y87613071D01*
X61241928Y87627357D01*
X61227643Y87655928D01*
X61213357Y87713071D01*
X61213357Y87784500D01*
X61227643Y87841643D01*
X61241928Y87870214D01*
X61256214Y87884500D01*
X61284786Y87898786D01*
X61641928Y87898786D02*
X61584786Y87898786D01*
X61556214Y87884500D01*
X61541928Y87870214D01*
X61513357Y87827357D01*
X61499071Y87770214D01*
X61499071Y87655928D01*
X61513357Y87627357D01*
X61527643Y87613071D01*
X61556214Y87598786D01*
X61613357Y87598786D01*
X61641928Y87613071D01*
X61656214Y87627357D01*
X61670500Y87655928D01*
X61670500Y87727357D01*
X61656214Y87755928D01*
X61641928Y87770214D01*
X61613357Y87784500D01*
X61556214Y87784500D01*
X61527643Y87770214D01*
X61513357Y87755928D01*
X61499071Y87727357D01*
X61956214Y87598786D02*
X61784786Y87598786D01*
X61870500Y87598786D02*
X61870500Y87898786D01*
X61841928Y87855928D01*
X61813357Y87827357D01*
X61784786Y87813071D01*
X62141928Y87898786D02*
X62170500Y87898786D01*
X62199071Y87884500D01*
X62213357Y87870214D01*
X62227643Y87841643D01*
X62241928Y87784500D01*
X62241928Y87713071D01*
X62227643Y87655928D01*
X62213357Y87627357D01*
X62199071Y87613071D01*
X62170500Y87598786D01*
X62141928Y87598786D01*
X62113357Y87613071D01*
X62099071Y87627357D01*
X62084786Y87655928D01*
X62070500Y87713071D01*
X62070500Y87784500D01*
X62084786Y87841643D01*
X62099071Y87870214D01*
X62113357Y87884500D01*
X62141928Y87898786D01*
X62356214Y87898786D02*
X62356214Y87841643D01*
X62470500Y87898786D02*
X62470500Y87841643D01*
X62913357Y87484500D02*
X62899071Y87498786D01*
X62870500Y87541643D01*
X62856214Y87570214D01*
X62841928Y87613071D01*
X62827643Y87684500D01*
X62827643Y87741643D01*
X62841928Y87813071D01*
X62856214Y87855928D01*
X62870500Y87884500D01*
X62899071Y87927357D01*
X62913357Y87941643D01*
X62999071Y87898786D02*
X63184786Y87898786D01*
X63084786Y87784500D01*
X63127643Y87784500D01*
X63156214Y87770214D01*
X63170500Y87755928D01*
X63184786Y87727357D01*
X63184786Y87655928D01*
X63170500Y87627357D01*
X63156214Y87613071D01*
X63127643Y87598786D01*
X63041928Y87598786D01*
X63013357Y87613071D01*
X62999071Y87627357D01*
X63541928Y87598786D02*
X63541928Y87898786D01*
X63670500Y87598786D02*
X63670500Y87755928D01*
X63656214Y87784500D01*
X63627643Y87798786D01*
X63584786Y87798786D01*
X63556214Y87784500D01*
X63541928Y87770214D01*
X63856214Y87598786D02*
X63827643Y87613071D01*
X63813357Y87627357D01*
X63799071Y87655928D01*
X63799071Y87741643D01*
X63813357Y87770214D01*
X63827643Y87784500D01*
X63856214Y87798786D01*
X63899071Y87798786D01*
X63927643Y87784500D01*
X63941928Y87770214D01*
X63956214Y87741643D01*
X63956214Y87655928D01*
X63941928Y87627357D01*
X63927643Y87613071D01*
X63899071Y87598786D01*
X63856214Y87598786D01*
X64127643Y87598786D02*
X64099071Y87613071D01*
X64084786Y87641643D01*
X64084786Y87898786D01*
X64356214Y87613071D02*
X64327643Y87598786D01*
X64270500Y87598786D01*
X64241928Y87613071D01*
X64227643Y87641643D01*
X64227643Y87755928D01*
X64241928Y87784500D01*
X64270500Y87798786D01*
X64327643Y87798786D01*
X64356214Y87784500D01*
X64370500Y87755928D01*
X64370500Y87727357D01*
X64227643Y87698786D01*
X64484786Y87613071D02*
X64513357Y87598786D01*
X64570500Y87598786D01*
X64599071Y87613071D01*
X64613357Y87641643D01*
X64613357Y87655928D01*
X64599071Y87684500D01*
X64570500Y87698786D01*
X64527643Y87698786D01*
X64499071Y87713071D01*
X64484786Y87741643D01*
X64484786Y87755928D01*
X64499071Y87784500D01*
X64527643Y87798786D01*
X64570500Y87798786D01*
X64599071Y87784500D01*
X64713357Y87484500D02*
X64727643Y87498786D01*
X64756214Y87541643D01*
X64770500Y87570214D01*
X64784786Y87613071D01*
X64799071Y87684500D01*
X64799071Y87741643D01*
X64784786Y87813071D01*
X64770500Y87855928D01*
X64756214Y87884500D01*
X64727643Y87927357D01*
X64713357Y87941643D01*
X57562800Y87245800D02*
X57655500Y87338500D01*
X57562800Y87431200D01*
X57470100Y87338500D01*
X57562800Y87245800D01*
X58099071Y87202786D02*
X57927643Y87202786D01*
X58013357Y87202786D02*
X58013357Y87502786D01*
X57984786Y87459928D01*
X57956214Y87431357D01*
X57927643Y87417071D01*
X58227643Y87231357D02*
X58241928Y87217071D01*
X58227643Y87202786D01*
X58213357Y87217071D01*
X58227643Y87231357D01*
X58227643Y87202786D01*
X58413357Y87374214D02*
X58384786Y87388500D01*
X58370500Y87402786D01*
X58356214Y87431357D01*
X58356214Y87445643D01*
X58370500Y87474214D01*
X58384786Y87488500D01*
X58413357Y87502786D01*
X58470500Y87502786D01*
X58499071Y87488500D01*
X58513357Y87474214D01*
X58527643Y87445643D01*
X58527643Y87431357D01*
X58513357Y87402786D01*
X58499071Y87388500D01*
X58470500Y87374214D01*
X58413357Y87374214D01*
X58384786Y87359928D01*
X58370500Y87345643D01*
X58356214Y87317071D01*
X58356214Y87259928D01*
X58370500Y87231357D01*
X58384786Y87217071D01*
X58413357Y87202786D01*
X58470500Y87202786D01*
X58499071Y87217071D01*
X58513357Y87231357D01*
X58527643Y87259928D01*
X58527643Y87317071D01*
X58513357Y87345643D01*
X58499071Y87359928D01*
X58470500Y87374214D01*
X58799071Y87502786D02*
X58656214Y87502786D01*
X58641928Y87359928D01*
X58656214Y87374214D01*
X58684786Y87388500D01*
X58756214Y87388500D01*
X58784786Y87374214D01*
X58799071Y87359928D01*
X58813357Y87331357D01*
X58813357Y87259928D01*
X58799071Y87231357D01*
X58784786Y87217071D01*
X58756214Y87202786D01*
X58684786Y87202786D01*
X58656214Y87217071D01*
X58641928Y87231357D01*
X59070500Y87402786D02*
X59070500Y87202786D01*
X58999071Y87517071D02*
X58927643Y87302786D01*
X59113357Y87302786D01*
X59227643Y87202786D02*
X59227643Y87402786D01*
X59227643Y87374214D02*
X59241928Y87388500D01*
X59270500Y87402786D01*
X59313357Y87402786D01*
X59341928Y87388500D01*
X59356214Y87359928D01*
X59356214Y87202786D01*
X59356214Y87359928D02*
X59370500Y87388500D01*
X59399071Y87402786D01*
X59441928Y87402786D01*
X59470500Y87388500D01*
X59484786Y87359928D01*
X59484786Y87202786D01*
X59627643Y87202786D02*
X59627643Y87402786D01*
X59627643Y87374214D02*
X59641928Y87388500D01*
X59670500Y87402786D01*
X59713357Y87402786D01*
X59741928Y87388500D01*
X59756214Y87359928D01*
X59756214Y87202786D01*
X59756214Y87359928D02*
X59770500Y87388500D01*
X59799071Y87402786D01*
X59841928Y87402786D01*
X59870500Y87388500D01*
X59884786Y87359928D01*
X59884786Y87202786D01*
X60470500Y87517071D02*
X60213357Y87131357D01*
X60856214Y87502786D02*
X60884786Y87502786D01*
X60913357Y87488500D01*
X60927643Y87474214D01*
X60941928Y87445643D01*
X60956214Y87388500D01*
X60956214Y87317071D01*
X60941928Y87259928D01*
X60927643Y87231357D01*
X60913357Y87217071D01*
X60884786Y87202786D01*
X60856214Y87202786D01*
X60827643Y87217071D01*
X60813357Y87231357D01*
X60799071Y87259928D01*
X60784786Y87317071D01*
X60784786Y87388500D01*
X60799071Y87445643D01*
X60813357Y87474214D01*
X60827643Y87488500D01*
X60856214Y87502786D01*
X61084786Y87231357D02*
X61099071Y87217071D01*
X61084786Y87202786D01*
X61070500Y87217071D01*
X61084786Y87231357D01*
X61084786Y87202786D01*
X61284786Y87502786D02*
X61313357Y87502786D01*
X61341928Y87488500D01*
X61356214Y87474214D01*
X61370500Y87445643D01*
X61384786Y87388500D01*
X61384786Y87317071D01*
X61370500Y87259928D01*
X61356214Y87231357D01*
X61341928Y87217071D01*
X61313357Y87202786D01*
X61284786Y87202786D01*
X61256214Y87217071D01*
X61241928Y87231357D01*
X61227643Y87259928D01*
X61213357Y87317071D01*
X61213357Y87388500D01*
X61227643Y87445643D01*
X61241928Y87474214D01*
X61256214Y87488500D01*
X61284786Y87502786D01*
X61484786Y87502786D02*
X61684786Y87502786D01*
X61556214Y87202786D01*
X61770500Y87502786D02*
X61956214Y87502786D01*
X61856214Y87388500D01*
X61899071Y87388500D01*
X61927643Y87374214D01*
X61941928Y87359928D01*
X61956214Y87331357D01*
X61956214Y87259928D01*
X61941928Y87231357D01*
X61927643Y87217071D01*
X61899071Y87202786D01*
X61813357Y87202786D01*
X61784786Y87217071D01*
X61770500Y87231357D01*
X62141928Y87502786D02*
X62170500Y87502786D01*
X62199071Y87488500D01*
X62213357Y87474214D01*
X62227643Y87445643D01*
X62241928Y87388500D01*
X62241928Y87317071D01*
X62227643Y87259928D01*
X62213357Y87231357D01*
X62199071Y87217071D01*
X62170500Y87202786D01*
X62141928Y87202786D01*
X62113357Y87217071D01*
X62099071Y87231357D01*
X62084786Y87259928D01*
X62070500Y87317071D01*
X62070500Y87388500D01*
X62084786Y87445643D01*
X62099071Y87474214D01*
X62113357Y87488500D01*
X62141928Y87502786D01*
X62356214Y87502786D02*
X62356214Y87445643D01*
X62470500Y87502786D02*
X62470500Y87445643D01*
X62913357Y87088500D02*
X62899071Y87102786D01*
X62870500Y87145643D01*
X62856214Y87174214D01*
X62841928Y87217071D01*
X62827643Y87288500D01*
X62827643Y87345643D01*
X62841928Y87417071D01*
X62856214Y87459928D01*
X62870500Y87488500D01*
X62899071Y87531357D01*
X62913357Y87545643D01*
X62999071Y87502786D02*
X63184786Y87502786D01*
X63084786Y87388500D01*
X63127643Y87388500D01*
X63156214Y87374214D01*
X63170500Y87359928D01*
X63184786Y87331357D01*
X63184786Y87259928D01*
X63170500Y87231357D01*
X63156214Y87217071D01*
X63127643Y87202786D01*
X63041928Y87202786D01*
X63013357Y87217071D01*
X62999071Y87231357D01*
X63541928Y87202786D02*
X63541928Y87502786D01*
X63670500Y87202786D02*
X63670500Y87359928D01*
X63656214Y87388500D01*
X63627643Y87402786D01*
X63584786Y87402786D01*
X63556214Y87388500D01*
X63541928Y87374214D01*
X63856214Y87202786D02*
X63827643Y87217071D01*
X63813357Y87231357D01*
X63799071Y87259928D01*
X63799071Y87345643D01*
X63813357Y87374214D01*
X63827643Y87388500D01*
X63856214Y87402786D01*
X63899071Y87402786D01*
X63927643Y87388500D01*
X63941928Y87374214D01*
X63956214Y87345643D01*
X63956214Y87259928D01*
X63941928Y87231357D01*
X63927643Y87217071D01*
X63899071Y87202786D01*
X63856214Y87202786D01*
X64127643Y87202786D02*
X64099071Y87217071D01*
X64084786Y87245643D01*
X64084786Y87502786D01*
X64356214Y87217071D02*
X64327643Y87202786D01*
X64270500Y87202786D01*
X64241928Y87217071D01*
X64227643Y87245643D01*
X64227643Y87359928D01*
X64241928Y87388500D01*
X64270500Y87402786D01*
X64327643Y87402786D01*
X64356214Y87388500D01*
X64370500Y87359928D01*
X64370500Y87331357D01*
X64227643Y87302786D01*
X64484786Y87217071D02*
X64513357Y87202786D01*
X64570500Y87202786D01*
X64599071Y87217071D01*
X64613357Y87245643D01*
X64613357Y87259928D01*
X64599071Y87288500D01*
X64570500Y87302786D01*
X64527643Y87302786D01*
X64499071Y87317071D01*
X64484786Y87345643D01*
X64484786Y87359928D01*
X64499071Y87388500D01*
X64527643Y87402786D01*
X64570500Y87402786D01*
X64599071Y87388500D01*
X64713357Y87088500D02*
X64727643Y87102786D01*
X64756214Y87145643D01*
X64770500Y87174214D01*
X64784786Y87217071D01*
X64799071Y87288500D01*
X64799071Y87345643D01*
X64784786Y87417071D01*
X64770500Y87459928D01*
X64756214Y87488500D01*
X64727643Y87531357D01*
X64713357Y87545643D01*
M02*
